<svg width="134" height="35" viewBox="0 0 134 35" fill="none" xmlns="http://www.w3.org/2000/svg">
<path d="M29.6756 10.6103C29.6756 10.6103 31.0273 13.0426 32.1485 14.1468C33.2697 15.2509 34.4306 15.5869 35.6393 15.771C36.8479 15.955 37.7385 15.795 36.6571 15.1789C35.5757 14.5628 32.7528 12.6586 31.4249 11.2024C30.097 9.74619 29.9141 9.58617 29.6835 9.73018C29.2621 9.97822 29.6756 10.6103 29.6756 10.6103Z" fill="#659AD2"/>
<path d="M13.6448 6.68182V11.2104C13.4937 11.3304 13.3268 11.4184 13.1439 11.4904C12.9928 11.5544 12.8338 11.5864 12.6747 11.5944C12.4998 11.6024 12.3328 11.5704 12.1738 11.4904C12.0545 11.4264 11.9591 11.3144 11.9114 11.1864C11.8478 11.0184 11.808 10.8424 11.8001 10.6583C11.7842 10.4503 11.7762 10.1783 11.7762 9.85023V6.68182H9.89168V10.8424C9.89168 11.6425 10.0587 12.2505 10.3926 12.6506C10.7425 13.0586 11.2594 13.2827 11.7921 13.2507C12.1261 13.2587 12.46 13.1787 12.7622 13.0266C13.0803 12.8426 13.3824 12.6186 13.6607 12.3705V13.0746H15.5373V6.68182H13.6448Z" fill="#642D00"/>
<path d="M19.7279 6.4898C18.7101 6.4898 17.9229 6.80184 17.3583 7.42592C16.7938 8.05 16.5155 8.88211 16.5075 9.92224C16.5075 10.9864 16.8097 11.8105 17.414 12.3866C18.0183 12.9626 18.893 13.2507 20.0301 13.2507C20.2925 13.2507 20.5549 13.2347 20.8173 13.2027C21.032 13.1707 21.2387 13.1226 21.4455 13.0666C21.6204 13.0266 21.7953 12.9706 21.9703 12.8986C22.0975 12.8426 22.2406 12.7866 22.3917 12.7226V11.0824H22.1929C22.1134 11.1464 22.0021 11.2184 21.8748 11.3064C21.7397 11.3944 21.5965 11.4744 21.4455 11.5384C21.2626 11.6265 21.0638 11.6905 20.865 11.7385C20.6503 11.7865 20.4356 11.8185 20.2209 11.8185C19.9824 11.8185 19.7518 11.7945 19.5212 11.7385C19.3224 11.6905 19.1315 11.6105 18.9566 11.4824C18.7896 11.3624 18.6544 11.1944 18.559 11.0104C18.4477 10.7783 18.392 10.5223 18.3841 10.2663H22.4951V9.54619C22.4951 8.56207 22.2645 7.80997 21.7953 7.2819C21.3262 6.75383 20.6503 6.4898 19.7279 6.4898ZM18.392 9.05813C18.392 8.71408 18.5113 8.37804 18.734 8.11401C18.9566 7.87398 19.2667 7.74596 19.5927 7.76996C19.8949 7.74596 20.1891 7.86598 20.3879 8.09801C20.5787 8.37804 20.6741 8.71408 20.6662 9.05813H18.392Z" fill="#642D00"/>
<path d="M2.60016 4.8576H0.723593V6.68184H0V8.06602H0.715641V11.0504C0.715641 11.8105 0.890576 12.3546 1.24044 12.6906C1.59031 13.0267 2.14692 13.1947 2.91027 13.1947C3.18858 13.1947 3.47484 13.1787 3.75314 13.1467C3.97578 13.1147 4.19048 13.0747 4.40517 13.0107V11.6025H4.24614C4.13482 11.6585 4.02349 11.6985 3.90422 11.7305C3.777 11.7705 3.64182 11.7945 3.50664 11.8025C3.3158 11.8105 3.12497 11.7705 2.95003 11.6825C2.83076 11.6105 2.73534 11.4985 2.68763 11.3704C2.63197 11.2264 2.60016 11.0744 2.60016 10.9224C2.60016 10.7544 2.59221 10.5623 2.59221 10.3383V8.07402H4.39722V6.68184H2.60016V4.8576Z" fill="#642D00"/>
<path d="M8.80244 6.66582C8.62751 6.66582 8.45257 6.69783 8.29354 6.76184C8.12656 6.81784 7.96753 6.88985 7.81645 6.98586C7.67332 7.07388 7.53019 7.17789 7.40297 7.2899C7.25189 7.41792 7.13261 7.52193 7.04514 7.60194V6.68183H5.16858V13.0666H7.04514V8.7941C7.25189 8.70609 7.45863 8.63408 7.67332 8.57807C7.87211 8.52206 8.0868 8.49006 8.29354 8.49006C8.46052 8.49006 8.6116 8.49806 8.74678 8.50606C8.85015 8.51406 8.95352 8.53006 9.05689 8.56207H9.21592V6.68183C9.15231 6.67382 9.0887 6.66582 9.00918 6.66582C8.92967 6.66582 8.86605 6.66582 8.80244 6.66582Z" fill="#642D00"/>
<path d="M42.9704 6.68182H41.0938V13.0666H42.9704V6.68182Z" fill="#642D00"/>
<path d="M47.1845 6.4898C46.1667 6.4898 45.3795 6.80184 44.815 7.42592C44.2504 8.05 43.9721 8.88211 43.9642 9.92224C43.9642 10.9864 44.2663 11.8105 44.8706 12.3866C45.4749 12.9626 46.3496 13.2507 47.4867 13.2507C47.7491 13.2507 48.0194 13.2347 48.2818 13.2027C48.4965 13.1707 48.7033 13.1226 48.91 13.0666C49.085 13.0266 49.2599 12.9706 49.4348 12.8986C49.5621 12.8426 49.7052 12.7866 49.8563 12.7226V11.0824H49.6575C49.578 11.1464 49.4666 11.2184 49.3394 11.3064C49.2042 11.3944 49.0611 11.4744 48.91 11.5384C48.7271 11.6265 48.5283 11.6905 48.3296 11.7385C48.1149 11.7865 47.9002 11.8185 47.6855 11.8185C47.4469 11.8185 47.2163 11.7945 46.9857 11.7385C46.787 11.6905 46.5882 11.6105 46.4212 11.4824C46.2542 11.3624 46.119 11.1944 46.0236 11.0104C45.9123 10.7783 45.8566 10.5223 45.8487 10.2663H49.9596V9.54619C49.9596 8.56207 49.729 7.80997 49.2599 7.2819C48.7987 6.74583 48.1069 6.4898 47.1845 6.4898ZM45.8407 9.05813C45.8407 8.71408 45.96 8.37804 46.1826 8.11401C46.4053 7.87398 46.7154 7.74596 47.0414 7.76996C47.3436 7.74596 47.6378 7.86598 47.8366 8.09801C48.0274 8.37804 48.1228 8.71408 48.1149 9.05813H45.8407Z" fill="#642D00"/>
<path d="M56.0745 7.12189C55.7326 6.69783 55.2078 6.4738 54.6671 6.50581C54.3331 6.49781 53.9991 6.57782 53.697 6.73784C53.3709 6.91386 53.0688 7.13789 52.7984 7.38592V6.68183H50.9219V13.0667H52.7984V8.53807C52.9495 8.41805 53.1244 8.32204 53.2994 8.25003C53.4505 8.19403 53.6095 8.16202 53.7685 8.16202C53.9355 8.15402 54.1025 8.18602 54.2536 8.25803C54.3808 8.32204 54.4762 8.43406 54.5319 8.57007C54.5955 8.7541 54.6352 8.94612 54.6432 9.13815C54.6591 9.39418 54.675 9.65021 54.675 9.90625V13.0747H56.5595V8.92212C56.5595 8.13002 56.4005 7.53794 56.0745 7.12189Z" fill="#642D00"/>
<path d="M61.5452 6.93787C61.3226 6.80986 61.084 6.69784 60.8375 6.60983C60.5831 6.52982 60.3286 6.49782 60.0662 6.50582C59.7243 6.50582 59.3824 6.58583 59.0802 6.74585C58.7701 6.90587 58.4998 7.1299 58.2851 7.40194C58.0386 7.72198 57.8477 8.08202 57.7205 8.47407C57.5774 8.94613 57.5058 9.4342 57.5138 9.92226C57.5138 10.9304 57.7126 11.7385 58.1101 12.3386C58.4521 12.9066 59.0723 13.2507 59.7402 13.2427C59.9151 13.2427 60.0901 13.2267 60.265 13.1867C60.4161 13.1467 60.5672 13.0907 60.7103 13.0187C60.8534 12.9386 60.9886 12.8506 61.1238 12.7466C61.2828 12.6266 61.418 12.5146 61.5373 12.4026V13.0667H63.4138V4.22553H61.5452V6.93787ZM61.5452 11.3064C61.41 11.4265 61.251 11.5145 61.084 11.5865C60.925 11.6505 60.758 11.6905 60.5831 11.6905C60.2332 11.7225 59.8992 11.5545 59.7084 11.2664C59.5255 10.9864 59.4381 10.5303 59.4381 9.89826C59.4062 9.41019 59.5255 8.92213 59.78 8.49808C60.0106 8.16203 60.3922 7.97001 60.7978 7.99401C60.925 7.99401 61.0602 8.01001 61.1874 8.04202C61.3146 8.06602 61.4339 8.10602 61.5532 8.16203L61.5452 11.3064Z" fill="#642D00"/>
<path d="M39.9646 6.66582C39.7897 6.66582 39.6147 6.69783 39.4557 6.76184C39.2887 6.81784 39.1297 6.88985 38.9786 6.98586C38.8355 7.07388 38.6924 7.17789 38.5651 7.2899C38.4141 7.41792 38.2948 7.52193 38.2073 7.60194V6.68183H36.3387V13.0666H38.2153V8.7941C38.422 8.70609 38.6287 8.63408 38.8434 8.57807C39.0422 8.52206 39.249 8.49006 39.4637 8.49006C39.6306 8.49006 39.7817 8.49806 39.9169 8.50606C40.0203 8.51406 40.1236 8.53006 40.227 8.56207H40.386V6.68183C40.3224 6.67382 40.2588 6.66582 40.1793 6.66582C40.0998 6.66582 40.0282 6.66582 39.9646 6.66582Z" fill="#642D00"/>
<path d="M32.9513 6.79385C32.3231 6.88986 31.0668 7.04989 30.2875 7.1539C30.0569 7.80998 29.8184 8.48207 29.5958 9.13015C30.3909 9.05814 30.8362 8.99413 31.7904 8.85812C32.8479 8.7141 32.9354 9.37818 32.6651 9.89025C32.3947 10.4023 30.2398 12.3386 29.1743 13.2827C28.4905 13.8908 29.3175 13.8748 29.3175 13.8748C29.3175 13.8748 34.0486 11.3384 34.8358 8.42606C35.1857 7.1539 33.9055 6.64983 32.9513 6.79385Z" fill="#642D00"/>
<path d="M43.0179 4.22553H41.038V5.77772H43.0179V4.22553Z" fill="#642D00"/>
<path d="M30.2875 7.1539C30.5261 6.48181 30.7567 5.8257 30.9714 5.21763L31.0032 5.12161C31.9415 4.9776 32.9513 4.79357 33.9691 4.59355C37.0543 3.99347 36.8237 2.98534 36.442 2.38526C36.0524 1.78519 35.138 1.79319 35.138 1.79319C35.138 1.79319 35.0108 2.56129 32.9593 2.96934C32.5537 3.04935 32.1243 3.12136 31.695 3.17736C32.021 2.24124 32.2357 1.64117 32.2357 1.64117C32.2357 1.64117 32.665 0.769055 32.2357 0.312996C31.4405 -0.535113 30.7805 0.609034 30.7805 0.609034L29.6037 3.36139C27.9895 3.4494 26.7093 3.40939 26.7093 3.40939C26.4151 3.38539 26.113 3.4414 25.8346 3.55341C25.4848 3.73744 25.5166 4.9856 26.7093 5.32164C27.1546 5.44966 27.8623 5.45766 28.729 5.39365L24.5306 15.1949C24.5306 15.1949 24.2046 16.131 24.9679 16.083C25.7313 16.027 27.1944 15.899 27.8782 14.0188C28.1327 13.3067 28.8403 11.3144 29.6116 9.13013C29.6832 8.8821 30.1762 7.48194 30.2875 7.1539ZM31.0032 5.11361L31.687 3.16936C31.4962 3.72143 31.2656 4.38552 31.0032 5.11361Z" fill="#642D00"/>
<path d="M77.8451 33.7173V19.1635L87.2995 33.7173H95.7759L84.8425 17.7393L95.8793 3.81749H88.2935L77.8451 17.0912V3.81749H71.8496V33.7173H77.8451ZM105.413 33.7173V3.81749H99.4177V33.7173H105.413ZM113.452 31.6211C115.464 33.3653 118.35 34.2454 122.104 34.2454C124.688 34.2454 126.843 33.8854 128.568 33.1573C130.222 32.4932 131.622 31.333 132.584 29.8208C133.514 28.3886 134.007 26.7164 133.999 25.0042C133.999 23.116 133.601 21.5238 132.814 20.2436C132.011 18.9474 130.882 17.8993 129.53 17.2032C128.131 16.4591 125.976 15.747 123.058 15.0509C120.139 14.3548 118.303 13.6908 117.547 13.0507C116.983 12.6186 116.657 11.9465 116.657 11.2344C116.641 10.4903 116.999 9.79425 117.611 9.3782C118.597 8.65811 119.965 8.29806 121.706 8.29806C123.392 8.29806 124.664 8.63411 125.507 9.30619C126.35 9.97828 126.898 11.0824 127.161 12.6186L133.156 12.5946C133.061 9.85026 132.075 7.40995 130.19 5.76974C128.306 4.12953 125.499 3.30542 121.77 3.30542C119.487 3.30542 117.539 3.64946 115.925 4.34555C114.414 4.95363 113.118 6.00977 112.22 7.36994C111.377 8.63411 110.932 10.1223 110.932 11.6425C110.932 14.0108 111.846 16.0111 113.667 17.6593C114.963 18.8274 117.221 19.8115 120.434 20.6196C122.93 21.2437 124.537 21.6838 125.236 21.9238C126.262 22.2919 126.986 22.7239 127.391 23.22C127.805 23.724 128.027 24.3641 128.012 25.0282C128.012 26.1324 127.519 27.0925 126.541 27.9166C125.562 28.7407 124.107 29.1487 122.175 29.1487C120.354 29.1487 118.899 28.6847 117.826 27.7646C116.752 26.8364 116.036 25.3883 115.687 23.42L109.85 23.268C110.24 26.6124 111.44 29.8768 113.452 31.6211Z" fill="black"/>
</svg>
