<svg width="134" height="19" viewBox="0 0 134 19" fill="none" xmlns="http://www.w3.org/2000/svg">
<path d="M25.2948 9.39855C25.2948 9.39804 25.0726 9.25682 25.0726 9.25682C24.3144 8.50013 23.2586 8.17215 21.8469 8.25465C20.6716 8.32652 19.7393 8.79269 19.0277 9.22544C19.0277 9.21481 19.0266 9.20419 19.0266 9.19356C19.0266 8.82508 19.0681 8.42623 19.1097 8.03852C19.1501 7.64474 19.1927 7.24387 19.1927 6.86476C19.1927 6.47756 19.1491 6.1106 19.0155 5.79679C18.9821 5.71631 18.9077 5.66823 18.8141 5.66823C18.4344 5.67683 17.6929 5.93649 17.5133 6.0944C17.5133 6.09542 17.4156 6.30851 17.4156 6.30851C17.4095 6.72912 17.3169 7.90288 17.2227 8.04561C17.2268 8.04055 17.1731 8.18733 17.1731 8.18733C17.0132 9.8642 17.0101 11.3386 17.1574 12.6045C17.1741 12.731 17.4186 12.9208 17.6064 12.9897C17.8129 13.0661 18.4587 12.893 18.8313 12.7533C18.8262 12.7548 18.9705 12.731 18.9705 12.731C19.0879 12.7184 19.1572 12.6192 19.1522 12.485C19.1501 12.482 19.1613 12.1206 19.1613 12.1206C19.43 11.0283 20.5178 9.72451 21.8049 9.52863C22.5327 9.41323 23.1067 9.6005 23.5607 10.0945C23.622 10.1836 23.7546 10.9696 23.2753 11.8731C22.9184 12.5417 22.2048 13.1061 21.2653 13.4579C20.3765 13.796 19.3987 13.9321 18.191 13.8906C18.1404 13.8582 17.0603 13.1258 17.0603 13.1258C16.1021 12.4532 14.9122 11.6165 13.8336 11.207C13.6437 11.1341 13.3046 10.8522 13.1001 10.6832L12.9883 10.5915C12.3662 10.093 11.1823 9.30288 10.2313 8.6702C10.2313 8.6702 9.80208 8.3822 9.71907 8.32652C9.72008 8.29109 9.72008 8.21922 9.72008 8.21922C9.74792 8.18885 10.3457 7.8305 10.3457 7.8305C11.1818 7.34105 11.5685 7.10114 11.6505 6.97713C11.6338 6.99738 11.7614 6.91184 11.7614 6.91184C11.7695 6.90829 13.8356 5.73858 13.8356 5.73858C15.8268 4.6453 18.0817 3.40372 19.2661 2.17732C19.2681 2.1758 19.3243 1.98953 19.3243 1.98953L19.3486 1.82251C19.4275 1.55981 19.4316 1.35938 19.3653 1.12604C19.3486 1.05923 19.2873 0.982298 19.2053 0.96762C18.2801 0.874994 17.0876 1.42973 16.0014 2.44861C15.7564 2.6779 15.5504 2.79077 15.3333 2.9087L15.1668 3.00183C13.9697 3.6826 11.2729 5.35644 9.86029 6.25992C9.95342 4.74147 10.2338 2.58173 10.58 0.781357L10.5416 0.566243C10.5375 0.559157 10.3953 0.293935 10.3953 0.293935L10.2849 0.0990677L10.2531 0.0904631C9.97113 -0.0517648 9.74084 0.00593622 9.57178 0.0479466L9.28986 0.152213L8.91328 0.288874C8.83938 0.303552 8.78674 0.349612 8.75789 0.421485C8.0837 2.05129 7.52137 4.73185 7.38775 6.87641C6.04038 6.0195 4.79475 5.40301 4.18383 5.10539L4.16712 5.09577L4.09474 5.08008C3.87508 5.05174 3.60732 4.89028 3.3502 4.73438C3.32236 4.71768 2.83696 4.40184 2.83696 4.40184L2.05446 3.90025C2.06003 3.90531 1.84744 3.85318 1.84744 3.85318C1.51136 3.91138 0.866021 4.34515 0.67419 4.64074C0.649389 4.68022 0.63876 4.72223 0.63876 4.76627C0.63876 4.82903 0.6585 4.89129 0.67419 4.95253L0.708608 5.11197L0.745051 5.20763C1.12061 5.5923 2.06762 6.23309 2.9959 6.73266L4.07247 7.30309L5.72049 8.20302C5.72049 8.21061 6.00141 8.42623 6.00141 8.42623L6.19526 8.53759C6.19526 8.53759 6.21804 8.55075 6.23069 8.55935C5.79186 8.85342 3.23328 10.5612 3.23328 10.5612L1.65764 11.6054C1.50832 11.7066 0.886773 11.985 0.7491 12.0401C0.407956 12.1793 0.148808 12.3929 0.0425165 12.6247L0 12.7164L0.0425165 12.7766L0.16298 12.8682C0.156906 12.8682 0.323935 12.9735 0.323935 12.9735L0.498051 13.0924C0.5021 13.0939 0.662043 13.1187 0.662043 13.1187C0.938906 13.1294 1.34889 12.9715 2.11621 12.6354C2.82127 12.3236 4.73502 11.1686 5.55347 10.6756L5.9022 10.4665C6.04645 10.4782 6.20488 10.3562 6.34711 10.2494C6.5111 10.1183 6.86793 9.89913 7.08558 9.80296C7.09266 9.80094 7.21616 9.73159 7.33359 9.6663C7.33258 9.70224 7.33157 9.75994 7.33157 9.75994C7.36801 12.2634 7.51125 14.083 7.78508 15.486L7.78912 15.5098L7.81595 15.5665C7.95059 15.7639 8.10344 16.3576 8.2401 16.8804L8.55139 17.9251C8.55847 17.9378 8.63945 18.0233 8.63945 18.0233C8.81762 18.1443 9.36021 18.3523 9.72211 18.3093L9.8122 18.2987L9.8699 18.1711C9.90078 18.0147 9.91141 17.8614 9.91141 17.6923C9.91141 17.5015 9.89774 17.2914 9.88053 17.0333L9.85573 16.6567C9.74084 14.9095 9.62644 12.3863 9.62644 10.709C9.62644 10.6619 9.62644 10.6194 9.62644 10.5753C9.92406 10.7611 11.2218 11.5795 11.2218 11.5795C13.4322 13.0135 16.7707 15.1793 18.7882 15.7517C18.893 15.7836 19.0039 15.7593 19.0808 15.6849C19.0838 15.6809 19.3911 15.4855 19.3911 15.4855L19.4493 15.4617C19.5652 15.4065 19.6421 15.2117 19.6558 15.0001C21.3559 14.9146 23.7278 14.2596 24.9972 12.6642C25.4886 12.0452 25.7088 11.288 25.7088 10.6396C25.7098 10.1092 25.5625 9.65061 25.2948 9.39855Z" fill="#FCAF16"/>
<path d="M31.5488 2.54395H33.5329V8.10501L40.2085 2.54395H43.0182L35.9619 8.15512L43.6033 14.9679H40.7972L33.5329 8.31101V14.9679H31.5488V2.54395Z" fill="#776C61"/>
<path d="M44.9844 2.56934H51.0916C53.9959 2.56934 55.5153 3.53507 55.5153 5.6452C55.5153 7.14644 54.4676 8.17898 53.0737 8.45635V8.50899C55.0724 8.74587 56.0184 10.0593 56.0184 11.5368C56.0184 13.3908 54.6589 14.9953 51.2849 14.9953H44.9844V2.56934ZM46.9634 7.80393H50.9939C52.4896 7.80393 53.596 7.23502 53.596 5.90941C53.596 4.75489 53.0514 3.98503 50.7646 3.98503H46.9634V7.80393ZM46.9634 13.5852H50.8694C53.2954 13.5852 53.9387 12.6371 53.9387 11.4345C53.9387 10.0057 52.9502 9.21507 50.7646 9.21507H46.9634V13.5852Z" fill="#776C61"/>
<path d="M70.3634 11.3164C70.3634 11.8798 70.2675 12.3951 70.0757 12.8626C69.8959 13.33 69.6143 13.7315 69.2307 14.0671C68.8592 14.4027 68.3798 14.6664 67.7925 14.8581C67.2052 15.0379 66.5101 15.1278 65.707 15.1278C64.7842 15.1278 63.9392 14.948 63.1721 14.5885C62.417 14.2169 61.7698 13.7195 61.2305 13.0963L62.5788 11.7839C62.9983 12.2393 63.4957 12.6049 64.071 12.8805C64.6583 13.1442 65.2516 13.2761 65.8509 13.2761C67.5887 13.2761 68.4577 12.6648 68.4577 11.4423C68.4577 11.2026 68.4097 10.9868 68.3139 10.7951C68.218 10.6033 68.0562 10.4295 67.8285 10.2737C67.6007 10.1059 67.3071 9.9501 66.9475 9.80628C66.588 9.66245 66.1445 9.51263 65.6171 9.35682C64.946 9.16506 64.3647 8.9673 63.8733 8.76354C63.3819 8.55979 62.9743 8.32608 62.6507 8.0624C62.3271 7.78673 62.0814 7.45713 61.9136 7.0736C61.7578 6.69006 61.6799 6.21664 61.6799 5.65332C61.6799 5.11398 61.7878 4.62857 62.0035 4.19709C62.2193 3.75363 62.5129 3.38208 62.8845 3.08245C63.256 2.78281 63.6935 2.55509 64.1969 2.39928C64.7122 2.23148 65.2576 2.14758 65.8329 2.14758C66.6958 2.14758 67.4569 2.2974 68.1161 2.59704C68.7753 2.89667 69.3866 3.31616 69.9499 3.85551L68.6195 5.20387C68.224 4.79636 67.7925 4.49673 67.3251 4.30496C66.8576 4.10121 66.3123 3.99933 65.6891 3.99933C64.946 3.99933 64.4066 4.15514 64.071 4.46676C63.7474 4.77839 63.5856 5.14394 63.5856 5.56343C63.5856 5.77917 63.6276 5.97693 63.7115 6.15671C63.7954 6.32451 63.9392 6.48631 64.1429 6.64212C64.3467 6.78595 64.6283 6.92977 64.9879 7.0736C65.3475 7.21742 65.7969 7.36724 66.3363 7.52305C66.9595 7.71482 67.5168 7.91258 68.0082 8.11633C68.5116 8.32008 68.9371 8.56578 69.2847 8.85344C69.6323 9.14109 69.8959 9.48267 70.0757 9.87819C70.2675 10.2737 70.3634 10.7531 70.3634 11.3164Z" fill="#776C61"/>
<path d="M79.4089 10.022C79.4089 10.1898 79.4029 10.3516 79.3909 10.5074C79.3789 10.6513 79.3669 10.7711 79.3549 10.867H73.1165C73.1645 11.3224 73.2603 11.712 73.4042 12.0356C73.548 12.3592 73.7278 12.6288 73.9435 12.8446C74.1593 13.0483 74.399 13.2042 74.6626 13.312C74.9263 13.4079 75.202 13.4558 75.4896 13.4558C75.8852 13.4558 76.2447 13.3899 76.5683 13.2581C76.9039 13.1262 77.2275 12.9405 77.5391 12.7008L78.6358 13.8873C78.2163 14.2828 77.7489 14.5885 77.2335 14.8042C76.7181 15.0199 76.1009 15.1278 75.3818 15.1278C74.8304 15.1278 74.3031 15.0199 73.7997 14.8042C73.3083 14.5885 72.8768 14.2709 72.5053 13.8514C72.1337 13.4319 71.8401 12.9165 71.6243 12.3052C71.4086 11.694 71.3007 10.9988 71.3007 10.2198C71.3007 9.41675 71.4026 8.70961 71.6064 8.09835C71.8101 7.48709 72.0918 6.97771 72.4513 6.57021C72.8109 6.15072 73.2424 5.8331 73.7458 5.61737C74.2611 5.40163 74.8244 5.29376 75.4357 5.29376C76.1069 5.29376 76.6882 5.41961 77.1796 5.6713C77.683 5.923 78.0965 6.26458 78.4201 6.69606C78.7557 7.12753 79.0014 7.63092 79.1572 8.20622C79.325 8.78152 79.4089 9.38679 79.4089 10.022ZM77.5391 9.33885C77.5152 9.01524 77.4552 8.70961 77.3594 8.42196C77.2755 8.13431 77.1436 7.88261 76.9638 7.66688C76.7841 7.45114 76.5563 7.28334 76.2807 7.16349C76.017 7.03165 75.6934 6.96573 75.3099 6.96573C74.6866 6.96573 74.1892 7.17547 73.8177 7.59496C73.4581 8.00247 73.2364 8.58376 73.1525 9.33885H77.5391Z" fill="#776C61"/>
<path d="M86.6476 8.20622C86.264 7.8107 85.8865 7.52305 85.5149 7.34327C85.1554 7.1515 84.7659 7.05562 84.3464 7.05562C83.6632 7.05562 83.1239 7.33728 82.7283 7.90059C82.3328 8.45192 82.1351 9.213 82.1351 10.1838C82.1351 10.6513 82.183 11.0827 82.2789 11.4782C82.3748 11.8618 82.5186 12.1974 82.7104 12.485C82.9021 12.7607 83.1358 12.9764 83.4115 13.1322C83.6992 13.288 84.0288 13.366 84.4003 13.366C84.8438 13.366 85.2153 13.2701 85.5149 13.0783C85.8266 12.8745 86.1682 12.5809 86.5397 12.1974L87.7263 13.366C87.5465 13.6057 87.3487 13.8334 87.133 14.0491C86.9172 14.2529 86.6715 14.4387 86.3959 14.6064C86.1322 14.7623 85.8326 14.8881 85.497 14.984C85.1614 15.0799 84.7778 15.1278 84.3464 15.1278C83.7711 15.1278 83.2317 15.014 82.7283 14.7862C82.2369 14.5465 81.8055 14.2169 81.4339 13.7974C81.0743 13.366 80.7867 12.8506 80.571 12.2513C80.3672 11.652 80.2653 10.9809 80.2653 10.2378C80.2653 9.4587 80.3732 8.76354 80.5889 8.15229C80.8047 7.54103 81.0983 7.02566 81.4699 6.60616C81.8414 6.17469 82.2789 5.85108 82.7823 5.63534C83.2857 5.40762 83.825 5.29376 84.4003 5.29376C85.0955 5.29376 85.7127 5.43159 86.2521 5.70726C86.8034 5.97094 87.3008 6.36646 87.7442 6.89382L86.6476 8.20622Z" fill="#776C61"/>
<path d="M94.6929 14.9301V14.0311C94.4532 14.3787 94.1176 14.6484 93.6861 14.8402C93.2666 15.0319 92.8112 15.1278 92.3198 15.1278C91.2171 15.1278 90.3781 14.7742 89.8028 14.0671C89.2395 13.36 88.9579 12.3052 88.9579 10.9029V5.49152H90.8096V10.831C90.8096 11.7899 90.9774 12.4611 91.313 12.8446C91.6606 13.2281 92.14 13.4199 92.7513 13.4199C93.3745 13.4199 93.8539 13.2101 94.1895 12.7907C94.5251 12.3712 94.6929 11.7779 94.6929 11.0108V5.49152H96.5447V14.9301H94.6929Z" fill="#776C61"/>
<path d="M103.417 7.45114C103.213 7.34327 103.003 7.25937 102.787 7.19944C102.572 7.13952 102.308 7.10955 101.996 7.10955C101.409 7.10955 100.954 7.31331 100.63 7.72081C100.306 8.12832 100.145 8.73358 100.145 9.53661V14.9301H98.2929V5.49152H100.145V6.39043C100.36 6.07881 100.654 5.82112 101.026 5.61737C101.409 5.40163 101.835 5.29376 102.302 5.29376C102.686 5.29376 102.997 5.32972 103.237 5.40163C103.489 5.46156 103.71 5.55744 103.902 5.68928L103.417 7.45114Z" fill="#776C61"/>
<path d="M104.907 14.9301V5.49152H106.759V14.9301H104.907Z" fill="#776C61"/>
<path d="M113.097 14.6963C112.87 14.8282 112.6 14.9301 112.288 15.002C111.989 15.0859 111.653 15.1278 111.282 15.1278C110.622 15.1278 110.101 14.9241 109.717 14.5166C109.346 14.109 109.16 13.4798 109.16 12.6288V7.18147H107.812V5.49152H109.16V2.7948L110.976 1.82397V5.49152H113.313V7.18147H110.976V12.3052C110.976 12.7487 111.048 13.0483 111.192 13.2042C111.347 13.36 111.599 13.4379 111.947 13.4379C112.186 13.4379 112.432 13.4019 112.684 13.33C112.936 13.2461 113.145 13.1562 113.313 13.0603L113.097 14.6963Z" fill="#776C61"/>
<path d="M114.936 14.9301V5.49152H116.787V14.9301H114.936Z" fill="#776C61"/>
<path d="M126.272 10.022C126.272 10.1898 126.266 10.3516 126.254 10.5074C126.242 10.6513 126.23 10.7711 126.218 10.867H119.98C120.028 11.3224 120.124 11.712 120.267 12.0356C120.411 12.3592 120.591 12.6288 120.807 12.8446C121.023 13.0483 121.262 13.2042 121.526 13.312C121.79 13.4079 122.065 13.4558 122.353 13.4558C122.748 13.4558 123.108 13.3899 123.432 13.2581C123.767 13.1262 124.091 12.9405 124.402 12.7008L125.499 13.8873C125.08 14.2828 124.612 14.5885 124.097 14.8042C123.581 15.0199 122.964 15.1278 122.245 15.1278C121.694 15.1278 121.166 15.0199 120.663 14.8042C120.172 14.5885 119.74 14.2709 119.369 13.8514C118.997 13.4319 118.703 12.9165 118.488 12.3052C118.272 11.694 118.164 10.9988 118.164 10.2198C118.164 9.41675 118.266 8.70961 118.47 8.09835C118.673 7.48709 118.955 6.97771 119.315 6.57021C119.674 6.15072 120.106 5.8331 120.609 5.61737C121.124 5.40163 121.688 5.29376 122.299 5.29376C122.97 5.29376 123.551 5.41961 124.043 5.6713C124.546 5.923 124.96 6.26458 125.283 6.69606C125.619 7.12753 125.865 7.63092 126.02 8.20622C126.188 8.78152 126.272 9.38679 126.272 10.022ZM124.402 9.33885C124.378 9.01524 124.319 8.70961 124.223 8.42196C124.139 8.13431 124.007 7.88261 123.827 7.66688C123.647 7.45114 123.42 7.28334 123.144 7.16349C122.88 7.03165 122.557 6.96573 122.173 6.96573C121.55 6.96573 121.053 7.17547 120.681 7.59496C120.321 8.00247 120.1 8.58376 120.016 9.33885H124.402Z" fill="#776C61"/>
<path d="M134.001 12.3412C134.001 12.8686 133.899 13.312 133.695 13.6716C133.503 14.0192 133.245 14.3008 132.922 14.5166C132.598 14.7323 132.221 14.8881 131.789 14.984C131.37 15.0799 130.926 15.1278 130.459 15.1278C129.812 15.1278 129.164 15.014 128.517 14.7862C127.882 14.5585 127.325 14.2709 126.845 13.9233L127.69 12.521C128.134 12.8326 128.589 13.0663 129.057 13.2221C129.536 13.3779 129.997 13.4558 130.441 13.4558C131.591 13.4558 132.167 13.1083 132.167 12.4131C132.167 12.0535 131.969 11.7659 131.573 11.5502C131.19 11.3344 130.657 11.0947 129.973 10.831C129.47 10.6393 129.039 10.4475 128.679 10.2557C128.331 10.052 128.044 9.83624 127.816 9.60852C127.6 9.38079 127.444 9.1291 127.349 8.85344C127.253 8.56578 127.205 8.23619 127.205 7.86464C127.205 7.44515 127.283 7.0736 127.438 6.74999C127.594 6.42638 127.816 6.15671 128.104 5.94097C128.391 5.72524 128.733 5.56343 129.128 5.45556C129.524 5.34769 129.955 5.29376 130.423 5.29376C131.022 5.29376 131.597 5.38964 132.149 5.58141C132.712 5.77318 133.203 6.02487 133.623 6.33649L132.814 7.75677C132.43 7.4811 132.041 7.27735 131.645 7.14551C131.25 7.01367 130.824 6.94775 130.369 6.94775C129.913 6.94775 129.584 7.03165 129.38 7.19944C129.176 7.35526 129.074 7.55901 129.074 7.8107C129.074 7.93056 129.098 8.04442 129.146 8.15229C129.194 8.24817 129.284 8.35005 129.416 8.45792C129.548 8.56578 129.722 8.67965 129.937 8.7995C130.165 8.90737 130.459 9.03322 130.818 9.17704C131.346 9.38079 131.807 9.57855 132.203 9.77032C132.598 9.9501 132.928 10.1598 133.191 10.3996C133.467 10.6273 133.671 10.897 133.803 11.2086C133.935 11.5202 134.001 11.8977 134.001 12.3412Z" fill="#776C61"/>
<path d="M104.91 2.47536H106.759V4.32528H104.91V2.47536Z" fill="#776C61"/>
<path d="M114.956 2.47536H116.806V4.32528H114.956V2.47536Z" fill="#776C61"/>
</svg>
