<svg xmlns="http://www.w3.org/2000/svg" width="233" height="31" viewBox="0 0 233 31" fill="none">
<path d="M26.1365 9.29256C26.1365 9.29256 27.3207 11.4233 28.3029 12.3906C29.285 13.3579 30.3021 13.6523 31.3609 13.8135C32.4197 13.9747 33.1998 13.8345 32.2525 13.2948C31.3051 12.7551 28.8323 11.0869 27.669 9.81124C26.5057 8.53557 26.3455 8.39539 26.1434 8.52155C25.7743 8.73884 26.1365 9.29256 26.1365 9.29256Z" fill="#659AD2"/>
<path d="M12.0939 5.85348V9.82066C11.9616 9.9258 11.8153 10.0029 11.6551 10.066C11.5227 10.1221 11.3834 10.1501 11.2441 10.1571C11.0908 10.1641 10.9446 10.1361 10.8052 10.066C10.7008 10.0099 10.6172 9.91178 10.5754 9.79963C10.5196 9.65244 10.4848 9.49824 10.4778 9.33703C10.4639 9.15479 10.4569 8.91648 10.4569 8.6291V5.85348H8.80605V9.49824C8.80605 10.1992 8.95233 10.7318 9.24489 11.0823C9.55139 11.4398 10.0042 11.636 10.4709 11.608C10.7634 11.615 11.056 11.5449 11.3207 11.4117C11.5993 11.2505 11.864 11.0543 12.1078 10.837V11.4538H13.7518V5.85348H12.0939Z" fill="#623011"/>
<path d="M17.4229 5.68527C16.5313 5.68527 15.8416 5.95862 15.3471 6.50534C14.8525 7.05205 14.6087 7.781 14.6017 8.69219C14.6017 9.62441 14.8664 10.3463 15.3958 10.851C15.9252 11.3557 16.6915 11.608 17.6876 11.608C17.9175 11.608 18.1473 11.594 18.3772 11.5659C18.5653 11.5379 18.7464 11.4958 18.9275 11.4468C19.0808 11.4117 19.234 11.3627 19.3873 11.2996C19.4987 11.2505 19.6241 11.2015 19.7564 11.1454V9.70852H19.5823C19.5126 9.76459 19.4151 9.82767 19.3037 9.90477C19.1852 9.98187 19.0599 10.052 18.9275 10.108C18.7673 10.1851 18.5931 10.2412 18.419 10.2833C18.2309 10.3253 18.0428 10.3534 17.8548 10.3534C17.6458 10.3534 17.4438 10.3323 17.2418 10.2833C17.0676 10.2412 16.9005 10.1711 16.7472 10.059C16.6009 9.95384 16.4825 9.80664 16.3989 9.64543C16.3014 9.44217 16.2526 9.21788 16.2457 8.99358H19.847V8.36276C19.847 7.50064 19.645 6.84178 19.234 6.37917C18.823 5.91657 18.2309 5.68527 17.4229 5.68527ZM16.2526 7.9352C16.2526 7.63381 16.3571 7.33943 16.5522 7.10812C16.7472 6.89785 17.0189 6.7857 17.3045 6.80673C17.5692 6.7857 17.8269 6.89084 18.0011 7.0941C18.1682 7.33943 18.2518 7.63381 18.2449 7.9352H16.2526Z" fill="#623011"/>
<path d="M2.41845 4.25541H0.774515V5.8535H0.140625V7.06608H0.767549V9.68049C0.767549 10.3464 0.920797 10.823 1.22729 11.1174C1.53379 11.4118 2.0214 11.5589 2.69012 11.5589C2.93392 11.5589 3.18469 11.5449 3.42849 11.5169C3.62354 11.4889 3.81161 11.4538 3.99969 11.3977V10.1641H3.86037C3.76285 10.2132 3.66533 10.2482 3.56084 10.2763C3.44939 10.3113 3.33097 10.3323 3.21255 10.3394C3.04537 10.3464 2.87819 10.3113 2.72495 10.2342C2.62046 10.1711 2.53687 10.073 2.49507 9.96086C2.44631 9.8347 2.41845 9.70152 2.41845 9.56835C2.41845 9.42115 2.41148 9.25294 2.41148 9.05668V7.07309H3.99272V5.8535H2.41845V4.25541Z" fill="#623011"/>
<path d="M7.85184 5.83947C7.69859 5.83947 7.54534 5.86751 7.40603 5.92358C7.25974 5.97264 7.12043 6.03572 6.98808 6.11983C6.86269 6.19694 6.73731 6.28805 6.62585 6.38618C6.4935 6.49833 6.38902 6.58945 6.31239 6.65954V5.85349H4.66846V11.4468H6.31239V7.7039C6.4935 7.6268 6.67461 7.56372 6.86269 7.51466C7.03684 7.46559 7.22491 7.43755 7.40603 7.43755C7.55231 7.43755 7.68466 7.44456 7.80308 7.45157C7.89363 7.45858 7.98419 7.4726 8.07474 7.50064H8.21406V5.85349C8.15833 5.84648 8.10261 5.83947 8.03295 5.83947C7.96329 5.83947 7.90756 5.83947 7.85184 5.83947Z" fill="#623011"/>
<path d="M37.784 5.85348H36.1401V11.4468H37.784V5.85348Z" fill="#623011"/>
<path d="M41.4757 5.68527C40.5841 5.68527 39.8945 5.95862 39.3999 6.50534C38.9054 7.05205 38.6616 7.781 38.6546 8.69219C38.6546 9.62441 38.9193 10.3463 39.4487 10.851C39.9781 11.3557 40.7443 11.608 41.7404 11.608C41.9703 11.608 42.2072 11.594 42.437 11.5659C42.6251 11.5379 42.8062 11.4958 42.9873 11.4468C43.1406 11.4117 43.2938 11.3627 43.4471 11.2996C43.5585 11.2505 43.6839 11.2015 43.8163 11.1454V9.70852H43.6421C43.5725 9.76459 43.4749 9.82767 43.3635 9.90477C43.2451 9.98187 43.1197 10.052 42.9873 10.108C42.8271 10.1851 42.653 10.2412 42.4788 10.2833C42.2907 10.3253 42.1027 10.3534 41.9146 10.3534C41.7056 10.3534 41.5036 10.3323 41.3016 10.2833C41.1275 10.2412 40.9533 10.1711 40.807 10.059C40.6607 9.95384 40.5423 9.80664 40.4587 9.64543C40.3612 9.44217 40.3125 9.21788 40.3055 8.99358H43.9068V8.36276C43.9068 7.50064 43.7048 6.84178 43.2938 6.37917C42.8898 5.90956 42.2838 5.68527 41.4757 5.68527ZM40.2985 7.9352C40.2985 7.63381 40.403 7.33943 40.5981 7.10812C40.7931 6.89785 41.0648 6.7857 41.3504 6.80673C41.6151 6.7857 41.8728 6.89084 42.0469 7.0941C42.2141 7.33943 42.2977 7.63381 42.2907 7.9352H40.2985Z" fill="#623011"/>
<path d="M49.2636 6.239C48.9641 5.86751 48.5043 5.67125 48.0307 5.69929C47.7381 5.69228 47.4455 5.76237 47.1808 5.90256C46.8952 6.05676 46.6305 6.25301 46.3937 6.4703V5.85349H44.7498V11.4468H46.3937V7.47961C46.5261 7.37448 46.6793 7.29037 46.8325 7.22728C46.9649 7.17822 47.1042 7.15018 47.2435 7.15018C47.3898 7.14318 47.5361 7.17121 47.6684 7.23429C47.7799 7.29037 47.8635 7.3885 47.9122 7.50765C47.968 7.66886 48.0028 7.83708 48.0098 8.0053C48.0237 8.22959 48.0376 8.45389 48.0376 8.67818V11.4538H49.6885V7.81605C49.6885 7.12215 49.5492 6.60347 49.2636 6.239Z" fill="#623011"/>
<path d="M54.0561 6.07779C53.8611 5.96565 53.6521 5.86752 53.4362 5.79042C53.2133 5.72033 52.9904 5.69229 52.7605 5.6993C52.461 5.6993 52.1614 5.76939 51.8967 5.90957C51.6251 6.04976 51.3882 6.24601 51.2002 6.48433C50.9842 6.76469 50.817 7.0801 50.7056 7.42355C50.5802 7.83709 50.5175 8.26465 50.5245 8.69221C50.5245 9.57536 50.6986 10.2833 51.0469 10.809C51.3464 11.3066 51.8898 11.608 52.4749 11.601C52.6282 11.601 52.7814 11.587 52.9347 11.5519C53.067 11.5169 53.1994 11.4678 53.3247 11.4047C53.4501 11.3347 53.5685 11.2576 53.687 11.1664C53.8263 11.0613 53.9447 10.9632 54.0492 10.865V11.4468H55.6931V3.70169H54.0561V6.07779ZM54.0561 9.90479C53.9377 10.0099 53.7984 10.087 53.6521 10.1501C53.5128 10.2062 53.3665 10.2412 53.2133 10.2412C52.9068 10.2693 52.6142 10.1221 52.447 9.86974C52.2868 9.62442 52.2102 9.2249 52.2102 8.67118C52.1823 8.24362 52.2868 7.81606 52.5097 7.44458C52.7117 7.15019 53.0461 6.98197 53.4014 7.003C53.5128 7.003 53.6312 7.01702 53.7427 7.04506C53.8541 7.06608 53.9586 7.10113 54.0631 7.15019L54.0561 9.90479Z" fill="#623011"/>
<path d="M35.1509 5.83947C34.9976 5.83947 34.8444 5.86751 34.7051 5.92358C34.5588 5.97264 34.4195 6.03572 34.2871 6.11983C34.1617 6.19694 34.0363 6.28805 33.9249 6.38618C33.7925 6.49833 33.688 6.58945 33.6114 6.65954V5.85349H31.9745V11.4468H33.6184V7.7039C33.7995 7.6268 33.9806 7.56372 34.1687 7.51466C34.3428 7.46559 34.5239 7.43755 34.712 7.43755C34.8583 7.43755 34.9907 7.44456 35.1091 7.45157C35.1996 7.45858 35.2902 7.4726 35.3807 7.50064H35.5201V5.85349C35.4643 5.84648 35.4086 5.83947 35.3389 5.83947C35.2693 5.83947 35.2066 5.83947 35.1509 5.83947Z" fill="#623011"/>
<path d="M29.007 5.95163C28.4567 6.03574 27.3561 6.17592 26.6735 6.26704C26.4714 6.84179 26.2625 7.43056 26.0674 7.9983C26.764 7.93521 27.1541 7.87914 27.99 7.75999C28.9165 7.63382 28.9931 8.21558 28.7562 8.66417C28.5194 9.11275 26.6317 10.809 25.6982 11.636C25.0992 12.1687 25.8236 12.1547 25.8236 12.1547C25.8236 12.1547 29.9683 9.93282 30.6579 7.38149C30.9644 6.26704 29.8429 5.82546 29.007 5.95163Z" fill="#623011"/>
<path d="M37.8257 3.70169H36.0912V5.06147H37.8257V3.70169Z" fill="#623011"/>
<path d="M26.6735 6.26704C26.8824 5.67827 27.0844 5.1035 27.2725 4.5708L27.3004 4.48669C28.1223 4.36053 29.007 4.19932 29.8986 4.02409C32.6014 3.4984 32.3993 2.61525 32.065 2.08956C31.7237 1.56388 30.9226 1.57089 30.9226 1.57089C30.9226 1.57089 30.8111 2.24377 29.014 2.60123C28.6587 2.67132 28.2825 2.73441 27.9064 2.78347C28.192 1.9634 28.3801 1.43771 28.3801 1.43771C28.3801 1.43771 28.7562 0.673716 28.3801 0.274194C27.6835 -0.468775 27.1053 0.533533 27.1053 0.533533L26.0744 2.94468C24.6603 3.02178 23.5388 2.98674 23.5388 2.98674C23.2811 2.96571 23.0164 3.01477 22.7726 3.1129C22.4661 3.27411 22.4939 4.36754 23.5388 4.66192C23.9289 4.77407 24.5489 4.78108 25.3081 4.725L21.6302 13.3112C21.6302 13.3112 21.3446 14.1313 22.0133 14.0892C22.682 14.0402 23.9637 13.928 24.5628 12.2809C24.7857 11.6571 25.4057 9.91177 26.0813 7.99828C26.144 7.78099 26.5759 6.55441 26.6735 6.26704ZM27.3004 4.47968L27.8994 2.77646C27.7322 3.26009 27.5302 3.84185 27.3004 4.47968Z" fill="#623011"/>
<path d="M68.3362 29.5402V16.7906L76.6186 29.5402H84.0441L74.4661 15.5429L84.1347 3.34702H77.4893L68.3362 14.9752V3.34702H63.084V29.5402H68.3362ZM92.4867 29.5402V3.34702H87.2345V29.5402H92.4867ZM99.5292 27.7038C101.292 29.2318 103.82 30.0028 107.108 30.0028C109.372 30.0028 111.26 29.6874 112.771 29.0496C114.22 28.4678 115.446 27.4515 116.289 26.1268C117.104 24.8721 117.536 23.4072 117.529 21.9073C117.529 20.2531 117.181 18.8583 116.491 17.7368C115.787 16.6013 114.798 15.6831 113.614 15.0733C112.388 14.4215 110.5 13.7977 107.944 13.1879C105.387 12.5781 103.778 11.9963 103.117 11.4356C102.622 11.0571 102.336 10.4683 102.336 9.8445C102.322 9.19265 102.636 8.58286 103.172 8.21838C104.036 7.58756 105.234 7.27215 106.76 7.27215C108.236 7.27215 109.351 7.56653 110.089 8.1553C110.828 8.74407 111.308 9.71133 111.538 11.0571L116.79 11.0361C116.707 8.63192 115.843 6.49413 114.192 5.05726C112.541 3.62038 110.082 2.89844 106.815 2.89844C104.816 2.89844 103.11 3.19983 101.696 3.80963C100.372 4.34232 99.2366 5.26753 98.4495 6.45909C97.7111 7.56653 97.321 8.87023 97.321 10.202C97.321 12.2767 98.1221 14.029 99.7172 15.4729C100.853 16.4962 102.831 17.3583 105.645 18.0662C107.832 18.613 109.24 18.9985 109.853 19.2087C110.751 19.5312 111.385 19.9096 111.74 20.3442C112.102 20.7858 112.298 21.3465 112.284 21.9283C112.284 22.8955 111.852 23.7366 110.995 24.4586C110.138 25.1805 108.863 25.538 107.171 25.538C105.576 25.538 104.301 25.1315 103.36 24.3254C102.42 23.5123 101.793 22.2437 101.487 20.5194L96.3736 20.3863C96.715 23.3161 97.7668 26.1758 99.5292 27.7038Z" fill="#333333"/>
<path d="M127.06 15.4046H129.17L131.938 7.13352H130.018L128.132 13.6334H128.098L126.206 7.13352H124.292L127.06 15.4046Z" fill="#333333"/>
<path d="M133.423 8.46904C133.927 8.46904 134.317 8.07355 134.317 7.5978C134.317 7.12206 133.927 6.72656 133.423 6.72656C132.918 6.72656 132.529 7.12206 132.529 7.5978C132.529 8.07355 132.918 8.46904 133.423 8.46904ZM132.586 15.4046H134.26V9.26004H132.586V15.4046Z" fill="#333333"/>
<path d="M138.18 15.5307C139.934 15.5307 140.783 14.4932 140.972 13.5876L140.989 13.5245H139.453L139.441 13.5589C139.321 13.9028 138.902 14.2811 138.215 14.2811C137.361 14.2811 136.828 13.7079 136.81 12.7278H141.04V12.2119C141.04 10.3548 139.911 9.13394 138.111 9.13394C136.312 9.13394 135.16 10.3835 135.16 12.338V12.3438C135.16 14.3098 136.3 15.5307 138.18 15.5307ZM138.14 10.3835C138.834 10.3835 139.332 10.8248 139.436 11.6731H136.828C136.936 10.842 137.452 10.3835 138.14 10.3835Z" fill="#333333"/>
<path d="M144.348 15.5307C144.697 15.5307 144.967 15.4963 145.156 15.4676V14.241C145.053 14.2525 144.944 14.2697 144.795 14.2697C144.29 14.2697 144.032 14.0748 144.032 13.5016V10.521H145.156V9.26004H144.032V7.75829H142.342V9.26004H141.488V10.521H142.342V13.685C142.342 15.0033 142.984 15.5307 144.348 15.5307Z" fill="#333333"/>
<path d="M148.549 15.4046H150.274V9.98798H150.309L154.057 15.4046H155.559V7.13352H153.834V12.51H153.8L150.062 7.13352H148.549V15.4046Z" fill="#333333"/>
<path d="M158.5 15.502C159.308 15.502 159.961 15.118 160.311 14.4875H160.345V15.4046H162.019V11.1917C162.019 9.95359 160.993 9.13394 159.405 9.13394C157.783 9.13394 156.809 9.94786 156.717 11.0828L156.711 11.1515H158.242L158.253 11.1C158.333 10.7045 158.712 10.4121 159.336 10.4121C159.99 10.4121 160.345 10.7503 160.345 11.2948V11.6731L158.826 11.7649C157.302 11.8623 156.436 12.5157 156.436 13.6334V13.6449C156.436 14.7282 157.267 15.502 158.5 15.502ZM158.093 13.5589V13.5475C158.093 13.1118 158.431 12.8367 159.079 12.7966L160.345 12.7163V13.1577C160.345 13.7997 159.795 14.2811 159.044 14.2811C158.465 14.2811 158.093 14.0117 158.093 13.5589Z" fill="#333333"/>
<path d="M163.102 15.4046H164.776V11.6961C164.776 11.0025 165.206 10.521 165.842 10.521C166.461 10.521 166.834 10.9108 166.834 11.57V15.4046H168.444V11.6674C168.444 10.9853 168.863 10.521 169.499 10.521C170.147 10.521 170.502 10.9108 170.502 11.6216V15.4046H172.176V11.2031C172.176 9.96505 171.368 9.13394 170.164 9.13394C169.264 9.13394 168.53 9.62688 168.255 10.4007H168.221C168.014 9.59248 167.39 9.13394 166.53 9.13394C165.705 9.13394 165.063 9.59248 164.81 10.2918H164.776V9.26004H163.102V15.4046Z" fill="#333333"/>
<path d="M127.64 28.0149C129.531 28.0149 130.695 27.0864 130.695 25.619V25.6133C130.695 24.3523 129.984 23.6645 128.288 23.2919L127.37 23.0913C126.293 22.8563 125.794 22.4321 125.794 21.7558V21.75C125.794 20.9533 126.516 20.426 127.623 20.4202C128.672 20.4202 129.377 20.9189 129.503 21.7615L129.514 21.8417H130.546L130.54 21.7558C130.448 20.403 129.268 19.4688 127.651 19.4688C125.949 19.4688 124.745 20.4202 124.74 21.7787V21.7844C124.74 22.9938 125.496 23.7218 127.113 24.0772L128.03 24.2778C129.165 24.53 129.64 24.9369 129.64 25.6649V25.6706C129.64 26.5246 128.889 27.0634 127.697 27.0634C126.499 27.0634 125.697 26.5533 125.576 25.7222L125.565 25.6419H124.533L124.539 25.7222C124.642 27.138 125.852 28.0149 127.64 28.0149Z" fill="#333333"/>
<path d="M134.203 27.992C135.504 27.992 136.478 27.2125 136.673 26.2266L136.685 26.1693H135.705L135.687 26.2209C135.515 26.731 134.982 27.1093 134.226 27.1093C133.165 27.1093 132.489 26.3928 132.466 25.1662H136.759V24.7994C136.759 23.011 135.768 21.8016 134.14 21.8016C132.512 21.8016 131.457 23.0683 131.457 24.914V24.9197C131.457 26.794 132.489 27.992 134.203 27.992ZM134.134 22.6843C135.005 22.6843 135.647 23.2288 135.745 24.3867H132.483C132.592 23.2747 133.269 22.6843 134.134 22.6843Z" fill="#333333"/>
<path d="M140.238 27.992C141.585 27.992 142.566 27.115 142.726 25.9801L142.732 25.94H141.752L141.74 25.9859C141.574 26.6508 141.052 27.1093 140.238 27.1093C139.207 27.1093 138.496 26.2896 138.496 24.9025V24.8968C138.496 23.5441 139.19 22.6843 140.227 22.6843C141.104 22.6843 141.585 23.2116 141.734 23.8078L141.746 23.8536H142.72L142.715 23.8078C142.589 22.7875 141.712 21.8016 140.227 21.8016C138.57 21.8016 137.476 23.0053 137.476 24.8853V24.8911C137.476 26.7883 138.548 27.992 140.238 27.992Z" fill="#333333"/>
<path d="M145.684 27.992C146.589 27.992 147.197 27.585 147.518 27.0291H147.541V27.8774H148.538V21.9162H147.541V25.4241C147.541 26.4387 146.928 27.1093 145.987 27.1093C145.07 27.1093 144.618 26.5762 144.618 25.6076V21.9162H143.62V25.7852C143.62 27.1437 144.377 27.992 145.684 27.992Z" fill="#333333"/>
<path d="M149.839 27.8774H150.837V24.1975C150.837 23.2919 151.341 22.7531 152.115 22.7531C152.356 22.7531 152.568 22.7818 152.648 22.8104V21.8417C152.568 21.8303 152.419 21.8016 152.247 21.8016C151.576 21.8016 151.06 22.2372 150.86 22.9251H150.837V21.9162H149.839V27.8774Z" fill="#333333"/>
<path d="M154.024 20.9074C154.373 20.9074 154.648 20.6266 154.648 20.2827C154.648 19.933 154.373 19.6579 154.024 19.6579C153.68 19.6579 153.399 19.933 153.399 20.2827C153.399 20.6266 153.68 20.9074 154.024 20.9074ZM153.525 27.8774H154.522V21.9162H153.525V27.8774Z" fill="#333333"/>
<path d="M157.818 27.992C158.013 27.992 158.225 27.9691 158.351 27.9519V27.1437C158.265 27.1494 158.15 27.1666 158.03 27.1666C157.497 27.1666 157.216 26.9889 157.216 26.3527V22.7416H158.351V21.9162H157.216V20.3056H156.184V21.9162H155.313V22.7416H156.184V26.3584C156.184 27.4991 156.723 27.992 157.818 27.992Z" fill="#333333"/>
<path d="M159.985 20.9074C160.334 20.9074 160.609 20.6266 160.609 20.2827C160.609 19.933 160.334 19.6579 159.985 19.6579C159.641 19.6579 159.36 19.933 159.36 20.2827C159.36 20.6266 159.641 20.9074 159.985 20.9074ZM159.486 27.8774H160.483V21.9162H159.486V27.8774Z" fill="#333333"/>
<path d="M164.295 27.992C165.596 27.992 166.571 27.2125 166.765 26.2266L166.777 26.1693H165.797L165.78 26.2209C165.608 26.731 165.075 27.1093 164.318 27.1093C163.258 27.1093 162.581 26.3928 162.558 25.1662H166.851V24.7994C166.851 23.011 165.86 21.8016 164.232 21.8016C162.604 21.8016 161.549 23.0683 161.549 24.914V24.9197C161.549 26.794 162.581 27.992 164.295 27.992ZM164.226 22.6843C165.097 22.6843 165.739 23.2288 165.837 24.3867H162.575C162.684 23.2747 163.361 22.6843 164.226 22.6843Z" fill="#333333"/>
<path d="M169.975 27.992C171.305 27.992 172.291 27.2583 172.291 26.2151V26.2094C172.291 25.3611 171.855 24.8853 170.652 24.593L169.706 24.3637C169.047 24.2033 168.777 23.9224 168.777 23.5154V23.5097C168.777 22.9824 169.224 22.6327 169.947 22.6327C170.686 22.6327 171.127 23.0168 171.208 23.5957L171.213 23.6358H172.165L172.159 23.5613C172.085 22.5639 171.253 21.8016 169.947 21.8016C168.657 21.8016 167.757 22.5296 167.757 23.5556V23.5613C167.757 24.4211 168.302 24.9427 169.425 25.2121L170.371 25.4413C171.047 25.6076 171.271 25.8483 171.271 26.2782V26.2839C171.271 26.8227 170.789 27.1609 169.981 27.1609C169.167 27.1609 168.726 26.8112 168.605 26.2151L168.594 26.1578H167.597L167.602 26.2094C167.723 27.2755 168.571 27.992 169.975 27.992Z" fill="#333333"/>
<path d="M179.347 28.0149C181.078 28.0149 182.402 26.9889 182.717 25.4069L182.729 25.3496H181.685L181.668 25.4012C181.307 26.4903 180.505 27.0634 179.347 27.0634C177.702 27.0634 176.63 25.7509 176.63 23.739V23.7332C176.63 21.7214 177.696 20.4202 179.347 20.4202C180.51 20.4202 181.324 21.0049 181.645 22.008L181.685 22.1341H182.729L182.717 22.0767C182.402 20.5119 181.066 19.4688 179.347 19.4688C177.043 19.4688 175.57 21.131 175.57 23.7332V23.739C175.57 26.3412 177.048 28.0149 179.347 28.0149Z" fill="#333333"/>
<path d="M186.265 27.992C187.91 27.992 189.022 26.7998 189.022 24.8968V24.8853C189.022 22.9824 187.904 21.8016 186.259 21.8016C184.614 21.8016 183.502 22.9881 183.502 24.8853V24.8968C183.502 26.794 184.609 27.992 186.265 27.992ZM186.271 27.1093C185.216 27.1093 184.523 26.3011 184.523 24.8968V24.8853C184.523 23.4925 185.222 22.6843 186.259 22.6843C187.314 22.6843 188.002 23.4868 188.002 24.8853V24.8968C188.002 26.2954 187.32 27.1093 186.271 27.1093Z" fill="#333333"/>
<path d="M190.031 27.8774H191.028V24.1975C191.028 23.2919 191.533 22.7531 192.307 22.7531C192.547 22.7531 192.759 22.7818 192.84 22.8104V21.8417C192.759 21.8303 192.61 21.8016 192.438 21.8016C191.768 21.8016 191.252 22.2372 191.051 22.9251H191.028V21.9162H190.031V27.8774Z" fill="#333333"/>
<path d="M193.654 29.8835H194.651V26.88H194.674C195.046 27.5678 195.74 27.992 196.582 27.992C198.078 27.992 199.099 26.7826 199.099 24.9025V24.8968C199.099 23.0168 198.09 21.8016 196.565 21.8016C195.711 21.8016 195.046 22.2315 194.674 22.9251H194.651V21.9162H193.654V29.8835ZM196.37 27.1093C195.367 27.1093 194.645 26.2323 194.645 24.9025V24.8968C194.645 23.5613 195.362 22.6843 196.37 22.6843C197.425 22.6843 198.078 23.5269 198.078 24.8968V24.9025C198.078 26.261 197.425 27.1093 196.37 27.1093Z" fill="#333333"/>
<path d="M202.578 27.992C204.223 27.992 205.335 26.7998 205.335 24.8968V24.8853C205.335 22.9824 204.217 21.8016 202.572 21.8016C200.927 21.8016 199.815 22.9881 199.815 24.8853V24.8968C199.815 26.794 200.921 27.992 202.578 27.992ZM202.584 27.1093C201.529 27.1093 200.836 26.3011 200.836 24.8968V24.8853C200.836 23.4925 201.535 22.6843 202.572 22.6843C203.627 22.6843 204.315 23.4868 204.315 24.8853V24.8968C204.315 26.2954 203.633 27.1093 202.584 27.1093Z" fill="#333333"/>
<path d="M206.344 27.8774H207.341V24.1975C207.341 23.2919 207.846 22.7531 208.619 22.7531C208.86 22.7531 209.072 22.7818 209.152 22.8104V21.8417C209.072 21.8303 208.923 21.8016 208.751 21.8016C208.081 21.8016 207.565 22.2372 207.364 22.9251H207.341V21.9162H206.344V27.8774Z" fill="#333333"/>
<path d="M211.594 27.992C212.391 27.992 213.107 27.5621 213.457 26.9087H213.48V27.8774H214.477V23.7562C214.477 22.5639 213.595 21.8016 212.185 21.8016C210.78 21.8016 209.926 22.5926 209.84 23.5728L209.835 23.6358H210.797L210.809 23.5842C210.924 23.0512 211.405 22.6843 212.173 22.6843C213.004 22.6843 213.48 23.1257 213.48 23.8536V24.3523L211.772 24.4497C210.402 24.53 209.611 25.1662 209.611 26.1807V26.1922C209.611 27.2755 210.408 27.992 211.594 27.992ZM210.631 26.1922V26.1807C210.631 25.6248 211.09 25.2694 211.887 25.2235L213.48 25.1261V25.6133C213.48 26.4788 212.758 27.1265 211.818 27.1265C211.101 27.1265 210.631 26.7654 210.631 26.1922Z" fill="#333333"/>
<path d="M217.681 27.992C217.876 27.992 218.088 27.9691 218.214 27.9519V27.1437C218.128 27.1494 218.014 27.1666 217.893 27.1666C217.36 27.1666 217.08 26.9889 217.08 26.3527V22.7416H218.214V21.9162H217.08V20.3056H216.048V21.9162H215.177V22.7416H216.048V26.3584C216.048 27.4991 216.587 27.992 217.681 27.992Z" fill="#333333"/>
<path d="M219.848 20.9074C220.198 20.9074 220.473 20.6266 220.473 20.2827C220.473 19.933 220.198 19.6579 219.848 19.6579C219.504 19.6579 219.223 19.933 219.223 20.2827C219.223 20.6266 219.504 20.9074 219.848 20.9074ZM219.349 27.8774H220.347V21.9162H219.349V27.8774Z" fill="#333333"/>
<path d="M224.176 27.992C225.821 27.992 226.933 26.7998 226.933 24.8968V24.8853C226.933 22.9824 225.815 21.8016 224.17 21.8016C222.525 21.8016 221.413 22.9881 221.413 24.8853V24.8968C221.413 26.794 222.519 27.992 224.176 27.992ZM224.181 27.1093C223.127 27.1093 222.433 26.3011 222.433 24.8968V24.8853C222.433 23.4925 223.132 22.6843 224.17 22.6843C225.225 22.6843 225.912 23.4868 225.912 24.8853V24.8968C225.912 26.2954 225.23 27.1093 224.181 27.1093Z" fill="#333333"/>
<path d="M227.941 27.8774H228.939V24.3695C228.939 23.3549 229.552 22.6843 230.492 22.6843C231.409 22.6843 231.862 23.2174 231.862 24.1861V27.8774H232.859V24.0084C232.859 22.6499 232.103 21.8016 230.796 21.8016C229.89 21.8016 229.283 22.2086 228.962 22.7646H228.939V21.9162H227.941V27.8774Z" fill="#333333"/>
</svg>