<svg width="134" height="33" viewBox="0 0 134 33" fill="none" xmlns="http://www.w3.org/2000/svg">
<path d="M107.697 15.3891C107.296 10.9006 104.357 9.45787 103.582 8.97696C102.968 10.206 102.513 11.5418 102.22 12.9311C102.22 13.4654 101.097 17.1257 103.074 22.0149C105.452 27.8927 111.196 32.0606 117.929 32.0606C120.895 32.0606 123.673 31.2323 126.078 29.8163C126.773 24.4195 122.685 21.347 119.826 18.9959C116.861 16.5646 117.128 13.038 117.395 11.8624C117.422 11.7288 117.475 11.5952 117.528 11.4617C115.819 11.7021 115.418 10.1258 115.418 10.1258C115.418 10.1258 117.609 10.767 118.811 10.0456C119.425 9.72504 119.933 9.1907 119.933 8.2556C119.826 7.05333 118.864 6.5457 118.063 6.46555C114.322 6.09151 112.96 9.11055 112.96 9.11055C110.849 13.6257 115.738 17.9272 117.181 20.2516C117.475 20.7325 117.796 21.4272 117.956 21.9348C119.025 26.4233 115.712 29.4423 112.292 29.469C108.231 29.3889 106.601 26.1561 106.387 23.9118C106.067 20.4653 107.83 17.8471 107.697 15.3891ZM129.711 5.18313C129.711 5.18313 129.711 5.15641 129.738 5.15641C126.799 2.00379 122.631 0 117.983 0C113.28 0 108.952 2.08394 106.013 5.31671C111.009 9.93878 109.807 14.7479 109.246 16.8585C108.284 20.1982 107.83 21.6409 107.83 23.4844C107.75 27.679 111.277 27.7057 111.464 27.7057C113.975 27.679 115.284 25.4614 115.07 23.5912C114.937 22.3355 114.75 20.8127 113.174 17.8203C110.689 12.7708 110.662 10.6601 111.09 9.00368C109.246 8.04186 108.845 6.09151 109.353 4.56863C110.555 6.30525 113.093 6.94646 115.124 5.95792C115.391 5.82434 115.899 5.55717 116.299 5.42358C119.105 4.64878 120.922 6.03808 121.776 7.18691C124.181 7.98843 125.383 10.1792 125.65 11.9158C124.448 10.2861 122.284 10.206 121.162 10.8472C119.88 11.5418 119.318 12.6906 119.238 13.3853C118.57 16.4845 122.044 18.1944 126.158 21.5607C128.643 23.6447 129.471 25.7286 129.738 26.8775C130.486 26.0759 131.074 25.2744 131.662 24.3393C129.044 21.4806 127.44 17.66 127.44 13.4654C127.44 11.7823 127.681 10.1792 128.162 8.65636C128.776 6.43883 129.685 5.20984 129.685 5.20984L129.711 5.18313ZM133.719 13.0113C133.452 11.5952 132.998 10.2594 132.383 9.00368C132.383 9.00368 132.33 8.87009 132.223 8.68307C130.753 10.9006 129.898 13.5456 129.898 16.3776C129.898 17.8738 130.139 19.3432 130.593 20.7058C130.834 21.3737 131.127 22.0684 131.475 22.8164C131.635 23.1371 131.822 23.4577 132.009 23.7783C132.356 23.1638 132.65 22.5226 132.918 21.8546C134.601 16.6982 133.853 13.8395 133.719 13.0113Z" fill="#E44542"/>
<path d="M66.3386 6.78617C66.0714 6.57243 65.3767 6.03809 63.3997 6.03809C62.9989 6.03809 62.4379 6.03809 61.9837 6.0648C61.6631 6.0648 61.3959 6.0648 61.289 6.0648C61.2623 6.0648 61.1554 6.0648 60.9951 6.0648C60.6478 6.0648 60.0333 6.03809 59.5524 6.03809C59.4722 6.03809 59.2051 6.03809 59.2051 6.25182C59.2051 6.35869 59.3387 6.46556 59.4455 6.46556C59.5791 6.46556 59.8196 6.49228 59.9264 6.49228C60.3272 6.54571 60.4073 6.6793 60.4341 7.10677C60.4608 7.50753 60.4608 7.88157 60.4608 9.85864V12.1296C60.4608 13.3853 60.4608 14.3738 60.3806 14.9082V14.9349C60.3272 15.3089 60.2738 15.4425 60.0867 15.496C59.9532 15.5227 59.7929 15.5494 59.6593 15.5494C59.499 15.5494 59.4188 15.6563 59.4188 15.7631C59.4188 15.8433 59.4722 15.9769 59.7661 15.9769C60.1135 15.9769 60.7547 15.9501 61.0486 15.9501C61.1554 15.9501 61.2089 15.9501 61.2356 15.9501C61.2623 15.9501 61.3157 15.9501 61.3959 15.9501C61.7165 15.9501 62.4646 15.9769 63.1058 15.9769C63.4264 15.9769 63.4531 15.8166 63.4531 15.7631C63.4531 15.6563 63.373 15.5494 63.2127 15.5494C63.0791 15.5494 62.6249 15.5227 62.4111 15.496C62.0638 15.4425 61.9569 15.3089 61.9035 14.9082C61.8234 14.3738 61.8234 13.3853 61.8234 12.1296V6.89303C61.8234 6.78617 61.8501 6.75945 61.8501 6.75945C62.0104 6.73273 62.5714 6.6793 62.8119 6.6793H62.9188C62.9722 6.6793 62.9989 6.6793 63.0523 6.6793C63.5065 6.6793 64.1745 6.73273 64.7622 7.26708C65.5638 7.98844 65.5638 8.8701 65.5638 9.13728C65.5638 10.2594 64.2546 11.1143 62.7585 11.1143C62.5447 11.1143 62.2508 11.1143 62.2508 11.3548C62.2508 11.4884 62.4111 11.5685 62.4913 11.5685C62.5447 11.5685 62.705 11.5953 62.9455 11.5953C65.3233 11.5953 67.0866 10.3128 67.0866 8.41591C67.1401 7.69455 66.7126 7.08005 66.3386 6.78617Z" fill="#E44542"/>
<path d="M58.5379 15.5495C58.431 15.5495 58.244 15.5495 58.057 15.4693C57.8433 15.3892 57.4959 15.2823 57.015 14.1602C56.5876 13.1716 55.8395 11.2747 55.1715 9.61826C54.5571 8.06866 53.996 6.75952 53.8891 6.49235C53.8624 6.43892 53.8357 6.38548 53.809 6.33205C53.7288 6.11831 53.6487 5.95801 53.4884 5.95801C53.3281 5.95801 53.2479 6.09159 53.0876 6.51907L50.0151 14.4006C49.748 15.0686 49.5075 15.4426 48.9999 15.496C48.893 15.5227 48.706 15.5227 48.6258 15.5227C48.4923 15.5227 48.4121 15.6296 48.4121 15.7365C48.4121 15.8701 48.519 15.9502 48.7594 15.9502C49.1068 15.9502 49.5342 15.9235 49.8014 15.9235C49.935 15.9235 50.0419 15.9235 50.0686 15.9235C50.122 15.9235 50.2823 15.9235 50.4693 15.9502C50.7365 15.9502 51.0571 15.9769 51.2441 15.9769C51.5113 15.9769 51.538 15.8434 51.538 15.7632C51.538 15.7098 51.5113 15.5495 51.2976 15.5495H51.1907C51.0571 15.5495 50.8434 15.5227 50.8434 15.309C50.8434 15.0953 50.9235 14.8014 51.0304 14.5075L51.7518 12.5304L52.1525 11.4083L53.2479 8.30912C53.2479 8.2824 53.2479 8.2824 53.2746 8.2824C53.2746 8.2824 53.2746 8.30912 53.3013 8.30912L54.5838 11.7022H53.1143C52.4998 11.7289 52.2059 12.2365 52.1258 12.4236H54.8509H54.8777L56.0532 15.309C56.0799 15.3624 56.0799 15.4159 56.0532 15.4426C56.0265 15.4693 55.9998 15.496 55.9731 15.5227H55.9463C55.8929 15.5495 55.8128 15.5762 55.8128 15.6831C55.8128 15.8434 55.9998 15.8434 56.267 15.8701H56.3738C56.9616 15.8968 57.683 15.8968 58.431 15.8968C58.7784 15.8968 58.8318 15.7632 58.8318 15.6831C58.8051 15.6296 58.6982 15.5495 58.5379 15.5495Z" fill="#E44542"/>
<path d="M44.2709 15.5226C41.5458 15.5226 39.5954 13.2516 39.5954 9.9387C39.5954 7.24027 41.1717 4.72886 44.1641 4.72886C46.0877 4.72886 47.1564 5.50366 47.6373 7.37386L47.9312 7.21355C48.0113 6.46547 48.0915 6.25174 48.1984 5.15633C47.6907 5.07618 46.3816 4.08765 44.6183 4.08765C40.6374 4.08765 37.752 6.54562 37.752 10.286C37.752 13.118 39.7023 16.1638 44.1373 16.1638C45.4198 16.1638 46.9694 15.763 47.477 15.6562C47.7976 15.0417 48.1182 13.9463 48.4388 12.9845L47.9312 12.7974C47.0495 14.5341 46.0877 15.5226 44.2709 15.5226Z" fill="#E44542"/>
<path d="M71.4946 15.5492C71.3878 15.5492 71.1206 15.5225 70.9069 15.4958C70.613 15.4424 70.5595 15.3088 70.5061 14.908C70.4527 14.4004 70.4527 13.4119 70.4527 12.1829V9.96536C70.4527 8.01501 70.4527 7.64097 70.4794 7.26693C70.5061 6.83945 70.5863 6.73258 70.8534 6.65243C70.987 6.62572 71.0672 6.62572 71.1473 6.62572C71.2542 6.62572 71.3611 6.51885 71.3611 6.41198C71.3611 6.19824 71.1206 6.19824 71.0404 6.19824C70.7466 6.19824 70.2122 6.22496 69.945 6.22496C69.8382 6.22496 69.758 6.22496 69.7313 6.22496C69.7046 6.22496 69.6244 6.22496 69.5176 6.22496C69.2237 6.22496 68.7161 6.19824 68.4222 6.19824C68.342 6.19824 68.1016 6.19824 68.1016 6.41198C68.1016 6.51885 68.1817 6.62572 68.3153 6.62572C68.3955 6.62572 68.5558 6.65243 68.6893 6.67915C68.8764 6.70587 68.9832 6.81274 69.0099 7.26693C69.0367 7.66769 69.0367 8.01501 69.0367 9.96536V12.1829C69.0367 13.6256 69.0099 14.4538 68.9565 14.908C68.9031 15.3088 68.8764 15.4424 68.6893 15.4958C68.5825 15.5225 68.4222 15.5492 68.3153 15.5492C68.1817 15.5492 68.1016 15.6561 68.1016 15.763C68.1016 15.8431 68.155 15.9767 68.4222 15.9767C68.7161 15.9767 69.197 15.95 69.4909 15.95C69.6244 15.95 69.7046 15.95 69.7313 15.95C69.7313 15.95 69.7847 15.95 69.8649 15.95C70.1321 15.95 70.8 15.9767 71.3611 15.9767C71.6549 15.9767 71.6817 15.8164 71.6817 15.763C71.7084 15.6561 71.6282 15.5492 71.4946 15.5492Z" fill="#E44542"/>
<path d="M97.5723 13.9997C97.4654 13.9997 97.3585 14.1066 97.3318 14.2401C97.2784 14.5073 97.1715 14.7478 97.0379 14.9081C96.7708 15.2287 96.2364 15.2554 95.5418 15.2554C94.5799 15.2554 94.0723 15.1752 93.8853 14.9882C93.6716 14.7745 93.6448 13.8127 93.6448 12.2364V9.99211C93.6448 8.04176 93.6448 7.66772 93.6716 7.29368C93.6983 6.83949 93.7784 6.73262 94.0723 6.67918C94.2059 6.65247 94.4196 6.65247 94.4998 6.65247C94.6067 6.65247 94.7135 6.57232 94.7135 6.46545C94.7135 6.3853 94.6601 6.25171 94.3929 6.25171C94.099 6.25171 93.5113 6.27843 93.1907 6.27843C93.0571 6.27843 92.9769 6.27843 92.9502 6.27843C92.9235 6.27843 92.8701 6.27843 92.7632 6.27843C92.4693 6.27843 91.9082 6.25171 91.4808 6.25171C91.4006 6.25171 91.1602 6.25171 91.1602 6.46545C91.1602 6.57232 91.267 6.67918 91.3739 6.67918C91.4808 6.67918 91.6945 6.7059 91.8014 6.7059C92.1487 6.75934 92.2288 6.89292 92.2556 7.32039C92.2823 7.72115 92.2823 8.06848 92.2823 10.0188V12.2364C92.2823 13.4653 92.2823 14.4272 92.2021 14.9615V14.9882C92.1487 15.3355 92.122 15.4958 91.935 15.5493C91.8281 15.576 91.6678 15.6027 91.5609 15.6027C91.4273 15.6027 91.3472 15.7096 91.3472 15.8164C91.3472 15.9233 91.4006 16.0302 91.6678 16.0302C91.8815 16.0302 92.1487 16.0035 92.4426 16.0035C92.8701 15.9768 93.351 16.0035 94.0189 16.0035H94.3929C95.0074 16.0302 95.7288 16.0569 96.6639 16.0569C97.3585 16.0569 97.4921 16.0035 97.599 15.6294C97.7059 15.2554 97.786 14.4806 97.786 14.347C97.7593 14.0264 97.6791 13.9997 97.5723 13.9997Z" fill="#E44542"/>
<path d="M79.1635 7.02662C80.3925 7.05334 80.6062 7.34723 80.633 7.64112L80.6597 7.7747C80.6597 7.88157 80.6864 8.09531 80.8734 8.09531C80.9803 8.09531 81.0872 8.01515 81.0872 7.82813C81.0872 7.7747 81.0872 7.6144 81.1139 7.40066C81.1139 7.05334 81.1406 6.62586 81.1406 6.38541C81.1406 6.30526 81.1406 6.14495 80.9803 6.14495C80.9269 6.14495 80.8734 6.14495 80.7933 6.17167C80.7398 6.17167 80.6597 6.19839 80.5795 6.19839C80.3124 6.22511 79.9918 6.25182 79.6711 6.25182H74.7552C74.6216 6.25182 74.114 6.22511 73.7399 6.19839C73.5262 6.17167 73.4193 6.11824 73.3125 6.09152C73.259 6.0648 73.2056 6.03809 73.1522 6.03809C73.0453 6.03809 72.9919 6.17167 72.9384 6.30526L72.9117 6.35869C72.9117 6.38541 72.8583 6.57243 72.8316 6.73273C72.7247 7.24036 72.6445 7.64111 72.6445 7.72127C72.6445 7.85485 72.7514 7.935 72.8316 7.935C72.9651 7.935 73.0186 7.88157 73.0453 7.74798C73.072 7.72127 73.072 7.69455 73.072 7.66783C73.0987 7.58768 73.1254 7.50753 73.2323 7.37394C73.3926 7.10677 73.6865 7.02662 74.4613 7.02662L76.2513 6.9999V12.183C76.2513 13.412 76.2514 14.3738 76.1979 14.9082C76.1445 15.3089 76.0643 15.4692 75.8773 15.496C75.717 15.5227 75.6101 15.5494 75.53 15.5494C75.3964 15.5494 75.3162 15.6563 75.3162 15.7364C75.3162 15.9502 75.5567 15.9501 75.6369 15.9501C75.904 15.9501 76.4651 15.9234 76.759 15.9234C76.8658 15.9234 76.946 15.9234 76.9727 15.9234C76.9994 15.9234 77.0529 15.9234 77.133 15.9234C77.4269 15.9234 78.0414 15.9501 78.5757 15.9501C78.8696 15.9501 78.8963 15.7898 78.8963 15.7364C78.8963 15.6028 78.8162 15.5227 78.6826 15.5227C78.5757 15.5227 78.2818 15.496 78.0948 15.4692C77.7742 15.4158 77.7208 15.2555 77.6674 14.8815C77.6139 14.3738 77.6139 13.3853 77.6139 12.1563V6.9999L79.1635 7.02662Z" fill="#E44542"/>
<path d="M90.491 15.5495C90.3842 15.5495 90.1971 15.5495 90.0101 15.4693C89.7964 15.3892 89.4491 15.2823 88.9682 14.1602C88.5407 13.1716 87.7926 11.2747 87.1247 9.61826C86.5102 8.06866 85.9491 6.75952 85.8423 6.49235C85.8155 6.43892 85.7888 6.38548 85.7621 6.33205C85.682 6.11831 85.6018 5.95801 85.4415 5.95801C85.2812 5.95801 85.201 6.09159 85.0407 6.51907L81.9683 14.4006C81.7011 15.0686 81.4606 15.4426 80.953 15.496C80.8461 15.5227 80.6591 15.5227 80.579 15.5227C80.4721 15.5227 80.3652 15.6296 80.3652 15.7365C80.3652 15.8701 80.4721 15.9502 80.7126 15.9502C81.0599 15.9502 81.4874 15.9235 81.7545 15.9235C81.8881 15.9235 81.995 15.9235 82.0217 15.9235C82.0751 15.9235 82.2354 15.9235 82.4225 15.9502C82.6896 15.9502 83.0102 15.9769 83.1973 15.9769C83.4644 15.9769 83.4911 15.8434 83.4911 15.7632C83.4911 15.7098 83.4644 15.5495 83.2507 15.5495H83.1438C83.0102 15.5495 82.7965 15.5227 82.7965 15.309C82.7965 15.0953 82.8767 14.8014 82.9835 14.5075L83.7049 12.5304L84.1056 11.4083L85.201 8.30912C85.201 8.2824 85.201 8.2824 85.2278 8.2824C85.2278 8.2824 85.2278 8.30912 85.2545 8.30912L86.5369 11.7022H85.0675C84.453 11.7289 84.1591 12.2365 84.0789 12.4236H86.8041H86.8308L88.0063 15.309C88.0331 15.3624 88.0331 15.4159 88.0063 15.4426C87.9796 15.4693 87.9529 15.496 87.9262 15.5227H87.8995C87.846 15.5495 87.7926 15.5762 87.7926 15.6831C87.7926 15.8434 87.9796 15.8434 88.2468 15.8701H88.3537C88.9414 15.8968 89.6628 15.8968 90.4109 15.8968C90.7582 15.8968 90.8116 15.7632 90.8116 15.6831C90.7582 15.6296 90.6513 15.5495 90.491 15.5495Z" fill="#E44542"/>
<path d="M11.6487 4.46191C11.3548 4.46191 10.954 4.48863 10.7136 4.48863C10.6067 4.48863 10.5266 4.48863 10.4998 4.48863C10.4464 4.48863 10.3128 4.48863 10.1525 4.48863C9.85863 4.46191 9.43115 4.46191 9.05711 4.46191C8.89681 4.46191 8.62964 4.46191 8.62964 4.67565C8.62964 4.7558 8.65636 4.86267 8.89681 4.86267C9.05711 4.86267 9.27085 4.86267 9.40444 4.91611C9.51131 4.96954 9.53802 5.10313 9.53802 5.15656C9.53802 5.29015 9.45787 5.5306 9.40444 5.6909C9.11055 6.67944 7.26707 11.5687 6.33196 13.7595L3.55338 6.35883V6.33211C3.33964 5.79777 3.17934 5.31686 3.17934 5.15656C3.17934 5.07641 3.20606 4.99626 3.31293 4.94282C3.4198 4.88939 3.66025 4.88939 3.84727 4.88939C4.06101 4.88939 4.08772 4.7558 4.08772 4.67565C4.08772 4.46191 3.76712 4.46191 3.5801 4.46191C3.20606 4.46191 2.77858 4.48863 2.51141 4.48863C2.37783 4.48863 2.27096 4.48863 2.21752 4.48863C2.16409 4.48863 2.0305 4.48863 1.84348 4.48863C1.49616 4.48863 0.961817 4.46191 0.480909 4.46191C0.267171 4.46191 0 4.46191 0 4.67565C0 4.80924 0.0801515 4.88939 0.213737 4.88939C0.293889 4.88939 0.534343 4.88939 0.74808 4.94282C1.22899 5.07641 1.41601 5.20999 1.73661 6.03823L5.34343 15.2289L5.37015 15.3091C5.63732 16.0037 5.71747 16.2175 5.95792 16.2175C6.14494 16.2175 6.19838 16.0572 6.43883 15.5495C6.49227 15.4159 6.57242 15.2289 6.67929 15.0152C6.99989 14.3205 7.61439 12.8244 8.46934 10.7672L9.11055 9.19085C9.64489 7.85499 10.1258 6.70615 10.2594 6.38555C10.6601 5.39701 10.8739 5.15656 11.0342 5.02297C11.3014 4.86267 11.5952 4.86267 11.7021 4.86267C11.9426 4.86267 11.996 4.72909 11.996 4.64893C11.996 4.54207 11.8624 4.46191 11.6487 4.46191Z" fill="#143877"/>
<path d="M15.7095 15.5495C15.6026 15.5495 15.3354 15.5228 15.1217 15.4961C14.8278 15.4426 14.7744 15.309 14.721 14.9083C14.6675 14.4007 14.6675 13.4121 14.6675 12.1831V9.9656C14.6675 8.01525 14.6675 7.64121 14.6942 7.26717C14.721 6.8397 14.8011 6.73283 15.0683 6.65268C15.2019 6.62596 15.282 6.62596 15.3622 6.62596C15.469 6.62596 15.5759 6.51909 15.5759 6.41222C15.5759 6.19849 15.3354 6.19849 15.2553 6.19849C14.9614 6.19849 14.4271 6.2252 14.1599 6.2252C14.053 6.2252 13.9729 6.2252 13.9462 6.2252C13.9194 6.2252 13.8393 6.2252 13.7324 6.2252C13.4385 6.2252 12.9309 6.19849 12.637 6.19849C12.5569 6.19849 12.3164 6.19849 12.3164 6.41222C12.3164 6.51909 12.3966 6.62596 12.5301 6.62596C12.6103 6.62596 12.7706 6.65268 12.9042 6.67939C13.0912 6.73283 13.1981 6.81298 13.2515 7.26717C13.2782 7.66793 13.2782 8.01525 13.2782 9.9656V12.1831C13.2782 13.1449 13.2782 14.3205 13.1981 14.9083C13.1446 15.309 13.0912 15.4426 12.9309 15.4961C12.824 15.5228 12.6637 15.5495 12.5569 15.5495C12.4233 15.5495 12.3431 15.6564 12.3431 15.7632C12.3431 15.8701 12.3966 15.977 12.6637 15.977C12.9576 15.977 13.4385 15.9502 13.7324 15.9502C13.866 15.9502 13.9462 15.9502 13.9729 15.9502C13.9729 15.9502 14.0263 15.9502 14.1065 15.9502C14.3736 15.9502 15.0416 15.977 15.6026 15.977C15.8965 15.977 15.9232 15.8167 15.9232 15.7632C15.8965 15.6564 15.8431 15.5495 15.7095 15.5495Z" fill="#143877"/>
<path d="M23.7507 14.0535C23.5637 14.0535 23.537 14.2138 23.5103 14.3207C23.4301 14.8283 23.2698 14.9886 22.9759 15.1222C22.6553 15.2558 22.0408 15.2558 21.7202 15.2558C20.4111 15.2558 19.7966 15.0955 19.7699 14.3474C19.7699 14.1604 19.7699 13.3589 19.7699 12.7711C19.7699 12.5306 19.7699 12.3436 19.7699 12.21V11.1681C20.0637 11.1681 21.8538 11.1948 22.2011 11.2215C22.7087 11.2749 22.7622 11.4352 22.7889 11.5421C22.8423 11.6757 22.8423 11.8093 22.8423 11.9161C22.8423 12.0764 22.9492 12.1299 23.0293 12.1299C23.1629 12.1299 23.2431 11.9963 23.2431 11.7825C23.2431 11.7024 23.2698 11.2215 23.2965 10.981C23.3232 10.7139 23.35 10.5268 23.3767 10.42C23.4034 10.3665 23.4034 10.3131 23.4034 10.2864C23.4034 10.1261 23.2965 10.0727 23.2164 10.0727C23.1362 10.0727 23.0828 10.1261 23.0026 10.2062L22.9759 10.2597C22.869 10.3665 22.7087 10.3665 22.4149 10.3933H22.3881C22.121 10.42 20.1439 10.42 19.7699 10.42V10.3933V6.97346V6.94675C20.037 6.94675 21.8805 6.97346 22.0942 7.00018C22.8156 7.08033 22.8958 7.1872 22.9492 7.32079C23.0026 7.45437 23.0293 7.64139 23.0293 7.72154C23.0293 7.962 23.1629 7.98871 23.2431 7.98871C23.35 7.98871 23.4301 7.88185 23.4568 7.77498C23.4835 7.66811 23.4835 7.42765 23.5103 7.1872C23.5103 7.08033 23.537 6.97346 23.537 6.92003C23.5637 6.70629 23.5904 6.57271 23.6171 6.46584C23.6438 6.4124 23.6438 6.35897 23.6438 6.30553C23.6438 6.0918 23.5103 6.0918 23.4835 6.0918C23.4301 6.0918 23.3767 6.11851 23.3232 6.14523C23.2965 6.14523 23.2965 6.17195 23.2698 6.17195H23.1896C23.0561 6.19867 22.869 6.22538 22.682 6.22538C22.6019 6.22538 22.2813 6.22538 21.7736 6.22538C21.0523 6.22538 19.6363 6.22538 19.2622 6.22538H19.1019C19.0752 6.22538 19.0218 6.22538 18.9149 6.22538C18.621 6.22538 18.0332 6.19867 17.6058 6.19867C17.5256 6.19867 17.2852 6.19867 17.2852 6.4124C17.2852 6.51927 17.392 6.62614 17.4989 6.62614C17.6058 6.62614 17.8195 6.65286 17.9264 6.65286C18.2737 6.70629 18.3538 6.83988 18.3806 7.26735C18.4073 7.66811 18.4073 8.01543 18.4073 9.96578V12.1833C18.4073 13.4123 18.4073 14.3741 18.3271 14.9085V14.9619C18.2737 15.3359 18.2203 15.4695 18.0867 15.4962C18.0332 15.4962 17.9798 15.523 17.9264 15.523C17.8462 15.5497 17.7661 15.5497 17.6859 15.5497C17.5523 15.5497 17.4722 15.6565 17.4722 15.7634C17.4722 15.8703 17.5256 15.9771 17.7928 15.9771C17.9531 15.9771 18.2203 15.9771 18.5676 15.9504C18.8348 15.9237 19.0485 15.9237 19.1286 15.9237C19.3157 15.9237 19.663 15.9237 20.1973 15.9504H20.5179C21.0256 15.9771 22.1477 15.9771 22.9759 15.9771C23.4835 15.9771 23.6973 15.9771 23.8041 15.5764C23.8843 15.3092 23.9912 14.4275 23.9912 14.3207C23.9377 14.0802 23.8309 14.0535 23.7507 14.0535Z" fill="#143877"/>
<path d="M33.3436 6.11834C33.2901 6.11834 33.2367 6.11834 33.1565 6.14506C33.1031 6.14506 33.023 6.17178 32.9428 6.17178C32.6756 6.19849 32.355 6.22521 32.0344 6.22521H27.1185C26.9849 6.22521 26.4773 6.22521 26.1032 6.17178C25.8895 6.14506 25.7826 6.09163 25.6757 6.06491C25.6223 6.03819 25.5689 6.01147 25.5154 6.01147C25.4086 6.01147 25.3551 6.11834 25.3017 6.27865L25.275 6.33208C25.275 6.3588 25.2216 6.54582 25.1948 6.70612C25.088 7.21375 25.0078 7.6145 25.0078 7.69465C25.0078 7.82824 25.1147 7.90839 25.1948 7.90839C25.3284 7.90839 25.3819 7.85496 25.4086 7.72137C25.4086 7.69465 25.4353 7.66794 25.4353 7.64122C25.462 7.56107 25.4887 7.48092 25.5956 7.32061C25.7559 7.05344 26.0498 6.97329 26.8246 6.97329L28.6146 6.94657V12.1297C28.6146 13.3587 28.6146 14.3205 28.5612 14.8549C28.5078 15.2556 28.4276 15.4159 28.2406 15.4426C28.0803 15.4693 27.9734 15.4961 27.8665 15.4961C27.733 15.4961 27.6528 15.6029 27.6528 15.6831C27.6528 15.8968 27.8933 15.8968 27.9734 15.8968C28.2406 15.8968 28.8016 15.8701 29.0955 15.8701C29.2024 15.8701 29.2826 15.8701 29.3093 15.8701C29.336 15.8701 29.3894 15.8701 29.4696 15.8701C29.7635 15.8701 30.378 15.8968 30.9123 15.8968C31.2062 15.8968 31.2329 15.7365 31.2329 15.6831C31.2329 15.5495 31.1528 15.4693 31.0192 15.4693C30.9123 15.4693 30.6184 15.4426 30.4314 15.4159C30.1108 15.3625 30.0574 15.2022 30.0039 14.8281C29.9505 14.3205 29.9505 13.332 29.9505 12.103V7.00001L31.4734 7.02673C32.7024 7.05344 32.9161 7.34733 32.9428 7.64122L32.9695 7.77481C32.9695 7.88168 32.9962 8.09541 33.1833 8.09541C33.2901 8.09541 33.397 8.01526 33.397 7.82824C33.397 7.77481 33.397 7.6145 33.4237 7.40077C33.4237 7.05344 33.4504 6.62597 33.4504 6.38551C33.5039 6.30536 33.5039 6.11834 33.3436 6.11834Z" fill="#143877"/>
<path d="M48.0903 21.962C47.93 21.3475 47.6094 20.6529 46.7812 20.6529C46.0598 20.6529 45.7125 21.1605 45.7125 21.6948C45.7125 22.3628 46.1667 22.7101 46.9682 23.0841C47.7965 23.4849 48.6514 23.9391 48.6514 25.0078C48.6514 26.023 47.7697 26.8513 46.4339 26.8513C46.0331 26.8513 45.7125 26.7711 45.4453 26.691C45.2049 26.6108 45.0713 26.5307 44.9644 26.4772C44.911 26.2902 44.7507 25.4085 44.6973 24.9543L44.9912 24.8742C45.1515 25.4887 45.6324 26.4772 46.6476 26.4772C47.369 26.4772 47.7697 26.0497 47.7697 25.3551C47.7697 24.6605 47.2354 24.3398 46.4873 23.9391C45.8194 23.5918 44.8576 23.1109 44.8576 22.0689C44.8576 21.1071 45.6324 20.3323 46.9148 20.3323C47.369 20.3323 47.8232 20.4391 48.1972 20.5727C48.2239 20.9201 48.2774 21.2941 48.3575 21.9353L48.0903 21.962Z" fill="#143877"/>
<path d="M54.3166 25.1407C54.2631 25.4881 54.0494 26.3964 53.9692 26.6903H49.1602V26.4232C50.0418 26.3697 50.122 26.2628 50.122 25.4881V21.7477C50.122 20.866 50.0418 20.8393 49.267 20.7858V20.4919H53.7021C53.7021 20.7324 53.7555 21.3736 53.7822 21.908L53.4883 21.9347C53.4082 21.5339 53.3013 21.3202 53.1677 21.1064C53.0341 20.8927 52.767 20.8393 52.0723 20.8393H51.351C51.0304 20.8393 51.0036 20.866 51.0036 21.1599V23.2972H51.912C52.7937 23.2972 52.8471 23.2171 52.9807 22.5759H53.2746V24.4461H52.9807C52.8471 23.7514 52.767 23.698 51.912 23.698H51.0036V25.4613C51.0036 25.9155 51.0571 26.1293 51.2441 26.2361C51.4311 26.343 51.8052 26.343 52.2593 26.343C52.9807 26.343 53.2746 26.2896 53.4883 26.0224C53.6486 25.8087 53.8357 25.4881 53.996 25.0873L54.3166 25.1407Z" fill="#143877"/>
<path d="M61.0485 25.0339C60.915 25.4881 60.6478 26.2361 60.4875 26.5567C60.1936 26.6102 59.3386 26.8239 58.6173 26.8239C56.0792 26.8239 54.957 25.1407 54.957 23.6446C54.957 21.6141 56.5868 20.3049 58.8577 20.3049C59.686 20.3049 60.4073 20.5454 60.6745 20.5721C60.7547 21.1064 60.8348 21.5339 60.8882 22.0683L60.5944 22.1217C60.3272 21.053 59.6593 20.6523 58.5906 20.6523C56.9074 20.6523 56.0257 22.0148 56.0257 23.4308C56.0257 25.2476 57.1211 26.4499 58.6707 26.4499C59.686 26.4499 60.247 25.9155 60.7547 24.927L61.0485 25.0339Z" fill="#143877"/>
<path d="M68.3955 20.7326C67.8345 20.7593 67.5673 20.9196 67.5406 21.2937C67.5139 21.5608 67.4871 21.9616 67.4871 22.8165V23.5646C67.4871 24.6867 67.3001 25.5417 66.7391 26.1295C66.2849 26.5837 65.6169 26.7974 64.949 26.7974C64.3345 26.7974 63.7735 26.6638 63.346 26.3432C62.7315 25.889 62.4643 25.1677 62.4643 24.0188V21.7211C62.4643 20.8395 62.3842 20.786 61.6094 20.7326V20.4387H64.2277V20.7326C63.4529 20.786 63.3727 20.8395 63.3727 21.7211V23.8051C63.3727 25.3814 64.0406 26.2363 65.2162 26.2363C66.6055 26.2363 67.0864 25.1142 67.0864 23.5379V22.8165C67.0864 21.9616 67.0597 21.5608 67.0062 21.267C66.9528 20.8929 66.7391 20.7593 66.0444 20.7326V20.4387H68.3955V20.7326Z" fill="#143877"/>
<path d="M74.7807 26.7707C74.6739 26.7707 74.5403 26.7707 74.4334 26.744C73.6319 26.7172 73.2311 26.5035 72.777 25.8623C72.4296 25.4081 72.109 24.8203 71.8151 24.3661C71.6281 24.099 71.4678 23.9654 70.9602 23.9654H70.693V25.4615C70.693 26.2631 70.7732 26.3432 71.5747 26.3966V26.6638H68.9297V26.3966C69.7312 26.3432 69.8114 26.2631 69.8114 25.4615V21.6677C69.8114 20.8395 69.7312 20.786 68.9564 20.7326V20.4387H71.4678C72.2159 20.4387 72.6968 20.5189 73.0708 20.786C73.4716 21.0265 73.7121 21.454 73.7121 22.0417C73.7121 22.87 73.1777 23.3776 72.4831 23.6715C72.6434 23.9921 73.0441 24.6066 73.338 25.0608C73.6853 25.5684 73.8991 25.8356 74.1395 26.076C74.38 26.3699 74.5937 26.4501 74.8342 26.5035L74.7807 26.7707ZM71.1472 23.6448C71.6281 23.6448 71.9754 23.5646 72.2159 23.3776C72.5899 23.0837 72.7502 22.7097 72.7502 22.2021C72.7502 21.1868 72.0823 20.786 71.3609 20.786C71.0671 20.786 70.9068 20.8128 70.8266 20.8662C70.7732 20.9196 70.7197 21.0265 70.7197 21.267V23.6181H71.1472V23.6448Z" fill="#143877"/>
<path d="M75.1289 26.6904V26.4233C75.9304 26.3698 76.0106 26.3164 76.0106 25.4882V21.6943C76.0106 20.8661 75.9304 20.8127 75.1289 20.7592V20.4653H77.8006V20.7592C76.9991 20.8127 76.919 20.8661 76.919 21.6943V25.4614C76.919 26.2897 76.9991 26.3431 77.8006 26.3965V26.6637H75.1289V26.6904Z" fill="#143877"/>
<path d="M83.8109 21.9882C83.704 21.5073 83.5971 21.2668 83.4903 21.0798C83.3299 20.8661 83.1429 20.7859 82.4216 20.7859H81.7536V25.4614C81.7536 26.2095 81.8338 26.3431 82.7689 26.3965V26.6637H79.8567V26.3965C80.7651 26.3431 80.8453 26.2362 80.8453 25.4614V20.8126H80.2842C79.4292 20.8126 79.2422 20.8928 79.1086 21.1065C78.9751 21.2668 78.8949 21.5607 78.788 22.0149H78.4941C78.5476 21.4004 78.5743 20.7592 78.601 20.2249H78.8147C78.9483 20.4653 79.0819 20.4653 79.3758 20.4653H83.3567C83.6238 20.4653 83.704 20.4119 83.8643 20.2249H84.078C84.078 20.6523 84.1315 21.4004 84.1849 21.9882H83.8109Z" fill="#143877"/>
<path d="M84.7188 26.6904V26.4233C85.5203 26.3698 85.6004 26.3164 85.6004 25.4882V21.6943C85.6004 20.8661 85.5203 20.8127 84.7188 20.7592V20.4653H87.3905V20.7592C86.589 20.8127 86.5088 20.8661 86.5088 21.6943V25.4614C86.5088 26.2897 86.589 26.3431 87.3905 26.3965V26.6637H84.7188V26.6904Z" fill="#143877"/>
<path d="M93.215 25.1407C93.1616 25.4881 92.9478 26.3964 92.8677 26.6903H88.0586V26.4232C88.9403 26.3697 89.0204 26.2628 89.0204 25.4881V21.7477C89.0204 20.866 88.9403 20.8393 88.1655 20.7858V20.4919H92.6005C92.6005 20.7324 92.6539 21.3736 92.6807 21.908H92.4402C92.3601 21.5072 92.2532 21.2935 92.1196 21.0797C91.986 20.866 91.7188 20.8126 91.0242 20.8126H90.3028C89.9822 20.8126 89.9555 20.8393 89.9555 21.1332V23.2705H90.8639C91.7456 23.2705 91.799 23.1904 91.9326 22.5492H92.2265V24.4194H91.9059C91.7723 23.7247 91.6921 23.6713 90.8372 23.6713H89.9288V25.4346C89.9288 25.8888 89.9822 26.1025 90.1692 26.2094C90.3563 26.3163 90.7303 26.3163 91.1845 26.3163C91.9059 26.3163 92.1997 26.2629 92.4135 25.9957C92.5738 25.7819 92.7608 25.4613 92.9211 25.0606L93.215 25.1407Z" fill="#143877"/>
<path d="M97.1958 21.9615C97.0355 21.347 96.7149 20.6524 95.8867 20.6524C95.1653 20.6524 94.818 21.16 94.818 21.6944C94.818 22.3623 95.2722 22.7096 96.0737 23.0837C96.9019 23.4844 97.7569 23.9386 97.7569 25.0073C97.7569 26.0225 96.8752 26.8508 95.5393 26.8508C95.1386 26.8508 94.818 26.7706 94.5508 26.6905C94.3104 26.6103 94.1768 26.5302 94.0699 26.4767C94.0165 26.2897 93.8562 25.408 93.8027 24.9539L94.0966 24.8737C94.2569 25.4882 94.7378 26.4767 95.7531 26.4767C96.4744 26.4767 96.8752 26.0493 96.8752 25.3546C96.8752 24.66 96.3409 24.3394 95.5928 23.9386C94.8981 23.5913 93.963 23.1104 93.963 22.0684C93.963 21.1066 94.7378 20.3318 96.0203 20.3318C96.4744 20.3318 96.9286 20.4387 97.3027 20.5722C97.3294 20.9196 97.3828 21.2936 97.463 21.9348L97.1958 21.9615Z" fill="#143877"/>
</svg>
