<svg width="120" height="52" viewBox="0 0 120 52" fill="none" xmlns="http://www.w3.org/2000/svg">
<path d="M0.132812 21.0698H8.84785V51.6057C6.53648 51.6057 4.31978 50.6875 2.68539 49.0531C1.051 47.4187 0.132812 45.202 0.132812 42.8906V21.0698Z" fill="url(#paint0_linear_8417_148680)"/>
<path d="M26.3028 21.2811C26.26 22.9856 25.7182 24.6401 24.7445 26.0398C23.7707 27.4394 22.4077 28.5227 20.8244 29.1553C19.241 29.788 17.5069 29.9424 15.8367 29.5993C14.1665 29.2561 12.6337 28.4306 11.428 27.225C10.2224 26.0193 9.39687 24.4865 9.05375 22.8163C8.71063 21.1461 8.86497 19.412 9.49767 17.8286C10.1304 16.2453 11.2136 14.8823 12.6133 13.9086C14.0129 12.9348 15.6674 12.393 17.372 12.3502L19.6752 3.74722C16.0542 3.29771 12.3831 3.99018 9.17466 5.72795C5.96619 7.46572 3.38047 10.162 1.77851 13.4404C0.176555 16.7188 -0.361671 20.4156 0.238997 24.0147C0.839665 27.6138 2.54924 30.9354 5.12901 33.5159C7.70879 36.0964 11.03 37.8068 14.6289 38.4085C18.2278 39.0101 21.9247 38.4729 25.2036 36.8719C28.4824 35.2708 31.1794 32.6858 32.918 29.4778C34.6567 26.2698 35.3502 22.599 34.9016 18.9778L26.3028 21.2811Z" fill="url(#paint1_linear_8417_148680)"/>
<path d="M17.584 21.0697L38.6536 15.4215C37.6591 11.7248 35.7105 8.35431 33.0032 5.64776C30.296 2.9412 26.925 0.993578 23.228 0L17.584 21.0697Z" fill="#DB4626"/>
<path d="M51.6012 28.515V35.6945H47.4512V17.7208C47.4501 17.4442 47.5038 17.1701 47.6091 16.9143C47.7145 16.6585 47.8694 16.4261 48.065 16.2305C48.2606 16.0349 48.493 15.88 48.7488 15.7746C49.0045 15.6693 49.2786 15.6156 49.5552 15.6167H56.382C58.5234 15.6167 60.1184 16.1618 61.167 17.2518C62.2571 18.3419 62.8021 19.9563 62.8021 22.0949C62.8021 24.1201 62.2764 25.7165 61.2251 26.884C60.1765 27.9713 58.6548 28.515 56.6601 28.515H51.6012ZM51.6012 24.8962H55.6267C56.7182 24.8962 57.4942 24.6638 57.9632 24.199C58.4321 23.7342 58.7185 23.0287 58.7185 21.9787C58.7562 21.1985 58.5083 20.4313 58.0213 19.8207C57.4105 19.3305 56.6413 19.081 55.8591 19.1193H51.6012V24.8962Z" fill="#3B56A4"/>
<path d="M73.4842 35.0511C72.6777 35.4768 71.7974 35.7444 70.8904 35.8396C70.0856 35.9293 69.2766 35.9778 68.4668 35.9849C67.1506 36.0122 65.8609 35.6134 64.7899 34.8478C63.7386 34.0897 63.2129 32.835 63.2129 31.0837C63.2129 29.4486 63.6901 28.2811 64.6447 27.5811C65.7312 26.8297 66.9822 26.3501 68.2925 26.1825C68.5273 26.1777 68.761 26.1485 68.9897 26.0954C69.2983 26.0312 69.61 25.9827 69.9235 25.9501C71.6416 25.715 72.5006 25.2045 72.5006 24.4188C72.5139 24.1516 72.4294 23.8888 72.2628 23.6795C72.0963 23.4702 71.8592 23.3288 71.5959 23.2817C71.0582 23.1142 70.4991 23.0247 69.9359 23.0161C69.4402 23.0081 68.947 23.0882 68.4793 23.2526C68.2711 23.3252 68.0804 23.4406 67.9195 23.5914C67.7587 23.7423 67.6313 23.9252 67.5455 24.1283H63.6362C63.7687 22.9598 64.3543 21.8899 65.2672 21.1486C66.3213 20.2549 67.8194 19.8081 69.7616 19.8081C71.9418 19.8081 73.5769 20.1775 74.6669 20.9162C75.2069 21.269 75.6463 21.7557 75.9423 22.3288C76.2383 22.9019 76.3808 23.5418 76.356 24.1864V29.4943C76.356 31.0519 76.0793 32.2678 75.526 33.1421C75.0361 33.9559 74.329 34.617 73.4842 35.0511ZM72.5504 27.8757C71.8218 28.2088 71.0593 28.462 70.2762 28.6311L68.9316 28.9257C68.3715 29.0491 67.8509 29.3101 67.4169 29.6852C67.1569 30.0632 67.0127 30.5088 67.0019 30.9675C66.9902 31.2242 67.0309 31.4806 67.1215 31.721C67.2121 31.9615 67.3507 32.1809 67.5289 32.3661C67.9596 32.7052 68.5009 32.8723 69.0478 32.835C69.518 32.8763 69.9915 32.814 70.435 32.6525C70.8785 32.4911 71.2812 32.2343 71.6147 31.9004C71.9482 31.5664 72.2045 31.1634 72.3655 30.7198C72.5264 30.2761 72.5881 29.8025 72.5463 29.3324L72.5504 27.8757Z" fill="#3B56A4"/>
<path d="M86.8514 35.0509C86.0434 35.4766 85.1617 35.7442 84.2535 35.8394C83.4486 35.9292 82.6397 35.9777 81.8298 35.9846C80.5137 36.0114 79.2242 35.6126 78.1529 34.8475C77.1044 34.0895 76.5801 32.8348 76.5801 31.0835C76.5801 29.4484 77.0532 28.2822 78.0077 27.5809C79.0946 26.8302 80.3454 26.3507 81.6555 26.1823C81.8917 26.1773 82.1267 26.1481 82.3569 26.0951C82.6654 26.0303 82.9771 25.9818 83.2906 25.9499C85.0005 25.7133 85.8595 25.207 85.8595 24.431C85.8719 24.1641 85.787 23.9017 85.6206 23.6926C85.4543 23.4835 85.2177 23.3418 84.9548 23.2939C84.417 23.1267 83.858 23.0373 83.2948 23.0283C82.7977 23.0203 82.3032 23.1004 81.834 23.2648C81.6258 23.3374 81.4351 23.4528 81.2743 23.6037C81.1134 23.7545 80.986 23.9374 80.9002 24.1405H76.9909C77.1266 22.9721 77.7134 21.9028 78.626 21.1608C79.6746 20.2671 81.1728 19.8203 83.1205 19.8203C85.3007 19.8203 86.9344 20.1897 88.0217 20.9284C88.5624 21.2807 89.0026 21.7672 89.2993 22.3403C89.5961 22.9134 89.7392 23.5537 89.7149 24.1986V29.5065C89.7149 31.0641 89.4382 32.2801 88.8849 33.1543C88.3931 33.9605 87.6898 34.6164 86.8514 35.0509ZM85.9176 27.8755C85.1875 28.2085 84.4237 28.4617 83.6393 28.6308L82.2988 28.9255C81.7371 29.048 81.215 29.3091 80.7799 29.6849C80.5195 30.0628 80.3752 30.5085 80.3649 30.9673C80.3524 31.2237 80.3923 31.48 80.4822 31.7204C80.5721 31.9609 80.7101 32.1805 80.8878 32.3658C81.3187 32.7046 81.8598 32.8717 82.4067 32.8348C82.877 32.876 83.3507 32.8137 83.7943 32.6522C84.238 32.4907 84.6409 32.2341 84.9747 31.9002C85.3086 31.5664 85.5653 31.1635 85.7267 30.7198C85.8882 30.2761 85.9505 29.8025 85.9093 29.3322L85.9176 27.8755Z" fill="#3B56A4"/>
<path d="M99.8671 35.6942H95.7419L90.293 20.1689H94.6132L97.7049 31.0835L100.448 21.5716C100.548 21.1573 100.789 20.7906 101.13 20.5346C101.471 20.2787 101.89 20.1494 102.316 20.1689H105.349L99.8671 35.6942Z" fill="#3B56A4"/>
<path d="M116.849 30.9092H119.754C119.415 32.4101 118.544 33.7372 117.301 34.6442C115.967 35.5786 114.363 36.0494 112.736 35.9846C110.523 35.9846 108.792 35.2653 107.544 33.8266C106.296 32.388 105.682 30.3849 105.702 27.8174C105.702 25.3274 106.305 23.381 107.511 21.9783C108.717 20.5756 110.448 19.8563 112.703 19.8203C115.041 19.8203 116.85 20.5203 118.131 21.9202C119.412 23.3202 120.034 25.3246 119.998 27.9336V28.5686C120.007 28.7094 119.988 28.8506 119.94 28.9836H109.852C109.893 30.1871 110.185 31.0821 110.727 31.6686C111.009 31.9898 111.361 32.2412 111.757 32.4032C112.152 32.5652 112.58 32.6334 113.006 32.6024C113.596 32.6188 114.179 32.4754 114.695 32.1874C114.817 32.1457 114.928 32.0761 115.018 31.984L115.338 31.6645C115.442 31.4732 115.594 31.3118 115.778 31.1955C116.094 30.9853 116.47 30.8847 116.849 30.9092ZM109.843 26.3441H115.799C115.79 25.4946 115.498 24.6722 114.969 24.0077C114.688 23.7236 114.35 23.5027 113.977 23.3595C113.604 23.2164 113.205 23.1544 112.806 23.1777C112.418 23.1653 112.032 23.2325 111.671 23.3752C111.309 23.518 110.981 23.7332 110.707 24.0077C110.132 24.6525 109.826 25.4931 109.852 26.3566L109.843 26.3441Z" fill="#3B56A4"/>
<defs>
<linearGradient id="paint0_linear_8417_148680" x1="9.15845" y1="32.5011" x2="-4.34505" y2="43.5822" gradientUnits="userSpaceOnUse">
<stop stop-color="#323E98"/>
<stop offset="1" stop-color="#71CBD5"/>
</linearGradient>
<linearGradient id="paint1_linear_8417_148680" x1="4.13239" y1="10.2907" x2="28.8385" y2="35.04" gradientUnits="userSpaceOnUse">
<stop stop-color="#71CBD5"/>
<stop offset="1" stop-color="#323E98"/>
</linearGradient>
</defs>
</svg>
