<svg width="134" height="42" viewBox="0 0 134 42" fill="none" xmlns="http://www.w3.org/2000/svg">
<g clip-path="url(#clip0_8417_148694)">
<path d="M134 0C131.826 9.05405 123.979 13.9583 119.347 16.5991L119.158 16.3162C121.049 14.76 127.572 9.99718 129.651 2.07489L134 0Z" fill="#F08300"/>
<path d="M19.8577 17.4993C19.7159 18.3481 18.0616 29.9957 17.9198 31.0803H21.6538L23.5918 17.4993H19.8577ZM50.5808 17.4993C50.4863 18.3481 48.7847 29.9957 48.6429 31.0803H57.4344C57.529 30.4673 57.7653 28.9111 57.8598 28.1566H52.5187L52.8969 25.6573H57.718C57.8126 25.0915 58.0016 23.6768 58.0962 22.9223H53.275L53.6531 20.4701H58.8524C58.947 19.8571 59.1833 18.3009 59.2778 17.5464L50.5808 17.4993ZM8.75013 25.3272C8.75013 25.3272 11.8697 18.1594 12.1533 17.5464H16.8799C16.8799 18.4895 16.2655 30.1844 16.2655 31.1275H12.8623L13.4295 21.6019L9.36459 31.1275H6.67041L5.44149 21.6019C5.34695 22.0263 4.07076 28.3924 3.40903 31.1275H0.00585938C0.38399 29.9014 2.93637 18.2538 3.1727 17.5464H7.71027L8.75013 25.3272ZM40.7494 25.563L42.9237 20.5173L43.6327 25.563H40.7494ZM43.9635 28.3453C43.9635 28.3453 44.1999 30.5616 44.2944 31.0803H47.8866C47.6976 29.9486 45.7124 18.3009 45.5706 17.4993H41.033C40.7494 18.0651 35.5501 29.76 34.9357 31.0803H38.5752C38.7642 30.6088 39.7096 28.3453 39.7096 28.3453H43.9635ZM28.8383 20.0457H29.6891C30.2563 19.9986 30.8708 20.1872 31.2962 20.5644C31.5798 20.9417 31.7216 21.4604 31.5798 21.932C31.5798 21.932 31.4852 22.9694 30.7762 23.2995C30.3981 23.5353 29.9727 23.6296 29.5 23.6296H27.7985L31.0126 31.0803H34.6521L31.9106 25.3744C33.5649 25.0443 34.8884 24.5727 35.2193 21.9791C35.2665 21.649 35.2665 21.3661 35.3138 21.036C35.3611 20.1872 35.0775 19.3855 34.5575 18.7253C33.6595 17.6879 32.0997 17.4521 30.9653 17.4521H25.8133C25.6715 18.3009 24.0172 29.9486 23.8281 31.0332H27.2313C27.3731 30.373 28.8383 20.0457 28.8383 20.0457ZM93.3096 22.8751C93.2623 22.8751 92.317 22.3564 92.317 22.3564C91.9861 22.1677 91.2299 21.7433 91.2299 21.036C91.2299 20.7059 91.3717 20.3758 91.608 20.1872C91.9861 19.9042 92.4588 19.8099 92.8842 19.9042C93.735 20.0929 94.4912 20.5173 95.0584 21.1303L96.4292 18.4895C95.5311 17.735 94.444 17.2163 93.2623 17.0748C91.7498 16.7919 90.1427 17.122 88.8665 18.018C87.9212 18.7725 87.3067 19.8571 87.1649 21.0832C87.1177 21.2718 87.1177 21.5076 87.1177 21.6962C87.1177 22.3564 87.2595 22.9694 87.5904 23.5353C89.6228 23.4881 91.7498 23.3938 93.924 23.2052C93.735 23.0637 93.4986 22.9694 93.2623 22.8751H93.3096ZM108.482 17.4993C108.388 18.0651 108.151 19.8571 108.009 20.7531C111.034 19.9514 113.965 18.8668 116.801 17.4993H108.482ZM109.9 20.8945L108.766 21.2718C108.671 21.2718 108.624 21.3189 108.529 21.3661C108.388 21.4132 108.198 21.4604 108.057 21.5076L107.82 21.6019C107.3 21.7433 106.733 21.932 106.119 22.0734C106.024 22.0734 105.93 22.1206 105.788 22.1678L105.268 22.3092L104.89 22.4035L104.417 22.545L103.944 22.6393L103.141 22.8279L102.668 22.9223L102.479 22.9694C100.919 23.2995 99.3124 23.6296 97.5635 23.9597H97.469L96.5237 24.1012L96.2874 24.1483L95.2948 24.2898C95.2475 24.2898 95.2475 24.2898 95.2002 24.2898C93.3568 24.5256 91.3717 24.8085 89.3392 24.95H89.2919C88.9611 24.9971 88.6775 24.9971 88.3466 25.0443H88.2521C87.9212 25.0915 87.5903 25.0915 87.3067 25.1386H87.2122C86.8814 25.1386 86.5505 25.1858 86.2196 25.1858H86.1251L85.1325 25.2329H85.0852C83.3364 25.3272 81.5875 25.3744 79.6969 25.3744H78.0426C76.5773 25.3744 75.0175 25.2801 73.4577 25.2329H73.4105C71.0471 25.0915 68.5893 24.9028 66.0842 24.6199L68.9674 21.932C70.2909 22.3092 71.6143 22.6393 72.9851 22.8751C72.5597 20.2343 72.1343 17.9237 72.087 17.5936H67.5967C67.3131 18.1594 62.1611 29.8543 61.4993 31.1746H65.1388L66.5568 27.7794H70.3381C70.3381 27.7794 70.7163 30.6088 70.8108 31.1746H74.403C74.3085 30.7502 73.9777 28.6754 73.5523 26.3175C76.1046 26.459 78.7043 26.5062 81.0676 26.459C81.2094 26.6476 81.2567 26.8834 81.2567 27.1192C81.2567 27.2135 81.2567 27.3078 81.2094 27.355C81.1621 27.6379 80.9731 27.9208 80.7367 28.0623C80.2168 28.3453 79.6023 28.3924 79.0351 28.2509C77.8535 28.0623 76.9554 27.1663 76.1992 26.459C75.7265 27.2135 74.7339 28.8168 74.4503 29.3355C75.6792 30.5145 77.1918 31.269 78.8933 31.5519C80.4059 31.7877 81.9657 31.4576 83.2419 30.5616C84.2817 29.8071 84.9434 28.6754 85.0852 27.4021C85.1325 27.0249 85.1798 26.6948 85.1325 26.3175C87.6849 26.2232 89.8119 26.0346 91.2299 25.9403C91.608 26.1761 91.8916 26.6005 91.9389 27.072C91.9389 27.1663 91.9389 27.2607 91.9389 27.3078C91.8916 27.5908 91.7025 27.8737 91.4662 28.0152C90.9463 28.2981 90.3318 28.3453 89.7646 28.2038C88.5829 28.0152 87.6849 27.1192 86.9286 26.4118C86.456 27.1663 85.4634 28.7697 85.1325 29.2884C86.3614 30.4673 87.8739 31.2218 89.5755 31.5047C91.0881 31.7405 92.6478 31.4104 93.8768 30.5145C94.9166 29.76 95.5784 28.6282 95.7202 27.355C95.8147 26.6948 95.8147 26.0346 95.6256 25.3744C96.1928 25.2801 96.76 25.1858 97.2799 25.1386C96.8545 27.968 96.4764 30.6559 96.4292 31.1746H105.221C105.315 30.5616 105.504 29.0054 105.646 28.2509H100.305L100.683 25.7516H105.504C105.599 25.2329 105.741 24.054 105.882 23.2524C106.544 23.0637 106.875 22.9223 106.875 22.9223C106.875 22.9223 108.482 22.4507 110.609 21.649C110.325 23.7711 109.38 30.2787 109.238 31.1746H113.067C113.161 30.373 114.532 20.9417 114.532 20.9417H117.274C117.368 20.3758 117.604 18.4895 117.746 17.6407C115.336 18.9139 112.641 20.0457 109.9 20.8945ZM83.809 23.5353C83.4309 23.2523 83.0528 23.0166 82.6746 22.8751L81.6821 22.3564C81.3512 22.1677 80.6422 21.7433 80.6422 21.036C80.6422 20.7059 80.784 20.3758 81.0203 20.1872C81.3985 19.9042 81.8711 19.8099 82.2965 19.9042C83.1473 20.0929 83.9036 20.5173 84.4708 21.1303L85.8415 18.4895C84.9434 17.735 83.809 17.2635 82.6746 17.0748C81.1621 16.7919 79.5551 17.122 78.2789 18.018C77.2863 18.7725 76.6718 19.8571 76.5773 21.0832C76.53 21.2718 76.53 21.5076 76.53 21.6962C76.53 22.2621 76.6246 22.7808 76.8609 23.2995H77.0972C78.7988 23.3938 81.1149 23.5353 83.809 23.5353ZM101.534 20.4701H106.733C106.828 19.8571 107.017 18.3009 107.159 17.5464H98.5089C98.4616 17.9237 98.1307 20.2343 97.7526 22.8279C98.9343 22.6865 100.116 22.4978 101.298 22.3092L101.534 20.4701Z" fill="#003F7E"/>
<path d="M2.25715 41.7141C1.75864 41.7141 1.33398 41.6635 0.983176 41.5621C0.635449 41.4578 0.307723 41.3304 0 41.1799V40.0378H0.0646219C0.366191 40.3203 0.707764 40.5398 1.08934 40.6964C1.47092 40.8499 1.83865 40.9266 2.19253 40.9266C2.6972 40.9266 3.07877 40.8223 3.33726 40.6135C3.59575 40.4017 3.72499 40.1238 3.72499 39.78C3.72499 39.5067 3.65729 39.2841 3.52189 39.1122C3.3865 38.9403 3.17109 38.8129 2.87568 38.73C2.66335 38.6686 2.46948 38.6179 2.29408 38.578C2.11868 38.5381 1.89865 38.4844 1.63401 38.4168C1.39706 38.3554 1.18474 38.2772 0.997024 38.182C0.809313 38.0868 0.643142 37.9625 0.498512 37.809C0.356959 37.6585 0.246179 37.482 0.166171 37.2794C0.0892398 37.0737 0.0507744 36.8373 0.0507744 36.5702C0.0507744 36.0145 0.267719 35.5494 0.701609 35.1748C1.1355 34.7972 1.6894 34.6084 2.36332 34.6084C2.74797 34.6084 3.11108 34.6468 3.45266 34.7235C3.79731 34.8003 4.1158 34.9093 4.40814 35.0505V36.1419H4.3389C4.12042 35.9424 3.84039 35.7689 3.49881 35.6215C3.15724 35.4711 2.79874 35.3959 2.42332 35.3959C1.99866 35.3959 1.65555 35.4957 1.39399 35.6952C1.13242 35.8917 1.00164 36.1511 1.00164 36.4735C1.00164 36.7651 1.07857 36.9969 1.23243 37.1689C1.38629 37.3408 1.60939 37.4666 1.90173 37.5465C2.0956 37.5987 2.33254 37.6585 2.61257 37.7261C2.8926 37.7905 3.12493 37.8504 3.30957 37.9057C3.78346 38.05 4.12965 38.2679 4.34813 38.5596C4.56662 38.8513 4.67586 39.2105 4.67586 39.6372C4.67586 39.9043 4.62047 40.1683 4.50969 40.4293C4.40198 40.6902 4.24966 40.9113 4.05272 41.0924C3.83116 41.292 3.58036 41.4455 3.30033 41.5529C3.02338 41.6604 2.67565 41.7141 2.25715 41.7141Z" fill="#003F7E"/>
<path d="M7.80079 41.7095C6.97917 41.7095 6.34064 41.4793 5.88521 41.0187C5.43286 40.5552 5.20668 39.8982 5.20668 39.0477C5.20668 38.2096 5.4267 37.5434 5.86675 37.0491C6.30679 36.5518 6.88223 36.3031 7.59307 36.3031C7.91311 36.3031 8.19621 36.3491 8.44239 36.4412C8.68857 36.5333 8.90398 36.6776 9.08861 36.8741C9.27324 37.0706 9.4148 37.3116 9.51327 37.5971C9.61174 37.8796 9.66098 38.2265 9.66098 38.6379V39.1076H6.08831C6.08831 39.7063 6.23909 40.1637 6.54066 40.4799C6.84223 40.7962 7.25919 40.9543 7.79156 40.9543C7.98234 40.9543 8.16852 40.9328 8.35007 40.8898C8.53471 40.8468 8.70088 40.7916 8.84859 40.724C9.00553 40.6534 9.13785 40.5859 9.24555 40.5214C9.35325 40.4538 9.44249 40.3909 9.51327 40.3326H9.56404V41.2766C9.46249 41.3165 9.33633 41.3672 9.18554 41.4286C9.03476 41.4869 8.89936 41.533 8.77935 41.5668C8.6101 41.6128 8.45624 41.6481 8.31776 41.6727C8.18237 41.6972 8.01004 41.7095 7.80079 41.7095ZM8.81628 38.4445C8.81012 38.2111 8.78243 38.0101 8.73319 37.8412C8.68395 37.6723 8.61318 37.5296 8.52086 37.4129C8.41931 37.284 8.28853 37.1857 8.12851 37.1182C7.97157 37.0507 7.77617 37.0169 7.5423 37.0169C7.31151 37.0169 7.11456 37.0522 6.95147 37.1228C6.79146 37.1903 6.64529 37.2901 6.51297 37.4221C6.38372 37.5572 6.28525 37.7077 6.21755 37.8734C6.14985 38.0362 6.10677 38.2265 6.08831 38.4445H8.81628Z" fill="#003F7E"/>
<path d="M12.5874 41.7049C12.2335 41.7049 11.9089 41.6512 11.6135 41.5437C11.3181 41.4332 11.0642 41.2674 10.8519 41.0464C10.6395 40.8253 10.4749 40.5475 10.358 40.2128C10.241 39.8751 10.1826 39.4791 10.1826 39.0247C10.1826 38.5734 10.2426 38.1835 10.3626 37.855C10.4857 37.5265 10.6488 37.2502 10.8519 37.0261C11.055 36.802 11.3073 36.6301 11.6089 36.5103C11.9135 36.3875 12.2397 36.3261 12.5874 36.3261C12.8705 36.3261 13.1429 36.366 13.4044 36.4458C13.6691 36.5257 13.9045 36.6178 14.1107 36.7222V37.6938H14.0599C13.9983 37.6416 13.9183 37.5818 13.8199 37.5142C13.7245 37.4467 13.6075 37.3776 13.4691 37.307C13.349 37.2456 13.2075 37.1919 13.0444 37.1458C12.8813 37.0998 12.7244 37.0767 12.5736 37.0767C12.1243 37.0767 11.7627 37.2471 11.4889 37.5879C11.2181 37.9256 11.0827 38.4046 11.0827 39.0247C11.0827 39.6326 11.2134 40.1069 11.475 40.4477C11.7396 40.7854 12.1058 40.9543 12.5736 40.9543C12.8567 40.9543 13.1259 40.8959 13.3814 40.7793C13.6368 40.6626 13.8629 40.5122 14.0599 40.328H14.1107V41.2997C14.0245 41.3396 13.9168 41.3887 13.7875 41.447C13.6583 41.5023 13.5414 41.5437 13.4367 41.5714C13.289 41.6143 13.1567 41.6466 13.0398 41.6681C12.9228 41.6926 12.7721 41.7049 12.5874 41.7049Z" fill="#003F7E"/>
<path d="M18.9204 41.5898H18.0526V41.0187C17.7849 41.2521 17.531 41.4301 17.291 41.5529C17.051 41.6727 16.7832 41.7325 16.4878 41.7325C16.2632 41.7325 16.0509 41.6957 15.8508 41.622C15.6539 41.5483 15.4816 41.4317 15.3339 41.272C15.1861 41.1124 15.0708 40.9113 14.9877 40.6688C14.9077 40.4262 14.8677 40.1315 14.8677 39.7846V36.4458H15.7354V39.3747C15.7354 39.6479 15.7447 39.8751 15.7631 40.0563C15.7847 40.2343 15.8308 40.3909 15.9016 40.526C15.9724 40.658 16.0678 40.7547 16.1878 40.8161C16.3109 40.8775 16.4863 40.9082 16.714 40.9082C16.9263 40.9082 17.1525 40.8484 17.3925 40.7286C17.6326 40.6089 17.8526 40.4615 18.0526 40.2865V36.4458H18.9204V41.5898Z" fill="#003F7E"/>
<path d="M22.9085 37.3761H22.8623C22.7977 37.3577 22.7284 37.3469 22.6546 37.3438C22.5838 37.3377 22.4977 37.3346 22.3961 37.3346C22.1622 37.3346 21.9299 37.3853 21.6991 37.4866C21.4683 37.5879 21.2498 37.7384 21.0437 37.9379V41.5898H20.1759V36.4458H21.0437V37.2103C21.3606 36.9309 21.636 36.7344 21.8699 36.6208C22.1068 36.5042 22.3361 36.4458 22.5577 36.4458C22.6469 36.4458 22.7131 36.4489 22.7561 36.4551C22.8023 36.4581 22.8531 36.4643 22.9085 36.4735V37.3761Z" fill="#003F7E"/>
<path d="M24.4686 41.5898H23.6008V36.4458H24.4686V41.5898ZM24.5286 35.5847H23.5408V34.6867H24.5286V35.5847Z" fill="#003F7E"/>
<path d="M27.3212 41.6911C26.8473 41.6911 26.4781 41.5575 26.2134 41.2904C25.9488 41.0203 25.8165 40.5951 25.8165 40.0148V37.1642H25.2302V36.4458H25.8165V34.9676H26.6842V36.4458H28.2813V37.1642H26.6842V39.6096C26.6842 39.8705 26.6889 40.0716 26.6981 40.2128C26.7073 40.3541 26.7427 40.4861 26.8042 40.6089C26.8566 40.7163 26.9412 40.7977 27.0581 40.853C27.1751 40.9051 27.3335 40.9312 27.5336 40.9312C27.6751 40.9312 27.812 40.9113 27.9444 40.8714C28.0767 40.8284 28.1721 40.7931 28.2305 40.7655H28.2813V41.5437C28.1182 41.5898 27.9521 41.6251 27.7828 41.6496C27.6166 41.6773 27.4628 41.6911 27.3212 41.6911Z" fill="#003F7E"/>
<path d="M29.8138 41.5898H28.946V36.4458H29.8138V41.5898ZM29.8738 35.5847H28.886V34.6867H29.8738V35.5847Z" fill="#003F7E"/>
<path d="M33.3264 41.7095C32.5048 41.7095 31.8663 41.4793 31.4109 41.0187C30.9585 40.5552 30.7323 39.8982 30.7323 39.0477C30.7323 38.2096 30.9524 37.5434 31.3924 37.0491C31.8324 36.5518 32.4079 36.3031 33.1187 36.3031C33.4388 36.3031 33.7219 36.3491 33.968 36.4412C34.2142 36.5333 34.4296 36.6776 34.6143 36.8741C34.7989 37.0706 34.9405 37.3116 35.0389 37.5971C35.1374 37.8796 35.1866 38.2265 35.1866 38.6379V39.1076H31.614C31.614 39.7063 31.7647 40.1637 32.0663 40.4799C32.3679 40.7962 32.7849 40.9543 33.3172 40.9543C33.508 40.9543 33.6942 40.9328 33.8757 40.8898C34.0604 40.8468 34.2265 40.7916 34.3742 40.724C34.5312 40.6534 34.6635 40.5859 34.7712 40.5214C34.8789 40.4538 34.9681 40.3909 35.0389 40.3326H35.0897V41.2766C34.9881 41.3165 34.862 41.3672 34.7112 41.4286C34.5604 41.4869 34.425 41.533 34.305 41.5668C34.1358 41.6128 33.9819 41.6481 33.8434 41.6727C33.708 41.6972 33.5357 41.7095 33.3264 41.7095ZM34.3419 38.4445C34.3358 38.2111 34.3081 38.0101 34.2588 37.8412C34.2096 37.6723 34.1388 37.5296 34.0465 37.4129C33.945 37.284 33.8142 37.1857 33.6542 37.1182C33.4972 37.0507 33.3018 37.0169 33.068 37.0169C32.8372 37.0169 32.6402 37.0522 32.4771 37.1228C32.3171 37.1903 32.1709 37.2901 32.0386 37.4221C31.9094 37.5572 31.8109 37.7077 31.7432 37.8734C31.6755 38.0362 31.6324 38.2265 31.614 38.4445H34.3419Z" fill="#003F7E"/>
<path d="M37.4576 41.7141C37.113 41.7141 36.7899 41.6681 36.4883 41.576C36.1898 41.4839 35.9421 41.3856 35.7451 41.2812V40.3096H35.7913C35.8652 40.3679 35.9513 40.4324 36.0498 40.503C36.1513 40.5736 36.2852 40.6473 36.4514 40.724C36.5991 40.7916 36.7606 40.8514 36.936 40.9036C37.1145 40.9558 37.2992 40.9819 37.4899 40.9819C37.6284 40.9819 37.7761 40.9665 37.9331 40.9358C38.09 40.9021 38.2069 40.8606 38.2839 40.8115C38.3916 40.7409 38.4685 40.6657 38.5147 40.5859C38.5639 40.506 38.5885 40.3863 38.5885 40.2267C38.5885 40.021 38.5316 39.8659 38.4177 39.7615C38.3069 39.6572 38.1085 39.5697 37.8223 39.499C37.7115 39.4714 37.5669 39.4392 37.3884 39.4023C37.2099 39.3655 37.0453 39.3256 36.8945 39.2826C36.5006 39.169 36.2144 38.994 36.0359 38.7576C35.8575 38.5182 35.7682 38.2296 35.7682 37.8919C35.7682 37.4283 35.9436 37.0507 36.2944 36.759C36.6452 36.4673 37.1114 36.3215 37.693 36.3215C37.9792 36.3215 38.2669 36.3568 38.5562 36.4274C38.8455 36.498 39.0886 36.5871 39.2855 36.6945V37.6202H39.2393C39.0178 37.4452 38.7701 37.307 38.4962 37.2057C38.2254 37.1044 37.9515 37.0537 37.6746 37.0537C37.3884 37.0537 37.1468 37.1136 36.9499 37.2333C36.7529 37.3531 36.6545 37.5342 36.6545 37.7767C36.6545 37.9916 36.7129 38.1528 36.8299 38.2603C36.9468 38.3647 37.1345 38.4506 37.393 38.5182C37.5223 38.5519 37.6653 38.5857 37.8223 38.6195C37.9823 38.6502 38.15 38.687 38.3254 38.73C38.707 38.8252 38.9932 38.9833 39.184 39.2043C39.3778 39.4254 39.4748 39.7262 39.4748 40.1069C39.4748 40.328 39.4301 40.5383 39.3409 40.7378C39.2547 40.9343 39.127 41.1032 38.9578 41.2444C38.7731 41.3979 38.5639 41.5146 38.33 41.5944C38.0992 41.6742 37.8084 41.7141 37.4576 41.7141Z" fill="#003F7E"/>
</g>
<defs>
<clipPath id="clip0_8417_148694">
<rect width="134" height="41.875" fill="white"/>
</clipPath>
</defs>
</svg>
