<svg width="134" height="22" viewBox="0 0 134 22" fill="none" xmlns="http://www.w3.org/2000/svg">
<g clip-path="url(#clip0_8417_148744)">
<path d="M13.1959 0L8.87336 2.16129L4.55078 0L8.87336 8.30391L13.1959 0Z" fill="#FDBB30"/>
<path d="M14.7878 6.37022L17.8591 5.0052V0.682617L12.5127 2.95766C12.5127 2.95766 9.55518 8.41776 9.55518 8.64527C11.8302 8.87277 13.5365 10.8066 13.5365 13.0816C13.5365 15.5841 11.489 17.6317 8.98642 17.6317C6.48387 17.6317 4.43633 15.5841 4.43633 13.0816C4.43633 10.8066 6.14261 8.87277 8.41766 8.64527C8.3039 8.53151 5.4601 2.95766 5.4601 2.95766L0 0.682617V5.0052L3.07131 6.25647H2.95755C1.13752 8.07651 0 10.4653 0 13.0816C0 17.9729 3.98132 21.9543 8.87267 21.9543C13.764 21.9543 17.7453 17.9729 17.7453 13.0816C17.8591 10.4653 16.7216 8.07651 14.7878 6.37022Z" fill="#FDBB30"/>
<path d="M63.2459 2.95752H60.6296V9.6689H50.0507V2.95752H47.4344C46.8656 2.95752 46.2969 3.52628 46.2969 4.32255V18.5416C46.2969 19.2241 46.7519 19.9066 47.4344 19.9066H50.0507V12.7402H60.6296V19.9066H63.2459C63.8147 19.9066 64.3835 19.3378 64.3835 18.5416V4.32255C64.3835 3.52628 63.9285 2.95752 63.2459 2.95752Z" fill="#0079C1"/>
<path d="M41.9744 2.95752H39.3581V15.9253L31.5092 5.57382C30.2579 4.09504 29.3479 2.95752 27.1866 2.95752H24.5703V18.4278C24.5703 19.1103 25.0253 19.7928 25.7078 19.7928H28.4379V6.82509L36.2868 17.0628C37.6518 18.6553 38.7893 19.7928 40.7231 19.7928H43.1119V4.32255C43.1119 3.52628 42.6569 2.95752 41.9744 2.95752Z" fill="#0079C1"/>
<path d="M68.8207 10.3514C68.4795 10.3514 68.252 10.1239 68.252 9.78265V3.52628C68.252 3.18502 68.4795 2.95752 68.8207 2.95752H69.7307V10.3514H68.8207Z" fill="#0079C1"/>
<path d="M76.5549 10.3514C76.0999 10.3514 75.7586 10.2377 75.5311 9.78265L72.801 4.6638V10.3514H71.891C71.5498 10.3514 71.3223 10.1239 71.3223 9.78265V2.95752H72.4598C72.9148 2.95752 73.2561 3.07127 73.4836 3.52628L76.2136 8.64513V2.95752H77.1236C77.4649 2.95752 77.6924 3.18502 77.6924 3.52628V10.3514H76.5549Z" fill="#0079C1"/>
<path d="M83.2664 10.3514H82.2426C81.7876 10.3514 81.5601 10.1239 81.4464 9.6689L78.8301 2.95752H79.6263C80.0813 2.95752 80.3088 3.18502 80.4226 3.64003L82.2426 8.98638L84.0627 3.64003C84.1764 3.18502 84.5177 2.95752 84.8589 2.95752H85.8827L83.2664 10.3514Z" fill="#0079C1"/>
<path d="M87.5883 10.3514C87.247 10.3514 87.0195 10.1239 87.0195 9.78265V3.52628C87.0195 3.18502 87.247 2.95752 87.5883 2.95752H91.9109V3.52628C91.9109 3.86754 91.6834 4.09504 91.3421 4.09504H88.4983V6.14258H91.6834V6.71134C91.6834 7.0526 91.4559 7.2801 91.1146 7.2801H88.4983V9.44139H91.3421C91.6834 9.44139 91.9109 9.66889 91.9109 10.0102V10.5789H87.5883V10.3514Z" fill="#0079C1"/>
<path d="M94.8693 10.4651C93.8455 10.4651 93.0492 10.2376 92.4805 10.0101L92.708 9.55512C92.8217 9.32762 93.0492 9.10012 93.3905 9.21387C93.7317 9.32762 94.1867 9.44137 94.7555 9.44137C95.438 9.44137 96.348 9.21387 96.348 8.4176C96.348 7.39383 95.2105 7.39383 93.8455 6.59757C92.1392 5.68755 92.708 2.84375 95.3243 2.84375C96.348 2.84375 96.9168 3.07125 97.4856 3.29876L97.2581 3.75377C97.1443 3.98127 96.9168 4.20878 96.5755 4.09502C96.348 3.98127 95.893 3.86752 95.5518 3.86752C94.983 3.86752 94.3005 4.09502 94.3005 4.89129C94.3005 5.68755 95.3243 5.91506 96.2343 6.25631C97.3718 6.82507 97.8268 7.39383 97.8268 8.30385C97.8268 9.89638 96.2343 10.4651 94.8693 10.4651Z" fill="#0079C1"/>
<path d="M101.011 10.3514C100.67 10.3514 100.443 10.1239 100.443 9.78265V4.09504H98.85C98.5088 4.09504 98.2812 3.86754 98.2812 3.52628V2.95752H104.083V3.52628C104.083 3.86754 103.855 4.09504 103.514 4.09504H101.921V10.3514H101.011Z" fill="#0079C1"/>
<path d="M112.615 10.3514H111.705V4.55005L109.999 9.55514C109.885 10.0102 109.658 10.2377 109.202 10.2377H108.52L106.586 4.55005V10.3514H105.676C105.335 10.3514 105.107 10.1239 105.107 9.78265V2.95752H106.359C106.814 2.95752 107.269 3.18502 107.382 3.52628L109.202 8.64513L110.909 3.64003C111.023 3.29878 111.478 3.07127 111.933 3.07127H113.184V9.8964C113.184 10.1239 112.956 10.3514 112.615 10.3514Z" fill="#0079C1"/>
<path d="M115.231 10.3514C114.89 10.3514 114.662 10.1239 114.662 9.78265V3.52628C114.662 3.18502 114.89 2.95752 115.231 2.95752H119.553V3.52628C119.553 3.86754 119.326 4.09504 118.985 4.09504H116.141V6.14258H119.326V6.71134C119.326 7.0526 119.098 7.2801 118.757 7.2801H116.141V9.44139H118.985C119.326 9.44139 119.553 9.66889 119.553 10.0102V10.5789H115.231V10.3514Z" fill="#0079C1"/>
<path d="M126.037 10.3514C125.582 10.3514 125.241 10.2377 125.014 9.78265L122.283 4.6638V10.3514H121.373C121.032 10.3514 120.805 10.1239 120.805 9.78265V2.95752H121.942C122.397 2.95752 122.738 3.07127 122.966 3.52628L125.696 8.64513V2.95752H126.606C126.947 2.95752 127.175 3.18502 127.175 3.52628V10.3514H126.037Z" fill="#0079C1"/>
<path d="M130.929 10.3514C130.588 10.3514 130.361 10.1239 130.361 9.78265V4.09504H128.768C128.427 4.09504 128.199 3.86754 128.199 3.52628V2.95752H134.001V3.52628C134.001 3.86754 133.773 4.09504 133.432 4.09504H131.839V10.3514H130.929Z" fill="#0079C1"/>
<path d="M71.5503 15.8114L72.9153 17.404C73.1428 16.949 73.2566 16.4939 73.2566 16.1527H74.5078C74.5078 16.7215 74.2803 17.5177 73.7116 18.314L74.9629 19.7928H73.5978L73.0291 19.1102C72.4603 19.5653 71.7778 19.9065 70.8678 19.9065C69.5028 19.9065 68.3652 19.224 68.3652 17.859C68.3652 16.949 69.1615 16.1527 70.1853 15.5839C69.6165 14.9014 69.2753 14.3327 69.2753 13.7639C69.2753 12.6264 70.299 12.0576 71.3228 12.0576C72.3466 12.0576 73.3703 12.7401 73.3703 13.7639C73.2566 14.6739 72.5741 15.2427 71.5503 15.8114ZM69.6165 17.859C69.6165 18.6552 70.0715 18.9965 70.754 18.9965C71.4365 18.9965 71.8916 18.769 72.2328 18.314L70.6403 16.3802C69.9578 16.8352 69.6165 17.2902 69.6165 17.859ZM71.8916 13.8777C71.8916 13.4226 71.5503 13.0814 71.0953 13.0814C70.6403 13.0814 70.299 13.4226 70.299 13.8777C70.299 14.2189 70.4128 14.5602 70.8678 15.1289C71.5503 14.6739 71.8916 14.3327 71.8916 13.8777Z" fill="#0079C1"/>
<path d="M79.9669 19.9065C78.9432 19.9065 78.1469 19.679 77.5781 19.4515L77.8056 18.9965C77.9194 18.769 78.1469 18.5415 78.4881 18.6553C78.8294 18.769 79.2844 18.8828 79.8532 18.8828C80.5357 18.8828 81.4457 18.6553 81.4457 17.859C81.4457 16.8352 80.3082 16.8352 78.9432 16.039C77.2369 15.129 77.8056 12.2852 80.4219 12.2852C81.4457 12.2852 82.0145 12.5127 82.5832 12.7402L82.3557 13.1952C82.242 13.4227 82.0145 13.6502 81.6732 13.5364C81.4457 13.4227 80.9907 13.3089 80.6494 13.3089C80.0807 13.3089 79.3982 13.5364 79.3982 14.3327C79.3982 15.129 80.4219 15.3565 81.332 15.6977C82.3557 16.1527 82.9245 16.7215 82.9245 17.6315C82.9245 19.3378 81.4457 19.9065 79.9669 19.9065Z" fill="#0079C1"/>
<path d="M84.518 19.7928C84.1767 19.7928 83.9492 19.5653 83.9492 19.2241V12.9677C83.9492 12.6264 84.1767 12.3989 84.518 12.3989H88.8406V12.9677C88.8406 13.3089 88.613 13.5364 88.2718 13.5364H85.428V15.584H88.6131V16.1527C88.6131 16.494 88.3855 16.7215 88.0443 16.7215H85.428V18.8828H88.2718C88.613 18.8828 88.8406 19.1103 88.8406 19.4516V20.0203H84.518V19.7928Z" fill="#0079C1"/>
<path d="M93.6176 19.9065C91.4563 19.9065 89.75 18.5415 89.75 16.039C89.75 13.6502 91.4563 12.1714 93.6176 12.1714C94.4138 12.1714 95.2101 12.3989 95.7789 12.7401L95.5514 13.4227C95.4376 13.6502 95.2101 13.7639 94.8688 13.6502C94.5276 13.5364 94.0726 13.4227 93.6176 13.4227C92.2526 13.4227 91.2288 14.4464 91.2288 16.1527C91.2288 17.859 92.2526 18.8828 93.6176 18.8828C94.1863 18.8828 94.6413 18.769 94.8688 18.5415C95.2101 18.4278 95.4376 18.5415 95.5514 18.769L95.7789 19.224C95.3239 19.679 94.5276 19.9065 93.6176 19.9065Z" fill="#0079C1"/>
<path d="M99.874 19.9066C97.9403 19.9066 96.8027 18.9965 96.8027 17.0628V12.9677C96.8027 12.6264 97.0302 12.3989 97.3715 12.3989H98.2815V16.949C98.2815 18.2003 98.7365 18.8828 99.9878 18.8828C101.125 18.8828 101.694 18.2003 101.694 16.949V12.3989H102.604C102.945 12.3989 103.173 12.6264 103.173 12.9677V17.0628C102.945 18.9965 101.808 19.9066 99.874 19.9066Z" fill="#0079C1"/>
<path d="M109.202 19.7928C108.861 19.7928 108.633 19.5653 108.406 19.3378L107.382 16.949C107.154 16.949 106.927 16.949 106.699 16.949H105.789V19.7928H104.879C104.538 19.7928 104.311 19.5653 104.311 19.2241V12.9677C104.311 12.6264 104.538 12.3989 104.879 12.3989H106.699C108.292 12.3989 109.771 12.9677 109.771 14.674C109.771 15.6977 109.316 16.2665 108.633 16.6078L110.112 19.7928H109.202ZM106.813 13.5364H105.903V15.9252H106.813C107.723 15.9252 108.406 15.584 108.406 14.674C108.406 13.764 107.723 13.5364 106.813 13.5364Z" fill="#0079C1"/>
<path d="M111.705 19.7928C111.364 19.7928 111.137 19.5653 111.137 19.2241V12.9677C111.137 12.6264 111.364 12.3989 111.705 12.3989H112.616V19.7928H111.705Z" fill="#0079C1"/>
<path d="M116.369 19.7928C116.027 19.7928 115.8 19.5653 115.8 19.224V13.4227H114.207C113.866 13.4227 113.639 13.1952 113.639 12.8539V12.2852H119.44V12.8539C119.44 13.1952 119.213 13.4227 118.871 13.4227H117.279V19.679H116.369V19.7928Z" fill="#0079C1"/>
<path d="M120.918 19.7928C120.577 19.7928 120.35 19.5653 120.35 19.2241V12.9677C120.35 12.6264 120.577 12.3989 120.918 12.3989H121.828V19.7928H120.918Z" fill="#0079C1"/>
<path d="M123.875 19.7928C123.534 19.7928 123.307 19.5653 123.307 19.2241V12.9677C123.307 12.6264 123.534 12.3989 123.875 12.3989H128.198V12.9677C128.198 13.3089 127.97 13.5364 127.629 13.5364H124.785V15.584H127.97V16.1527C127.97 16.494 127.743 16.7215 127.402 16.7215H124.785V18.8828H127.629C127.97 18.8828 128.198 19.1103 128.198 19.4516V20.0203H123.875V19.7928Z" fill="#0079C1"/>
<path d="M131.043 19.9065C130.019 19.9065 129.223 19.679 128.654 19.4515L128.882 18.9965C128.996 18.769 129.223 18.5415 129.564 18.6553C129.906 18.769 130.361 18.8828 130.929 18.8828C131.612 18.8828 132.522 18.6553 132.522 17.859C132.522 16.8352 131.384 16.8352 130.019 16.039C128.313 15.129 128.882 12.2852 131.498 12.2852C132.522 12.2852 133.091 12.5127 133.659 12.7402L133.546 13.1952C133.432 13.4227 133.204 13.6502 132.863 13.5364C132.636 13.4227 132.181 13.3089 131.839 13.3089C131.271 13.3089 130.588 13.5364 130.588 14.3327C130.588 15.129 131.612 15.3565 132.522 15.6977C133.546 16.1527 134.114 16.7215 134.114 17.6315C134.001 19.3378 132.408 19.9065 131.043 19.9065Z" fill="#0079C1"/>
</g>
<defs>
<clipPath id="clip0_8417_148744">
<rect width="134" height="21.9542" fill="white"/>
</clipPath>
</defs>
</svg>
