<svg width="375" height="219" viewBox="0 0 375 219" fill="none" xmlns="http://www.w3.org/2000/svg">
<g clip-path="url(#clip0_18_2)">
<g filter="url(#filter0_f_18_2)">
<circle cx="187.5" cy="121.5" r="57.5" fill="#FFC200"/>
</g>
<g clip-path="url(#clip1_18_2)">
<path d="M172.624 127.385C168.576 126.825 164.868 124.819 162.183 121.739C159.498 118.659 158.017 114.712 158.014 110.626V104.896H172.624V99.8867H153V110.626C153.007 116.04 155.015 121.261 158.637 125.286C162.259 129.311 167.24 131.855 172.624 132.431V127.385Z" fill="#FFC200"/>
<path d="M153 104.953V110.625C153.007 116.04 155.015 121.261 158.637 125.286C162.259 129.31 167.24 131.855 172.624 132.431V127.384C168.576 126.824 164.868 124.819 162.183 121.739C159.498 118.659 158.017 114.711 158.014 110.625V104.953H153Z" fill="#FFA300"/>
<path d="M202.018 127.385C206.065 126.824 209.773 124.819 212.457 121.739C215.142 118.658 216.622 114.711 216.625 110.626V104.896H202.018V99.8867H221.639V110.626C221.632 116.04 219.626 121.261 216.004 125.286C212.382 129.311 207.401 131.855 202.018 132.431V127.385Z" fill="#FFC200"/>
<path d="M221.639 104.953V110.625C221.632 116.039 219.626 121.26 216.004 125.285C212.382 129.31 207.401 131.855 202.018 132.431V127.384C206.065 126.823 209.773 124.818 212.457 121.738C215.142 118.658 216.622 114.711 216.625 110.625V104.953H221.639Z" fill="#FFA300"/>
<path d="M192.747 146.428L191.748 139.741H191.959C192.173 139.749 192.386 139.714 192.587 139.638C192.787 139.561 192.969 139.445 193.124 139.297C193.278 139.148 193.401 138.97 193.485 138.773C193.569 138.576 193.612 138.364 193.612 138.149C193.612 137.935 193.569 137.723 193.485 137.526C193.401 137.329 193.278 137.151 193.124 137.002C192.969 136.853 192.787 136.737 192.587 136.661C192.386 136.585 192.173 136.55 191.959 136.558H182.602C182.19 136.573 181.801 136.748 181.515 137.045C181.229 137.341 181.069 137.737 181.069 138.149C181.069 138.561 181.229 138.957 181.515 139.254C181.801 139.551 182.19 139.725 182.602 139.741H182.817L181.818 146.428C180.232 146.605 178.767 147.359 177.703 148.548C176.639 149.737 176.05 151.277 176.05 152.872V152.937H198.508V152.872C198.508 151.278 197.921 149.739 196.858 148.55C195.795 147.362 194.332 146.606 192.747 146.428Z" fill="#FFC200"/>
<path d="M187.479 138.534H187.087C181.758 138.535 176.615 136.573 172.641 133.022C168.667 129.471 166.141 124.58 165.545 119.284L162.781 96.2614L163.026 96.2109C163.879 96.0391 210.694 96.0391 211.537 96.2109L211.782 96.2614L209.016 119.291C208.419 124.585 205.893 129.473 201.92 133.023C197.947 136.572 192.806 138.534 187.479 138.534Z" fill="#FFC200"/>
<path d="M211.782 96.2608L211.537 96.2104C203.218 96.2104 195.408 96.082 187.281 96.082V138.533H187.478C189.326 138.533 191.166 138.296 192.953 137.83C193.32 137.734 193.684 137.628 194.042 137.514C194.528 137.361 195.006 137.191 195.476 137.005C199.126 135.555 202.314 133.142 204.698 130.022C207.083 126.902 208.575 123.192 209.016 119.29L211.782 96.2608Z" fill="#FFA300"/>
<path d="M192.747 146.428L191.748 139.741H191.959C192.173 139.749 192.386 139.714 192.586 139.638C192.787 139.561 192.969 139.445 193.124 139.297C193.278 139.148 193.401 138.97 193.485 138.773C193.569 138.576 193.612 138.364 193.612 138.149C193.612 137.935 193.569 137.723 193.485 137.526C193.401 137.329 193.278 137.151 193.124 137.002C192.969 136.853 192.787 136.737 192.586 136.661C192.386 136.585 192.173 136.55 191.959 136.558H187.281V152.937H198.511V152.872C198.51 151.277 197.922 149.739 196.859 148.55C195.796 147.361 194.332 146.606 192.747 146.428Z" fill="#FFA300"/>
<path d="M192.247 143.084L191.764 139.857H182.799L182.317 143.084H192.247Z" fill="#CC6315"/>
<path d="M171.024 123.942C169.633 120.829 169.271 117.582 168.87 114.25L168.058 107.501C167.971 106.77 166.812 106.761 166.912 107.501C167.2 109.89 167.487 112.281 167.774 114.674C168.182 118.077 168.615 121.352 170.034 124.528C170.339 125.216 171.338 124.62 171.035 123.942H171.024Z" fill="#FFF0A4"/>
<path d="M175.841 130.638C174.86 129.713 173.964 128.701 173.167 127.613C172.732 127.015 171.726 127.594 172.166 128.197C173.016 129.368 173.972 130.459 175.021 131.456C175.564 131.969 176.396 131.151 175.841 130.638Z" fill="#FFF0A4"/>
<path d="M204.192 123.379C202.01 128.046 198.233 131.78 193.542 133.91C192.855 134.221 193.453 135.221 194.127 134.911C198.995 132.688 202.916 128.809 205.191 123.964C205.507 123.292 204.503 122.703 204.192 123.379Z" fill="#FFC200"/>
<path d="M205.952 117.043C205.858 117.833 205.721 118.618 205.542 119.394C205.377 120.121 206.493 120.43 206.66 119.701C206.86 118.824 207.013 117.936 207.119 117.043C207.206 116.303 206.046 116.309 205.959 117.043H205.952Z" fill="#FFC200"/>
<path d="M180.746 147.707C179.983 148.084 179.292 148.593 178.706 149.21C178.19 149.751 179.009 150.571 179.524 150.03C180.044 149.486 180.655 149.038 181.33 148.706C181.999 148.376 181.413 147.377 180.746 147.707Z" fill="#FFF0A4"/>
<path d="M211.896 95.969L211.637 98.3639H163.03L162.785 95.969L163.03 95.9232C163.704 95.7834 210.963 95.7834 211.637 95.9232L211.896 95.969Z" fill="#CC6315"/>
<path d="M212.215 96.2724H162.496C161.665 96.2724 160.867 95.9421 160.28 95.3541C159.692 94.7662 159.361 93.9688 159.361 93.1373C159.361 92.7254 159.442 92.3175 159.599 91.9369C159.757 91.5563 159.988 91.2104 160.279 90.919C160.57 90.6277 160.916 90.3966 161.296 90.2389C161.677 90.0812 162.084 90 162.496 90H212.226C212.638 90 213.046 90.0812 213.426 90.2389C213.807 90.3966 214.153 90.6277 214.444 90.919C214.735 91.2104 214.966 91.5563 215.123 91.9369C215.281 92.3175 215.362 92.7254 215.361 93.1373C215.361 93.55 215.28 93.9586 215.121 94.3397C214.963 94.7208 214.731 95.0669 214.439 95.3582C214.147 95.6495 213.8 95.8802 213.418 96.037C213.036 96.1939 212.627 96.2739 212.215 96.2724Z" fill="#FFC200"/>
<path d="M165.04 93.8447H163.422C163.111 93.8447 162.813 93.7211 162.593 93.5011C162.373 93.281 162.249 92.9826 162.249 92.6714C162.249 92.3602 162.373 92.0618 162.593 91.8417C162.813 91.6217 163.111 91.498 163.422 91.498H165.04C165.352 91.498 165.65 91.6217 165.87 91.8417C166.09 92.0618 166.214 92.3602 166.214 92.6714C166.214 92.9826 166.09 93.281 165.87 93.5011C165.65 93.7211 165.352 93.8447 165.04 93.8447Z" fill="#FFF2BB"/>
<path d="M176.891 93.8447H168.767C168.456 93.8447 168.157 93.7211 167.937 93.5011C167.717 93.281 167.594 92.9826 167.594 92.6714C167.594 92.3602 167.717 92.0618 167.937 91.8417C168.157 91.6217 168.456 91.498 168.767 91.498H176.891C177.045 91.498 177.198 91.5284 177.34 91.5874C177.482 91.6464 177.611 91.7329 177.72 91.8419C177.829 91.9508 177.915 92.0802 177.974 92.2225C178.032 92.3649 178.063 92.5174 178.062 92.6714C178.062 92.9822 177.939 93.2803 177.719 93.5003C177.5 93.7203 177.202 93.8441 176.891 93.8447Z" fill="#FFF2BB"/>
<path d="M211.154 174.754V158.105C211.155 157.408 211.018 156.718 210.752 156.073C210.486 155.429 210.096 154.843 209.603 154.35C209.111 153.857 208.526 153.465 207.882 153.198C207.238 152.931 206.548 152.793 205.851 152.793H168.79C167.383 152.793 166.033 153.352 165.038 154.347C164.043 155.342 163.484 156.691 163.484 158.098V174.747H163.255C162.579 174.747 161.909 174.88 161.283 175.139C160.658 175.398 160.09 175.777 159.612 176.256C159.133 176.734 158.754 177.302 158.495 177.927C158.236 178.552 158.103 179.223 158.104 179.899V181.76H216.533V179.899C216.533 179.222 216.399 178.552 216.14 177.927C215.881 177.302 215.502 176.734 215.023 176.256C214.544 175.777 213.976 175.398 213.351 175.139C212.725 174.88 212.055 174.747 211.379 174.747L211.154 174.754Z" fill="#7D7C9B"/>
<path d="M205.851 152.793H187.32V181.76H216.533V179.899C216.533 179.222 216.399 178.552 216.14 177.927C215.881 177.302 215.501 176.734 215.023 176.256C214.544 175.777 213.976 175.398 213.351 175.139C212.725 174.88 212.055 174.747 211.379 174.747H211.149V158.105C211.15 157.408 211.014 156.718 210.748 156.074C210.482 155.43 210.092 154.845 209.6 154.352C209.108 153.858 208.524 153.467 207.881 153.199C207.237 152.932 206.548 152.794 205.851 152.793Z" fill="#5E5E7C"/>
<path d="M211.154 171.518H163.484V174.751H211.154V171.518Z" fill="#5E5E7C"/>
<path d="M216.533 181.766H158.108V184.999H216.533V181.766Z" fill="#3F3F5B"/>
<path d="M198.302 158.57H176.336C175.437 158.57 174.709 159.299 174.709 160.197V169.635C174.709 170.533 175.437 171.262 176.336 171.262H198.302C199.201 171.262 199.929 170.533 199.929 169.635V160.197C199.929 159.299 199.201 158.57 198.302 158.57Z" fill="#96A6A8"/>
<path d="M198.302 157.312H176.336C175.437 157.312 174.709 158.041 174.709 158.94V168.377C174.709 169.275 175.437 170.004 176.336 170.004H198.302C199.201 170.004 199.929 169.275 199.929 168.377V158.94C199.929 158.041 199.201 157.312 198.302 157.312Z" fill="#BECACC"/>
<path d="M199.494 157.835C199.343 157.67 199.16 157.538 198.955 157.448C198.751 157.358 198.53 157.312 198.307 157.313H197.342L184.65 170.004H187.325L199.494 157.835Z" fill="#DAE7E8"/>
<path d="M175.599 169.818C175.827 169.939 176.081 170.002 176.339 170.004H181.894L194.585 157.312H188.104L175.599 169.818Z" fill="#DAE7E8"/>
<path d="M179.584 161.272H195.078C196.091 161.272 196.091 159.697 195.078 159.697H179.584C178.573 159.697 178.571 161.272 179.584 161.272Z" fill="#7D8D8E"/>
<path d="M182.3 163.875H192.34C193.353 163.875 193.355 162.301 192.34 162.301H182.3C181.287 162.301 181.287 163.875 182.3 163.875Z" fill="#7D8D8E"/>
<path d="M179.584 167.617H195.078C196.091 167.617 196.091 166.043 195.078 166.043H179.584C178.573 166.043 178.571 167.617 179.584 167.617Z" fill="#7D8D8E"/>
<path d="M200.143 127.102C199.835 127.045 199.527 126.972 199.21 126.944C197.244 126.693 195.247 126.991 193.439 127.804C193.048 127.969 192.697 128.214 192.407 128.524C192.118 128.834 191.897 129.201 191.759 129.602C191.73 129.653 191.712 129.71 191.706 129.768C191.699 129.826 191.705 129.885 191.722 129.942C191.739 129.998 191.767 130.05 191.805 130.095C191.843 130.14 191.889 130.176 191.942 130.203C192.534 130.58 193.234 130.752 193.934 130.694C195.517 130.605 196.876 129.907 198.135 129.014C198.865 128.49 199.527 127.865 200.221 127.285L200.143 127.102Z" fill="#E58010"/>
<path d="M192.111 132.178C191.636 131.865 191.178 131.516 190.679 131.244C189.428 130.509 188.02 130.082 186.572 129.998C186.183 129.959 185.79 130.004 185.42 130.131C185.05 130.258 184.712 130.463 184.429 130.733C184.383 130.766 184.344 130.808 184.316 130.857C184.287 130.906 184.269 130.96 184.262 131.016C184.256 131.072 184.261 131.129 184.278 131.183C184.295 131.237 184.323 131.287 184.36 131.329C184.608 131.705 184.93 132.026 185.306 132.274C185.682 132.521 186.104 132.69 186.547 132.77C188.389 133.159 190.304 133.003 192.058 132.32C192.075 132.271 192.095 132.226 192.111 132.178Z" fill="#E58010"/>
<path d="M202.663 120.324C202.135 120.462 201.677 120.548 201.239 120.698C199.704 121.237 198.272 121.956 197.233 123.263C196.826 123.736 196.617 124.348 196.649 124.971C196.643 125.021 196.648 125.072 196.663 125.12C196.677 125.168 196.702 125.212 196.735 125.25C196.767 125.288 196.808 125.319 196.853 125.341C196.898 125.363 196.947 125.375 196.998 125.377C197.388 125.448 197.79 125.441 198.178 125.356C198.566 125.271 198.933 125.11 199.258 124.882C200.808 123.883 201.811 122.447 202.557 120.779C202.601 120.629 202.637 120.478 202.663 120.324Z" fill="#E58010"/>
<path d="M193.21 124.639C193.141 124.613 193.069 124.595 192.995 124.586C191.189 124.765 189.688 125.487 188.718 127.078C188.571 127.328 188.476 127.605 188.437 127.893C188.398 128.181 188.416 128.473 188.491 128.754C188.512 128.826 188.547 128.892 188.594 128.95C188.642 129.008 188.7 129.056 188.767 129.091C189.105 129.248 189.483 129.3 189.851 129.242C190.22 129.183 190.563 129.016 190.836 128.762C191.725 128.019 192.396 127.048 192.776 125.954C192.938 125.532 193.06 125.097 193.21 124.639Z" fill="#E58010"/>
<path d="M197.217 110C197.03 110.58 196.832 111.088 196.71 111.623C196.409 112.769 196.369 113.967 196.592 115.13C196.7 115.771 197.043 116.35 197.554 116.753C197.602 116.808 197.663 116.85 197.731 116.876C197.799 116.902 197.872 116.912 197.944 116.904C198.017 116.896 198.086 116.871 198.147 116.83C198.207 116.79 198.257 116.736 198.293 116.672C198.725 116.15 198.958 115.491 198.95 114.813C198.917 113.165 198.39 111.564 197.436 110.219C197.368 110.141 197.295 110.068 197.217 110Z" fill="#E58010"/>
<path d="M196.361 118.076C195.701 118.718 195.165 119.478 194.783 120.316C194.363 121.081 194.097 121.921 193.999 122.788C193.914 123.419 194.082 124.058 194.466 124.565C194.49 124.605 194.521 124.64 194.559 124.667C194.596 124.694 194.638 124.714 194.684 124.725C194.729 124.735 194.775 124.737 194.821 124.729C194.867 124.721 194.91 124.704 194.949 124.679C195.411 124.46 195.795 124.105 196.049 123.66C196.613 122.632 196.864 121.461 196.771 120.292C196.739 119.553 196.621 118.819 196.54 118.08L196.361 118.076Z" fill="#E58010"/>
<path d="M201.511 114.818C201.126 115.098 200.764 115.322 200.444 115.593C199.619 116.269 198.93 117.095 198.415 118.028C198.031 118.631 197.9 119.36 198.049 120.058C198.191 120.618 198.325 120.691 198.861 120.512C199.6 120.239 200.204 119.689 200.545 118.978C201.202 117.788 201.546 116.45 201.544 115.09C201.542 114.999 201.531 114.908 201.511 114.818Z" fill="#E58010"/>
<path d="M173.516 127.102C173.828 127.045 174.137 126.972 174.449 126.944C176.414 126.693 178.41 126.991 180.216 127.804C180.607 127.969 180.959 128.214 181.249 128.524C181.539 128.834 181.761 129.201 181.9 129.602C181.928 129.653 181.946 129.71 181.952 129.768C181.957 129.827 181.951 129.886 181.934 129.942C181.917 129.998 181.888 130.05 181.85 130.094C181.812 130.139 181.766 130.176 181.714 130.202C181.12 130.581 180.419 130.755 179.717 130.698C178.134 130.608 176.775 129.91 175.516 129.017C174.786 128.494 174.124 127.869 173.435 127.289L173.516 127.102Z" fill="#E58010"/>
<path d="M181.548 132.177C182.023 131.865 182.481 131.516 182.98 131.244C184.232 130.508 185.642 130.081 187.092 129.998C187.48 129.959 187.872 130.004 188.241 130.131C188.61 130.258 188.948 130.463 189.23 130.732C189.276 130.765 189.315 130.808 189.343 130.856C189.372 130.905 189.39 130.959 189.397 131.016C189.403 131.072 189.398 131.129 189.381 131.183C189.364 131.237 189.336 131.286 189.299 131.329C189.052 131.705 188.73 132.027 188.354 132.275C187.978 132.522 187.555 132.691 187.112 132.77C185.27 133.158 183.355 133.002 181.601 132.319C181.584 132.271 181.564 132.226 181.548 132.177Z" fill="#E58010"/>
<path d="M171 120.324C171.524 120.462 171.986 120.548 172.42 120.698C173.954 121.238 175.387 121.956 176.43 123.263C176.837 123.736 177.046 124.348 177.014 124.971C177.019 125.021 177.014 125.072 176.999 125.12C176.984 125.168 176.959 125.212 176.926 125.25C176.893 125.288 176.852 125.319 176.807 125.341C176.761 125.363 176.712 125.375 176.661 125.377C176.271 125.448 175.87 125.441 175.481 125.356C175.093 125.271 174.726 125.11 174.401 124.882C172.923 123.867 171.775 122.441 171.101 120.779C171.057 120.63 171.024 120.478 171 120.324Z" fill="#E58010"/>
<path d="M180.451 124.639C180.519 124.613 180.59 124.595 180.662 124.586C182.468 124.765 183.974 125.487 184.94 127.078C185.087 127.328 185.183 127.605 185.222 127.893C185.261 128.181 185.242 128.473 185.167 128.754C185.147 128.826 185.112 128.893 185.064 128.951C185.017 129.009 184.958 129.057 184.891 129.091C184.553 129.248 184.176 129.301 183.808 129.242C183.44 129.183 183.098 129.016 182.825 128.762C181.934 128.02 181.262 127.049 180.881 125.954C180.719 125.532 180.597 125.097 180.451 124.639Z" fill="#E58010"/>
<path d="M176.442 110C176.629 110.58 176.828 111.088 176.949 111.623C177.25 112.769 177.29 113.967 177.067 115.13C176.959 115.771 176.616 116.35 176.105 116.753C176.057 116.808 175.996 116.85 175.928 116.876C175.861 116.902 175.787 116.912 175.715 116.904C175.643 116.896 175.573 116.871 175.512 116.83C175.452 116.79 175.402 116.736 175.367 116.672C174.934 116.15 174.702 115.491 174.713 114.813C174.745 113.165 175.271 111.565 176.223 110.219C176.291 110.141 176.364 110.068 176.442 110Z" fill="#E58010"/>
<path d="M177.282 118.076C177.944 118.717 178.48 119.477 178.861 120.316C179.283 121.08 179.549 121.92 179.644 122.788C179.688 123.1 179.669 123.418 179.589 123.723C179.508 124.028 179.369 124.315 179.178 124.565C179.154 124.605 179.123 124.64 179.086 124.667C179.049 124.694 179.007 124.714 178.962 124.724C178.918 124.735 178.871 124.736 178.826 124.729C178.781 124.721 178.737 124.704 178.699 124.679C178.234 124.462 177.849 124.106 177.595 123.66C177.031 122.632 176.78 121.461 176.872 120.292C176.905 119.553 177.027 118.819 177.104 118.08L177.282 118.076Z" fill="#E58010"/>
<path d="M172.153 114.818C172.559 115.098 172.896 115.322 173.216 115.593C174.043 116.267 174.732 117.094 175.245 118.028C175.629 118.631 175.76 119.36 175.611 120.058C175.469 120.618 175.335 120.691 174.799 120.512C174.058 120.24 173.452 119.69 173.111 118.978C172.454 117.788 172.11 116.45 172.112 115.09C172.118 114.999 172.131 114.908 172.153 114.818Z" fill="#E58010"/>
<path d="M180.053 110.168H183.451V122.002C182.55 122.002 181.685 121.646 181.048 121.013C180.411 120.379 180.053 119.52 180.053 118.625V110.168Z" fill="#CC6315"/>
<path d="M190.256 110.249C190.24 110.91 190.028 111.551 189.649 112.093C189.269 112.636 188.737 113.056 188.12 113.301C187.503 113.546 186.826 113.606 186.175 113.473C185.524 113.34 184.926 113.02 184.456 112.553C183.986 112.085 183.664 111.491 183.53 110.844C183.397 110.197 183.457 109.525 183.703 108.911C183.95 108.298 184.373 107.769 184.918 107.392C185.464 107.015 186.109 106.805 186.774 106.788L187.672 103.454C186.26 103.28 184.829 103.548 183.577 104.222C182.326 104.895 181.318 105.94 180.693 107.211C180.069 108.481 179.859 109.914 180.093 111.309C180.327 112.703 180.994 113.991 182 114.991C183.006 115.991 184.301 116.654 185.704 116.887C187.108 117.12 188.549 116.912 189.828 116.291C191.106 115.671 192.158 114.669 192.836 113.426C193.514 112.183 193.784 110.76 193.609 109.357L190.256 110.249Z" fill="#CC6315"/>
<path d="M186.857 110.165L195.073 107.977C194.685 106.544 193.925 105.238 192.87 104.189C191.814 103.14 190.5 102.385 189.058 102L186.857 110.165Z" fill="#CC6315"/>
</g>
<g clip-path="url(#clip2_18_2)">
<path d="M225.373 23.3088C223.946 25.4384 222.207 24.6916 220.941 23.3917C219.676 22.0918 219.628 20.0763 220.834 18.8974C222.041 17.7185 224.042 17.8603 225.308 19.1671C226.573 20.4739 226.303 21.919 225.373 23.3088Z" fill="#F48F4A"/>
<path d="M226.47 20.7988C225.754 21.4902 224.765 21.632 224.264 21.1099C223.763 20.5879 223.939 19.6095 224.658 18.9181C225.377 18.2267 226.362 18.0849 226.864 18.6035C227.365 19.1221 227.206 20.1074 226.47 20.7988Z" fill="#FFB37B"/>
<path d="M220.637 20.9219C220.485 18.8235 224.257 16.3101 225.847 17.5823C227.437 18.8546 224.437 20.9427 223.32 20.0023C222.383 19.2245 223.828 18.2012 223.828 18.2012" fill="#FFB37B"/>
<path d="M223.659 20.2112C223.165 19.7998 223.697 19.1741 224.223 18.7385C224.748 18.3029 224.223 17.3556 223.186 17.7013C222.148 18.0471 221.291 19.8759 221.291 19.8759L223.659 20.2112Z" fill="#F48F4A"/>
<path d="M223.728 17.4655C222.812 16.66 218.566 19.7507 219.925 22.6754C221.049 25.0954 225.197 20.978 222.293 19.9097C222.29 19.8994 224.502 18.1431 223.728 17.4655Z" fill="#FFB37B"/>
<path d="M226.629 22.201C225.809 22.5847 224.921 22.4119 224.644 21.8207C224.368 21.2295 224.807 20.4378 225.626 20.0541C226.445 19.6704 227.334 19.8432 227.611 20.4344C227.887 21.0256 227.448 21.8172 226.629 22.201Z" fill="#FFB37B"/>
<path d="M226.86 23.1912C226.169 23.5127 225.419 23.3709 225.187 22.8696C224.956 22.3684 225.326 21.7046 226.013 21.3831C226.701 21.0616 227.455 21.2033 227.687 21.7011C227.918 22.199 227.552 22.8696 226.86 23.1912Z" fill="#FFB37B"/>
<path d="M220.343 26.0316L217.826 20.7663L220.174 19.6289L222.69 24.8941L220.343 26.0316Z" fill="white"/>
<path d="M149.441 22.1258C150.851 24.4075 152.701 23.7057 154.073 22.3816C155.446 21.0575 155.574 18.9625 154.357 17.7006C153.14 16.4388 151.038 16.4872 149.665 17.8112C148.293 19.1353 148.521 20.6392 149.441 22.1258Z" fill="#F48F4A"/>
<path d="M148.383 19.463C149.106 20.2132 150.136 20.3999 150.679 19.8744C151.221 19.3489 151.076 18.3187 150.35 17.565C149.624 16.8114 148.597 16.6316 148.055 17.1536C147.512 17.6757 147.664 18.7128 148.383 19.463Z" fill="#FFB37B"/>
<path d="M154.471 19.8164C154.709 17.6315 150.865 14.8658 149.15 16.1242C147.436 17.3826 150.499 19.6954 151.698 18.7689C152.711 17.9876 151.235 16.8674 151.235 16.8674" fill="#FFB37B"/>
<path d="M151.383 15.9611C153.33 14.8894 157.582 20.1408 155.425 22.1252C153.267 24.1096 150.671 20.3551 152.472 18.7061C152.472 18.713 150.457 16.4797 151.383 15.9611Z" fill="#FFB37B"/>
<path d="M148.172 20.9253C149.012 21.3574 149.949 21.2122 150.246 20.6038C150.543 19.9953 150.128 19.1518 149.288 18.7196C148.448 18.2875 147.508 18.4327 147.214 19.0412C146.92 19.6496 147.345 20.4932 148.172 20.9253Z" fill="#FFB37B"/>
<path d="M147.895 21.9522C148.604 22.2979 149.395 22.1942 149.658 21.679C149.921 21.1639 149.558 20.4552 148.849 20.0922C148.141 19.7292 147.345 19.8502 147.086 20.3619C146.827 20.8735 147.186 21.5857 147.895 21.9522Z" fill="#FFB37B"/>
<path d="M154.599 25.1725L157.43 19.7655L155.017 18.4863L152.186 23.8933L154.599 25.1725Z" fill="white"/>
<path d="M221.485 26.3686L200.807 35.1982L197.125 36.7712L187.864 40.7262L187.805 40.8437L187.708 40.7988L187.611 40.8403L187.556 40.7193L153.572 25.0964L156.763 18.7871L187.988 30.78L218.525 19.9522L221.485 26.3686Z" fill="#252533"/>
<path d="M198.325 84.2051H194.117C193.847 84.205 193.587 84.3104 193.393 84.499C193.2 84.6876 193.087 84.9443 193.08 85.2146L193.163 88.9068C193.156 89.0476 193.177 89.1884 193.226 89.3207C193.274 89.453 193.349 89.574 193.447 89.6762C193.544 89.7784 193.661 89.8598 193.79 89.9154C193.92 89.9709 194.059 89.9995 194.2 89.9993H198.466C198.607 89.9995 198.747 89.9709 198.876 89.9154C199.006 89.8598 199.123 89.7784 199.22 89.6762C199.317 89.574 199.392 89.453 199.441 89.3207C199.49 89.1884 199.511 89.0476 199.503 88.9068L199.362 85.2146C199.355 84.9443 199.242 84.6876 199.048 84.499C198.855 84.3104 198.595 84.205 198.325 84.2051Z" fill="#323244"/>
<path d="M194.58 88.0977H203.12C203.321 88.0986 203.514 88.179 203.656 88.3214C203.799 88.4639 203.879 88.6568 203.88 88.8582V88.9931C203.879 89.1945 203.799 89.3874 203.656 89.5299C203.514 89.6723 203.321 89.7527 203.12 89.7536H194.58C194.379 89.7527 194.187 89.6722 194.045 89.5296C193.903 89.3871 193.823 89.1942 193.823 88.9931V88.8479C193.826 88.6485 193.907 88.4583 194.048 88.318C194.19 88.1777 194.381 88.0985 194.58 88.0977Z" fill="#323244"/>
<path d="M204.043 89.0112V88.7174C204.045 88.2257 203.949 87.7385 203.762 87.2838C203.576 86.829 203.301 86.4155 202.954 86.0668C202.607 85.7182 202.195 85.4413 201.742 85.2519C201.288 85.0624 200.801 84.9643 200.31 84.9629H199.421C198.93 84.9643 198.443 85.0624 197.989 85.2519C197.535 85.4413 197.124 85.7182 196.777 86.0668C196.43 86.4155 196.155 86.829 195.969 87.2838C195.782 87.7385 195.686 88.2257 195.688 88.7174V89.0112H204.043Z" fill="#323244"/>
<path d="M202.829 86.9888C202.829 87.9879 201.557 88.1193 199.991 88.1193C198.425 88.1193 197.156 87.9879 197.156 86.9888C197.156 85.9897 198.425 85.1738 199.991 85.1738C201.557 85.1738 202.829 85.9862 202.829 86.9888Z" fill="#323244"/>
<path d="M202.18 86.4461C201.975 86.2851 201.754 86.146 201.52 86.0312Z" fill="#323244"/>
<path d="M202.38 86.2464C202.155 86.0717 201.914 85.9178 201.661 85.7866C201.336 85.6241 201.049 86.1116 201.378 86.2775C201.59 86.38 201.792 86.5039 201.979 86.6474C202.034 86.6982 202.105 86.7265 202.18 86.7265C202.254 86.7265 202.326 86.6982 202.38 86.6474C202.433 86.5938 202.462 86.5219 202.462 86.4469C202.462 86.372 202.433 86.3 202.38 86.2464Z" fill="#323244"/>
<path d="M193.205 90.001H203.853C203.909 89.9983 203.962 89.9735 204 89.9321C204.038 89.8907 204.059 89.836 204.057 89.7797V89.147C204.059 89.0908 204.038 89.036 204 88.9946C203.962 88.9532 203.909 88.9285 203.853 88.9258H193.205C193.177 88.9271 193.15 88.9339 193.125 88.9457C193.1 88.9576 193.077 88.9743 193.059 88.9948C193.04 89.0154 193.026 89.0394 193.016 89.0655C193.007 89.0916 193.003 89.1193 193.004 89.147V89.7797C193.003 89.8074 193.007 89.8351 193.016 89.8612C193.026 89.8873 193.04 89.9114 193.059 89.9319C193.077 89.9525 193.1 89.9692 193.125 89.981C193.15 89.9928 193.177 89.9996 193.205 90.001Z" fill="#323244"/>
<path d="M177.392 84.2051H181.596C181.867 84.205 182.126 84.3104 182.32 84.499C182.514 84.6876 182.626 84.9443 182.633 85.2146L182.554 88.9068C182.561 89.0476 182.54 89.1884 182.491 89.3207C182.443 89.453 182.367 89.574 182.27 89.6762C182.173 89.7784 182.056 89.8598 181.927 89.9154C181.797 89.9709 181.658 89.9995 181.517 89.9993H177.251C177.11 89.9995 176.97 89.9709 176.84 89.9154C176.711 89.8598 176.594 89.7784 176.497 89.6762C176.4 89.574 176.325 89.453 176.276 89.3207C176.227 89.1884 176.206 89.0476 176.213 88.9068L176.359 85.2146C176.366 84.9449 176.478 84.6887 176.671 84.5002C176.864 84.3117 177.123 84.2059 177.392 84.2051Z" fill="#323244"/>
<path d="M181.136 88.0977H172.593C172.175 88.0977 171.836 88.4366 171.836 88.8548V88.9965C171.836 89.4147 172.175 89.7536 172.593 89.7536H181.136C181.554 89.7536 181.893 89.4147 181.893 88.9965V88.8548C181.893 88.4366 181.554 88.0977 181.136 88.0977Z" fill="#323244"/>
<path d="M171.66 89.0112V88.7174C171.659 88.2257 171.754 87.7385 171.941 87.2838C172.128 86.829 172.403 86.4155 172.749 86.0668C173.096 85.7182 173.508 85.4413 173.962 85.2519C174.416 85.0624 174.902 84.9643 175.394 84.9629H176.282C176.774 84.9643 177.261 85.0624 177.714 85.2519C178.168 85.4413 178.58 85.7182 178.927 86.0668C179.274 86.4155 179.548 86.829 179.735 87.2838C179.922 87.7385 180.017 88.2257 180.016 88.7174V89.0112H171.66Z" fill="#323244"/>
<path d="M172.887 86.9888C172.887 87.9879 174.155 88.1193 175.722 88.1193C177.288 88.1193 178.56 87.9879 178.56 86.9888C178.56 85.9897 177.288 85.1738 175.722 85.1738C174.155 85.1738 172.887 85.9863 172.887 86.9888Z" fill="#323244"/>
<path d="M173.537 86.446C173.742 86.285 173.963 86.146 174.197 86.0312Z" fill="#323244"/>
<path d="M173.738 86.6474C173.925 86.5039 174.127 86.38 174.339 86.2775C174.664 86.1116 174.381 85.6241 174.056 85.7866C173.802 85.9165 173.561 86.0705 173.337 86.2464C173.284 86.3 173.255 86.372 173.255 86.4469C173.255 86.5219 173.284 86.5938 173.337 86.6474C173.391 86.699 173.462 86.7278 173.537 86.7278C173.612 86.7278 173.684 86.699 173.738 86.6474Z" fill="#323244"/>
<path d="M182.512 90.001H171.864C171.808 89.9983 171.755 89.9735 171.717 89.9321C171.679 89.8907 171.658 89.836 171.66 89.7797V89.147C171.658 89.0908 171.679 89.036 171.717 88.9946C171.755 88.9532 171.808 88.9285 171.864 88.9258H182.512C182.54 88.9271 182.567 88.9339 182.592 88.9457C182.617 88.9576 182.64 88.9743 182.658 88.9948C182.677 89.0154 182.691 89.0394 182.701 89.0655C182.71 89.0916 182.714 89.1193 182.713 89.147V89.7797C182.714 89.8074 182.71 89.8351 182.701 89.8612C182.691 89.8873 182.677 89.9114 182.658 89.9319C182.64 89.9525 182.617 89.9692 182.592 89.981C182.567 89.9928 182.54 89.9996 182.512 90.001Z" fill="#323244"/>
<path d="M198.325 84.2051H194.117C193.847 84.205 193.587 84.3104 193.393 84.499C193.2 84.6876 193.087 84.9443 193.08 85.2146L193.163 88.9068C193.156 89.0476 193.177 89.1884 193.226 89.3207C193.274 89.453 193.349 89.574 193.447 89.6762C193.544 89.7784 193.661 89.8598 193.79 89.9154C193.92 89.9709 194.059 89.9995 194.2 89.9993H198.466C198.607 89.9995 198.747 89.9709 198.876 89.9154C199.006 89.8598 199.123 89.7784 199.22 89.6762C199.317 89.574 199.392 89.453 199.441 89.3207C199.49 89.1884 199.511 89.0476 199.503 88.9068L199.362 85.2146C199.355 84.9443 199.242 84.6876 199.048 84.499C198.855 84.3104 198.595 84.205 198.325 84.2051Z" fill="#491C15"/>
<path d="M194.58 88.0977H203.12C203.321 88.0986 203.514 88.179 203.656 88.3214C203.799 88.4639 203.879 88.6568 203.88 88.8582V88.9931C203.879 89.1945 203.799 89.3874 203.656 89.5299C203.514 89.6723 203.321 89.7527 203.12 89.7536H194.58C194.379 89.7527 194.187 89.6722 194.045 89.5296C193.903 89.3871 193.823 89.1942 193.823 88.9931V88.8479C193.826 88.6485 193.907 88.4583 194.048 88.318C194.19 88.1777 194.381 88.0985 194.58 88.0977Z" fill="#6B2A18"/>
<path d="M204.043 89.0112V88.7174C204.045 88.2257 203.949 87.7385 203.762 87.2838C203.576 86.829 203.301 86.4155 202.954 86.0668C202.607 85.7182 202.195 85.4413 201.742 85.2519C201.288 85.0624 200.801 84.9643 200.31 84.9629H199.421C198.93 84.9643 198.443 85.0624 197.989 85.2519C197.535 85.4413 197.124 85.7182 196.777 86.0668C196.43 86.4155 196.155 86.829 195.969 87.2838C195.782 87.7385 195.686 88.2257 195.688 88.7174V89.0112H204.043Z" fill="#6B2A18"/>
<path d="M202.829 86.9888C202.829 87.9879 201.557 88.1193 199.991 88.1193C198.425 88.1193 197.156 87.9879 197.156 86.9888C197.156 85.9897 198.425 85.1738 199.991 85.1738C201.557 85.1738 202.829 85.9862 202.829 86.9888Z" fill="#843621"/>
<path d="M202.18 86.4461C201.975 86.2851 201.754 86.146 201.52 86.0312Z" fill="#FCFBFB"/>
<path d="M202.38 86.2464C202.155 86.0717 201.914 85.9178 201.661 85.7866C201.336 85.6241 201.049 86.1116 201.378 86.2775C201.59 86.38 201.792 86.5039 201.979 86.6474C202.034 86.6982 202.105 86.7265 202.18 86.7265C202.254 86.7265 202.326 86.6982 202.38 86.6474C202.433 86.5938 202.462 86.5219 202.462 86.4469C202.462 86.372 202.433 86.3 202.38 86.2464Z" fill="#FCFBFB"/>
<path d="M193.205 90.001H203.853C203.909 89.9983 203.962 89.9735 204 89.9321C204.038 89.8907 204.059 89.836 204.057 89.7797V89.147C204.059 89.0908 204.038 89.036 204 88.9946C203.962 88.9532 203.909 88.9285 203.853 88.9258H193.205C193.177 88.9271 193.15 88.9339 193.125 88.9457C193.1 88.9576 193.077 88.9743 193.059 88.9948C193.04 89.0154 193.026 89.0394 193.016 89.0655C193.007 89.0916 193.003 89.1193 193.004 89.147V89.7797C193.003 89.8074 193.007 89.8351 193.016 89.8612C193.026 89.8873 193.04 89.9114 193.059 89.9319C193.077 89.9525 193.1 89.9692 193.125 89.981C193.15 89.9928 193.177 89.9996 193.205 90.001Z" fill="#4D1C14"/>
<path d="M177.392 84.2051H181.596C181.867 84.205 182.126 84.3104 182.32 84.499C182.514 84.6876 182.626 84.9443 182.633 85.2146L182.554 88.9068C182.561 89.0476 182.54 89.1884 182.491 89.3207C182.443 89.453 182.367 89.574 182.27 89.6762C182.173 89.7784 182.056 89.8598 181.927 89.9154C181.797 89.9709 181.658 89.9995 181.517 89.9993H177.251C177.11 89.9995 176.97 89.9709 176.84 89.9154C176.711 89.8598 176.594 89.7784 176.497 89.6762C176.4 89.574 176.325 89.453 176.276 89.3207C176.227 89.1884 176.206 89.0476 176.213 88.9068L176.359 85.2146C176.366 84.9449 176.478 84.6887 176.671 84.5002C176.864 84.3117 177.123 84.2059 177.392 84.2051Z" fill="#491C15"/>
<path d="M181.136 88.0977H172.593C172.175 88.0977 171.836 88.4366 171.836 88.8548V88.9965C171.836 89.4147 172.175 89.7536 172.593 89.7536H181.136C181.554 89.7536 181.893 89.4147 181.893 88.9965V88.8548C181.893 88.4366 181.554 88.0977 181.136 88.0977Z" fill="#6B2A18"/>
<path d="M171.66 89.0112V88.7174C171.659 88.2257 171.754 87.7385 171.941 87.2838C172.128 86.829 172.403 86.4155 172.749 86.0668C173.096 85.7182 173.508 85.4413 173.962 85.2519C174.416 85.0624 174.902 84.9643 175.394 84.9629H176.282C176.774 84.9643 177.261 85.0624 177.714 85.2519C178.168 85.4413 178.58 85.7182 178.927 86.0668C179.274 86.4155 179.548 86.829 179.735 87.2838C179.922 87.7385 180.017 88.2257 180.016 88.7174V89.0112H171.66Z" fill="#6B2A18"/>
<path d="M172.887 86.9888C172.887 87.9879 174.155 88.1193 175.722 88.1193C177.288 88.1193 178.56 87.9879 178.56 86.9888C178.56 85.9897 177.288 85.1738 175.722 85.1738C174.155 85.1738 172.887 85.9863 172.887 86.9888Z" fill="#843621"/>
<path d="M173.537 86.446C173.742 86.285 173.963 86.146 174.197 86.0312Z" fill="#FCFBFB"/>
<path d="M173.738 86.6474C173.925 86.5039 174.127 86.38 174.339 86.2775C174.664 86.1116 174.381 85.6241 174.056 85.7866C173.802 85.9165 173.561 86.0705 173.337 86.2464C173.284 86.3 173.255 86.372 173.255 86.4469C173.255 86.5219 173.284 86.5938 173.337 86.6474C173.391 86.699 173.462 86.7278 173.537 86.7278C173.612 86.7278 173.684 86.699 173.738 86.6474Z" fill="#FCFBFB"/>
<path d="M182.512 90.001H171.864C171.808 89.9983 171.755 89.9735 171.717 89.9321C171.679 89.8907 171.658 89.836 171.66 89.7797V89.147C171.658 89.0908 171.679 89.036 171.717 88.9946C171.755 88.9532 171.808 88.9285 171.864 88.9258H182.512C182.54 88.9271 182.567 88.9339 182.592 88.9457C182.617 88.9576 182.64 88.9743 182.658 88.9948C182.677 89.0154 182.691 89.0394 182.701 89.0655C182.71 89.0916 182.714 89.1193 182.713 89.147V89.7797C182.714 89.8074 182.71 89.8351 182.701 89.8612C182.691 89.8873 182.677 89.9114 182.658 89.9319C182.64 89.9525 182.617 89.9692 182.592 89.981C182.567 89.9928 182.54 89.9996 182.512 90.001Z" fill="#4D1C14"/>
<path d="M187.808 33.5447C192.074 33.5447 195.532 32.0062 195.532 30.1083C195.532 28.2105 192.074 26.6719 187.808 26.6719C183.543 26.6719 180.085 28.2105 180.085 30.1083C180.085 32.0062 183.543 33.5447 187.808 33.5447Z" fill="#323244"/>
<path d="M183.3 84.3275L186.177 51.4638H189.399L192.344 84.3275L193.181 84.6386C194.237 85.0303 195.364 85.196 196.488 85.1252C197.612 85.0543 198.709 84.7484 199.708 84.2272H199.739L195.556 44.6602H180.03L175.975 84.2134H176.009C178.182 85.1709 180.638 85.2612 182.875 84.4658L183.3 84.3275Z" fill="#252533"/>
<path d="M180.034 45.5488H195.56L197.195 60.1311L190.488 64.0238L190.256 61.5451H185.302L185.098 63.9962L178.45 60.0689L180.034 45.5488Z" fill="#131516"/>
<path d="M188.14 26.0527C177.575 26.0527 178.547 32.8426 178.547 32.8426L177.689 57.9277L177.79 57.9553C184.296 59.8084 191.19 59.8084 197.696 57.9553L197.8 57.9277L196.939 32.8702C196.939 32.8702 198.094 26.0527 188.14 26.0527Z" fill="#252533"/>
<path d="M187.569 40.3994V58.9124C187.576 58.965 187.602 59.0134 187.641 59.0485C187.681 59.0835 187.732 59.1029 187.785 59.1029C187.838 59.1029 187.89 59.0835 187.929 59.0485C187.969 59.0134 187.995 58.965 188.001 58.9124V40.3994C187.995 40.3468 187.969 40.2984 187.929 40.2634C187.89 40.2283 187.838 40.209 187.785 40.209C187.732 40.209 187.681 40.2283 187.641 40.2634C187.602 40.2984 187.576 40.3468 187.569 40.3994Z" fill="#131516"/>
<path d="M183.096 27.377L187.787 41.1122L192.52 27.377H183.096Z" fill="white"/>
<path d="M192.497 28.8939L192.448 28.8697C190.992 28.1687 189.397 27.8047 187.781 27.8047C186.165 27.8047 184.57 28.1687 183.114 28.8697L183.065 28.8905L184.358 32.6449L187.781 30.1143L191.2 32.6449L192.497 28.8939Z" fill="#AFA2A0"/>
<path d="M188.752 38.3055L187.784 41.1161L186.823 38.302L187.805 27.3809L188.752 38.3055Z" fill="#EF2525"/>
<path d="M187.794 31.2863C188.028 31.2868 188.255 31.2116 188.442 31.072C188.629 30.9323 188.766 30.7358 188.831 30.5119L189.364 28.6934C189.412 28.5324 189.422 28.3623 189.392 28.1968C189.362 28.0313 189.295 27.8751 189.194 27.7406C189.093 27.6061 188.962 27.4972 188.811 27.4225C188.661 27.3478 188.495 27.3095 188.327 27.3106H187.241C187.073 27.3102 186.908 27.349 186.757 27.4239C186.607 27.4988 186.477 27.6077 186.376 27.742C186.275 27.8763 186.207 28.0322 186.177 28.1974C186.148 28.3625 186.157 28.5324 186.204 28.6934L186.757 30.5119C186.822 30.7361 186.959 30.9329 187.146 31.0726C187.333 31.2124 187.561 31.2874 187.794 31.2863Z" fill="#EF2525"/>
<path d="M192.521 27.3763L192.469 27.3521C191.013 26.6511 189.417 26.2871 187.801 26.2871C186.186 26.2871 184.59 26.6511 183.134 27.3521L183.086 27.3729L184.382 31.1273L187.795 28.8802L191.217 31.1308L192.521 27.3763Z" fill="white"/>
<path d="M187.697 41.1156L192.434 27.5566L195.846 27.9542L193.778 31.7916L192.434 32.3171L193.001 34.1287L187.697 41.1156Z" fill="#131516"/>
<path d="M187.698 41.1156L182.961 27.5566L179.771 27.8367L181.617 31.7916L182.961 32.3171L182.394 34.1287L187.698 41.1156Z" fill="#131516"/>
<path d="M187.784 41.1156L192.52 26.5195L195.919 28.0096L193.865 30.7545L192.52 31.28L193.084 33.0916L187.784 41.1156Z" fill="#323244"/>
<path d="M187.784 41.1156L183.047 26.5195L179.646 27.8125L181.703 30.7545L183.047 31.28L182.48 33.0916L187.784 41.1156Z" fill="#323244"/>
<path d="M177.336 20.8112C177.336 20.8112 169.966 8.41035 177.336 5.03963C179.086 -1.63959 188.168 0.0475019 190.387 0.690532C192.607 1.33356 193.924 0.161588 193.924 0.161588C194.667 0.832275 194.74 2.23588 194.74 2.23588L196.468 -0.0078125C198.743 1.41653 200.008 5.08111 196.814 10.3049L177.336 20.8112Z" fill="#591E00"/>
<path d="M187.961 20.9199H187.432C186.261 20.9199 185.312 21.8687 185.312 23.0392V26.6346C185.312 27.805 186.261 28.7538 187.432 28.7538H187.961C189.131 28.7538 190.08 27.805 190.08 26.6346V23.0392C190.08 21.8687 189.131 20.9199 187.961 20.9199Z" fill="#FF9E5C"/>
<path d="M189.212 4.55396L183.186 5.04142C179.276 5.35948 176.386 8.93072 176.708 13.0205L176.85 14.7837C176.85 14.801 176.85 14.8182 176.818 14.8148C176.694 14.8061 176.569 14.8061 176.445 14.8148H176.386C176.009 14.8518 175.643 14.9634 175.31 15.1429C174.976 15.3224 174.681 15.5664 174.443 15.8606C174.204 16.1548 174.026 16.4935 173.92 16.857C173.813 17.2205 173.779 17.6015 173.821 17.9781V18.0368C173.865 18.7937 174.207 19.5022 174.773 20.0066C175.339 20.511 176.082 20.7699 176.839 20.7265H176.912C177.04 20.7148 177.167 20.694 177.292 20.6643C177.292 20.6643 177.323 20.6643 177.327 20.6919C177.793 24.6158 181.129 27.5129 184.932 27.2052L190.986 26.7143C194.913 26.3755 197.821 22.8181 197.475 18.7145L196.884 11.3853C196.559 7.29548 193.122 4.23591 189.212 4.55396Z" fill="#FFB37B"/>
<path d="M179.359 16.94C179.075 13.4552 177.993 9.12688 180.873 6.50982C182.332 5.18227 184.047 5.0509 185.872 4.90224C187.359 4.78124 188.845 4.63604 190.332 4.55653C191.936 4.45627 191.739 1.89452 190.121 1.97058C188.503 2.04664 186.871 2.23332 185.243 2.36815C182.923 2.55484 180.818 3.05958 179.051 4.7605C177.077 6.65502 176.258 9.35159 176.482 12.1L176.887 17.1475C177.022 18.8138 179.494 18.6133 179.359 16.947V16.94Z" fill="#591E00"/>
<path d="M185.89 15.6401C185.931 16.1553 185.665 16.5978 185.292 16.6289C184.918 16.66 184.583 16.2659 184.541 15.7508C184.5 15.2357 184.769 14.7966 185.139 14.7655C185.509 14.7344 185.848 15.1285 185.89 15.6401Z" fill="#131516"/>
<path d="M193.468 15.0282C193.509 15.5433 193.243 15.9824 192.87 16.0135C192.496 16.0446 192.161 15.6678 192.119 15.1389C192.078 14.6099 192.348 14.1812 192.718 14.1501C193.087 14.119 193.426 14.52 193.468 15.0282Z" fill="#131516"/>
<path d="M194.419 11.914C193.433 10.8146 191.895 10.8768 191.1 12.1491C190.92 12.436 191.376 12.7022 191.556 12.4153C192.175 11.4196 193.285 11.4438 194.049 12.2873C194.273 12.5397 194.647 12.1663 194.419 11.914Z" fill="#774320"/>
<path d="M183.992 13.0821C184.6 12.1211 185.699 11.9655 186.474 12.8471C186.699 13.0994 187.072 12.7261 186.847 12.4737C185.845 11.3363 184.32 11.5817 183.535 12.8194C183.356 13.1063 183.812 13.3691 183.992 13.0856V13.0821Z" fill="#774320"/>
<path d="M196.167 2.44731C196.167 2.44731 196.596 6.36081 188.786 6.99347C180.977 7.62613 178.069 7.43944 178.66 14.5992C178.66 14.5992 176.261 4.22775 182.999 2.69277C189.737 1.1578 192.454 4.28997 196.167 2.44731Z" fill="#591E00"/>
<path d="M185.935 19.8786C186.009 20.7992 186.446 21.6525 187.149 22.2509C187.498 22.5473 187.901 22.7721 188.336 22.9125C188.771 23.053 189.23 23.1063 189.686 23.0696C190.141 23.0328 190.586 22.9066 190.993 22.6982C191.4 22.4898 191.762 22.2032 192.058 21.8549C192.354 21.5066 192.579 21.1034 192.719 20.6682C192.86 20.233 192.913 19.7744 192.877 19.3186L185.935 19.8786Z" fill="white"/>
<path d="M200.807 35.1981L197.125 36.7711L197.056 36.7677L196.938 34.002L200.807 35.1981Z" fill="#131516"/>
<path d="M174.871 34.8524L178.411 36.5499L178.48 36.5464L178.74 33.6562L174.871 34.8524Z" fill="#131516"/>
</g>
<g clip-path="url(#clip3_18_2)">
<path d="M133.86 201.123H129.572C129.297 201.123 129.032 201.229 128.833 201.42C128.635 201.611 128.518 201.871 128.507 202.146L128.591 205.892C128.587 206.035 128.611 206.177 128.662 206.31C128.714 206.443 128.792 206.565 128.891 206.668C128.99 206.77 129.109 206.852 129.241 206.908C129.372 206.963 129.514 206.992 129.657 206.992H134.006C134.15 206.991 134.292 206.962 134.423 206.906C134.555 206.849 134.674 206.767 134.774 206.664C134.873 206.56 134.951 206.438 135.002 206.304C135.053 206.17 135.077 206.027 135.072 205.884L134.922 202.146C134.911 201.872 134.794 201.612 134.596 201.421C134.399 201.231 134.135 201.124 133.86 201.123Z" fill="#491C15"/>
<path d="M160.496 155.923C160.496 155.923 164.235 151.974 165.477 151.874C166.607 151.785 168.169 153.05 168.692 153.946C168.888 154.293 168.842 154.716 168.48 154.681C168.027 154.65 167.4 153.866 166.384 153.739C165.981 153.689 165.615 154.123 165.527 154.508C165.169 156.204 164.188 159.857 162.496 159.381C161.096 158.996 158.65 158.027 158.65 158.027L160.496 155.923Z" fill="#FFB37B"/>
<path d="M160.458 156.088C160.458 156.088 164.762 154.808 166.335 153.992C167.908 153.177 167.785 155.75 165.404 156.3C165.404 156.3 164.458 159.349 162.389 159.446C160.32 159.542 158.12 156.804 158.12 156.804L160.458 156.088Z" fill="#FFB37B"/>
<path d="M158.123 159.477L158.838 159.861C162.196 158.869 160.984 155.577 160.984 155.577L159.95 155L158.123 159.477Z" fill="white"/>
<path d="M159.415 159.14C159.338 159.217 159.258 159.29 159.173 159.359C158.683 159.759 158.114 160.051 157.504 160.216L157.454 160.19L142.859 152.694L142.009 153.294L141.513 153.644L138.436 150.421L136.871 149.617L138.325 143.537L160.108 155.036C160.108 155.036 161.019 157.497 159.415 159.14Z" fill="#252533"/>
<path d="M127.199 199.847C127.151 200.153 127.151 200.465 127.199 200.77L127.857 204.885C127.879 205.118 127.843 205.352 127.753 205.567C127.663 205.782 127.522 205.972 127.341 206.12C126.963 206.397 126.542 206.61 126.095 206.751C125.621 206.891 125.113 206.869 124.652 206.688C124.191 206.508 123.803 206.179 123.549 205.755L123.469 205.62L122.407 203.655C121.906 202.739 121.769 201.668 122.023 200.655V200.624C122.278 199.609 122.141 198.535 121.638 197.617C120.992 196.413 119.673 194.198 120.811 193.063C122.996 190.887 125.272 191.087 126.257 193.832C126.595 194.775 127.58 195.117 127.757 196.105L127.199 199.847Z" fill="#4D1C14"/>
<path d="M127.803 195.382V195.405L127.034 196.624C127.007 196.778 127.034 197.59 127.034 198.366C127.034 198.624 127.034 198.874 127.064 199.097C127.084 199.482 127.099 199.805 127.11 199.893L127.633 203.866C127.657 204.516 128.018 205.085 127.783 205.531L127.73 205.627C127.547 205.971 127.264 206.252 126.918 206.431C126.773 206.502 126.617 206.546 126.457 206.562C125.503 206.654 124.434 205.523 123.938 204.704C123.911 204.662 123.887 204.618 123.865 204.574L122.895 202.678C122.437 201.783 122.335 200.748 122.611 199.782V199.751C122.677 199.512 122.722 199.267 122.745 199.02C122.812 198.272 122.667 197.52 122.326 196.851C122.326 196.824 122.299 196.801 122.288 196.778C122.003 196.246 121.746 195.699 121.519 195.14C121.272 194.58 121.167 193.969 121.211 193.359C121.251 193.016 121.407 192.697 121.653 192.455C121.95 192.17 122.271 191.913 122.615 191.686C122.676 191.644 122.734 191.605 122.795 191.571C122.947 191.477 123.105 191.394 123.268 191.321C124.838 190.613 126.234 191.213 126.891 193.198C127.07 193.629 127.344 194.016 127.691 194.328C127.976 194.621 127.733 194.932 127.803 195.382Z" fill="#6B2A18"/>
<path d="M127.615 205.535C127.452 205.611 127.282 205.672 127.107 205.716C125.43 206.15 124.238 202.789 124.184 201.101C124.13 199.413 125.384 199.005 127.384 199.093C127.384 199.478 127.422 199.801 127.434 199.889L127.953 203.862C127.988 204.44 127.871 205.016 127.615 205.535Z" fill="#843621"/>
<path d="M127.526 198.371C126.419 198.163 122.827 196.832 122.808 191.564V191.521L123.192 191.264L123.277 191.314C125.369 192.59 125.804 194.21 127.376 194.006C127.761 194.429 128.184 194.775 128.284 195.406L127.515 196.648C127.484 196.782 127.5 197.594 127.526 198.371Z" fill="#491C15"/>
<path d="M128.291 195.381V195.405L127.522 196.624C127.495 196.777 127.522 197.589 127.522 198.366C127.522 198.623 127.522 198.873 127.553 199.097C127.553 199.481 127.588 199.804 127.599 199.893L128.118 203.865C128.151 204.44 128.036 205.013 127.784 205.531L127.73 205.627C127.547 205.971 127.264 206.251 126.918 206.431C126.936 206.406 126.956 206.383 126.976 206.361C128.13 205.088 126.68 201.189 126.165 199.943C125.649 198.697 125.842 197.424 125.949 195.878C125.949 195.878 126.438 195.147 126.68 194.685C126.822 194.416 127.241 194.335 127.699 194.301C128.005 194.59 128.212 194.968 128.291 195.381Z" fill="#491C15"/>
<path d="M133.275 152.312C137.36 152.312 140.671 150.838 140.671 149.02C140.671 147.202 137.36 145.728 133.275 145.728C129.191 145.728 125.88 147.202 125.88 149.02C125.88 150.838 129.191 152.312 133.275 152.312Z" fill="#323244"/>
<path d="M133.93 171.092H133.222L133.253 171.627H133.964L133.93 171.092ZM141.675 164.389L124.977 167.85L126.846 188.94L122.615 191.609L122.634 191.813C123.276 193.467 124.311 194.938 125.65 196.101C126.213 196.577 126.839 196.973 127.511 197.278L127.634 197.332L127.949 200.843L128.169 200.974C129.209 201.577 130.403 201.861 131.603 201.793C132.803 201.725 133.957 201.306 134.922 200.589L134.953 200.566L134.48 192.875L140.006 188.802C140.553 188.399 140.992 187.869 141.285 187.256C141.578 186.644 141.716 185.969 141.687 185.291L141.675 164.389Z" fill="#252533"/>
<path d="M125.842 177.488L127.319 177.688C129.41 177.967 131.519 178.096 133.63 178.072L133.587 177.38H134.014L134.056 178.076C135.775 178.036 137.49 177.908 139.195 177.691L141.671 177.353V164.389L124.973 167.85L125.842 177.488ZM133.918 171.092L133.953 171.623H133.253L133.222 171.088L133.918 171.092Z" fill="#191923"/>
<path d="M142.024 151.667V175.668L139.194 176.053C135.253 176.588 131.259 176.588 127.318 176.053L124.407 175.668V151.644C124.407 151.644 123.157 145.49 133.252 145.49C143.347 145.49 142.024 151.667 142.024 151.667Z" fill="#252533"/>
<path d="M127.661 167.953C127.557 169.283 126.73 172.975 124.407 174.491V167.953C124.757 167.841 125.127 167.805 125.492 167.849C125.98 168.064 126.899 167.464 127.03 167.687C127.161 167.91 127.661 167.953 127.661 167.953Z" fill="#191923"/>
<path d="M124.976 167.85C125.595 167.963 126.204 168.129 126.795 168.347C127.787 168.731 128.553 167.454 126.826 166.858C126.362 166.687 125.886 166.549 125.403 166.447C126.049 166.081 127.006 165.447 126.868 164.993C126.522 163.839 125.214 164.535 124.299 165.474C123.705 166.18 123.254 166.995 122.972 167.874C122.907 168.016 122.845 168.166 122.784 168.331C121.872 170.716 125.299 172.065 126.122 171.492C127.406 170.596 124.268 169.596 124.268 169.596C124.268 169.596 126.576 170.939 127.195 169.95C127.691 169.173 125.734 168.193 124.976 167.85Z" fill="#FFB37B"/>
<path d="M122.721 164.063L120.609 167.809L122.475 168.86L124.587 165.115L122.721 164.063Z" fill="white"/>
<path d="M134.756 145.668L134.095 150.979C132.886 150.84 131.665 150.84 130.457 150.979C129.799 151.052 129.134 151.155 128.472 151.286C126.82 151.618 125.195 152.074 123.611 152.652C122.142 153.198 118.692 155.024 118.385 157.463C117.862 161.647 123.861 164.101 123.923 164.135L121.461 168.889C121.077 168.689 112.085 164.762 113.077 156.801C113.716 151.659 118.769 148.21 124.484 146.583C125.912 146.176 127.371 145.883 128.845 145.706C130.807 145.455 132.792 145.442 134.756 145.668Z" fill="#252533"/>
<path d="M133.018 158.369C133.148 164.523 133.277 170.676 133.402 176.829C133.402 176.883 133.424 176.935 133.462 176.974C133.5 177.012 133.552 177.033 133.606 177.033C133.66 177.033 133.712 177.012 133.75 176.974C133.788 176.935 133.81 176.883 133.81 176.829C133.679 170.676 133.551 164.523 133.425 158.369C133.425 158.108 133.01 158.104 133.018 158.369Z" fill="#191923"/>
<path d="M128.765 146.404L133.257 159.561L137.791 146.404H128.765Z" fill="white"/>
<path d="M137.771 147.859C136.364 147.173 134.82 146.816 133.254 146.816C131.689 146.816 130.144 147.173 128.737 147.859L129.976 151.455L133.252 149.028L136.529 151.455L137.771 147.859Z" fill="#AFA2A0"/>
<path d="M134.183 156.87L133.252 159.562L132.333 156.87L132.806 149.317L133.671 149.209L134.183 156.87Z" fill="#E23A29"/>
<path d="M134.321 148.586L134.179 148.948L133.96 149.525C133.752 150.052 132.76 150.056 132.556 149.525L132.333 148.948L132.195 148.586C132.056 148.229 132.406 147.871 132.891 147.871H133.625C134.11 147.871 134.456 148.229 134.321 148.586Z" fill="#E23A29"/>
<path d="M134.321 148.586L134.179 148.948C133.887 148.686 133.471 148.333 133.237 148.179L132.333 148.948L132.195 148.586C132.056 148.229 132.406 147.871 132.891 147.871H133.625C134.11 147.871 134.456 148.229 134.321 148.586Z" fill="#BF2E26"/>
<path d="M137.79 146.406C138.44 144.44 134.833 144.017 133.348 144.01C131.756 144.01 127.984 144.394 128.76 146.406L129.999 150.002L133.275 147.844L136.552 150.002L137.79 146.406Z" fill="white"/>
<path d="M133.222 160.05L137.76 146.07L141.013 147.497L139.044 150.124L137.76 150.628L138.298 152.362L133.222 160.05Z" fill="#191923"/>
<path d="M128.472 151.3L128.684 150.627L127.396 150.124L124.484 146.582C125.715 146.212 126.976 145.954 128.253 145.812L130.149 151.12L133.226 160.065L128.142 152.381L128.472 151.3Z" fill="#191923"/>
<path d="M133.253 159.563L138.056 144.856L139.479 144.033L141.66 145.441L139.079 149.64L137.791 150.14L138.333 151.879L133.253 159.563Z" fill="#404054"/>
<path d="M133.253 159.563L128.472 145.148L125.215 146.387L127.43 149.64L128.718 150.14L128.176 151.879L133.253 159.563Z" fill="#404054"/>
<path d="M143.283 126.145C142.92 126.701 142.484 127.206 141.987 127.645L138.856 129.33L128.111 135.098L122.815 137.944C122.815 137.944 115.397 125.461 122.827 122.073C124.577 115.35 133.714 117.046 135.949 117.677C138.183 118.308 139.506 117.165 139.506 117.165C140.252 117.838 140.329 119.257 140.329 119.257L142.052 117C144.044 118.246 145.579 122.634 143.283 126.145Z" fill="#823D1A"/>
<path d="M128.111 135.098L122.815 137.944C122.815 137.944 118.181 130.149 119.923 125.203C120.327 124.009 121.157 123.006 122.253 122.384C122.438 122.274 122.63 122.175 122.827 122.088C123.197 122.574 123.616 123.021 124.076 123.423C123.876 123.652 123.689 123.892 123.515 124.142C122.976 124.915 122.568 125.771 122.307 126.676C121.968 127.868 121.849 129.111 121.954 130.345C122.092 132.035 122.229 133.722 122.365 135.406C122.5 137.083 124.984 136.883 124.849 135.206C124.573 131.772 123.523 127.514 126.199 124.88C127.314 125.47 128.566 125.752 129.826 125.699C132.572 125.526 130.61 131.718 128.111 135.098Z" fill="#72311D"/>
<path d="M143.282 126.145C142.92 126.701 142.484 127.205 141.986 127.645L138.856 129.329C138.248 128.328 137.796 127.24 137.518 126.102L138.168 125.614C138.441 124.718 138.225 124.46 139.279 123.96C140.333 123.46 141.586 122.391 141.798 121.064C142.427 121.735 142.888 122.545 143.146 123.428C143.404 124.31 143.451 125.241 143.282 126.145Z" fill="#72311D"/>
<path d="M133.51 139.188H132.971C131.795 139.188 130.841 140.141 130.841 141.318V144.941C130.841 146.118 131.795 147.071 132.971 147.071H133.51C134.687 147.071 135.64 146.118 135.64 144.941V141.318C135.64 140.141 134.687 139.188 133.51 139.188Z" fill="#FF954D"/>
<g style="mix-blend-mode:multiply">
<path d="M125.546 146.337C126.577 146.721 129.284 147.748 129.284 147.748C129.284 147.748 130.911 147.152 131.342 146.979C131.772 146.806 134.537 147.421 135.46 146.39L137.464 146.663L140.691 144.929L138.576 143.391L127.28 145.579L125.546 146.337Z" fill="#D3CCC5"/>
</g>
<path d="M141.902 141.752C141.324 142.669 140.542 143.439 139.616 144.002C138.691 144.565 137.647 144.906 136.568 144.998L130.476 145.49C126.653 145.802 123.28 142.887 122.811 138.953C122.811 138.948 122.81 138.944 122.809 138.94C122.807 138.936 122.804 138.933 122.801 138.93C122.797 138.928 122.793 138.926 122.789 138.925C122.785 138.924 122.781 138.924 122.776 138.926C122.65 138.954 122.521 138.975 122.392 138.987H122.319C120.78 139.11 120.061 137.899 119.93 136.295L119.923 136.23C119.792 134.607 120.307 133.192 121.846 133.068H121.915C122.043 133.06 122.171 133.06 122.3 133.068C122.309 133.068 122.317 133.065 122.324 133.058C122.33 133.052 122.334 133.043 122.334 133.034L122.18 131.23C122.096 130.213 122.214 129.19 122.526 128.219C122.946 126.868 123.757 125.672 124.856 124.782C125.955 123.892 127.294 123.348 128.703 123.219L134.764 122.727C138.698 122.385 142.159 125.481 142.49 129.596L143.09 136.968C143.231 138.65 142.814 140.332 141.902 141.752Z" fill="#FFB37B"/>
<path d="M130.476 145.49C126.653 145.802 123.28 142.887 122.811 138.952C122.811 138.948 122.81 138.944 122.809 138.94C122.807 138.936 122.804 138.933 122.801 138.93C122.797 138.927 122.793 138.926 122.789 138.925C122.785 138.924 122.781 138.924 122.776 138.926C122.65 138.954 122.521 138.975 122.392 138.987H122.319C120.78 139.11 120.061 137.899 119.93 136.295L119.923 136.23C119.792 134.607 120.307 133.191 121.846 133.068H121.915C122.043 133.06 122.171 133.06 122.3 133.068C122.309 133.068 122.317 133.065 122.324 133.058C122.33 133.052 122.334 133.043 122.334 133.034L122.18 131.23C122.096 130.213 122.214 129.19 122.526 128.219C123.082 129.385 123.566 130.583 123.976 131.807C125.13 139.479 126.772 144.852 131.641 145.387L130.476 145.49Z" fill="#FF954D"/>
<path d="M135.891 122.715C134.395 122.807 132.902 122.957 131.406 123.099C129.568 123.246 127.841 123.38 126.372 124.715C126.314 124.769 126.253 124.826 126.199 124.884C125.434 124.487 124.721 123.997 124.076 123.426C124.222 123.257 124.376 123.099 124.542 122.942C126.318 121.223 128.437 120.719 130.772 120.53C132.41 120.4 134.041 120.211 135.683 120.146C137.325 120.081 137.51 122.615 135.891 122.715Z" fill="#823D1A"/>
<path d="M131.21 133.826C131.253 134.345 130.98 134.787 130.607 134.818C130.234 134.849 129.895 134.453 129.838 133.937C129.78 133.422 130.064 132.976 130.437 132.945C130.811 132.914 131.168 133.31 131.21 133.826Z" fill="#131516"/>
<path d="M138.836 133.21C138.879 133.726 138.606 134.172 138.233 134.203C137.86 134.233 137.521 133.837 137.464 133.318C137.406 132.799 137.69 132.357 138.063 132.326C138.436 132.295 138.794 132.691 138.836 133.21Z" fill="#131516"/>
<path d="M140.006 130.127C139.017 129.011 137.464 129.081 136.667 130.361C136.487 130.653 136.944 130.919 137.125 130.63C137.748 129.627 138.883 129.657 139.633 130.503C139.859 130.757 140.233 130.38 140.017 130.119L140.006 130.127Z" fill="#774320"/>
<path d="M129.507 131.303C130.118 130.33 131.237 130.184 132.003 131.064C132.23 131.322 132.603 130.945 132.387 130.68C131.383 129.526 129.841 129.776 129.057 131.022C128.872 131.311 129.33 131.576 129.514 131.291L129.507 131.303Z" fill="#774320"/>
<path d="M141.69 121.308C141.398 122.462 140.09 124.708 134.34 125.173C129.372 125.558 126.38 125.646 124.995 127.48C124.191 128.538 123.934 130.173 124.149 132.838C124.153 132.826 121.73 122.385 128.514 120.846C135.298 119.308 138.029 122.462 141.763 120.612C141.775 120.846 141.751 121.081 141.69 121.308Z" fill="#823D1A"/>
<path d="M131.157 139.856C133.384 141.74 136.272 141.229 138.183 139.167C138.541 138.783 137.968 138.21 137.61 138.594C136.018 140.298 133.622 140.875 131.73 139.283C131.345 138.948 130.753 139.521 131.157 139.856Z" fill="#ED804A"/>
<path d="M134.464 192.891L127.614 197.333L127.926 200.84C128.94 201.497 130.129 201.833 131.337 201.805C131.337 201.805 130.145 196.198 133.856 194.594L134.379 200.944L134.933 200.559L134.464 192.891Z" fill="#191923"/>
<path d="M126.826 188.937L126.757 187.695L133.864 182.549L133.906 183.799L126.826 188.937Z" fill="#191923"/>
<path d="M137.776 205.07H130.042C129.615 205.07 129.269 205.416 129.269 205.843V205.978C129.269 206.405 129.615 206.751 130.042 206.751H137.776C138.202 206.751 138.549 206.405 138.549 205.978V205.843C138.549 205.416 138.202 205.07 137.776 205.07Z" fill="#6B2A18"/>
<path d="M138.567 205.996V205.7C138.567 204.69 138.166 203.722 137.452 203.008C136.738 202.294 135.77 201.893 134.76 201.893H133.852C133.353 201.893 132.858 201.991 132.396 202.183C131.934 202.374 131.515 202.655 131.161 203.008C130.808 203.362 130.528 203.781 130.337 204.243C130.146 204.705 130.048 205.2 130.049 205.7V205.996H138.567Z" fill="#6B2A18"/>
<path d="M137.317 203.946C137.317 204.961 136.021 205.099 134.425 205.099C132.829 205.099 131.533 204.969 131.533 203.946C131.533 202.923 132.825 202.104 134.425 202.104C136.025 202.104 137.317 202.927 137.317 203.946Z" fill="#843621"/>
<path d="M136.653 203.396C136.443 203.232 136.218 203.09 135.979 202.973Z" fill="#FCFBFB"/>
<path d="M136.767 203.196C136.559 203.03 136.335 202.884 136.098 202.762C135.833 202.627 135.598 203.027 135.864 203.146C136.102 203.265 136.327 203.406 136.537 203.57C136.584 203.602 136.641 203.615 136.698 203.608C136.754 203.601 136.807 203.574 136.844 203.531C136.873 203.478 136.88 203.415 136.865 203.357C136.849 203.298 136.811 203.248 136.76 203.216L136.767 203.196Z" fill="#FCFBFB"/>
<path d="M128.641 206.993H138.525C138.582 206.99 138.635 206.965 138.673 206.923C138.711 206.881 138.731 206.826 138.729 206.77V206.127C138.731 206.071 138.711 206.016 138.673 205.974C138.635 205.932 138.582 205.907 138.525 205.904H128.641C128.613 205.905 128.585 205.912 128.56 205.924C128.534 205.935 128.511 205.952 128.491 205.973C128.472 205.993 128.457 206.018 128.447 206.044C128.437 206.071 128.433 206.099 128.434 206.127V206.77C128.433 206.798 128.437 206.826 128.447 206.853C128.457 206.879 128.472 206.903 128.491 206.924C128.511 206.945 128.534 206.962 128.56 206.973C128.585 206.985 128.613 206.992 128.641 206.993Z" fill="#4D1C14"/>
<path d="M134.206 180.84L134.014 177.379H133.587L133.906 183.809C134.36 183.075 134.264 181.725 134.206 180.84Z" fill="#191923"/>
<path d="M142.002 153.992C142.002 154.127 142.002 154.265 142.002 154.411C141.989 154.272 141.989 154.132 142.002 153.992Z" fill="#191923"/>
<path d="M159.173 159.357C158.684 159.757 158.115 160.049 157.504 160.215L157.454 160.188C156.604 159.776 144.921 154.065 143.382 153.258C142.294 152.685 142.044 153.446 141.994 153.977C141.994 153.731 141.994 153.504 141.994 153.292C142.075 149.796 142.54 150.504 142.54 150.504L143.382 152.169L159.173 159.357Z" fill="#191923"/>
<path d="M124.85 135.19C124.984 136.867 122.5 137.067 122.365 135.39C122.231 133.713 122.092 132.017 121.954 130.329C121.823 129.091 121.943 127.84 122.308 126.651C122.673 125.461 123.274 124.357 124.077 123.406C124.722 123.977 125.435 124.467 126.199 124.864C123.523 127.51 124.573 131.756 124.85 135.19Z" fill="#72311D"/>
<path d="M123.769 126.254C123.586 126.451 123.353 126.593 123.094 126.665C122.835 126.737 122.561 126.736 122.303 126.661C121.399 126.386 120.579 125.884 119.923 125.204C120.327 124.01 121.157 123.006 122.253 122.385C122.723 122.934 123.145 123.522 123.515 124.142C123.973 124.942 124.215 125.761 123.769 126.254Z" fill="#823D1A"/>
<path d="M126.142 151.863L124.407 156.051V152.317H124.461C125.012 152.132 125.573 151.981 126.142 151.863Z" fill="#191923"/>
</g>
<g clip-path="url(#clip4_18_2)">
<path d="M241.92 200.816H246.408C246.696 200.818 246.973 200.931 247.18 201.133C247.388 201.334 247.509 201.607 247.519 201.896L247.431 205.836C247.437 205.987 247.413 206.137 247.359 206.278C247.306 206.418 247.225 206.547 247.121 206.656C247.017 206.764 246.892 206.851 246.754 206.91C246.615 206.969 246.466 207 246.316 207H241.765C241.615 207 241.466 206.969 241.327 206.91C241.189 206.851 241.064 206.764 240.96 206.656C240.856 206.547 240.775 206.418 240.722 206.278C240.668 206.137 240.644 205.987 240.65 205.836L240.816 201.896C240.826 201.608 240.946 201.336 241.152 201.135C241.358 200.934 241.633 200.82 241.92 200.816Z" fill="#323244"/>
<path d="M245.914 204.971H236.798C236.352 204.971 235.99 205.332 235.99 205.779V205.93C235.99 206.376 236.352 206.738 236.798 206.738H245.914C246.36 206.738 246.722 206.376 246.722 205.93V205.779C246.722 205.332 246.36 204.971 245.914 204.971Z" fill="#323244"/>
<path d="M235.8 205.945V205.631C235.798 205.106 235.9 204.586 236.1 204.101C236.3 203.616 236.593 203.175 236.963 202.803C237.333 202.431 237.773 202.136 238.258 201.934C238.742 201.732 239.261 201.628 239.786 201.627H240.735C241.26 201.628 241.779 201.733 242.262 201.935C242.746 202.137 243.186 202.432 243.556 202.804C243.926 203.176 244.219 203.617 244.418 204.102C244.617 204.587 244.719 205.106 244.718 205.631V205.945H235.8Z" fill="#323244"/>
<path d="M237.112 203.786C237.112 204.845 238.467 204.996 240.139 204.996C241.811 204.996 243.166 204.855 243.166 203.786C243.166 202.717 241.811 201.85 240.139 201.85C238.467 201.85 237.112 202.717 237.112 203.786Z" fill="#323244"/>
<path d="M237.804 203.212C238.023 203.039 238.259 202.89 238.509 202.768Z" fill="#323244"/>
<path d="M238.019 203.422C238.22 203.271 238.435 203.138 238.661 203.027C239.014 202.851 238.703 202.321 238.358 202.505C238.087 202.642 237.83 202.807 237.592 202.995C237.564 203.023 237.541 203.056 237.526 203.093C237.511 203.13 237.503 203.169 237.503 203.209C237.503 203.248 237.511 203.288 237.526 203.324C237.541 203.361 237.564 203.394 237.592 203.422C237.649 203.477 237.726 203.508 237.806 203.508C237.885 203.508 237.962 203.477 238.019 203.422Z" fill="#323244"/>
<path d="M247.381 207H236.019C235.958 206.998 235.902 206.971 235.861 206.927C235.82 206.883 235.798 206.824 235.8 206.764V206.094C235.798 206.034 235.82 205.975 235.861 205.931C235.902 205.887 235.958 205.86 236.019 205.857H247.381C247.442 205.86 247.498 205.887 247.539 205.931C247.58 205.975 247.602 206.034 247.6 206.094V206.764C247.602 206.824 247.58 206.883 247.539 206.927C247.498 206.971 247.442 206.998 247.381 207Z" fill="#323244"/>
<path d="M253.375 200.816H257.862C258.151 200.817 258.429 200.93 258.637 201.131C258.845 201.333 258.967 201.607 258.977 201.896L258.889 205.836C258.895 205.987 258.871 206.137 258.817 206.278C258.764 206.418 258.683 206.547 258.579 206.656C258.475 206.764 258.35 206.851 258.212 206.91C258.073 206.969 257.924 207 257.774 207H253.223C253.073 207 252.924 206.969 252.785 206.91C252.647 206.851 252.522 206.764 252.418 206.656C252.314 206.547 252.233 206.418 252.18 206.278C252.126 206.137 252.102 205.987 252.108 205.836L252.26 201.896C252.27 201.607 252.392 201.333 252.6 201.131C252.808 200.93 253.085 200.817 253.375 200.816Z" fill="#323244"/>
<path d="M257.369 204.971H248.257C248.15 204.971 248.044 204.992 247.945 205.033C247.847 205.074 247.757 205.134 247.682 205.21C247.606 205.285 247.547 205.375 247.506 205.474C247.465 205.573 247.445 205.679 247.445 205.786V205.927C247.445 206.142 247.531 206.348 247.683 206.5C247.835 206.653 248.042 206.738 248.257 206.738H257.369C257.584 206.738 257.79 206.653 257.942 206.5C258.095 206.348 258.18 206.142 258.18 205.927V205.775C258.178 205.561 258.092 205.356 257.94 205.206C257.788 205.055 257.583 204.971 257.369 204.971Z" fill="#323244"/>
<path d="M247.258 205.945V205.631C247.256 205.106 247.358 204.587 247.558 204.102C247.757 203.617 248.05 203.176 248.42 202.804C248.79 202.432 249.229 202.137 249.713 201.935C250.197 201.733 250.716 201.628 251.241 201.627H252.19C252.714 201.628 253.234 201.732 253.718 201.934C254.202 202.136 254.642 202.431 255.012 202.803C255.383 203.175 255.676 203.616 255.876 204.101C256.075 204.586 256.177 205.106 256.176 205.631V205.945H247.258Z" fill="#323244"/>
<path d="M248.577 203.786C248.577 204.845 249.932 204.996 251.604 204.996C253.276 204.996 254.631 204.855 254.631 203.786C254.631 202.717 253.276 201.85 251.604 201.85C249.932 201.85 248.577 202.717 248.577 203.786Z" fill="#323244"/>
<path d="M249.262 203.212C249.48 203.039 249.717 202.889 249.967 202.768Z" fill="#323244"/>
<path d="M249.474 203.422C249.675 203.27 249.892 203.137 250.119 203.027C250.472 202.851 250.158 202.321 249.812 202.505C249.542 202.644 249.286 202.808 249.047 202.995C248.991 203.052 248.959 203.129 248.959 203.209C248.959 203.289 248.991 203.365 249.047 203.422C249.104 203.477 249.181 203.508 249.26 203.508C249.34 203.508 249.416 203.477 249.474 203.422Z" fill="#323244"/>
<path d="M258.84 207H247.473C247.444 206.999 247.415 206.992 247.388 206.979C247.361 206.967 247.337 206.949 247.317 206.927C247.297 206.905 247.281 206.879 247.271 206.851C247.261 206.823 247.257 206.794 247.258 206.764V206.094C247.257 206.064 247.261 206.034 247.271 206.007C247.281 205.979 247.297 205.953 247.317 205.931C247.337 205.909 247.361 205.891 247.388 205.879C247.415 205.866 247.444 205.859 247.473 205.857H258.84C258.899 205.861 258.955 205.888 258.995 205.932C259.035 205.976 259.057 206.034 259.055 206.094V206.764C259.057 206.824 259.035 206.882 258.995 206.926C258.955 206.97 258.899 206.997 258.84 207Z" fill="#323244"/>
<path d="M241.92 200.816H246.408C246.696 200.818 246.973 200.931 247.18 201.133C247.388 201.334 247.509 201.607 247.519 201.896L247.431 205.836C247.437 205.987 247.413 206.137 247.359 206.278C247.306 206.418 247.225 206.547 247.121 206.656C247.017 206.764 246.892 206.851 246.754 206.91C246.615 206.969 246.466 207 246.316 207H241.765C241.615 207 241.466 206.969 241.327 206.91C241.189 206.851 241.064 206.764 240.96 206.656C240.856 206.547 240.775 206.418 240.722 206.278C240.668 206.137 240.644 205.987 240.65 205.836L240.816 201.896C240.826 201.608 240.946 201.336 241.152 201.135C241.358 200.934 241.633 200.82 241.92 200.816Z" fill="#491C15"/>
<path d="M245.914 204.971H236.798C236.352 204.971 235.99 205.332 235.99 205.779V205.93C235.99 206.376 236.352 206.738 236.798 206.738H245.914C246.36 206.738 246.722 206.376 246.722 205.93V205.779C246.722 205.332 246.36 204.971 245.914 204.971Z" fill="#6B2A18"/>
<path d="M235.8 205.945V205.631C235.798 205.106 235.9 204.586 236.1 204.101C236.3 203.616 236.593 203.175 236.963 202.803C237.333 202.431 237.773 202.136 238.258 201.934C238.742 201.732 239.261 201.628 239.786 201.627H240.735C241.26 201.628 241.779 201.733 242.262 201.935C242.746 202.137 243.186 202.432 243.556 202.804C243.926 203.176 244.219 203.617 244.418 204.102C244.617 204.587 244.719 205.106 244.718 205.631V205.945H235.8Z" fill="#6B2A18"/>
<path d="M237.112 203.786C237.112 204.845 238.467 204.996 240.139 204.996C241.811 204.996 243.166 204.855 243.166 203.786C243.166 202.717 241.811 201.85 240.139 201.85C238.467 201.85 237.112 202.717 237.112 203.786Z" fill="#843621"/>
<path d="M237.804 203.212C238.023 203.039 238.259 202.89 238.509 202.768Z" fill="#FCFBFB"/>
<path d="M238.019 203.422C238.22 203.271 238.435 203.138 238.661 203.027C239.014 202.851 238.703 202.321 238.358 202.505C238.087 202.642 237.83 202.807 237.592 202.995C237.564 203.023 237.541 203.056 237.526 203.093C237.511 203.13 237.503 203.169 237.503 203.209C237.503 203.248 237.511 203.288 237.526 203.324C237.541 203.361 237.564 203.394 237.592 203.422C237.649 203.477 237.726 203.508 237.806 203.508C237.885 203.508 237.962 203.477 238.019 203.422Z" fill="#FCFBFB"/>
<path d="M247.381 207H236.019C235.958 206.998 235.902 206.971 235.861 206.927C235.82 206.883 235.798 206.824 235.8 206.764V206.094C235.798 206.034 235.82 205.975 235.861 205.931C235.902 205.887 235.958 205.86 236.019 205.857H247.381C247.442 205.86 247.498 205.887 247.539 205.931C247.58 205.975 247.602 206.034 247.6 206.094V206.764C247.602 206.824 247.58 206.883 247.539 206.927C247.498 206.971 247.442 206.998 247.381 207Z" fill="#4D1C14"/>
<path d="M253.375 200.816H257.862C258.151 200.817 258.429 200.93 258.637 201.131C258.845 201.333 258.967 201.607 258.977 201.896L258.889 205.836C258.895 205.987 258.871 206.137 258.817 206.278C258.764 206.418 258.683 206.547 258.579 206.656C258.475 206.764 258.35 206.851 258.212 206.91C258.073 206.969 257.924 207 257.774 207H253.223C253.073 207 252.924 206.969 252.785 206.91C252.647 206.851 252.522 206.764 252.418 206.656C252.314 206.547 252.233 206.418 252.18 206.278C252.126 206.137 252.102 205.987 252.108 205.836L252.26 201.896C252.27 201.607 252.392 201.333 252.6 201.131C252.808 200.93 253.085 200.817 253.375 200.816Z" fill="#491C15"/>
<path d="M257.369 204.971H248.257C248.15 204.971 248.044 204.992 247.945 205.033C247.847 205.074 247.757 205.134 247.682 205.21C247.606 205.285 247.547 205.375 247.506 205.474C247.465 205.573 247.445 205.679 247.445 205.786V205.927C247.445 206.142 247.531 206.348 247.683 206.5C247.835 206.653 248.042 206.738 248.257 206.738H257.369C257.584 206.738 257.79 206.653 257.942 206.5C258.095 206.348 258.18 206.142 258.18 205.927V205.775C258.178 205.561 258.092 205.356 257.94 205.206C257.788 205.055 257.583 204.971 257.369 204.971Z" fill="#6B2A18"/>
<path d="M247.258 205.945V205.631C247.256 205.106 247.358 204.587 247.558 204.102C247.757 203.617 248.05 203.176 248.42 202.804C248.79 202.432 249.229 202.137 249.713 201.935C250.197 201.733 250.716 201.628 251.241 201.627H252.19C252.714 201.628 253.234 201.732 253.718 201.934C254.202 202.136 254.642 202.431 255.012 202.803C255.383 203.175 255.676 203.616 255.876 204.101C256.075 204.586 256.177 205.106 256.176 205.631V205.945H247.258Z" fill="#6B2A18"/>
<path d="M248.577 203.786C248.577 204.845 249.932 204.996 251.604 204.996C253.276 204.996 254.631 204.855 254.631 203.786C254.631 202.717 253.276 201.85 251.604 201.85C249.932 201.85 248.577 202.717 248.577 203.786Z" fill="#843621"/>
<path d="M249.262 203.212C249.48 203.039 249.717 202.889 249.967 202.768Z" fill="#FCFBFB"/>
<path d="M249.474 203.422C249.675 203.27 249.892 203.137 250.119 203.027C250.472 202.851 250.158 202.321 249.812 202.505C249.542 202.644 249.286 202.808 249.047 202.995C248.991 203.052 248.959 203.129 248.959 203.209C248.959 203.289 248.991 203.365 249.047 203.422C249.104 203.477 249.181 203.508 249.26 203.508C249.34 203.508 249.416 203.477 249.474 203.422Z" fill="#FCFBFB"/>
<path d="M258.84 207H247.473C247.444 206.999 247.415 206.992 247.388 206.979C247.361 206.967 247.337 206.949 247.317 206.927C247.297 206.905 247.281 206.879 247.271 206.851C247.261 206.823 247.257 206.794 247.258 206.764V206.094C247.257 206.064 247.261 206.034 247.271 206.007C247.281 205.979 247.297 205.953 247.317 205.931C247.337 205.909 247.361 205.891 247.388 205.879C247.415 205.866 247.444 205.859 247.473 205.857H258.84C258.899 205.861 258.955 205.888 258.995 205.932C259.035 205.976 259.057 206.034 259.055 206.094V206.764C259.057 206.824 259.035 206.882 258.995 206.926C258.955 206.97 258.899 206.997 258.84 207Z" fill="#4D1C14"/>
<path d="M250.398 201.218V177.142H248.93L248.842 201.218L248.56 201.303C245.799 202.151 242.839 202.095 240.111 201.144L240.026 201.116L240.125 171H259.161L259.122 201.116L258.928 201.18C256.175 202.107 253.197 202.125 250.433 201.232L250.398 201.218Z" fill="#252533"/>
<path d="M259.168 171.811H240.125L240.234 179.677H248.905L248.927 177.952H250.384L250.391 179.677H259.012L259.168 171.811Z" fill="#131516"/>
<path d="M263.567 167.116C263.158 167.024 262.576 167.306 261.867 167.468C261.867 167.468 259.718 166.943 260.025 167.948C260.332 168.954 261.165 169.289 261.994 169.278C261.196 170.485 259.909 171.635 260.512 172.495C261.658 174.132 263.983 170.873 263.983 170.873C263.573 171.584 263.066 172.234 262.477 172.806C261.002 174.217 263.479 175.12 264.872 173.769C264.604 175.483 266.661 176.118 267.211 172.005C267.423 170.428 266.548 169.183 265.747 168.28C265.204 167.676 264.287 167.126 263.567 167.116Z" fill="#FFB37B"/>
<path d="M227.171 111.86C226.565 114.668 228.508 115.501 230.551 115.501C232.593 115.501 234.248 113.981 234.248 112.104C234.248 110.227 232.593 108.703 230.551 108.703C228.508 108.703 227.57 110.026 227.171 111.86Z" fill="#FF9E5C"/>
<path d="M228.343 109.025C228.343 110.14 228.999 111.046 229.807 111.046C230.615 111.046 231.271 110.14 231.271 109.025C231.271 107.91 230.615 107 229.807 107C228.999 107 228.343 107.907 228.343 109.025Z" fill="#FFB37B"/>
<path d="M232.77 113.815C234.583 112.291 233.676 107.31 231.412 106.999C229.147 106.689 229.796 110.753 231.412 110.933C232.77 111.084 232.47 109.123 232.47 109.123" fill="#FFB37B"/>
<path d="M233.257 108.549C235.55 109.17 234.442 115.57 231.299 115.503C228.155 115.435 229.122 109.608 232.047 111.477C232.047 111.477 232.142 108.246 233.257 108.549Z" fill="#FFB37B"/>
<path d="M227.086 109.987C227.418 110.947 228.243 111.533 228.938 111.293C229.633 111.053 229.926 110.086 229.598 109.116C229.27 108.146 228.441 107.585 227.764 107.821C227.086 108.058 226.758 109.028 227.086 109.987Z" fill="#FFB37B"/>
<path d="M226.113 110.573C226.392 111.381 227.091 111.875 227.673 111.674C228.255 111.473 228.509 110.654 228.23 109.847C227.951 109.039 227.256 108.548 226.671 108.764C226.085 108.979 225.838 109.765 226.113 110.573Z" fill="#FFB37B"/>
<path d="M228.886 118.039L235.091 115.975L234.181 113.195L227.979 115.259L228.886 118.039Z" fill="white"/>
<path d="M264.37 164.849L262.734 167.273L267.6 170.557L269.236 168.133L264.37 164.849Z" fill="white"/>
<path d="M269.059 169.589C269.412 169.123 277.257 158.156 271.348 149.298C265.221 140.108 248.623 143.837 239.493 149.929L243.254 153.919C253.502 152.727 252.129 151.562 256.585 151.04C258.645 150.797 263.64 150.529 265.439 153.242C268.547 157.898 263.369 165.338 263.323 165.412L269.059 169.589Z" fill="#252533"/>
<path fill-rule="evenodd" clip-rule="evenodd" d="M234.747 114.324L246.519 148.102L239.806 150.441L228.034 116.664L234.747 114.324Z" fill="#252533"/>
<path d="M249.491 143.395C261.376 143.395 259.901 149.392 259.901 149.392V171.708C254.807 174.311 242.799 175.832 239.183 171.002V147.621C239.183 147.621 237.61 143.395 249.491 143.395Z" fill="#252533"/>
<path d="M248.426 158.505V174.168C248.433 174.221 248.458 174.27 248.498 174.305C248.538 174.34 248.59 174.359 248.643 174.359C248.696 174.359 248.747 174.34 248.787 174.305C248.827 174.27 248.853 174.221 248.86 174.168V158.505C248.853 158.453 248.827 158.404 248.787 158.369C248.747 158.334 248.696 158.314 248.643 158.314C248.59 158.314 248.538 158.334 248.498 158.369C248.458 158.404 248.433 158.453 248.426 158.505Z" fill="#131516"/>
<path d="M254.715 144.732L248.64 158.49L244.097 144.732H254.715Z" fill="white"/>
<path d="M244.037 146.253L244.094 146.228C245.756 145.523 247.544 145.16 249.35 145.16C251.156 145.16 252.943 145.523 254.606 146.228L254.659 146.249L252.987 150.013L249.283 147.477L245.286 150.013L244.037 146.253Z" fill="#AFA2A0"/>
<path d="M247.717 155.676L248.648 158.491L249.89 155.676L249.41 144.736L247.717 155.676Z" fill="#070404"/>
<path d="M249.216 148.647C248.97 148.659 248.727 148.589 248.525 148.45C248.322 148.31 248.171 148.108 248.094 147.875L247.593 146.051C247.403 145.345 248.027 144.668 248.838 144.668H250.066C250.877 144.668 251.421 145.374 251.149 146.051L250.443 147.875C250.34 148.112 250.168 148.312 249.949 148.45C249.73 148.588 249.474 148.657 249.216 148.647Z" fill="#070404"/>
<path d="M244.097 144.747L244.157 144.723C245.82 144.019 247.607 143.656 249.413 143.656C251.219 143.656 253.006 144.019 254.669 144.723L254.719 144.744L253.046 148.504L249.321 146.25L245.338 148.504L244.097 144.747Z" fill="white"/>
<path d="M248.779 158.491L244.281 144.92L240.365 146.412L242.521 149.16L244.006 149.686L243.265 151.499L248.779 158.491Z" fill="#131516"/>
<path d="M248.778 158.491L254.952 144.92L258.705 146.215L256.222 149.16L254.68 149.686L255.213 151.503L248.778 158.491Z" fill="#131516"/>
<path d="M248.648 158.49L244.147 143.871L240.234 145.367L242.39 148.115L243.875 148.641L243.134 150.454L248.648 158.49Z" fill="#323244"/>
<path d="M248.647 158.49L254.821 143.871L258.574 145.166L256.091 148.115L254.546 148.641L255.078 150.454L248.647 158.49Z" fill="#323244"/>
<path d="M259.722 138.114C259.722 138.114 266.957 125.944 259.722 122.635C258.402 117.625 249.421 118.211 247.202 118.641C242.136 119.615 237.486 123.831 240.619 128.956L259.722 138.114Z" fill="#6D503C"/>
<path d="M249.283 138.217H249.801C250.352 138.217 250.881 138.436 251.27 138.825C251.66 139.215 251.879 139.744 251.879 140.295V143.822C251.879 144.373 251.66 144.902 251.27 145.292C250.881 145.681 250.352 145.9 249.801 145.9H249.283C248.731 145.9 248.201 145.681 247.811 145.291C247.42 144.9 247.201 144.371 247.201 143.819V140.291C247.203 139.74 247.423 139.213 247.813 138.824C248.203 138.435 248.732 138.217 249.283 138.217Z" fill="#FF9E5C"/>
<path d="M248.069 122.17L253.981 122.646C257.816 122.957 260.663 126.463 260.331 130.478L260.218 132.196C260.217 132.2 260.217 132.204 260.218 132.208C260.219 132.213 260.221 132.216 260.223 132.22C260.226 132.223 260.23 132.225 260.234 132.227C260.238 132.228 260.242 132.228 260.247 132.228C260.364 132.22 260.482 132.22 260.599 132.228H260.666C261.406 132.308 262.084 132.676 262.553 133.254C263.022 133.831 263.244 134.57 263.171 135.311V135.371C263.125 136.111 262.789 136.803 262.236 137.297C261.684 137.792 260.959 138.049 260.218 138.013H260.148C260.029 138.001 259.911 137.981 259.795 137.953C259.791 137.952 259.787 137.952 259.783 137.952C259.779 137.953 259.775 137.955 259.772 137.957C259.768 137.96 259.766 137.963 259.763 137.966C259.761 137.97 259.76 137.974 259.76 137.978C259.305 141.83 256.017 144.68 252.285 144.37L246.344 143.89C242.509 143.576 239.662 140.073 239.994 136.059L240.534 128.873C240.858 124.851 244.231 121.849 248.069 122.17Z" fill="#FFB37B"/>
<path d="M257.75 134.319C258.029 130.901 259.09 126.654 256.265 124.089C254.854 122.787 253.15 122.657 251.358 122.512C249.901 122.392 248.444 122.247 246.983 122.159C245.406 122.061 245.604 119.545 247.188 119.623C248.772 119.7 250.363 119.88 251.975 120.007C254.254 120.194 256.318 120.685 258.053 122.36C259.969 124.219 260.78 126.869 260.572 129.578C260.438 131.224 260.305 132.871 260.173 134.517C260.039 136.154 257.616 135.956 257.746 134.319H257.75Z" fill="#6D503C"/>
<path d="M251.046 132.159C251.004 132.664 251.269 133.097 251.632 133.126C251.995 133.154 252.338 132.773 252.369 132.265C252.401 131.757 252.147 131.327 251.78 131.298C251.413 131.27 251.099 131.655 251.046 132.159Z" fill="#131516"/>
<path d="M243.638 131.556C243.596 132.06 243.86 132.494 244.224 132.526C244.587 132.558 244.929 132.173 244.961 131.665C244.993 131.157 244.739 130.727 244.372 130.695C244.005 130.663 243.663 131.051 243.638 131.556Z" fill="#131516"/>
<path d="M243.322 129.747C244.059 128.926 245.159 128.894 245.77 129.874C245.943 130.153 246.391 129.896 246.214 129.613C245.438 128.361 243.925 128.301 242.958 129.381C242.736 129.628 243.099 129.994 243.311 129.733L243.322 129.747Z" fill="#774320"/>
<path d="M253.643 130.282C252.874 129.072 251.378 128.832 250.394 129.93C250.175 130.18 250.539 130.543 250.747 130.282C251.505 129.422 252.585 129.577 253.184 130.512C253.361 130.79 253.809 130.533 253.629 130.251L253.643 130.282Z" fill="#774320"/>
<path d="M248.486 124.554C256.148 125.175 258.992 124.991 258.424 132.011C258.424 132.011 260.777 121.827 254.162 120.324C247.548 118.821 240.817 123.933 248.486 124.554Z" fill="#6D503C"/>
<path d="M250.771 137.268C250.745 137.733 250.626 138.187 250.422 138.605C250.218 139.024 249.932 139.396 249.581 139.702C249.23 140.008 248.822 140.241 248.38 140.387C247.938 140.532 247.471 140.588 247.007 140.551C246.543 140.513 246.092 140.383 245.679 140.169C245.266 139.954 244.9 139.659 244.603 139.301C244.306 138.943 244.083 138.529 243.948 138.083C243.814 137.638 243.769 137.17 243.818 136.707L250.771 137.268Z" fill="white"/>
</g>
</g>
<defs>
<filter id="filter0_f_18_2" x="25" y="-41" width="325" height="325" filterUnits="userSpaceOnUse" color-interpolation-filters="sRGB">
<feFlood flood-opacity="0" result="BackgroundImageFix"/>
<feBlend mode="normal" in="SourceGraphic" in2="BackgroundImageFix" result="shape"/>
<feGaussianBlur stdDeviation="52.5" result="effect1_foregroundBlur_18_2"/>
</filter>
<clipPath id="clip0_18_2">
<rect width="375" height="219" fill="white"/>
</clipPath>
<clipPath id="clip1_18_2">
<rect width="68.6386" height="95" fill="white" transform="translate(153 90)"/>
</clipPath>
<clipPath id="clip2_18_2">
<rect width="80.7556" height="90" fill="white" transform="translate(147)"/>
</clipPath>
<clipPath id="clip3_18_2">
<rect width="55.8068" height="90" fill="white" transform="translate(113 117)"/>
</clipPath>
<clipPath id="clip4_18_2">
<rect width="47.543" height="100" fill="white" transform="translate(226 107)"/>
</clipPath>
</defs>
</svg>
