<svg width="64" height="64" viewBox="0 0 64 64" fill="none" xmlns="http://www.w3.org/2000/svg">
<g clip-path="url(#clip0_14_302)">
<path d="M36.8999 13.222C36.6289 12.2241 37.2185 11.1932 38.2182 10.9222C41.668 9.98475 44.2387 7.16313 44.9345 3.75H39.5C38.4636 3.75 37.625 2.91138 37.625 1.875C37.625 0.838625 38.4636 0 39.5 0H47C48.0364 0 48.875 0.838625 48.875 1.875C48.875 7.78562 44.898 12.9931 39.1997 14.5404C38.2341 14.8086 37.1786 14.2469 36.8999 13.222Z" fill="#FFAA33"/>
<path d="M33.875 16.875V28.125C33.875 29.1749 33.0501 30 32 30C30.9499 30 30.125 29.1749 30.125 28.125V16.875C30.125 15.8249 30.9499 15 32 15C33.0501 15 33.875 15.8249 33.875 16.875Z" fill="#FFD24D"/>
<path d="M33.875 16.875V28.125C33.875 29.1749 33.0501 30 32 30V15C33.0501 15 33.875 15.8249 33.875 16.875Z" fill="#FFAA33"/>
<path d="M24.8002 14.5404C19.102 12.9931 15.125 7.78562 15.125 1.875C15.125 0.838625 15.9636 0 17 0H24.5C25.5364 0 26.375 0.838625 26.375 1.875C26.375 2.91138 25.5364 3.75 24.5 3.75H19.0654C19.7611 7.16313 22.332 9.98475 25.7816 10.9222C26.7814 11.1932 27.371 12.2241 27.1 13.222C26.8213 14.2473 25.7654 14.8085 24.8002 14.5404Z" fill="#FFD24D"/>
<path d="M39.5 37.5H24.5C23.4499 37.5 22.625 38.3249 22.625 39.375V62.125C22.625 63.1749 23.4499 64 24.5 64H39.5C40.5501 64 41.375 63.1749 41.375 62.125V39.375C41.375 38.3249 40.5501 37.5 39.5 37.5Z" fill="#FF884D"/>
<path d="M58.25 15H56.375V13.125C56.375 12.0886 55.5364 11.25 54.5 11.25C53.4636 11.25 52.625 12.0886 52.625 13.125V15H50.75C49.7136 15 48.875 15.8386 48.875 16.875C48.875 17.9114 49.7136 18.75 50.75 18.75H52.625V20.625C52.625 21.6614 53.4636 22.5 54.5 22.5C55.5364 22.5 56.375 21.6614 56.375 20.625V18.75H58.25C59.2864 18.75 60.125 17.9114 60.125 16.875C60.125 15.8386 59.2864 15 58.25 15Z" fill="#FFE6B3"/>
<path d="M13.25 11.25H11.375V9.375C11.375 8.33862 10.5364 7.5 9.5 7.5C8.46362 7.5 7.625 8.33862 7.625 9.375V11.25H5.75C4.71362 11.25 3.875 12.0886 3.875 13.125C3.875 14.1614 4.71362 15 5.75 15H7.625V16.875C7.625 17.9114 8.46362 18.75 9.5 18.75C10.5364 18.75 11.375 17.9114 11.375 16.875V15H13.25C14.2864 15 15.125 14.1614 15.125 13.125C15.125 12.0886 14.2864 11.25 13.25 11.25Z" fill="#FFF7CC"/>
<path d="M62.125 64H47C45.9636 64 45.125 63.1614 45.125 62.125V46.875C45.125 45.8386 45.9636 45 47 45H62.125C63.1614 45 64 45.8386 64 46.875V62.125C64 63.1614 63.1614 64 62.125 64Z" fill="#80AAFF"/>
<path d="M17 64H1.875C0.838625 64 0 63.1614 0 62.125V54.5C0 53.4636 0.838625 52.625 1.875 52.625H17C18.0364 52.625 18.875 53.4636 18.875 54.5V62.125C18.875 63.1614 18.0364 64 17 64Z" fill="#FFEA80"/>
<path d="M41.375 39.375V62.125C41.375 63.1749 40.5501 64 39.5 64H32V37.5H39.5C40.5501 37.5 41.375 38.3249 41.375 39.375Z" fill="#FF4D4D"/>
<path d="M39.5 0H24.5C23.4499 0 22.625 0.824875 22.625 1.875V9.375C22.625 14.55 26.825 18.75 32 18.75C37.175 18.75 41.375 14.55 41.375 9.375V1.875C41.375 0.824875 40.5501 0 39.5 0Z" fill="#FFEA80"/>
<path d="M41.375 1.875V9.375C41.375 14.55 37.175 18.75 32 18.75V0H39.5C40.5501 0 41.375 0.824875 41.375 1.875Z" fill="#FFD24D"/>
<path d="M37.625 26.25H26.375C24.3125 26.25 22.625 27.9375 22.625 30V31.875C22.625 32.9249 23.4499 33.75 24.5 33.75H39.5C40.5501 33.75 41.375 32.9249 41.375 31.875V30C41.375 27.9375 39.6875 26.25 37.625 26.25Z" fill="#FFEA80"/>
<path d="M41.375 30V31.875C41.375 32.9249 40.5501 33.75 39.5 33.75H32V26.25H37.625C39.6875 26.25 41.375 27.9375 41.375 30Z" fill="#FFD24D"/>
</g>
<defs>
<clipPath id="clip0_14_302">
<rect width="64" height="64" fill="white"/>
</clipPath>
</defs>
</svg>
