<svg width="30" height="24" viewBox="0 0 30 24" fill="none" xmlns="http://www.w3.org/2000/svg">
<path d="M0 3C0 1.34315 1.34315 0 3 0H27C28.6569 0 30 1.34315 30 3V21C30 22.6569 28.6569 24 27 24H3C1.34315 24 0 22.6569 0 21V3Z" fill="#F5F5F5"/>
<path d="M18.3517 6.97856C15.5793 5.1303 11.8347 5.88595 9.98769 8.65349C9.06123 10.0349 9.43783 11.9119 10.8239 12.836C12.209 13.7602 14.08 13.3849 15.0042 11.9986C15.9283 10.6125 17.8006 10.2418 19.1856 11.1611C20.5729 12.0852 20.946 13.9623 20.0206 15.3437C21.8688 12.5715 21.1217 8.82689 18.3517 6.97856Z" fill="#FF4B55"/>
<path d="M9.98753 8.65356C9.06107 10.0349 9.43767 11.912 10.8238 12.8361C12.2088 13.7602 14.0799 13.3849 15.004 11.9987C15.9281 10.6126 17.8004 10.2419 19.1854 11.1612C20.5727 12.0853 20.9458 13.9623 20.0204 15.3437C18.1746 18.1208 14.4312 18.867 11.6588 17.0187C8.88897 15.1707 8.13933 11.426 9.98753 8.65356Z" fill="#41479B"/>
<path d="M21.4213 4.69971L22.5172 6.34703C22.6093 6.48544 22.572 6.6723 22.4339 6.76478L22.156 6.95089C22.0173 7.0437 21.8297 7.00639 21.7371 6.8675L20.6398 5.22059C20.5475 5.08205 20.5849 4.89484 20.7234 4.80237L21.0026 4.61592C21.1414 4.52331 21.3289 4.5609 21.4213 4.69971Z" fill="#464655"/>
<path d="M23.1122 7.23956L24.2117 8.88586C24.3045 9.02488 24.2666 9.21297 24.1271 9.3051L23.848 9.48958C23.7095 9.58116 23.5231 9.5435 23.4309 9.40551L22.332 7.76092C22.2395 7.62245 22.2766 7.43511 22.4152 7.3425L22.6937 7.15632C22.8322 7.06371 23.0196 7.10096 23.1122 7.23956Z" fill="#464655"/>
<path d="M22.5948 3.91655L25.3853 8.10443C25.4777 8.24304 25.4402 8.43031 25.3016 8.52272L25.0212 8.70958C24.8826 8.80199 24.6953 8.76453 24.6029 8.62592L21.8114 4.43832C21.7189 4.29964 21.7565 4.11223 21.8952 4.01983L22.1765 3.83262C22.3152 3.74056 22.5024 3.77794 22.5948 3.91655Z" fill="#464655"/>
<path d="M23.7649 3.13466L24.8632 4.78519C24.9558 4.92421 24.9178 5.1119 24.7784 5.20396L24.4991 5.3885C24.3605 5.48009 24.1739 5.44243 24.0818 5.30416L22.9826 3.65581C22.8902 3.5172 22.9277 3.32986 23.0663 3.23738L23.3465 3.05066C23.4851 2.95825 23.6725 2.99577 23.7649 3.13466Z" fill="#464655"/>
<path d="M25.457 5.67997L26.5536 7.32709C26.6459 7.46556 26.6085 7.65256 26.4703 7.74503L26.1917 7.93121C26.0531 8.02389 25.8654 7.98651 25.773 7.84762L24.6763 6.20051C24.5841 6.06203 24.6214 5.87503 24.7597 5.78256L25.0382 5.59638C25.177 5.50363 25.3645 5.54095 25.457 5.67997Z" fill="#464655"/>
<path d="M6.57608 14.5959L9.36632 18.7793C9.45872 18.9178 9.42141 19.1051 9.2828 19.1976L9.00339 19.3842C8.86478 19.4767 8.67744 19.4393 8.5849 19.3007L5.79466 15.1173C5.70219 14.9788 5.73957 14.7915 5.87818 14.699L6.15766 14.5124C6.2962 14.4199 6.48361 14.4573 6.57608 14.5959Z" fill="#464655"/>
<path d="M5.40479 15.3784L6.50027 17.0216C6.59261 17.16 6.55536 17.347 6.41709 17.4396L6.13919 17.6256C6.00065 17.7184 5.8131 17.6811 5.72049 17.5425L4.62371 15.8997C4.53117 15.7612 4.56849 15.5738 4.7071 15.4813L4.98637 15.2948C5.12491 15.2024 5.31232 15.2398 5.40479 15.3784Z" fill="#464655"/>
<path d="M7.09771 17.9192L8.19442 19.5665C8.28669 19.705 8.2493 19.8921 8.1109 19.9845L7.83217 20.1709C7.6935 20.2636 7.50602 20.2262 7.41347 20.0874L6.31608 18.4404C6.22374 18.3018 6.26113 18.1146 6.3996 18.0222L6.67901 17.8356C6.81775 17.7429 7.00523 17.7804 7.09771 17.9192Z" fill="#464655"/>
<path d="M4.23325 16.1607L7.02171 20.3442C7.11405 20.4827 7.07666 20.6699 6.93839 20.7624L6.65974 20.9487C6.52113 21.0414 6.33365 21.004 6.24111 20.8653L3.45101 16.6823C3.35853 16.5437 3.39605 16.3563 3.53466 16.2639L3.81503 16.077C3.9535 15.9846 4.14084 16.022 4.23325 16.1607Z" fill="#464655"/>
<path d="M5.79511 8.88617L8.58493 4.69939C8.6774 4.56064 8.86481 4.52319 9.00349 4.61573L9.28283 4.80225C9.42137 4.89472 9.45869 5.082 9.36635 5.22054L6.57544 9.405C6.48317 9.54327 6.29651 9.58086 6.15797 9.48914L5.87972 9.30494C5.74043 9.21281 5.70257 9.02506 5.79511 8.88617Z" fill="#464655"/>
<path d="M4.62318 8.10474L7.41349 3.91713C7.50596 3.77838 7.69351 3.74093 7.83219 3.8336L8.11084 4.01992C8.24918 4.1124 8.2865 4.29946 8.19423 4.43794L5.40467 8.62575C5.3122 8.7645 5.12478 8.80202 4.98611 8.70941L4.7067 8.52289C4.56823 8.43048 4.53084 8.24328 4.62318 8.10474Z" fill="#464655"/>
<path d="M3.45053 7.3266L6.2411 3.13483C6.33358 2.99601 6.52119 2.95849 6.65987 3.05117L6.93852 3.23749C7.07679 3.32996 7.11418 3.51682 7.02205 3.65537L4.23318 7.84775C4.14084 7.9865 3.95336 8.02416 3.81469 7.93168L3.53446 7.74482C3.39578 7.65241 3.35833 7.46521 3.45053 7.3266Z" fill="#464655"/>
<path d="M20.6403 18.7793L21.737 17.1366C21.8297 16.9979 22.0172 16.9606 22.1557 17.0534L22.4336 17.2394C22.5719 17.332 22.6091 17.519 22.5168 17.6574L21.4213 19.3005C21.3288 19.4392 21.1414 19.4766 21.0028 19.3841L20.7235 19.1977C20.585 19.1052 20.5477 18.9179 20.6403 18.7793Z" fill="#464655"/>
<path d="M22.3319 16.2472L23.4304 14.5963C23.5228 14.4576 23.7102 14.42 23.8489 14.5125L24.1289 14.6991C24.2675 14.7916 24.305 14.979 24.2125 15.1176L23.1116 16.7659C23.0192 16.9041 22.8326 16.9416 22.694 16.8498L22.4164 16.6658C22.2773 16.5735 22.2395 16.386 22.3319 16.2472Z" fill="#464655"/>
<path d="M21.8113 19.566L22.9087 17.9189C23.0011 17.7803 23.1885 17.7427 23.3271 17.8352L23.6077 18.0223C23.7462 18.1147 23.7836 18.3018 23.6914 18.4405L22.5946 20.0877C22.5023 20.2264 22.315 20.2639 22.1763 20.1716L21.895 19.9844C21.7564 19.8921 21.7188 19.7047 21.8113 19.566Z" fill="#464655"/>
<path d="M23.5047 17.0211L24.6028 15.3779C24.6953 15.2394 24.8824 15.2021 25.021 15.2945L25.3014 15.4813C25.4401 15.5738 25.4775 15.7613 25.3848 15.9L24.2867 17.5432C24.1943 17.6816 24.007 17.719 23.8686 17.6266L23.5881 17.4398C23.4494 17.3472 23.412 17.1597 23.5047 17.0211Z" fill="#464655"/>
<path d="M22.983 20.344L24.0817 18.6998C24.174 18.5618 24.3604 18.5242 24.4989 18.6157L24.7781 18.8003C24.9176 18.8924 24.9555 19.0803 24.8628 19.2193L23.7649 20.8657C23.6725 21.0043 23.4852 21.0417 23.3466 20.9493L23.0665 20.7626C22.9277 20.6701 22.8904 20.4826 22.983 20.344Z" fill="#464655"/>
<path d="M24.6769 17.8074L25.7729 16.1612C25.8653 16.0224 26.053 15.9849 26.1916 16.0776L26.47 16.2637C26.6084 16.3562 26.6456 16.5434 26.5532 16.6819L25.4563 18.3259C25.3641 18.4642 25.1772 18.5017 25.0387 18.4099L24.7612 18.226C24.6222 18.1338 24.5844 17.9462 24.6769 17.8074Z" fill="#464655"/>
</svg>
