<?xml version="1.0" encoding="utf-8"?>
<!-- Generator: Adobe Illustrator 22.0.1, SVG Export Plug-In . SVG Version: 6.00 Build 0)  -->
<svg version="1.1" id="Layer_1" xmlns="http://www.w3.org/2000/svg" xmlns:xlink="http://www.w3.org/1999/xlink" x="0px" y="0px"
	 viewBox="0 0 129 134" style="enable-background:new 0 0 129 134;" xml:space="preserve">
<style type="text/css">
	.st0{clip-path:url(#SVGID_2_);}
	.st1{fill:url(#SVGID_3_);}
	.st2{fill:url(#SVGID_4_);}
	.st3{fill:url(#SVGID_5_);}
	.st4{fill:url(#SVGID_6_);}
	.st5{fill:url(#SVGID_7_);}
	.st6{fill:url(#SVGID_8_);}
	.st7{fill:url(#SVGID_9_);}
	.st8{fill:url(#SVGID_10_);}
	.st9{fill:url(#SVGID_11_);}
	.st10{fill:url(#SVGID_12_);}
	.st11{fill:url(#SVGID_13_);}
	.st12{fill:url(#SVGID_14_);}
	.st13{fill:url(#SVGID_15_);}
	.st14{fill:url(#SVGID_16_);}
	.st15{fill:url(#SVGID_17_);}
	.st16{fill:url(#SVGID_18_);}
	.st17{fill:url(#SVGID_19_);}
	.st18{fill:url(#SVGID_20_);}
	.st19{fill:url(#SVGID_21_);}
	.st20{fill:url(#SVGID_22_);}
	.st21{fill:url(#SVGID_23_);}
	.st22{fill:url(#SVGID_24_);}
	.st23{fill:url(#SVGID_25_);}
	.st24{fill:url(#SVGID_26_);}
	.st25{fill:url(#SVGID_27_);}
	.st26{fill:url(#SVGID_28_);}
	.st27{fill:url(#SVGID_29_);}
	.st28{fill:url(#SVGID_30_);}
	.st29{fill:url(#SVGID_31_);}
	.st30{fill:url(#SVGID_32_);}
	.st31{fill:url(#SVGID_33_);}
	.st32{fill:url(#SVGID_34_);}
	.st33{fill:url(#SVGID_35_);}
	.st34{fill:url(#SVGID_36_);}
	.st35{fill:url(#SVGID_37_);}
	.st36{fill:url(#SVGID_38_);}
	.st37{fill:url(#SVGID_39_);}
	.st38{fill:url(#SVGID_40_);}
	.st39{fill:url(#SVGID_41_);}
	.st40{fill:url(#SVGID_42_);}
	.st41{fill:url(#SVGID_43_);}
	.st42{fill:url(#SVGID_44_);}
	.st43{fill:url(#SVGID_45_);}
	.st44{fill:url(#SVGID_46_);}
	.st45{fill:url(#SVGID_47_);}
	.st46{fill:url(#SVGID_48_);}
	.st47{fill:url(#SVGID_49_);}
	.st48{fill:url(#SVGID_50_);}
	.st49{fill:url(#SVGID_51_);}
</style>
<g>
	<defs>
		<rect id="SVGID_1_" y="65.2" width="56" height="56"/>
	</defs>
	<clipPath id="SVGID_2_">
		<use xlink:href="#SVGID_1_"  style="overflow:visible;"/>
	</clipPath>
	<g class="st0">
		
			<linearGradient id="SVGID_3_" gradientUnits="userSpaceOnUse" x1="31.092" y1="21.3518" x2="10.7435" y2="44.4976" gradientTransform="matrix(1 0 0 -1 0 133.89)">
			<stop  offset="0" style="stop-color:#FF6636"/>
			<stop  offset="0.63" style="stop-color:#EB3612"/>
			<stop  offset="1" style="stop-color:#E11E00"/>
		</linearGradient>
		<path class="st1" d="M55,96.3l-8.4,3.9l-6.4,3l-7.2,3.3l-5.2,2.4l-5.5,2.5l-3.9,1.8l-4.1,1.9l-3.1,1.4l-3.6,1.7l-2.5,1.1l-3.6,1.7
			c-0.2,0.1-0.4,0.1-0.6,0.1c-0.2,0-0.4-0.1-0.6-0.3c-0.2-0.2-0.3-0.3-0.3-0.6c0-0.2,0-0.4,0.1-0.6l1.7-3.6l1.1-2.5l1.7-3.6l1.5-3.1
			l1.9-4.1L9.8,99l2.5-5.4l2.4-5.2l3.4-7.2l3-6.4l4-8.6L55,96.3z"/>
		
			<linearGradient id="SVGID_4_" gradientUnits="userSpaceOnUse" x1="14.8175" y1="6.9492" x2="-2.2107" y2="23.1492" gradientTransform="matrix(1 0 0 -1 0 133.89)">
			<stop  offset="0" style="stop-color:#FFD582"/>
			<stop  offset="0.29" style="stop-color:#FFBD6E"/>
			<stop  offset="0.9" style="stop-color:#FF8039"/>
			<stop  offset="1" style="stop-color:#FF7530"/>
		</linearGradient>
		<path class="st2" d="M7.5,118.3l-2.5,1.1c-0.6-0.5-1.2-1-1.7-1.6c-0.6-0.5-1.1-1.1-1.6-1.7l1.1-2.5C4.2,115.5,5.8,117,7.5,118.3
			L7.5,118.3z"/>
		
			<linearGradient id="SVGID_5_" gradientUnits="userSpaceOnUse" x1="10638.3281" y1="289.6578" x2="10268.8682" y2="280.358" gradientTransform="matrix(1 0 0 -1 0 133.89)">
			<stop  offset="0" style="stop-color:#FFD582"/>
			<stop  offset="0.29" style="stop-color:#FFBD6E"/>
			<stop  offset="0.9" style="stop-color:#FF8039"/>
			<stop  offset="1" style="stop-color:#FF7530"/>
		</linearGradient>
		<path class="st3" d="M14.3,115.2l-3.1,1.4c-1.3-0.9-2.5-1.9-3.6-3c-1.1-1.1-2.1-2.3-3-3.5l1.5-3.1C8.2,110.3,11,113.1,14.3,115.2
			L14.3,115.2z"/>
		
			<linearGradient id="SVGID_6_" gradientUnits="userSpaceOnUse" x1="15726.8574" y1="424.6972" x2="15180.6572" y2="410.8983" gradientTransform="matrix(1 0 0 -1 0 133.89)">
			<stop  offset="0" style="stop-color:#FFD582"/>
			<stop  offset="0.29" style="stop-color:#FFBD6E"/>
			<stop  offset="0.9" style="stop-color:#FF8039"/>
			<stop  offset="1" style="stop-color:#FF7530"/>
		</linearGradient>
		<path class="st4" d="M22.3,111.5l-3.9,1.8c-4.2-2.6-7.8-6.2-10.4-10.4L9.8,99C12.7,104.3,17,108.6,22.3,111.5L22.3,111.5z"/>
		
			<linearGradient id="SVGID_7_" gradientUnits="userSpaceOnUse" x1="31264.8574" y1="827.0177" x2="30178.6562" y2="799.8183" gradientTransform="matrix(1 0 0 -1 0 133.89)">
			<stop  offset="0" style="stop-color:#FFD582"/>
			<stop  offset="0.29" style="stop-color:#FFBD6E"/>
			<stop  offset="0.9" style="stop-color:#FF8039"/>
			<stop  offset="1" style="stop-color:#FF7530"/>
		</linearGradient>
		<path class="st5" d="M46.6,100.2l-6.4,3c-9.5-4.8-17.3-12.5-22-22l3-6.4c1.8,4.9,5.4,10.3,10.2,15.1S41.6,98.4,46.6,100.2z"/>
		
			<linearGradient id="SVGID_8_" gradientUnits="userSpaceOnUse" x1="22632.082" y1="604.6866" x2="21845.8828" y2="584.8858" gradientTransform="matrix(1 0 0 -1 0 133.89)">
			<stop  offset="0" style="stop-color:#FFD582"/>
			<stop  offset="0.29" style="stop-color:#FFBD6E"/>
			<stop  offset="0.9" style="stop-color:#FF8039"/>
			<stop  offset="1" style="stop-color:#FF7530"/>
		</linearGradient>
		<path class="st6" d="M32.9,106.5l-5.2,2.4c-3.2-1.8-6.2-4.1-8.8-6.7c-2.6-2.6-4.8-5.5-6.7-8.7l2.4-5.2
			C18.7,96.2,25.1,102.6,32.9,106.5L32.9,106.5z"/>
		
			<linearGradient id="SVGID_9_" gradientUnits="userSpaceOnUse" x1="45.1015" y1="57.6671" x2="35.4458" y2="48.2205" gradientTransform="matrix(1 0 0 -1 0 133.89)">
			<stop  offset="0" style="stop-color:#AE3508"/>
			<stop  offset="0.51" style="stop-color:#AB1804"/>
			<stop  offset="1" style="stop-color:#A80000"/>
		</linearGradient>
		<path class="st7" d="M55.4,95.8c2.4-2.4-2.4-11-10.7-19.3S27.7,63.4,25.4,65.8c-2.4,2.4,2.4,11,10.7,19.3
			C44.4,93.4,53.1,98.2,55.4,95.8z"/>
	</g>
</g>
<linearGradient id="SVGID_10_" gradientUnits="userSpaceOnUse" x1="1285.0107" y1="4643.563" x2="1284.21" y2="4640.4233" gradientTransform="matrix(1 0 0 -1 0 133.89)">
	<stop  offset="0" style="stop-color:#AB3C00"/>
	<stop  offset="0.34" style="stop-color:#FFC700"/>
	<stop  offset="0.37" style="stop-color:#FFCD17"/>
	<stop  offset="0.41" style="stop-color:#FFD533"/>
	<stop  offset="0.44" style="stop-color:#FFDA46"/>
	<stop  offset="0.48" style="stop-color:#FFDD52"/>
	<stop  offset="0.52" style="stop-color:#FFDE56"/>
	<stop  offset="0.55" style="stop-color:#FFDD51"/>
	<stop  offset="0.59" style="stop-color:#FFD943"/>
	<stop  offset="0.62" style="stop-color:#FFD32B"/>
	<stop  offset="0.66" style="stop-color:#FFCA0B"/>
	<stop  offset="0.67" style="stop-color:#FFC700"/>
	<stop  offset="1" style="stop-color:#AB3C00"/>
</linearGradient>
<path class="st8" d="M121.7,43c-0.2,0.4-0.3,0.8-0.2,1.2c1.3-0.1,2.7,0.1,4,0.5c0-0.4,0.1-0.8,0.3-1.1
	C124.5,43.1,123.1,42.9,121.7,43L121.7,43z"/>
<linearGradient id="SVGID_11_" gradientUnits="userSpaceOnUse" x1="109.8855" y1="58.3795" x2="105.7795" y2="59.6831" gradientTransform="matrix(1 0 0 -1 0 133.89)">
	<stop  offset="0" style="stop-color:#AB3C00"/>
	<stop  offset="0.34" style="stop-color:#FFC700"/>
	<stop  offset="0.37" style="stop-color:#FFCD17"/>
	<stop  offset="0.41" style="stop-color:#FFD533"/>
	<stop  offset="0.44" style="stop-color:#FFDA46"/>
	<stop  offset="0.48" style="stop-color:#FFDD52"/>
	<stop  offset="0.52" style="stop-color:#FFDE56"/>
	<stop  offset="0.55" style="stop-color:#FFDD51"/>
	<stop  offset="0.59" style="stop-color:#FFD943"/>
	<stop  offset="0.62" style="stop-color:#FFD32B"/>
	<stop  offset="0.66" style="stop-color:#FFCA0B"/>
	<stop  offset="0.67" style="stop-color:#FFC700"/>
	<stop  offset="1" style="stop-color:#AB3C00"/>
</linearGradient>
<path class="st9" d="M105,77.5c0.8,1,1.8,1.3,3.5,1.3c0.3-2.3,1.1-4.5,2.3-6.4c-1.3-0.2-2.5-0.8-3.4-1.8
	C106.2,72.7,105.3,75.1,105,77.5L105,77.5z"/>
<linearGradient id="SVGID_12_" gradientUnits="userSpaceOnUse" x1="101.8706" y1="131.9453" x2="100.702" y2="130.9895" gradientTransform="matrix(1 0 0 -1 0 133.89)">
	<stop  offset="0" style="stop-color:#005200"/>
	<stop  offset="0.19" style="stop-color:#00890B"/>
	<stop  offset="0.31" style="stop-color:#00A912"/>
	<stop  offset="0.33" style="stop-color:#11AD12"/>
	<stop  offset="0.37" style="stop-color:#3AB512"/>
	<stop  offset="0.41" style="stop-color:#5ABC12"/>
	<stop  offset="0.44" style="stop-color:#71C112"/>
	<stop  offset="0.48" style="stop-color:#7EC412"/>
	<stop  offset="0.51" style="stop-color:#83C512"/>
	<stop  offset="0.55" style="stop-color:#7FC412"/>
	<stop  offset="0.59" style="stop-color:#72C112"/>
	<stop  offset="0.63" style="stop-color:#5EBD12"/>
	<stop  offset="0.67" style="stop-color:#41B712"/>
	<stop  offset="0.72" style="stop-color:#1CAF12"/>
	<stop  offset="0.74" style="stop-color:#00A912"/>
	<stop  offset="0.78" style="stop-color:#009E10"/>
	<stop  offset="0.86" style="stop-color:#00800C"/>
	<stop  offset="0.95" style="stop-color:#005004"/>
	<stop  offset="1" style="stop-color:#003400"/>
</linearGradient>
<path class="st10" d="M101.7,3.9c0.3-0.3,0.7-0.6,1.2-0.7c-0.7-0.6-1.3-1.3-1.9-2.1c-0.5,0-0.9,0.2-1.2,0.6
	C100.3,2.5,100.9,3.2,101.7,3.9L101.7,3.9z"/>
<linearGradient id="SVGID_13_" gradientUnits="userSpaceOnUse" x1="46.8751" y1="109.3358" x2="45.9989" y2="112.2872" gradientTransform="matrix(1 0 0 -1 0 133.89)">
	<stop  offset="0" style="stop-color:#920040"/>
	<stop  offset="5.000000e-02" style="stop-color:#AE0052"/>
	<stop  offset="0.12" style="stop-color:#D10069"/>
	<stop  offset="0.19" style="stop-color:#EA007A"/>
	<stop  offset="0.25" style="stop-color:#FA0084"/>
	<stop  offset="0.3" style="stop-color:#FF0087"/>
	<stop  offset="0.35" style="stop-color:#FF1A8B"/>
	<stop  offset="0.43" style="stop-color:#FF3F92"/>
	<stop  offset="0.5" style="stop-color:#FF5696"/>
	<stop  offset="0.55" style="stop-color:#FF5E97"/>
	<stop  offset="0.58" style="stop-color:#FF5696"/>
	<stop  offset="0.64" style="stop-color:#FF3F92"/>
	<stop  offset="0.71" style="stop-color:#FF198B"/>
	<stop  offset="0.75" style="stop-color:#FF0087"/>
	<stop  offset="0.79" style="stop-color:#FA0084"/>
	<stop  offset="0.84" style="stop-color:#EA007A"/>
	<stop  offset="0.9" style="stop-color:#D10069"/>
	<stop  offset="0.96" style="stop-color:#AE0053"/>
	<stop  offset="1" style="stop-color:#920040"/>
</linearGradient>
<path class="st11" d="M43.7,22.6c-0.1,0.5-0.1,1,0.1,1.4c0.1,0.5,0.4,0.9,0.7,1.2c1.5-0.8,3.1-1.3,4.8-1.4C48.7,23,48.6,22,48.8,21
	C47,21.2,45.3,21.7,43.7,22.6L43.7,22.6z"/>
<linearGradient id="SVGID_14_" gradientUnits="userSpaceOnUse" x1="98.1641" y1="98.0914" x2="91.56" y2="95.5273" gradientTransform="matrix(1 0 0 -1 0 133.89)">
	<stop  offset="0" style="stop-color:#400300"/>
	<stop  offset="7.000000e-02" style="stop-color:#750300"/>
	<stop  offset="0.14" style="stop-color:#A50300"/>
	<stop  offset="0.21" style="stop-color:#C80300"/>
	<stop  offset="0.26" style="stop-color:#DD0300"/>
	<stop  offset="0.3" style="stop-color:#E50300"/>
	<stop  offset="0.34" style="stop-color:#EE190C"/>
	<stop  offset="0.39" style="stop-color:#F82E18"/>
	<stop  offset="0.45" style="stop-color:#FD3C20"/>
	<stop  offset="0.49" style="stop-color:#FF4022"/>
	<stop  offset="0.54" style="stop-color:#FD3B1F"/>
	<stop  offset="0.6" style="stop-color:#F72E18"/>
	<stop  offset="0.66" style="stop-color:#EE180C"/>
	<stop  offset="0.7" style="stop-color:#E50300"/>
	<stop  offset="0.73" style="stop-color:#DB0300"/>
	<stop  offset="0.79" style="stop-color:#C20300"/>
	<stop  offset="0.87" style="stop-color:#980300"/>
	<stop  offset="0.95" style="stop-color:#5E0300"/>
	<stop  offset="1" style="stop-color:#3B0300"/>
</linearGradient>
<path class="st12" d="M93,42.1c0.9,0.1,1.7,0,2.5-0.3c0.8-0.3,1.6-0.7,2.2-1.3c-0.7-2.8-1-5.6-1-8.5c-0.9,0.4-1.8,0.5-2.7,0.4
	C94.2,35.7,93.8,38.9,93,42.1z"/>
<linearGradient id="SVGID_15_" gradientUnits="userSpaceOnUse" x1="65.6116" y1="45.4547" x2="64.3233" y2="46.6364" gradientTransform="matrix(1 0 0 -1 0 133.89)">
	<stop  offset="0" style="stop-color:#AB3C00"/>
	<stop  offset="0.34" style="stop-color:#FFC700"/>
	<stop  offset="0.37" style="stop-color:#FFCD17"/>
	<stop  offset="0.41" style="stop-color:#FFD533"/>
	<stop  offset="0.44" style="stop-color:#FFDA46"/>
	<stop  offset="0.48" style="stop-color:#FFDD52"/>
	<stop  offset="0.52" style="stop-color:#FFDE56"/>
	<stop  offset="0.55" style="stop-color:#FFDD51"/>
	<stop  offset="0.59" style="stop-color:#FFD943"/>
	<stop  offset="0.62" style="stop-color:#FFD32B"/>
	<stop  offset="0.66" style="stop-color:#FFCA0B"/>
	<stop  offset="0.67" style="stop-color:#FFC700"/>
	<stop  offset="1" style="stop-color:#AB3C00"/>
</linearGradient>
<path class="st13" d="M63.3,88.5c0.4,0.4,0.8,0.8,1,1.3c0.6-0.9,1.4-1.8,2.2-2.5c-0.1-0.6-0.4-1-0.9-1.4
	C64.8,86.7,64,87.6,63.3,88.5L63.3,88.5z"/>
<linearGradient id="SVGID_16_" gradientUnits="userSpaceOnUse" x1="72.3698" y1="118.1317" x2="73.8633" y2="116.1536" gradientTransform="matrix(1 0 0 -1 0 133.89)">
	<stop  offset="0" style="stop-color:#005200"/>
	<stop  offset="0.19" style="stop-color:#00890B"/>
	<stop  offset="0.31" style="stop-color:#00A912"/>
	<stop  offset="0.33" style="stop-color:#11AD12"/>
	<stop  offset="0.37" style="stop-color:#3AB512"/>
	<stop  offset="0.41" style="stop-color:#5ABC12"/>
	<stop  offset="0.44" style="stop-color:#71C112"/>
	<stop  offset="0.48" style="stop-color:#7EC412"/>
	<stop  offset="0.51" style="stop-color:#83C512"/>
	<stop  offset="0.55" style="stop-color:#7FC412"/>
	<stop  offset="0.59" style="stop-color:#72C112"/>
	<stop  offset="0.63" style="stop-color:#5EBD12"/>
	<stop  offset="0.67" style="stop-color:#41B712"/>
	<stop  offset="0.72" style="stop-color:#1CAF12"/>
	<stop  offset="0.74" style="stop-color:#00A912"/>
	<stop  offset="0.78" style="stop-color:#009E10"/>
	<stop  offset="0.86" style="stop-color:#00800C"/>
	<stop  offset="0.95" style="stop-color:#005004"/>
	<stop  offset="1" style="stop-color:#003400"/>
</linearGradient>
<path class="st14" d="M71.3,16.8c0,0.4,0.2,0.7,0.4,1c0.2,0.3,0.5,0.5,0.8,0.7c0.7-0.2,1.3-0.6,1.7-1.2c-0.4-0.8-0.5-1.7-0.4-2.6
	C73.1,15.6,72.3,16.3,71.3,16.8L71.3,16.8z"/>
<linearGradient id="SVGID_17_" gradientUnits="userSpaceOnUse" x1="61.506" y1="88.4475" x2="59.133" y2="90.8715" gradientTransform="matrix(1 0 0 -1 0 133.89)">
	<stop  offset="0" style="stop-color:#400300"/>
	<stop  offset="7.000000e-02" style="stop-color:#750300"/>
	<stop  offset="0.14" style="stop-color:#A50300"/>
	<stop  offset="0.21" style="stop-color:#C80300"/>
	<stop  offset="0.26" style="stop-color:#DD0300"/>
	<stop  offset="0.3" style="stop-color:#E50300"/>
	<stop  offset="0.34" style="stop-color:#EE190C"/>
	<stop  offset="0.39" style="stop-color:#F82E18"/>
	<stop  offset="0.45" style="stop-color:#FD3C20"/>
	<stop  offset="0.49" style="stop-color:#FF4022"/>
	<stop  offset="0.54" style="stop-color:#FD3B1F"/>
	<stop  offset="0.6" style="stop-color:#F72E18"/>
	<stop  offset="0.66" style="stop-color:#EE180C"/>
	<stop  offset="0.7" style="stop-color:#E50300"/>
	<stop  offset="0.73" style="stop-color:#DB0300"/>
	<stop  offset="0.79" style="stop-color:#C20300"/>
	<stop  offset="0.87" style="stop-color:#980300"/>
	<stop  offset="0.95" style="stop-color:#5E0300"/>
	<stop  offset="1" style="stop-color:#3B0300"/>
</linearGradient>
<path class="st15" d="M62.8,43.8c-0.1-0.5-0.4-0.9-0.7-1.3c-0.3-0.4-0.8-0.6-1.3-0.8c-0.9,0.4-1.6,1.1-2,2c0.6,1,1,2.2,1,3.5
	C60.5,45.9,61.6,44.7,62.8,43.8z"/>
<linearGradient id="SVGID_18_" gradientUnits="userSpaceOnUse" x1="83.5471" y1="32.6539" x2="82.189" y2="31.8631" gradientTransform="matrix(1 0 0 -1 0 133.89)">
	<stop  offset="0" style="stop-color:#920040"/>
	<stop  offset="5.000000e-02" style="stop-color:#AE0052"/>
	<stop  offset="0.12" style="stop-color:#D10069"/>
	<stop  offset="0.19" style="stop-color:#EA007A"/>
	<stop  offset="0.25" style="stop-color:#FA0084"/>
	<stop  offset="0.3" style="stop-color:#FF0087"/>
	<stop  offset="0.35" style="stop-color:#FF1A8B"/>
	<stop  offset="0.43" style="stop-color:#FF3F92"/>
	<stop  offset="0.5" style="stop-color:#FF5696"/>
	<stop  offset="0.55" style="stop-color:#FF5E97"/>
	<stop  offset="0.58" style="stop-color:#FF5696"/>
	<stop  offset="0.64" style="stop-color:#FF3F92"/>
	<stop  offset="0.71" style="stop-color:#FF198B"/>
	<stop  offset="0.75" style="stop-color:#FF0087"/>
	<stop  offset="0.79" style="stop-color:#FA0084"/>
	<stop  offset="0.84" style="stop-color:#EA007A"/>
	<stop  offset="0.9" style="stop-color:#D10069"/>
	<stop  offset="0.96" style="stop-color:#AE0053"/>
	<stop  offset="1" style="stop-color:#920040"/>
</linearGradient>
<path class="st16" d="M83.1,100.5c-0.5,0.1-1,0.4-1.3,0.7c0.4,0.3,0.8,0.8,0.9,1.3c0.5-0.1,1-0.2,1.4-0.5
	C83.6,101.6,83.3,101.1,83.1,100.5L83.1,100.5z"/>
<linearGradient id="SVGID_19_" gradientUnits="userSpaceOnUse" x1="104.4926" y1="118.0042" x2="102.8255" y2="118.2493" gradientTransform="matrix(1 0 0 -1 0 133.89)">
	<stop  offset="0" style="stop-color:#400300"/>
	<stop  offset="7.000000e-02" style="stop-color:#750300"/>
	<stop  offset="0.14" style="stop-color:#A50300"/>
	<stop  offset="0.21" style="stop-color:#C80300"/>
	<stop  offset="0.26" style="stop-color:#DD0300"/>
	<stop  offset="0.3" style="stop-color:#E50300"/>
	<stop  offset="0.34" style="stop-color:#EE190C"/>
	<stop  offset="0.39" style="stop-color:#F82E18"/>
	<stop  offset="0.45" style="stop-color:#FD3C20"/>
	<stop  offset="0.49" style="stop-color:#FF4022"/>
	<stop  offset="0.54" style="stop-color:#FD3B1F"/>
	<stop  offset="0.6" style="stop-color:#F72E18"/>
	<stop  offset="0.66" style="stop-color:#EE180C"/>
	<stop  offset="0.7" style="stop-color:#E50300"/>
	<stop  offset="0.73" style="stop-color:#DB0300"/>
	<stop  offset="0.79" style="stop-color:#C20300"/>
	<stop  offset="0.87" style="stop-color:#980300"/>
	<stop  offset="0.95" style="stop-color:#5E0300"/>
	<stop  offset="1" style="stop-color:#3B0300"/>
</linearGradient>
<path class="st17" d="M104,17.2c0.4-0.8,0.6-1.7,0.6-2.6c-0.5,0-1.1,0.1-1.6,0.3c0.1,0.6-0.1,1.1-0.4,1.6c0.3,0,0.5,0.1,0.7,0.2
	C103.7,16.8,103.9,17,104,17.2L104,17.2z"/>
<linearGradient id="SVGID_20_" gradientUnits="userSpaceOnUse" x1="121.6268" y1="59.6326" x2="119.6148" y2="58.435" gradientTransform="matrix(1 0 0 -1 0 133.89)">
	<stop  offset="0" style="stop-color:#0038AB"/>
	<stop  offset="0.11" style="stop-color:#0062C9"/>
	<stop  offset="0.27" style="stop-color:#0097F0"/>
	<stop  offset="0.35" style="stop-color:#00ACFF"/>
	<stop  offset="0.4" style="stop-color:#00BFFF"/>
	<stop  offset="0.47" style="stop-color:#00D2FF"/>
	<stop  offset="0.52" style="stop-color:#00D9FF"/>
	<stop  offset="0.66" style="stop-color:#00B8FF"/>
	<stop  offset="0.71" style="stop-color:#00ACFF"/>
	<stop  offset="0.76" style="stop-color:#00A2F8"/>
	<stop  offset="0.83" style="stop-color:#0086E3"/>
	<stop  offset="0.93" style="stop-color:#0059C3"/>
	<stop  offset="1" style="stop-color:#0038AB"/>
</linearGradient>
<path class="st18" d="M120.9,73.2c-0.6,0.5-1.3,0.7-2.1,0.6c0.5,1.1,1.1,2.1,2,3c0.6-0.3,1.2-0.8,1.7-1.3
	C121.7,74.9,121.2,74.1,120.9,73.2L120.9,73.2z"/>
<linearGradient id="SVGID_21_" gradientUnits="userSpaceOnUse" x1="37.7959" y1="131.5352" x2="40.528" y2="129.9225" gradientTransform="matrix(1 0 0 -1 0 133.89)">
	<stop  offset="0" style="stop-color:#AB3C00"/>
	<stop  offset="0.34" style="stop-color:#FFC700"/>
	<stop  offset="0.37" style="stop-color:#FFCD17"/>
	<stop  offset="0.41" style="stop-color:#FFD533"/>
	<stop  offset="0.44" style="stop-color:#FFDA46"/>
	<stop  offset="0.48" style="stop-color:#FFDD52"/>
	<stop  offset="0.52" style="stop-color:#FFDE56"/>
	<stop  offset="0.55" style="stop-color:#FFDD51"/>
	<stop  offset="0.59" style="stop-color:#FFD943"/>
	<stop  offset="0.62" style="stop-color:#FFD32B"/>
	<stop  offset="0.66" style="stop-color:#FFCA0B"/>
	<stop  offset="0.67" style="stop-color:#FFC700"/>
	<stop  offset="1" style="stop-color:#AB3C00"/>
</linearGradient>
<path class="st19" d="M39.4,0.5c-1.1,1-2,2.4-2.4,3.8c0.6,0.7,1.4,1.2,2.4,1.4C39.7,4.3,40.5,3,41.7,2c-0.5,0-1-0.2-1.4-0.5
	C39.9,1.3,39.6,0.9,39.4,0.5L39.4,0.5z"/>
<linearGradient id="SVGID_22_" gradientUnits="userSpaceOnUse" x1="121.9165" y1="114.619" x2="125.4758" y2="118.7258" gradientTransform="matrix(1 0 0 -1 0 133.89)">
	<stop  offset="0" style="stop-color:#005200"/>
	<stop  offset="0.19" style="stop-color:#00890B"/>
	<stop  offset="0.31" style="stop-color:#00A912"/>
	<stop  offset="0.33" style="stop-color:#11AD12"/>
	<stop  offset="0.37" style="stop-color:#3AB512"/>
	<stop  offset="0.41" style="stop-color:#5ABC12"/>
	<stop  offset="0.44" style="stop-color:#71C112"/>
	<stop  offset="0.48" style="stop-color:#7EC412"/>
	<stop  offset="0.51" style="stop-color:#83C512"/>
	<stop  offset="0.55" style="stop-color:#7FC412"/>
	<stop  offset="0.59" style="stop-color:#72C112"/>
	<stop  offset="0.63" style="stop-color:#5EBD12"/>
	<stop  offset="0.67" style="stop-color:#41B712"/>
	<stop  offset="0.72" style="stop-color:#1CAF12"/>
	<stop  offset="0.74" style="stop-color:#00A912"/>
	<stop  offset="0.78" style="stop-color:#009E10"/>
	<stop  offset="0.86" style="stop-color:#00800C"/>
	<stop  offset="0.95" style="stop-color:#005004"/>
	<stop  offset="1" style="stop-color:#003400"/>
</linearGradient>
<path class="st20" d="M124.2,21c1.6-0.9,2.8-2.2,3.5-3.9c-1.8-0.6-3.4-1.7-4.5-3.3c-1.5,0.8-2.9,1.8-4,3.2
	C121.2,18,122.9,19.4,124.2,21L124.2,21z"/>
<linearGradient id="SVGID_23_" gradientUnits="userSpaceOnUse" x1="76.8602" y1="90.7257" x2="75.5148" y2="92.193" gradientTransform="matrix(1 0 0 -1 0 133.89)">
	<stop  offset="0" style="stop-color:#400300"/>
	<stop  offset="7.000000e-02" style="stop-color:#750300"/>
	<stop  offset="0.14" style="stop-color:#A50300"/>
	<stop  offset="0.21" style="stop-color:#C80300"/>
	<stop  offset="0.26" style="stop-color:#DD0300"/>
	<stop  offset="0.3" style="stop-color:#E50300"/>
	<stop  offset="0.34" style="stop-color:#EE190C"/>
	<stop  offset="0.39" style="stop-color:#F82E18"/>
	<stop  offset="0.45" style="stop-color:#FD3C20"/>
	<stop  offset="0.49" style="stop-color:#FF4022"/>
	<stop  offset="0.54" style="stop-color:#FD3B1F"/>
	<stop  offset="0.6" style="stop-color:#F72E18"/>
	<stop  offset="0.66" style="stop-color:#EE180C"/>
	<stop  offset="0.7" style="stop-color:#E50300"/>
	<stop  offset="0.73" style="stop-color:#DB0300"/>
	<stop  offset="0.79" style="stop-color:#C20300"/>
	<stop  offset="0.87" style="stop-color:#980300"/>
	<stop  offset="0.95" style="stop-color:#5E0300"/>
	<stop  offset="1" style="stop-color:#3B0300"/>
</linearGradient>
<path class="st21" d="M75.5,44.1c1-0.5,1.8-1.3,2.5-2.1c-0.5-0.4-1.2-0.7-1.8-0.8c-0.4,0.6-0.9,1.1-1.5,1.3c0.2,0.2,0.5,0.4,0.6,0.7
	C75.4,43.5,75.5,43.8,75.5,44.1z"/>
<linearGradient id="SVGID_24_" gradientUnits="userSpaceOnUse" x1="-4838.459" y1="-222.4742" x2="-4835.269" y2="-222.2841" gradientTransform="matrix(1 0 0 -1 0 133.89)">
	<stop  offset="0" style="stop-color:#AB3C00"/>
	<stop  offset="0.34" style="stop-color:#FFC700"/>
	<stop  offset="0.37" style="stop-color:#FFCD17"/>
	<stop  offset="0.41" style="stop-color:#FFD533"/>
	<stop  offset="0.44" style="stop-color:#FFDA46"/>
	<stop  offset="0.48" style="stop-color:#FFDD52"/>
	<stop  offset="0.52" style="stop-color:#FFDE56"/>
	<stop  offset="0.55" style="stop-color:#FFDD51"/>
	<stop  offset="0.59" style="stop-color:#FFD943"/>
	<stop  offset="0.62" style="stop-color:#FFD32B"/>
	<stop  offset="0.66" style="stop-color:#FFCA0B"/>
	<stop  offset="0.67" style="stop-color:#FFC700"/>
	<stop  offset="1" style="stop-color:#AB3C00"/>
</linearGradient>
<path class="st22" d="M19.6,67.6c0.5,0.2,1,0.2,1.5,0c-0.2-0.5-0.3-1.1-0.1-1.6c-0.5-0.2-1-0.3-1.5-0.3C19.6,66.3,19.7,67,19.6,67.6
	L19.6,67.6z"/>
<linearGradient id="SVGID_25_" gradientUnits="userSpaceOnUse" x1="39.7854" y1="73.5998" x2="41.563" y2="76.2588" gradientTransform="matrix(1 0 0 -1 0 133.89)">
	<stop  offset="0" style="stop-color:#0038AB"/>
	<stop  offset="0.11" style="stop-color:#0062C9"/>
	<stop  offset="0.27" style="stop-color:#0097F0"/>
	<stop  offset="0.35" style="stop-color:#00ACFF"/>
	<stop  offset="0.4" style="stop-color:#00BFFF"/>
	<stop  offset="0.47" style="stop-color:#00D2FF"/>
	<stop  offset="0.52" style="stop-color:#00D9FF"/>
	<stop  offset="0.66" style="stop-color:#00B8FF"/>
	<stop  offset="0.71" style="stop-color:#00ACFF"/>
	<stop  offset="0.76" style="stop-color:#00A2F8"/>
	<stop  offset="0.83" style="stop-color:#0086E3"/>
	<stop  offset="0.93" style="stop-color:#0059C3"/>
	<stop  offset="1" style="stop-color:#0038AB"/>
</linearGradient>
<path class="st23" d="M39,56.4c-0.4,0.8-1,1.6-1.8,2.2c1.7,0.7,3.4,1.6,4.9,2.7c0.9-0.4,1.6-1.1,2-1.9C42.5,58.2,40.8,57.2,39,56.4
	L39,56.4z"/>
<linearGradient id="SVGID_26_" gradientUnits="userSpaceOnUse" x1="91.3659" y1="64.1801" x2="96.6562" y2="65.6609" gradientTransform="matrix(1 0 0 -1 0 133.89)">
	<stop  offset="0" style="stop-color:#400300"/>
	<stop  offset="7.000000e-02" style="stop-color:#750300"/>
	<stop  offset="0.14" style="stop-color:#A50300"/>
	<stop  offset="0.21" style="stop-color:#C80300"/>
	<stop  offset="0.26" style="stop-color:#DD0300"/>
	<stop  offset="0.3" style="stop-color:#E50300"/>
	<stop  offset="0.34" style="stop-color:#EE190C"/>
	<stop  offset="0.39" style="stop-color:#F82E18"/>
	<stop  offset="0.45" style="stop-color:#FD3C20"/>
	<stop  offset="0.49" style="stop-color:#FF4022"/>
	<stop  offset="0.54" style="stop-color:#FD3B1F"/>
	<stop  offset="0.6" style="stop-color:#F72E18"/>
	<stop  offset="0.66" style="stop-color:#EE180C"/>
	<stop  offset="0.7" style="stop-color:#E50300"/>
	<stop  offset="0.73" style="stop-color:#DB0300"/>
	<stop  offset="0.79" style="stop-color:#C20300"/>
	<stop  offset="0.87" style="stop-color:#980300"/>
	<stop  offset="0.95" style="stop-color:#5E0300"/>
	<stop  offset="1" style="stop-color:#3B0300"/>
</linearGradient>
<path class="st24" d="M91.4,66.8c0.9,1.2,1.3,2.8,0.9,6.4c1.7-0.1,3.3-0.7,4.5-1.8c0.1-2.4-0.5-4.7-1.5-6.8
	C94.3,65.7,92.9,66.5,91.4,66.8z"/>
<linearGradient id="SVGID_27_" gradientUnits="userSpaceOnUse" x1="113.1945" y1="102.132" x2="112.8818" y2="99.4742" gradientTransform="matrix(1 0 0 -1 0 133.89)">
	<stop  offset="0" style="stop-color:#400300"/>
	<stop  offset="7.000000e-02" style="stop-color:#750300"/>
	<stop  offset="0.14" style="stop-color:#A50300"/>
	<stop  offset="0.21" style="stop-color:#C80300"/>
	<stop  offset="0.26" style="stop-color:#DD0300"/>
	<stop  offset="0.3" style="stop-color:#E50300"/>
	<stop  offset="0.34" style="stop-color:#EE190C"/>
	<stop  offset="0.39" style="stop-color:#F82E18"/>
	<stop  offset="0.45" style="stop-color:#FD3C20"/>
	<stop  offset="0.49" style="stop-color:#FF4022"/>
	<stop  offset="0.54" style="stop-color:#FD3B1F"/>
	<stop  offset="0.6" style="stop-color:#F72E18"/>
	<stop  offset="0.66" style="stop-color:#EE180C"/>
	<stop  offset="0.7" style="stop-color:#E50300"/>
	<stop  offset="0.73" style="stop-color:#DB0300"/>
	<stop  offset="0.79" style="stop-color:#C20300"/>
	<stop  offset="0.87" style="stop-color:#980300"/>
	<stop  offset="0.95" style="stop-color:#5E0300"/>
	<stop  offset="1" style="stop-color:#3B0300"/>
</linearGradient>
<path class="st25" d="M115.6,34.7c0.1-0.5,0.2-0.9,0.1-1.4c-0.1-0.5-0.2-0.9-0.5-1.3c-1.6,0.1-3.2,0-4.8-0.3c0.1,0.5,0.1,1,0,1.5
	C112.2,33.5,113.9,34,115.6,34.7L115.6,34.7z"/>
<linearGradient id="SVGID_28_" gradientUnits="userSpaceOnUse" x1="30.5603" y1="58.5445" x2="33.787" y2="56.1595" gradientTransform="matrix(1 0 0 -1 0 133.89)">
	<stop  offset="0" style="stop-color:#0038AB"/>
	<stop  offset="0.11" style="stop-color:#0062C9"/>
	<stop  offset="0.27" style="stop-color:#0097F0"/>
	<stop  offset="0.35" style="stop-color:#00ACFF"/>
	<stop  offset="0.4" style="stop-color:#00BFFF"/>
	<stop  offset="0.47" style="stop-color:#00D2FF"/>
	<stop  offset="0.52" style="stop-color:#00D9FF"/>
	<stop  offset="0.66" style="stop-color:#00B8FF"/>
	<stop  offset="0.71" style="stop-color:#00ACFF"/>
	<stop  offset="0.76" style="stop-color:#00A2F8"/>
	<stop  offset="0.83" style="stop-color:#0086E3"/>
	<stop  offset="0.93" style="stop-color:#0059C3"/>
	<stop  offset="1" style="stop-color:#0038AB"/>
</linearGradient>
<path class="st26" d="M32.7,73c-1,1.9-2.3,3.5-4,4.8c0.7,0.9,1.6,1.5,2.7,1.9c1.7-1.3,3.2-2.9,4.4-4.7C34,74.8,33.2,74.3,32.7,73z"
	/>
<linearGradient id="SVGID_29_" gradientUnits="userSpaceOnUse" x1="65.8465" y1="114.8761" x2="63.8123" y2="115.0495" gradientTransform="matrix(1 0 0 -1 0 133.89)">
	<stop  offset="0" style="stop-color:#AB3C00"/>
	<stop  offset="0.34" style="stop-color:#FFC700"/>
	<stop  offset="0.37" style="stop-color:#FFCD17"/>
	<stop  offset="0.41" style="stop-color:#FFD533"/>
	<stop  offset="0.44" style="stop-color:#FFDA46"/>
	<stop  offset="0.48" style="stop-color:#FFDD52"/>
	<stop  offset="0.52" style="stop-color:#FFDE56"/>
	<stop  offset="0.55" style="stop-color:#FFDD51"/>
	<stop  offset="0.59" style="stop-color:#FFD943"/>
	<stop  offset="0.62" style="stop-color:#FFD32B"/>
	<stop  offset="0.66" style="stop-color:#FFCA0B"/>
	<stop  offset="0.67" style="stop-color:#FFC700"/>
	<stop  offset="1" style="stop-color:#AB3C00"/>
</linearGradient>
<path class="st27" d="M65.3,20.6c0.4-1,0.6-2.1,0.6-3.1c-0.7,0-1.3,0.2-1.9,0.5c0.1,0.7,0,1.3-0.3,1.9c0.3,0,0.6,0.1,0.9,0.2
	C64.9,20.1,65.1,20.3,65.3,20.6L65.3,20.6z"/>
<linearGradient id="SVGID_30_" gradientUnits="userSpaceOnUse" x1="92.9093" y1="82.9363" x2="90.2246" y2="79.1927" gradientTransform="matrix(1 0 0 -1 0 133.89)">
	<stop  offset="0" style="stop-color:#920040"/>
	<stop  offset="5.000000e-02" style="stop-color:#AE0052"/>
	<stop  offset="0.12" style="stop-color:#D10069"/>
	<stop  offset="0.19" style="stop-color:#EA007A"/>
	<stop  offset="0.25" style="stop-color:#FA0084"/>
	<stop  offset="0.3" style="stop-color:#FF0087"/>
	<stop  offset="0.35" style="stop-color:#FF1A8B"/>
	<stop  offset="0.43" style="stop-color:#FF3F92"/>
	<stop  offset="0.5" style="stop-color:#FF5696"/>
	<stop  offset="0.55" style="stop-color:#FF5E97"/>
	<stop  offset="0.58" style="stop-color:#FF5696"/>
	<stop  offset="0.64" style="stop-color:#FF3F92"/>
	<stop  offset="0.71" style="stop-color:#FF198B"/>
	<stop  offset="0.75" style="stop-color:#FF0087"/>
	<stop  offset="0.79" style="stop-color:#FA0084"/>
	<stop  offset="0.84" style="stop-color:#EA007A"/>
	<stop  offset="0.9" style="stop-color:#D10069"/>
	<stop  offset="0.96" style="stop-color:#AE0053"/>
	<stop  offset="1" style="stop-color:#920040"/>
</linearGradient>
<path class="st28" d="M95.4,53.7c-1.5-1.9-3.3-3.5-5.4-4.8c-0.8,1.3-1.2,2.7-1.2,4.2c1.4,0.6,2.6,1.6,3.4,2.9
	c0.3-0.6,0.8-1.1,1.4-1.5C94,54.1,94.7,53.8,95.4,53.7L95.4,53.7z"/>
<linearGradient id="SVGID_31_" gradientUnits="userSpaceOnUse" x1="49.0233" y1="67.5091" x2="48.6281" y2="68.5814" gradientTransform="matrix(1 0 0 -1 0 133.89)">
	<stop  offset="0" style="stop-color:#AB3C00"/>
	<stop  offset="0.34" style="stop-color:#FFC700"/>
	<stop  offset="0.37" style="stop-color:#FFCD17"/>
	<stop  offset="0.41" style="stop-color:#FFD533"/>
	<stop  offset="0.44" style="stop-color:#FFDA46"/>
	<stop  offset="0.48" style="stop-color:#FFDD52"/>
	<stop  offset="0.52" style="stop-color:#FFDE56"/>
	<stop  offset="0.55" style="stop-color:#FFDD51"/>
	<stop  offset="0.59" style="stop-color:#FFD943"/>
	<stop  offset="0.62" style="stop-color:#FFD32B"/>
	<stop  offset="0.66" style="stop-color:#FFCA0B"/>
	<stop  offset="0.67" style="stop-color:#FFC700"/>
	<stop  offset="1" style="stop-color:#AB3C00"/>
</linearGradient>
<path class="st29" d="M50.1,65.8c-0.1-0.1-0.2-0.2-0.2-0.4c0-0.1-0.1-0.3,0-0.4c-0.8,0.2-1.5,0.5-2.2,0.8c0,0.4,0.1,0.7,0.3,1
	C48.5,66.3,49.3,65.9,50.1,65.8L50.1,65.8z"/>
<linearGradient id="SVGID_32_" gradientUnits="userSpaceOnUse" x1="65.1343" y1="33.0444" x2="64.0746" y2="35.3851" gradientTransform="matrix(1 0 0 -1 0 133.89)">
	<stop  offset="0" style="stop-color:#005200"/>
	<stop  offset="0.19" style="stop-color:#00890B"/>
	<stop  offset="0.31" style="stop-color:#00A912"/>
	<stop  offset="0.33" style="stop-color:#11AD12"/>
	<stop  offset="0.37" style="stop-color:#3AB512"/>
	<stop  offset="0.41" style="stop-color:#5ABC12"/>
	<stop  offset="0.44" style="stop-color:#71C112"/>
	<stop  offset="0.48" style="stop-color:#7EC412"/>
	<stop  offset="0.51" style="stop-color:#83C512"/>
	<stop  offset="0.55" style="stop-color:#7FC412"/>
	<stop  offset="0.59" style="stop-color:#72C112"/>
	<stop  offset="0.63" style="stop-color:#5EBD12"/>
	<stop  offset="0.67" style="stop-color:#41B712"/>
	<stop  offset="0.72" style="stop-color:#1CAF12"/>
	<stop  offset="0.74" style="stop-color:#00A912"/>
	<stop  offset="0.78" style="stop-color:#009E10"/>
	<stop  offset="0.86" style="stop-color:#00800C"/>
	<stop  offset="0.95" style="stop-color:#005004"/>
	<stop  offset="1" style="stop-color:#003400"/>
</linearGradient>
<path class="st30" d="M67.6,98.9c-0.1-0.6-0.4-1.2-0.9-1.6c-1.5,1.3-3.2,2.4-5,3.1c0.4,0.4,0.6,1,0.6,1.6
	C64.2,101.4,66,100.3,67.6,98.9L67.6,98.9z"/>
<linearGradient id="SVGID_33_" gradientUnits="userSpaceOnUse" x1="8321.9297" y1="-1118.6678" x2="8770.3301" y2="-1182.6678" gradientTransform="matrix(1 0 0 -1 0 133.89)">
	<stop  offset="0" style="stop-color:#DA0000"/>
	<stop  offset="9.000000e-02" style="stop-color:#E61014"/>
	<stop  offset="0.24" style="stop-color:#F82832"/>
	<stop  offset="0.33" style="stop-color:#FF313D"/>
	<stop  offset="0.36" style="stop-color:#FE404A"/>
	<stop  offset="0.42" style="stop-color:#FB5C63"/>
	<stop  offset="0.47" style="stop-color:#FA6E73"/>
	<stop  offset="0.51" style="stop-color:#F97478"/>
	<stop  offset="0.67" style="stop-color:#FF313D"/>
	<stop  offset="0.69" style="stop-color:#FA2C37"/>
	<stop  offset="0.81" style="stop-color:#DE141B"/>
	<stop  offset="0.92" style="stop-color:#CD0509"/>
	<stop  offset="1" style="stop-color:#C70003"/>
</linearGradient>
<path class="st31" d="M83.7,87.7C83.1,87.9,82.5,88,82,88c4-4.1,4.6-16.5,12.9-20.5l0.3-0.2l0.2-0.1c0.4-0.1,0.7-0.2,1.1-0.3
	c-7.6,5.1-7.7,18.1-12.7,20.5L83.7,87.7z"/>
<linearGradient id="SVGID_34_" gradientUnits="userSpaceOnUse" x1="26231.5996" y1="47.22" x2="26510" y2="47.22" gradientTransform="matrix(1 0 0 -1 0 133.89)">
	<stop  offset="0" style="stop-color:#DA0000"/>
	<stop  offset="9.000000e-02" style="stop-color:#E61014"/>
	<stop  offset="0.24" style="stop-color:#F82832"/>
	<stop  offset="0.33" style="stop-color:#FF313D"/>
	<stop  offset="0.36" style="stop-color:#FE404A"/>
	<stop  offset="0.42" style="stop-color:#FB5C63"/>
	<stop  offset="0.47" style="stop-color:#FA6E73"/>
	<stop  offset="0.51" style="stop-color:#F97478"/>
	<stop  offset="0.67" style="stop-color:#FF313D"/>
	<stop  offset="0.69" style="stop-color:#FA2C37"/>
	<stop  offset="0.81" style="stop-color:#DE141B"/>
	<stop  offset="0.92" style="stop-color:#CD0509"/>
	<stop  offset="1" style="stop-color:#C70003"/>
</linearGradient>
<path class="st32" d="M83.7,87.7l-3.2,1.4c-5.4,2.2-16.8-5.7-22.5-3.4l3.2-1.4c5.2-2.1,14.9,4.1,20.8,3.7
	C82.5,88,83.1,87.9,83.7,87.7L83.7,87.7z"/>
<linearGradient id="SVGID_35_" gradientUnits="userSpaceOnUse" x1="48.7614" y1="59.5684" x2="56.7959" y2="50.0203" gradientTransform="matrix(1 0 0 -1 0 133.89)">
	<stop  offset="0" style="stop-color:#003400"/>
	<stop  offset="8.000000e-02" style="stop-color:#005205"/>
	<stop  offset="0.19" style="stop-color:#00780A"/>
	<stop  offset="0.3" style="stop-color:#00930F"/>
	<stop  offset="0.4" style="stop-color:#00A311"/>
	<stop  offset="0.47" style="stop-color:#00A912"/>
	<stop  offset="0.6" style="stop-color:#00A912"/>
	<stop  offset="0.67" style="stop-color:#009E10"/>
	<stop  offset="0.78" style="stop-color:#00800C"/>
	<stop  offset="0.92" style="stop-color:#005004"/>
	<stop  offset="1" style="stop-color:#003400"/>
</linearGradient>
<path class="st33" d="M60.4,80.6C56.6,83.3,47.8,77.3,43,79l2.1-1.7c4.4-1.6,12.3,3.4,16.5,2.1c0.3-0.1,0.6-0.2,0.8-0.4l-1.4,1.2
	L60.4,80.6z"/>
<linearGradient id="SVGID_36_" gradientUnits="userSpaceOnUse" x1="4979.0327" y1="-555.0095" x2="5141.5928" y2="-575.5095" gradientTransform="matrix(1 0 0 -1 0 133.89)">
	<stop  offset="0" style="stop-color:#003400"/>
	<stop  offset="8.000000e-02" style="stop-color:#005205"/>
	<stop  offset="0.19" style="stop-color:#00780A"/>
	<stop  offset="0.3" style="stop-color:#00930F"/>
	<stop  offset="0.4" style="stop-color:#00A311"/>
	<stop  offset="0.47" style="stop-color:#00A912"/>
	<stop  offset="0.6" style="stop-color:#00A912"/>
	<stop  offset="0.67" style="stop-color:#009E10"/>
	<stop  offset="0.78" style="stop-color:#00800C"/>
	<stop  offset="0.92" style="stop-color:#005004"/>
	<stop  offset="1" style="stop-color:#003400"/>
</linearGradient>
<path class="st34" d="M64.4,72.1c-2.2-1-4-2.6-5.4-4.6c-0.7-1-0.8-1.6-0.6-1.9C59.2,64.8,63.5,67.6,64.4,72.1z"/>
<linearGradient id="SVGID_37_" gradientUnits="userSpaceOnUse" x1="4139.1377" y1="-274.412" x2="4226.0679" y2="-281.7821" gradientTransform="matrix(1 0 0 -1 0 133.89)">
	<stop  offset="0" style="stop-color:#003400"/>
	<stop  offset="8.000000e-02" style="stop-color:#005205"/>
	<stop  offset="0.19" style="stop-color:#00780A"/>
	<stop  offset="0.3" style="stop-color:#00930F"/>
	<stop  offset="0.4" style="stop-color:#00A311"/>
	<stop  offset="0.47" style="stop-color:#00A912"/>
	<stop  offset="0.6" style="stop-color:#00A912"/>
	<stop  offset="0.67" style="stop-color:#009E10"/>
	<stop  offset="0.78" style="stop-color:#00800C"/>
	<stop  offset="0.92" style="stop-color:#005004"/>
	<stop  offset="1" style="stop-color:#003400"/>
</linearGradient>
<path class="st35" d="M70.6,65.7c-1.7-0.9-3.1-2.2-4.1-3.8c-0.4-0.7-0.5-1.1-0.4-1.2C66.6,60.3,69.3,62.5,70.6,65.7z"/>
<linearGradient id="SVGID_38_" gradientUnits="userSpaceOnUse" x1="2506.436" y1="-54.2877" x2="2558.4658" y2="-56.8082" gradientTransform="matrix(1 0 0 -1 0 133.89)">
	<stop  offset="0" style="stop-color:#003400"/>
	<stop  offset="8.000000e-02" style="stop-color:#005205"/>
	<stop  offset="0.19" style="stop-color:#00780A"/>
	<stop  offset="0.3" style="stop-color:#00930F"/>
	<stop  offset="0.4" style="stop-color:#00A311"/>
	<stop  offset="0.47" style="stop-color:#00A912"/>
	<stop  offset="0.6" style="stop-color:#00A912"/>
	<stop  offset="0.67" style="stop-color:#009E10"/>
	<stop  offset="0.78" style="stop-color:#00800C"/>
	<stop  offset="0.92" style="stop-color:#005004"/>
	<stop  offset="1" style="stop-color:#003400"/>
</linearGradient>
<path class="st36" d="M69.9,72l-0.1,0.1c-0.2,0.1-0.4,0.2-0.5,0.3c-0.2,0.1-0.4,0.2-0.6,0.2c0.2-0.4,0.3-0.9,0.4-1.3
	c0.2-1.3,0-2.7-0.5-3.9c0.9,0.5,1.8,0.8,2.7,1.1c0,0.3,0,0.7,0,1c-0.1,0.6-0.3,1.2-0.6,1.7C70.4,71.6,70.2,71.8,69.9,72L69.9,72z"/>
<linearGradient id="SVGID_39_" gradientUnits="userSpaceOnUse" x1="1927.359" y1="-62.5784" x2="1954.4989" y2="-64.5086" gradientTransform="matrix(1 0 0 -1 0 133.89)">
	<stop  offset="0" style="stop-color:#003400"/>
	<stop  offset="8.000000e-02" style="stop-color:#005205"/>
	<stop  offset="0.19" style="stop-color:#00780A"/>
	<stop  offset="0.3" style="stop-color:#00930F"/>
	<stop  offset="0.4" style="stop-color:#00A311"/>
	<stop  offset="0.47" style="stop-color:#00A912"/>
	<stop  offset="0.6" style="stop-color:#00A912"/>
	<stop  offset="0.67" style="stop-color:#009E10"/>
	<stop  offset="0.78" style="stop-color:#00800C"/>
	<stop  offset="0.92" style="stop-color:#005004"/>
	<stop  offset="1" style="stop-color:#003400"/>
</linearGradient>
<path class="st37" d="M77.6,66.5c-0.4,0.3-0.8,0.5-1.3,0.6c0.2-0.9,0.2-1.8,0-2.6l2.1-1.8C78.8,64.6,78.4,65.8,77.6,66.5z"/>
<linearGradient id="SVGID_40_" gradientUnits="userSpaceOnUse" x1="2532.0679" y1="-127.9091" x2="2613.6978" y2="-134.0293" gradientTransform="matrix(1 0 0 -1 0 133.89)">
	<stop  offset="0" style="stop-color:#003400"/>
	<stop  offset="8.000000e-02" style="stop-color:#005205"/>
	<stop  offset="0.19" style="stop-color:#00780A"/>
	<stop  offset="0.3" style="stop-color:#00930F"/>
	<stop  offset="0.4" style="stop-color:#00A311"/>
	<stop  offset="0.47" style="stop-color:#00A912"/>
	<stop  offset="0.6" style="stop-color:#00A912"/>
	<stop  offset="0.67" style="stop-color:#009E10"/>
	<stop  offset="0.78" style="stop-color:#00800C"/>
	<stop  offset="0.92" style="stop-color:#005004"/>
	<stop  offset="1" style="stop-color:#003400"/>
</linearGradient>
<path class="st38" d="M62.4,79c-0.3,0.2-0.5,0.3-0.8,0.4c0-0.1,0.1-0.2,0.2-0.4c0.7-1.6,0.9-3.4,0.6-5.1c0.7,0.3,1.5,0.5,2.2,0.7
	c-0.1,0.9-0.3,1.8-0.7,2.7c-0.2,0.4-0.4,0.8-0.7,1.1C62.9,78.6,62.7,78.8,62.4,79L62.4,79z"/>
<linearGradient id="SVGID_41_" gradientUnits="userSpaceOnUse" x1="14594.5" y1="69.0029" x2="14740" y2="69.0029" gradientTransform="matrix(1 0 0 -1 0 133.89)">
	<stop  offset="0" style="stop-color:#003400"/>
	<stop  offset="8.000000e-02" style="stop-color:#005205"/>
	<stop  offset="0.19" style="stop-color:#00780A"/>
	<stop  offset="0.3" style="stop-color:#00930F"/>
	<stop  offset="0.4" style="stop-color:#00A311"/>
	<stop  offset="0.47" style="stop-color:#00A912"/>
	<stop  offset="0.6" style="stop-color:#00A912"/>
	<stop  offset="0.67" style="stop-color:#009E10"/>
	<stop  offset="0.78" style="stop-color:#00800C"/>
	<stop  offset="0.92" style="stop-color:#005004"/>
	<stop  offset="1" style="stop-color:#003400"/>
</linearGradient>
<path class="st39" d="M77.6,66.5l-2.1,1.8c-1,0.8-2.6,0.9-4.4,0.3c-0.9-0.3-1.8-0.6-2.7-1.1c-1.7-0.9-3.1-2.2-4.1-3.8
	c-0.4-0.7-0.5-1.1-0.4-1.2l2.1-1.8c-0.1,0.1-0.1,0.5,0.4,1.2c1,1.6,2.5,2.9,4.1,3.8c1.7,1.1,3.7,1.6,5.7,1.4
	C76.8,67.1,77.3,66.8,77.6,66.5z"/>
<linearGradient id="SVGID_42_" gradientUnits="userSpaceOnUse" x1="14434.7998" y1="63.7654" x2="14583.7002" y2="63.7654" gradientTransform="matrix(1 0 0 -1 0 133.89)">
	<stop  offset="0" style="stop-color:#003400"/>
	<stop  offset="8.000000e-02" style="stop-color:#005205"/>
	<stop  offset="0.19" style="stop-color:#00780A"/>
	<stop  offset="0.3" style="stop-color:#00930F"/>
	<stop  offset="0.4" style="stop-color:#00A311"/>
	<stop  offset="0.47" style="stop-color:#00A912"/>
	<stop  offset="0.6" style="stop-color:#00A912"/>
	<stop  offset="0.67" style="stop-color:#009E10"/>
	<stop  offset="0.78" style="stop-color:#00800C"/>
	<stop  offset="0.92" style="stop-color:#005004"/>
	<stop  offset="1" style="stop-color:#003400"/>
</linearGradient>
<path class="st40" d="M69.8,72.1l-2.1,1.8c-0.5,0.3-1,0.5-1.5,0.6c-0.5,0.1-1.1,0.1-1.7,0c-0.8-0.1-1.5-0.4-2.2-0.7
	c-2.2-1-4-2.6-5.4-4.6c-0.7-1-0.8-1.6-0.6-1.9l2.1-1.8c-0.2,0.3-0.1,0.9,0.6,1.9c1.3,2,3.2,3.6,5.4,4.6c1.3,0.7,2.8,0.9,4.2,0.6
	c0.2-0.1,0.4-0.1,0.6-0.2C69.4,72.4,69.6,72.2,69.8,72.1L69.8,72.1z"/>
<linearGradient id="SVGID_43_" gradientUnits="userSpaceOnUse" x1="6759.1343" y1="-1818.2306" x2="6897.4844" y2="-1857.1426" gradientTransform="matrix(1 0 0 -1 0 133.89)">
	<stop  offset="0" style="stop-color:#0038AB"/>
	<stop  offset="0.16" style="stop-color:#0062C9"/>
	<stop  offset="0.38" style="stop-color:#0097F0"/>
	<stop  offset="0.48" style="stop-color:#00ACFF"/>
	<stop  offset="0.57" style="stop-color:#00ACFF"/>
	<stop  offset="0.64" style="stop-color:#00A2F8"/>
	<stop  offset="0.75" style="stop-color:#0086E3"/>
	<stop  offset="0.9" style="stop-color:#0059C3"/>
	<stop  offset="1" style="stop-color:#0038AB"/>
</linearGradient>
<path class="st41" d="M42.8,58l-1.2,4.5C41.1,64.2,30.7,60,29,64.3l1.1-3.9c0.6-3.4,5.4-2.7,9-2.2C41,58.5,42.7,58.7,42.8,58z"/>
<linearGradient id="SVGID_44_" gradientUnits="userSpaceOnUse" x1="3421.3464" y1="-1616.3892" x2="3631.0564" y2="-1721.5691" gradientTransform="matrix(1 0 0 -1 0 133.89)">
	<stop  offset="0" style="stop-color:#0038AB"/>
	<stop  offset="0.16" style="stop-color:#0062C9"/>
	<stop  offset="0.38" style="stop-color:#0097F0"/>
	<stop  offset="0.48" style="stop-color:#00ACFF"/>
	<stop  offset="0.57" style="stop-color:#00ACFF"/>
	<stop  offset="0.64" style="stop-color:#00A2F8"/>
	<stop  offset="0.75" style="stop-color:#0086E3"/>
	<stop  offset="0.9" style="stop-color:#0059C3"/>
	<stop  offset="1" style="stop-color:#0038AB"/>
</linearGradient>
<path class="st42" d="M42.8,58c-0.2,0.7-1.8,0.5-3.9,0.2c-2.4-2.9-5.6-6.6-5.1-8.6l0.1-0.2c0.2-0.4,0.5-0.7,0.8-0.9
	c0.3-0.2,0.7-0.4,1.1-0.5C37.8,51.6,43.2,56.6,42.8,58z"/>
<linearGradient id="SVGID_45_" gradientUnits="userSpaceOnUse" x1="6273.7568" y1="-1663.9115" x2="6382.707" y2="-1694.5535" gradientTransform="matrix(1 0 0 -1 0 133.89)">
	<stop  offset="0" style="stop-color:#0038AB"/>
	<stop  offset="0.16" style="stop-color:#0062C9"/>
	<stop  offset="0.38" style="stop-color:#0097F0"/>
	<stop  offset="0.48" style="stop-color:#00ACFF"/>
	<stop  offset="0.57" style="stop-color:#00ACFF"/>
	<stop  offset="0.64" style="stop-color:#00A2F8"/>
	<stop  offset="0.75" style="stop-color:#0086E3"/>
	<stop  offset="0.9" style="stop-color:#0059C3"/>
	<stop  offset="1" style="stop-color:#0038AB"/>
</linearGradient>
<path class="st43" d="M46.8,39.9l-1.2,4.5c-0.8,3-6.6,2.5-9.8,3.6c-0.4,0.1-0.8,0.3-1.1,0.5c-0.3,0.2-0.6,0.6-0.8,0.9l1.2-4.4
	c0.9-2.5,7.1-1.8,10.1-3.4c0.4-0.2,0.7-0.4,1-0.7C46.5,40.7,46.7,40.3,46.8,39.9z"/>
<linearGradient id="SVGID_46_" gradientUnits="userSpaceOnUse" x1="2449.1094" y1="-713.8725" x2="2589.9695" y2="-761.5627" gradientTransform="matrix(1 0 0 -1 0 133.89)">
	<stop  offset="0" style="stop-color:#0038AB"/>
	<stop  offset="0.16" style="stop-color:#0062C9"/>
	<stop  offset="0.38" style="stop-color:#0097F0"/>
	<stop  offset="0.48" style="stop-color:#00ACFF"/>
	<stop  offset="0.57" style="stop-color:#00ACFF"/>
	<stop  offset="0.64" style="stop-color:#00A2F8"/>
	<stop  offset="0.75" style="stop-color:#0086E3"/>
	<stop  offset="0.9" style="stop-color:#0059C3"/>
	<stop  offset="1" style="stop-color:#0038AB"/>
</linearGradient>
<path class="st44" d="M46.8,39.9c-0.1,0.4-0.3,0.7-0.6,1c-0.3,0.3-0.6,0.5-1,0.7c-1.3-3.1-5.1-6.7-4.3-12.6c0.1-0.6,0.2-1.2,0.4-1.9
	c0.2-0.7,0.5-1.4,0.8-2.1C41.5,32.4,47.9,36.1,46.8,39.9z"/>
<linearGradient id="SVGID_47_" gradientUnits="userSpaceOnUse" x1="6975.5542" y1="-1834.3268" x2="7094.0239" y2="-1867.6467" gradientTransform="matrix(1 0 0 -1 0 133.89)">
	<stop  offset="0" style="stop-color:#0038AB"/>
	<stop  offset="0.16" style="stop-color:#0062C9"/>
	<stop  offset="0.38" style="stop-color:#0097F0"/>
	<stop  offset="0.48" style="stop-color:#00ACFF"/>
	<stop  offset="0.57" style="stop-color:#00ACFF"/>
	<stop  offset="0.64" style="stop-color:#00A2F8"/>
	<stop  offset="0.75" style="stop-color:#0086E3"/>
	<stop  offset="0.9" style="stop-color:#0059C3"/>
	<stop  offset="1" style="stop-color:#0038AB"/>
</linearGradient>
<path class="st45" d="M55.5,12.7l-1.2,4.5c0,0-8.7,1.2-12.1,8c-0.3,0.7-0.6,1.4-0.8,2.1l1.2-4.5C45,14.1,55.5,12.7,55.5,12.7z"/>
<linearGradient id="SVGID_48_" gradientUnits="userSpaceOnUse" x1="10471.623" y1="2854.5823" x2="10808.3037" y2="2944.6121" gradientTransform="matrix(1 0 0 -1 0 133.89)">
	<stop  offset="0" style="stop-color:#AB3C00"/>
	<stop  offset="0.47" style="stop-color:#FFC700"/>
	<stop  offset="0.59" style="stop-color:#FFC700"/>
	<stop  offset="1" style="stop-color:#AB3C00"/>
</linearGradient>
<path class="st46" d="M113.6,50.2c-2.2,0.6-4.6,0.6-6.8-0.2l5.9-1.8c1.4,0.5,2.9,0.7,4.4,0.6c-0.8,0.4-1.7,0.8-2.6,1.1L113.6,50.2z"
	/>
<linearGradient id="SVGID_49_" gradientUnits="userSpaceOnUse" x1="6181.438" y1="-3928.5083" x2="6206.8374" y2="-3945.1414" gradientTransform="matrix(1 0 0 -1 0 133.89)">
	<stop  offset="0" style="stop-color:#DA0000"/>
	<stop  offset="9.000000e-02" style="stop-color:#E61014"/>
	<stop  offset="0.24" style="stop-color:#F82832"/>
	<stop  offset="0.33" style="stop-color:#FF313D"/>
	<stop  offset="0.36" style="stop-color:#FE404A"/>
	<stop  offset="0.42" style="stop-color:#FB5C63"/>
	<stop  offset="0.47" style="stop-color:#FA6E73"/>
	<stop  offset="0.51" style="stop-color:#F97478"/>
	<stop  offset="0.67" style="stop-color:#FF313D"/>
	<stop  offset="0.69" style="stop-color:#FA2C37"/>
	<stop  offset="0.81" style="stop-color:#DE141B"/>
	<stop  offset="0.92" style="stop-color:#CD0509"/>
	<stop  offset="1" style="stop-color:#C70003"/>
</linearGradient>
<path class="st47" d="M67,51.8l-2.8,4.3L64,56.4c-1.1,1.6-3.3,1.9-6,2.4l2.9-4.5c1.4-0.2,2.7-0.5,4-0.9C65.7,53.1,66.5,52.6,67,51.8
	z"/>
<linearGradient id="SVGID_50_" gradientUnits="userSpaceOnUse" x1="2643.8774" y1="-1655.6232" x2="2752.978" y2="-1729.423" gradientTransform="matrix(1 0 0 -1 0 133.89)">
	<stop  offset="0" style="stop-color:#DA0000"/>
	<stop  offset="9.000000e-02" style="stop-color:#E61014"/>
	<stop  offset="0.24" style="stop-color:#F82832"/>
	<stop  offset="0.33" style="stop-color:#FF313D"/>
	<stop  offset="0.36" style="stop-color:#FE404A"/>
	<stop  offset="0.42" style="stop-color:#FB5C63"/>
	<stop  offset="0.47" style="stop-color:#FA6E73"/>
	<stop  offset="0.51" style="stop-color:#F97478"/>
	<stop  offset="0.67" style="stop-color:#FF313D"/>
	<stop  offset="0.69" style="stop-color:#FA2C37"/>
	<stop  offset="0.81" style="stop-color:#DE141B"/>
	<stop  offset="0.92" style="stop-color:#CD0509"/>
	<stop  offset="1" style="stop-color:#C70003"/>
</linearGradient>
<path class="st48" d="M67,51.8c-0.5,0.7-1.3,1.3-2.1,1.6c0-1.2-0.1-2.4-0.3-3.6C64,46,62,42.8,64,39.6l0.1-0.2c0.6-0.8,1.2-1.5,2-2
	c-0.3,2.5,1,5.1,1.5,8C68.1,48.6,67.8,50.6,67,51.8z"/>
<linearGradient id="SVGID_51_" gradientUnits="userSpaceOnUse" x1="17067.9434" y1="-11020.8799" x2="17262.6445" y2="-11148.334" gradientTransform="matrix(1 0 0 -1 0 133.89)">
	<stop  offset="0" style="stop-color:#DA0000"/>
	<stop  offset="9.000000e-02" style="stop-color:#E61014"/>
	<stop  offset="0.24" style="stop-color:#F82832"/>
	<stop  offset="0.33" style="stop-color:#FF313D"/>
	<stop  offset="0.36" style="stop-color:#FE404A"/>
	<stop  offset="0.42" style="stop-color:#FB5C63"/>
	<stop  offset="0.47" style="stop-color:#FA6E73"/>
	<stop  offset="0.51" style="stop-color:#F97478"/>
	<stop  offset="0.67" style="stop-color:#FF313D"/>
	<stop  offset="0.69" style="stop-color:#FA2C37"/>
	<stop  offset="0.81" style="stop-color:#DE141B"/>
	<stop  offset="0.92" style="stop-color:#CD0509"/>
	<stop  offset="1" style="stop-color:#C70003"/>
</linearGradient>
<path class="st49" d="M87.6,23.5l-2.8,4.3l-0.3,0.4c-1.8,2.4-6.5,3.7-11.2,5.5c-2.6,0.9-5,2.1-7.3,3.7c-0.8,0.6-1.4,1.2-2,2l2.9-4.5
	c1.3-1.9,4-3.7,9.2-5.7c3.1-1,6.1-2.2,9-3.6C86.2,25.1,87,24.4,87.6,23.5L87.6,23.5z"/>
</svg>
