<svg width="145" height="62" viewBox="0 0 145 62" fill="none" xmlns="http://www.w3.org/2000/svg">
<path d="M0.160156 25.3135H10.6306V62C7.85367 62 5.19047 60.8969 3.22688 58.9333C1.26329 56.9697 0.160156 54.3065 0.160156 51.5295V25.3135Z" fill="url(#paint0_linear_1652:81076)"/>
<path d="M31.6008 25.5678C31.5494 27.6156 30.8985 29.6034 29.7285 31.285C28.5586 32.9666 26.9211 34.268 25.0189 35.0281C23.1166 35.7883 21.0332 35.9737 19.0266 35.5615C17.02 35.1492 15.1784 34.1575 13.7299 32.709C12.2814 31.2604 11.2896 29.4188 10.8774 27.4123C10.4651 25.4057 10.6506 23.3222 11.4107 21.42C12.1708 19.5177 13.4723 17.8802 15.1538 16.7103C16.8354 15.5404 18.8232 14.8894 20.8711 14.8381L23.6382 4.50225C19.2878 3.9622 14.8774 4.79415 11.0226 6.88194C7.16792 8.96974 4.06137 12.2091 2.13674 16.1479C0.212117 20.0866 -0.434519 24.528 0.287136 28.852C1.00879 33.176 3.06271 37.1668 6.16211 40.267C9.26151 43.3672 13.2517 45.4222 17.5755 46.1451C21.8993 46.8679 26.3409 46.2225 30.2801 44.2989C34.2194 42.3754 37.4596 39.2697 39.5485 35.4156C41.6373 31.5614 42.4705 27.1512 41.9316 22.8006L31.6008 25.5678Z" fill="url(#paint1_linear_1652:81076)"/>
<path d="M21.125 25.3135L46.4385 18.5277C45.2436 14.0864 42.9026 10.0371 39.65 6.78534C36.3974 3.53362 32.3475 1.19371 27.9058 0L21.125 25.3135Z" fill="#DB4626"/>
<path d="M61.9957 34.2582V42.8839H57.0098V21.2898C57.0085 20.9575 57.0729 20.6282 57.1995 20.3209C57.3261 20.0136 57.5122 19.7344 57.7472 19.4994C57.9822 19.2644 58.2614 19.0783 58.5687 18.9517C58.876 18.8251 59.2053 18.7607 59.5376 18.762H67.7395C70.3122 18.762 72.2285 19.4168 73.4883 20.7264C74.7979 22.0361 75.4527 23.9756 75.4527 26.545C75.4527 28.9781 74.8212 30.8961 73.5581 32.2988C72.2983 33.6051 70.4701 34.2582 68.0735 34.2582H61.9957ZM61.9957 29.9105H66.832C68.1433 29.9105 69.0757 29.6313 69.6391 29.0729C70.2025 28.5145 70.5466 27.6668 70.5466 26.4054C70.5919 25.4681 70.2941 24.5464 69.7089 23.8127C68.9751 23.2238 68.051 22.924 67.1113 22.9701H61.9957V29.9105Z" fill="#3B56A4"/>
<path d="M88.2855 42.1111C87.3166 42.6225 86.2589 42.944 85.1693 43.0584C84.2023 43.1662 83.2304 43.2244 82.2575 43.2329C80.6762 43.2658 79.1267 42.7866 77.84 41.8668C76.5769 40.956 75.9453 39.4486 75.9453 37.3446C75.9453 35.3801 76.5187 33.9774 77.6655 33.1364C78.9708 32.2337 80.4738 31.6575 82.0481 31.4562C82.3302 31.4504 82.6109 31.4153 82.8857 31.3515C83.2565 31.2743 83.6309 31.2161 84.0076 31.177C86.0717 30.8944 87.1038 30.2812 87.1038 29.3372C87.1198 29.0162 87.0182 28.7005 86.8181 28.449C86.6181 28.1975 86.3332 28.0276 86.0169 27.971C85.3708 27.7697 84.6992 27.6623 84.0225 27.6519C83.4269 27.6423 82.8344 27.7385 82.2725 27.9361C82.0223 28.0233 81.7932 28.162 81.6 28.3432C81.4068 28.5244 81.2537 28.7441 81.1506 28.9881H76.4539C76.6131 27.5843 77.3166 26.2989 78.4134 25.4082C79.6798 24.3346 81.4797 23.7978 83.8131 23.7978C86.4324 23.7978 88.3968 24.2415 89.7065 25.129C90.3552 25.553 90.8831 26.1376 91.2387 26.8262C91.5943 27.5147 91.7655 28.2836 91.7357 29.0579V35.4349C91.7357 37.3063 91.4034 38.7672 90.7386 39.8176C90.15 40.7953 89.3005 41.5895 88.2855 42.1111ZM87.1637 33.4904C86.2883 33.8905 85.3722 34.1948 84.4314 34.3979L82.8159 34.7519C82.1429 34.9001 81.5175 35.2137 80.9961 35.6643C80.6837 36.1185 80.5105 36.6539 80.4975 37.2049C80.4834 37.5133 80.5323 37.8214 80.6412 38.1102C80.75 38.3991 80.9166 38.6628 81.1307 38.8852C81.6481 39.2926 82.2984 39.4934 82.9555 39.4486C83.5204 39.4982 84.0893 39.4234 84.6221 39.2294C85.1549 39.0354 85.6387 38.7269 86.0394 38.3257C86.4402 37.9245 86.748 37.4403 86.9414 36.9073C87.1348 36.3743 87.2089 35.8053 87.1587 35.2405L87.1637 33.4904Z" fill="#3B56A4"/>
<path d="M104.346 42.1112C103.375 42.6226 102.316 42.9441 101.225 43.0585C100.258 43.1664 99.286 43.2246 98.313 43.233C96.7318 43.2651 95.1825 42.786 93.8955 41.8668C92.6357 40.9561 92.0059 39.4487 92.0059 37.3446C92.0059 35.3802 92.5743 33.9791 93.721 33.1365C95.0268 32.2346 96.5296 31.6585 98.1036 31.4562C98.3873 31.4502 98.6697 31.4152 98.9463 31.3515C99.3169 31.2736 99.6913 31.2153 100.068 31.177C102.122 30.8928 103.154 30.2845 103.154 29.3522C103.169 29.0315 103.067 28.7163 102.867 28.465C102.667 28.2138 102.383 28.0436 102.067 27.986C101.421 27.7852 100.75 27.6777 100.073 27.6669C99.4759 27.6574 98.8817 27.7536 98.318 27.9511C98.0679 28.0383 97.8388 28.177 97.6456 28.3582C97.4523 28.5394 97.2992 28.7591 97.1962 29.0032H92.4995C92.6625 27.5994 93.3674 26.3148 94.4639 25.4233C95.7237 24.3496 97.5236 23.8128 99.8637 23.8128C102.483 23.8128 104.446 24.2566 105.752 25.144C106.402 25.5674 106.931 26.1518 107.287 26.8404C107.644 27.5289 107.816 28.2981 107.786 29.073V35.45C107.786 37.3213 107.454 38.7822 106.789 39.8326C106.198 40.8011 105.353 41.5892 104.346 42.1112ZM103.224 33.4905C102.347 33.8905 101.429 34.1947 100.487 34.3979L98.8764 34.7519C98.2016 34.8992 97.5743 35.2129 97.0516 35.6644C96.7387 36.1183 96.5654 36.6538 96.553 37.205C96.538 37.5131 96.586 37.821 96.694 38.1099C96.802 38.3988 96.9678 38.6626 97.1812 38.8853C97.6989 39.2923 98.3491 39.493 99.0061 39.4487C99.5711 39.4982 100.14 39.4233 100.673 39.2293C101.206 39.0353 101.69 38.727 102.091 38.3259C102.492 37.9248 102.801 37.4407 102.995 36.9077C103.189 36.3747 103.264 35.8056 103.214 35.2405L103.224 33.4905Z" fill="#3B56A4"/>
<path d="M119.981 42.8839H115.025L108.479 24.2316H113.669L117.383 37.3446L120.679 25.9168C120.799 25.419 121.089 24.9785 121.498 24.6709C121.907 24.3634 122.411 24.2081 122.923 24.2316H126.567L119.981 42.8839Z" fill="#3B56A4"/>
<path d="M140.383 37.1352H143.873C143.467 38.9384 142.42 40.5329 140.926 41.6225C139.324 42.7451 137.397 43.3109 135.442 43.233C132.783 43.233 130.704 42.3688 129.205 40.6403C127.705 38.9119 126.968 36.5053 126.991 33.4207C126.991 30.4291 127.715 28.0907 129.165 26.4055C130.614 24.7202 132.693 23.856 135.402 23.8128C138.211 23.8128 140.385 24.6538 141.924 26.3357C143.463 28.0176 144.211 30.4258 144.167 33.5603V34.3231C144.178 34.4923 144.154 34.6619 144.097 34.8217H131.977C132.027 36.2677 132.377 37.343 133.029 38.0476C133.367 38.4335 133.791 38.7356 134.266 38.9302C134.74 39.1248 135.254 39.2067 135.766 39.1695C136.475 39.1892 137.176 39.017 137.795 38.6709C137.942 38.6208 138.075 38.5371 138.184 38.4266L138.568 38.0426C138.693 37.8129 138.875 37.6189 139.097 37.4792C139.476 37.2266 139.928 37.1058 140.383 37.1352ZM131.967 31.6507H139.122C139.111 30.63 138.76 29.6419 138.124 28.8436C137.787 28.5023 137.381 28.2368 136.933 28.0649C136.485 27.8929 136.006 27.8185 135.527 27.8464C135.06 27.8315 134.596 27.9123 134.162 28.0838C133.728 28.2553 133.334 28.5139 133.004 28.8436C132.313 29.6184 131.946 30.6282 131.977 31.6656L131.967 31.6507Z" fill="#3B56A4"/>
<defs>
<linearGradient id="paint0_linear_1652:81076" x1="11.0038" y1="39.0474" x2="-5.21965" y2="52.3604" gradientUnits="userSpaceOnUse">
<stop stop-color="#323E98"/>
<stop offset="1" stop-color="#71CBD5"/>
</linearGradient>
<linearGradient id="paint1_linear_1652:81076" x1="4.96475" y1="12.3637" x2="34.6472" y2="42.0981" gradientUnits="userSpaceOnUse">
<stop stop-color="#71CBD5"/>
<stop offset="1" stop-color="#323E98"/>
</linearGradient>
</defs>
</svg>
