<svg width="145" height="62" viewBox="0 0 145 62" fill="none" xmlns="http://www.w3.org/2000/svg">
<path d="M0.159698 25.3136H10.6301V62C7.85321 62 5.19001 60.8969 3.22642 58.9333C1.26283 56.9697 0.159698 54.3065 0.159698 51.5296V25.3136Z" fill="url(#paint0_linear_201_338)"/>
<path d="M31.6008 25.5678C31.5494 27.6157 30.8985 29.6035 29.7285 31.285C28.5586 32.9666 26.9211 34.268 25.0189 35.0282C23.1166 35.7883 21.0332 35.9737 19.0266 35.5615C17.02 35.1493 15.1784 34.1575 13.7299 32.709C12.2814 31.2605 11.2896 29.4189 10.8774 27.4123C10.4651 25.4057 10.6506 23.3222 11.4107 21.42C12.1708 19.5177 13.4723 17.8802 15.1538 16.7103C16.8354 15.5404 18.8232 14.8895 20.8711 14.8381L23.6382 4.50226C19.2878 3.96221 14.8774 4.79417 11.0226 6.88196C7.16792 8.96975 4.06137 12.2092 2.13674 16.1479C0.212117 20.0866 -0.434519 24.528 0.287136 28.852C1.00879 33.176 3.06271 37.1668 6.16211 40.267C9.26151 43.3673 13.2517 45.4223 17.5755 46.1451C21.8993 46.8679 26.3409 46.2225 30.2801 44.299C34.2194 42.3754 37.4596 39.2697 39.5485 35.4156C41.6373 31.5614 42.4705 27.1512 41.9316 22.8006L31.6008 25.5678Z" fill="url(#paint1_linear_201_338)"/>
<path d="M21.1249 25.3135L46.4385 18.5277C45.2436 14.0864 42.9026 10.0371 39.65 6.78534C36.3974 3.53362 32.3474 1.19371 27.9058 0L21.1249 25.3135Z" fill="#DB4626"/>
<path d="M61.9949 34.2583V42.8839H57.009V21.2899C57.0077 20.9575 57.0722 20.6282 57.1987 20.3209C57.3253 20.0136 57.5115 19.7344 57.7465 19.4995C57.9815 19.2645 58.2607 19.0783 58.5679 18.9517C58.8752 18.8252 59.2045 18.7607 59.5369 18.762H67.7387C70.3115 18.762 72.2277 19.4168 73.4875 20.7265C74.7971 22.0361 75.452 23.9756 75.452 26.545C75.452 28.9782 74.8204 30.8961 73.5573 32.2988C72.2975 33.6051 70.4693 34.2583 68.0728 34.2583H61.9949ZM61.9949 29.9105H66.8313C68.1426 29.9105 69.075 29.6313 69.6384 29.0729C70.2018 28.5145 70.5458 27.6669 70.5458 26.4054C70.5911 25.4681 70.2933 24.5464 69.7082 23.8127C68.9744 23.2238 68.0503 22.9241 67.1105 22.9701H61.9949V29.9105Z" fill="#6EC2D2"/>
<path d="M88.2859 42.1111C87.317 42.6225 86.2593 42.944 85.1697 43.0585C84.2028 43.1662 83.2309 43.2244 82.258 43.233C80.6767 43.2658 79.1271 42.7866 77.8404 41.8668C76.5773 40.9561 75.9458 39.4486 75.9458 37.3446C75.9458 35.3801 76.5192 33.9774 77.6659 33.1365C78.9713 32.2337 80.4743 31.6575 82.0485 31.4562C82.3306 31.4504 82.6114 31.4153 82.8862 31.3515C83.2569 31.2743 83.6314 31.2161 84.008 31.177C86.0722 30.8945 87.1043 30.2812 87.1043 29.3372C87.1202 29.0162 87.0186 28.7005 86.8186 28.449C86.6185 28.1976 86.3337 28.0276 86.0174 27.971C85.3713 27.7698 84.6996 27.6623 84.023 27.6519C83.4274 27.6423 82.8348 27.7385 82.2729 27.9361C82.0228 28.0233 81.7937 28.162 81.6005 28.3432C81.4072 28.5244 81.2541 28.7441 81.1511 28.9882H76.4543C76.6135 27.5843 77.3171 26.2989 78.4138 25.4083C79.6802 24.3346 81.4802 23.7978 83.8136 23.7978C86.4328 23.7978 88.3973 24.2416 89.7069 25.1291C90.3556 25.553 90.8835 26.1377 91.2391 26.8262C91.5948 27.5147 91.766 28.2836 91.7362 29.058V35.435C91.7362 37.3064 91.4038 38.7672 90.739 39.8176C90.1504 40.7953 89.301 41.5895 88.2859 42.1111ZM87.1641 33.4905C86.2887 33.8906 85.3727 34.1948 84.4318 34.3979L82.8164 34.7519C82.1434 34.9002 81.5179 35.2137 80.9965 35.6643C80.6842 36.1185 80.5109 36.6539 80.4979 37.205C80.4839 37.5134 80.5328 37.8214 80.6416 38.1103C80.7505 38.3991 80.917 38.6628 81.1311 38.8852C81.6486 39.2927 82.2989 39.4935 82.956 39.4486C83.5209 39.4982 84.0897 39.4234 84.6226 39.2294C85.1554 39.0354 85.6392 38.7269 86.0399 38.3257C86.4406 37.9245 86.7485 37.4404 86.9419 36.9073C87.1352 36.3743 87.2094 35.8053 87.1591 35.2405L87.1641 33.4905Z" fill="#6EC2D2"/>
<path d="M104.345 42.1111C103.374 42.6225 102.315 42.9441 101.224 43.0585C100.257 43.1664 99.2851 43.2246 98.3121 43.233C96.7309 43.2651 95.1816 42.786 93.8946 41.8668C92.6348 40.9561 92.005 39.4487 92.005 37.3446C92.005 35.3801 92.5734 33.9791 93.7201 33.1365C95.0259 32.2346 96.5287 31.6585 98.1027 31.4562C98.3864 31.4502 98.6688 31.4151 98.9454 31.3515C99.3159 31.2736 99.6904 31.2153 100.067 31.177C102.121 30.8928 103.153 30.2845 103.153 29.3522C103.168 29.0315 103.066 28.7163 102.866 28.465C102.667 28.2138 102.382 28.0436 102.067 27.986C101.42 27.7851 100.749 27.6777 100.072 27.6669C99.475 27.6573 98.8808 27.7536 98.3171 27.9511C98.067 28.0383 97.8379 28.177 97.6447 28.3582C97.4514 28.5394 97.2983 28.7591 97.1953 29.0031H92.4986C92.6616 27.5994 93.3665 26.3148 94.463 25.4232C95.7228 24.3496 97.5227 23.8128 99.8628 23.8128C102.482 23.8128 104.445 24.2565 105.751 25.144C106.401 25.5674 106.93 26.1518 107.286 26.8404C107.643 27.5289 107.815 28.2981 107.785 29.0729V35.4499C107.785 37.3213 107.453 38.7822 106.788 39.8326C106.197 40.8011 105.352 41.5891 104.345 42.1111ZM103.223 33.4905C102.346 33.8905 101.428 34.1947 100.486 34.3979L98.8755 34.7519C98.2007 34.8992 97.5734 35.2128 97.0507 35.6643C96.7378 36.1183 96.5645 36.6538 96.5521 37.205C96.5371 37.5131 96.5851 37.821 96.6931 38.1099C96.8011 38.3988 96.9669 38.6626 97.1803 38.8852C97.698 39.2923 98.3482 39.493 99.0052 39.4487C99.5702 39.4981 100.139 39.4233 100.672 39.2293C101.205 39.0353 101.689 38.7269 102.09 38.3259C102.492 37.9248 102.8 37.4407 102.994 36.9077C103.188 36.3746 103.263 35.8056 103.213 35.2405L103.223 33.4905Z" fill="#6EC2D2"/>
<path d="M119.981 42.884H115.025L108.479 24.2316H113.669L117.384 37.3446L120.68 25.9168C120.799 25.419 121.089 24.9785 121.498 24.671C121.908 24.3634 122.412 24.2081 122.923 24.2316H126.568L119.981 42.884Z" fill="#6EC2D2"/>
<path d="M140.384 37.1352H143.874C143.468 38.9384 142.42 40.5329 140.927 41.6225C139.325 42.7451 137.398 43.3108 135.443 43.233C132.784 43.233 130.705 42.3687 129.205 40.6403C127.706 38.9118 126.968 36.5053 126.992 33.4207C126.992 30.4291 127.716 28.0907 129.166 26.4055C130.615 24.7202 132.694 23.856 135.403 23.8128C138.212 23.8128 140.386 24.6538 141.925 26.3357C143.464 28.0176 144.211 30.4258 144.168 33.5603V34.3231C144.179 34.4923 144.155 34.6619 144.098 34.8217H131.978C132.027 36.2676 132.378 37.3429 133.03 38.0476C133.368 38.4334 133.791 38.7355 134.266 38.9302C134.741 39.1248 135.255 39.2067 135.767 39.1694C136.476 39.1892 137.177 39.017 137.796 38.6709C137.943 38.6208 138.076 38.5371 138.185 38.4265L138.569 38.0426C138.694 37.8129 138.876 37.6189 139.098 37.4792C139.477 37.2266 139.929 37.1057 140.384 37.1352ZM131.968 31.6507H139.122C139.112 30.63 138.761 29.6419 138.125 28.8436C137.788 28.5023 137.382 28.2368 136.934 28.0649C136.486 27.8929 136.007 27.8185 135.528 27.8464C135.061 27.8315 134.597 27.9123 134.163 28.0838C133.729 28.2553 133.335 28.5139 133.005 28.8436C132.314 29.6183 131.947 30.6282 131.978 31.6656L131.968 31.6507Z" fill="#6EC2D2"/>
<defs>
<linearGradient id="paint0_linear_201_338" x1="11.0033" y1="39.0474" x2="-5.2201" y2="52.3604" gradientUnits="userSpaceOnUse">
<stop stop-color="#323E98"/>
<stop offset="1" stop-color="#71CBD5"/>
</linearGradient>
<linearGradient id="paint1_linear_201_338" x1="4.96475" y1="12.3638" x2="34.6472" y2="42.0981" gradientUnits="userSpaceOnUse">
<stop stop-color="#71CBD5"/>
<stop offset="1" stop-color="#323E98"/>
</linearGradient>
</defs>
</svg>
