<svg width="24" height="24" viewBox="0 0 24 24" fill="none" xmlns="http://www.w3.org/2000/svg">
<path d="M8 8.5C8 10.78 9.72 12.5 12 12.5C14.28 12.5 16 10.78 16 8.5C16 6.22 14.28 4.5 12 4.5C9.72 4.5 8 6.22 8 8.5ZM14 8.5C14 9.678 13.178 10.5 12 10.5C10.822 10.5 10 9.678 10 8.5C10 7.322 10.822 6.5 12 6.5C13.178 6.5 14 7.322 14 8.5ZM8 18.5C8 16.846 9.346 15.5 11 15.5H13C14.654 15.5 16 16.846 16 18.5V19.5H18V18.5C18 15.743 15.757 13.5 13 13.5H11C8.243 13.5 6 15.743 6 18.5V19.5H8V18.5Z" fill="#3B56A4"/>
<path fill-rule="evenodd" clip-rule="evenodd" d="M12 22C17.5228 22 22 17.5228 22 12C22 6.47715 17.5228 2 12 2C6.47715 2 2 6.47715 2 12C2 17.5228 6.47715 22 12 22ZM12 24C18.6274 24 24 18.6274 24 12C24 5.37258 18.6274 0 12 0C5.37258 0 0 5.37258 0 12C0 18.6274 5.37258 24 12 24Z" fill="#3B56A4"/>
</svg>
