<svg width="25" height="24" viewBox="0 0 25 24" fill="none" xmlns="http://www.w3.org/2000/svg">
<path d="M3.782 11.064C3.354 11.392 3.062 11.673 2.907 11.915C2.752 12.155 2.658 12.413 2.628 12.683H5.307V11.935H3.913C3.994 11.854 4.065 11.784 4.125 11.734C4.187 11.684 4.307 11.592 4.486 11.464C4.789 11.246 4.997 11.044 5.112 10.86C5.228 10.674 5.285 10.485 5.285 10.282C5.28773 10.1 5.23507 9.92142 5.134 9.77C5.03478 9.61687 4.89098 9.49785 4.722 9.429C4.548 9.353 4.303 9.318 3.989 9.318C3.689 9.318 3.452 9.356 3.283 9.432C3.12023 9.50262 2.98231 9.62034 2.887 9.77C2.793 9.913 2.728 10.116 2.693 10.374L3.587 10.45C3.612 10.262 3.661 10.133 3.734 10.056C3.7706 10.0198 3.81426 9.99155 3.86226 9.97297C3.91026 9.95439 3.96157 9.94589 4.013 9.948C4.123 9.948 4.213 9.983 4.285 10.056C4.32007 10.089 4.3478 10.1291 4.3664 10.1735C4.38501 10.218 4.39407 10.2658 4.393 10.314C4.38683 10.4214 4.34928 10.5247 4.285 10.611C4.211 10.713 4.044 10.865 3.782 11.064ZM3.837 17.45C3.73288 17.4533 3.63164 17.4156 3.555 17.345C3.481 17.275 3.427 17.15 3.393 16.967L2.5 17.085C2.559 17.289 2.642 17.457 2.751 17.591C2.86 17.724 2.999 17.826 3.168 17.897C3.336 17.966 3.567 18 3.86 18C4.16 18 4.401 17.953 4.585 17.86C4.76334 17.7709 4.91099 17.6306 5.009 17.457C5.107 17.282 5.155 17.103 5.155 16.913C5.15867 16.7767 5.12843 16.6417 5.067 16.52C5.00793 16.413 4.92214 16.323 4.818 16.259C4.72878 16.2081 4.63235 16.171 4.532 16.149C4.66975 16.0791 4.78823 15.9764 4.877 15.85C4.95255 15.7367 4.99195 15.6032 4.99 15.467C4.99185 15.3528 4.96748 15.2397 4.91877 15.1363C4.87005 15.033 4.79829 14.9422 4.709 14.871C4.522 14.712 4.219 14.633 3.8 14.633C3.435 14.633 3.152 14.705 2.953 14.852C2.753 14.995 2.619 15.205 2.549 15.478L3.393 15.629C3.416 15.467 3.46 15.355 3.526 15.291C3.592 15.227 3.677 15.193 3.783 15.193C3.82708 15.191 3.87112 15.1978 3.91252 15.2131C3.95391 15.2284 3.99182 15.2518 4.024 15.282C4.083 15.342 4.111 15.421 4.111 15.52C4.111 15.624 4.073 15.713 3.994 15.79C3.915 15.867 3.817 15.902 3.701 15.902C3.66214 15.9008 3.62339 15.8972 3.585 15.891L3.54 16.54C3.63348 16.5088 3.73064 16.49 3.829 16.484C3.961 16.484 4.066 16.525 4.142 16.61C4.219 16.692 4.257 16.809 4.257 16.962C4.257 17.108 4.217 17.228 4.138 17.316C4.10047 17.3587 4.05414 17.3928 4.00218 17.416C3.95022 17.4391 3.89387 17.4507 3.837 17.45ZM4.785 7.367V4H4.046C3.95566 4.20174 3.82098 4.38051 3.652 4.523C3.484 4.665 3.248 4.785 2.944 4.888V5.642C3.28585 5.5477 3.60474 5.38434 3.881 5.162V7.368H4.785V7.367ZM7.5 5H18.5V7H7.5V5ZM7.5 10H16.5V12H7.5V10ZM7.5 15H13.5V17H7.5V15Z" fill="#3B56A4"/>
<path d="M17.5 12H19.5V15H22.5V17H19.5V20H17.5V17H14.5V15H17.5V12Z" fill="#3B56A4"/>
</svg>
