<svg width="90" height="36" viewBox="0 0 90 36" fill="none" xmlns="http://www.w3.org/2000/svg">
<rect x="0.25" width="89.75" height="36" rx="6" fill="#EDF1F7"/>
<path d="M25.25 8.01172H12.25C11.044 8.01172 9.25 8.81072 9.25 11.0117V25.0117C9.25 27.2127 11.044 28.0117 12.25 28.0117H27.25V26.0117H12.262C11.8 25.9997 11.25 25.8167 11.25 25.0117C11.25 24.9107 11.259 24.8207 11.274 24.7387C11.386 24.1637 11.857 24.0217 12.261 24.0117H26.25C26.268 24.0117 26.281 24.0027 26.299 24.0017H27.25V10.0117C27.25 8.90872 26.353 8.01172 25.25 8.01172ZM25.25 22.0117H11.25V11.0117C11.25 10.2057 11.8 10.0237 12.25 10.0117H19.25V17.0117L21.25 16.0117L23.25 17.0117V10.0117H25.25V22.0117Z" fill="#3B56A4"/>
<path d="M38.1055 14.9277L35.7852 22H33.916L37.0859 13.4688H38.2754L38.1055 14.9277ZM40.0332 22L37.707 14.9277L37.5195 13.4688H38.7207L41.9082 22H40.0332ZM39.9277 18.8242V20.2012H35.4219V18.8242H39.9277ZM44.5684 13.4688V22H42.8164V13.4688H44.5684ZM49.2031 13.4688H52.3848C53.0371 13.4688 53.5977 13.5664 54.0664 13.7617C54.5391 13.957 54.9023 14.2461 55.1562 14.6289C55.4102 15.0117 55.5371 15.4824 55.5371 16.041C55.5371 16.498 55.459 16.8906 55.3027 17.2188C55.1504 17.543 54.9336 17.8145 54.6523 18.0332C54.375 18.248 54.0488 18.4199 53.6738 18.5488L53.1172 18.8418H50.3516L50.3398 17.4707H52.3965C52.7051 17.4707 52.9609 17.416 53.1641 17.3066C53.3672 17.1973 53.5195 17.0449 53.6211 16.8496C53.7266 16.6543 53.7793 16.4277 53.7793 16.1699C53.7793 15.8965 53.7285 15.6602 53.627 15.4609C53.5254 15.2617 53.3711 15.1094 53.1641 15.0039C52.957 14.8984 52.6973 14.8457 52.3848 14.8457H50.9609V22H49.2031V13.4688ZM53.9727 22L52.0273 18.1973L53.8848 18.1855L55.8535 21.918V22H53.9727ZM60.207 20.5703V17.7461C60.207 17.543 60.1738 17.3691 60.1074 17.2246C60.041 17.0762 59.9375 16.9609 59.7969 16.8789C59.6602 16.7969 59.4824 16.7559 59.2637 16.7559C59.0762 16.7559 58.9141 16.7891 58.7773 16.8555C58.6406 16.918 58.5352 17.0098 58.4609 17.1309C58.3867 17.248 58.3496 17.3867 58.3496 17.5469H56.6621C56.6621 17.2773 56.7246 17.0215 56.8496 16.7793C56.9746 16.5371 57.1562 16.3242 57.3945 16.1406C57.6328 15.9531 57.916 15.8066 58.2441 15.7012C58.5762 15.5957 58.9473 15.543 59.3574 15.543C59.8496 15.543 60.2871 15.625 60.6699 15.7891C61.0527 15.9531 61.3535 16.1992 61.5723 16.5273C61.7949 16.8555 61.9062 17.2656 61.9062 17.7578V20.4707C61.9062 20.8184 61.9277 21.1035 61.9707 21.3262C62.0137 21.5449 62.0762 21.7363 62.1582 21.9004V22H60.4531C60.3711 21.8281 60.3086 21.6133 60.2656 21.3555C60.2266 21.0938 60.207 20.832 60.207 20.5703ZM60.4297 18.1387L60.4414 19.0938H59.498C59.2754 19.0938 59.082 19.1191 58.918 19.1699C58.7539 19.2207 58.6191 19.293 58.5137 19.3867C58.4082 19.4766 58.3301 19.582 58.2793 19.7031C58.2324 19.8242 58.209 19.957 58.209 20.1016C58.209 20.2461 58.2422 20.377 58.3086 20.4941C58.375 20.6074 58.4707 20.6973 58.5957 20.7637C58.7207 20.8262 58.8672 20.8574 59.0352 20.8574C59.2891 20.8574 59.5098 20.8066 59.6973 20.7051C59.8848 20.6035 60.0293 20.4785 60.1309 20.3301C60.2363 20.1816 60.291 20.041 60.2949 19.9082L60.7402 20.623C60.6777 20.7832 60.5918 20.9492 60.4824 21.1211C60.377 21.293 60.2422 21.4551 60.0781 21.6074C59.9141 21.7559 59.7168 21.8789 59.4863 21.9766C59.2559 22.0703 58.9824 22.1172 58.666 22.1172C58.2637 22.1172 57.8984 22.0371 57.5703 21.877C57.2461 21.7129 56.9883 21.4883 56.7969 21.2031C56.6094 20.9141 56.5156 20.5859 56.5156 20.2188C56.5156 19.8867 56.5781 19.5918 56.7031 19.334C56.8281 19.0762 57.0117 18.8594 57.2539 18.6836C57.5 18.5039 57.8066 18.3691 58.1738 18.2793C58.541 18.1855 58.9668 18.1387 59.4512 18.1387H60.4297ZM66.3125 15.6602V16.8555H62.6211V15.6602H66.3125ZM63.5352 14.0957H65.2227V20.0898C65.2227 20.2734 65.2461 20.4141 65.293 20.5117C65.3438 20.6094 65.418 20.6777 65.5156 20.7168C65.6133 20.752 65.7363 20.7695 65.8848 20.7695C65.9902 20.7695 66.084 20.7656 66.166 20.7578C66.252 20.7461 66.3242 20.7344 66.3828 20.7227L66.3887 21.9648C66.2441 22.0117 66.0879 22.0488 65.9199 22.0762C65.752 22.1035 65.5664 22.1172 65.3633 22.1172C64.9922 22.1172 64.668 22.0566 64.3906 21.9355C64.1172 21.8105 63.9062 21.6113 63.7578 21.3379C63.6094 21.0645 63.5352 20.7051 63.5352 20.2598V14.0957ZM69.0547 15.6602V22H67.3613V15.6602H69.0547ZM67.2559 14.0078C67.2559 13.7617 67.3418 13.5586 67.5137 13.3984C67.6855 13.2383 67.916 13.1582 68.2051 13.1582C68.4902 13.1582 68.7188 13.2383 68.8906 13.3984C69.0664 13.5586 69.1543 13.7617 69.1543 14.0078C69.1543 14.2539 69.0664 14.457 68.8906 14.6172C68.7188 14.7773 68.4902 14.8574 68.2051 14.8574C67.916 14.8574 67.6855 14.7773 67.5137 14.6172C67.3418 14.457 67.2559 14.2539 67.2559 14.0078ZM72.1016 17.0137V22H70.4141V15.6602H71.9961L72.1016 17.0137ZM71.8555 18.6074H71.3984C71.3984 18.1387 71.459 17.7168 71.5801 17.3418C71.7012 16.9629 71.8711 16.6406 72.0898 16.375C72.3086 16.1055 72.5684 15.9004 72.8691 15.7598C73.1738 15.6152 73.5137 15.543 73.8887 15.543C74.1855 15.543 74.457 15.5859 74.7031 15.6719C74.9492 15.7578 75.1602 15.8945 75.3359 16.082C75.5156 16.2695 75.6523 16.5176 75.7461 16.8262C75.8438 17.1348 75.8926 17.5117 75.8926 17.957V22H74.1934V17.9512C74.1934 17.6699 74.1543 17.4512 74.0762 17.2949C73.998 17.1387 73.8828 17.0293 73.7305 16.9668C73.582 16.9004 73.3984 16.8672 73.1797 16.8672C72.9531 16.8672 72.7559 16.9121 72.5879 17.002C72.4238 17.0918 72.2871 17.2168 72.1777 17.377C72.0723 17.5332 71.9922 17.7168 71.9375 17.9277C71.8828 18.1387 71.8555 18.3652 71.8555 18.6074ZM81.1895 15.6602H82.7188V21.7891C82.7188 22.3672 82.5898 22.8574 82.332 23.2598C82.0781 23.666 81.7227 23.9727 81.2656 24.1797C80.8086 24.3906 80.2773 24.4961 79.6719 24.4961C79.4062 24.4961 79.125 24.4609 78.8281 24.3906C78.5352 24.3203 78.2539 24.2109 77.9844 24.0625C77.7188 23.9141 77.4961 23.7266 77.3164 23.5L78.0605 22.5039C78.2559 22.7305 78.4824 22.9062 78.7402 23.0312C78.998 23.1602 79.2832 23.2246 79.5957 23.2246C79.9004 23.2246 80.1582 23.168 80.3691 23.0547C80.5801 22.9453 80.7422 22.7832 80.8555 22.5684C80.9688 22.3574 81.0254 22.1016 81.0254 21.8008V17.125L81.1895 15.6602ZM76.9238 18.9062V18.7832C76.9238 18.2988 76.9824 17.8594 77.0996 17.4648C77.2207 17.0664 77.3906 16.7246 77.6094 16.4395C77.832 16.1543 78.1016 15.9336 78.418 15.7773C78.7344 15.6211 79.0918 15.543 79.4902 15.543C79.9121 15.543 80.2656 15.6211 80.5508 15.7773C80.8359 15.9336 81.0703 16.1562 81.2539 16.4453C81.4375 16.7305 81.5801 17.0684 81.6816 17.459C81.7871 17.8457 81.8691 18.2695 81.9277 18.7305V19C81.8691 19.4414 81.7812 19.8516 81.6641 20.2305C81.5469 20.6094 81.3926 20.9414 81.2012 21.2266C81.0098 21.5078 80.7715 21.7266 80.4863 21.8828C80.2051 22.0391 79.8691 22.1172 79.4785 22.1172C79.0879 22.1172 78.7344 22.0371 78.418 21.877C78.1055 21.7168 77.8379 21.4922 77.6152 21.2031C77.3926 20.9141 77.2207 20.5742 77.0996 20.1836C76.9824 19.793 76.9238 19.3672 76.9238 18.9062ZM78.6113 18.7832V18.9062C78.6113 19.168 78.6367 19.4121 78.6875 19.6387C78.7383 19.8652 78.8164 20.0664 78.9219 20.2422C79.0312 20.4141 79.166 20.5488 79.3262 20.6465C79.4902 20.7402 79.6836 20.7871 79.9062 20.7871C80.2148 20.7871 80.4668 20.7227 80.6621 20.5938C80.8574 20.4609 81.0039 20.2793 81.1016 20.0488C81.1992 19.8184 81.2559 19.5527 81.2715 19.252V18.4844C81.2637 18.2383 81.2305 18.0176 81.1719 17.8223C81.1133 17.623 81.0312 17.4531 80.9258 17.3125C80.8203 17.1719 80.6836 17.0625 80.5156 16.9844C80.3477 16.9062 80.1484 16.8672 79.918 16.8672C79.6953 16.8672 79.502 16.918 79.3379 17.0195C79.1777 17.1172 79.043 17.252 78.9336 17.4238C78.8281 17.5957 78.748 17.7988 78.6934 18.0332C78.6387 18.2637 78.6113 18.5137 78.6113 18.7832Z" fill="#3B56A4"/>
</svg>
