<svg width="24" height="24" viewBox="0 0 24 24" fill="none" xmlns="http://www.w3.org/2000/svg">
<path d="M18.4724 15.0885C17.9194 14.2953 17.6431 13.4017 17.6431 12.4084C17.6431 11.5029 17.9039 10.6734 18.4243 9.92032C18.7048 9.51168 19.1616 9.03905 19.7946 8.50209C19.378 7.98943 18.9614 7.58879 18.5445 7.30025C17.7913 6.77951 16.9378 6.51913 15.9844 6.51913C15.4156 6.51913 14.7224 6.65528 13.9053 6.9279C13.12 7.20031 12.547 7.33667 12.1866 7.33667C11.914 7.33667 11.3612 7.21656 10.5279 6.97606C9.6866 6.73564 8.97743 6.61554 8.40053 6.61554C7.02234 6.61554 5.88453 7.19253 4.98714 8.34625C4.08171 9.51614 3.62891 11.0145 3.62891 12.8414C3.62891 14.7805 4.21798 16.7955 5.39578 18.8869C6.58958 20.9622 7.79554 22 9.01346 22C9.4221 22 9.95097 21.8637 10.5999 21.5913C11.249 21.3271 11.8179 21.1947 12.3067 21.1947C12.8274 21.1947 13.4325 21.3229 14.1215 21.5792C14.8506 21.8353 15.4116 21.9636 15.8042 21.9636C16.8298 21.9636 17.8596 21.1783 18.8931 19.6078C19.566 18.6063 20.0588 17.6047 20.3713 16.6031C19.6582 16.3866 19.0253 15.8818 18.4724 15.0885Z" fill="#303E67"/>
<path d="M14.386 5.798C14.8909 5.29321 15.2635 4.74026 15.5039 4.1394C15.7362 3.53846 15.8521 2.99351 15.8521 2.50467C15.8521 2.47272 15.8504 2.4326 15.846 2.38448C15.8424 2.33641 15.8403 2.29646 15.8403 2.26438C15.8322 2.2403 15.8223 2.19622 15.8103 2.13219C15.7983 2.06816 15.7884 2.02409 15.7802 2.00001C14.3699 2.3287 13.3684 2.92161 12.7754 3.779C12.1746 4.6444 11.862 5.67394 11.8379 6.86782C12.3748 6.8197 12.7912 6.75172 13.0879 6.66352C13.5209 6.51925 13.953 6.23068 14.386 5.798Z" fill="#303E67"/>
</svg>
