<svg width="20" height="20" viewBox="0 0 20 20" fill="none" xmlns="http://www.w3.org/2000/svg">
<path d="M16.666 1.6665H3.33268C2.41352 1.6665 1.66602 2.414 1.66602 3.33317V13.3332C1.66602 14.2523 2.41352 14.9998 3.33268 14.9998H5.83268V18.139L11.0635 14.9998H16.666C17.5852 14.9998 18.3327 14.2523 18.3327 13.3332V3.33317C18.3327 2.414 17.5852 1.6665 16.666 1.6665Z" fill="#EB554C"/>
<path d="M7.91602 6.64079V7.05745H9.41602V6.64079C9.41602 6.33435 9.67192 6.07308 9.99935 6.07308C10.3268 6.07308 10.5827 6.33435 10.5827 6.64079C10.5827 6.74476 10.5638 6.77316 10.5462 6.7969C10.5077 6.84879 10.4363 6.91063 10.2541 7.04859L10.2491 7.05238C10.1241 7.14703 9.96203 7.26988 9.80483 7.42425C9.27874 7.94173 9.24595 8.4755 9.24935 8.61605V9.68245H10.7493V8.63851C10.7567 8.61758 10.7826 8.55897 10.8606 8.48221C10.9448 8.39936 11.0432 8.32424 11.1637 8.23288L11.1785 8.22164C11.3472 8.09393 11.5765 7.9203 11.7567 7.67634C11.9529 7.41071 12.0827 7.07621 12.0827 6.64079C12.0827 5.49987 11.1423 4.5835 9.99935 4.5835C8.85644 4.5835 7.91602 5.49987 7.91602 6.64079Z" fill="white"/>
<path d="M10.7493 11.9064V10.4168H9.24935V11.9064H10.7493Z" fill="white"/>
</svg>
