<svg width="24" height="24" viewBox="0 0 24 24" fill="none" xmlns="http://www.w3.org/2000/svg">
<path d="M21 7H4C3.44772 7 3 7.44772 3 8V19C3 19.5523 3.44772 20 4 20H21C21.5523 20 22 19.5523 22 19V8C22 7.44772 21.5523 7 21 7Z" stroke="#3B56A4" stroke-width="2" stroke-linecap="round" stroke-linejoin="round"/>
<path d="M13 10.5H22V16H13V10.5Z" stroke="#3B56A4" stroke-width="2" stroke-linecap="round" stroke-linejoin="round"/>
<path d="M22 9.5V17" stroke="#3B56A4" stroke-width="2" stroke-linecap="round" stroke-linejoin="round"/>
<path d="M16.5 7C16.5 4.5 14.75 4 14 4H6.75C4.95 4 4.5 5.433 4.5 6.1495V7" stroke="#3B56A4" stroke-width="2" stroke-linecap="round" stroke-linejoin="round"/>
<path d="M17.25 14C17.6642 14 18 13.6642 18 13.25C18 12.8358 17.6642 12.5 17.25 12.5C16.8358 12.5 16.5 12.8358 16.5 13.25C16.5 13.6642 16.8358 14 17.25 14Z" fill="#3B56A4"/>
</svg>
