<svg width="40" height="40" viewBox="0 0 40 40" fill="none" xmlns="http://www.w3.org/2000/svg">
<circle cx="20" cy="20" r="18" fill="url(#paint0_radial_24394_81917)"/>
<path d="M11.2189 16.1552C11.3252 16.1583 11.4283 16.1677 11.5314 16.1864C11.5845 16.1802 11.6408 16.1927 11.6877 16.2177H12.1252C12.2502 16.2239 12.3783 16.2114 12.5002 16.1864C12.6252 16.1864 12.7502 16.1239 12.9064 16.1239C13.0377 16.1021 13.1627 16.0583 13.2814 15.9989C13.5345 15.9239 13.7689 15.7958 13.9689 15.6239C14.0689 15.5489 14.1658 15.4646 14.2502 15.3739C14.3127 15.2802 14.4064 15.1864 14.4689 15.0927L14.6564 14.8114C14.7095 14.7239 14.7533 14.6302 14.7814 14.5302C14.8127 14.4364 14.8439 14.3739 14.8752 14.2802C14.9033 14.1989 14.947 14.1271 15.0002 14.0614L15.1252 13.8114C15.3939 13.2271 16.0814 12.9708 16.6658 13.2396C16.672 13.2427 16.6814 13.2458 16.6877 13.2489C17.0564 13.4302 17.3127 13.7802 17.3752 14.1864C17.3783 14.3208 17.3877 14.4583 17.4064 14.5927V15.0614C17.3877 15.2708 17.3564 15.4802 17.3127 15.6864C17.2533 15.9333 17.1689 16.1739 17.0627 16.4052C16.8877 16.8333 16.6314 17.2271 16.3127 17.5614L16.1564 17.7489L15.9377 17.8739C15.6814 18.0896 15.4095 18.2864 15.1252 18.4677C14.8345 18.6177 14.5314 18.7458 14.2189 18.8427L14.0002 18.9052L13.7814 18.9364C13.6377 18.9708 13.4908 18.9927 13.3439 18.9989C13.0627 19.0302 12.7814 19.0302 12.5002 18.9989C12.2595 18.9864 12.0189 18.9552 11.7814 18.9052C11.5689 18.8614 11.3595 18.7989 11.1564 18.7177C11.072 18.6927 10.9877 18.6614 10.9064 18.6239C10.8439 18.5927 10.8127 18.5614 10.7502 18.5302C10.6533 18.4833 10.5595 18.4302 10.4689 18.3739C9.90953 18.0177 9.7439 17.2802 10.0939 16.7177C10.3408 16.3427 10.7689 16.1271 11.2189 16.1552Z" fill="#422B0D"/>
<path d="M28.044 24.7209C25.4346 23.9396 22.7221 23.5615 20.0002 23.5959C17.2408 23.5709 14.494 23.9646 11.8533 24.7678C10.9377 26.2584 10.4502 27.9709 10.4377 29.7209C10.4221 30.8209 11.3002 31.724 12.4002 31.7396C12.7158 31.7428 13.0315 31.674 13.3127 31.5334C15.4096 30.5521 17.6877 30.0209 20.0002 29.9709C22.3158 30.0146 24.594 30.549 26.6877 31.5334C27.6721 32.0209 28.8658 31.6209 29.3565 30.6334C29.4971 30.349 29.569 30.0365 29.5627 29.7209C29.544 27.9428 29.0158 26.2084 28.044 24.7209Z" fill="#422B0D"/>
<path d="M28.0441 24.7188C26.1566 21.75 22.841 21 20.0004 21C16.9129 21 13.6566 21.7719 11.8535 24.75C14.4941 23.9531 17.241 23.5625 20.0004 23.5938C22.7223 23.5594 25.4348 23.9375 28.0441 24.7188Z" fill="white"/>
<path d="M19.9812 20.5312C21.0812 20.5406 22.1781 20.6781 23.25 20.9375C24.3375 21.1969 25.3656 21.6562 26.2844 22.2937C27.1906 22.9531 27.9375 23.8094 28.4719 24.7937C29.0062 25.7531 29.3844 26.7938 29.5844 27.8719C29.6844 28.4094 29.7375 28.9531 29.7375 29.5C29.75 29.7875 29.7188 30.0719 29.6437 30.35C29.5594 30.6313 29.4188 30.8906 29.2344 31.1156C28.8594 31.5594 28.3188 31.8344 27.7375 31.875C27.4531 31.8906 27.1656 31.8531 26.8937 31.7656C26.6219 31.6656 26.3969 31.5438 26.15 31.4531C24.2125 30.5594 22.1156 30.0531 19.9812 29.9688C22.125 29.9719 24.25 30.3969 26.2313 31.2188C26.4812 31.3156 26.7312 31.4375 26.9625 31.5125C27.2031 31.5781 27.4531 31.6 27.7 31.5781C28.1937 31.5281 28.6437 31.2812 28.95 30.8906C29.0969 30.7 29.2031 30.4781 29.2625 30.2438C29.3187 30.0031 29.3375 29.7531 29.3156 29.5063C29.2937 28.9813 29.225 28.4563 29.1125 27.9438C28.8844 26.9281 28.4938 25.9563 27.95 25.0688C27.4281 24.1875 26.7156 23.4344 25.8656 22.8625C25.0062 22.3125 24.0531 21.925 23.0531 21.725C22.0375 21.5219 21.0031 21.4313 19.9688 21.4594L19.9812 20.5312Z" fill="#EB8F00"/>
<path d="M20.0597 21.4688C19.0253 21.4406 17.991 21.5313 16.9785 21.7344C15.9785 21.9344 15.0253 22.3219 14.166 22.8719C13.316 23.4438 12.6035 24.1969 12.0816 25.0781C11.541 25.9656 11.1472 26.9375 10.9191 27.9531C10.8066 28.4656 10.7378 28.9906 10.716 29.5156C10.6941 29.7625 10.7128 30.0125 10.7691 30.2531C10.8316 30.4875 10.9378 30.7063 11.0816 30.9C11.3878 31.2906 11.8378 31.5375 12.3316 31.5875C12.5785 31.6094 12.8285 31.5875 13.0691 31.5219C13.3035 31.4469 13.5535 31.325 13.8003 31.2281C15.7816 30.4063 17.9066 29.9813 20.0503 29.9781C17.9191 30.0563 15.8222 30.5531 13.8816 31.4406C13.6378 31.5469 13.4097 31.6688 13.1378 31.7531C12.866 31.8406 12.5785 31.8781 12.2941 31.8625C11.7097 31.8219 11.1691 31.5469 10.7941 31.1C10.6066 30.875 10.466 30.6156 10.3816 30.3344C10.3066 30.0563 10.2753 29.7719 10.2878 29.4844C10.291 28.9375 10.3441 28.3938 10.441 27.8563C10.6472 26.7781 11.0253 25.7406 11.5628 24.7844C12.0972 23.8 12.8441 22.9438 13.7503 22.2844C14.6722 21.65 15.7035 21.1938 16.791 20.9375C17.8628 20.6781 18.9597 20.5406 20.0597 20.5312V21.4688Z" fill="#EB8F00"/>
<path d="M11.4751 10.7772C10.8283 11.046 11.0126 12.0272 11.7533 11.8991C13.3751 11.5647 14.8064 10.6241 15.7501 9.2647C16.1158 8.77408 16.397 8.2272 16.5814 7.64595C16.7033 7.35533 16.5658 7.01783 16.272 6.89595C15.9783 6.77408 15.6439 6.91158 15.522 7.20533L15.497 7.24283C14.597 8.84283 13.1783 10.0866 11.4751 10.7772Z" fill="#422B0D"/>
<path d="M28.7687 16.1552C28.6625 16.1583 28.5594 16.1677 28.4562 16.1864C28.4031 16.1802 28.3469 16.1927 28.3 16.2177H27.8625C27.7375 16.2239 27.6094 16.2114 27.4875 16.1864C27.3625 16.1864 27.2375 16.1239 27.0813 16.1239C26.95 16.1021 26.825 16.0583 26.7062 15.9989C26.4531 15.9239 26.2187 15.7958 26.0187 15.6239C25.9187 15.5489 25.8219 15.4646 25.7375 15.3739C25.675 15.2802 25.5813 15.1864 25.5188 15.0927L25.3312 14.8114C25.2781 14.7239 25.2344 14.6302 25.2063 14.5302C25.175 14.4364 25.1437 14.3739 25.1125 14.2802C25.0875 14.2021 25.05 14.1271 25 14.0614L24.875 13.8114C24.6062 13.2271 23.9187 12.9708 23.3344 13.2396C23.3281 13.2427 23.3187 13.2458 23.3125 13.2489C22.9437 13.4302 22.6875 13.7802 22.625 14.1864C22.6219 14.3208 22.6125 14.4583 22.5938 14.5927V15.0614C22.6125 15.2708 22.6437 15.4802 22.6875 15.6864C22.7469 15.9333 22.8312 16.1739 22.9375 16.4052C23.1125 16.8333 23.3687 17.2271 23.6875 17.5614L23.8438 17.7489L24.0625 17.8739C24.3187 18.0896 24.5906 18.2864 24.875 18.4677C25.1656 18.6177 25.4687 18.7458 25.7812 18.8427L26 18.9052L26.2187 18.9364C26.3625 18.9708 26.5094 18.9927 26.6562 18.9989C26.9375 19.0302 27.2187 19.0302 27.5 18.9989C27.7406 18.9864 27.9812 18.9552 28.2188 18.9052C28.4313 18.8614 28.6406 18.7989 28.8438 18.7177C28.9281 18.6927 29.0125 18.6614 29.0937 18.6239C29.1562 18.5927 29.1875 18.5614 29.25 18.5302C29.3469 18.4833 29.4406 18.4302 29.5312 18.3739C30.0906 18.0177 30.2562 17.2802 29.9062 16.7177C29.6562 16.3364 29.2219 16.1208 28.7687 16.1552Z" fill="#422B0D"/>
<path d="M28.5128 10.7736C29.1597 11.0424 28.9753 12.0236 28.2347 11.8955C26.6128 11.5611 25.1815 10.6205 24.2378 9.26111C23.8722 8.77361 23.5909 8.22361 23.4097 7.64236C23.3065 7.34549 23.4628 7.01736 23.7628 6.91424C24.0347 6.82049 24.3347 6.94236 24.4628 7.20174L24.4878 7.23924C25.3909 8.83924 26.8097 10.083 28.5128 10.7736Z" fill="#422B0D"/>
<defs>
<radialGradient id="paint0_radial_24394_81917" cx="0" cy="0" r="1" gradientUnits="userSpaceOnUse" gradientTransform="translate(20 20) scale(17.6771 18.3412)">
<stop offset="0.5" stop-color="#FDE030"/>
<stop offset="0.92" stop-color="#F7C02B"/>
<stop offset="1" stop-color="#F4A223"/>
</radialGradient>
</defs>
</svg>
