<svg width="24" height="24" viewBox="0 0 24 24" fill="none" xmlns="http://www.w3.org/2000/svg">
<path d="M7.5667 3.58475L6.1324 2.15045C3.72518 3.98596 2.14042 6.81444 2 10.0241H4.00602C4.07707 8.75207 4.43413 7.51247 5.05062 6.39758C5.66711 5.28269 6.52715 4.32122 7.5667 3.58475ZM19.994 10.0241H22C21.8495 6.81444 20.2648 3.98596 17.8676 2.15045L16.4433 3.58475C17.4784 4.32484 18.3346 5.28737 18.9491 6.40167C19.5635 7.51596 19.9205 8.75373 19.994 10.0241ZM18.0181 10.5256C18.0181 7.44634 16.3731 4.86861 13.5045 4.18656V3.50451C13.5045 2.67202 12.8325 2 12 2C11.1675 2 10.4955 2.67202 10.4955 3.50451V4.18656C7.61685 4.86861 5.98195 7.43631 5.98195 10.5256V15.5406L3.97593 17.5466V18.5496H20.0241V17.5466L18.0181 15.5406V10.5256ZM12 21.5587C12.1404 21.5587 12.2708 21.5486 12.4012 21.5186C13.0532 21.3781 13.5848 20.9368 13.8455 20.335C13.9458 20.0943 13.996 19.8335 13.996 19.5527H9.98395C9.99398 20.656 10.8867 21.5587 12 21.5587Z" fill="white"/>
</svg>
