<svg width="64" height="64" viewBox="0 0 64 64" fill="none" xmlns="http://www.w3.org/2000/svg">
<path d="M3 27L32 3L61 27L40 42.5H24L3 27Z" fill="#21397E"/>
<rect x="9" y="9" width="46" height="44" fill="#EDF0F4"/>
<rect x="13" y="13" width="21" height="2" rx="1" fill="#C4C4C4"/>
<rect x="13" y="18" width="21" height="2" rx="1" fill="#C4C4C4"/>
<rect x="13" y="23" width="8" height="2" rx="1" fill="#C4C4C4"/>
<rect x="13" y="28" width="28" height="2" rx="1" fill="#C4C4C4"/>
<rect x="13" y="33" width="17" height="2" rx="1" fill="#C4C4C4"/>
<rect x="13" y="38" width="38" height="2" rx="1" fill="#C4C4C4"/>
<rect x="38" y="18" width="13" height="2" rx="1" fill="#C4C4C4"/>
<rect x="25" y="23" width="26" height="2" rx="1" fill="#C4C4C4"/>
<rect x="45" y="28" width="6" height="2" rx="1" fill="#C4C4C4"/>
<rect x="34" y="33" width="17" height="2" rx="1" fill="#C4C4C4"/>
<path d="M3 61L24 42.5L3 27V61Z" fill="#3B56A4"/>
<path d="M61 61L40 42.5L61 27V61Z" fill="#3B56A4"/>
<path d="M40 42.5H24L3 61H61L40 42.5Z" fill="#21397E"/>
</svg>
