<svg width="24" height="24" viewBox="0 0 24 24" fill="none" xmlns="http://www.w3.org/2000/svg">
<path fill-rule="evenodd" clip-rule="evenodd" d="M12 3H4C3.44772 3 3 3.44772 3 4V20C3 20.5523 3.44772 21 4 21H12C12.5523 21 13 20.5523 13 20V4C13 3.44772 12.5523 3 12 3ZM4 1C2.34315 1 1 2.34315 1 4V20C1 21.6569 2.34315 23 4 23H12C13.6569 23 15 21.6569 15 20V4C15 2.34315 13.6569 1 12 1H4Z" fill="#3B56A4"/>
<path d="M5.56394 11H4L6.03136 5H7.96864L10 11H8.43606L7.02205 6.51172H6.97501L5.56394 11ZM5.35522 8.63867H8.6242V9.74023H5.35522V8.63867Z" fill="#3B56A4"/>
<path d="M7 19V18.1738L10.0691 14.1777H7.00308V13H12V13.8262L8.93091 17.8223H11.9969V19H7Z" fill="#3B56A4"/>
<path d="M12 23H16C17.6569 23 19 21.6569 19 20V4C19 2.34315 17.6569 1 16 1H12V3H16C16.5523 3 17 3.44772 17 4V20C17 20.5523 16.5523 21 16 21H12V23Z" fill="#3B56A4"/>
<path fill-rule="evenodd" clip-rule="evenodd" d="M19 20H20C21.6569 20 23 18.7359 23 17.1765V16.2353C23 15.5121 22.7111 14.8525 22.2361 14.3529C22.7111 13.8534 23 13.1937 23 12.4706V11.5294C23 10.8063 22.7111 10.1466 22.2361 9.64706C22.7111 9.14752 23 8.48786 23 7.76471V6.82353C23 5.26414 21.6569 4 20 4H19V5.88235H20C20.5523 5.88235 21 6.30373 21 6.82353V7.76471C21 8.2845 20.5523 8.70588 20 8.70588H19V10.5882H20C20.5523 10.5882 21 11.0096 21 11.5294V12.4706C21 12.9904 20.5523 13.4118 20 13.4118H19V15.2941H20C20.5523 15.2941 21 15.7155 21 16.2353V17.1765C21 17.6963 20.5523 18.1176 20 18.1176H19V20Z" fill="#3B56A4"/>
</svg>
