<svg width="64" height="64" viewBox="0 0 64 64" fill="none" xmlns="http://www.w3.org/2000/svg">
<rect x="1" y="1" width="62" height="62" rx="31" fill="url(#paint0_linear_18443_55322)"/>
<path d="M15.4795 27.7754H23.2717V55.0417C21.2051 55.0417 19.2231 54.2218 17.7618 52.7624C16.3005 51.303 15.4795 49.3237 15.4795 47.2598V27.7754Z" fill="url(#paint1_linear_18443_55322)"/>
<path d="M38.8779 27.9631C38.8397 29.4851 38.3553 30.9625 37.4846 32.2123C36.6139 33.4621 35.3953 34.4293 33.9796 34.9943C32.5639 35.5592 31.0134 35.6971 29.5201 35.3907C28.0268 35.0843 26.6563 34.3472 25.5783 33.2706C24.5003 32.194 23.7622 30.8253 23.4554 29.334C23.1486 27.8426 23.2866 26.2942 23.8523 24.8804C24.418 23.4666 25.3865 22.2495 26.638 21.38C27.8894 20.5105 29.3687 20.0267 30.8928 19.9885L32.9521 12.3067C29.7145 11.9053 26.4322 12.5236 23.5635 14.0753C20.6948 15.627 18.3829 18.0346 16.9505 20.962C15.5182 23.8894 15.037 27.1903 15.574 30.404C16.1111 33.6178 17.6396 36.5838 19.9462 38.8879C22.2528 41.1921 25.2224 42.7195 28.4402 43.2567C31.658 43.7939 34.9635 43.3142 37.8951 41.8846C40.8267 40.455 43.2381 38.1467 44.7927 35.2822C46.3472 32.4177 46.9672 29.1399 46.5662 25.9065L38.8779 27.9631Z" fill="url(#paint2_linear_18443_55322)"/>
<path d="M31.082 27.7746L49.9206 22.7312C49.0313 19.4303 47.2891 16.4207 44.8685 14.004C42.4479 11.5872 39.4339 9.84813 36.1284 8.96094L31.082 27.7746Z" fill="#DB4626"/>
<rect x="1" y="1" width="62" height="62" rx="31" stroke="white" stroke-width="2"/>
<defs>
<linearGradient id="paint0_linear_18443_55322" x1="7.54893" y1="12.1972" x2="52.6813" y2="57.4085" gradientUnits="userSpaceOnUse">
<stop stop-color="#71CBD5"/>
<stop offset="1" stop-color="#4886F7"/>
</linearGradient>
<linearGradient id="paint1_linear_18443_55322" x1="8.32074" y1="51.8417" x2="26.2407" y2="38.4017" gradientUnits="userSpaceOnUse">
<stop offset="0.41523" stop-color="#5E81E7"/>
<stop offset="1" stop-color="#091C54"/>
</linearGradient>
<linearGradient id="paint2_linear_18443_55322" x1="15.3604" y1="12.1875" x2="46.6436" y2="43.5121" gradientUnits="userSpaceOnUse">
<stop stop-color="#5E81E7"/>
<stop offset="1" stop-color="#091C54"/>
</linearGradient>
</defs>
</svg>
