<svg width="16" height="16" viewBox="0 0 16 16" fill="none" xmlns="http://www.w3.org/2000/svg">
<path d="M12.6673 2.66667H11.334V2C11.334 1.82319 11.2637 1.65362 11.1387 1.5286C11.0137 1.40357 10.8441 1.33334 10.6673 1.33334C10.4905 1.33334 10.3209 1.40357 10.1959 1.5286C10.0709 1.65362 10.0007 1.82319 10.0007 2V2.66667H6.00065V2C6.00065 1.82319 5.93041 1.65362 5.80539 1.5286C5.68036 1.40357 5.5108 1.33334 5.33398 1.33334C5.15717 1.33334 4.9876 1.40357 4.86258 1.5286C4.73756 1.65362 4.66732 1.82319 4.66732 2V2.66667H3.33398C2.80355 2.66667 2.29484 2.87738 1.91977 3.25246C1.5447 3.62753 1.33398 4.13624 1.33398 4.66667V12.6667C1.33398 13.1971 1.5447 13.7058 1.91977 14.0809C2.29484 14.456 2.80355 14.6667 3.33398 14.6667H12.6673C13.1978 14.6667 13.7065 14.456 14.0815 14.0809C14.4566 13.7058 14.6673 13.1971 14.6673 12.6667V4.66667C14.6673 4.13624 14.4566 3.62753 14.0815 3.25246C13.7065 2.87738 13.1978 2.66667 12.6673 2.66667ZM13.334 12.6667C13.334 12.8435 13.2637 13.0131 13.1387 13.1381C13.0137 13.2631 12.8441 13.3333 12.6673 13.3333H3.33398C3.15717 13.3333 2.9876 13.2631 2.86258 13.1381C2.73756 13.0131 2.66732 12.8435 2.66732 12.6667V8H13.334V12.6667ZM13.334 6.66667H2.66732V4.66667C2.66732 4.48986 2.73756 4.32029 2.86258 4.19526C2.9876 4.07024 3.15717 4 3.33398 4H4.66732V4.66667C4.66732 4.84348 4.73756 5.01305 4.86258 5.13807C4.9876 5.2631 5.15717 5.33334 5.33398 5.33334C5.5108 5.33334 5.68036 5.2631 5.80539 5.13807C5.93041 5.01305 6.00065 4.84348 6.00065 4.66667V4H10.0007V4.66667C10.0007 4.84348 10.0709 5.01305 10.1959 5.13807C10.3209 5.2631 10.4905 5.33334 10.6673 5.33334C10.8441 5.33334 11.0137 5.2631 11.1387 5.13807C11.2637 5.01305 11.334 4.84348 11.334 4.66667V4H12.6673C12.8441 4 13.0137 4.07024 13.1387 4.19526C13.2637 4.32029 13.334 4.48986 13.334 4.66667V6.66667Z" fill="#8691B3"/>
</svg>
