<svg width="24" height="24" viewBox="0 0 24 24" fill="none" xmlns="http://www.w3.org/2000/svg">
<path d="M5.81481 11.7228C5.86963 11.6862 5.93407 11.6667 6 11.6667C6.0884 11.6667 6.17319 11.7018 6.2357 11.7643C6.29821 11.8268 6.33333 11.9116 6.33333 12C6.33333 12.0659 6.31378 12.1304 6.27716 12.1852C6.24053 12.24 6.18847 12.2827 6.12756 12.308C6.06665 12.3332 5.99963 12.3398 5.93497 12.3269C5.87031 12.3141 5.81092 12.2823 5.7643 12.2357C5.71768 12.1891 5.68593 12.1297 5.67307 12.065C5.66021 12.0004 5.66681 11.9333 5.69204 11.8724C5.71727 11.8115 5.75999 11.7595 5.81481 11.7228ZM17.8148 11.7228C17.8696 11.6862 17.9341 11.6667 18 11.6667C18.0884 11.6667 18.1732 11.7018 18.2357 11.7643C18.2982 11.8268 18.3333 11.9116 18.3333 12C18.3333 12.0659 18.3138 12.1304 18.2772 12.1852C18.2405 12.24 18.1885 12.2827 18.1276 12.308C18.0667 12.3332 17.9996 12.3398 17.935 12.3269C17.8703 12.3141 17.8109 12.2823 17.7643 12.2357C17.7177 12.1891 17.6859 12.1297 17.6731 12.065C17.6602 12.0004 17.6668 11.9333 17.692 11.8724C17.7173 11.8115 17.76 11.7595 17.8148 11.7228ZM4 5.66667H20C20.6188 5.66667 21.2123 5.9125 21.6499 6.35008C22.0875 6.78767 22.3333 7.38116 22.3333 8V16C22.3333 16.6188 22.0875 17.2123 21.6499 17.6499C21.2123 18.0875 20.6188 18.3333 20 18.3333H4C3.38116 18.3333 2.78767 18.0875 2.35008 17.6499C1.9125 17.2123 1.66667 16.6188 1.66667 16V8C1.66667 7.38116 1.9125 6.78767 2.35008 6.35008C2.78767 5.9125 3.38116 5.66667 4 5.66667ZM21.1785 17.1785C21.4911 16.866 21.6667 16.442 21.6667 16V8C21.6667 7.55797 21.4911 7.13405 21.1785 6.82149C20.866 6.50893 20.442 6.33333 20 6.33333H4C3.55797 6.33333 3.13405 6.50893 2.82149 6.82149C2.50893 7.13405 2.33333 7.55797 2.33333 8V16C2.33333 16.442 2.50893 16.866 2.82149 17.1785C3.13405 17.4911 3.55797 17.6667 4 17.6667H20C20.442 17.6667 20.8659 17.4911 21.1785 17.1785ZM10.7037 10.0599C11.0874 9.80351 11.5385 9.66667 12 9.66667C12.6188 9.66667 13.2123 9.9125 13.6499 10.3501C14.0875 10.7877 14.3333 11.3812 14.3333 12C14.3333 12.4615 14.1965 12.9126 13.9401 13.2963C13.6837 13.68 13.3193 13.9791 12.8929 14.1557C12.4666 14.3323 11.9974 14.3785 11.5448 14.2885C11.0922 14.1985 10.6764 13.9762 10.3501 13.6499C10.0238 13.3236 9.80153 12.9078 9.7115 12.4552C9.62147 12.0026 9.66768 11.5334 9.84428 11.1071C10.0209 10.6807 10.32 10.3163 10.7037 10.0599ZM11.074 13.3858C11.3481 13.5689 11.6704 13.6667 12 13.6667C12.442 13.6667 12.866 13.4911 13.1785 13.1785C13.4911 12.866 13.6667 12.442 13.6667 12C13.6667 11.6704 13.5689 11.3481 13.3858 11.074C13.2026 10.8 12.9423 10.5863 12.6378 10.4602C12.3333 10.3341 11.9982 10.301 11.6748 10.3654C11.3515 10.4297 11.0546 10.5884 10.8215 10.8215C10.5884 11.0546 10.4297 11.3515 10.3654 11.6748C10.301 11.9982 10.3341 12.3333 10.4602 12.6378C10.5863 12.9423 10.8 13.2026 11.074 13.3858Z" fill="#3B56A4" stroke="#3B56A4" stroke-width="1.33333"/>
</svg>
