<svg width="20" height="20" viewBox="0 0 20 20" fill="none" xmlns="http://www.w3.org/2000/svg">
<path d="M6 1.5H14V-1.5H6V1.5ZM18.5 6V14H21.5V6H18.5ZM14 18.5H6V21.5H14V18.5ZM1.5 14V6H-1.5V14H1.5ZM6 18.5C3.51472 18.5 1.5 16.4853 1.5 14H-1.5C-1.5 18.1421 1.85786 21.5 6 21.5V18.5ZM18.5 14C18.5 16.4853 16.4853 18.5 14 18.5V21.5C18.1421 21.5 21.5 18.1421 21.5 14H18.5ZM14 1.5C16.4853 1.5 18.5 3.51472 18.5 6H21.5C21.5 1.85786 18.1421 -1.5 14 -1.5V1.5ZM6 -1.5C1.85786 -1.5 -1.5 1.85786 -1.5 6H1.5C1.5 3.51472 3.51472 1.5 6 1.5V-1.5Z" fill="#8691B3"/>
</svg>
