<svg width="24" height="24" viewBox="0 0 24 24" fill="none" xmlns="http://www.w3.org/2000/svg">
<path d="M12 16.8C9.34903 16.8 7.2 14.651 7.2 12C7.2 9.34903 9.34903 7.2 12 7.2C14.651 7.2 16.8 9.34903 16.8 12C16.8 14.651 14.651 16.8 12 16.8Z" fill="#3B56A4"/>
<path fill-rule="evenodd" clip-rule="evenodd" d="M0 12C0 18.6274 5.37258 24 12 24C18.6274 24 24 18.6274 24 12C24 5.37258 18.6274 0 12 0C5.37258 0 0 5.37258 0 12ZM2.4 12C2.4 17.3019 6.69807 21.6 12 21.6C17.3019 21.6 21.6 17.3019 21.6 12C21.6 6.69807 17.3019 2.4 12 2.4C6.69807 2.4 2.4 6.69807 2.4 12Z" fill="#3B56A4"/>
</svg>
