<svg width="24" height="24" viewBox="0 0 24 24" fill="none" xmlns="http://www.w3.org/2000/svg">
<path fill-rule="evenodd" clip-rule="evenodd" d="M19 9H5C3.34315 9 2 10.3431 2 12C2 13.6569 3.34315 15 5 15H19C20.6569 15 22 13.6569 22 12C22 10.3431 20.6569 9 19 9ZM5 7C2.23858 7 0 9.23858 0 12C0 14.7614 2.23858 17 5 17H19C21.7614 17 24 14.7614 24 12C24 9.23858 21.7614 7 19 7H5Z" fill="#3B56A4"/>
<path d="M5.44296 10.5553C5.44296 10.2486 5.69159 10 5.9983 10C6.30501 10 6.55365 10.2486 6.55365 10.5553V11.134L7.18795 10.8042C7.44002 10.6732 7.76868 10.7609 7.92204 11C8.07539 11.2391 7.99537 11.5392 7.74329 11.6703L7.10896 12L7.74332 12.3297C7.99539 12.4608 8.07541 12.7609 7.92206 13C7.7687 13.2391 7.44004 13.3268 7.18797 13.1958L6.55365 12.866V13.4447C6.55365 13.7514 6.30501 14 5.9983 14C5.69159 14 5.44296 13.7514 5.44296 13.4447V12.866L4.80858 13.1958C4.55651 13.3268 4.22784 13.2391 4.07449 13C3.92113 12.7609 4.00116 12.4608 4.25323 12.3297L4.88758 12L4.25325 11.6703C4.00118 11.5392 3.92116 11.2391 4.07451 11C4.22787 10.7609 4.55653 10.6732 4.8086 10.8042L5.44296 11.134V10.5553Z" fill="#3B56A4"/>
<path d="M11.4464 10.5553C11.4464 10.2486 11.695 10 12.0017 10C12.3084 10 12.5571 10.2486 12.5571 10.5553V11.134L13.1914 10.8042C13.4434 10.6732 13.7721 10.7609 13.9255 11C14.0788 11.2391 13.9988 11.5392 13.7467 11.6703L13.1124 12L13.7467 12.3297C13.9988 12.4608 14.0788 12.7609 13.9255 13C13.7721 13.2391 13.4435 13.3268 13.1914 13.1958L12.5571 12.866V13.4447C12.5571 13.7514 12.3084 14 12.0017 14C11.695 14 11.4464 13.7514 11.4464 13.4447V12.866L10.812 13.1958C10.5599 13.3268 10.2313 13.2391 10.0779 13C9.92455 12.7609 10.0046 12.4608 10.2566 12.3297L10.891 12L10.2567 11.6703C10.0046 11.5392 9.92457 11.2391 10.0779 11C10.2313 10.7609 10.5599 10.6732 10.812 10.8042L11.4464 11.134V10.5553Z" fill="#3B56A4"/>
<path d="M17.4498 10.5553C17.4498 10.2486 17.6984 10 18.0051 10C18.3118 10 18.5605 10.2486 18.5605 10.5553V11.134L19.1948 10.8042C19.4469 10.6732 19.7755 10.7609 19.9289 11C20.0822 11.2391 20.0022 11.5392 19.7501 11.6703L19.1158 12L19.7502 12.3297C20.0022 12.4608 20.0822 12.7609 19.9289 13C19.7755 13.2391 19.4469 13.3268 19.1948 13.1958L18.5605 12.866V13.4447C18.5605 13.7514 18.3118 14 18.0051 14C17.6984 14 17.4498 13.7514 17.4498 13.4447V12.866L16.8154 13.1958C16.5633 13.3268 16.2347 13.2391 16.0813 13C15.928 12.7609 16.008 12.4608 16.2601 12.3297L16.8944 12L16.2601 11.6703C16.008 11.5392 15.928 11.2391 16.0813 11C16.2347 10.7609 16.5634 10.6732 16.8154 10.8042L17.4498 11.134V10.5553Z" fill="#3B56A4"/>
</svg>
