<svg width="36" height="36" viewBox="0 0 36 36" fill="none" xmlns="http://www.w3.org/2000/svg">
<rect x="2" y="3" width="32" height="24" rx="3" stroke="#53677F" stroke-width="2"/>
<rect x="8.5" y="32.5" width="19" height="1" rx="0.5" stroke="#53677F"/>
<path d="M15 27L13 33" stroke="#53677F" stroke-width="2"/>
<path d="M21 27L23 33" stroke="#53677F" stroke-width="2"/>
<path d="M2 22H35" stroke="#53677F" stroke-width="2"/>
<path d="M19.4696 8.595C19.6586 8.37714 19.8027 8.12409 19.8937 7.85037C19.9846 7.57665 20.0206 7.28766 19.9996 7C19.4193 7.04684 18.8806 7.31978 18.4996 7.76C18.3171 7.97099 18.1789 8.21644 18.093 8.48182C18.0071 8.7472 17.9753 9.02712 17.9996 9.305C18.2827 9.30736 18.5625 9.24455 18.8174 9.12143C19.0723 8.99831 19.2955 8.81819 19.4696 8.595ZM20.7296 12.315C20.7329 11.9319 20.8339 11.5559 21.0228 11.2226C21.2118 10.8893 21.4826 10.6096 21.8096 10.41C21.6032 10.1126 21.3304 9.86742 21.0127 9.69384C20.6951 9.52026 20.3413 9.42308 19.9796 9.41C19.1996 9.33 18.4796 9.865 18.0646 9.865C17.6496 9.865 17.0646 9.42 16.4146 9.43C15.9897 9.444 15.5756 9.56789 15.2128 9.78959C14.85 10.0113 14.5509 10.3232 14.3446 10.695C13.4646 12.225 14.1196 14.5 14.9996 15.735C15.3996 16.34 15.8996 17.025 16.5596 17C17.2196 16.975 17.4346 16.59 18.1996 16.59C18.9646 16.59 19.1996 17 19.8496 16.985C20.4996 16.97 20.9596 16.365 21.3796 15.76C21.6771 15.3208 21.9095 14.8408 22.0696 14.335C21.6733 14.166 21.3352 13.8846 21.0971 13.5257C20.859 13.1667 20.7312 12.7458 20.7296 12.315Z" fill="#53677F"/>
</svg>
