<svg width="24" height="24" viewBox="0 0 24 24" fill="none" xmlns="http://www.w3.org/2000/svg">
<g clip-path="url(#clip0_23616_78936)">
<path fill-rule="evenodd" clip-rule="evenodd" d="M2.03822 19.0237C1.85544 19.0518 1.67267 18.9815 1.57425 18.8268L0.0557943 16.3242C-0.0566837 16.1274 -0.000444677 15.8602 0.210452 15.7337L1.84138 14.7495C1.9398 14.6792 2.05228 14.6651 2.16476 14.6933C2.27724 14.7214 2.37565 14.7917 2.43189 14.8901L3.95035 17.3787C4.00659 17.4771 4.02064 17.6036 3.99253 17.7161C3.96441 17.8286 3.89411 17.9129 3.79569 17.9832L2.16476 18.9674C2.12258 18.9956 2.0804 19.0096 2.03822 19.0237Z" fill="#FBA617"/>
<path fill-rule="evenodd" clip-rule="evenodd" d="M0.969727 15.2697L1.84143 14.7495C1.93985 14.6792 2.05233 14.6651 2.16481 14.6933C2.27728 14.7214 2.3757 14.7917 2.43194 14.8901L3.95039 17.3787C4.00663 17.4771 4.02069 17.6036 3.99257 17.7161C3.96445 17.8286 3.89416 17.9129 3.79574 17.9832L2.93809 18.5035L0.969727 15.2697Z" fill="#FB9515"/>
<path fill-rule="evenodd" clip-rule="evenodd" d="M20.8498 14.6926C20.8358 14.6926 20.8217 14.6926 20.8076 14.6926L8.09763 16.0986C7.92891 16.1127 7.76019 16.0283 7.67583 15.8877L5.48251 12.2744C5.39815 12.1197 5.39815 11.9369 5.49657 11.7963L12.5967 1.18121C12.6811 1.05467 12.8217 0.984375 12.9764 0.984375C13.117 0.984375 13.2576 1.06873 13.3279 1.19527L21.0888 13.9756C21.131 14.0318 21.1732 14.1021 21.1873 14.1724C21.2294 14.4114 21.0888 14.6364 20.8498 14.6786V14.6926Z" fill="#FBA617"/>
<path fill-rule="evenodd" clip-rule="evenodd" d="M9.39112 15.9587L8.09763 16.0993C7.92891 16.1134 7.76019 16.029 7.67583 15.8884L5.48251 12.2751C5.39815 12.1204 5.39815 11.9377 5.49657 11.7971L6.21362 10.7285C6.24174 10.7707 6.28392 10.8129 6.31204 10.8551L9.30676 15.8041C9.33488 15.8463 9.363 15.9025 9.39112 15.9587Z" fill="#FB9515"/>
<path fill-rule="evenodd" clip-rule="evenodd" d="M8.54808 23.2401C8.37936 23.2682 8.18252 23.1979 8.09817 23.0292L5.21592 18.2911C5.08938 18.0802 5.15968 17.8271 5.35651 17.7006L6.95932 16.7164C7.05774 16.6602 7.18428 16.6461 7.2827 16.6742C7.39518 16.7023 7.4936 16.7726 7.54983 16.8711L10.4321 21.6092C10.5024 21.7076 10.5164 21.8341 10.4883 21.9326C10.4602 22.045 10.3899 22.1435 10.2915 22.1997L8.68867 23.1839C8.6465 23.212 8.59026 23.2261 8.54808 23.2401Z" fill="#E1474F"/>
<path fill-rule="evenodd" clip-rule="evenodd" d="M5.73613 19.1487L5.21592 18.2911C5.08938 18.0802 5.15968 17.8271 5.35651 17.7006L6.95932 16.7164C7.05774 16.6602 7.18428 16.6461 7.2827 16.6742C7.39518 16.7023 7.4936 16.7726 7.54983 16.8711L8.08411 17.7287L5.73613 19.1487Z" fill="#CB4047"/>
<path fill-rule="evenodd" clip-rule="evenodd" d="M4.4002 19.2614C4.34396 19.2755 4.27366 19.2614 4.21742 19.2473C4.10494 19.2192 4.00653 19.1489 3.95029 19.0505L0.955559 14.1155C0.885261 14.0171 0.871201 13.8906 0.89932 13.7781C0.92744 13.6797 0.997739 13.5813 1.09616 13.511L5.22972 11.0083C5.42656 10.8818 5.6937 10.9521 5.82023 11.163L8.81496 16.098C8.9415 16.3089 8.8712 16.576 8.67437 16.7025L4.5408 19.2052C4.49862 19.2333 4.45644 19.2473 4.4002 19.2614Z" fill="#FEE14D"/>
<path fill-rule="evenodd" clip-rule="evenodd" d="M20.3863 13.8775C20.3722 13.8916 20.3582 13.8916 20.3441 13.8916L17.8274 14.9039L11.2334 3.47331L12.8643 1.02691C12.9487 0.900377 13.0893 0.830078 13.2299 0.830078C13.3845 0.830078 13.5111 0.914437 13.5954 1.04097L20.6253 13.1745C20.6675 13.2308 20.7097 13.3011 20.7237 13.3714C20.7659 13.6104 20.6253 13.8354 20.3863 13.8775Z" fill="#FB9515"/>
<path fill-rule="evenodd" clip-rule="evenodd" d="M20.456 15.4238C19.6546 15.8878 18.6283 15.6207 18.1502 14.8052L11.514 3.3184C11.0501 2.50293 11.3312 1.47657 12.1327 1.0126C12.9481 0.534564 13.9745 0.815759 14.4385 1.63122L21.0747 13.118C21.5527 13.9195 21.2715 14.9599 20.456 15.4238Z" fill="#FEE14D"/>
<path fill-rule="evenodd" clip-rule="evenodd" d="M17.6583 4.42904C17.6162 4.42904 17.574 4.41498 17.5318 4.40092C17.3912 4.33062 17.335 4.1619 17.4053 4.03537L18.9237 0.914102C18.994 0.773504 19.1627 0.717265 19.3033 0.773504C19.4439 0.843803 19.5002 1.01252 19.4299 1.15312L17.8974 4.27438C17.8552 4.3728 17.7568 4.42904 17.6583 4.42904Z" fill="#CCCCCC"/>
<path fill-rule="evenodd" clip-rule="evenodd" d="M23.7176 9.15258H23.7036L20.2308 8.92762C20.0762 8.91356 19.9637 8.78703 19.9777 8.63237C19.9918 8.47771 20.1043 8.36523 20.273 8.36523L23.7317 8.60425C23.8864 8.60425 23.9988 8.74485 23.9988 8.89951C23.9848 9.0401 23.8582 9.15258 23.7176 9.15258Z" fill="#CCCCCC"/>
<path fill-rule="evenodd" clip-rule="evenodd" d="M18.7553 6.90259C18.6569 6.90259 18.5725 6.84636 18.5163 6.762C18.446 6.6214 18.4882 6.45268 18.6147 6.38238L21.3564 4.79363C21.4829 4.72333 21.6516 4.76551 21.736 4.89205C21.8063 5.03265 21.7641 5.20136 21.6376 5.27166L18.8959 6.86041C18.8537 6.88853 18.7975 6.90259 18.7553 6.90259Z" fill="#CCCCCC"/>
</g>
<defs>
<clipPath id="clip0_23616_78936">
<rect width="24" height="24" fill="white"/>
</clipPath>
</defs>
</svg>
