<svg width="17" height="21" viewBox="0 0 17 21" fill="none" xmlns="http://www.w3.org/2000/svg">
<path d="M9.16666 17.1667C10.2713 17.1653 11.3304 16.7259 12.1115 15.9448C12.8926 15.1637 13.332 14.1047 13.3333 13V5.70251C13.3346 5.26448 13.249 4.83054 13.0813 4.42586C12.9137 4.02118 12.6673 3.6538 12.3567 3.34501L10.4883 1.47668C10.1795 1.16599 9.81216 0.919683 9.40748 0.752031C9.0028 0.584379 8.56886 0.498718 8.13083 0.500014H4.16666C3.062 0.501338 2.00296 0.940749 1.22185 1.72186C0.440735 2.50298 0.00132321 3.56202 0 4.66668V13C0.00132321 14.1047 0.440735 15.1637 1.22185 15.9448C2.00296 16.7259 3.062 17.1653 4.16666 17.1667H9.16666ZM1.66667 13V4.66668C1.66667 4.00364 1.93006 3.36775 2.3989 2.89891C2.86774 2.43007 3.50362 2.16668 4.16666 2.16668C4.16666 2.16668 8.26583 2.17835 8.33333 2.18668V3.83335C8.33333 4.27537 8.50892 4.6993 8.82148 5.01186C9.13404 5.32442 9.55797 5.50001 9.99999 5.50001H11.6467C11.655 5.56751 11.6667 13 11.6667 13C11.6667 13.663 11.4033 14.2989 10.9344 14.7678C10.4656 15.2366 9.8297 15.5 9.16666 15.5H4.16666C3.50362 15.5 2.86774 15.2366 2.3989 14.7678C1.93006 14.2989 1.66667 13.663 1.66667 13ZM16.6667 7.16668V16.3333C16.6653 17.438 16.2259 18.497 15.4448 19.2782C14.6637 20.0593 13.6047 20.4987 12.5 20.5H5C4.77898 20.5 4.56702 20.4122 4.41074 20.2559C4.25446 20.0996 4.16666 19.8877 4.16666 19.6667C4.16666 19.4457 4.25446 19.2337 4.41074 19.0774C4.56702 18.9211 4.77898 18.8333 5 18.8333H12.5C13.163 18.8333 13.7989 18.5699 14.2678 18.1011C14.7366 17.6323 15 16.9964 15 16.3333V7.16668C15 6.94566 15.0878 6.7337 15.2441 6.57742C15.4003 6.42114 15.6123 6.33334 15.8333 6.33334C16.0543 6.33334 16.2663 6.42114 16.4226 6.57742C16.5789 6.7337 16.6667 6.94566 16.6667 7.16668Z" fill="#3B56A4"/>
</svg>
