<svg width="24" height="24" viewBox="0 0 24 24" fill="none" xmlns="http://www.w3.org/2000/svg">
<path d="M19.125 18H4.875C4.46079 18 4.125 18.3358 4.125 18.75V19.5C4.125 19.9142 4.46079 20.25 4.875 20.25H19.125C19.5392 20.25 19.875 19.9142 19.875 19.5V18.75C19.875 18.3358 19.5392 18 19.125 18Z" fill="#FADF7D"/>
<path d="M19.125 19.5H4.875C4.67627 19.4994 4.48585 19.4202 4.34533 19.2797C4.2048 19.1392 4.12559 18.9487 4.125 18.75V19.5C4.12559 19.6987 4.2048 19.8892 4.34533 20.0297C4.48585 20.1702 4.67627 20.2494 4.875 20.25H19.125C19.3237 20.2494 19.5142 20.1702 19.6547 20.0297C19.7952 19.8892 19.8744 19.6987 19.875 19.5V18.75C19.8744 18.9487 19.7952 19.1392 19.6547 19.2797C19.5142 19.4202 19.3237 19.4994 19.125 19.5Z" fill="#FFBF40"/>
<path d="M2.69625 8.00521C2.41698 8.18793 2.08474 8.2723 1.75213 8.24496C1.41951 8.21762 1.10551 8.08014 0.859817 7.85427C0.614127 7.62839 0.450779 7.32704 0.395626 6.99789C0.340474 6.66874 0.396665 6.33059 0.555309 6.03697C0.713952 5.74335 0.965986 5.51102 1.27152 5.37675C1.57706 5.24248 1.91865 5.21394 2.24223 5.29565C2.56582 5.37735 2.85291 5.56464 3.05808 5.82787C3.26325 6.09109 3.37477 6.41522 3.375 6.74896C3.37517 6.99827 3.31321 7.24369 3.1947 7.46303C3.07619 7.68237 2.90487 7.86871 2.69625 8.00521Z" fill="#FFC608"/>
<path d="M12.7613 6.53857C12.5311 6.67602 12.2681 6.74859 12 6.74859C11.7319 6.74859 11.4689 6.67602 11.2388 6.53857C10.9552 6.37156 10.7344 6.11593 10.6105 5.81108C10.4865 5.50623 10.4663 5.16908 10.5528 4.85158C10.6394 4.53408 10.8279 4.25385 11.0894 4.05408C11.351 3.85432 11.6709 3.74609 12 3.74609C12.3291 3.74609 12.649 3.85432 12.9106 4.05408C13.1721 4.25385 13.3606 4.53408 13.4472 4.85158C13.5337 5.16908 13.5135 5.50623 13.3895 5.81108C13.2656 6.11593 13.0448 6.37156 12.7613 6.53857Z" fill="#FFC608"/>
<path d="M22.125 8.25C21.8283 8.25 21.5383 8.16203 21.2916 7.99721C21.045 7.83238 20.8527 7.59811 20.7392 7.32403C20.6256 7.04994 20.5959 6.74834 20.6538 6.45737C20.7117 6.16639 20.8546 5.89912 21.0643 5.68934C21.2741 5.47956 21.5414 5.3367 21.8324 5.27882C22.1233 5.22094 22.4249 5.25065 22.699 5.36418C22.9731 5.47771 23.2074 5.66997 23.3722 5.91665C23.537 6.16332 23.625 6.45333 23.625 6.75C23.625 7.14783 23.467 7.52936 23.1857 7.81066C22.9044 8.09197 22.5228 8.25 22.125 8.25Z" fill="#FFC608"/>
<path d="M18.0003 8.55735C17.8805 8.60276 17.7534 8.62565 17.6253 8.62485C17.462 8.62523 17.3006 8.58937 17.1528 8.51985C16.915 8.41084 16.7226 8.22257 16.6083 7.98727C16.4941 7.75196 16.4652 7.48427 16.5266 7.23001C16.5881 6.97576 16.736 6.75077 16.945 6.59357C17.1541 6.43637 17.4113 6.35673 17.6726 6.36829C17.9339 6.37985 18.1831 6.4819 18.3774 6.65695C18.5718 6.832 18.6992 7.06918 18.7379 7.32786C18.7767 7.58654 18.7243 7.85064 18.5897 8.07494C18.4551 8.29923 18.2468 8.46977 18.0003 8.55735Z" fill="#FF9C00"/>
<path d="M6.84753 8.51988C6.69973 8.5894 6.53836 8.62526 6.37503 8.62488C6.24694 8.62567 6.1198 8.60279 6.00003 8.55738C5.75515 8.4698 5.54831 8.29988 5.41485 8.07667C5.2814 7.85345 5.22963 7.59081 5.2684 7.33366C5.30716 7.0765 5.43406 6.84079 5.62738 6.66684C5.82071 6.49289 6.06845 6.3915 6.32826 6.38C6.58807 6.36851 6.84381 6.44762 7.05174 6.60382C7.25967 6.76001 7.40689 6.98359 7.46822 7.23632C7.52955 7.48905 7.50118 7.75523 7.38796 7.98936C7.27474 8.22349 7.08371 8.41101 6.84753 8.51988Z" fill="#FF9C00"/>
<path d="M9.6525 13.042C9.19875 13.7658 8.6175 14.2495 7.875 14.2495C7.335 14.2495 6.67125 13.7208 6 12.967V8.55703C6.11977 8.60244 6.24691 8.62533 6.375 8.62453C6.53833 8.62491 6.69971 8.58905 6.8475 8.51953C7.15125 9.33328 8.1525 11.7745 9.6525 13.042Z" fill="#FFAA00"/>
<path d="M18.0002 8.55703V12.967C17.3289 13.7208 16.6652 14.2495 16.1252 14.2495C15.3827 14.2495 14.8014 13.7658 14.3477 13.042C15.8477 11.7745 16.8489 9.33328 17.1527 8.51953C17.3005 8.58905 17.4618 8.62491 17.6252 8.62453C17.7532 8.62533 17.8804 8.60244 18.0002 8.55703Z" fill="#FFAA00"/>
<path d="M12.7762 16.7916C12.8414 16.8409 12.9199 16.8693 13.0015 16.8731C13.0831 16.8769 13.1639 16.8559 13.2333 16.8129C13.3027 16.7699 13.3575 16.7068 13.3904 16.632C13.4232 16.5573 13.4327 16.4743 13.4175 16.3941L13.2188 15.4266L13.7475 14.9091C13.8017 14.8553 13.8388 14.7867 13.854 14.7119C13.8693 14.6371 13.862 14.5595 13.8331 14.4888C13.8042 14.4182 13.755 14.3577 13.6917 14.315C13.6284 14.2723 13.5538 14.2494 13.4775 14.2491H12.7463L12.3638 13.3491C12.33 13.2815 12.2781 13.2246 12.2139 13.1848C12.1496 13.1451 12.0756 13.124 12 13.124C11.9244 13.124 11.8504 13.1451 11.7861 13.1848C11.7219 13.2246 11.67 13.2815 11.6363 13.3491L11.2537 14.2491H10.5225C10.4462 14.2494 10.3716 14.2723 10.3083 14.315C10.245 14.3577 10.1958 14.4182 10.1669 14.4888C10.138 14.5595 10.1307 14.6371 10.146 14.7119C10.1612 14.7867 10.1983 14.8553 10.2525 14.9091L10.7812 15.4266L10.5825 16.3941C10.5673 16.4743 10.5768 16.5573 10.6096 16.632C10.6425 16.7068 10.6973 16.7699 10.7667 16.8129C10.8361 16.8559 10.9169 16.8769 10.9985 16.8731C11.0801 16.8693 11.1586 16.8409 11.2238 16.7916L12 16.2216L12.7762 16.7916ZM18 12.9666C19.4625 11.3316 20.9663 8.62781 21.3038 8.00531C21.548 8.16467 21.8334 8.24937 22.125 8.24906L19.125 16.4991V17.9991H4.875V16.4991L1.875 8.24906C2.16662 8.24937 2.45201 8.16467 2.69625 8.00531C3.03375 8.62781 4.5375 11.3316 6 12.9666C6.67125 13.7203 7.335 14.2491 7.875 14.2491C8.6175 14.2491 9.19875 13.7653 9.6525 13.0416C10.8787 11.0878 11.1862 7.36406 11.2387 6.53906C11.4689 6.67651 11.7319 6.74909 12 6.74909C12.2681 6.74909 12.5311 6.67651 12.7612 6.53906C12.8137 7.36406 13.1212 11.0878 14.3475 13.0416C14.8012 13.7653 15.3825 14.2491 16.125 14.2491C16.665 14.2491 17.3287 13.7203 18 12.9666Z" fill="#FADF7D"/>
<path d="M12.3642 13.3481L12.7467 14.2481H13.478C13.5543 14.2484 13.6288 14.2713 13.6921 14.314C13.7554 14.3567 13.8046 14.4172 13.8335 14.4879C13.8624 14.5585 13.8697 14.6361 13.8545 14.711C13.8393 14.7858 13.8022 14.8544 13.748 14.9081L13.2192 15.4256L13.418 16.3931C13.4332 16.4733 13.4237 16.5563 13.3908 16.6311C13.3579 16.7058 13.3032 16.7689 13.2338 16.8119C13.1644 16.855 13.0835 16.8759 13.0019 16.8721C12.9204 16.8683 12.8418 16.8399 12.7767 16.7906L12.0005 16.2206L11.2242 16.7906C11.1591 16.8399 11.0806 16.8683 10.999 16.8721C10.9174 16.8759 10.8366 16.855 10.7672 16.8119C10.6978 16.7689 10.643 16.7058 10.6101 16.6311C10.5772 16.5563 10.5678 16.4733 10.583 16.3931L10.7817 15.4256L10.253 14.9081C10.1987 14.8544 10.1617 14.7858 10.1464 14.711C10.1312 14.6361 10.1385 14.5585 10.1674 14.4879C10.1963 14.4172 10.2455 14.3567 10.3088 14.314C10.3721 14.2713 10.4466 14.2484 10.523 14.2481H11.2542L11.6367 13.3481C11.6704 13.2805 11.7224 13.2236 11.7866 13.1839C11.8509 13.1441 11.9249 13.123 12.0005 13.123C12.076 13.123 12.1501 13.1441 12.2143 13.1839C12.2786 13.2236 12.3305 13.2805 12.3642 13.3481Z" fill="#D1013E"/>
<path d="M12.7613 5.78919C12.5312 5.92664 12.2681 5.99921 12.0001 5.99921C11.732 5.99921 11.469 5.92664 11.2388 5.78919C10.8985 5.59006 10.6509 5.26413 10.5503 4.88281C10.4661 5.19618 10.488 5.5286 10.6126 5.82823C10.7371 6.12785 10.9573 6.37784 11.2388 6.53919C11.469 6.67664 11.732 6.74921 12.0001 6.74921C12.2681 6.74921 12.5312 6.67664 12.7613 6.53919C13.0429 6.37784 13.2631 6.12785 13.3876 5.82823C13.5121 5.5286 13.534 5.19618 13.4498 4.88281C13.3493 5.26413 13.1017 5.59006 12.7613 5.78919Z" fill="#FFAA00"/>
<path d="M22.8863 7.28919C22.6562 7.42664 22.3931 7.49921 22.1251 7.49921C21.857 7.49921 21.594 7.42664 21.3638 7.28919C21.0235 7.09006 20.7759 6.76413 20.6753 6.38281C20.5911 6.69618 20.613 7.0286 20.7376 7.32823C20.8621 7.62785 21.0823 7.87784 21.3638 8.03919C21.594 8.17664 21.857 8.24921 22.1251 8.24921C22.3931 8.24921 22.6562 8.17664 22.8863 8.03919C23.1679 7.87784 23.3881 7.62785 23.5126 7.32823C23.6371 7.0286 23.659 6.69618 23.5748 6.38281C23.4743 6.76413 23.2267 7.09006 22.8863 7.28919Z" fill="#FFAA00"/>
<path d="M2.63633 7.28919C2.4062 7.42664 2.14314 7.49921 1.87508 7.49921C1.60703 7.49921 1.34397 7.42664 1.11383 7.28919C0.773452 7.09006 0.525872 6.76413 0.425335 6.38281C0.341141 6.69618 0.363023 7.0286 0.487567 7.32823C0.612112 7.62785 0.832316 7.87784 1.11383 8.03919C1.34397 8.17664 1.60703 8.24921 1.87508 8.24921C2.14314 8.24921 2.4062 8.17664 2.63633 8.03919C2.91785 7.87784 3.13806 7.62785 3.2626 7.32823C3.38715 7.0286 3.40903 6.69618 3.32484 6.38281C3.2243 6.76413 2.97672 7.09006 2.63633 7.28919Z" fill="#FFAA00"/>
<path d="M6.84751 7.76858C6.69972 7.8381 6.53834 7.87396 6.37501 7.87358C6.24692 7.87437 6.11979 7.85149 6.00001 7.80608C5.84256 7.75165 5.69939 7.66242 5.58117 7.54504C5.46294 7.42766 5.3727 7.28514 5.31714 7.12808C5.27411 7.24693 5.25141 7.37218 5.25001 7.49858C5.24889 7.7311 5.32063 7.95813 5.45514 8.1478C5.58966 8.33747 5.7802 8.48024 6.00001 8.55608C6.11979 8.60149 6.24692 8.62437 6.37501 8.62358C6.53834 8.62396 6.69972 8.5881 6.84751 8.51858C7.10271 8.40334 7.30487 8.19581 7.41338 7.93768C7.52189 7.67955 7.52873 7.38992 7.43251 7.12695C7.38284 7.26757 7.30547 7.39681 7.20499 7.50701C7.10451 7.61722 6.98296 7.70616 6.84751 7.76858Z" fill="#DE8800"/>
<path d="M18.0975 7.76858C17.9497 7.8381 17.7883 7.87396 17.625 7.87358C17.4969 7.87437 17.3698 7.85149 17.25 7.80608C17.0926 7.75165 16.9494 7.66242 16.8312 7.54504C16.7129 7.42766 16.6227 7.28514 16.5671 7.12808C16.5241 7.24693 16.5014 7.37218 16.5 7.49858C16.4989 7.7311 16.5706 7.95813 16.7051 8.1478C16.8397 8.33747 17.0302 8.48024 17.25 8.55608C17.3698 8.60149 17.4969 8.62437 17.625 8.62358C17.7883 8.62396 17.9497 8.5881 18.0975 8.51858C18.3527 8.40334 18.5549 8.19581 18.6634 7.93768C18.7719 7.67955 18.7787 7.38992 18.6825 7.12695C18.6328 7.26757 18.5555 7.39681 18.455 7.50701C18.3545 7.61722 18.233 7.70616 18.0975 7.76858Z" fill="#DE8800"/>
<path d="M6.75525 12.997C6.6395 12.9318 6.54324 12.8369 6.4764 12.7221C6.40956 12.6072 6.37456 12.4766 6.375 12.3438V10.1245C6.375 9.92562 6.45402 9.73485 6.59467 9.5942C6.73532 9.45355 6.92609 9.37453 7.125 9.37453H7.19587C7.0395 9.01903 6.92213 8.71978 6.8475 8.51953C6.69971 8.58905 6.53833 8.62491 6.375 8.62453C6.24691 8.62533 6.11977 8.60244 6 8.55703V12.967C6.67125 13.7208 7.335 14.2495 7.875 14.2495C8.6175 14.2495 9.19875 13.7658 9.6525 13.042C9.615 13.0094 9.5775 12.973 9.54 12.9389C8.502 13.774 7.33987 13.3259 6.75525 12.997Z" fill="#FF9C00"/>
<path d="M17.6252 8.62453C17.4618 8.62491 17.3005 8.58905 17.1527 8.51953C17.0777 8.71978 16.9607 9.01903 16.8043 9.37453H16.8752C17.0741 9.37453 17.2648 9.45355 17.4055 9.5942C17.5461 9.73485 17.6252 9.92562 17.6252 10.1245V12.3438C17.6256 12.4766 17.5906 12.6072 17.5238 12.7221C17.4569 12.8369 17.3607 12.9318 17.2449 12.997C16.6603 13.3259 15.4993 13.7714 14.4624 12.9378C14.4249 12.9723 14.3874 13.009 14.3477 13.042C14.8014 13.7658 15.3827 14.2495 16.1252 14.2495C16.6652 14.2495 17.3289 13.7208 18.0002 12.967V8.55703C17.8804 8.60244 17.7532 8.62533 17.6252 8.62453Z" fill="#FF9C00"/>
<path d="M21.2275 9.28641C21.2683 9.20648 21.3362 9.14369 21.4191 9.10933C21.502 9.07497 21.5944 9.07127 21.6798 9.09891L21.8001 9.13903L22.1245 8.24766C21.8329 8.24797 21.5475 8.16326 21.3033 8.00391C20.9658 8.62641 19.462 11.3302 17.9995 12.9652C17.4141 13.6225 16.8348 14.1082 16.3379 14.2218C16.9971 14.1003 19.0953 13.3942 21.2275 9.28641Z" fill="#FFBF40"/>
<path d="M12.7762 16.7902L12.378 16.4977H11.622L11.2238 16.7902C11.1657 16.8335 11.0971 16.8605 11.0251 16.8683C10.9531 16.8762 10.8803 16.8645 10.8143 16.8347C10.7484 16.8048 10.6916 16.7578 10.65 16.6985C10.6083 16.6392 10.5833 16.5699 10.5776 16.4977H7.125C6.82663 16.4977 6.54048 16.3791 6.3295 16.1682C6.11853 15.9572 6 15.671 6 15.3727L2.91637 9.54816C2.88611 9.491 2.87114 9.42699 2.87291 9.36235C2.87469 9.2977 2.89316 9.23461 2.92652 9.17921C2.95989 9.1238 3.00701 9.07797 3.06332 9.04616C3.11962 9.01435 3.1832 8.99764 3.24788 8.99766H3.25725C2.9925 8.54353 2.79412 8.18466 2.69475 8.00391C2.45094 8.16298 2.16611 8.24767 1.875 8.24766L4.875 16.4977V17.9977H19.125V16.4977H13.4224C13.4167 16.5699 13.3917 16.6392 13.35 16.6985C13.3084 16.7578 13.2516 16.8048 13.1857 16.8347C13.1197 16.8645 13.0469 16.8762 12.9749 16.8683C12.9029 16.8605 12.8343 16.8335 12.7762 16.7902Z" fill="#FFBF40"/>
<path d="M11.595 8.20106C11.6072 8.01058 11.6916 7.83193 11.8309 7.7015C11.9703 7.57107 12.1541 7.49867 12.345 7.49906H12.8467C12.8006 7.06781 12.7748 6.72619 12.7628 6.53906C12.5326 6.67651 12.2696 6.74909 12.0015 6.74909C11.7334 6.74909 11.4704 6.67651 11.2403 6.53906C11.1878 7.36406 10.8802 11.0878 9.654 13.0416C9.19875 13.7653 8.6175 14.2491 7.875 14.2491C10.875 14.2491 11.475 9.92906 11.595 8.20106Z" fill="#FFBF40"/>
<path d="M14.1799 14.3468C14.1233 14.207 14.0263 14.0875 13.9011 14.0034C13.776 13.9193 13.6286 13.8746 13.4779 13.875H12.9945L12.7092 13.203C12.7062 13.196 12.7028 13.1889 12.699 13.1816C12.6346 13.0516 12.5349 12.9422 12.4114 12.8659C12.288 12.7896 12.1456 12.7495 12.0004 12.75C11.8515 12.7505 11.7058 12.7934 11.5803 12.8736C11.4548 12.9538 11.3547 13.0681 11.2917 13.203L11.0063 13.875H10.5229C10.3721 13.8753 10.2247 13.9205 10.0996 14.0048C9.97443 14.089 9.87717 14.2086 9.82014 14.3482C9.76311 14.4879 9.74888 14.6414 9.77927 14.7891C9.80965 14.9369 9.88328 15.0723 9.99079 15.1781L10.3729 15.5531L10.2158 16.3193C10.1834 16.4725 10.1988 16.632 10.2599 16.7762C10.3211 16.9204 10.4251 17.0423 10.5578 17.1255C10.6842 17.2067 10.8313 17.25 10.9815 17.2504C11.149 17.2504 11.3119 17.196 11.4458 17.0955L12.0004 16.6875L12.5524 17.0933C12.6797 17.1892 12.8334 17.2437 12.9928 17.2494C13.1521 17.255 13.3093 17.2115 13.443 17.1248C13.5756 17.0417 13.6795 16.92 13.7408 16.776C13.802 16.632 13.8176 16.4727 13.7854 16.3196L13.6279 15.5524L14.0112 15.1774C14.1189 15.0715 14.1925 14.9359 14.2226 14.7879C14.2527 14.6399 14.2378 14.4863 14.1799 14.3468ZM13.7479 14.9093L13.2192 15.4268L13.4179 16.3943C13.4331 16.4745 13.4237 16.5575 13.3908 16.6322C13.3579 16.707 13.3031 16.7701 13.2337 16.8131C13.1643 16.8561 13.0835 16.8771 13.0019 16.8733C12.9203 16.8695 12.8418 16.8411 12.7767 16.7918L12.0004 16.2225L11.2242 16.7925C11.1591 16.8418 11.0805 16.8702 10.999 16.8741C10.9174 16.8779 10.8365 16.8569 10.7671 16.8138C10.6977 16.7708 10.6429 16.7078 10.6101 16.633C10.5772 16.5582 10.5677 16.4753 10.5829 16.395L10.7817 15.4275L10.2529 14.91C10.1987 14.8563 10.1616 14.7877 10.1464 14.7129C10.1311 14.6381 10.1384 14.5604 10.1673 14.4898C10.1963 14.4191 10.2455 14.3586 10.3088 14.3159C10.3721 14.2733 10.4466 14.2503 10.5229 14.25H11.2542L11.6367 13.35C11.6704 13.2824 11.7223 13.2255 11.7866 13.1858C11.8508 13.146 11.9249 13.125 12.0004 13.125C12.076 13.125 12.15 13.146 12.2143 13.1858C12.2785 13.2255 12.3304 13.2824 12.3642 13.35L12.7467 14.25H13.4779C13.5543 14.2503 13.6288 14.2733 13.6921 14.3159C13.7554 14.3586 13.8046 14.4191 13.8335 14.4898C13.8624 14.5604 13.8697 14.6381 13.8545 14.7129C13.8392 14.7877 13.8021 14.8563 13.7479 14.91V14.9093Z" fill="#FF9C00"/>
<path d="M18 7.5C18.2071 7.5 18.375 7.33211 18.375 7.125C18.375 6.91789 18.2071 6.75 18 6.75C17.7929 6.75 17.625 6.91789 17.625 7.125C17.625 7.33211 17.7929 7.5 18 7.5Z" fill="#FFC608"/>
<path d="M6.75 7.5C6.95711 7.5 7.125 7.33211 7.125 7.125C7.125 6.91789 6.95711 6.75 6.75 6.75C6.54289 6.75 6.375 6.91789 6.375 7.125C6.375 7.33211 6.54289 7.5 6.75 7.5Z" fill="#FFC608"/>
<path d="M12.375 5.25C12.5821 5.25 12.75 5.08211 12.75 4.875C12.75 4.66789 12.5821 4.5 12.375 4.5C12.1679 4.5 12 4.66789 12 4.875C12 5.08211 12.1679 5.25 12.375 5.25Z" fill="#FFFCED"/>
<path d="M22.875 6.75C23.0821 6.75 23.25 6.58211 23.25 6.375C23.25 6.16789 23.0821 6 22.875 6C22.6679 6 22.5 6.16789 22.5 6.375C22.5 6.58211 22.6679 6.75 22.875 6.75Z" fill="#FFFCED"/>
<path d="M2.625 6.75C2.83211 6.75 3 6.58211 3 6.375C3 6.16789 2.83211 6 2.625 6C2.41789 6 2.25 6.16789 2.25 6.375C2.25 6.58211 2.41789 6.75 2.625 6.75Z" fill="#FFFCED"/>
</svg>
