<svg width="25" height="24" viewBox="0 0 25 24" fill="none" xmlns="http://www.w3.org/2000/svg">
<path d="M9.75 20H15.75V22H9.75V20ZM17.656 13.712C18.686 12.506 19.75 11.259 19.75 9C19.75 5.141 16.609 2 12.75 2C8.891 2 5.75 5.141 5.75 9C5.75 11.285 6.817 12.528 7.851 13.73C8.209 14.148 8.58 14.581 8.935 15.079C9.079 15.285 9.315 16.075 9.526 17H8.75V19H16.75V17H15.976C16.189 16.073 16.426 15.281 16.569 15.075C16.921 14.572 17.295 14.135 17.656 13.712ZM14.932 13.925C14.498 14.542 14.136 16 13.926 17H11.575C11.366 15.998 11.003 14.537 10.564 13.92C10.1888 13.4043 9.78966 12.9065 9.368 12.428C8.394 11.294 7.75 10.544 7.75 9C7.75 6.243 9.993 4 12.75 4C15.507 4 17.75 6.243 17.75 9C17.75 10.521 17.107 11.274 16.135 12.413C15.762 12.851 15.339 13.346 14.932 13.925Z" fill="#3B56A4"/>
</svg>
