<svg width="24" height="24" viewBox="0 0 24 24" fill="none" xmlns="http://www.w3.org/2000/svg">
<path d="M3.282 11.064C2.854 11.392 2.562 11.673 2.407 11.915C2.252 12.155 2.158 12.413 2.128 12.683H4.807V11.935H3.413C3.494 11.854 3.565 11.784 3.625 11.734C3.687 11.684 3.807 11.592 3.986 11.464C4.289 11.246 4.497 11.044 4.612 10.86C4.728 10.674 4.785 10.485 4.785 10.282C4.78773 10.1 4.73507 9.92142 4.634 9.77C4.53478 9.61687 4.39098 9.49785 4.222 9.429C4.048 9.353 3.803 9.318 3.489 9.318C3.189 9.318 2.952 9.356 2.783 9.432C2.62023 9.50262 2.48231 9.62034 2.387 9.77C2.293 9.913 2.228 10.116 2.193 10.374L3.087 10.45C3.112 10.262 3.161 10.133 3.234 10.056C3.2706 10.0198 3.31426 9.99155 3.36226 9.97297C3.41026 9.95439 3.46157 9.94589 3.513 9.948C3.623 9.948 3.713 9.983 3.785 10.056C3.82007 10.089 3.8478 10.1291 3.8664 10.1735C3.88501 10.218 3.89407 10.2658 3.893 10.314C3.88683 10.4214 3.84928 10.5247 3.785 10.611C3.711 10.713 3.544 10.865 3.282 11.064ZM3.337 17.45C3.23288 17.4533 3.13164 17.4156 3.055 17.345C2.981 17.275 2.927 17.15 2.893 16.967L2 17.085C2.059 17.289 2.142 17.457 2.251 17.591C2.36 17.724 2.499 17.826 2.668 17.897C2.836 17.966 3.067 18 3.36 18C3.66 18 3.901 17.953 4.085 17.86C4.26334 17.7709 4.41099 17.6306 4.509 17.457C4.607 17.282 4.655 17.103 4.655 16.913C4.65867 16.7767 4.62843 16.6417 4.567 16.52C4.50793 16.413 4.42214 16.323 4.318 16.259C4.22878 16.2081 4.13235 16.171 4.032 16.149C4.16975 16.0791 4.28823 15.9764 4.377 15.85C4.45255 15.7367 4.49195 15.6032 4.49 15.467C4.49185 15.3528 4.46748 15.2397 4.41877 15.1363C4.37005 15.033 4.29829 14.9422 4.209 14.871C4.022 14.712 3.719 14.633 3.3 14.633C2.935 14.633 2.652 14.705 2.453 14.852C2.253 14.995 2.119 15.205 2.049 15.478L2.893 15.629C2.916 15.467 2.96 15.355 3.026 15.291C3.092 15.227 3.177 15.193 3.283 15.193C3.32708 15.191 3.37112 15.1978 3.41252 15.2131C3.45391 15.2284 3.49182 15.2518 3.524 15.282C3.583 15.342 3.611 15.421 3.611 15.52C3.611 15.624 3.573 15.713 3.494 15.79C3.415 15.867 3.317 15.902 3.201 15.902C3.16214 15.9008 3.12339 15.8972 3.085 15.891L3.04 16.54C3.13348 16.5088 3.23064 16.49 3.329 16.484C3.461 16.484 3.566 16.525 3.642 16.61C3.719 16.692 3.757 16.809 3.757 16.962C3.757 17.108 3.717 17.228 3.638 17.316C3.60047 17.3587 3.55414 17.3928 3.50218 17.416C3.45022 17.4391 3.39387 17.4507 3.337 17.45ZM4.285 7.367V4H3.546C3.45566 4.20174 3.32098 4.38051 3.152 4.523C2.984 4.665 2.748 4.785 2.444 4.888V5.642C2.78585 5.5477 3.10474 5.38434 3.381 5.162V7.368H4.285V7.367ZM7 5H18V7H7V5ZM7 10H16V12H7V10ZM7 15H13V17H7V15Z" fill="white"/>
<path d="M17 12H19V15H22V17H19V20H17V17H14V15H17V12Z" fill="white"/>
</svg>
