<svg width="21" height="16" viewBox="0 0 21 16" fill="none" xmlns="http://www.w3.org/2000/svg">
<path d="M2.69143 2.292C4.09443 0.771 6.21743 0 9.00043 0H10.0004V2.819L9.19643 2.98C7.82643 3.254 6.87343 3.793 6.36343 4.584C6.09732 5.01013 5.9464 5.49804 5.92543 6H9.00043C9.26565 6 9.52 6.10536 9.70754 6.29289C9.89507 6.48043 10.0004 6.73478 10.0004 7V14C10.0004 15.103 9.10343 16 8.00043 16H2.00043C1.73521 16 1.48086 15.8946 1.29332 15.7071C1.10579 15.5196 1.00043 15.2652 1.00043 15V10L1.00343 7.081C0.994428 6.97 0.804428 4.34 2.69143 2.292ZM19.0004 16H13.0004C12.7352 16 12.4809 15.8946 12.2933 15.7071C12.1058 15.5196 12.0004 15.2652 12.0004 15V10L12.0034 7.081C11.9944 6.97 11.8044 4.34 13.6914 2.292C15.0944 0.771 17.2174 0 20.0004 0H21.0004V2.819L20.1964 2.98C18.8264 3.254 17.8734 3.793 17.3634 4.584C17.0973 5.01013 16.9464 5.49804 16.9254 6H20.0004C20.2656 6 20.52 6.10536 20.7075 6.29289C20.8951 6.48043 21.0004 6.73478 21.0004 7V14C21.0004 15.103 20.1034 16 19.0004 16Z" fill="#BECAE5"/>
</svg>
