<svg width="8" height="10" viewBox="0 0 8 10" fill="none" xmlns="http://www.w3.org/2000/svg">
<path d="M1.69868 5.52862L3.3001 7.0625V0.666883C3.3001 0.49001 3.37377 0.32038 3.50492 0.195312C3.63606 0.0702429 3.81394 -2.00272e-05 3.9994 -2.00272e-05C4.18487 -2.00272e-05 4.36274 0.0702429 4.49389 0.195312C4.62503 0.32038 4.69871 0.49001 4.69871 0.666883V7.0625L6.30013 5.52862C6.36514 5.46611 6.44248 5.41649 6.5277 5.38264C6.61292 5.34878 6.70432 5.33135 6.79664 5.33135C6.88895 5.33135 6.98036 5.34878 7.06557 5.38264C7.15079 5.41649 7.22814 5.46611 7.29314 5.52862C7.35869 5.59061 7.41072 5.66437 7.44622 5.74564C7.48172 5.82691 7.5 5.91408 7.5 6.00212C7.5 6.09016 7.48172 6.17732 7.44622 6.25859C7.41072 6.33986 7.35869 6.41362 7.29314 6.47562L4.49591 9.14324C4.42941 9.20395 4.35098 9.25155 4.26514 9.28329C4.09489 9.34999 3.90392 9.34999 3.73367 9.28329C3.64783 9.25155 3.5694 9.20395 3.50289 9.14324L0.705661 6.47562C0.640458 6.41344 0.588737 6.33962 0.55345 6.25837C0.518162 6.17713 0.5 6.09005 0.5 6.00212C0.5 5.91418 0.518162 5.8271 0.55345 5.74586C0.588737 5.66462 0.640458 5.5908 0.705661 5.52862C0.770863 5.46643 0.84827 5.41711 0.933461 5.38346C1.01865 5.34981 1.10996 5.33248 1.20217 5.33248C1.29438 5.33248 1.38569 5.34981 1.47088 5.38346C1.55607 5.41711 1.63348 5.46643 1.69868 5.52862Z" fill="#E04036"/>
</svg>
