<svg width="20" height="20" viewBox="0 0 20 20" fill="none" xmlns="http://www.w3.org/2000/svg">
<path d="M2.5 17.4999H5.625L14.8417 8.2832L11.7167 5.1582L2.5 14.3749V17.4999ZM4.16667 15.0665L11.7167 7.51654L12.4833 8.2832L4.93333 15.8332H4.16667V15.0665Z" fill="#BECAE5"/>
<path d="M15.3084 2.74175C15.2313 2.6645 15.1397 2.60321 15.0389 2.56139C14.9381 2.51957 14.83 2.49805 14.7209 2.49805C14.6118 2.49805 14.5037 2.51957 14.4029 2.56139C14.3021 2.60321 14.2105 2.6645 14.1334 2.74175L12.6084 4.26675L15.7334 7.39175L17.2584 5.86675C17.3357 5.78966 17.3969 5.69808 17.4388 5.59727C17.4806 5.49646 17.5021 5.38839 17.5021 5.27925C17.5021 5.17011 17.4806 5.06204 17.4388 4.96123C17.3969 4.86042 17.3357 4.76885 17.2584 4.69175L15.3084 2.74175Z" fill="#BECAE5"/>
</svg>
