<svg width="24" height="24" viewBox="0 0 24 24" fill="none" xmlns="http://www.w3.org/2000/svg">
<path d="M3 20.9999H6.75L17.81 9.93994L14.06 6.18994L3 17.2499V20.9999ZM5 18.0799L14.06 9.01994L14.98 9.93994L5.92 18.9999H5V18.0799Z" fill="white"/>
<path d="M18.3709 3.29C18.2783 3.1973 18.1685 3.12375 18.0475 3.07357C17.9265 3.02339 17.7968 2.99756 17.6659 2.99756C17.5349 2.99756 17.4052 3.02339 17.2842 3.07357C17.1633 3.12375 17.0534 3.1973 16.9609 3.29L15.1309 5.12L18.8809 8.87L20.7109 7.04C20.8036 6.94749 20.8771 6.8376 20.9273 6.71663C20.9775 6.59565 21.0033 6.46597 21.0033 6.335C21.0033 6.20403 20.9775 6.07435 20.9273 5.95338C20.8771 5.83241 20.8036 5.72252 20.7109 5.63L18.3709 3.29Z" fill="white"/>
</svg>
