<svg width="16" height="16" viewBox="0 0 16 16" fill="none" xmlns="http://www.w3.org/2000/svg">
<path d="M2 14H4.5L11.8733 6.62671L9.37333 4.12671L2 11.5V14ZM3.33333 12.0534L9.37333 6.01338L9.98667 6.62671L3.94667 12.6667H3.33333V12.0534Z" fill="#506CE1"/>
<path d="M12.2459 2.19338C12.1843 2.13157 12.111 2.08254 12.0304 2.04909C11.9497 2.01563 11.8633 1.99841 11.7759 1.99841C11.6886 1.99841 11.6022 2.01563 11.5215 2.04909C11.4409 2.08254 11.3676 2.13157 11.3059 2.19338L10.0859 3.41338L12.5859 5.91338L13.8059 4.69338C13.8677 4.6317 13.9168 4.55844 13.9502 4.47779C13.9837 4.39714 14.0009 4.31069 14.0009 4.22338C14.0009 4.13606 13.9837 4.04961 13.9502 3.96896C13.9168 3.88831 13.8677 3.81505 13.8059 3.75338L12.2459 2.19338Z" fill="#6EC2D2"/>
</svg>
