<svg width="81" height="81" viewBox="0 0 81 81" fill="none" xmlns="http://www.w3.org/2000/svg">
<path d="M17.0625 2.84375H54.4062C55.7007 2.84375 56.75 3.89308 56.75 5.1875V20.3438H59.0938V5.1875C59.0938 2.59867 56.9951 0.5 54.4062 0.5H17.0625C14.4737 0.5 12.375 2.59867 12.375 5.1875V29.0938H14.7188V5.1875C14.7188 3.89308 15.7681 2.84375 17.0625 2.84375Z" fill="url(#paint0_linear_7505_176021)"/>
<path fill-rule="evenodd" clip-rule="evenodd" d="M43.9375 25.9688C42.039 25.9688 40.5 27.5078 40.5 29.4062C40.5 32.3403 38.1215 34.7188 35.1875 34.7188H7.53125C5.63277 34.7188 4.09375 36.2578 4.09375 38.1562V74.875C4.09375 76.7735 5.63277 78.3125 7.53125 78.3125H63.4688C65.3672 78.3125 66.9062 76.7735 66.9062 74.875V29.4062C66.9062 27.5078 65.3672 25.9688 63.4688 25.9688H43.9375ZM38.1562 29.4062C38.1562 26.2134 40.7446 23.625 43.9375 23.625H63.4688C66.6616 23.625 69.25 26.2134 69.25 29.4062V74.875C69.25 78.0679 66.6616 80.6562 63.4688 80.6562H7.53125C4.33835 80.6562 1.75 78.0679 1.75 74.875V38.1562C1.75 34.9634 4.33835 32.375 7.53125 32.375H35.1875C36.8271 32.375 38.1562 31.0458 38.1562 29.4062Z" fill="#F26122"/>
<path fill-rule="evenodd" clip-rule="evenodd" d="M43.9375 25.9688C42.039 25.9688 40.5 27.5078 40.5 29.4062C40.5 32.3403 38.1215 34.7188 35.1875 34.7188H7.53125C5.63277 34.7188 4.09375 36.2578 4.09375 38.1562V74.875C4.09375 76.7735 5.63277 78.3125 7.53125 78.3125H63.4688C65.3672 78.3125 66.9062 76.7735 66.9062 74.875V29.4062C66.9062 27.5078 65.3672 25.9688 63.4688 25.9688H43.9375ZM38.1562 29.4062C38.1562 26.2134 40.7446 23.625 43.9375 23.625H63.4688C66.6616 23.625 69.25 26.2134 69.25 29.4062V74.875C69.25 78.0679 66.6616 80.6562 63.4688 80.6562H7.53125C4.33835 80.6562 1.75 78.0679 1.75 74.875V38.1562C1.75 34.9634 4.33835 32.375 7.53125 32.375H35.1875C36.8271 32.375 38.1562 31.0458 38.1562 29.4062Z" fill="url(#paint1_linear_7505_176021)"/>
<path fill-rule="evenodd" clip-rule="evenodd" d="M35.614 60.9521V45.8906C35.614 45.2434 36.1387 44.7188 36.7859 44.7188C37.4331 44.7188 37.9578 45.2434 37.9578 45.8906V60.9521L43.415 55.4948C43.8727 55.0372 44.6147 55.0372 45.0723 55.4948C45.53 55.9525 45.53 56.6945 45.0723 57.1521L37.6145 64.6099C37.1569 65.0675 36.4149 65.0675 35.9573 64.6099L28.4995 57.1521C28.0418 56.6945 28.0418 55.9525 28.4995 55.4948C28.9571 55.0372 29.6991 55.0372 30.1568 55.4948L35.614 60.9521Z" fill="#3B56A4"/>
<path d="M19.4062 10.5781C19.4062 9.93092 19.9309 9.40625 20.5781 9.40625H50.8906C51.5378 9.40625 52.0625 9.93092 52.0625 10.5781C52.0625 11.2253 51.5378 11.75 50.8906 11.75H20.5781C19.9309 11.75 19.4062 11.2253 19.4062 10.5781Z" fill="#3B56A4"/>
<path d="M19.4062 17.6094C19.4062 16.9622 19.9309 16.4375 20.5781 16.4375H38.2344C38.8816 16.4375 39.4062 16.9622 39.4062 17.6094C39.4062 18.2566 38.8816 18.7812 38.2344 18.7812H20.5781C19.9309 18.7812 19.4062 18.2566 19.4062 17.6094Z" fill="#3B56A4"/>
<path d="M72.375 69.875H73.4687C76.6616 69.875 79.25 67.2866 79.25 64.0938V18.625C79.25 15.4321 76.6616 12.8438 73.4687 12.8438H61.9062V15.1875H73.4687C75.3672 15.1875 76.9062 16.7265 76.9062 18.625V64.0938C76.9062 65.9922 75.3672 67.5312 73.4687 67.5312H72.375V69.875Z" fill="#3B56A4"/>
<path fill-rule="evenodd" clip-rule="evenodd" d="M37.1406 68.7812C44.9503 68.7812 51.2812 62.4503 51.2812 54.6406C51.2812 46.831 44.9503 40.5 37.1406 40.5C29.331 40.5 23 46.831 23 54.6406C23 62.4503 29.331 68.7812 37.1406 68.7812ZM37.1406 71.125C46.2447 71.125 53.625 63.7447 53.625 54.6406C53.625 45.5366 46.2447 38.1562 37.1406 38.1562C28.0366 38.1562 20.6562 45.5366 20.6562 54.6406C20.6562 63.7447 28.0366 71.125 37.1406 71.125Z" fill="#3B56A4"/>
<defs>
<linearGradient id="paint0_linear_7505_176021" x1="17.8856" y1="5.94945" x2="35.8275" y2="35.3157" gradientUnits="userSpaceOnUse">
<stop stop-color="#71CBD5"/>
<stop offset="1" stop-color="#4886F7"/>
</linearGradient>
<linearGradient id="paint1_linear_7505_176021" x1="9.71177" y1="34.4941" x2="49.3538" y2="81.4949" gradientUnits="userSpaceOnUse">
<stop stop-color="#71CBD5"/>
<stop offset="1" stop-color="#4886F7"/>
</linearGradient>
</defs>
</svg>
