<svg width="24" height="24" viewBox="0 0 24 24" fill="none" xmlns="http://www.w3.org/2000/svg">
<path d="M2.66667 12C2.66667 6.84819 6.84819 2.66667 12 2.66667C17.1518 2.66667 21.3333 6.84819 21.3333 12C21.3333 17.1518 17.1518 21.3333 12 21.3333C6.84819 21.3333 2.66667 17.1518 2.66667 12ZM3.33333 12C3.33333 16.7782 7.22181 20.6667 12 20.6667C16.7782 20.6667 20.6667 16.7782 20.6667 12C20.6667 7.22181 16.7782 3.33333 12 3.33333C7.22181 3.33333 3.33333 7.22181 3.33333 12Z" fill="white" stroke="white" stroke-width="1.33333"/>
<path fill-rule="evenodd" clip-rule="evenodd" d="M12.0001 10.5859L14.5859 8.00008C14.9764 7.60955 15.6096 7.60955 16.0001 8.00008C16.3906 8.3906 16.3906 9.02376 16.0001 9.41429L13.4143 12.0001L16.0001 14.5859C16.3906 14.9764 16.3906 15.6096 16.0001 16.0001C15.6096 16.3906 14.9764 16.3906 14.5859 16.0001L12.0001 13.4143L9.41429 16.0001C9.02376 16.3906 8.3906 16.3906 8.00008 16.0001C7.60955 15.6096 7.60955 14.9764 8.00008 14.5859L10.5859 12.0001L8.00008 9.41429C7.60955 9.02376 7.60955 8.3906 8.00008 8.00008C8.3906 7.60955 9.02376 7.60955 9.41429 8.00007L12.0001 10.5859Z" fill="white"/>
</svg>
