<svg width="73" height="72" viewBox="0 0 73 72" fill="none" xmlns="http://www.w3.org/2000/svg">
<path d="M69.7234 57.543L42.4846 9.08793C40.162 4.85611 33.8273 4.85611 31.5045 9.08793L4.26585 57.543C1.94323 61.7748 4.89936 67.0647 9.75588 67.0647H64.0223C69.0899 66.8532 72.0461 61.7748 69.7234 57.543Z" fill="#FF6D6C"/>
<path d="M36.9941 12.2578L64.2329 60.7129H9.75537L36.9941 12.2578Z" fill="#E24C4B"/>
<path d="M32.5604 34.4845L34.2497 45.699C34.4608 46.9685 35.5166 48.0265 36.9947 48.0265C38.2616 48.0265 39.5286 46.9685 39.7397 45.699L41.429 34.4845C41.8513 31.7337 39.7397 29.4063 36.9947 29.4063C34.2496 29.4061 32.3492 31.7337 32.5604 34.4845Z" fill="white"/>
<path d="M36.9943 55.4299C38.3938 55.4299 39.5282 54.2931 39.5282 52.8907C39.5282 51.4884 38.3938 50.3516 36.9943 50.3516C35.5949 50.3516 34.4604 51.4884 34.4604 52.8907C34.4604 54.2931 35.5949 55.4299 36.9943 55.4299Z" fill="white"/>
</svg>
