<svg width="20" height="14" viewBox="0 0 20 14" fill="none" xmlns="http://www.w3.org/2000/svg">
<path d="M15.3115 12.9912C15.5166 13.2031 15.8447 13.2168 16.0566 12.9912C16.2754 12.7656 16.2617 12.458 16.0566 12.2461L4.62695 0.823242C4.42188 0.618164 4.08008 0.618164 3.875 0.823242C3.67676 1.02148 3.67676 1.37012 3.875 1.56836L15.3115 12.9912ZM15.9609 11.0156C17.957 9.69629 19.2627 7.88477 19.2627 7.07129C19.2627 5.68359 15.4688 1.26074 10 1.26074C8.83789 1.26074 7.74414 1.45898 6.75293 1.78711L8.53027 3.56445C8.98145 3.37305 9.47363 3.26367 10 3.26367C12.1123 3.26367 13.8213 4.93848 13.8213 7.07129C13.8213 7.59082 13.7051 8.08984 13.5 8.52734L15.9609 11.0156ZM10 12.8818C11.2646 12.8818 12.4404 12.6494 13.4727 12.2666L11.6816 10.4756C11.1758 10.7354 10.6016 10.8789 10 10.8789C7.86719 10.8789 6.17871 9.14941 6.17188 7.07129C6.17188 6.45605 6.31543 5.875 6.56836 5.3623L4.23047 3.01074C2.07715 4.35742 0.730469 6.25098 0.730469 7.07129C0.730469 8.45215 4.59277 12.8818 10 12.8818ZM12.1738 6.92773C12.1738 5.73145 11.21 4.76074 10 4.76074C9.91113 4.76074 9.82227 4.76758 9.74023 4.77441L12.1602 7.19434C12.167 7.1123 12.1738 7.0166 12.1738 6.92773ZM7.81934 6.91406C7.81934 8.11719 8.81055 9.08789 10.0068 9.08789C10.1025 9.08789 10.1914 9.08105 10.2871 9.07422L7.83301 6.62012C7.82617 6.71582 7.81934 6.81836 7.81934 6.91406Z" fill="#BECAE5"/>
</svg>
