<svg width="20" height="12" viewBox="0 0 20 12" fill="none" xmlns="http://www.w3.org/2000/svg">
<path d="M10 11.8818C15.4756 11.8818 19.2627 7.45215 19.2627 6.07129C19.2627 4.68359 15.4688 0.260742 10 0.260742C4.59277 0.260742 0.730469 4.68359 0.730469 6.07129C0.730469 7.45215 4.59277 11.8818 10 11.8818ZM10 9.87891C7.86719 9.87891 6.17871 8.14941 6.17188 6.07129C6.16504 3.93848 7.86719 2.26367 10 2.26367C12.1123 2.26367 13.8213 3.93848 13.8213 6.07129C13.8213 8.14941 12.1123 9.87891 10 9.87891ZM10 7.44531C10.7588 7.44531 11.3877 6.82324 11.3877 6.07129C11.3877 5.3125 10.7588 4.69043 10 4.69043C9.23438 4.69043 8.60547 5.3125 8.60547 6.07129C8.60547 6.82324 9.23438 7.44531 10 7.44531Z" fill="#BECAE5"/>
</svg>
