<svg width="48" height="48" viewBox="0 0 48 48" fill="none" xmlns="http://www.w3.org/2000/svg">
<g clip-path="url(#clip0_18404_53917)">
<path d="M40 17.5183V21.6183C33.3 21.4583 35 21.5983 33.14 21.5983C30.08 21.5983 27.04 15.9583 27.04 15.9583C27.04 15.9583 26.5 19.5183 28.56 22.3983C20.94 22.3983 17.88 14.3783 17.88 14.3783C17.88 19.2183 12.56 21.5983 12.56 21.5983L8 23.6383V17.5583C8 11.0583 12.2 8.65828 15.18 8.13828C15.84 6.55828 17.84 4.15828 23.96 3.99828C28.7 3.87828 33.3 5.53828 36.28 8.43828C38.72 10.8183 40 13.9583 40 17.5183Z" fill="#607D8B"/>
<path d="M40 21.6228V24.9228C40 27.3828 39.52 29.8028 38.58 32.1028C38.22 32.9228 37.44 34.3028 37.36 34.4628C34.36 39.4428 30.68 44.0028 24 44.0028C17.14 44.0028 13.34 39.1028 10.52 34.3028C10.5 34.2628 9.74001 32.8628 9.42001 32.1228C8.47992 29.8459 7.99741 27.4062 8.00001 24.9428V23.6428L12.56 21.6028C12.56 21.6028 17.88 19.2228 17.88 14.3828C17.88 14.3828 20.94 22.4028 28.56 22.4028C26.5 19.5228 27.04 15.9628 27.04 15.9628C27.04 15.9628 30.08 21.6028 33.14 21.6028C35 21.6028 33.3 21.4628 40 21.6228Z" fill="#FFCC80"/>
<path d="M46 16C45.4696 16 44.9609 15.7893 44.5858 15.4142C44.2107 15.0391 44 14.5304 44 14V6C44 4.898 43.102 4 42 4H34C33.4696 4 32.9609 3.78929 32.5858 3.41421C32.2107 3.03914 32 2.53043 32 2C32 1.46957 32.2107 0.960859 32.5858 0.585787C32.9609 0.210714 33.4696 0 34 0L42 0C45.308 0 48 2.692 48 6V14C48 14.5304 47.7893 15.0391 47.4142 15.4142C47.0391 15.7893 46.5304 16 46 16Z" fill="#78B2F1"/>
<path d="M2 16C1.46957 16 0.960859 15.7893 0.585787 15.4142C0.210714 15.0391 0 14.5304 0 14V6C0 2.692 2.692 0 6 0H14C14.5304 0 15.0391 0.210714 15.4142 0.585787C15.7893 0.960859 16 1.46957 16 2C16 2.53043 15.7893 3.03914 15.4142 3.41421C15.0391 3.78929 14.5304 4 14 4H6C4.898 4 4 4.898 4 6V14C4 14.5304 3.78929 15.0391 3.41421 15.4142C3.03914 15.7893 2.53043 16 2 16Z" fill="#78B2F1"/>
<path d="M42 48H34C33.4696 48 32.9609 47.7893 32.5858 47.4142C32.2107 47.0391 32 46.5304 32 46C32 45.4696 32.2107 44.9609 32.5858 44.5858C32.9609 44.2107 33.4696 44 34 44H42C43.102 44 44 43.102 44 42V34C44 33.4696 44.2107 32.9609 44.5858 32.5858C44.9609 32.2107 45.4696 32 46 32C46.5304 32 47.0391 32.2107 47.4142 32.5858C47.7893 32.9609 48 33.4696 48 34V42C48 45.308 45.308 48 42 48Z" fill="#78B2F1"/>
<path d="M14 48H6C2.692 48 0 45.308 0 42V34C0 33.4696 0.210714 32.9609 0.585787 32.5858C0.960859 32.2107 1.46957 32 2 32C2.53043 32 3.03914 32.2107 3.41421 32.5858C3.78929 32.9609 4 33.4696 4 34V42C4 43.102 4.898 44 6 44H14C14.5304 44 15.0391 44.2107 15.4142 44.5858C15.7893 44.9609 16 45.4696 16 46C16 46.5304 15.7893 47.0391 15.4142 47.4142C15.0391 47.7893 14.5304 48 14 48Z" fill="#78B2F1"/>
<path d="M24.0019 37.0027C23.0115 37.0033 22.0312 36.8031 21.1203 36.4144C20.2094 36.0256 19.3867 35.4562 18.7019 34.7407C18.425 34.4545 18.2732 34.0701 18.2797 33.672C18.2863 33.2738 18.4508 32.8946 18.7369 32.6177C19.0231 32.3408 19.4075 32.189 19.8057 32.1955C20.2038 32.2021 20.583 32.3665 20.8599 32.6527C22.5419 34.3927 25.4619 34.3947 27.1479 32.6527C27.4277 32.3796 27.8029 32.2263 28.1938 32.2254C28.5848 32.2245 28.9607 32.3761 29.2416 32.648C29.5226 32.9198 29.6865 33.2905 29.6985 33.6813C29.7105 34.0721 29.5697 34.4521 29.3059 34.7407C28.6199 35.4557 27.7964 36.0247 26.8849 36.4134C25.9735 36.8021 24.9928 37.0026 24.0019 37.0027Z" fill="#607D8B"/>
</g>
<defs>
<clipPath id="clip0_18404_53917">
<rect width="48" height="48" fill="white"/>
</clipPath>
</defs>
</svg>
