<svg width="36" height="36" viewBox="0 0 36 36" fill="none" xmlns="http://www.w3.org/2000/svg">
<path d="M34.5107 11.6995C35.4852 11.6995 36 11.1477 36 10.1911V5.68421C36 1.89474 34.0695 0 30.2268 0H25.7222C24.7661 0 24.2329 0.515074 24.2329 1.47164C24.2329 2.42821 24.7661 2.96168 25.7222 2.96168H30.1716C31.9918 2.96168 33.0398 3.93664 33.0398 5.84977V10.1911C33.0398 11.1477 33.573 11.6995 34.5107 11.6995ZM1.47089 11.6995C2.44535 11.6995 2.96016 11.1477 2.96016 10.1911V5.84977C2.96016 3.93664 3.9714 2.96168 5.81001 2.96168H10.2594C11.2339 2.96168 11.7671 2.42821 11.7671 1.47164C11.7671 0.515074 11.2339 0 10.2594 0H5.77324C1.93054 0 0 1.89474 0 5.68421V10.1911C0 11.1477 0.533197 11.6995 1.47089 11.6995ZM16.5291 21.0996H16.6762C18.5332 21.0996 19.5444 20.0879 19.5444 18.2299V12.4354C19.5444 11.7179 19.0664 11.258 18.3677 11.258C17.6323 11.258 17.1542 11.7179 17.1542 12.4354V18.3955C17.1542 18.5795 17.0439 18.6714 16.8784 18.6714H16.2349C15.573 18.6714 15.0582 19.1865 15.0582 19.8487C15.0582 20.6398 15.5914 21.0996 16.5291 21.0996ZM10.9949 16.7583C11.859 16.7583 12.4842 16.1513 12.4842 15.2683V12.7665C12.4842 11.8835 11.859 11.2764 10.9949 11.2764C10.1307 11.2764 9.524 11.8835 9.524 12.7665V15.2683C9.524 16.1513 10.1307 16.7583 10.9949 16.7583ZM24.9499 16.7583C25.7957 16.7583 26.4025 16.1513 26.4025 15.2683V12.7665C26.4025 11.8835 25.7957 11.2764 24.9499 11.2764C24.0674 11.2764 23.4607 11.8835 23.4607 12.7665V15.2683C23.4607 16.1513 24.0674 16.7583 24.9499 16.7583ZM17.8897 27.2805C20.1144 27.2805 22.3575 26.324 23.9571 24.7236C24.1777 24.5212 24.288 24.2085 24.288 23.8406C24.288 23.1415 23.7732 22.6449 23.093 22.6449C22.7436 22.6449 22.4862 22.7736 22.1369 23.1415C21.1256 24.1901 19.526 24.9075 17.8897 24.9075C16.3452 24.9075 14.7273 24.2269 13.6609 23.1415C13.3667 22.8656 13.1277 22.6449 12.6864 22.6449C12.0061 22.6449 11.4913 23.1415 11.4913 23.8406C11.4913 24.1533 11.6016 24.4476 11.8407 24.7052C13.3299 26.3975 15.665 27.2805 17.8897 27.2805ZM5.77324 36H10.2594C11.2339 36 11.7671 35.4665 11.7671 34.5284C11.7671 33.5718 11.2339 33.0383 10.2594 33.0383H5.81001C3.9714 33.0383 2.96016 32.0634 2.96016 30.1502V25.8089C2.96016 24.8339 2.42697 24.3005 1.47089 24.3005C0.514811 24.3005 0 24.8339 0 25.8089V30.2974C0 34.1053 1.93054 36 5.77324 36ZM25.7222 36H30.2268C34.0695 36 36 34.0869 36 30.2974V25.8089C36 24.8339 35.4668 24.3005 34.5107 24.3005C33.5546 24.3005 33.0398 24.8339 33.0398 25.8089V30.1502C33.0398 32.0634 31.9918 33.0383 30.1716 33.0383H25.7222C24.7661 33.0383 24.2329 33.5718 24.2329 34.5284C24.2329 35.4665 24.7661 36 25.7222 36Z" fill="url(#paint0_linear_2529:789)"/>
<defs>
<linearGradient id="paint0_linear_2529:789" x1="4.24628" y1="6.86095" x2="29.6332" y2="32.2923" gradientUnits="userSpaceOnUse">
<stop stop-color="#71CBD5"/>
<stop offset="1" stop-color="#323E98"/>
</linearGradient>
</defs>
</svg>
