<svg width="64" height="64" viewBox="0 0 64 64" fill="none" xmlns="http://www.w3.org/2000/svg">
<path d="M10.9297 59.2969V51.9336H9.23047C5.78944 51.9336 3 49.1442 3 45.7031V27.5781C3 24.1371 5.78944 21.3477 9.23047 21.3477H45.4805C48.9215 21.3477 51.711 24.1371 51.711 27.5781V45.7031C51.711 49.1442 48.9215 51.9336 45.4805 51.9336H22.3952L13.8304 60.4984C12.76 61.5689 10.9297 60.8107 10.9297 59.2969Z" fill="#FFBF41"/>
<path d="M50.0117 21.3516H27.3555V51.9375H45.4805C48.916 51.9375 51.711 49.1425 51.711 45.707V23.0508C51.711 22.1124 50.9502 21.3516 50.0117 21.3516Z" fill="#FCAF17"/>
<path d="M20.2188 40.9492V33.586H16.2539C12.8129 33.586 10.0234 30.7965 10.0234 27.3555V9.23047C10.0234 5.78944 12.8129 3 16.2539 3H54.7696C58.2106 3 61 5.78944 61 9.23047V27.3555C61 30.7965 58.2106 33.586 54.7696 33.586H31.6843L23.1194 42.1507C22.049 43.2212 20.2188 42.463 20.2188 40.9492Z" fill="#3B56A4"/>
<path d="M54.7695 3H35.5117V33.586H54.7695C58.2106 33.586 61 30.7965 61 27.3555V9.23047C61 5.78944 58.2106 3 54.7695 3Z" fill="#21397E"/>
<path d="M33.267 11.7318C33.2622 11.7188 33.2571 11.7058 33.2519 11.6931C32.9889 11.0535 32.3725 10.6406 31.6812 10.6406C31.6806 10.6406 31.6802 10.6406 31.6796 10.6406C30.9876 10.6413 30.3711 11.0555 30.1091 11.696C30.1047 11.7067 30.1005 11.7174 30.0964 11.7281L25.4173 24.0135C25.139 24.7443 25.5058 25.5625 26.2366 25.8408C26.9676 26.119 27.7856 25.7524 28.0639 25.0216L28.8819 22.8739H34.4451L35.254 25.0175C35.468 25.5846 36.0069 25.9341 36.579 25.9339C36.7451 25.9339 36.9141 25.9045 37.0788 25.8424C37.8105 25.5662 38.1798 24.7492 37.9036 24.0177L33.267 11.7318ZM29.9605 20.0418L31.6762 15.537L33.3764 20.0418H29.9605Z" fill="#F6F9F9"/>
<path d="M35.5117 17.6836V25.4521C35.7802 25.7603 36.1709 25.9392 36.5795 25.9391C36.7456 25.9391 36.9146 25.9096 37.0793 25.8476C37.811 25.5714 38.1803 24.7544 37.9041 24.0228L35.5117 17.6836Z" fill="white"/>
<path d="M23.5087 16.7531H20.2754V13.4727H23.9098C24.6918 13.4727 25.3258 12.8386 25.3258 12.0566C25.3258 11.2747 24.6918 10.6406 23.9098 10.6406H18.8594C18.0774 10.6406 17.4434 11.2747 17.4434 12.0566V24.5176C17.4434 25.2996 18.0774 25.9336 18.8594 25.9336C19.6414 25.9336 20.2754 25.2996 20.2754 24.5176V19.5851H23.5087C24.2908 19.5851 24.9247 18.9511 24.9247 18.1691C24.9247 17.3871 24.2908 16.7531 23.5087 16.7531Z" fill="#F6F9F9"/>
<path d="M53.7319 23.4659L52.8044 22.5383C53.6212 21.3218 54.0986 19.8592 54.0986 18.2871C54.0986 14.0708 50.6685 10.6406 46.4522 10.6406C42.2358 10.6406 38.8057 14.0708 38.8057 18.2871C38.8057 22.5034 42.2358 25.9336 46.4522 25.9336C48.075 25.9336 49.5802 25.4239 50.8194 24.5584L51.7295 25.4685C52.006 25.7449 52.3684 25.8832 52.7308 25.8832C53.0932 25.8832 53.4555 25.7449 53.7321 25.4685C54.2849 24.9154 54.2849 24.0189 53.7319 23.4659ZM46.452 23.1015C43.7973 23.1015 41.6376 20.9417 41.6376 18.287C41.6376 15.6323 43.7973 13.4725 46.452 13.4725C49.1068 13.4725 51.2665 15.6323 51.2665 18.287C51.2665 19.074 51.0755 19.8166 50.7393 20.4732L49.7455 19.4794C49.1924 18.9265 48.2959 18.9265 47.7429 19.4794C47.19 20.0324 47.19 20.9289 47.7429 21.482L48.7674 22.5065C48.08 22.8853 47.2909 23.1015 46.452 23.1015Z" fill="white"/>
</svg>
