<svg width="66" height="66" viewBox="0 0 66 66" fill="none" xmlns="http://www.w3.org/2000/svg">
<g clip-path="url(#clip0_24619_26113)">
<circle cx="33" cy="33" r="33" fill="#F8FAFD"/>
<path d="M54.5728 1.31122C50.4649 1.3072 46.8837 3.555 44.9899 6.88794L44.9884 6.88743C44.1812 7.88444 42.939 7.88696 42.1293 6.88441L42.1288 6.88542C40.2415 3.54795 36.6649 1.2931 32.5575 1.28907C26.4772 1.28303 21.5435 6.20614 21.5375 12.2854C21.5355 14.1777 21.7827 16.3741 22.2243 18.0776H38.9132C41.2461 18.0776 43.1545 19.9865 43.1545 22.3194V39.0486L48.061 31.0483C48.6149 30.1304 49.7267 29.7129 50.7479 30.0397C52.5385 30.6123 53.2389 32.1496 52.6206 33.924L52.5929 34.0036C58.6001 29.44 65.5585 22.1528 65.5686 12.3297C65.5751 6.25096 60.652 1.31727 54.5728 1.31122Z" fill="#EB554C"/>
<path d="M33.8813 1.37064C33.4472 1.31827 33.0056 1.28957 32.5575 1.28907C26.4772 1.28303 21.5435 6.20614 21.5375 12.2854C21.5355 14.1777 21.7827 16.3741 22.2243 18.0776H24.8805C24.4389 16.3741 24.1917 14.1777 24.1937 12.2854C24.1992 6.65732 28.4294 2.02323 33.8813 1.37064Z" fill="#EE5253"/>
<path d="M45.8106 34.7181V22.32C45.8106 19.987 43.9017 18.0781 41.5693 18.0781H38.9131C41.246 18.0781 43.1544 19.987 43.1544 22.32V39.0491L45.8106 34.7181Z" fill="#EE5253"/>
<path d="M39.3114 17.6797H4.24132C1.90842 17.6797 0 19.5881 0 21.921V42.9665C0 45.2994 1.90842 47.2078 4.24132 47.2078H8.02644C8.58638 47.2078 9.1015 47.512 9.3724 48.0014L12.9596 54.4825C13.2713 55.0449 14.08 55.0449 14.3912 54.4825L18.061 47.8524C18.281 47.4546 18.6995 47.2078 19.1537 47.2078H22.2656V42.7429C22.2656 41.9473 22.9101 41.3028 23.7052 41.3028H33.2236C33.9255 41.3028 34.494 41.8718 34.494 42.5727V43.9177H36.9453C38.9761 43.897 40.172 43.033 40.172 42.8839C41.2793 41.7676 42.2521 40.5258 43.0709 39.1834L43.5527 38.3848V21.921C43.5527 19.5881 41.6443 17.6797 39.3114 17.6797Z" fill="#FDB614"/>
<path d="M2.65618 42.9665V21.921C2.65618 19.5881 4.5646 17.6797 6.8975 17.6797H4.24132C1.90842 17.6797 0 19.5881 0 21.921V42.967C0 45.2994 1.90842 47.2083 4.24132 47.2083H6.8975C4.5646 47.2083 2.65618 45.2994 2.65618 42.9665Z" fill="#FF8A00"/>
<path d="M12.0286 48.0006C11.7577 47.5112 11.2426 47.207 10.6827 47.207H8.02649C8.58643 47.207 9.10155 47.5112 9.37245 48.0006L12.9597 54.4817C13.2709 55.0441 14.0801 55.0441 14.3912 54.4817L15.0035 53.3754L12.0286 48.0006Z" fill="#FF8A00"/>
<path d="M37.1502 42.5746C37.1502 41.8732 36.5817 41.3047 35.8803 41.3047H33.2241C33.9256 41.3047 34.4941 41.8732 34.4941 42.5746V43.9191H36.9453C37.0158 43.9186 37.0823 43.9145 37.1502 43.912V42.5746Z" fill="#FF8A00"/>
<path d="M12.1232 34.5661C10.9183 34.5661 9.93384 33.5837 9.93384 32.3767C9.93384 30.993 11.2078 29.9592 12.5522 30.2311C13.5291 30.4159 14.3126 31.2996 14.3126 32.3767C14.3126 33.5802 13.3363 34.5661 12.1232 34.5661Z" fill="#FF5C00"/>
<path d="M21.3159 34.5661C20.1109 34.5661 19.1265 33.5837 19.1265 32.3767C19.1265 30.993 20.4009 29.9592 21.7449 30.2311C22.7217 30.4159 23.5053 31.2996 23.5053 32.3767C23.5058 33.5802 22.5289 34.5661 21.3159 34.5661Z" fill="#FF5C00"/>
<path d="M30.509 34.5661C29.304 34.5661 28.3196 33.5837 28.3196 32.3767C28.3196 30.993 29.5935 29.9592 30.938 30.2311C31.9149 30.4159 32.6984 31.2996 32.6984 32.3767C32.6984 33.5802 31.722 34.5661 30.509 34.5661Z" fill="#FF5C00"/>
<path d="M12.6122 32.3728C12.6122 31.6598 12.9511 31.0404 13.4627 30.6441C13.1973 30.4372 12.8866 30.2907 12.5522 30.2272C11.2078 29.9553 9.93384 30.9891 9.93384 32.3728C9.93384 33.5798 10.9183 34.5622 12.1232 34.5622C12.6298 34.5622 13.0931 34.3885 13.4637 34.1009C12.947 33.7001 12.6122 33.0752 12.6122 32.3728Z" fill="#FF8A00"/>
<path d="M21.8053 32.3728C21.8053 31.6598 22.1442 31.0404 22.6558 30.6441C22.3904 30.4372 22.0797 30.2907 21.7454 30.2272C20.4009 29.9553 19.127 30.9891 19.127 32.3728C19.127 33.5798 20.1114 34.5622 21.3158 34.5622C21.8224 34.5622 22.2862 34.3885 22.6563 34.1009C22.1401 33.7001 21.8053 33.0752 21.8053 32.3728Z" fill="#FF8A00"/>
<path d="M30.9979 32.3728C30.9979 31.6598 31.3368 31.0404 31.8484 30.6441C31.583 30.4372 31.2723 30.2907 30.938 30.2272C29.5935 29.9553 28.3196 30.9891 28.3196 32.3728C28.3196 33.5798 29.304 34.5622 30.509 34.5622C31.0155 34.5622 31.4793 34.3885 31.8494 34.1009C31.3328 33.7001 30.9979 33.0752 30.9979 32.3728Z" fill="#FF8A00"/>
<path d="M52.7418 43.6521H63.293C64.7266 43.6521 65.9472 44.7665 65.998 46.199C66.0519 47.7031 64.8485 48.9388 63.3565 48.9388H61.7638C63.2568 48.9388 64.4592 50.1755 64.4058 51.6796C64.3545 53.1116 63.1339 54.226 61.7008 54.226H60.1086C61.6006 54.226 62.8036 55.4622 62.7497 56.9662C62.6983 58.3988 61.4778 59.5126 60.0447 59.5126H58.9429C60.4354 59.5126 61.6384 60.7493 61.5845 62.2529C61.5331 63.6855 60.3121 64.7993 58.879 64.7993H45.6303C40.8688 64.7993 41.2193 61.0077 37.3919 61.0077C36.2428 61.0077 35.6204 61.0077 34.494 61.0077V43.6521H36.9453C38.9765 43.631 40.1719 42.7674 40.1719 42.6184C41.2792 41.502 42.2521 40.2598 43.0713 38.9173L48.0609 30.6502C48.6148 29.7322 49.7266 29.3148 50.7478 29.6416C52.5384 30.2136 53.5047 32.1492 52.8858 33.9242L50.5545 40.6148C50.0554 42.1083 51.1673 43.6521 52.7418 43.6521Z" fill="#FFCDBF"/>
<path d="M58.879 62.8273H45.6303C40.8688 62.8273 41.2193 59.0352 37.3919 59.0352C36.2428 59.0352 35.6204 59.0352 34.494 59.0352V61.0055H37.3919C41.2193 61.0055 40.8688 64.7972 45.6303 64.7972H58.879C60.3126 64.7972 61.5331 63.6833 61.5845 62.2508C61.5986 61.864 61.5281 61.4955 61.3922 61.1606C60.9893 62.144 60.0004 62.8273 58.879 62.8273Z" fill="#FFBEAB"/>
<path d="M53.1769 46.9453C52.627 46.9453 52.1809 47.3909 52.1809 47.9413C52.1809 48.4917 52.6265 48.9373 53.1769 48.9373H61.7718C61.7693 48.9373 61.7668 48.9368 61.7643 48.9368H63.3565C64.5912 48.9368 65.6259 48.0899 65.9165 46.9453H53.1769Z" fill="#FFBEAB"/>
<path d="M53.1769 52.2344C52.627 52.2344 52.1809 52.68 52.1809 53.2304C52.1809 53.7802 52.6265 54.2264 53.1769 54.2264H60.1162C60.1137 54.2264 60.1112 54.2259 60.1087 54.2259H61.7008C62.9426 54.2259 64.0232 53.389 64.3233 52.2344H53.1769Z" fill="#FFBEAB"/>
<path d="M53.1769 57.5195C52.627 57.5195 52.1809 57.9657 52.1809 58.5155C52.1809 59.0659 52.6265 59.5115 53.1769 59.5115H58.9505C58.948 59.5115 58.9455 59.5115 58.943 59.5115H60.0447C61.2864 59.5115 62.367 58.6747 62.6676 57.5195H53.1769Z" fill="#FFBEAB"/>
<path d="M33.4895 41.0352H28.4093V63.4805H33.4895C34.191 63.4805 34.76 62.912 34.76 62.2106V42.3051C34.7595 41.6042 34.191 41.0352 33.4895 41.0352Z" fill="#E4EAF8"/>
<path d="M33.4895 60.8246H28.4093V63.4808H33.4895C34.191 63.4808 34.76 62.9123 34.76 62.2109V59.5547C34.76 60.2561 34.191 60.8246 33.4895 60.8246Z" fill="#CCD2DB"/>
<path d="M23.4399 41.0352C22.6443 41.0352 22.0002 41.6797 22.0002 42.4748V62.0404C22.0002 62.836 22.6448 63.4805 23.4399 63.4805H28.4093V41.0352C28.1319 41.0352 23.7183 41.0352 23.4399 41.0352Z" fill="#576574"/>
<path d="M21.9998 59.3867V62.0424C21.9998 62.838 22.6443 63.4825 23.4399 63.4825H28.4093V60.8263C28.1324 60.8263 23.7183 60.8263 23.4399 60.8263C22.6443 60.8263 21.9998 60.1818 21.9998 59.3867Z" fill="#3E4B5A"/>
</g>
<defs>
<clipPath id="clip0_24619_26113">
<rect width="66" height="66" fill="white"/>
</clipPath>
</defs>
</svg>
