<svg width="24" height="24" viewBox="0 0 24 24" fill="none" xmlns="http://www.w3.org/2000/svg">
<path d="M9 17.242C9 17.6207 9.214 17.967 9.55279 18.1364C10.2177 18.4688 11 17.9853 11 17.242V12.27C10.9989 12.0077 10.8947 11.7563 10.71 11.57L4.23 5H19.79L13.32 11.57C13.1353 11.7563 13.0311 12.0077 13.03 12.27L13.0024 19.38C13.0009 19.7597 13.2149 20.1074 13.5545 20.2773C14.2186 20.6093 15 20.1264 15 19.3839V12.68L21.58 6C21.8432 5.73296 21.9936 5.3749 22 5V4C22 3.73478 21.8946 3.48043 21.7071 3.29289C21.5196 3.10536 21.2652 3 21 3H3C2.73478 3 2.48043 3.10536 2.29289 3.29289C2.10536 3.48043 2 3.73478 2 4V5C2.0064 5.3749 2.15679 5.73296 2.42 6L9 12.68V17.242Z" fill="white"/>
</svg>
