<svg width="40" height="40" viewBox="0 0 40 40" fill="none" xmlns="http://www.w3.org/2000/svg">
<circle cx="20" cy="20" r="18" fill="url(#paint0_radial_24394_82044)"/>
<path d="M30.8049 22.8923C30.4141 22.1394 29.5655 21.8091 28.8118 22.1126C25.9477 23.0024 22.9775 23.4458 19.9933 23.4309C17.0092 23.4458 14.039 23.0024 11.1749 22.1126C10.424 21.8091 9.57538 22.1364 9.18456 22.8864C8.80492 23.6333 9.07849 24.4993 9.39951 25.2462C11.1917 29.4423 15.1417 31.9539 19.971 31.9688H20.0157C24.845 31.9688 28.795 29.4423 30.59 25.2462C30.9082 24.4933 31.1846 23.6393 30.8049 22.8923Z" fill="#422B0D"/>
<path d="M24.4626 30.7839C24.3593 30.6827 24.2533 30.5904 24.1472 30.4863C23.0082 29.4179 21.5343 28.8436 20.0157 28.8763C18.4525 28.8495 16.9311 29.4031 15.7112 30.4446C15.6051 30.5369 15.4935 30.6262 15.3902 30.7422C15.2869 30.8583 15.2311 30.9416 15.1641 31.0398C16.6994 31.6796 18.3352 32.007 19.985 31.998H20.0297C21.6097 31.998 23.1757 31.6975 24.6552 31.1053C24.5994 30.9922 24.5352 30.8851 24.4626 30.7839Z" fill="#ED7770"/>
<path d="M28.8118 22.1139C25.9477 23.0037 22.9775 23.4471 19.9933 23.4322C17.0092 23.4471 14.039 23.0037 11.1749 22.1139C10.424 21.8103 9.57538 22.1377 9.18456 22.8876C9.12873 23.0007 9.08407 23.1197 9.05615 23.2417C9.14827 23.2923 9.25435 23.3429 9.37997 23.3965C12.741 25.191 16.4565 26.1016 20.2139 26.054C23.8177 26.0986 27.3797 25.2624 30.6346 23.6137C30.7658 23.5542 30.8747 23.4977 30.9724 23.4441C30.9501 23.2507 30.8915 23.0602 30.8049 22.8876C30.4141 22.1377 29.5655 21.8074 28.8118 22.1139Z" fill="white"/>
<path d="M30.8161 22.8953C30.4197 22.1424 29.5683 21.8091 28.809 22.1126C25.9449 23.0024 22.9747 23.4458 19.9933 23.4309C17.0092 23.4458 14.039 23.0024 11.1749 22.1126C10.424 21.8091 9.57538 22.1364 9.18456 22.8864C8.80492 23.6333 9.07849 24.4993 9.39951 25.2462C9.54188 25.5825 9.701 25.9128 9.87686 26.2313C9.87686 26.2313 9.29064 23.916 9.7987 23.2435C9.97177 22.9578 10.2621 22.7792 10.5803 22.7614C10.7115 22.7614 10.8399 22.7852 10.9656 22.8268C13.8799 23.7404 16.9031 24.2017 19.9431 24.1958H20.0408C23.0808 24.2017 26.104 23.7404 29.0183 22.8268C29.144 22.7852 29.2724 22.7614 29.4036 22.7614C29.7218 22.7792 30.0149 22.9578 30.188 23.2435C30.7044 23.916 30.1098 26.2402 30.1098 26.2402C30.2829 25.9218 30.456 25.5944 30.6011 25.2552C30.9194 24.5082 31.1957 23.6452 30.8161 22.8953Z" fill="#EB8F00"/>
<path d="M13.6471 12C12.2607 12 11 13.128 11 15.0016C11 16.8752 12.2607 18 13.6471 18C15.0368 18 16.2941 16.872 16.2941 15.0016C16.2941 13.1312 15.05 12 13.6471 12Z" fill="#422B0D"/>
<path d="M13.531 13.2534C13.0611 13.0367 12.4953 13.2279 12.267 13.6803C12.0917 14.034 12.1711 14.4578 12.4656 14.7319C12.9354 14.9485 13.5012 14.7573 13.7295 14.3049C13.9049 13.9512 13.8255 13.5274 13.531 13.2534Z" fill="#896024"/>
<path d="M26.3531 12C24.9667 12 23.7061 13.128 23.7061 15.0016C23.7061 16.8752 24.9667 18 26.3531 18C27.7395 18 29.0002 16.872 29.0002 15.0016C29.0002 13.1312 27.7395 12 26.3531 12Z" fill="#422B0D"/>
<path d="M26.2204 13.2534C25.7506 13.0367 25.1848 13.2279 24.9565 13.6803C24.7811 14.034 24.8605 14.4578 25.155 14.7319C25.6249 14.9485 26.1907 14.7573 26.419 14.3049C26.5943 13.9512 26.5149 13.5274 26.2204 13.2534Z" fill="#896024"/>
<defs>
<radialGradient id="paint0_radial_24394_82044" cx="0" cy="0" r="1" gradientUnits="userSpaceOnUse" gradientTransform="translate(20 20) scale(17.6771 18.3412)">
<stop offset="0.5" stop-color="#FDE030"/>
<stop offset="0.92" stop-color="#F7C02B"/>
<stop offset="1" stop-color="#F4A223"/>
</radialGradient>
</defs>
</svg>
