<svg width="24" height="24" viewBox="0 0 24 24" fill="none" xmlns="http://www.w3.org/2000/svg">
<path d="M21.8055 10.0415H21V9.99999H12V14H17.6515C16.827 16.3285 14.6115 18 12 18C8.6865 18 6 15.3135 6 12C6 8.68649 8.6865 5.99999 12 5.99999C13.5295 5.99999 14.921 6.57699 15.9805 7.51949L18.809 4.69099C17.023 3.02649 14.634 1.99999 12 1.99999C6.4775 1.99999 2 6.47749 2 12C2 17.5225 6.4775 22 12 22C17.5225 22 22 17.5225 22 12C22 11.3295 21.931 10.675 21.8055 10.0415Z" fill="#FFC107"/>
<path d="M3.15234 7.34549L6.43784 9.75499C7.32684 7.55399 9.47984 5.99999 11.9993 5.99999C13.5288 5.99999 14.9203 6.57699 15.9798 7.51949L18.8083 4.69099C17.0223 3.02649 14.6333 1.99999 11.9993 1.99999C8.15834 1.99999 4.82734 4.16849 3.15234 7.34549Z" fill="#FF3D00"/>
<path d="M12.0002 22C14.5832 22 16.9302 21.0115 18.7047 19.404L15.6097 16.785C14.5719 17.5742 13.3039 18.001 12.0002 18C9.39916 18 7.19066 16.3415 6.35866 14.027L3.09766 16.5395C4.75266 19.778 8.11366 22 12.0002 22Z" fill="#4CAF50"/>
<path d="M21.8055 10H21H12V14H17.6515C17.2571 15.1082 16.5467 16.0766 15.608 16.7855L15.6095 16.7845L18.7045 19.4035C18.4855 19.6025 22 17 22 12C22 11.3295 21.931 10.6335 21.8055 10Z" fill="#1976D2"/>
</svg>
