<svg width="200" height="120" viewBox="0 0 200 120" fill="none" xmlns="http://www.w3.org/2000/svg">
<g filter="url(#filter0_d_9416_106593)">
<rect x="20" y="20" width="164" height="80" rx="10" fill="white"/>
</g>
<g opacity="0.2">
<path d="M142.697 59.3891C142.296 54.9006 139.357 53.4579 138.582 52.977C137.968 54.206 137.513 55.5418 137.22 56.9311C137.22 57.4654 136.097 61.1257 138.074 66.0149C140.452 71.8927 146.196 76.0606 152.929 76.0606C155.895 76.0606 158.673 75.2323 161.078 73.8163C161.773 68.4195 157.685 65.347 154.826 62.9959C151.861 60.5646 152.128 57.038 152.395 55.8624C152.422 55.7288 152.475 55.5952 152.528 55.4617C150.819 55.7021 150.418 54.1258 150.418 54.1258C150.418 54.1258 152.609 54.767 153.811 54.0456C154.425 53.725 154.933 53.1907 154.933 52.2556C154.826 51.0533 153.864 50.5457 153.063 50.4656C149.322 50.0915 147.96 53.1105 147.96 53.1105C145.849 57.6257 150.738 61.9272 152.181 64.2516C152.475 64.7325 152.796 65.4272 152.956 65.9348C154.025 70.4233 150.712 73.4423 147.292 73.469C143.231 73.3889 141.601 70.1561 141.387 67.9118C141.067 64.4653 142.83 61.8471 142.697 59.3891ZM164.711 49.1831C164.711 49.1831 164.711 49.1564 164.738 49.1564C161.799 46.0038 157.631 44 152.983 44C148.28 44 143.952 46.0839 141.013 49.3167C146.009 53.9388 144.807 58.7479 144.246 60.8585C143.284 64.1982 142.83 65.6409 142.83 67.4844C142.75 71.679 146.277 71.7057 146.464 71.7057C148.975 71.679 150.284 69.4614 150.07 67.5912C149.937 66.3355 149.75 64.8127 148.174 61.8203C145.689 56.7708 145.662 54.6601 146.09 53.0037C144.246 52.0419 143.845 50.0915 144.353 48.5686C145.555 50.3052 148.093 50.9465 150.124 49.9579C150.391 49.8243 150.899 49.5572 151.299 49.4236C154.105 48.6488 155.922 50.0381 156.776 51.1869C159.181 51.9884 160.383 54.1792 160.65 55.9158C159.448 54.2861 157.284 54.206 156.162 54.8472C154.88 55.5418 154.318 56.6906 154.238 57.3853C153.57 60.4845 157.044 62.1944 161.158 65.5607C163.643 67.6447 164.471 69.7286 164.738 70.8775C165.486 70.0759 166.074 69.2744 166.662 68.3393C164.044 65.4806 162.44 61.66 162.44 57.4654C162.44 55.7823 162.681 54.1792 163.162 52.6564C163.776 50.4388 164.685 49.2098 164.685 49.2098L164.711 49.1831ZM168.719 57.0113C168.452 55.5952 167.998 54.2594 167.383 53.0037C167.383 53.0037 167.33 52.8701 167.223 52.6831C165.753 54.9006 164.898 57.5456 164.898 60.3776C164.898 61.8738 165.139 63.3432 165.593 64.7058C165.834 65.3737 166.127 66.0684 166.475 66.8164C166.635 67.1371 166.822 67.4577 167.009 67.7783C167.356 67.1638 167.65 66.5226 167.918 65.8546C169.601 60.6982 168.853 57.8395 168.719 57.0113Z" fill="#E44542"/>
<path d="M101.337 50.7862C101.069 50.5724 100.375 50.0381 98.3977 50.0381C97.997 50.0381 97.4359 50.0381 96.9817 50.0648C96.6611 50.0648 96.3939 50.0648 96.2871 50.0648C96.2603 50.0648 96.1535 50.0648 95.9932 50.0648C95.6459 50.0648 95.0314 50.0381 94.5504 50.0381C94.4703 50.0381 94.2031 50.0381 94.2031 50.2518C94.2031 50.3587 94.3367 50.4656 94.4436 50.4656C94.5772 50.4656 94.8176 50.4923 94.9245 50.4923C95.3252 50.5457 95.4054 50.6793 95.4321 51.1068C95.4588 51.5075 95.4588 51.8816 95.4588 53.8586V56.1296C95.4588 57.3853 95.4588 58.3738 95.3787 58.9082V58.9349C95.3252 59.3089 95.2718 59.4425 95.0848 59.496C94.9512 59.5227 94.7909 59.5494 94.6573 59.5494C94.497 59.5494 94.4169 59.6563 94.4169 59.7631C94.4169 59.8433 94.4703 59.9769 94.7642 59.9769C95.1115 59.9769 95.7527 59.9501 96.0466 59.9501C96.1535 59.9501 96.2069 59.9501 96.2336 59.9501C96.2603 59.9501 96.3138 59.9501 96.3939 59.9501C96.7145 59.9501 97.4626 59.9769 98.1038 59.9769C98.4244 59.9769 98.4512 59.8166 98.4512 59.7631C98.4512 59.6563 98.371 59.5494 98.2107 59.5494C98.0771 59.5494 97.6229 59.5227 97.4092 59.496C97.0619 59.4425 96.955 59.3089 96.9016 58.9082C96.8214 58.3738 96.8214 57.3853 96.8214 56.1296V50.893C96.8214 50.7862 96.8481 50.7594 96.8481 50.7594C97.0084 50.7327 97.5695 50.6793 97.8099 50.6793H97.9168C97.9702 50.6793 97.997 50.6793 98.0504 50.6793C98.5046 50.6793 99.1725 50.7327 99.7603 51.2671C100.562 51.9884 100.562 52.8701 100.562 53.1373C100.562 54.2594 99.2527 55.1143 97.7565 55.1143C97.5428 55.1143 97.2489 55.1143 97.2489 55.3548C97.2489 55.4884 97.4092 55.5685 97.4893 55.5685C97.5428 55.5685 97.7031 55.5953 97.9435 55.5953C100.321 55.5953 102.085 54.3128 102.085 52.4159C102.138 51.6945 101.711 51.0801 101.337 50.7862Z" fill="#E44542"/>
<path d="M93.536 59.5495C93.4291 59.5495 93.2421 59.5495 93.055 59.4693C92.8413 59.3892 92.494 59.2823 92.0131 58.1602C91.5856 57.1716 90.8375 55.2747 90.1696 53.6183C89.5551 52.0687 88.994 50.7595 88.8872 50.4924C88.8605 50.4389 88.8337 50.3855 88.807 50.332C88.7269 50.1183 88.6467 49.958 88.4864 49.958C88.3261 49.958 88.246 50.0916 88.0857 50.5191L85.0132 58.4006C84.746 59.0686 84.5056 59.4426 83.9979 59.496C83.8911 59.5227 83.704 59.5227 83.6239 59.5227C83.4903 59.5227 83.4102 59.6296 83.4102 59.7365C83.4102 59.8701 83.517 59.9502 83.7575 59.9502C84.1048 59.9502 84.5323 59.9235 84.7994 59.9235C84.933 59.9235 85.0399 59.9235 85.0666 59.9235C85.1201 59.9235 85.2804 59.9235 85.4674 59.9502C85.7345 59.9502 86.0552 59.9769 86.2422 59.9769C86.5093 59.9769 86.5361 59.8434 86.5361 59.7632C86.5361 59.7098 86.5093 59.5495 86.2956 59.5495H86.1887C86.0552 59.5495 85.8414 59.5227 85.8414 59.309C85.8414 59.0953 85.9216 58.8014 86.0284 58.5075L86.7498 56.5304L87.1506 55.4083L88.246 52.3091C88.246 52.2824 88.246 52.2824 88.2727 52.2824C88.2727 52.2824 88.2727 52.3091 88.2994 52.3091L89.5818 55.7022H88.1124C87.4979 55.7289 87.204 56.2365 87.1238 56.4236H89.849H89.8757L91.0513 59.309C91.078 59.3624 91.078 59.4159 91.0513 59.4426C91.0245 59.4693 90.9978 59.496 90.9711 59.5227H90.9444C90.891 59.5495 90.8108 59.5762 90.8108 59.6831C90.8108 59.8434 90.9978 59.8434 91.265 59.8701H91.3719C91.9596 59.8968 92.681 59.8968 93.4291 59.8968C93.7764 59.8968 93.8298 59.7632 93.8298 59.6831C93.8031 59.6296 93.6963 59.5495 93.536 59.5495Z" fill="#E44542"/>
<path d="M79.269 59.5228C76.5438 59.5228 74.5935 57.2519 74.5935 53.9389C74.5935 51.2405 76.1698 48.7291 79.1621 48.7291C81.0857 48.7291 82.1544 49.5039 82.6353 51.3741L82.9292 51.2138C83.0094 50.4657 83.0895 50.252 83.1964 49.1566C82.6888 49.0764 81.3796 48.0879 79.6163 48.0879C75.6355 48.0879 72.75 50.5459 72.75 54.2863C72.75 57.1183 74.7004 60.164 79.1354 60.164C80.4178 60.164 81.9674 59.7633 82.475 59.6564C82.7956 59.0419 83.1163 57.9465 83.4369 56.9847L82.9292 56.7977C82.0476 58.5343 81.0857 59.5228 79.269 59.5228Z" fill="#E44542"/>
<path d="M106.495 59.5492C106.388 59.5492 106.121 59.5225 105.907 59.4958C105.613 59.4424 105.56 59.3088 105.506 58.908C105.453 58.4004 105.453 57.4119 105.453 56.1829V53.9654C105.453 52.015 105.453 51.641 105.479 51.2669C105.506 50.8395 105.586 50.7326 105.853 50.6524C105.987 50.6257 106.067 50.6257 106.147 50.6257C106.254 50.6257 106.361 50.5188 106.361 50.412C106.361 50.1982 106.121 50.1982 106.04 50.1982C105.747 50.1982 105.212 50.225 104.945 50.225C104.838 50.225 104.758 50.225 104.731 50.225C104.705 50.225 104.624 50.225 104.518 50.225C104.224 50.225 103.716 50.1982 103.422 50.1982C103.342 50.1982 103.102 50.1982 103.102 50.412C103.102 50.5188 103.182 50.6257 103.315 50.6257C103.395 50.6257 103.556 50.6524 103.689 50.6792C103.876 50.7059 103.983 50.8127 104.01 51.2669C104.037 51.6677 104.037 52.015 104.037 53.9654V56.1829C104.037 57.6256 104.01 58.4538 103.957 58.908C103.903 59.3088 103.876 59.4424 103.689 59.4958C103.582 59.5225 103.422 59.5492 103.315 59.5492C103.182 59.5492 103.102 59.6561 103.102 59.763C103.102 59.8431 103.155 59.9767 103.422 59.9767C103.716 59.9767 104.197 59.95 104.491 59.95C104.624 59.95 104.705 59.95 104.731 59.95C104.731 59.95 104.785 59.95 104.865 59.95C105.132 59.95 105.8 59.9767 106.361 59.9767C106.655 59.9767 106.682 59.8164 106.682 59.763C106.708 59.6561 106.628 59.5492 106.495 59.5492Z" fill="#E44542"/>
<path d="M132.568 57.9999C132.461 57.9999 132.355 58.1068 132.328 58.2404C132.274 58.5076 132.168 58.748 132.034 58.9083C131.767 59.2289 131.233 59.2556 130.538 59.2556C129.576 59.2556 129.068 59.1755 128.881 58.9885C128.668 58.7747 128.641 57.8129 128.641 56.2366V53.9924C128.641 52.042 128.641 51.668 128.668 51.2939C128.694 50.8397 128.775 50.7329 129.068 50.6794C129.202 50.6527 129.416 50.6527 129.496 50.6527C129.603 50.6527 129.71 50.5726 129.71 50.4657C129.71 50.3855 129.656 50.252 129.389 50.252C129.095 50.252 128.507 50.2787 128.187 50.2787C128.053 50.2787 127.973 50.2787 127.946 50.2787C127.92 50.2787 127.866 50.2787 127.759 50.2787C127.465 50.2787 126.904 50.252 126.477 50.252C126.397 50.252 126.156 50.252 126.156 50.4657C126.156 50.5726 126.263 50.6794 126.37 50.6794C126.477 50.6794 126.691 50.7061 126.797 50.7061C127.145 50.7596 127.225 50.8932 127.252 51.3206C127.278 51.7214 127.278 52.0687 127.278 54.0191V56.2366C127.278 57.4656 127.278 58.4274 127.198 58.9617V58.9885C127.145 59.3358 127.118 59.4961 126.931 59.5495C126.824 59.5762 126.664 59.603 126.557 59.603C126.423 59.603 126.343 59.7098 126.343 59.8167C126.343 59.9236 126.397 60.0304 126.664 60.0304C126.878 60.0304 127.145 60.0037 127.439 60.0037C127.866 59.977 128.347 60.0037 129.015 60.0037H129.389C130.004 60.0304 130.725 60.0571 131.66 60.0571C132.355 60.0571 132.488 60.0037 132.595 59.6297C132.702 59.2556 132.782 58.4808 132.782 58.3472C132.755 58.0266 132.675 57.9999 132.568 57.9999Z" fill="#E44542"/>
<path d="M114.16 51.0266C115.389 51.0533 115.602 51.3472 115.629 51.6411L115.656 51.7747C115.656 51.8816 115.682 52.0953 115.87 52.0953C115.976 52.0953 116.083 52.0152 116.083 51.8281C116.083 51.7747 116.083 51.6144 116.11 51.4007C116.11 51.0533 116.137 50.6259 116.137 50.3854C116.137 50.3053 116.137 50.145 115.976 50.145C115.923 50.145 115.87 50.145 115.789 50.1717C115.736 50.1717 115.656 50.1984 115.576 50.1984C115.308 50.2251 114.988 50.2518 114.667 50.2518H109.751C109.618 50.2518 109.11 50.2251 108.736 50.1984C108.522 50.1717 108.415 50.1182 108.309 50.0915C108.255 50.0648 108.202 50.0381 108.148 50.0381C108.041 50.0381 107.988 50.1717 107.935 50.3053L107.908 50.3587C107.908 50.3854 107.854 50.5724 107.828 50.7327C107.721 51.2404 107.641 51.6411 107.641 51.7213C107.641 51.8549 107.747 51.935 107.828 51.935C107.961 51.935 108.015 51.8816 108.041 51.748C108.068 51.7213 108.068 51.6945 108.068 51.6678C108.095 51.5877 108.122 51.5075 108.228 51.3739C108.389 51.1068 108.683 51.0266 109.457 51.0266L111.247 50.9999V56.183C111.247 57.412 111.247 58.3738 111.194 58.9082C111.141 59.3089 111.06 59.4692 110.873 59.496C110.713 59.5227 110.606 59.5494 110.526 59.5494C110.392 59.5494 110.312 59.6563 110.312 59.7364C110.312 59.9502 110.553 59.9501 110.633 59.9501C110.9 59.9501 111.461 59.9234 111.755 59.9234C111.862 59.9234 111.942 59.9234 111.969 59.9234C111.996 59.9234 112.049 59.9234 112.129 59.9234C112.423 59.9234 113.037 59.9501 113.572 59.9501C113.866 59.9501 113.892 59.7898 113.892 59.7364C113.892 59.6028 113.812 59.5227 113.679 59.5227C113.572 59.5227 113.278 59.496 113.091 59.4692C112.77 59.4158 112.717 59.2555 112.663 58.8815C112.61 58.3738 112.61 57.3853 112.61 56.1563V50.9999L114.16 51.0266Z" fill="#E44542"/>
<path d="M125.489 59.5495C125.382 59.5495 125.195 59.5495 125.008 59.4693C124.794 59.3892 124.447 59.2823 123.966 58.1602C123.539 57.1716 122.791 55.2747 122.123 53.6183C121.508 52.0687 120.947 50.7595 120.84 50.4924C120.814 50.4389 120.787 50.3855 120.76 50.332C120.68 50.1183 120.6 49.958 120.44 49.958C120.279 49.958 120.199 50.0916 120.039 50.5191L116.966 58.4006C116.699 59.0686 116.459 59.4426 115.951 59.496C115.844 59.5227 115.657 59.5227 115.577 59.5227C115.47 59.5227 115.363 59.6296 115.363 59.7365C115.363 59.8701 115.47 59.9502 115.711 59.9502C116.058 59.9502 116.485 59.9235 116.753 59.9235C116.886 59.9235 116.993 59.9235 117.02 59.9235C117.073 59.9235 117.233 59.9235 117.421 59.9502C117.688 59.9502 118.008 59.9769 118.195 59.9769C118.462 59.9769 118.489 59.8434 118.489 59.7632C118.489 59.7098 118.462 59.5495 118.249 59.5495H118.142C118.008 59.5495 117.795 59.5227 117.795 59.309C117.795 59.0953 117.875 58.8014 117.982 58.5075L118.703 56.5304L119.104 55.4083L120.199 52.3091C120.199 52.2824 120.199 52.2824 120.226 52.2824C120.226 52.2824 120.226 52.3091 120.253 52.3091L121.535 55.7022H120.066C119.451 55.7289 119.157 56.2365 119.077 56.4236H121.802H121.829L123.004 59.309C123.031 59.3624 123.031 59.4159 123.004 59.4426C122.978 59.4693 122.951 59.496 122.924 59.5227H122.898C122.844 59.5495 122.791 59.5762 122.791 59.6831C122.791 59.8434 122.978 59.8434 123.245 59.8701H123.352C123.939 59.8968 124.661 59.8968 125.409 59.8968C125.756 59.8968 125.81 59.7632 125.81 59.6831C125.756 59.6296 125.649 59.5495 125.489 59.5495Z" fill="#E44542"/>
<path d="M46.6487 48.4619C46.3548 48.4619 45.954 48.4886 45.7136 48.4886C45.6067 48.4886 45.5266 48.4886 45.4998 48.4886C45.4464 48.4886 45.3128 48.4886 45.1525 48.4886C44.8586 48.4619 44.4312 48.4619 44.0571 48.4619C43.8968 48.4619 43.6296 48.4619 43.6296 48.6757C43.6296 48.7558 43.6564 48.8627 43.8968 48.8627C44.0571 48.8627 44.2709 48.8627 44.4044 48.9161C44.5113 48.9695 44.538 49.1031 44.538 49.1566C44.538 49.2901 44.4579 49.5306 44.4044 49.6909C44.1105 50.6794 42.2671 55.5687 41.332 57.7595L38.5534 50.3588V50.3321C38.3396 49.7978 38.1793 49.3169 38.1793 49.1566C38.1793 49.0764 38.2061 48.9963 38.3129 48.9428C38.4198 48.8894 38.6602 48.8894 38.8473 48.8894C39.061 48.8894 39.0877 48.7558 39.0877 48.6757C39.0877 48.4619 38.7671 48.4619 38.5801 48.4619C38.2061 48.4619 37.7786 48.4886 37.5114 48.4886C37.3778 48.4886 37.271 48.4886 37.2175 48.4886C37.1641 48.4886 37.0305 48.4886 36.8435 48.4886C36.4962 48.4886 35.9618 48.4619 35.4809 48.4619C35.2672 48.4619 35 48.4619 35 48.6757C35 48.8092 35.0802 48.8894 35.2137 48.8894C35.2939 48.8894 35.5343 48.8894 35.7481 48.9428C36.229 49.0764 36.416 49.21 36.7366 50.0382L40.3434 59.2289L40.3701 59.3091C40.6373 60.0037 40.7175 60.2175 40.9579 60.2175C41.1449 60.2175 41.1984 60.0572 41.4388 59.5495C41.4923 59.4159 41.5724 59.2289 41.6793 59.0152C41.9999 58.3205 42.6144 56.8244 43.4693 54.7672L44.1105 53.1908C44.6449 51.855 45.1258 50.7062 45.2594 50.3855C45.6601 49.397 45.8739 49.1566 46.0342 49.023C46.3014 48.8627 46.5952 48.8627 46.7021 48.8627C46.9426 48.8627 46.996 48.7291 46.996 48.6489C46.996 48.5421 46.8624 48.4619 46.6487 48.4619Z" fill="#143877"/>
<path d="M50.7095 59.5492C50.6026 59.5492 50.3354 59.5225 50.1217 59.4958C49.8278 59.4424 49.7744 59.3088 49.721 58.908C49.6675 58.4004 49.6675 57.4119 49.6675 56.1829V53.9654C49.6675 52.015 49.6675 51.641 49.6942 51.2669C49.721 50.8395 49.8011 50.7326 50.0683 50.6524C50.2019 50.6257 50.282 50.6257 50.3622 50.6257C50.469 50.6257 50.5759 50.5188 50.5759 50.412C50.5759 50.1982 50.3354 50.1982 50.2553 50.1982C49.9614 50.1982 49.4271 50.225 49.1599 50.225C49.053 50.225 48.9729 50.225 48.9462 50.225C48.9194 50.225 48.8393 50.225 48.7324 50.225C48.4385 50.225 47.9309 50.1982 47.637 50.1982C47.5569 50.1982 47.3164 50.1982 47.3164 50.412C47.3164 50.5188 47.3966 50.6257 47.5301 50.6257C47.6103 50.6257 47.7706 50.6524 47.9042 50.6792C48.0912 50.7326 48.1981 50.8127 48.2515 51.2669C48.2782 51.6677 48.2782 52.015 48.2782 53.9654V56.1829C48.2782 57.1447 48.2782 58.3203 48.1981 58.908C48.1446 59.3088 48.0912 59.4424 47.9309 59.4958C47.824 59.5225 47.6637 59.5492 47.5569 59.5492C47.4233 59.5492 47.3431 59.6561 47.3431 59.763C47.3431 59.8698 47.3966 59.9767 47.6637 59.9767C47.9576 59.9767 48.4385 59.95 48.7324 59.95C48.866 59.95 48.9462 59.95 48.9729 59.95C48.9729 59.95 49.0263 59.95 49.1065 59.95C49.3736 59.95 50.0416 59.9767 50.6026 59.9767C50.8965 59.9767 50.9232 59.8164 50.9232 59.763C50.8965 59.6561 50.8431 59.5492 50.7095 59.5492Z" fill="#143877"/>
<path d="M58.7507 58.0535C58.5637 58.0535 58.537 58.2138 58.5103 58.3207C58.4301 58.8283 58.2698 58.9886 57.9759 59.1222C57.6553 59.2558 57.0408 59.2558 56.7202 59.2558C55.4111 59.2558 54.7966 59.0955 54.7699 58.3474C54.7699 58.1604 54.7699 57.3589 54.7699 56.7711C54.7699 56.5306 54.7699 56.3436 54.7699 56.21V55.1681C55.0637 55.1681 56.8538 55.1948 57.2011 55.2215C57.7087 55.2749 57.7622 55.4352 57.7889 55.5421C57.8423 55.6757 57.8423 55.8093 57.8423 55.9161C57.8423 56.0764 57.9492 56.1299 58.0293 56.1299C58.1629 56.1299 58.2431 55.9963 58.2431 55.7825C58.2431 55.7024 58.2698 55.2215 58.2965 54.981C58.3232 54.7139 58.35 54.5268 58.3767 54.42C58.4034 54.3665 58.4034 54.3131 58.4034 54.2864C58.4034 54.1261 58.2965 54.0727 58.2164 54.0727C58.1362 54.0727 58.0828 54.1261 58.0026 54.2062L57.9759 54.2597C57.869 54.3665 57.7087 54.3665 57.4149 54.3933H57.3881C57.121 54.42 55.1439 54.42 54.7699 54.42V54.3933V50.9735V50.9467C55.037 50.9467 56.8805 50.9735 57.0942 51.0002C57.8156 51.0803 57.8958 51.1872 57.9492 51.3208C58.0026 51.4544 58.0293 51.6414 58.0293 51.7215C58.0293 51.962 58.1629 51.9887 58.2431 51.9887C58.35 51.9887 58.4301 51.8818 58.4568 51.775C58.4835 51.6681 58.4835 51.4277 58.5103 51.1872C58.5103 51.0803 58.537 50.9735 58.537 50.92C58.5637 50.7063 58.5904 50.5727 58.6171 50.4658C58.6438 50.4124 58.6438 50.359 58.6438 50.3055C58.6438 50.0918 58.5103 50.0918 58.4835 50.0918C58.4301 50.0918 58.3767 50.1185 58.3232 50.1452C58.2965 50.1452 58.2965 50.1719 58.2698 50.1719H58.1896C58.0561 50.1987 57.869 50.2254 57.682 50.2254C57.6019 50.2254 57.2813 50.2254 56.7736 50.2254C56.0523 50.2254 54.6363 50.2254 54.2622 50.2254H54.1019C54.0752 50.2254 54.0218 50.2254 53.9149 50.2254C53.621 50.2254 53.0332 50.1987 52.6058 50.1987C52.5256 50.1987 52.2852 50.1987 52.2852 50.4124C52.2852 50.5193 52.392 50.6261 52.4989 50.6261C52.6058 50.6261 52.8195 50.6529 52.9264 50.6529C53.2737 50.7063 53.3538 50.8399 53.3806 51.2674C53.4073 51.6681 53.4073 52.0154 53.4073 53.9658V56.1833C53.4073 57.4123 53.4073 58.3741 53.3271 58.9085V58.9619C53.2737 59.3359 53.2203 59.4695 53.0867 59.4962C53.0332 59.4962 52.9798 59.523 52.9264 59.523C52.8462 59.5497 52.7661 59.5497 52.6859 59.5497C52.5523 59.5497 52.4722 59.6565 52.4722 59.7634C52.4722 59.8703 52.5256 59.9771 52.7928 59.9771C52.9531 59.9771 53.2203 59.9771 53.5676 59.9504C53.8348 59.9237 54.0485 59.9237 54.1286 59.9237C54.3157 59.9237 54.663 59.9237 55.1973 59.9504H55.5179C56.0256 59.9771 57.1477 59.9771 57.9759 59.9771C58.4835 59.9771 58.6973 59.9771 58.8041 59.5764C58.8843 59.3092 58.9912 58.4275 58.9912 58.3207C58.9377 58.0802 58.8309 58.0535 58.7507 58.0535Z" fill="#143877"/>
<path d="M68.3436 50.1186C68.2901 50.1186 68.2367 50.1186 68.1565 50.1453C68.1031 50.1453 68.023 50.172 67.9428 50.172C67.6756 50.1987 67.355 50.2255 67.0344 50.2255H62.1185C61.9849 50.2255 61.4773 50.2255 61.1032 50.172C60.8895 50.1453 60.7826 50.0919 60.6757 50.0652C60.6223 50.0384 60.5689 50.0117 60.5154 50.0117C60.4086 50.0117 60.3551 50.1186 60.3017 50.2789L60.275 50.3323C60.275 50.359 60.2216 50.5461 60.1948 50.7064C60.088 51.214 60.0078 51.6147 60.0078 51.6949C60.0078 51.8285 60.1147 51.9086 60.1948 51.9086C60.3284 51.9086 60.3819 51.8552 60.4086 51.7216C60.4086 51.6949 60.4353 51.6682 60.4353 51.6415C60.462 51.5613 60.4887 51.4812 60.5956 51.3209C60.7559 51.0537 61.0498 50.9735 61.8246 50.9735L63.6146 50.9468V56.1299C63.6146 57.3589 63.6146 58.3208 63.5612 58.8551C63.5078 59.2559 63.4276 59.4162 63.2406 59.4429C63.0803 59.4696 62.9734 59.4963 62.8665 59.4963C62.733 59.4963 62.6528 59.6032 62.6528 59.6833C62.6528 59.8971 62.8933 59.8971 62.9734 59.8971C63.2406 59.8971 63.8016 59.8703 64.0955 59.8703C64.2024 59.8703 64.2826 59.8703 64.3093 59.8703C64.336 59.8703 64.3894 59.8703 64.4696 59.8703C64.7635 59.8703 65.378 59.8971 65.9123 59.8971C66.2062 59.8971 66.2329 59.7368 66.2329 59.6833C66.2329 59.5497 66.1528 59.4696 66.0192 59.4696C65.9123 59.4696 65.6184 59.4429 65.4314 59.4162C65.1108 59.3627 65.0574 59.2024 65.0039 58.8284C64.9505 58.3208 64.9505 57.3322 64.9505 56.1032V51.0003L66.4734 51.027C67.7024 51.0537 67.9161 51.3476 67.9428 51.6415L67.9695 51.7751C67.9695 51.8819 67.9962 52.0957 68.1833 52.0957C68.2901 52.0957 68.397 52.0155 68.397 51.8285C68.397 51.7751 68.397 51.6147 68.4237 51.401C68.4237 51.0537 68.4504 50.6262 68.4504 50.3858C68.5039 50.3056 68.5039 50.1186 68.3436 50.1186Z" fill="#143877"/>
<path d="M83.0923 65.9618C82.932 65.3473 82.6114 64.6526 81.7832 64.6526C81.0618 64.6526 80.7145 65.1603 80.7145 65.6946C80.7145 66.3625 81.1687 66.7099 81.9702 67.0839C82.7984 67.4847 83.6534 67.9388 83.6534 69.0075C83.6534 70.0228 82.7717 70.851 81.4358 70.851C81.0351 70.851 80.7145 70.7709 80.4473 70.6907C80.2068 70.6106 80.0733 70.5304 79.9664 70.477C79.913 70.29 79.7527 69.4083 79.6992 68.9541L79.9931 68.8739C80.1534 69.4884 80.6343 70.477 81.6496 70.477C82.3709 70.477 82.7717 70.0495 82.7717 69.3549C82.7717 68.6602 82.2373 68.3396 81.4893 67.9388C80.8213 67.5915 79.8595 67.1106 79.8595 66.0686C79.8595 65.1068 80.6343 64.332 81.9167 64.332C82.3709 64.332 82.8251 64.4389 83.1992 64.5725C83.2259 64.9198 83.2793 65.2938 83.3595 65.9351L83.0923 65.9618Z" fill="#143877"/>
<path d="M89.3166 69.141C89.2631 69.4883 89.0494 70.3967 88.9692 70.6906H84.1602V70.4234C85.0418 70.37 85.122 70.2631 85.122 69.4883V65.7479C85.122 64.8662 85.0418 64.8395 84.267 64.7861V64.4922H88.7021C88.7021 64.7326 88.7555 65.3739 88.7822 65.9082L88.4883 65.9349C88.4082 65.5342 88.3013 65.3204 88.1677 65.1067C88.0341 64.8929 87.767 64.8395 87.0723 64.8395H86.351C86.0304 64.8395 86.0036 64.8662 86.0036 65.1601V67.2975H86.912C87.7937 67.2975 87.8471 67.2173 87.9807 66.5761H88.2746V68.4463H87.9807C87.8471 67.7517 87.767 67.6982 86.912 67.6982H86.0036V69.4616C86.0036 69.9158 86.0571 70.1295 86.2441 70.2364C86.4311 70.3432 86.8052 70.3432 87.2593 70.3432C87.9807 70.3432 88.2746 70.2898 88.4883 70.0226C88.6486 69.8089 88.8357 69.4883 88.996 69.0875L89.3166 69.141Z" fill="#143877"/>
<path d="M96.0485 69.0336C95.915 69.4878 95.6478 70.2359 95.4875 70.5565C95.1936 70.6099 94.3386 70.8237 93.6173 70.8237C91.0792 70.8237 89.957 69.1405 89.957 67.6443C89.957 65.6138 91.5868 64.3047 93.8577 64.3047C94.686 64.3047 95.4073 64.5451 95.6745 64.5719C95.7547 65.1062 95.8348 65.5337 95.8882 66.068L95.5944 66.1215C95.3272 65.0528 94.6593 64.652 93.5906 64.652C91.9074 64.652 91.0257 66.0146 91.0257 67.4306C91.0257 69.2474 92.1211 70.4496 93.6707 70.4496C94.686 70.4496 95.247 69.9153 95.7547 68.9268L96.0485 69.0336Z" fill="#143877"/>
<path d="M103.399 64.7324C102.838 64.7591 102.571 64.9194 102.544 65.2934C102.518 65.5606 102.491 65.9614 102.491 66.8163V67.5644C102.491 68.6865 102.304 69.5415 101.743 70.1292C101.289 70.5834 100.621 70.7972 99.9529 70.7972C99.3384 70.7972 98.7774 70.6636 98.3499 70.343C97.7354 69.8888 97.4682 69.1674 97.4682 68.0186V65.7209C97.4682 64.8392 97.3881 64.7858 96.6133 64.7324V64.4385H99.2316V64.7324C98.4568 64.7858 98.3766 64.8392 98.3766 65.7209V67.8048C98.3766 69.3812 99.0445 70.2361 100.22 70.2361C101.609 70.2361 102.09 69.114 102.09 67.5377V66.8163C102.09 65.9614 102.064 65.5606 102.01 65.2667C101.957 64.8927 101.743 64.7591 101.048 64.7324V64.4385H103.399V64.7324Z" fill="#143877"/>
<path d="M109.781 70.7704C109.674 70.7704 109.54 70.7704 109.433 70.7437C108.632 70.717 108.231 70.5033 107.777 69.8621C107.43 69.4079 107.109 68.8201 106.815 68.3659C106.628 68.0987 106.468 67.9651 105.96 67.9651H105.693V69.4613C105.693 70.2628 105.773 70.343 106.575 70.3964V70.6636H103.93V70.3964C104.731 70.343 104.811 70.2628 104.811 69.4613V65.6675C104.811 64.8392 104.731 64.7858 103.956 64.7324V64.4385H106.468C107.216 64.4385 107.697 64.5186 108.071 64.7858C108.472 65.0263 108.712 65.4537 108.712 66.0415C108.712 66.8697 108.178 67.3774 107.483 67.6713C107.643 67.9919 108.044 68.6064 108.338 69.0605C108.685 69.5682 108.899 69.8353 109.14 70.0758C109.38 70.3697 109.594 70.4498 109.834 70.5033L109.781 70.7704ZM106.147 67.6445C106.628 67.6445 106.975 67.5644 107.216 67.3774C107.59 67.0835 107.75 66.7094 107.75 66.2018C107.75 65.1866 107.082 64.7858 106.361 64.7858C106.067 64.7858 105.907 64.8125 105.827 64.866C105.773 64.9194 105.72 65.0263 105.72 65.2667V67.6178H106.147V67.6445Z" fill="#143877"/>
<path d="M110.129 70.6899V70.4228C110.93 70.3693 111.011 70.3159 111.011 69.4877V65.6938C111.011 64.8656 110.93 64.8122 110.129 64.7587V64.4648H112.801V64.7587C111.999 64.8122 111.919 64.8656 111.919 65.6938V69.461C111.919 70.2892 111.999 70.3426 112.801 70.3961V70.6632H110.129V70.6899Z" fill="#143877"/>
<path d="M118.813 65.9879C118.706 65.507 118.599 65.2666 118.492 65.0796C118.332 64.8658 118.145 64.7857 117.424 64.7857H116.756V69.4612C116.756 70.2093 116.836 70.3428 117.771 70.3963V70.6634H114.859V70.3963C115.767 70.3428 115.847 70.236 115.847 69.4612V64.8124H115.286C114.431 64.8124 114.244 64.8925 114.111 65.1063C113.977 65.2666 113.897 65.5605 113.79 66.0147H113.496C113.55 65.4002 113.576 64.759 113.603 64.2246H113.817C113.95 64.4651 114.084 64.4651 114.378 64.4651H118.359C118.626 64.4651 118.706 64.4116 118.866 64.2246H119.08C119.08 64.6521 119.133 65.4002 119.187 65.9879H118.813Z" fill="#143877"/>
<path d="M119.723 70.6899V70.4228C120.524 70.3693 120.604 70.3159 120.604 69.4877V65.6938C120.604 64.8656 120.524 64.8122 119.723 64.7587V64.4648H122.394V64.7587C121.593 64.8122 121.513 64.8656 121.513 65.6938V69.461C121.513 70.2892 121.593 70.3426 122.394 70.3961V70.6632H119.723V70.6899Z" fill="#143877"/>
<path d="M128.219 69.141C128.165 69.4883 127.952 70.3967 127.872 70.6906H123.062V70.4234C123.944 70.37 124.024 70.2631 124.024 69.4883V65.7479C124.024 64.8662 123.944 64.8395 123.169 64.7861V64.4922H127.604C127.604 64.7326 127.658 65.3739 127.685 65.9082H127.444C127.364 65.5074 127.257 65.2937 127.124 65.08C126.99 64.8662 126.723 64.8128 126.028 64.8128H125.307C124.986 64.8128 124.959 64.8395 124.959 65.1334V67.2708H125.868C126.749 67.2708 126.803 67.1906 126.936 66.5494H127.23V68.4196H126.91C126.776 67.725 126.696 67.6715 125.841 67.6715H124.933V69.4349C124.933 69.8891 124.986 70.1028 125.173 70.2097C125.36 70.3165 125.734 70.3165 126.188 70.3165C126.91 70.3165 127.204 70.2631 127.417 69.9959C127.578 69.7822 127.765 69.4616 127.925 69.0608L128.219 69.141Z" fill="#143877"/>
<path d="M132.198 65.9618C132.037 65.3473 131.717 64.6526 130.889 64.6526C130.167 64.6526 129.82 65.1603 129.82 65.6946C129.82 66.3625 130.274 66.7099 131.076 67.0839C131.904 67.4847 132.759 67.9388 132.759 69.0075C132.759 70.0228 131.877 70.851 130.541 70.851C130.141 70.851 129.82 70.7709 129.553 70.6907C129.312 70.6106 129.179 70.5304 129.072 70.477C129.018 70.29 128.858 69.4083 128.805 68.9541L129.099 68.8739C129.259 69.4884 129.74 70.477 130.755 70.477C131.476 70.477 131.877 70.0495 131.877 69.3549C131.877 68.6602 131.343 68.3396 130.595 67.9388C129.9 67.5915 128.965 67.1106 128.965 66.0686C128.965 65.1068 129.74 64.332 131.022 64.332C131.476 64.332 131.931 64.4389 132.305 64.5725C132.331 64.9198 132.385 65.2938 132.465 65.9351L132.198 65.9618Z" fill="#143877"/>
</g>
<path fill-rule="evenodd" clip-rule="evenodd" d="M112.044 55.4495C112.418 55.8553 112.393 56.4879 111.987 56.8625L101.121 66.893C100.738 67.2466 100.147 67.2466 99.7644 66.893L93.8481 61.4318C93.4423 61.0572 93.417 60.4245 93.7916 60.0187L95.5438 58.1204C95.9184 57.7146 96.551 57.6893 96.9569 58.0639L100.443 61.2816L108.878 53.4947C109.284 53.1201 109.917 53.1454 110.292 53.5512L112.044 55.4495Z" fill="#32864E"/>
<path d="M84.3346 60.0003C84.3346 50.2485 92.2495 42.3337 102.001 42.3337C111.753 42.3337 119.668 50.2485 119.668 60.0003C119.668 69.7521 111.753 77.667 102.001 77.667C92.2495 77.667 84.3346 69.7521 84.3346 60.0003ZM86.668 60.0003C86.668 68.4535 93.5481 75.3337 102.001 75.3337C110.454 75.3337 117.335 68.4535 117.335 60.0003C117.335 51.5471 110.454 44.667 102.001 44.667C93.5481 44.667 86.668 51.5471 86.668 60.0003Z" fill="#32864E" stroke="#32864E" stroke-width="1.33333"/>
<defs>
<filter id="filter0_d_9416_106593" x="0" y="0" width="204" height="120" filterUnits="userSpaceOnUse" color-interpolation-filters="sRGB">
<feFlood flood-opacity="0" result="BackgroundImageFix"/>
<feColorMatrix in="SourceAlpha" type="matrix" values="0 0 0 0 0 0 0 0 0 0 0 0 0 0 0 0 0 0 127 0" result="hardAlpha"/>
<feOffset/>
<feGaussianBlur stdDeviation="10"/>
<feColorMatrix type="matrix" values="0 0 0 0 0 0 0 0 0 0 0 0 0 0 0 0 0 0 0.05 0"/>
<feBlend mode="normal" in2="BackgroundImageFix" result="effect1_dropShadow_9416_106593"/>
<feBlend mode="normal" in="SourceGraphic" in2="effect1_dropShadow_9416_106593" result="shape"/>
</filter>
</defs>
</svg>
