<?xml version="1.0" encoding="iso-8859-1"?>
<!-- Generator: Adobe Illustrator 19.0.0, SVG Export Plug-In . SVG Version: 6.00 Build 0)  -->
<svg version="1.1" id="Capa_1" xmlns="http://www.w3.org/2000/svg" xmlns:xlink="http://www.w3.org/1999/xlink" x="0px" y="0px"
	 viewBox="0 0 472.613 472.613" style="enable-background:new 0 0 472.613 472.613;" xml:space="preserve">
<g>
	<g>
		<g>
			<path d="M420.689,159.361c-9.079,0-17.501,2.881-24.439,7.775c-4.636-18.892-21.524-32.937-41.598-32.937
				c-10.077,0-19.347,3.548-26.674,9.463c-6.583-15.418-21.747-26.237-39.365-26.237c-8.534,0-16.486,2.548-23.173,6.917V43.396
				C265.44,19.467,246.211,0,222.576,0c-23.637,0-42.865,19.467-42.865,43.396v220.453l-24.736-23.271
				c-11.197-11.252-26.029-17.441-41.799-17.441c-0.05,0-0.101,0-0.15,0c-15.89,0.039-30.806,6.356-41.999,17.787
				c-10.16,10.374-10.117,27.212,0.094,37.537L217.225,426.13c26.814,29.543,64.843,46.482,104.408,46.482
				c78.256,0,141.922-64.618,141.922-144.045v-75.487v-8.388v-41.937C463.554,178.828,444.325,159.361,420.689,159.361z
				 M443.862,244.693v8.388v75.487c0,68.568-54.832,124.353-122.23,124.353c-34.135,0-66.962-14.682-90.063-40.281
				c-0.067-0.074-0.141-0.138-0.21-0.21c-0.037-0.038-0.067-0.079-0.104-0.116L85.12,264.611c-2.695-2.725-2.706-7.171-0.024-9.91
				c7.471-7.63,17.408-11.845,27.979-11.872c0.033,0,0.065,0,0.099,0c10.532,0,20.448,4.163,27.932,11.729
				c0.083,0.084,0.167,0.166,0.253,0.247l41.451,38.997c2.862,2.692,7.051,3.424,10.653,1.867c3.606-1.559,5.94-5.111,5.94-9.039
				V43.396c0-13.07,10.395-23.704,23.173-23.704c12.777,0,23.172,10.634,23.172,23.704v142.586c0,0.005,0.001,0.009,0.001,0.014
				v8.373c0,5.438,4.409,9.846,9.846,9.846c5.438,0,9.846-4.409,9.846-9.846l-0.001-33.55c0-13.07,10.395-23.703,23.173-23.703
				s23.173,10.633,23.173,23.703v16.775v33.55c0,5.438,4.409,9.846,9.846,9.846s9.846-4.409,9.846-9.846v-33.55
				c0-13.07,10.395-23.704,23.173-23.704c12.777,0,23.172,10.634,23.172,23.704v50.324c0,5.438,4.409,9.846,9.846,9.846
				s9.846-4.409,9.846-9.846v-25.162c0-13.07,10.395-23.704,23.173-23.704c12.778,0,23.173,10.634,23.173,23.704V244.693z"/>
			<path d="M92.16,200.072c0-5.438-4.409-9.846-9.846-9.846H42.675L144.934,87.968v39.638c0,5.438,4.409,9.846,9.846,9.846
				s9.846-4.409,9.846-9.846v-63.41c0-5.438-4.409-9.846-9.846-9.846H91.372c-5.438,0-9.846,4.409-9.846,9.846
				s4.409,9.846,9.846,9.846h39.638L28.75,176.301v-39.638c0-5.438-4.409-9.846-9.846-9.846s-9.846,4.409-9.846,9.846v63.404
				c0,0.327,0.017,0.654,0.049,0.979c0.013,0.135,0.039,0.265,0.058,0.398c0.026,0.185,0.048,0.371,0.085,0.555
				c0.031,0.156,0.074,0.307,0.112,0.46c0.039,0.158,0.075,0.318,0.122,0.474c0.046,0.151,0.102,0.296,0.155,0.443
				c0.055,0.156,0.107,0.313,0.171,0.467c0.056,0.135,0.122,0.265,0.184,0.397c0.075,0.16,0.146,0.321,0.23,0.477
				c0.066,0.123,0.141,0.239,0.211,0.359c0.093,0.157,0.182,0.315,0.284,0.467c0.086,0.128,0.182,0.248,0.273,0.372
				c0.099,0.134,0.193,0.271,0.3,0.401c0.166,0.203,0.345,0.394,0.527,0.583c0.042,0.044,0.079,0.092,0.122,0.135
				c0.041,0.041,0.086,0.075,0.128,0.115c0.191,0.185,0.386,0.366,0.591,0.535c0.123,0.101,0.251,0.188,0.377,0.282
				c0.132,0.098,0.26,0.2,0.397,0.292c0.144,0.097,0.294,0.18,0.442,0.269c0.128,0.076,0.253,0.157,0.385,0.227
				c0.149,0.08,0.302,0.147,0.454,0.219c0.139,0.066,0.277,0.136,0.42,0.195c0.146,0.061,0.296,0.109,0.444,0.163
				c0.155,0.056,0.308,0.115,0.466,0.163c0.148,0.045,0.298,0.078,0.448,0.115c0.162,0.041,0.322,0.086,0.487,0.119
				c0.173,0.034,0.347,0.054,0.52,0.079c0.144,0.021,0.286,0.048,0.432,0.063c0.323,0.032,0.647,0.049,0.972,0.049h63.41
				C87.751,209.918,92.16,205.51,92.16,200.072z"/>
		</g>
	</g>
</g>
<g>
</g>
<g>
</g>
<g>
</g>
<g>
</g>
<g>
</g>
<g>
</g>
<g>
</g>
<g>
</g>
<g>
</g>
<g>
</g>
<g>
</g>
<g>
</g>
<g>
</g>
<g>
</g>
<g>
</g>
</svg>
