<svg width="24" height="24" viewBox="0 0 24 24" fill="none" xmlns="http://www.w3.org/2000/svg">
<path d="M21 2H3C2.46957 2 1.96086 2.21071 1.58579 2.58579C1.21071 2.96086 1 3.46957 1 4V14C1 14.5304 1.21071 15.0391 1.58579 15.4142C1.96086 15.7893 2.46957 16 3 16H21C21.5304 16 22.0391 15.7893 22.4142 15.4142C22.7893 15.0391 23 14.5304 23 14V4C23 3.46957 22.7893 2.96086 22.4142 2.58579C22.0391 2.21071 21.5304 2 21 2ZM13 4H15V6H13V4ZM13 8H15V10H13V8ZM9 4H11V6H9V4ZM9 8H11V10H9V8ZM5 4H7V6H5V4ZM5 8H7V10H5V8ZM17 14H7V12H17V14ZM19 10H17V8H19V10ZM19 6H17V4H19V6Z" fill="#8691B3"/>
<path d="M12 22L7 17H17L12 22Z" fill="#8691B3"/>
</svg>
