<svg width="24" height="24" viewBox="0 0 24 24" fill="none" xmlns="http://www.w3.org/2000/svg">
<path d="M4.45333 4.77V6.32912L5.58057 5.252C7.31027 3.5992 9.60859 2.67373 12.001 2.66667C13.8466 2.66686 15.6507 3.21424 17.1853 4.23962C18.7202 5.26518 19.9165 6.72284 20.6229 8.42829C21.3293 10.1337 21.5141 12.0104 21.154 13.8208C20.7939 15.6313 19.905 17.2944 18.5997 18.5997C17.2944 19.905 15.6313 20.7939 13.8208 21.154C12.0104 21.5141 10.1337 21.3293 8.42829 20.6229C6.72284 19.9165 5.26518 18.7202 4.23962 17.1853C3.21406 15.6505 2.66667 13.846 2.66667 12C2.66667 11.9116 2.70179 11.8268 2.7643 11.7643C2.82681 11.7018 2.9116 11.6667 3 11.6667C3.08841 11.6667 3.17319 11.7018 3.2357 11.7643C3.298 11.8266 3.33309 11.911 3.33333 11.9991C3.32591 14.0132 4.02022 15.967 5.29698 17.5248C6.57409 19.083 8.35419 20.1476 10.3312 20.5355C12.3082 20.9235 14.3586 20.6105 16.1298 19.6504C17.9011 18.6904 19.2825 17.1432 20.0366 15.2749C20.7907 13.4067 20.8704 11.3341 20.2619 9.41344C19.6534 7.49282 18.3947 5.84421 16.7024 4.75105C15.01 3.65789 12.9897 3.18849 10.9888 3.42356C8.9878 3.65862 7.13126 4.58347 5.73834 6.03908L4.65931 7.16667H6.22H8.62C8.70841 7.16667 8.79319 7.20179 8.8557 7.2643C8.91822 7.32681 8.95333 7.4116 8.95333 7.5C8.95333 7.58841 8.91822 7.67319 8.8557 7.7357C8.79319 7.79822 8.70841 7.83333 8.62 7.83333H4.12C4.0316 7.83333 3.94681 7.79822 3.8843 7.7357C3.82179 7.67319 3.78667 7.58841 3.78667 7.5V3C3.78667 2.91159 3.82179 2.82681 3.8843 2.7643C3.94681 2.70179 4.03159 2.66667 4.12 2.66667C4.20841 2.66667 4.29319 2.70179 4.3557 2.7643L4.82711 2.29289L4.3557 2.7643C4.41821 2.82681 4.45333 2.91159 4.45333 3V4.77ZM12.3333 11V11.6667H13H14C14.0884 11.6667 14.1732 11.7018 14.2357 11.7643C14.2982 11.8268 14.3333 11.9116 14.3333 12C14.3333 12.0884 14.2982 12.1732 14.2357 12.2357C14.1732 12.2982 14.0884 12.3333 14 12.3333H12C11.9116 12.3333 11.8268 12.2982 11.7643 12.2357C11.7018 12.1732 11.6667 12.0884 11.6667 12V9C11.6667 8.9116 11.7018 8.82681 11.7643 8.7643C11.8268 8.70179 11.9116 8.66667 12 8.66667C12.0884 8.66667 12.1732 8.70179 12.2357 8.7643L12.7071 8.29289L12.2357 8.7643C12.2982 8.82681 12.3333 8.91159 12.3333 9V11Z" fill="#3B56A4" stroke="#3B56A4" stroke-width="1.33333"/>
</svg>
