<svg width="40" height="40" viewBox="0 0 40 40" fill="none" xmlns="http://www.w3.org/2000/svg">
<path d="M13.3333 14.1667C13.3333 17.9667 16.2 20.8333 20 20.8333C23.8 20.8333 26.6667 17.9667 26.6667 14.1667C26.6667 10.3667 23.8 7.5 20 7.5C16.2 7.5 13.3333 10.3667 13.3333 14.1667ZM23.3333 14.1667C23.3333 16.13 21.9633 17.5 20 17.5C18.0367 17.5 16.6667 16.13 16.6667 14.1667C16.6667 12.2033 18.0367 10.8333 20 10.8333C21.9633 10.8333 23.3333 12.2033 23.3333 14.1667ZM13.3333 30.8333C13.3333 28.0767 15.5767 25.8333 18.3333 25.8333H21.6667C24.4233 25.8333 26.6667 28.0767 26.6667 30.8333V32.5H30V30.8333C30 26.2383 26.2617 22.5 21.6667 22.5H18.3333C13.7383 22.5 10 26.2383 10 30.8333V32.5H13.3333V30.8333Z" fill="#3B56A4"/>
</svg>
