<svg width="24" height="24" viewBox="0 0 24 24" fill="none" xmlns="http://www.w3.org/2000/svg">
<path d="M0.879306 11.15H2.34482V15.05H1.46551C1.2323 15.05 1.00865 15.1527 0.843747 15.3356C0.678845 15.5184 0.586204 15.7664 0.586204 16.025C0.586204 16.2836 0.678845 16.5316 0.843747 16.7144C1.00865 16.8973 1.2323 17 1.46551 17H15.5344C15.7676 17 15.9913 16.8973 16.1562 16.7144C16.3211 16.5316 16.4137 16.2836 16.4137 16.025C16.4137 15.7664 16.3211 15.5184 16.1562 15.3356C15.9913 15.1527 15.7676 15.05 15.5344 15.05H14.6551V11.15H16.1206C16.3121 11.15 16.4983 11.0807 16.651 10.9527C16.8038 10.8247 16.9146 10.6448 16.9668 10.4406C17.0189 10.2363 17.0095 10.0187 16.94 9.82093C16.8704 9.62313 16.7446 9.45589 16.5815 9.34463L8.96087 4.14464C8.82227 4.05007 8.66273 4 8.5 4C8.33727 4 8.17773 4.05007 8.03913 4.14464L0.418476 9.34463C0.255415 9.45589 0.12956 9.62313 0.0600304 9.82093C-0.00949922 10.0187 -0.0189036 10.2363 0.0332458 10.4406C0.0853953 10.6448 0.196248 10.8247 0.348966 10.9527C0.501683 11.0807 0.687845 11.15 0.879306 11.15ZM4.10343 11.15H5.86204V15.05H4.10343V11.15ZM9.37927 11.15V15.05H7.62066V11.15H9.37927ZM12.8965 15.05H11.1379V11.15H12.8965V15.05ZM8.49996 6.11982L13.014 9.20001H3.98597L8.49996 6.11982Z" fill="#3B56A4"/>
<path d="M18 13H23" stroke="#3B56A4" stroke-width="1.5" stroke-linecap="round"/>
<path d="M21 15L23 13L21 11" stroke="#3B56A4" stroke-width="1.5" stroke-linecap="round" stroke-linejoin="round"/>
<path d="M17 19C17 19.2652 16.9133 19.5196 16.7591 19.7071C16.6048 19.8946 16.3956 20 16.1774 20H0.822581C0.604419 20 0.395192 19.8946 0.240928 19.7071C0.0866645 19.5196 0 19.2652 0 19C0 18.7348 0.0866645 18.4804 0.240928 18.2929C0.395192 18.1054 0.604419 18 0.822581 18H16.1774C16.3956 18 16.6048 18.1054 16.7591 18.2929C16.9133 18.4804 17 18.7348 17 19Z" fill="#3B56A4"/>
</svg>
