<svg width="106" height="106" viewBox="0 0 106 106" fill="none" xmlns="http://www.w3.org/2000/svg">
<g filter="url(#filter0_d_4647_133184)">
<rect x="20" y="20" width="66" height="66" rx="33" fill="#6EC2D2"/>
<g clip-path="url(#clip0_4647_133184)">
<path fill-rule="evenodd" clip-rule="evenodd" d="M41.8191 32.0671C40.5633 32.0671 39.5332 33.0971 39.5332 34.3564V36.4164C39.5332 37.6757 40.5632 38.7023 41.8191 38.7023H44.1083C46.928 35.5027 45.5865 32.9704 43.9475 32.067H41.8191V32.0671Z" fill="#9FD4FE"/>
<path fill-rule="evenodd" clip-rule="evenodd" d="M63.4939 38.7023H64.9017L65.7824 39.016C65.7824 39.016 66.3759 38.7846 66.7123 38.5675C67.5936 38.2491 68.2265 37.4023 68.2265 36.4163V34.3564C68.2265 33.0971 67.1999 32.0671 65.9406 32.0671H63.6513C61.8823 32.8747 61.5982 37.313 63.4939 38.7023Z" fill="#9FD4FE"/>
<path fill-rule="evenodd" clip-rule="evenodd" d="M39.5333 36.4164C39.5333 37.6757 40.5633 38.7023 41.8192 38.7023H44.1084C44.6046 38.1411 44.9707 37.597 45.2309 37.0803H43.9509H41.8191C40.5633 37.0803 39.5332 36.0503 39.5332 34.7944V36.4164H39.5333Z" fill="#85BEEF"/>
<path fill-rule="evenodd" clip-rule="evenodd" d="M63.6499 37.0803H62.4316C62.6404 37.7545 62.9929 38.3362 63.4924 38.7023H65.8056H65.9391C67.1984 38.7023 68.2249 37.6723 68.2249 36.4164V34.7944C68.2249 36.0503 67.1984 37.0803 65.9391 37.0803H65.8056H63.6499Z" fill="#85BEEF"/>
<path fill-rule="evenodd" clip-rule="evenodd" d="M56.3074 45.8065C55.4006 46.1452 54.5998 46.3129 53.8025 46.3129C53.0017 46.3129 52.201 46.1452 51.2942 45.8065C50.4662 45.4985 49.6654 45.0708 48.916 44.554V50.3543L53.1523 53.8481H54.4492L56.3723 52.2637L57.3989 51.4184L58.6855 50.3543V44.554C57.9396 45.0706 57.1389 45.4985 56.3074 45.8065Z" fill="#F5A96C"/>
<path fill-rule="evenodd" clip-rule="evenodd" d="M53.8025 46.3128C53.0017 46.3128 52.201 46.1451 51.2942 45.8063C50.4662 45.4984 49.6654 45.0706 48.916 44.5538V47.4556C49.9221 48.5814 53.8367 50.0735 56.3621 48.773V52.1984L58.6856 49.0741V45.8335V44.5537C57.9396 45.0704 57.1389 45.4981 56.3074 45.8062C55.4006 46.1452 54.5998 46.3128 53.8025 46.3128Z" fill="#EA9A58"/>
<path fill-rule="evenodd" clip-rule="evenodd" d="M51.6576 67.625L53.8032 58.7142L45.8166 50.0737C44.3691 50.6178 42.8292 51.3125 41.3989 52.1714C39.0002 53.6155 36.9094 55.5317 36.0916 57.9956C35.8521 58.7108 35.722 59.4739 35.722 60.2849V66.5129C35.6707 67.3992 35.8828 67.625 36.752 67.625H47.6986H51.6576Z" fill="#375E7D"/>
<path fill-rule="evenodd" clip-rule="evenodd" d="M71.8807 60.2849C71.8807 55.0184 66.3679 51.7949 61.786 50.0736L53.8027 58.7141L56.1707 67.6249H70.8507C71.7233 67.6249 71.932 67.3991 71.8807 66.5128V60.2849Z" fill="#375E7D"/>
<path fill-rule="evenodd" clip-rule="evenodd" d="M57.4189 67.6251L55.8072 58.7142L53.8019 57.6294L51.7933 58.7142L50.1816 67.6251H53.8019H57.4189Z" fill="#EB5468"/>
<path fill-rule="evenodd" clip-rule="evenodd" d="M53.8034 57.6294L51.7947 58.7142L51.5312 60.1822H53.9629C54.138 60.1822 54.2881 60.3075 54.3193 60.4799L55.6136 67.6251H57.4204L55.8087 58.7142L53.8034 57.6294Z" fill="#E5384F"/>
<path fill-rule="evenodd" clip-rule="evenodd" d="M57.4802 55.1553L56.3715 53.664L53.8016 53.1021L51.309 53.513L50.123 55.1553L51.793 58.7142H53.8016H55.8069L57.4802 55.1553Z" fill="#EB5468"/>
<path fill-rule="evenodd" clip-rule="evenodd" d="M53.8016 53.1021H51.309L50.123 55.1553L50.9306 56.8765L52.2719 56.1271L53.6248 55.3735C53.7346 55.3123 53.8684 55.3124 53.978 55.3738L55.5194 56.2366L56.6691 56.8765L57.4801 55.1553L56.5906 53.5735L53.8016 53.1021Z" fill="#E5384F"/>
<path fill-rule="evenodd" clip-rule="evenodd" d="M53.8031 53.1021L48.9166 49.0743C48.003 49.3207 46.9353 49.6527 45.8164 50.0736L48.6461 55.5493C48.7399 55.7307 48.965 55.7988 49.1436 55.6996L50.1246 55.1552L53.8031 53.1021Z" fill="#EFF6FF"/>
<path fill-rule="evenodd" clip-rule="evenodd" d="M61.786 50.0736C60.6671 49.6527 59.6028 49.3208 58.6858 49.0743L53.8027 53.1021L57.4812 55.1553L58.462 55.6996C58.6406 55.7988 58.8658 55.7306 58.9596 55.5491L61.786 50.0736Z" fill="#EFF6FF"/>
<path fill-rule="evenodd" clip-rule="evenodd" d="M61.7864 50.0736C60.6675 49.6527 59.6032 49.3208 58.6862 49.0743L57.3996 50.1351L56.373 50.9804C57.3415 51.2884 58.3953 51.6717 59.463 52.1336C59.8052 52.2808 60.144 52.4382 60.4828 52.599L61.7864 50.0736Z" fill="#D9EEFF"/>
<path fill-rule="evenodd" clip-rule="evenodd" d="M71.8808 60.2849C71.8808 55.0185 66.368 51.7949 61.7861 50.0736L60.4824 52.599C65.0643 54.3203 68.1167 57.5437 68.1167 62.8102V67.625H70.8508C71.7234 67.625 71.9321 67.3992 71.8808 66.5129V60.2849Z" fill="#2B4D66"/>
<path fill-rule="evenodd" clip-rule="evenodd" d="M63.651 37.3131V34.7774C62.2856 31.6633 47.9307 24.176 43.9512 35.4994V37.3131C43.9512 40.848 47.2738 45.2829 51.3356 46.7885C52.2253 47.1204 53.0123 47.2847 53.8028 47.2847C54.5898 47.2847 55.3768 47.1204 56.2699 46.7885C60.3282 45.2829 63.651 40.8479 63.651 37.3131Z" fill="#FFBC85"/>
<path fill-rule="evenodd" clip-rule="evenodd" d="M63.6513 31.2424C63.6513 24.0117 52.01 20.405 48.3657 25.1375C43.6059 25.5585 43.9549 31.8926 43.9549 32.7275L43.9514 34.7774V35.4994C47.3152 33.0013 46.1997 33.6275 48.6018 32.1424C52.2701 29.8771 55.3874 34.7774 61.2046 34.7774H63.6512V31.2424H63.6513Z" fill="#375E7D"/>
<path fill-rule="evenodd" clip-rule="evenodd" d="M58.6102 45.5567C60.499 44.2495 62.0526 42.3674 62.9149 40.4374C63.3872 39.3834 63.6506 38.3123 63.6506 37.3131V34.7774C62.6583 33.9288 61.577 33.5456 60.5059 34.7535V37.3131C60.5059 40.1397 58.3844 43.5412 55.4553 45.5636C54.723 46.0701 53.9393 46.4875 53.125 46.7887C52.8136 46.905 52.5194 46.9974 52.2285 47.0727C52.7726 47.2164 53.2859 47.2849 53.8026 47.2849C54.5896 47.2849 55.3766 47.1206 56.2697 46.7887C57.0839 46.4875 57.8745 46.0632 58.6102 45.5567Z" fill="#F5A96C"/>
<path fill-rule="evenodd" clip-rule="evenodd" d="M60.5054 34.7535C60.7346 34.7706 60.9674 34.7774 61.2035 34.7774H63.6501V31.2424C63.6501 25.6987 56.8098 22.2871 51.9746 23.1289C56.1767 23.7723 60.5054 26.835 60.5054 31.2424V34.7535Z" fill="#2B4D66"/>
<path fill-rule="evenodd" clip-rule="evenodd" d="M26.0201 65.1372H79.98C81.6396 65.1372 82.9982 66.4958 82.9982 68.1554V79.9818C82.9982 81.6414 81.6398 83 79.98 83H26.0201C24.3605 83 23.002 81.6414 23.002 79.9818V68.1554C23.0021 66.4958 24.3605 65.1372 26.0201 65.1372Z" fill="#506CE1"/>
<path fill-rule="evenodd" clip-rule="evenodd" d="M82.9985 79.9818V68.1554C82.9985 66.4958 81.64 65.1372 79.9803 65.1372H75.4668C77.1264 65.1372 78.485 66.4958 78.485 68.1554V70.3968V79.9818C78.485 81.6414 77.1265 83 75.4668 83H79.9803C81.64 83 82.9985 81.6414 82.9985 79.9818Z" fill="#3C5CE0"/>
<path d="M29.2957 78.1737C28.1811 78.1737 27.0934 77.7066 26.3862 76.9241C26.0508 76.5531 26.0796 75.9807 26.4506 75.6454C26.8215 75.3101 27.3941 75.3389 27.7294 75.7098C28.0991 76.1187 28.6846 76.3628 29.2956 76.3628C29.8561 76.3628 30.263 76.0273 30.3183 75.7164C30.392 75.3039 29.7414 75.03 29.5403 74.9558C28.5404 74.5866 27.6522 74.1897 27.6149 74.1729C27.5718 74.1536 27.5303 74.131 27.4908 74.1053C26.7785 73.6412 26.412 72.8275 26.5343 71.9813C26.6641 71.0832 27.32 70.3534 28.2461 70.0768C30.0499 69.532 31.5367 70.7564 31.5991 70.8087C31.9821 71.1303 32.0318 71.7014 31.7102 72.0843C31.3902 72.4655 30.823 72.5166 30.44 72.2C30.4161 72.181 29.6172 71.5534 28.7672 71.811C28.4099 71.9177 28.3402 72.1466 28.3266 72.2402C28.3154 72.3168 28.3174 72.4533 28.4373 72.5564C28.675 72.6606 29.3953 72.9716 30.1672 73.2569C31.8478 73.8762 32.2683 75.0978 32.1012 76.0343C31.8802 77.274 30.7002 78.1737 29.2957 78.1737Z" fill="white"/>
<path d="M36.9661 78.1736C36.3524 78.1736 35.7889 78.0111 35.2916 77.6903C34.3484 77.092 33.8672 76.274 33.8672 75.2629V70.8417C33.8672 70.3415 34.2725 69.9363 34.7726 69.9363C35.2727 69.9363 35.678 70.3416 35.678 70.8417V75.2629C35.678 75.5891 35.7765 75.8535 36.2671 76.1648C36.4755 76.2992 36.7023 76.3627 36.966 76.3627C37.2114 76.3627 37.4245 76.3151 37.618 76.2173C38.2479 75.8995 38.3327 75.5548 38.3327 75.2595V70.8417C38.3327 70.3415 38.7381 69.9363 39.2381 69.9363C39.7382 69.9363 40.1435 70.3416 40.1435 70.8417V75.2595C40.1435 76.0403 39.847 77.1208 38.4346 77.8335C37.989 78.059 37.4946 78.1736 36.9661 78.1736Z" fill="white"/>
<path d="M78.9423 69.9602H75.3937C74.8935 69.9602 74.4883 70.3656 74.4883 70.8656C74.4883 71.3658 74.8936 71.771 75.3937 71.771H76.254V77.292C76.254 77.7922 76.6593 78.1974 77.1593 78.1974C77.6594 78.1974 78.0647 77.7921 78.0647 77.292V71.7711H78.9421C79.4423 71.7711 79.8475 71.3658 79.8475 70.8657C79.8478 70.3656 79.4424 69.9602 78.9423 69.9602Z" fill="white"/>
<path d="M72.6355 72.5116C72.6355 71.0915 71.4373 69.9362 69.9644 69.9362H68.257C67.7637 69.9362 67.3516 70.3487 67.3516 70.8415V77.2681C67.3516 77.7683 67.7569 78.1735 68.257 78.1735C68.7571 78.1735 69.1623 77.7682 69.1623 77.2681V75.7221L71.0506 77.8665C71.2295 78.0698 71.4794 78.1736 71.7305 78.1736C71.9431 78.1736 72.1565 78.0992 72.3285 77.9477C72.7039 77.6172 72.7402 77.0451 72.4097 76.6699L70.879 74.9314C71.9028 74.5706 72.6355 73.6221 72.6355 72.5116ZM69.9645 71.7471C70.4308 71.7471 70.8248 72.0972 70.8248 72.5116C70.8248 72.926 70.4308 73.2761 69.9645 73.2761C69.777 73.2761 69.472 73.2772 69.1716 73.2785C69.1703 72.9869 69.1681 72.0539 69.1668 71.7471H69.9645Z" fill="white"/>
<path d="M52.5154 69.9362H50.7257C50.2323 69.9362 49.8203 70.3487 49.8203 70.8415V77.2681C49.8203 77.7683 50.2257 78.1735 50.7257 78.1735C51.2259 78.1735 51.6311 77.7681 51.6311 77.2681V75.3769C51.962 75.3755 52.3075 75.3744 52.5153 75.3744C54.0334 75.3744 55.2685 74.1547 55.2685 72.6553C55.2685 71.1558 54.0336 69.9362 52.5154 69.9362ZM52.5154 73.5636C52.309 73.5636 51.9675 73.5647 51.6385 73.5662C51.6364 73.2253 51.6346 72.8684 51.6346 72.6553C51.6346 72.4743 51.6339 72.1053 51.6332 71.7471H52.5154C53.0262 71.7471 53.4577 72.163 53.4577 72.6553C53.4577 73.1476 53.0262 73.5636 52.5154 73.5636Z" fill="white"/>
<path d="M45.2029 69.9362H43.4132C42.9198 69.9362 42.5078 70.3487 42.5078 70.8415V77.2681C42.5078 77.7683 42.9132 78.1735 43.4132 78.1735C43.9134 78.1735 44.3186 77.7681 44.3186 77.2681V75.3769C44.6499 75.3755 44.9954 75.3744 45.2028 75.3744C46.7209 75.3744 47.956 74.1547 47.956 72.6553C47.956 71.1558 46.7211 69.9362 45.2029 69.9362ZM45.2029 73.5636C44.9965 73.5636 44.6545 73.5647 44.3247 73.5662C44.3233 73.2251 44.3221 72.8684 44.3221 72.6553C44.3221 72.4743 44.3214 72.1053 44.3207 71.7471H45.2029C45.7137 71.7471 46.1452 72.163 46.1452 72.6553C46.1452 73.1476 45.7137 73.5636 45.2029 73.5636Z" fill="white"/>
<path d="M60.9995 78.1736C58.7286 78.1736 56.8809 76.3259 56.8809 74.0549C56.8809 71.7839 58.7286 69.9362 60.9995 69.9362C63.2705 69.9362 65.1181 71.7839 65.1181 74.0549C65.118 76.3259 63.2705 78.1736 60.9995 78.1736ZM60.9995 71.7471C59.727 71.7471 58.6918 72.7824 58.6918 74.0549C58.6918 75.3275 59.727 76.3627 60.9995 76.3627C62.2719 76.3627 63.3072 75.3275 63.3072 74.0549C63.3072 72.7824 62.2719 71.7471 60.9995 71.7471Z" fill="white"/>
<path d="M66.7118 38.5686V41.4986C66.7118 43.6402 64.9697 45.3847 62.8293 45.3847H54.4523C53.9525 45.3847 53.5469 44.9791 53.5469 44.4793C53.5469 43.9783 53.9525 43.5739 54.4523 43.5739H62.8293C63.9713 43.5739 64.9009 42.6419 64.9009 41.4986V38.7027H65.9404C66.2109 38.7027 66.4704 38.6556 66.7118 38.5686Z" fill="#375E7D"/>
</g>
</g>
<defs>
<filter id="filter0_d_4647_133184" x="0" y="0" width="106" height="106" filterUnits="userSpaceOnUse" color-interpolation-filters="sRGB">
<feFlood flood-opacity="0" result="BackgroundImageFix"/>
<feColorMatrix in="SourceAlpha" type="matrix" values="0 0 0 0 0 0 0 0 0 0 0 0 0 0 0 0 0 0 127 0" result="hardAlpha"/>
<feOffset/>
<feGaussianBlur stdDeviation="10"/>
<feColorMatrix type="matrix" values="0 0 0 0 0 0 0 0 0 0 0 0 0 0 0 0 0 0 0.1 0"/>
<feBlend mode="normal" in2="BackgroundImageFix" result="effect1_dropShadow_4647_133184"/>
<feBlend mode="normal" in="SourceGraphic" in2="effect1_dropShadow_4647_133184" result="shape"/>
</filter>
<clipPath id="clip0_4647_133184">
<rect width="60" height="60" fill="white" transform="translate(23 23)"/>
</clipPath>
</defs>
</svg>
