<svg xmlns="http://www.w3.org/2000/svg" width="16" height="17" viewBox="0 0 16 17" fill="none">
<rect y="0.5" width="16" height="16" rx="8" fill="#3B56A4"/>
<path d="M12.0002 9.16536H8.66683V12.4987C8.66683 12.6755 8.59659 12.8451 8.47157 12.9701C8.34654 13.0951 8.17697 13.1654 8.00016 13.1654C7.82335 13.1654 7.65378 13.0951 7.52876 12.9701C7.40373 12.8451 7.3335 12.6755 7.3335 12.4987V9.16536H4.00016C3.82335 9.16536 3.65378 9.09513 3.52876 8.9701C3.40373 8.84508 3.3335 8.67551 3.3335 8.4987C3.3335 8.32189 3.40373 8.15232 3.52876 8.02729C3.65378 7.90227 3.82335 7.83203 4.00016 7.83203H7.3335V4.4987C7.3335 4.32189 7.40373 4.15232 7.52876 4.02729C7.65378 3.90227 7.82335 3.83203 8.00016 3.83203C8.17697 3.83203 8.34654 3.90227 8.47157 4.02729C8.59659 4.15232 8.66683 4.32189 8.66683 4.4987V7.83203H12.0002C12.177 7.83203 12.3465 7.90227 12.4716 8.02729C12.5966 8.15232 12.6668 8.32189 12.6668 8.4987C12.6668 8.67551 12.5966 8.84508 12.4716 8.9701C12.3465 9.09513 12.177 9.16536 12.0002 9.16536Z" fill="white"/>
</svg>