<svg width="16" height="16" viewBox="0 0 16 16" fill="none" xmlns="http://www.w3.org/2000/svg">
<path d="M14.4416 5.84778C14.5434 5.92707 14.62 6.03417 14.6621 6.15611C14.6945 6.27803 14.6917 6.40664 14.6539 6.52701C14.6162 6.64738 14.545 6.75457 14.4488 6.83611L11.6954 9.50278L12.3621 13.2894C12.3859 13.4144 12.3734 13.5436 12.3262 13.6617C12.2789 13.7799 12.1989 13.882 12.0954 13.9561C11.981 14.0389 11.8433 14.0833 11.7021 14.0828C11.5947 14.0831 11.489 14.0556 11.3954 14.0028L7.99543 12.2161L4.58209 13.9961C4.47261 14.0542 4.34911 14.0805 4.22546 14.0723C4.10181 14.0641 3.98291 14.0215 3.88209 13.9494C3.77866 13.8754 3.69859 13.7732 3.65134 13.6551C3.60409 13.537 3.59163 13.4078 3.61543 13.2828L4.28209 9.49611L1.52876 6.82945C1.44307 6.74393 1.38228 6.63669 1.35291 6.51924C1.32355 6.40179 1.32672 6.27856 1.36209 6.16278C1.40073 6.0443 1.47181 5.93902 1.56726 5.85889C1.66271 5.77876 1.77871 5.72698 1.90209 5.70945L5.69543 5.14945L7.39543 1.70945C7.45002 1.59673 7.53525 1.50168 7.64137 1.43516C7.74748 1.36865 7.87019 1.33337 7.99543 1.33337C8.12067 1.33337 8.24337 1.36865 8.34949 1.43516C8.4556 1.50168 8.54084 1.59673 8.59543 1.70945L10.2954 5.15611L14.0888 5.70945C14.2173 5.72044 14.3399 5.7685 14.4416 5.84778Z" fill="#FCAF17"/>
</svg>
