<svg width="24" height="24" viewBox="0 0 24 24" fill="none" xmlns="http://www.w3.org/2000/svg">
<path opacity="0.7" d="M4 7C4 5.89543 4.89543 5 6 5H18C19.1046 5 20 5.89543 20 7H4Z" fill="#53677F"/>
<path opacity="0.4" d="M6 4C6 2.89543 6.89543 2 8 2H16C17.1046 2 18 2.89543 18 4H6Z" fill="#53677F"/>
<path fill-rule="evenodd" clip-rule="evenodd" d="M2 10C2 8.89543 2.89543 8 4 8H20C21.1046 8 22 8.89543 22 10V20C22 21.1046 21.1046 22 20 22H4C2.89543 22 2 21.1046 2 20V10ZM9 15C9 14.4477 9.44772 14 10 14H11V13C11 12.4477 11.4477 12 12 12C12.5523 12 13 12.4477 13 13V14H14C14.5523 14 15 14.4477 15 15C15 15.5523 14.5523 16 14 16H13V17C13 17.5523 12.5523 18 12 18C11.4477 18 11 17.5523 11 17V16H10C9.44772 16 9 15.5523 9 15Z" fill="#53677F"/>
</svg>
