<svg width="24" height="24" viewBox="0 0 24 24" fill="none" xmlns="http://www.w3.org/2000/svg">
<path fill-rule="evenodd" clip-rule="evenodd" d="M4 4H7V6H4V19H18.002L18.0011 13H20V19C20 20.103 19.103 21 18 21H4C2.897 21 2 20.103 2 19V6C2 4.897 2.897 4 4 4Z" fill="white"/>
<path d="M15.9051 5.0618V2L19.2878 5.32993L22 7.99981L19.2397 10.2643L15.9051 13V10.004C10.051 9.56962 8 12.9045 8 12.9045C8 10.8267 8.17391 8.67046 9.83327 7.03769C11.7621 5.13821 14.5555 5.00379 15.9051 5.0618Z" fill="white"/>
</svg>
