<svg width="24" height="24" viewBox="0 0 24 24" fill="none" xmlns="http://www.w3.org/2000/svg">
<path fill-rule="evenodd" clip-rule="evenodd" d="M10.3333 9.50559C10.8266 9.17595 11.4067 9 12 9C12.7956 9 13.5587 9.31607 14.1213 9.87868C14.6839 10.4413 15 11.2043 15 12C15 12.5933 14.8241 13.1734 14.4944 13.6667C14.1648 14.1601 13.6962 14.5446 13.1481 14.7716C12.5999 14.9987 11.9967 15.0581 11.4147 14.9424C10.8328 14.8266 10.2982 14.5409 9.87868 14.1213C9.45912 13.7018 9.1734 13.1672 9.05764 12.5853C8.94189 12.0033 9.0013 11.4001 9.22836 10.8519C9.45542 10.3038 9.83994 9.83524 10.3333 9.50559ZM11.4444 12.8315C11.6089 12.9414 11.8022 13 12 13C12.2652 13 12.5196 12.8946 12.7071 12.7071C12.8946 12.5196 13 12.2652 13 12C13 11.8022 12.9414 11.6089 12.8315 11.4444C12.7216 11.28 12.5654 11.1518 12.3827 11.0761C12.2 11.0004 11.9989 10.9806 11.8049 11.0192C11.6109 11.0578 11.4327 11.153 11.2929 11.2929C11.153 11.4327 11.0578 11.6109 11.0192 11.8049C10.9806 11.9989 11.0004 12.2 11.0761 12.3827C11.1518 12.5654 11.28 12.7216 11.4444 12.8315Z" fill="#3B56A4"/>
<path d="M5.16853 12.5556C5.05865 12.3911 5 12.1978 5 12C5 11.7348 5.10536 11.4804 5.29289 11.2929C5.48043 11.1054 5.73478 11 6 11C6.19778 11 6.39112 11.0586 6.55557 11.1685C6.72002 11.2784 6.84819 11.4346 6.92388 11.6173C6.99957 11.8 7.01937 12.0011 6.98079 12.1951C6.9422 12.3891 6.84696 12.5673 6.70711 12.7071C6.56725 12.847 6.38907 12.9422 6.19509 12.9808C6.00111 13.0194 5.80004 12.9996 5.61732 12.9239C5.43459 12.8482 5.27841 12.72 5.16853 12.5556Z" fill="#3B56A4"/>
<path d="M18.8315 11.4444C18.9414 11.6089 19 11.8022 19 12C19 12.2652 18.8946 12.5196 18.7071 12.7071C18.5196 12.8946 18.2652 13 18 13C17.8022 13 17.6089 12.9414 17.4444 12.8315C17.28 12.7216 17.1518 12.5654 17.0761 12.3827C17.0004 12.2 16.9806 11.9989 17.0192 11.8049C17.0578 11.6109 17.153 11.4327 17.2929 11.2929C17.4327 11.153 17.6109 11.0578 17.8049 11.0192C17.9989 10.9806 18.2 11.0004 18.3827 11.0761C18.5654 11.1518 18.7216 11.28 18.8315 11.4444Z" fill="#3B56A4"/>
<path d="M20 5C20.7956 5 21.5587 5.31607 22.1213 5.87868C22.6839 6.44129 23 7.20435 23 8V16C23 16.7956 22.6839 17.5587 22.1213 18.1213C21.5587 18.6839 20.7956 19 20 19H16C15.4477 19 15 18.5523 15 18C15 17.4477 15.4477 17 16 17H20C20.2652 17 20.5196 16.8946 20.7071 16.7071C20.8946 16.5196 21 16.2652 21 16V8C21 7.73478 20.8946 7.48043 20.7071 7.29289C20.5196 7.10536 20.2652 7 20 7C19.7348 7 19.4804 6.89464 19.2929 6.70711C19.1054 6.51957 19 6.26522 19 6C19 5.73478 19.1054 5.48043 19.2929 5.29289C19.4804 5.10536 19.7348 5 20 5Z" fill="#3B56A4"/>
<path d="M5 18C5 17.4477 4.55228 17 4 17C3.73478 17 3.48043 16.8946 3.29289 16.7071C3.10536 16.5196 3 16.2652 3 16V8C3 7.73478 3.10536 7.48043 3.29289 7.29289C3.48043 7.10536 3.73478 7 4 7H8C8.26522 7 8.51957 6.89464 8.70711 6.70711C8.89464 6.51957 9 6.26522 9 6C9 5.73478 8.89464 5.48043 8.70711 5.29289C8.51957 5.10536 8.26522 5 8 5H4C3.20435 5 2.44129 5.31607 1.87868 5.87868C1.31607 6.44129 1 7.20435 1 8V16C1 16.7956 1.31607 17.5587 1.87868 18.1213C2.44129 18.6839 3.20435 19 4 19C4.55228 19 5 18.5523 5 18Z" fill="#3B56A4"/>
<path d="M18 6H13" stroke="#3B56A4" stroke-width="1.5" stroke-linecap="round"/>
<path d="M6 18H11" stroke="#3B56A4" stroke-width="1.5" stroke-linecap="round"/>
<path d="M15 8L13 6L15 4" stroke="#3B56A4" stroke-width="1.5" stroke-linecap="round" stroke-linejoin="round"/>
<path d="M9 20L11 18L9 16" stroke="#3B56A4" stroke-width="1.5" stroke-linecap="round" stroke-linejoin="round"/>
</svg>
