<svg width="12" height="12" viewBox="0 0 12 12" fill="none" xmlns="http://www.w3.org/2000/svg">
<path d="M3.69868 6.52929L5.3001 8.06317V1.66755C5.3001 1.49068 5.37377 1.32105 5.50492 1.19598C5.63606 1.07091 5.81394 1.00065 5.9994 1.00065C6.18487 1.00065 6.36274 1.07091 6.49389 1.19598C6.62503 1.32105 6.69871 1.49068 6.69871 1.66755V8.06317L8.30013 6.52929C8.36514 6.46678 8.44248 6.41717 8.5277 6.38331C8.61292 6.34945 8.70432 6.33202 8.79664 6.33202C8.88895 6.33202 8.98036 6.34945 9.06557 6.38331C9.15079 6.41717 9.22814 6.46678 9.29314 6.52929C9.35869 6.59128 9.41072 6.66504 9.44622 6.74631C9.48172 6.82758 9.5 6.91475 9.5 7.00279C9.5 7.09083 9.48172 7.178 9.44622 7.25926C9.41072 7.34053 9.35869 7.41429 9.29314 7.47629L6.49591 10.1439C6.42941 10.2046 6.35098 10.2522 6.26514 10.284C6.09489 10.3507 5.90392 10.3507 5.73367 10.284C5.64783 10.2522 5.5694 10.2046 5.50289 10.1439L2.70566 7.47629C2.64046 7.41411 2.58874 7.34029 2.55345 7.25905C2.51816 7.1778 2.5 7.09073 2.5 7.00279C2.5 6.91485 2.51816 6.82778 2.55345 6.74653C2.58874 6.66529 2.64046 6.59147 2.70566 6.52929C2.77086 6.46711 2.84827 6.41778 2.93346 6.38413C3.01865 6.35048 3.10996 6.33316 3.20217 6.33316C3.29438 6.33316 3.38569 6.35048 3.47088 6.38413C3.55607 6.41778 3.63348 6.46711 3.69868 6.52929Z" fill="#E04036"/>
</svg>
