<svg width="16" height="16" viewBox="0 0 16 16" fill="none" xmlns="http://www.w3.org/2000/svg">
<path d="M8.00065 1.33325C4.32465 1.33325 1.33398 4.32392 1.33398 7.99992C1.33398 11.6759 4.32465 14.6666 8.00065 14.6666C11.6767 14.6666 14.6673 11.6759 14.6673 7.99992C14.6673 4.32392 11.6767 1.33325 8.00065 1.33325ZM8.00065 13.3333C5.05998 13.3333 2.66732 10.9406 2.66732 7.99992C2.66732 5.05925 5.05998 2.66659 8.00065 2.66659C10.9413 2.66659 13.334 5.05925 13.334 7.99992C13.334 10.9406 10.9413 13.3333 8.00065 13.3333Z" fill="#E04036"/>
<path d="M7.33398 7.33341H8.66732V11.3334H7.33398V7.33341ZM7.33398 4.66675H8.66732V6.00008H7.33398V4.66675Z" fill="#E04036"/>
</svg>
