<svg width="17" height="16" viewBox="0 0 17 16" fill="none" xmlns="http://www.w3.org/2000/svg">
<path fill-rule="evenodd" clip-rule="evenodd" d="M5.33831 4.45392C6.23062 3.55685 7.45832 3 8.83605 3C10.8004 3 12.4986 4.13231 13.3161 5.77751C13.4389 6.02481 13.3381 6.32489 13.0908 6.44777C12.8435 6.57065 12.5434 6.46978 12.4205 6.22249C11.7655 4.90419 10.4063 4 8.83605 4C7.57621 4 6.47041 4.58306 5.74422 5.5H6.53331C6.80945 5.5 7.03331 5.72386 7.03331 6C7.03331 6.27614 6.80945 6.5 6.53331 6.5H4.33831V4C4.33831 3.72386 4.56216 3.5 4.83831 3.5C5.11445 3.5 5.33831 3.72386 5.33831 4V4.45392ZM4.61582 9.55222C4.86312 9.42935 5.1632 9.53021 5.28608 9.77751C5.94111 11.0958 7.30059 12 8.87055 12C10.1304 12 11.2362 11.4169 11.9624 10.5H11.1733C10.8972 10.5 10.6733 10.2761 10.6733 10C10.6733 9.72385 10.8972 9.5 11.1733 9.5H13.3683V12C13.3683 12.2761 13.1444 12.5 12.8683 12.5C12.5922 12.5 12.3683 12.2761 12.3683 12V11.5461C11.476 12.4431 10.2483 13 8.87055 13C6.90652 13 5.20801 11.8677 4.39054 10.2225C4.26766 9.97519 4.36852 9.6751 4.61582 9.55222Z"/>
</svg>
