<svg width="16" height="16" viewBox="0 0 16 16" fill="none" xmlns="http://www.w3.org/2000/svg">
<path d="M14.6621 6.15611C14.62 6.03417 14.5434 5.92707 14.4416 5.84778C14.3399 5.7685 14.2173 5.72044 14.0888 5.70945L10.2954 5.15611L8.59543 1.70945C8.54084 1.59673 8.4556 1.50168 8.34949 1.43516C8.24337 1.36865 8.12067 1.33337 7.99543 1.33337C7.87019 1.33337 7.74748 1.36865 7.64137 1.43516C7.53525 1.50168 7.45002 1.59673 7.39543 1.70945L5.69543 5.14945L1.90209 5.70945C1.77871 5.72698 1.66271 5.77876 1.56726 5.85889C1.47181 5.93902 1.40073 6.0443 1.36209 6.16278C1.32672 6.27856 1.32355 6.40179 1.35291 6.51924C1.38228 6.63669 1.44307 6.74393 1.52876 6.82945L4.28209 9.49611L3.61543 13.2828C3.59163 13.4078 3.60409 13.537 3.65134 13.6551C3.69859 13.7732 3.77866 13.8754 3.88209 13.9494C3.98291 14.0215 4.10181 14.0641 4.22546 14.0723C4.34911 14.0805 4.47261 14.0542 4.58209 13.9961L7.99543 12.2161L11.3954 14.0028C11.489 14.0556 11.5947 14.0831 11.7021 14.0828C11.8433 14.0833 11.981 14.0389 12.0954 13.9561C12.1989 13.882 12.2789 13.7799 12.3262 13.6617C12.3734 13.5436 12.3859 13.4144 12.3621 13.2894L11.6954 9.50278L14.4488 6.83611C14.545 6.75457 14.6162 6.64738 14.6539 6.52701C14.6917 6.40664 14.6945 6.27803 14.6621 6.15611ZM10.5621 8.82278C10.4839 8.8984 10.4254 8.99201 10.3917 9.09543C10.358 9.19885 10.3501 9.30895 10.3688 9.41611L10.8488 12.2094L8.34209 10.8761C8.24564 10.8248 8.13804 10.7979 8.02876 10.7979C7.91948 10.7979 7.81188 10.8248 7.71543 10.8761L5.20876 12.2094L5.68876 9.41611C5.70739 9.30895 5.6995 9.19885 5.6658 9.09543C5.63211 8.99201 5.57361 8.8984 5.49543 8.82278L3.49543 6.82278L6.30209 6.41611C6.41009 6.40109 6.51276 6.35981 6.60109 6.29588C6.68943 6.23196 6.76073 6.14734 6.80876 6.04945L7.99543 3.50945L9.24876 6.05611C9.29679 6.15401 9.36809 6.23862 9.45643 6.30255C9.54476 6.36648 9.64743 6.40776 9.75543 6.42278L12.5621 6.82945L10.5621 8.82278Z" fill="#8691B3"/>
</svg>
