<svg width="12" height="12" viewBox="0 0 12 12" fill="none" xmlns="http://www.w3.org/2000/svg">
<path d="M3.69868 5.07646L5.3001 3.43302V10.2855C5.3001 10.475 5.37377 10.6567 5.50492 10.7907C5.63606 10.9247 5.81394 11 5.9994 11C6.18487 11 6.36274 10.9247 6.49389 10.7907C6.62503 10.6567 6.69871 10.475 6.69871 10.2855V3.43302L8.30013 5.07646C8.36514 5.14343 8.44248 5.19659 8.5277 5.23287C8.61292 5.26914 8.70432 5.28782 8.79664 5.28782C8.88895 5.28782 8.98036 5.26914 9.06557 5.23287C9.15079 5.19659 9.22814 5.14343 9.29314 5.07646C9.35869 5.01004 9.41072 4.93101 9.44622 4.84393C9.48172 4.75686 9.5 4.66347 9.5 4.56914C9.5 4.47481 9.48172 4.38142 9.44622 4.29434C9.41072 4.20727 9.35869 4.12824 9.29314 4.06181L6.49591 1.20365C6.42941 1.1386 6.35098 1.08761 6.26514 1.0536C6.09489 0.982133 5.90392 0.982133 5.73367 1.0536C5.64783 1.08761 5.5694 1.1386 5.50289 1.20365L2.70566 4.06181C2.64046 4.12844 2.58874 4.20753 2.55345 4.29458C2.51816 4.38162 2.5 4.47492 2.5 4.56914C2.5 4.66336 2.51816 4.75665 2.55345 4.8437C2.58874 4.93075 2.64046 5.00984 2.70566 5.07646C2.77086 5.14308 2.84827 5.19593 2.93346 5.23199C3.01865 5.26804 3.10996 5.2866 3.20217 5.2866C3.29438 5.2866 3.38569 5.26804 3.47088 5.23199C3.55607 5.19593 3.63348 5.14308 3.69868 5.07646Z" fill="#32864E"/>
</svg>
