<svg width="24" height="24" viewBox="0 0 24 24" fill="none" xmlns="http://www.w3.org/2000/svg">
<path d="M6 17.9983H8.5L15.8733 10.625L13.3733 8.125L6 15.4983V17.9983ZM7.33333 16.0517L13.3733 10.0117L13.9867 10.625L7.94667 16.665H7.33333V16.0517Z" fill="#506CE1"/>
<path d="M16.2469 6.19496C16.1852 6.13316 16.112 6.08413 16.0313 6.05067C15.9507 6.01722 15.8642 6 15.7769 6C15.6896 6 15.6031 6.01722 15.5225 6.05067C15.4418 6.08413 15.3686 6.13316 15.3069 6.19496L14.0869 7.41496L16.5869 9.91496L17.8069 8.69496C17.8687 8.63329 17.9177 8.56003 17.9512 8.47938C17.9847 8.39873 18.0019 8.31228 18.0019 8.22496C18.0019 8.13765 17.9847 8.0512 17.9512 7.97055C17.9177 7.8899 17.8687 7.81664 17.8069 7.75496L16.2469 6.19496Z" fill="#6EC2D2"/>
</svg>
