<svg width="20" height="20" viewBox="0 0 20 20" fill="none" xmlns="http://www.w3.org/2000/svg">
<path opacity="0.7" d="M2 5C2 3.89543 2.89543 3 4 3H16C17.1046 3 18 3.89543 18 5H2Z" fill="white"/>
<path opacity="0.4" d="M4 2C4 0.895431 4.89543 0 6 0H14C15.1046 0 16 0.895431 16 2H4Z" fill="white"/>
<path fill-rule="evenodd" clip-rule="evenodd" d="M0 8C0 6.89543 0.895431 6 2 6H18C19.1046 6 20 6.89543 20 8V18C20 19.1046 19.1046 20 18 20H2C0.895431 20 0 19.1046 0 18V8ZM7 13C7 12.4477 7.44772 12 8 12H9V11C9 10.4477 9.44772 10 10 10C10.5523 10 11 10.4477 11 11V12H12C12.5523 12 13 12.4477 13 13C13 13.5523 12.5523 14 12 14H11V15C11 15.5523 10.5523 16 10 16C9.44771 16 9 15.5523 9 15V14H8C7.44772 14 7 13.5523 7 13Z" fill="white"/>
</svg>
