<svg width="18" height="18" viewBox="0 0 18 18" fill="none" xmlns="http://www.w3.org/2000/svg">
<path d="M7.07881 8.16882L8.52009 6.68972V12.8569C8.52009 13.0275 8.5864 13.191 8.70443 13.3116C8.82246 13.4322 8.98254 13.5 9.14946 13.5C9.31638 13.5 9.47647 13.4322 9.5945 13.3116C9.71253 13.191 9.77884 13.0275 9.77884 12.8569V6.68972L11.2201 8.16882C11.2786 8.22909 11.3482 8.27693 11.4249 8.30958C11.5016 8.34223 11.5839 8.35904 11.667 8.35904C11.7501 8.35904 11.8323 8.34223 11.909 8.30958C11.9857 8.27693 12.0553 8.22909 12.1138 8.16882C12.1728 8.10903 12.2196 8.03791 12.2516 7.95954C12.2835 7.88117 12.3 7.79712 12.3 7.71222C12.3 7.62733 12.2835 7.54327 12.2516 7.46491C12.2196 7.38654 12.1728 7.31542 12.1138 7.25563L9.59632 4.68329C9.53646 4.62474 9.46588 4.57885 9.38863 4.54824C9.2354 4.48392 9.06353 4.48392 8.9103 4.54824C8.83304 4.57885 8.76246 4.62474 8.70261 4.68329L6.18509 7.25563C6.12641 7.31559 6.07986 7.38678 6.0481 7.46512C6.01635 7.54346 6 7.62743 6 7.71222C6 7.79702 6.01635 7.88099 6.0481 7.95933C6.07986 8.03767 6.12641 8.10886 6.18509 8.16882C6.24378 8.22878 6.31344 8.27634 6.39011 8.30879C6.46679 8.34124 6.54896 8.35794 6.63195 8.35794C6.71494 8.35794 6.79712 8.34124 6.87379 8.30879C6.95046 8.27634 7.02013 8.22878 7.07881 8.16882Z" fill="#B413EC"/>
</svg>
