<svg width="34" height="34" viewBox="0 0 34 34" fill="none" xmlns="http://www.w3.org/2000/svg">
<path d="M9 8C8.44772 8 8 8.44772 8 9V25C8 25.2652 8.10536 25.5196 8.29289 25.7071C8.48043 25.8946 8.73478 26 9 26H25C25.5523 26 26 25.5523 26 25V25C26 24.4477 25.5523 24 25 24H10V9C10 8.44772 9.55228 8 9 8V8Z" fill="#BECAE5"/>
<path d="M11 13.957C10.9997 13.8028 11.0284 13.6508 11.0838 13.5132C11.1393 13.3756 11.2198 13.2565 11.3189 13.1655L14.22 10.5077C14.5311 10.2243 14.9589 10.2634 15.2311 10.6054L18.1711 14.299L23.7711 9.18855C24.2767 8.71951 25 9.17877 25 9.98003C25.0003 10.1342 24.9716 10.2863 24.9162 10.4239C24.8607 10.5614 24.7802 10.6806 24.6811 10.7715L18.5367 16.3706C18.2256 16.6539 17.7978 16.6149 17.5333 16.2729L14.5933 12.5792L12.2367 14.7485C11.7233 15.2175 11 14.7583 11 13.957ZM25 18.4344C25 17.897 24.65 17.4573 24.2222 17.4573H21.6167C21.4378 17.4573 21.2667 17.5354 21.1344 17.6722L18.1011 20.7209L13.8 15.4932C13.6711 15.3329 13.5011 15.2352 13.3203 15.2173C13.1395 15.1994 12.9595 15.2625 12.8122 15.3955L11.3344 16.7146C11.1244 16.9003 11 17.2032 11 17.5159C11 18.3074 11.7156 18.7764 12.2289 18.3074L13.1778 17.4573L17.51 22.7241C17.79 23.0661 18.2333 23.0954 18.5367 22.7827L21.8889 19.4115H24.2222C24.65 19.4115 25 18.9718 25 18.4344Z" fill="#BECAE5"/>
</svg>
