<svg width="14" height="14" viewBox="0 0 14 14" fill="none" xmlns="http://www.w3.org/2000/svg">
<path d="M11.6668 1.66659H10.3335V0.999919C10.3335 0.823108 10.2633 0.653538 10.1382 0.528514C10.0132 0.40349 9.84364 0.333252 9.66683 0.333252C9.49002 0.333252 9.32045 0.40349 9.19542 0.528514C9.0704 0.653538 9.00016 0.823108 9.00016 0.999919V1.66659H5.00016V0.999919C5.00016 0.823108 4.92992 0.653538 4.8049 0.528514C4.67988 0.40349 4.51031 0.333252 4.3335 0.333252C4.15668 0.333252 3.98712 0.40349 3.86209 0.528514C3.73707 0.653538 3.66683 0.823108 3.66683 0.999919V1.66659H2.3335C1.80306 1.66659 1.29436 1.8773 0.919283 2.25237C0.54421 2.62744 0.333496 3.13615 0.333496 3.66659V11.6666C0.333496 12.197 0.54421 12.7057 0.919283 13.0808C1.29436 13.4559 1.80306 13.6666 2.3335 13.6666H11.6668C12.1973 13.6666 12.706 13.4559 13.081 13.0808C13.4561 12.7057 13.6668 12.197 13.6668 11.6666V3.66659C13.6668 3.13615 13.4561 2.62744 13.081 2.25237C12.706 1.8773 12.1973 1.66659 11.6668 1.66659ZM12.3335 11.6666C12.3335 11.8434 12.2633 12.013 12.1382 12.138C12.0132 12.263 11.8436 12.3333 11.6668 12.3333H2.3335C2.15668 12.3333 1.98712 12.263 1.86209 12.138C1.73707 12.013 1.66683 11.8434 1.66683 11.6666V6.99992H12.3335V11.6666ZM12.3335 5.66659H1.66683V3.66659C1.66683 3.48977 1.73707 3.32021 1.86209 3.19518C1.98712 3.07016 2.15668 2.99992 2.3335 2.99992H3.66683V3.66659C3.66683 3.8434 3.73707 4.01297 3.86209 4.13799C3.98712 4.26301 4.15668 4.33325 4.3335 4.33325C4.51031 4.33325 4.67988 4.26301 4.8049 4.13799C4.92992 4.01297 5.00016 3.8434 5.00016 3.66659V2.99992H9.00016V3.66659C9.00016 3.8434 9.0704 4.01297 9.19542 4.13799C9.32045 4.26301 9.49002 4.33325 9.66683 4.33325C9.84364 4.33325 10.0132 4.26301 10.1382 4.13799C10.2633 4.01297 10.3335 3.8434 10.3335 3.66659V2.99992H11.6668C11.8436 2.99992 12.0132 3.07016 12.1382 3.19518C12.2633 3.32021 12.3335 3.48977 12.3335 3.66659V5.66659Z" fill="#8691B3"/>
</svg>
