<svg width="32" height="32" viewBox="0 0 32 32" fill="none" xmlns="http://www.w3.org/2000/svg">
<path fill-rule="evenodd" clip-rule="evenodd" d="M9.00999 8.90783C10.7946 7.1137 13.25 6 16.0055 6C19.9341 6 23.3306 8.26463 24.9655 11.555C25.2113 12.0496 25.0095 12.6498 24.515 12.8955C24.0204 13.1413 23.4202 12.9396 23.1744 12.445C21.8644 9.80837 19.1459 8 16.0055 8C13.4858 8 11.2742 9.16612 9.82182 11H11.4C11.9523 11 12.4 11.4477 12.4 12C12.4 12.5523 11.9523 13 11.4 13H7.00999V8C7.00999 7.44771 7.4577 7 8.00999 7C8.56227 7 9.00999 7.44771 9.00999 8V8.90783ZM7.56501 19.1044C8.05961 18.8587 8.65978 19.0604 8.90553 19.555C10.2156 22.1916 12.9346 24 16.0745 24C18.5942 24 20.8058 22.8339 22.2581 21H20.68C20.1277 21 19.68 20.5523 19.68 20C19.68 19.4477 20.1277 19 20.68 19H25.07V24C25.07 24.5523 24.6223 25 24.07 25C23.5177 25 23.07 24.5523 23.07 24V23.0922C21.2853 24.8863 18.83 26 16.0745 26C12.1464 26 8.74939 23.7354 7.11444 20.445C6.86869 19.9504 7.07042 19.3502 7.56501 19.1044Z" fill="#3B56A4"/>
</svg>
