<svg width="24" height="24" viewBox="0 0 24 24" fill="none" xmlns="http://www.w3.org/2000/svg">
<path d="M21.337 13.1068C21.7789 12.56 22 11.9134 22 11.1668C22 10.4897 21.7707 9.90387 21.3136 9.40882C20.8556 8.91382 20.3133 8.66645 19.6865 8.66645H16.3479C16.38 8.54496 16.4121 8.4408 16.4442 8.35401C16.476 8.26722 16.5207 8.17163 16.5767 8.06747C16.6328 7.96326 16.6731 7.88509 16.6971 7.8331C16.8417 7.53812 16.9524 7.29491 17.0288 7.10409C17.1051 6.91292 17.181 6.6526 17.2576 6.32273C17.3341 5.99305 17.3721 5.66305 17.3721 5.33318C17.3721 5.12495 17.3697 4.95552 17.3659 4.82541C17.3622 4.6952 17.3417 4.49983 17.3059 4.23937C17.2695 3.97906 17.2212 3.76202 17.1611 3.58849C17.1007 3.41492 17.0042 3.21945 16.8718 3.00259C16.7392 2.78533 16.5786 2.60979 16.3895 2.47517C16.2006 2.34063 15.9596 2.2278 15.6663 2.13673C15.3727 2.04556 15.0415 2 14.6716 2C14.4627 2 14.2821 2.0825 14.1292 2.24746C13.9686 2.42103 13.8317 2.63802 13.7194 2.89834C13.6068 3.15879 13.5284 3.3845 13.4842 3.57554C13.44 3.76649 13.3897 4.03132 13.3337 4.36976C13.2611 4.73452 13.2071 4.99693 13.1707 5.15751C13.1346 5.31809 13.0641 5.52856 12.9597 5.78892C12.8552 6.04946 12.7308 6.25765 12.5861 6.41399C12.321 6.70039 11.9152 7.22126 11.3687 7.97639C10.9748 8.53187 10.5691 9.05702 10.1512 9.55184C9.73333 10.0468 9.42802 10.3028 9.23521 10.3202C9.03447 10.3375 8.86167 10.4265 8.717 10.5871C8.57232 10.7477 8.5 10.9366 8.5 11.1535V19.4998C8.5 19.7255 8.57629 19.9186 8.72899 20.0791C8.8816 20.2399 9.06242 20.3245 9.27135 20.3332C9.55256 20.3419 10.1874 20.5327 11.1758 20.9063C11.7945 21.1316 12.2785 21.3033 12.6281 21.4204C12.9776 21.5374 13.466 21.6633 14.0923 21.7981C14.7192 21.9325 15.2977 22 15.8279 22H17.3828C18.4518 21.9827 19.2429 21.644 19.7574 20.9845C20.2233 20.3854 20.4201 19.5998 20.348 18.6276C20.6613 18.3064 20.8785 17.8986 20.9988 17.4037C21.1352 16.8745 21.1352 16.3667 20.9988 15.8806C21.3684 15.3511 21.5412 14.7565 21.5169 14.0968C21.5179 13.8187 21.4578 13.4889 21.337 13.1068Z" fill="#3B56A4"/>
<path d="M6.83716 9.69995H3.83349C3.60765 9.69995 3.41232 9.78245 3.24741 9.94741C3.0825 10.1123 3 10.3076 3 10.5333V19.6302C3 19.8556 3.0825 20.051 3.24746 20.2161C3.4125 20.3808 3.60783 20.4633 3.83353 20.4633H6.83716C7.06282 20.4633 7.25806 20.3808 7.42306 20.2161C7.58797 20.051 7.67042 19.8556 7.67042 19.6302V10.5333C7.67042 10.3076 7.58792 10.1123 7.42306 9.94741C7.2581 9.78241 7.06286 9.69995 6.83716 9.69995ZM6 18.6783C5.83509 18.8388 5.63981 18.9191 5.4141 18.9191C5.17969 18.9191 4.98217 18.8388 4.82169 18.6783C4.66111 18.5177 4.58084 18.3203 4.58084 18.0858C4.58084 17.8602 4.66106 17.6648 4.82169 17.5C4.98222 17.335 5.17969 17.2524 5.4141 17.2524C5.63981 17.2524 5.83509 17.335 6 17.5C6.16496 17.6648 6.24746 17.8601 6.24746 18.0858C6.24746 18.3203 6.16514 18.5176 6 18.6783Z" fill="#3B56A4"/>
</svg>
