<svg width="18" height="18" viewBox="0 0 18 18" fill="none" xmlns="http://www.w3.org/2000/svg">
<path d="M9 12.6C7.01178 12.6 5.4 10.9882 5.4 9C5.4 7.01178 7.01178 5.4 9 5.4C10.9882 5.4 12.6 7.01178 12.6 9C12.6 10.9882 10.9882 12.6 9 12.6Z" fill="#506CE1"/>
<path fill-rule="evenodd" clip-rule="evenodd" d="M0 9C0 13.9706 4.02944 18 9 18C13.9706 18 18 13.9706 18 9C18 4.02944 13.9706 0 9 0C4.02944 0 0 4.02944 0 9ZM1.8 9C1.8 12.9764 5.02355 16.2 9 16.2C12.9765 16.2 16.2 12.9764 16.2 9C16.2 5.02355 12.9765 1.8 9 1.8C5.02355 1.8 1.8 5.02355 1.8 9Z" fill="#506CE1"/>
</svg>
