<svg width="24" height="24" viewBox="0 0 24 24" fill="none" xmlns="http://www.w3.org/2000/svg">
<path d="M4 3C3.44772 3 3 3.44772 3 4V20C3 20.2652 3.10536 20.5196 3.29289 20.7071C3.48043 20.8946 3.73478 21 4 21H20C20.5523 21 21 20.5523 21 20C21 19.4477 20.5523 19 20 19H5V4C5 3.44772 4.55228 3 4 3Z" fill="#BECAE5"/>
<path d="M15.293 14.707C15.3858 14.7999 15.496 14.8737 15.6173 14.924C15.7386 14.9743 15.8686 15.0002 16 15.0002C16.1313 15.0002 16.2613 14.9743 16.3827 14.924C16.504 14.8737 16.6142 14.7999 16.707 14.707L21 10.414C21.3904 10.0235 21.3904 9.39043 21 8.99997C20.6095 8.6095 19.9764 8.6095 19.586 8.99997L16 12.586L13.707 10.293C13.6142 10.2 13.504 10.1263 13.3827 10.076C13.2613 10.0257 13.1313 9.99977 13 9.99977C12.8686 9.99977 12.7386 10.0257 12.6173 10.076C12.496 10.1263 12.3858 10.2 12.293 10.293L7.99997 14.586C7.6095 14.9764 7.6095 15.6095 7.99997 16C8.39043 16.3904 9.0235 16.3904 9.41397 16L13 12.414L15.293 14.707Z" fill="#BECAE5"/>
</svg>
