<svg width="18" height="18" viewBox="0 0 18 18" fill="none" xmlns="http://www.w3.org/2000/svg">
<path d="M6.96716 15.75C6.34753 15.747 5.73467 15.6208 5.16427 15.3788C4.59387 15.1367 4.07731 14.7836 3.64466 14.34C3.21526 13.933 2.87033 13.4454 2.6296 12.9049C2.38887 12.3645 2.25707 11.7819 2.24174 11.1905C2.22642 10.599 2.32787 10.0104 2.54028 9.45822C2.7527 8.90604 3.07191 8.40117 3.47966 7.97249L8.99966 2.39999C9.29444 2.10575 9.6458 1.8743 10.0325 1.71962C10.4192 1.56493 10.8333 1.49022 11.2497 1.49999C11.6957 1.50151 12.137 1.59182 12.5477 1.76566C12.9585 1.93949 13.3305 2.19337 13.6422 2.51249C14.2624 3.10967 14.6221 3.92738 14.6432 4.78813C14.6642 5.64887 14.345 6.48319 13.7547 7.10999L8.20466 12.6825C8.0269 12.8615 7.81536 13.0033 7.58233 13.0999C7.3493 13.1965 7.09941 13.2458 6.84716 13.245C6.57467 13.2454 6.30486 13.1911 6.05368 13.0855C5.80249 12.9799 5.57501 12.825 5.38466 12.63C5.00421 12.2616 4.78449 11.758 4.77326 11.2286C4.76202 10.6991 4.96018 10.1867 5.32466 9.80249L10.4472 4.65749C10.5929 4.56067 10.768 4.51788 10.942 4.53653C11.116 4.55518 11.278 4.6341 11.4 4.75962C11.522 4.88513 11.5962 5.04935 11.6098 5.22382C11.6234 5.3983 11.5756 5.57205 11.4747 5.71499L6.35216 10.86C6.26674 10.9629 6.22517 11.0953 6.23639 11.2285C6.24761 11.3618 6.31074 11.4853 6.41216 11.5725C6.5177 11.6788 6.65997 11.7405 6.80966 11.745C6.86511 11.7458 6.92017 11.7356 6.97166 11.715C7.02315 11.6944 7.07005 11.6638 7.10966 11.625L12.6522 6.05249C12.9633 5.70688 13.1259 5.25272 13.1048 4.78818C13.0838 4.32365 12.8808 3.88605 12.5397 3.56999C12.2229 3.24107 11.792 3.04609 11.3358 3.02516C10.8796 3.00424 10.4328 3.15896 10.0872 3.45749L4.54466 8.99999C4.27515 9.28947 4.06553 9.62939 3.92788 10.0002C3.79023 10.371 3.72726 10.7653 3.7426 11.1606C3.75793 11.5558 3.85127 11.9441 4.01724 12.3031C4.1832 12.6621 4.41853 12.9848 4.70966 13.2525C5.00162 13.5551 5.35096 13.7966 5.73728 13.9627C6.1236 14.1288 6.53916 14.2163 6.95966 14.22C7.32223 14.2229 7.6818 14.1542 8.01773 14.0178C8.35366 13.8814 8.65932 13.6799 8.91716 13.425L14.4597 7.85249C14.5291 7.78257 14.6116 7.727 14.7025 7.68896C14.7935 7.65093 14.891 7.63118 14.9895 7.63083C15.0881 7.63048 15.1857 7.64954 15.2769 7.68693C15.3681 7.72432 15.451 7.77931 15.5209 7.84874C15.5908 7.91818 15.6464 8.00071 15.6844 8.09162C15.7225 8.18253 15.7422 8.28005 15.7426 8.37859C15.7429 8.47714 15.7239 8.57479 15.6865 8.66597C15.6491 8.75715 15.5941 8.84007 15.5247 8.90999L9.98216 14.4825C9.58864 14.883 9.11946 15.2013 8.60187 15.4188C8.08429 15.6364 7.52862 15.749 6.96716 15.75Z" fill="#3B56A4"/>
</svg>
