<svg width="18" height="18" viewBox="0 0 18 18" fill="none" xmlns="http://www.w3.org/2000/svg">
<path d="M7.15587 9.83118L8.70009 11.3103V5.14309C8.70009 4.97253 8.77114 4.80896 8.8976 4.68836C9.02406 4.56775 9.19558 4.5 9.37442 4.5C9.55327 4.5 9.72479 4.56775 9.85125 4.68836C9.97771 4.80896 10.0488 4.97253 10.0488 5.14309V11.3103L11.593 9.83118C11.6557 9.77091 11.7303 9.72307 11.8124 9.69042C11.8946 9.65777 11.9827 9.64096 12.0718 9.64096C12.1608 9.64096 12.2489 9.65777 12.3311 9.69042C12.4133 9.72307 12.4878 9.77091 12.5505 9.83118C12.6137 9.89097 12.6639 9.96209 12.6981 10.0405C12.7324 10.1188 12.75 10.2029 12.75 10.2878C12.75 10.3727 12.7324 10.4567 12.6981 10.5351C12.6639 10.6135 12.6137 10.6846 12.5505 10.7444L9.8532 13.3167C9.78907 13.3753 9.71345 13.4212 9.63067 13.4518C9.4665 13.5161 9.28235 13.5161 9.11818 13.4518C9.0354 13.4212 8.95978 13.3753 8.89565 13.3167L6.19832 10.7444C6.13544 10.6844 6.08557 10.6132 6.05154 10.5349C6.01751 10.4565 6 10.3726 6 10.2878C6 10.203 6.01751 10.119 6.05154 10.0407C6.08557 9.96233 6.13544 9.89114 6.19832 9.83118C6.26119 9.77122 6.33583 9.72366 6.41798 9.69121C6.50013 9.65876 6.58818 9.64206 6.67709 9.64206C6.76601 9.64206 6.85406 9.65876 6.9362 9.69121C7.01835 9.72366 7.09299 9.77122 7.15587 9.83118Z" fill="#00B4D8"/>
</svg>
