<svg width="87" height="48" viewBox="0 0 87 48" fill="none" xmlns="http://www.w3.org/2000/svg">
<g clip-path="url(#clip0_18404_53795)">
<path d="M0.5 0V47.736C0.5 47.8817 0.618119 48 0.764008 48H86.2942C86.4399 48 86.5582 47.8819 86.5582 47.736V0H0.5Z" fill="#EEEFEE"/>
<path d="M14.5757 21.6641V24.8785C18.6475 27.0303 19.5489 26.953 23.8856 24.8785V21.6641H14.5757Z" fill="#F4BB87"/>
<path d="M34.5027 35.9136V33.3365C34.5028 30.8087 33.0864 28.4938 30.8353 27.3435L23.8856 23.6797L19.2307 25.9756L14.5757 23.6809L7.62604 27.3447C5.37494 28.495 3.95848 30.8099 3.95868 33.3377V35.9148L34.5027 35.9136Z" fill="#575B6D"/>
<path d="M19.7331 35.9136L23.8856 23.6797L19.2307 25.9754L14.5757 23.6797L18.7293 35.9136H19.7331Z" fill="#EEEFEE"/>
<path d="M19.8059 27.6425H18.6567L17.5653 25.7166L20.8949 25.7109L19.8059 27.6425Z" fill="#DA364C"/>
<path d="M19.731 35.9123L20.8973 32.4663L19.8059 27.6406H18.6556L17.5653 32.4663L18.7305 35.9123H19.731Z" fill="#EF5261"/>
<path d="M14.5757 23.6797L19.2307 25.7116L15.5195 27.9601L14.5757 23.6797Z" fill="#DBD8DD"/>
<path d="M23.8856 23.6797L19.2307 25.7116L22.9416 27.9601L23.8856 23.6797Z" fill="#DBD8DD"/>
<path d="M12.8929 28.6653L18.1541 35.9136H18.7281L14.5757 23.6797L11.7082 27.272L13.7377 27.3977L12.8929 28.6653Z" fill="#414451"/>
<path d="M20.3071 35.9136L25.5682 28.6653L24.7234 27.3977L26.7532 27.272L23.8856 23.6797L19.7343 35.9136H20.3071Z" fill="#414451"/>
<path d="M12.7916 14.7789V17.8641C12.6459 17.9513 12.4795 17.9974 12.31 17.9978C11.6312 17.9978 11.0791 17.2371 11.0791 16.3117C11.0791 15.3863 11.6312 14.6406 12.31 14.6406C12.4799 14.6422 12.6465 14.6901 12.7916 14.7789Z" fill="#F4BB87"/>
<path d="M25.665 14.7789V17.8641C25.8107 17.9513 25.9772 17.9974 26.1467 17.9978C26.8255 17.9978 27.3776 17.2371 27.3776 16.3117C27.3776 15.3863 26.8255 14.6406 26.1467 14.6406C25.9768 14.6422 25.8101 14.6901 25.665 14.7789Z" fill="#F4BB87"/>
<path d="M13.8218 10.437C13.4624 10.8068 13.1552 11.224 12.909 11.6771C12.5317 12.6148 12.3362 13.6157 12.3326 14.6264C12.1893 16.2085 12.4115 17.8021 12.9815 19.2848C13.268 20.1199 13.7409 20.8787 14.3645 21.5035C15.0672 22.2273 15.8508 22.8679 16.6995 23.4131C18.239 24.4019 20.2148 24.3988 21.7511 23.4051C22.5951 22.857 23.3776 22.2194 24.0849 21.5035C24.7093 20.881 25.1797 20.1213 25.4587 19.2848C26.0403 17.805 26.2676 16.2096 26.1227 14.6264C26.1191 13.6157 25.9236 12.6148 25.5463 11.6771C25.3787 11.2383 25.1578 10.8217 24.8883 10.437C21.1472 8.89269 17.4419 8.49394 13.8218 10.437Z" fill="#FED19A"/>
<path d="M26.1146 14.1433C26.1146 14.1433 29.7071 7.27772 24.319 5.3843C24.319 5.3843 19.2479 -0.455562 12.9968 6.17378C12.9968 6.17378 9.67985 10.279 12.3352 14.4615C12.3352 14.4615 13.543 10.3954 15.0263 10.1591C17.8052 11.5011 21.0566 11.4424 23.7853 10.0013C24.1586 11.5728 24.9657 13.0079 26.1146 14.1433Z" fill="#414451"/>
<path d="M40.2536 4.25781H81.2658V6.79112H40.2536V4.25781Z" fill="#DBD8DD"/>
<path d="M40.2536 11.5391H81.2658V14.0724H40.2536V11.5391Z" fill="#DBD8DD"/>
<path d="M40.2536 18.8203H81.2658V21.3536H40.2536V18.8203Z" fill="#DBD8DD"/>
<path d="M40.2536 26.1016H81.2658V28.6349H40.2536V26.1016Z" fill="#DBD8DD"/>
<path d="M40.2536 33.3828H81.2658V35.9161H40.2536V33.3828Z" fill="#DBD8DD"/>
<path d="M3.9599 40.6641H81.2658V43.1974H3.9599V40.6641Z" fill="#DBD8DD"/>
</g>
<defs>
<clipPath id="clip0_18404_53795">
<rect width="86" height="48" fill="white" transform="translate(0.5)"/>
</clipPath>
</defs>
</svg>
