<svg xmlns="http://www.w3.org/2000/svg" width="18" height="14" viewBox="0 0 18 14" fill="none">
<path d="M1.5 0.25293H16.5C17.2875 0.25293 18 0.96543 18 1.75293V12.2529C18 13.0404 17.2875 13.7529 16.5 13.7529H1.5C0.7125 13.7529 0 13.0404 0 12.2529V1.75293C0 0.96543 0.7125 0.25293 1.5 0.25293ZM10.5 2.50293V3.25293H16.5V2.50293H10.5ZM10.5 4.00293V4.75293H16.5V4.00293H10.5ZM10.5 5.50293V6.25293H15.75V5.50293H10.5ZM6 8.43543C4.5 8.43543 1.5 9.25293 1.5 10.7529V11.5029H10.5V10.7529C10.5 9.25293 7.5 8.43543 6 8.43543ZM6 2.50293C5.40326 2.50293 4.83097 2.73998 4.40901 3.16194C3.98705 3.5839 3.75 4.15619 3.75 4.75293C3.75 5.34967 3.98705 5.92196 4.40901 6.34392C4.83097 6.76588 5.40326 7.00293 6 7.00293C6.59674 7.00293 7.16903 6.76588 7.59099 6.34392C8.01295 5.92196 8.25 5.34967 8.25 4.75293C8.25 4.15619 8.01295 3.5839 7.59099 3.16194C7.16903 2.73998 6.59674 2.50293 6 2.50293Z" fill="#3B56A4"/>
</svg>