<svg width="19" height="21" viewBox="0 0 19 21" fill="none" xmlns="http://www.w3.org/2000/svg">
<path d="M16.125 0.0100098H3.125C1.919 0.0100098 0.125 0.80901 0.125 3.01001V17.01C0.125 19.211 1.919 20.01 3.125 20.01H18.125V18.01H3.137C2.675 17.998 2.125 17.815 2.125 17.01C2.125 16.909 2.134 16.819 2.149 16.737C2.261 16.162 2.732 16.02 3.136 16.01H17.125C17.143 16.01 17.156 16.001 17.174 16H18.125V2.01001C18.125 0.90701 17.228 0.0100098 16.125 0.0100098ZM16.125 14.01H2.125V3.01001C2.125 2.20401 2.675 2.02201 3.125 2.01001H10.125V9.01001L12.125 8.01001L14.125 9.01001V2.01001H16.125V14.01Z" fill="#BECAE5"/>
</svg>
