<svg width="25" height="24" viewBox="0 0 25 24" fill="none" xmlns="http://www.w3.org/2000/svg">
<path d="M19.25 2.01172H6.25C5.044 2.01172 3.25 2.81072 3.25 5.01172V19.0117C3.25 21.2127 5.044 22.0117 6.25 22.0117H21.25V20.0117H6.262C5.8 19.9997 5.25 19.8167 5.25 19.0117C5.25 18.9107 5.259 18.8207 5.274 18.7387C5.386 18.1637 5.857 18.0217 6.261 18.0117H20.25C20.268 18.0117 20.281 18.0027 20.299 18.0017H21.25V4.01172C21.25 2.90872 20.353 2.01172 19.25 2.01172ZM19.25 16.0117H5.25V5.01172C5.25 4.20572 5.8 4.02372 6.25 4.01172H13.25V11.0117L15.25 10.0117L17.25 11.0117V4.01172H19.25V16.0117Z" fill="#3B56A4"/>
</svg>
