<svg width="90" height="36" viewBox="0 0 90 36" fill="none" xmlns="http://www.w3.org/2000/svg">
<rect x="0.25" width="89.75" height="36" rx="6" fill="#EDF1F7"/>
<path d="M25.25 8.00977H12.25C11.044 8.00977 9.25 8.80877 9.25 11.0098V25.0098C9.25 27.2108 11.044 28.0098 12.25 28.0098H27.25V26.0098H12.262C11.8 25.9978 11.25 25.8148 11.25 25.0098C11.25 24.9088 11.259 24.8188 11.274 24.7368C11.386 24.1618 11.857 24.0198 12.261 24.0098H26.25C26.268 24.0098 26.281 24.0008 26.299 23.9998H27.25V10.0098C27.25 8.90677 26.353 8.00977 25.25 8.00977ZM25.25 22.0098H11.25V11.0098C11.25 10.2038 11.8 10.0218 12.25 10.0098H19.25V17.0098L21.25 16.0098L23.25 17.0098V10.0098H25.25V22.0098Z" fill="#3B56A4"/>
<path d="M39.5586 22H37.8008V13.4688H39.5586V22ZM42.6406 15.6602L42.6934 16.3926C43.1465 15.8262 43.7539 15.543 44.5156 15.543C45.1875 15.543 45.6875 15.7402 46.0156 16.1348C46.3438 16.5293 46.5117 17.1191 46.5195 17.9043V22H44.8262V17.9453C44.8262 17.5859 44.748 17.3262 44.5918 17.166C44.4355 17.002 44.1758 16.9199 43.8125 16.9199C43.3359 16.9199 42.9785 17.123 42.7402 17.5293V22H41.0469V15.6602H42.6406ZM51.2422 20.248C51.2422 20.041 51.1387 19.8789 50.9316 19.7617C50.7285 19.6406 50.4004 19.5332 49.9473 19.4395C48.4395 19.123 47.6855 18.4824 47.6855 17.5176C47.6855 16.9551 47.918 16.4863 48.3828 16.1113C48.8516 15.7324 49.4629 15.543 50.2168 15.543C51.0215 15.543 51.6641 15.7324 52.1445 16.1113C52.6289 16.4902 52.8711 16.9824 52.8711 17.5879H51.1777C51.1777 17.3457 51.0996 17.1465 50.9434 16.9902C50.7871 16.8301 50.543 16.75 50.2109 16.75C49.9258 16.75 49.7051 16.8145 49.5488 16.9434C49.3926 17.0723 49.3145 17.2363 49.3145 17.4355C49.3145 17.623 49.4023 17.7754 49.5781 17.8926C49.7578 18.0059 50.0586 18.1055 50.4805 18.1914C50.9023 18.2734 51.2578 18.3672 51.5469 18.4727C52.4414 18.8008 52.8887 19.3691 52.8887 20.1777C52.8887 20.7559 52.6406 21.2246 52.1445 21.584C51.6484 21.9395 51.0078 22.1172 50.2227 22.1172C49.6914 22.1172 49.2188 22.0234 48.8047 21.8359C48.3945 21.6445 48.0723 21.3848 47.8379 21.0566C47.6035 20.7246 47.4863 20.3672 47.4863 19.9844H49.0918C49.1074 20.2852 49.2188 20.5156 49.4258 20.6758C49.6328 20.8359 49.9102 20.916 50.2578 20.916C50.582 20.916 50.8262 20.8555 50.9902 20.7344C51.1582 20.6094 51.2422 20.4473 51.2422 20.248ZM55.7715 22H54.0723V15.6602H55.7715V22ZM53.9727 14.0195C53.9727 13.7656 54.0566 13.5566 54.2246 13.3926C54.3965 13.2285 54.6289 13.1465 54.9219 13.1465C55.2109 13.1465 55.4414 13.2285 55.6133 13.3926C55.7852 13.5566 55.8711 13.7656 55.8711 14.0195C55.8711 14.2773 55.7832 14.4883 55.6074 14.6523C55.4355 14.8164 55.207 14.8984 54.9219 14.8984C54.6367 14.8984 54.4062 14.8164 54.2305 14.6523C54.0586 14.4883 53.9727 14.2773 53.9727 14.0195ZM56.9258 18.7832C56.9258 17.8105 57.1562 17.0273 57.6172 16.4336C58.082 15.8398 58.707 15.543 59.4922 15.543C60.1875 15.543 60.7285 15.7812 61.1152 16.2578L61.1855 15.6602H62.7207V21.7891C62.7207 22.3438 62.5938 22.8262 62.3398 23.2363C62.0898 23.6465 61.7363 23.959 61.2793 24.1738C60.8223 24.3887 60.2871 24.4961 59.6738 24.4961C59.209 24.4961 58.7559 24.4023 58.3145 24.2148C57.873 24.0312 57.5391 23.793 57.3125 23.5L58.0625 22.4688C58.4844 22.9414 58.9961 23.1777 59.5977 23.1777C60.0469 23.1777 60.3965 23.0566 60.6465 22.8145C60.8965 22.5762 61.0215 22.2363 61.0215 21.7949V21.4551C60.6309 21.8965 60.1172 22.1172 59.4805 22.1172C58.7188 22.1172 58.1016 21.8203 57.6289 21.2266C57.1602 20.6289 56.9258 19.8379 56.9258 18.8535V18.7832ZM58.6191 18.9062C58.6191 19.4805 58.7344 19.9316 58.9648 20.2598C59.1953 20.584 59.5117 20.7461 59.9141 20.7461C60.4297 20.7461 60.7988 20.5527 61.0215 20.166V17.5C60.7949 17.1133 60.4297 16.9199 59.9258 16.9199C59.5195 16.9199 59.1992 17.0859 58.9648 17.418C58.7344 17.75 58.6191 18.2461 58.6191 18.9062ZM65.6797 16.3516C66.1289 15.8125 66.6934 15.543 67.373 15.543C68.748 15.543 69.4453 16.3418 69.4648 17.9395V22H67.7715V17.9863C67.7715 17.623 67.6934 17.3555 67.5371 17.1836C67.3809 17.0078 67.1211 16.9199 66.7578 16.9199C66.2617 16.9199 65.9023 17.1113 65.6797 17.4941V22H63.9863V13H65.6797V16.3516ZM72.7695 14.1016V15.6602H73.8535V16.9023H72.7695V20.0664C72.7695 20.3008 72.8145 20.4688 72.9043 20.5703C72.9941 20.6719 73.166 20.7227 73.4199 20.7227C73.6074 20.7227 73.7734 20.709 73.918 20.6816V21.9648C73.5859 22.0664 73.2441 22.1172 72.8926 22.1172C71.7051 22.1172 71.0996 21.5176 71.0762 20.3184V16.9023H70.1504V15.6602H71.0762V14.1016H72.7695ZM78.2305 20.248C78.2305 20.041 78.127 19.8789 77.9199 19.7617C77.7168 19.6406 77.3887 19.5332 76.9355 19.4395C75.4277 19.123 74.6738 18.4824 74.6738 17.5176C74.6738 16.9551 74.9062 16.4863 75.3711 16.1113C75.8398 15.7324 76.4512 15.543 77.2051 15.543C78.0098 15.543 78.6523 15.7324 79.1328 16.1113C79.6172 16.4902 79.8594 16.9824 79.8594 17.5879H78.166C78.166 17.3457 78.0879 17.1465 77.9316 16.9902C77.7754 16.8301 77.5312 16.75 77.1992 16.75C76.9141 16.75 76.6934 16.8145 76.5371 16.9434C76.3809 17.0723 76.3027 17.2363 76.3027 17.4355C76.3027 17.623 76.3906 17.7754 76.5664 17.8926C76.7461 18.0059 77.0469 18.1055 77.4688 18.1914C77.8906 18.2734 78.2461 18.3672 78.5352 18.4727C79.4297 18.8008 79.877 19.3691 79.877 20.1777C79.877 20.7559 79.6289 21.2246 79.1328 21.584C78.6367 21.9395 77.9961 22.1172 77.2109 22.1172C76.6797 22.1172 76.207 22.0234 75.793 21.8359C75.3828 21.6445 75.0605 21.3848 74.8262 21.0566C74.5918 20.7246 74.4746 20.3672 74.4746 19.9844H76.0801C76.0957 20.2852 76.207 20.5156 76.4141 20.6758C76.6211 20.8359 76.8984 20.916 77.2461 20.916C77.5703 20.916 77.8145 20.8555 77.9785 20.7344C78.1465 20.6094 78.2305 20.4473 78.2305 20.248Z" fill="#3B56A4"/>
</svg>
