<svg width="275" height="32" viewBox="0 0 275 32" fill="none" xmlns="http://www.w3.org/2000/svg">
<rect x="52" y="6" width="20" height="20" rx="10" fill="#27AE60"/>
<path d="M57 15.5714L60.6364 19L67 13" stroke="white" stroke-width="2"/>
<rect x="75" y="15" width="24" height="2" rx="1" fill="#5877CF"/>
<rect x="102" y="6" width="20" height="20" rx="10" fill="white"/>
<path d="M114.977 18.6816V20H109.141V18.875L111.9 15.916C112.178 15.6074 112.396 15.3359 112.557 15.1016C112.717 14.8633 112.832 14.6504 112.902 14.4629C112.977 14.2715 113.014 14.0898 113.014 13.918C113.014 13.6602 112.971 13.4395 112.885 13.2559C112.799 13.0684 112.672 12.9238 112.504 12.8223C112.34 12.7207 112.137 12.6699 111.895 12.6699C111.637 12.6699 111.414 12.7324 111.227 12.8574C111.043 12.9824 110.902 13.1562 110.805 13.3789C110.711 13.6016 110.664 13.8535 110.664 14.1348H108.971C108.971 13.627 109.092 13.1621 109.334 12.7402C109.576 12.3145 109.918 11.9766 110.359 11.7266C110.801 11.4727 111.324 11.3457 111.93 11.3457C112.527 11.3457 113.031 11.4434 113.441 11.6387C113.855 11.8301 114.168 12.1074 114.379 12.4707C114.594 12.8301 114.701 13.2598 114.701 13.7598C114.701 14.041 114.656 14.3164 114.566 14.5859C114.477 14.8516 114.348 15.1172 114.18 15.3828C114.016 15.6445 113.816 15.9102 113.582 16.1797C113.348 16.4492 113.088 16.7285 112.803 17.0176L111.32 18.6816H114.977Z" fill="#3B56A4"/>
<rect x="125" y="15" width="24" height="2" rx="1" fill="#5877CF"/>
<rect x="152" y="6" width="20" height="20" rx="10" fill="#5877CF"/>
<path d="M160.869 15.002H161.771C162.061 15.002 162.299 14.9531 162.486 14.8555C162.674 14.7539 162.812 14.6133 162.902 14.4336C162.996 14.25 163.043 14.0371 163.043 13.7949C163.043 13.5762 163 13.3828 162.914 13.2148C162.832 13.043 162.705 12.9102 162.533 12.8164C162.361 12.7188 162.145 12.6699 161.883 12.6699C161.676 12.6699 161.484 12.7109 161.309 12.793C161.133 12.875 160.992 12.9902 160.887 13.1387C160.781 13.2871 160.729 13.4668 160.729 13.6777H159.035C159.035 13.209 159.16 12.8008 159.41 12.4531C159.664 12.1055 160.004 11.834 160.43 11.6387C160.855 11.4434 161.324 11.3457 161.836 11.3457C162.414 11.3457 162.92 11.4395 163.354 11.627C163.787 11.8105 164.125 12.082 164.367 12.4414C164.609 12.8008 164.73 13.2461 164.73 13.7773C164.73 14.0469 164.668 14.3086 164.543 14.5625C164.418 14.8125 164.238 15.0391 164.004 15.2422C163.773 15.4414 163.492 15.6016 163.16 15.7227C162.828 15.8398 162.455 15.8984 162.041 15.8984H160.869V15.002ZM160.869 16.2852V15.4121H162.041C162.506 15.4121 162.914 15.4648 163.266 15.5703C163.617 15.6758 163.912 15.8281 164.15 16.0273C164.389 16.2227 164.568 16.4551 164.689 16.7246C164.811 16.9902 164.871 17.2852 164.871 17.6094C164.871 18.0078 164.795 18.3633 164.643 18.6758C164.49 18.9844 164.275 19.2461 163.998 19.4609C163.725 19.6758 163.404 19.8398 163.037 19.9531C162.67 20.0625 162.27 20.1172 161.836 20.1172C161.477 20.1172 161.123 20.0684 160.775 19.9707C160.432 19.8691 160.119 19.7188 159.838 19.5195C159.561 19.3164 159.338 19.0625 159.17 18.7578C159.006 18.4492 158.924 18.084 158.924 17.6621H160.617C160.617 17.8809 160.672 18.0762 160.781 18.248C160.891 18.4199 161.041 18.5547 161.232 18.6523C161.428 18.75 161.645 18.7988 161.883 18.7988C162.152 18.7988 162.383 18.75 162.574 18.6523C162.77 18.5508 162.918 18.4102 163.02 18.2305C163.125 18.0469 163.178 17.834 163.178 17.5918C163.178 17.2793 163.121 17.0293 163.008 16.8418C162.895 16.6504 162.732 16.5098 162.521 16.4199C162.311 16.3301 162.061 16.2852 161.771 16.2852H160.869Z" fill="white"/>
<rect x="175" y="15" width="24" height="2" rx="1" fill="#5877CF"/>
<rect x="202" y="6" width="20" height="20" rx="10" fill="#5877CF"/>
<path d="M215.117 16.8125V18.1367H208.971L208.889 17.1113L212.445 11.4688H213.787L212.334 13.9004L210.564 16.8125H215.117ZM214.15 11.4688V20H212.463V11.4688H214.15Z" fill="white"/>
</svg>
