<svg width="275" height="32" viewBox="0 0 275 32" fill="none" xmlns="http://www.w3.org/2000/svg">
<rect x="52" y="6" width="20" height="20" rx="10" fill="#27AE60"/>
<path d="M57 15.5714L60.6364 19L67 13" stroke="white" stroke-width="2"/>
<rect x="75" y="15" width="24" height="2" rx="1" fill="#5877CF"/>
<rect x="102" y="6" width="20" height="20" rx="10" fill="#27AE60"/>
<path d="M107 15.5714L110.636 19L117 13" stroke="white" stroke-width="2"/>
<rect x="125" y="15" width="24" height="2" rx="1" fill="#5877CF"/>
<rect x="152" y="6" width="20" height="20" rx="10" fill="#27AE60"/>
<path d="M157 15.5714L160.636 19L167 13" stroke="white" stroke-width="2"/>
<rect x="175" y="15" width="24" height="2" rx="1" fill="#5877CF"/>
<rect x="202" y="6" width="20" height="20" rx="10" fill="#27AE60"/>
<path d="M207 15.5714L210.636 19L217 13" stroke="white" stroke-width="2"/>
</svg>
