<svg width="15" height="20" viewBox="0 0 15 20" fill="none" xmlns="http://www.w3.org/2000/svg">
<path d="M4.625 18H10.625V20H4.625V18ZM12.531 11.712C13.561 10.506 14.625 9.259 14.625 7C14.625 3.141 11.484 0 7.625 0C3.766 0 0.625 3.141 0.625 7C0.625 9.285 1.692 10.528 2.726 11.73C3.084 12.148 3.455 12.581 3.81 13.079C3.954 13.285 4.19 14.075 4.401 15H3.625V17H11.625V15H10.851C11.064 14.073 11.301 13.281 11.444 13.075C11.796 12.572 12.17 12.135 12.531 11.712ZM9.807 11.925C9.373 12.542 9.011 14 8.801 15H6.45C6.241 13.998 5.878 12.537 5.439 11.92C5.06376 11.4043 4.66466 10.9065 4.243 10.428C3.269 9.294 2.625 8.544 2.625 7C2.625 4.243 4.868 2 7.625 2C10.382 2 12.625 4.243 12.625 7C12.625 8.521 11.982 9.274 11.01 10.413C10.637 10.851 10.214 11.346 9.807 11.925Z" fill="#BECAE5"/>
</svg>
