<svg width="91" height="36" viewBox="0 0 91 36" fill="none" xmlns="http://www.w3.org/2000/svg">
<rect x="0.75" width="89.75" height="36" rx="6" fill="#EDF1F7"/>
<path d="M15.75 26H21.75V28H15.75V26ZM23.656 19.712C24.686 18.506 25.75 17.259 25.75 15C25.75 11.141 22.609 8 18.75 8C14.891 8 11.75 11.141 11.75 15C11.75 17.285 12.817 18.528 13.851 19.73C14.209 20.148 14.58 20.581 14.935 21.079C15.079 21.285 15.315 22.075 15.526 23H14.75V25H22.75V23H21.976C22.189 22.073 22.426 21.281 22.569 21.075C22.921 20.572 23.295 20.135 23.656 19.712ZM20.932 19.925C20.498 20.542 20.136 22 19.926 23H17.575C17.366 21.998 17.003 20.537 16.564 19.92C16.1888 19.4043 15.7897 18.9065 15.368 18.428C14.394 17.294 13.75 16.544 13.75 15C13.75 12.243 15.993 10 18.75 10C21.507 10 23.75 12.243 23.75 15C23.75 16.521 23.107 17.274 22.135 18.413C21.762 18.851 21.339 19.346 20.932 19.925Z" fill="#3B56A4"/>
<path d="M36.3965 22V13.4688H39.0215C39.7715 13.4688 40.4414 13.6387 41.0312 13.9785C41.625 14.3145 42.0879 14.7949 42.4199 15.4199C42.752 16.041 42.918 16.748 42.918 17.541V17.9336C42.918 18.7266 42.7539 19.4316 42.4258 20.0488C42.1016 20.666 41.6426 21.1445 41.0488 21.4844C40.4551 21.8242 39.7852 21.9961 39.0391 22H36.3965ZM38.1543 14.8926V20.5879H39.0039C39.6914 20.5879 40.2168 20.3633 40.5801 19.9141C40.9434 19.4648 41.1289 18.8223 41.1367 17.9863V17.5352C41.1367 16.668 40.957 16.0117 40.5977 15.5664C40.2383 15.1172 39.7129 14.8926 39.0215 14.8926H38.1543ZM45.877 22H44.1777V15.6602H45.877V22ZM44.0781 14.0195C44.0781 13.7656 44.1621 13.5566 44.3301 13.3926C44.502 13.2285 44.7344 13.1465 45.0273 13.1465C45.3164 13.1465 45.5469 13.2285 45.7188 13.3926C45.8906 13.5566 45.9766 13.7656 45.9766 14.0195C45.9766 14.2773 45.8887 14.4883 45.7129 14.6523C45.541 14.8164 45.3125 14.8984 45.0273 14.8984C44.7422 14.8984 44.5117 14.8164 44.3359 14.6523C44.1641 14.4883 44.0781 14.2773 44.0781 14.0195ZM50.7109 20.248C50.7109 20.041 50.6074 19.8789 50.4004 19.7617C50.1973 19.6406 49.8691 19.5332 49.416 19.4395C47.9082 19.123 47.1543 18.4824 47.1543 17.5176C47.1543 16.9551 47.3867 16.4863 47.8516 16.1113C48.3203 15.7324 48.9316 15.543 49.6855 15.543C50.4902 15.543 51.1328 15.7324 51.6133 16.1113C52.0977 16.4902 52.3398 16.9824 52.3398 17.5879H50.6465C50.6465 17.3457 50.5684 17.1465 50.4121 16.9902C50.2559 16.8301 50.0117 16.75 49.6797 16.75C49.3945 16.75 49.1738 16.8145 49.0176 16.9434C48.8613 17.0723 48.7832 17.2363 48.7832 17.4355C48.7832 17.623 48.8711 17.7754 49.0469 17.8926C49.2266 18.0059 49.5273 18.1055 49.9492 18.1914C50.3711 18.2734 50.7266 18.3672 51.0156 18.4727C51.9102 18.8008 52.3574 19.3691 52.3574 20.1777C52.3574 20.7559 52.1094 21.2246 51.6133 21.584C51.1172 21.9395 50.4766 22.1172 49.6914 22.1172C49.1602 22.1172 48.6875 22.0234 48.2734 21.8359C47.8633 21.6445 47.541 21.3848 47.3066 21.0566C47.0723 20.7246 46.9551 20.3672 46.9551 19.9844H48.5605C48.5762 20.2852 48.6875 20.5156 48.8945 20.6758C49.1016 20.8359 49.3789 20.916 49.7266 20.916C50.0508 20.916 50.2949 20.8555 50.459 20.7344C50.627 20.6094 50.7109 20.4473 50.7109 20.248ZM56.0898 20.752C56.4023 20.752 56.6562 20.666 56.8516 20.4941C57.0469 20.3223 57.1484 20.0938 57.1562 19.8086H58.7441C58.7402 20.2383 58.623 20.6328 58.3926 20.9922C58.1621 21.3477 57.8457 21.625 57.4434 21.8242C57.0449 22.0195 56.6035 22.1172 56.1191 22.1172C55.2129 22.1172 54.498 21.8301 53.9746 21.2559C53.4512 20.6777 53.1895 19.8809 53.1895 18.8652V18.7539C53.1895 17.7773 53.4492 16.998 53.9688 16.416C54.4883 15.834 55.2012 15.543 56.1074 15.543C56.9004 15.543 57.5352 15.7695 58.0117 16.2227C58.4922 16.6719 58.7363 17.2715 58.7441 18.0215H57.1562C57.1484 17.6934 57.0469 17.4277 56.8516 17.2246C56.6562 17.0176 56.3984 16.9141 56.0781 16.9141C55.6836 16.9141 55.3848 17.0586 55.1816 17.3477C54.9824 17.6328 54.8828 18.0977 54.8828 18.7422V18.918C54.8828 19.5703 54.9824 20.0391 55.1816 20.3242C55.3809 20.6094 55.6836 20.752 56.0898 20.752ZM59.4473 18.7715C59.4473 18.1426 59.5684 17.582 59.8105 17.0898C60.0527 16.5977 60.4004 16.2168 60.8535 15.9473C61.3105 15.6777 61.8398 15.543 62.4414 15.543C63.2969 15.543 63.9941 15.8047 64.5332 16.3281C65.0762 16.8516 65.3789 17.5625 65.4414 18.4609L65.4531 18.8945C65.4531 19.8672 65.1816 20.6484 64.6387 21.2383C64.0957 21.8242 63.3672 22.1172 62.4531 22.1172C61.5391 22.1172 60.8086 21.8242 60.2617 21.2383C59.7188 20.6523 59.4473 19.8555 59.4473 18.8477V18.7715ZM61.1406 18.8945C61.1406 19.4961 61.2539 19.957 61.4805 20.2773C61.707 20.5938 62.0312 20.752 62.4531 20.752C62.8633 20.752 63.1836 20.5957 63.4141 20.2832C63.6445 19.9668 63.7598 19.4629 63.7598 18.7715C63.7598 18.1816 63.6445 17.7246 63.4141 17.4004C63.1836 17.0762 62.8594 16.9141 62.4414 16.9141C62.0273 16.9141 61.707 17.0762 61.4805 17.4004C61.2539 17.7207 61.1406 18.2188 61.1406 18.8945ZM68.7754 19.9316L69.9531 15.6602H71.7227L69.584 22H67.9668L65.8281 15.6602H67.5977L68.7754 19.9316ZM75.3086 22.1172C74.3789 22.1172 73.6211 21.832 73.0352 21.2617C72.4531 20.6914 72.1621 19.9316 72.1621 18.9824V18.8184C72.1621 18.1816 72.2852 17.6133 72.5312 17.1133C72.7773 16.6094 73.125 16.2227 73.5742 15.9531C74.0273 15.6797 74.543 15.543 75.1211 15.543C75.9883 15.543 76.6699 15.8164 77.166 16.3633C77.666 16.9102 77.916 17.6855 77.916 18.6895V19.3809H73.8789C73.9336 19.7949 74.0977 20.127 74.3711 20.377C74.6484 20.627 74.998 20.752 75.4199 20.752C76.0723 20.752 76.582 20.5156 76.9492 20.043L77.7812 20.9746C77.5273 21.334 77.1836 21.6152 76.75 21.8184C76.3164 22.0176 75.8359 22.1172 75.3086 22.1172ZM75.1152 16.9141C74.7793 16.9141 74.5059 17.0273 74.2949 17.2539C74.0879 17.4805 73.9551 17.8047 73.8965 18.2266H76.252V18.0918C76.2441 17.7168 76.1426 17.4277 75.9473 17.2246C75.752 17.0176 75.4746 16.9141 75.1152 16.9141ZM82.4453 17.248C82.2148 17.2168 82.0117 17.2012 81.8359 17.2012C81.1953 17.2012 80.7754 17.418 80.5762 17.8516V22H78.8828V15.6602H80.4824L80.5293 16.416C80.8691 15.834 81.3398 15.543 81.9414 15.543C82.1289 15.543 82.3047 15.5684 82.4688 15.6191L82.4453 17.248Z" fill="#3B56A4"/>
</svg>
