<svg width="24" height="24" viewBox="0 0 24 24" fill="none" xmlns="http://www.w3.org/2000/svg">
<path d="M20.8719 13.178C21.2646 12.5849 21.4607 11.932 21.4607 11.2189C21.4607 10.3935 21.1565 9.67659 20.5477 9.06703C19.9386 8.45811 19.2174 8.15371 18.3842 8.15371H16.2688C16.6533 7.36052 16.8459 6.59121 16.8459 5.84615C16.8459 4.90861 16.7053 4.16351 16.4251 3.61061C16.1446 3.05755 15.7359 2.65102 15.199 2.39049C14.662 2.13008 14.0572 2 13.3842 2C12.9754 2 12.6149 2.14822 12.3024 2.44479C11.958 2.78127 11.7096 3.21406 11.5574 3.74292C11.4051 4.27161 11.2829 4.77849 11.1908 5.26328C11.0987 5.74802 10.9564 6.09056 10.7642 6.29085C10.3714 6.71552 9.94281 7.22847 9.47806 7.82935C8.6688 8.8789 8.11986 9.49995 7.83154 9.69233H4.53842C4.11375 9.69233 3.75113 9.84279 3.45064 10.143C3.15028 10.4435 3 10.8061 3 11.2308V18.9228C3 19.3475 3.15012 19.71 3.45064 20.0105C3.7513 20.311 4.11375 20.4614 4.53842 20.4614H7.99963C8.17593 20.4614 8.7287 20.6216 9.65819 20.9422C10.6438 21.2868 11.5112 21.5491 12.2603 21.7294C13.0061 21.9094 13.7707 22.0002 14.5379 22H16.0883C17.218 22 18.1274 21.6773 18.8165 21.0322C19.5054 20.3871 19.8461 19.5078 19.8382 18.394C20.319 17.777 20.5593 17.0639 20.5593 16.2547C20.5593 16.0785 20.5475 15.9063 20.5233 15.7379C20.8277 15.2012 20.9802 14.6243 20.9802 14.0073C20.9801 13.7188 20.9441 13.4422 20.8719 13.178ZM5.8485 18.6946C5.69628 18.8468 5.51602 18.9231 5.30769 18.9231C5.09931 18.9231 4.91901 18.8468 4.76675 18.6946C4.61457 18.5425 4.53842 18.3622 4.53842 18.1537C4.53842 17.9454 4.6144 17.7652 4.76675 17.6129C4.91918 17.4606 5.09931 17.3845 5.30769 17.3845C5.51602 17.3845 5.69628 17.4606 5.8485 17.6129C6.00076 17.7651 6.07692 17.9454 6.07692 18.1537C6.07692 18.3622 6.00076 18.5425 5.8485 18.6946ZM19.6644 12.205C19.4921 12.5735 19.2777 12.7618 19.0213 12.7697C19.1415 12.906 19.2417 13.0965 19.3219 13.3406C19.4019 13.5851 19.4417 13.8073 19.4417 14.0078C19.4417 14.5604 19.2297 15.0372 18.805 15.4377C18.9494 15.694 19.0214 15.9706 19.0214 16.2669C19.0214 16.5634 18.9514 16.8579 18.8111 17.1503C18.671 17.4424 18.4806 17.6528 18.2403 17.781C18.2803 18.0213 18.3002 18.2457 18.3002 18.454C18.3002 19.792 17.5309 20.4611 15.9923 20.4611H14.5385C13.4886 20.4611 12.1186 20.1688 10.4278 19.5837C10.3877 19.5677 10.2717 19.5255 10.0793 19.4575C9.88686 19.3896 9.7447 19.3394 9.65251 19.3075C9.56032 19.2752 9.42022 19.2291 9.2318 19.1692C9.04341 19.1089 8.89136 19.0648 8.77509 19.0369C8.65899 19.009 8.52668 18.9829 8.37858 18.9588C8.2304 18.9348 8.10416 18.9228 8.00001 18.9228H7.61542V11.2311H8.00001C8.12819 11.2311 8.2704 11.195 8.42666 11.123C8.58288 11.0509 8.74322 10.9427 8.90744 10.7985C9.06527 10.6601 9.21956 10.5178 9.37017 10.3717C9.51443 10.2315 9.67465 10.0552 9.85099 9.843C10.0273 9.63058 10.1655 9.46038 10.2657 9.33216C10.3929 9.16867 10.5191 9.00439 10.6442 8.83933C10.7964 8.63908 10.8886 8.51885 10.9207 8.47873C11.3613 7.93396 11.6698 7.56941 11.846 7.38502C12.1746 7.04059 12.4129 6.6019 12.5611 6.06905C12.7095 5.53611 12.8317 5.0333 12.9275 4.56065C13.0236 4.08794 13.176 3.7473 13.3846 3.53896C14.1536 3.53896 14.6665 3.72718 14.9229 4.10381C15.1791 4.48037 15.3074 5.06134 15.3074 5.84657C15.3074 6.31927 15.1149 6.96225 14.7302 7.77547C14.3457 8.58877 14.1536 9.2278 14.1536 9.6925H18.3841C18.7851 9.6925 19.1415 9.84666 19.4539 10.1553C19.7665 10.4638 19.923 10.8222 19.923 11.231C19.9228 11.5114 19.8367 11.836 19.6644 12.205Z" fill="#BECAE5"/>
</svg>
