<svg width="65" height="64" viewBox="0 0 65 64" fill="none" xmlns="http://www.w3.org/2000/svg">
<g clip-path="url(#clip0_1652_61222)">
<path d="M14.5273 17.969V36.1053H50.4674V17.969C50.4674 8.06147 42.4059 0 32.4964 0C22.5868 0 14.5273 8.06147 14.5273 17.969ZM17.5504 17.969C17.5504 9.71407 24.2414 3.02104 32.4964 3.02104C40.7513 3.02104 47.4423 9.71407 47.4423 17.969V33.0823H17.5504V17.969Z" fill="#F3F3F3"/>
<path d="M17.5508 17.969V33.0822H47.4448V17.969C47.4448 9.71402 40.7537 3.021 32.4988 3.021C24.2438 3.021 17.5508 9.71402 17.5508 17.969ZM20.5738 17.969C20.5738 11.3948 25.9226 6.04606 32.4988 6.04606C39.0749 6.04606 44.4237 11.3948 44.4237 17.969V30.0591H20.5738V17.969Z" fill="#E5E5E5"/>
<path d="M12.4428 64.0001H52.5587C54.7837 64.0001 56.5895 62.1963 56.5895 59.9693V30.8372C56.5895 28.6122 54.7837 26.8065 52.5587 26.8065H12.4428C10.2159 26.8065 8.41211 28.6122 8.41211 30.8372V59.9693C8.41211 62.1963 10.2159 64.0001 12.4428 64.0001Z" fill="#FFCC5B"/>
<path d="M39.5168 47.9819H41.0424C42.3363 47.9819 43.3843 46.9278 43.3762 45.634V45.4727V45.4385C43.3843 44.0761 42.2758 42.9616 40.9154 42.9616H38.9424C37.4349 42.9616 36.0826 41.833 36.004 40.3275C35.9193 38.7212 37.1971 37.3931 38.7852 37.3931H45.9035C47.2497 37.3931 48.2534 36.2625 48.2373 34.9162C48.2373 34.9062 48.2373 34.8941 48.2373 34.882C48.2373 34.8699 48.2373 34.8598 48.2373 34.8477C48.2534 33.5014 47.2497 32.3728 45.9035 32.3728H43.6019C42.0944 32.3728 40.7421 31.2442 40.6635 29.7388C40.5789 28.1325 41.8566 26.8044 43.4447 26.8044H52.5582C54.7832 26.8044 56.589 28.6081 56.589 30.8351V59.9672C56.589 62.1942 54.7832 63.998 52.5582 63.998H40.7542C39.2165 63.998 37.969 62.7505 37.969 61.2127C37.969 59.675 39.2165 58.4275 40.7542 58.4275H44.4786C45.7664 58.4275 46.8144 57.3735 46.8084 56.0857V56.0554C46.8084 55.999 46.8104 55.9426 46.8144 55.8861C46.891 54.6164 45.8833 53.5463 44.6116 53.5463H39.674C38.1665 53.5463 36.8142 52.4177 36.7356 50.9122C36.6529 49.31 37.9307 47.9819 39.5168 47.9819Z" fill="#FDBC4B"/>
<path d="M26.4434 41.9701C26.4434 38.6246 29.156 35.9139 32.4995 35.9139C35.845 35.9139 38.5557 38.6266 38.5557 41.9701C38.5557 44.2031 37.3324 46.1338 35.5326 47.1838L36.363 54.8926H28.6341L29.4644 47.1838C27.6647 46.1338 26.4434 44.2051 26.4434 41.9701Z" fill="#464646"/>
<path d="M14.5271 41.7685C15.6396 41.7685 16.5425 42.6694 16.5425 43.7839V55.3803C16.5425 56.4948 15.6396 57.3956 14.5271 57.3956C13.4146 57.3956 12.5117 56.4948 12.5117 55.3803V43.7839C12.5117 42.6714 13.4146 41.7685 14.5271 41.7685Z" fill="#FFD769"/>
<path d="M14.5271 33.4108C15.6396 33.4108 16.5425 34.3116 16.5425 35.4261V37.7861C16.5425 38.9006 15.6396 39.8015 14.5271 39.8015C13.4146 39.8015 12.5117 38.9006 12.5117 37.7861V35.4261C12.5117 34.3116 13.4146 33.4108 14.5271 33.4108Z" fill="#FFD769"/>
</g>
<defs>
<clipPath id="clip0_1652_61222">
<rect width="64" height="64" fill="white" transform="translate(0.5)"/>
</clipPath>
</defs>
</svg>
