<svg width="36" height="36" viewBox="0 0 36 36" fill="none" xmlns="http://www.w3.org/2000/svg">
<rect x="9.25" y="1.75" width="17.5" height="32.5" rx="3" stroke="#53677F" stroke-width="2"/>
<path d="M15.75 5.25H20.25" stroke="#53677F" stroke-width="2" stroke-linecap="round"/>
<path d="M19.4876 13.5093L19.9676 12.6433C19.9737 12.6322 19.9776 12.62 19.979 12.6074C19.9804 12.5948 19.9794 12.582 19.9759 12.5698C19.9724 12.5576 19.9665 12.5463 19.9586 12.5363C19.9507 12.5264 19.9409 12.5182 19.9298 12.512C19.9187 12.5059 19.9065 12.502 19.8939 12.5006C19.8813 12.4991 19.8686 12.5002 19.8564 12.5037C19.8442 12.5072 19.8328 12.5131 19.8229 12.521C19.813 12.5289 19.8047 12.5387 19.7986 12.5498L19.3136 13.4248C18.8995 13.2432 18.4524 13.1495 18.0003 13.1495C17.5482 13.1495 17.1011 13.2432 16.6871 13.4248L16.2021 12.5498C16.1897 12.5272 16.1688 12.5105 16.1441 12.5034C16.1194 12.4962 16.0929 12.4991 16.0703 12.5115C16.0478 12.5239 16.0311 12.5448 16.0239 12.5695C16.0167 12.5942 16.0197 12.6207 16.0321 12.6433L16.5121 13.5093C16.0554 13.7345 15.6695 14.0812 15.3968 14.5112C15.1241 14.9413 14.9751 15.4381 14.9661 15.9473H21.0346C21.0255 15.438 20.8763 14.9411 20.6034 14.511C20.3305 14.081 19.9445 13.7344 19.4876 13.5093ZM16.6001 14.8368C16.5499 14.8368 16.5009 14.8219 16.4592 14.794C16.4175 14.7661 16.385 14.7265 16.3658 14.6802C16.3466 14.6338 16.3416 14.5828 16.3515 14.5336C16.3613 14.4844 16.3855 14.4393 16.421 14.4038C16.4565 14.3684 16.5017 14.3443 16.5509 14.3346C16.6001 14.3249 16.6511 14.3299 16.6974 14.3492C16.7437 14.3685 16.7833 14.401 16.8111 14.4428C16.8389 14.4846 16.8537 14.5336 16.8536 14.5838C16.8534 14.6509 16.8267 14.7153 16.7791 14.7627C16.7316 14.8101 16.6672 14.8368 16.6001 14.8368ZM19.4011 14.8368C19.3509 14.8368 19.3019 14.8219 19.2602 14.794C19.2185 14.7661 19.186 14.7265 19.1668 14.6802C19.1476 14.6338 19.1426 14.5828 19.1525 14.5336C19.1623 14.4844 19.1865 14.4393 19.222 14.4038C19.2575 14.3684 19.3027 14.3443 19.3519 14.3346C19.4011 14.3249 19.4521 14.3299 19.4984 14.3492C19.5447 14.3685 19.5843 14.401 19.6121 14.4428C19.6399 14.4846 19.6547 14.5336 19.6546 14.5838C19.6544 14.6509 19.6277 14.7153 19.5801 14.7627C19.5326 14.8101 19.4682 14.8368 19.4011 14.8368ZM14.9651 20.5853C14.9649 20.6818 14.9839 20.7774 15.0208 20.8666C15.0576 20.9558 15.1118 21.0369 15.1801 21.1051C15.2484 21.1733 15.3294 21.2274 15.4187 21.2643C15.5079 21.3011 15.6035 21.32 15.7001 21.3198H16.1866V22.8198C16.1866 23.0002 16.2582 23.1732 16.3858 23.3008C16.5134 23.4284 16.6864 23.5 16.8668 23.5C17.0472 23.5 17.2203 23.4284 17.3478 23.3008C17.4754 23.1732 17.5471 23.0002 17.5471 22.8198V21.3198H18.4541V22.8198C18.4541 23.0001 18.5257 23.1731 18.6532 23.3006C18.7808 23.4281 18.9537 23.4998 19.1341 23.4998C19.3144 23.4998 19.4874 23.4281 19.6149 23.3006C19.7424 23.1731 19.8141 23.0001 19.8141 22.8198V21.3198H20.3011C20.3975 21.3198 20.4929 21.3009 20.582 21.264C20.6711 21.2272 20.7521 21.1731 20.8202 21.1049C20.8884 21.0368 20.9425 20.9558 20.9793 20.8667C21.0162 20.7777 21.0351 20.6822 21.0351 20.5858V16.1873H14.9651V20.5853ZM14.0316 16.0703C13.8512 16.0705 13.6783 16.1423 13.5508 16.2699C13.4234 16.3975 13.3517 16.5704 13.3516 16.7508V19.5853C13.3516 19.6746 13.3692 19.763 13.4033 19.8455C13.4375 19.928 13.4876 20.003 13.5507 20.0661C13.6139 20.1292 13.6888 20.1793 13.7713 20.2135C13.8538 20.2477 13.9423 20.2653 14.0316 20.2653C14.1209 20.2653 14.2093 20.2477 14.2918 20.2135C14.3743 20.1793 14.4493 20.1292 14.5124 20.0661C14.5755 20.003 14.6256 19.928 14.6598 19.8455C14.694 19.763 14.7116 19.6746 14.7116 19.5853V16.7508C14.7113 16.5705 14.6396 16.3977 14.5121 16.2702C14.3846 16.1428 14.2118 16.071 14.0316 16.0708V16.0703ZM21.9676 16.0703C21.7872 16.0705 21.6143 16.1423 21.4868 16.2699C21.3594 16.3975 21.2877 16.5704 21.2876 16.7508V19.5853C21.2876 19.6746 21.3052 19.763 21.3393 19.8455C21.3735 19.928 21.4236 20.003 21.4867 20.0661C21.5499 20.1292 21.6248 20.1793 21.7073 20.2135C21.7898 20.2477 21.8783 20.2653 21.9676 20.2653C22.0569 20.2653 22.1453 20.2477 22.2278 20.2135C22.3103 20.1793 22.3853 20.1292 22.4484 20.0661C22.5115 20.003 22.5616 19.928 22.5958 19.8455C22.63 19.763 22.6476 19.6746 22.6476 19.5853V16.7508C22.6473 16.5705 22.5756 16.3977 22.4481 16.2702C22.3206 16.1428 22.1478 16.071 21.9676 16.0708V16.0703Z" fill="#53677F"/>
</svg>
