<svg width="36" height="36" viewBox="0 0 36 36" fill="none" xmlns="http://www.w3.org/2000/svg">
<rect x="9" y="2" width="18" height="32" rx="3" stroke="#53677F" stroke-width="2"/>
<path d="M16 6H20" stroke="#53677F" stroke-width="2" stroke-linecap="round"/>
<path d="M19.4696 14.595C19.6586 14.3771 19.8027 14.1241 19.8937 13.8504C19.9846 13.5767 20.0206 13.2877 19.9996 13C19.4193 13.0468 18.8806 13.3198 18.4996 13.76C18.3171 13.971 18.1789 14.2164 18.093 14.4818C18.0071 14.7472 17.9753 15.0271 17.9996 15.305C18.2827 15.3074 18.5625 15.2445 18.8174 15.1214C19.0723 14.9983 19.2955 14.8182 19.4696 14.595ZM20.7296 18.315C20.7329 17.9319 20.8339 17.5559 21.0228 17.2226C21.2118 16.8893 21.4826 16.6096 21.8096 16.41C21.6032 16.1126 21.3304 15.8674 21.0127 15.6938C20.6951 15.5203 20.3413 15.4231 19.9796 15.41C19.1996 15.33 18.4796 15.865 18.0646 15.865C17.6496 15.865 17.0646 15.42 16.4146 15.43C15.9897 15.444 15.5756 15.5679 15.2128 15.7896C14.85 16.0113 14.5509 16.3232 14.3446 16.695C13.4646 18.225 14.1196 20.5 14.9996 21.735C15.3996 22.34 15.8996 23.025 16.5596 23C17.2196 22.975 17.4346 22.59 18.1996 22.59C18.9646 22.59 19.1996 23 19.8496 22.985C20.4996 22.97 20.9596 22.365 21.3796 21.76C21.6771 21.3208 21.9095 20.8408 22.0696 20.335C21.6733 20.166 21.3352 19.8846 21.0971 19.5257C20.859 19.1667 20.7312 18.7458 20.7296 18.315Z" fill="#53677F"/>
</svg>
