<svg width="73" height="72" viewBox="0 0 73 72" fill="none" xmlns="http://www.w3.org/2000/svg">
<path d="M10.7405 7.73741C10.7405 5.7035 12.3914 4.05469 14.4278 4.05469H40.6082C42.6446 4.05469 44.2955 5.7035 44.2955 7.7374V63.1623C44.2955 65.1962 42.6446 66.845 40.6082 66.845H14.4278C12.3914 66.845 10.7405 65.1962 10.7405 63.1623V7.73741Z" fill="#77C6EE"/>
<path fill-rule="evenodd" clip-rule="evenodd" d="M6.5 7.36543C6.5 3.29762 9.80178 0 13.8747 0H41.1613C45.2342 0 48.536 3.29762 48.536 7.36543V63.5269C48.536 67.5947 45.2342 70.8923 41.1613 70.8923H13.8747C9.80178 70.8923 6.5 67.5947 6.5 63.5269V7.36543ZM10.7405 7.73371C10.7405 5.6998 12.3914 4.05099 14.4278 4.05099H16.2385C16.8199 6.48014 19.0079 8.28611 21.6182 8.28611H33.4178C36.0281 8.28611 38.2161 6.48014 38.7975 4.05099H40.6081C42.6446 4.05099 44.2955 5.6998 44.2955 7.73371V63.1586C44.2955 65.1925 42.6446 66.8413 40.6081 66.8413H14.4278C12.3914 66.8413 10.7405 65.1925 10.7405 63.1586V7.73371Z" fill="#2462B7"/>
<path d="M35.4458 22.4609C31.882 22.4609 28.9929 25.3464 28.9929 28.9057V38.4808C28.9929 38.686 29.0025 38.8889 29.0213 39.0892C29.0029 39.1625 28.9929 39.2404 28.9929 39.3225V47.3983C28.9929 48.2185 29.9859 48.6293 30.5666 48.0493L33.8845 44.7356C34.3844 44.8597 34.9074 44.9255 35.4458 44.9255H61.4418C65.0056 44.9255 67.8946 42.0401 67.8946 38.4808V28.9057C67.8946 25.3464 65.0056 22.4609 61.4418 22.4609H35.4458Z" fill="#F6BD41"/>
<path d="M33.6021 29.2801C33.6021 28.7716 34.0148 28.3594 34.5239 28.3594H62.3635C62.8726 28.3594 63.2854 28.7716 63.2854 29.2801V30.0166C63.2854 30.5251 62.8726 30.9373 62.3635 30.9373H34.5239C34.0148 30.9373 33.6021 30.5251 33.6021 30.0166V29.2801Z" fill="white"/>
<path d="M33.6021 34.9883C33.6021 34.4798 34.0148 34.0676 34.5239 34.0676H37.105C37.6142 34.0676 38.0269 34.4798 38.0269 34.9883V35.7248C38.0269 36.2333 37.6142 36.6455 37.105 36.6455H34.5239C34.0148 36.6455 33.6021 36.2333 33.6021 35.7248V34.9883Z" fill="white"/>
<path d="M39.8706 34.9883C39.8706 34.4798 40.2833 34.0676 40.7924 34.0676H62.3635C62.8726 34.0676 63.2854 34.4798 63.2854 34.9883V35.7248C63.2854 36.2333 62.8726 36.6455 62.3635 36.6455H40.7924C40.2833 36.6455 39.8706 36.2333 39.8706 35.7248V34.9883Z" fill="white"/>
</svg>
