<svg width="24" height="24" viewBox="0 0 24 24" fill="none" xmlns="http://www.w3.org/2000/svg">
<path fill-rule="evenodd" clip-rule="evenodd" d="M13.5438 4.46721C16.714 4.75424 19.2472 7.28838 19.5339 10.4599C19.573 10.8923 19.9238 11.2613 20.3809 11.2613C20.8295 11.2613 21.2123 10.8936 21.1766 10.4262C20.8673 6.3761 17.6263 3.13377 13.5775 2.8241C13.11 2.78834 12.7422 3.17127 12.7422 3.61999C12.7422 4.07718 13.1112 4.42805 13.5438 4.46721Z" fill="#3B56A4"/>
<path fill-rule="evenodd" clip-rule="evenodd" d="M13.532 6.96244C15.3428 7.22201 16.7802 8.65966 17.0396 10.4716C17.0996 10.8912 17.4425 11.2613 17.9013 11.2613C18.3474 11.2613 18.7384 10.8939 18.6859 10.4204C18.3894 7.74385 16.2594 5.61254 13.5833 5.31567C13.1097 5.26312 12.7422 5.65417 12.7422 6.10042C12.7422 6.55939 13.1124 6.90228 13.532 6.96244Z" fill="#3B56A4"/>
<path fill-rule="evenodd" clip-rule="evenodd" d="M13.4853 9.49225C13.9641 9.65868 14.3444 10.0392 14.5107 10.5183C14.6374 10.8834 14.9594 11.2613 15.4217 11.2613C15.8607 11.2613 16.2748 10.8928 16.1763 10.4057C15.9143 9.11058 14.8927 8.08849 13.598 7.82624C13.1108 7.72755 12.7422 8.1418 12.7422 8.58084C12.7422 9.04334 13.1202 9.36534 13.4853 9.49225Z" fill="#3B56A4"/>
<path d="M6.52557 4.86402C6.20075 4.86402 5.8753 4.97006 5.61061 5.18338L5.58024 5.20818L3.63068 7.21981L3.67222 7.18074C3.02753 7.73636 2.849 8.61443 3.12609 9.35235C3.64866 10.8592 4.97956 13.7731 7.60728 16.3974C10.2393 19.0341 13.1826 20.309 14.6387 20.8776L14.6536 20.8826L14.6678 20.8876C15.0324 21.0081 15.422 21.0322 15.7986 20.9574C16.1752 20.8827 16.5261 20.7116 16.817 20.4609L16.8356 20.4454L18.7721 18.5076C19.2866 17.9929 19.2866 17.0913 18.7721 16.5772L16.2324 14.0335C15.7167 13.5176 14.8154 13.5176 14.2996 14.0335L13.0697 15.2638C12.6296 15.0536 11.5461 14.5085 10.5158 13.5263C9.50042 12.5564 8.98157 11.4365 8.79375 11.0031L10.0335 9.76286C10.5772 9.21903 10.6082 8.28453 9.98146 7.78472L10.0379 7.83743L7.47028 5.20818L7.44115 5.18338C7.18139 4.97542 6.85827 4.86272 6.52557 4.86402Z" fill="white" stroke="#3B56A4" stroke-width="2"/>
</svg>
