<svg width="24" height="24" viewBox="0 0 24 24" fill="none" xmlns="http://www.w3.org/2000/svg">
<path fill-rule="evenodd" clip-rule="evenodd" d="M19.648 9.76156L16.1791 12.7129L15.0299 11.7351L12.648 13.7616L11.352 12.2383L15.0299 9.10919L16.1791 10.087L18.352 8.23828L19.648 9.76156Z" fill="#3B56A4"/>
<path d="M6.5 6H19.5C19.7761 6 20 6.22386 20 6.5V15.5C20 15.7761 19.7761 16 19.5 16H14.125L14.125 18H20C22 18 22 17.1045 22 16V6C22 5.5 22 4 20 4H6C4.89543 4 4 4.89543 4 6L4 7H6V6.5C6 6.22386 6.22386 6 6.5 6Z" fill="#3B56A4"/>
<path d="M7 15.3333C8.47276 15.3333 9.66667 14.1394 9.66667 12.6667C9.66667 11.1939 8.47276 10 7 10C5.52724 10 4.33333 11.1939 4.33333 12.6667C4.33333 14.1394 5.52724 15.3333 7 15.3333Z" stroke="#3B56A4" stroke-width="2" stroke-linecap="round" stroke-linejoin="round"/>
<path d="M11.181 20.849C11.181 19.0061 9.34762 17.5156 7.09048 17.5156C4.83333 17.5156 3 19.0061 3 20.849" stroke="#3B56A4" stroke-width="2" stroke-linecap="square" stroke-linejoin="round"/>
</svg>
