<svg width="25" height="24" viewBox="0 0 25 24" fill="none" xmlns="http://www.w3.org/2000/svg">
<path fill-rule="evenodd" clip-rule="evenodd" d="M20.5226 9.76162L17.0537 12.7129L15.9044 11.7352L13.5226 13.7616L12.2266 12.2383L15.9044 9.10925L17.0537 10.087L19.2266 8.23834L20.5226 9.76162Z" fill="#BECAE5"/>
<path d="M7.375 6H20.375C20.6511 6 20.875 6.22386 20.875 6.5V15.5C20.875 15.7761 20.6511 16 20.375 16H15L15 18H20.875C22.875 18 22.875 17.1045 22.875 16V6C22.875 5.5 22.875 4 20.875 4H6.875C5.77043 4 4.875 4.89543 4.875 6L4.875 7H6.875V6.5C6.875 6.22386 7.09886 6 7.375 6Z" fill="#BECAE5"/>
<path d="M7.87565 15.3333C9.34841 15.3333 10.5423 14.1394 10.5423 12.6667C10.5423 11.1939 9.34841 10 7.87565 10C6.40289 10 5.20898 11.1939 5.20898 12.6667C5.20898 14.1394 6.40289 15.3333 7.87565 15.3333Z" stroke="#BECAE5" stroke-width="2" stroke-linecap="round" stroke-linejoin="round"/>
<path d="M12.056 20.8485C12.056 19.0057 10.2226 17.5152 7.96548 17.5152C5.70833 17.5152 3.875 19.0057 3.875 20.8485" stroke="#BECAE5" stroke-width="2" stroke-linecap="square" stroke-linejoin="round"/>
</svg>
