<svg width="14" height="14" viewBox="0 0 14 14" fill="none" xmlns="http://www.w3.org/2000/svg">
<path d="M6.52683 9.19203C6.49816 9.22371 6.47145 9.25711 6.44683 9.29203C6.4216 9.3292 6.40142 9.36955 6.38683 9.41203C6.36761 9.44982 6.35413 9.49027 6.34683 9.53203C6.34356 9.57642 6.34356 9.62098 6.34683 9.66537C6.34458 9.75282 6.36285 9.83958 6.40017 9.9187C6.43011 10.0014 6.47788 10.0766 6.54009 10.1388C6.6023 10.201 6.67744 10.2488 6.76017 10.2787C6.83997 10.314 6.92625 10.3322 7.0135 10.3322C7.10075 10.3322 7.18703 10.314 7.26683 10.2787C7.34956 10.2488 7.4247 10.201 7.48691 10.1388C7.54912 10.0766 7.59689 10.0014 7.62683 9.9187C7.65644 9.83764 7.67002 9.7516 7.66683 9.66537C7.66734 9.57763 7.65052 9.49065 7.61735 9.40943C7.58417 9.3282 7.53529 9.25432 7.4735 9.19203C7.41152 9.12955 7.33779 9.07995 7.25655 9.0461C7.17531 9.01226 7.08817 8.99483 7.00017 8.99483C6.91216 8.99483 6.82502 9.01226 6.74378 9.0461C6.66254 9.07995 6.58881 9.12955 6.52683 9.19203ZM7.00017 0.332031C5.68162 0.332031 4.39269 0.723024 3.29636 1.45557C2.20004 2.18811 1.34555 3.2293 0.840969 4.44747C0.336385 5.66565 0.204362 7.00609 0.461597 8.2993C0.718832 9.59251 1.35377 10.7804 2.28612 11.7127C3.21847 12.6451 4.40636 13.28 5.69956 13.5373C6.99277 13.7945 8.33322 13.6625 9.55139 13.1579C10.7696 12.6533 11.8108 11.7988 12.5433 10.7025C13.2758 9.60617 13.6668 8.31724 13.6668 6.9987C13.6668 6.12322 13.4944 5.25631 13.1594 4.44747C12.8243 3.63864 12.3333 2.90371 11.7142 2.28465C11.0952 1.6656 10.3602 1.17453 9.55139 0.839501C8.74255 0.50447 7.87565 0.332031 7.00017 0.332031ZM7.00017 12.332C5.94533 12.332 4.91419 12.0192 4.03712 11.4332C3.16006 10.8472 2.47648 10.0142 2.07281 9.03968C1.66914 8.06514 1.56352 6.99278 1.76931 5.95822C1.9751 4.92365 2.48305 3.97334 3.22893 3.22746C3.97481 2.48158 4.92512 1.97363 5.95968 1.76784C6.99425 1.56206 8.06661 1.66767 9.04114 2.07134C10.0157 2.47501 10.8486 3.15859 11.4347 4.03566C12.0207 4.91272 12.3335 5.94386 12.3335 6.9987C12.3335 8.41319 11.7716 9.76974 10.7714 10.7699C9.77121 11.7701 8.41465 12.332 7.00017 12.332ZM7.00017 3.66536C6.64888 3.66514 6.30372 3.75745 5.99944 3.93299C5.69516 4.10854 5.44248 4.36114 5.26683 4.66536C5.2186 4.74124 5.18621 4.8261 5.17162 4.91482C5.15702 5.00354 5.16053 5.09429 5.18192 5.18162C5.20331 5.26895 5.24215 5.35106 5.29609 5.42299C5.35003 5.49492 5.41797 5.5552 5.49581 5.60019C5.57366 5.64519 5.6598 5.67398 5.74905 5.68482C5.83831 5.69566 5.92884 5.68833 6.01519 5.66328C6.10154 5.63823 6.18193 5.59597 6.25153 5.53904C6.32113 5.48212 6.37849 5.4117 6.42017 5.33203C6.4789 5.2303 6.56348 5.14589 6.66533 5.08735C6.76718 5.02881 6.88269 4.99823 7.00017 4.9987C7.17698 4.9987 7.34655 5.06894 7.47157 5.19396C7.59659 5.31898 7.66683 5.48855 7.66683 5.66536C7.66683 5.84218 7.59659 6.01174 7.47157 6.13677C7.34655 6.26179 7.17698 6.33203 7.00017 6.33203C6.82336 6.33203 6.65379 6.40227 6.52876 6.52729C6.40374 6.65232 6.3335 6.82189 6.3335 6.9987V7.66536C6.3335 7.84218 6.40374 8.01174 6.52876 8.13677C6.65379 8.26179 6.82336 8.33203 7.00017 8.33203C7.17698 8.33203 7.34655 8.26179 7.47157 8.13677C7.59659 8.01174 7.66683 7.84218 7.66683 7.66536V7.54536C8.10775 7.38538 8.4784 7.07552 8.71401 6.66994C8.94962 6.26437 9.03519 5.78889 8.95576 5.32662C8.87634 4.86436 8.63697 4.44471 8.27949 4.14104C7.92202 3.83737 7.46919 3.669 7.00017 3.66536Z" fill="#506CE1"/>
</svg>
