<svg width="24" height="24" viewBox="0 0 24 24" fill="none" xmlns="http://www.w3.org/2000/svg">
<path d="M9 9.80939V10.3784H11.16V9.80939C11.16 9.39092 11.5285 9.03414 12 9.03414C12.4715 9.03414 12.84 9.39092 12.84 9.80939C12.84 9.95137 12.8128 9.99016 12.7875 10.0226C12.7321 10.0934 12.6292 10.1779 12.3668 10.3663L12.3596 10.3714C12.1797 10.5007 11.9463 10.6685 11.7199 10.8793C10.9623 11.5859 10.9151 12.3148 10.92 12.5068V13.963H13.08V12.5374C13.0906 12.5088 13.1278 12.4288 13.2403 12.324C13.3615 12.2109 13.5032 12.1083 13.6766 11.9835L13.698 11.9682C13.9408 11.7938 14.271 11.5567 14.5305 11.2235C14.8131 10.8608 15 10.404 15 9.80939C15 8.25137 13.6458 7 12 7C10.3542 7 9 8.25137 9 9.80939Z" fill="#EB554C"/>
<path d="M13.08 17V14.9659H10.92V17H13.08Z" fill="#EB554C"/>
<path d="M16.5 4V5.5H19.5V18.5H16.5V20H21L21 4H16.5Z" fill="#EB554C"/>
<path d="M7.5 4V5.5H4.5V18.5H7.5V20H3L3 4H7.5Z" fill="#EB554C"/>
</svg>
