<svg width="16" height="16" viewBox="0 0 16 16" fill="none" xmlns="http://www.w3.org/2000/svg">
<path d="M7.52634 10.1933C7.49767 10.2249 7.47096 10.2583 7.44634 10.2933C7.42111 10.3304 7.40094 10.3708 7.38634 10.4133C7.36712 10.451 7.35364 10.4915 7.34634 10.5333C7.34307 10.5776 7.34307 10.6222 7.34634 10.6666C7.34409 10.754 7.36236 10.8408 7.39968 10.9199C7.42962 11.0026 7.47739 11.0778 7.5396 11.14C7.60181 11.2022 7.67695 11.25 7.75968 11.2799C7.83948 11.3152 7.92576 11.3334 8.01301 11.3334C8.10026 11.3334 8.18654 11.3152 8.26634 11.2799C8.34907 11.25 8.42421 11.2022 8.48642 11.14C8.54863 11.0778 8.5964 11.0026 8.62634 10.9199C8.65595 10.8389 8.66953 10.7528 8.66634 10.6666C8.66685 10.5788 8.65003 10.4919 8.61686 10.4106C8.58368 10.3294 8.5348 10.2555 8.47301 10.1933C8.41104 10.1308 8.3373 10.0812 8.25606 10.0473C8.17482 10.0135 8.08769 9.99605 7.99968 9.99605C7.91167 9.99605 7.82453 10.0135 7.74329 10.0473C7.66205 10.0812 7.58832 10.1308 7.52634 10.1933ZM7.99968 1.33325C6.68114 1.33325 5.3922 1.72425 4.29588 2.45679C3.19955 3.18933 2.34506 4.23052 1.84048 5.4487C1.3359 6.66687 1.20387 8.00731 1.46111 9.30052C1.71834 10.5937 2.35328 11.7816 3.28563 12.714C4.21798 13.6463 5.40587 14.2813 6.69908 14.5385C7.99228 14.7957 9.33273 14.6637 10.5509 14.1591C11.7691 13.6545 12.8103 12.8 13.5428 11.7037C14.2754 10.6074 14.6663 9.31846 14.6663 7.99992C14.6663 7.12444 14.4939 6.25753 14.1589 5.4487C13.8238 4.63986 13.3328 3.90493 12.7137 3.28587C12.0947 2.66682 11.3597 2.17575 10.5509 1.84072C9.74206 1.50569 8.87516 1.33325 7.99968 1.33325ZM7.99968 13.3333C6.94484 13.3333 5.9137 13.0205 5.03664 12.4344C4.15957 11.8484 3.47599 11.0154 3.07232 10.0409C2.66865 9.06636 2.56304 7.994 2.76882 6.95944C2.97461 5.92487 3.48256 4.97456 4.22844 4.22868C4.97432 3.4828 5.92463 2.97485 6.9592 2.76906C7.99376 2.56328 9.06612 2.66889 10.0407 3.07256C11.0152 3.47623 11.8481 4.15982 12.4342 5.03688C13.0202 5.91394 13.333 6.94509 13.333 7.99992C13.333 9.41441 12.7711 10.771 11.7709 11.7712C10.7707 12.7713 9.41417 13.3333 7.99968 13.3333ZM7.99968 4.66659C7.64839 4.66636 7.30323 4.75867 6.99895 4.93421C6.69467 5.10976 6.44199 5.36236 6.26634 5.66659C6.21811 5.74246 6.18572 5.82732 6.17113 5.91604C6.15653 6.00476 6.16004 6.09551 6.18143 6.18284C6.20282 6.27017 6.24166 6.35228 6.2956 6.42421C6.34954 6.49614 6.41748 6.55642 6.49533 6.60142C6.57317 6.64641 6.65931 6.6752 6.74857 6.68604C6.83782 6.69688 6.92835 6.68955 7.0147 6.6645C7.10105 6.63945 7.18145 6.59719 7.25104 6.54027C7.32064 6.48334 7.378 6.41292 7.41968 6.33325C7.47841 6.23152 7.56299 6.14711 7.66484 6.08857C7.76669 6.03004 7.8822 5.99945 7.99968 5.99992C8.17649 5.99992 8.34606 6.07016 8.47108 6.19518C8.59611 6.32021 8.66634 6.48977 8.66634 6.66659C8.66634 6.8434 8.59611 7.01297 8.47108 7.13799C8.34606 7.26301 8.17649 7.33325 7.99968 7.33325C7.82287 7.33325 7.6533 7.40349 7.52827 7.52851C7.40325 7.65354 7.33301 7.82311 7.33301 7.99992V8.66659C7.33301 8.8434 7.40325 9.01297 7.52827 9.13799C7.6533 9.26301 7.82287 9.33325 7.99968 9.33325C8.17649 9.33325 8.34606 9.26301 8.47108 9.13799C8.59611 9.01297 8.66634 8.8434 8.66634 8.66659V8.54659C9.10726 8.3866 9.47792 8.07674 9.71353 7.67116C9.94913 7.26559 10.0347 6.79011 9.95528 6.32785C9.87585 5.86558 9.63648 5.44593 9.27901 5.14226C8.92154 4.83859 8.46871 4.67022 7.99968 4.66659Z" fill="#E04036"/>
</svg>
