<svg width="16" height="16" viewBox="0 0 16 16" fill="none" xmlns="http://www.w3.org/2000/svg">
<path d="M7.52634 10.194C7.49767 10.2257 7.47096 10.2591 7.44634 10.294C7.42111 10.3311 7.40094 10.3715 7.38634 10.414C7.36712 10.4518 7.35364 10.4922 7.34634 10.534C7.34307 10.5784 7.34307 10.6229 7.34634 10.6673C7.34409 10.7548 7.36236 10.8415 7.39968 10.9207C7.42962 11.0034 7.47739 11.0785 7.5396 11.1407C7.60181 11.2029 7.67695 11.2507 7.75968 11.2807C7.83948 11.3159 7.92576 11.3341 8.01301 11.3341C8.10026 11.3341 8.18654 11.3159 8.26634 11.2807C8.34907 11.2507 8.42421 11.2029 8.48642 11.1407C8.54863 11.0785 8.5964 11.0034 8.62634 10.9207C8.65595 10.8396 8.66953 10.7536 8.66634 10.6673C8.66685 10.5796 8.65003 10.4926 8.61686 10.4114C8.58368 10.3302 8.5348 10.2563 8.47301 10.194C8.41104 10.1315 8.3373 10.0819 8.25606 10.0481C8.17482 10.0142 8.08769 9.99679 7.99968 9.99679C7.91167 9.99679 7.82453 10.0142 7.74329 10.0481C7.66205 10.0819 7.58832 10.1315 7.52634 10.194ZM7.99968 1.33398C6.68114 1.33398 5.3922 1.72498 4.29588 2.45752C3.19955 3.19006 2.34506 4.23125 1.84048 5.44943C1.3359 6.6676 1.20387 8.00805 1.46111 9.30125C1.71834 10.5945 2.35328 11.7823 3.28563 12.7147C4.21798 13.647 5.40587 14.282 6.69908 14.5392C7.99228 14.7965 9.33273 14.6644 10.5509 14.1598C11.7691 13.6553 12.8103 12.8008 13.5428 11.7045C14.2754 10.6081 14.6663 9.31919 14.6663 8.00065C14.6663 7.12517 14.4939 6.25827 14.1589 5.44943C13.8238 4.64059 13.3328 3.90566 12.7137 3.28661C12.0947 2.66755 11.3597 2.17649 10.5509 1.84145C9.74206 1.50642 8.87516 1.33398 7.99968 1.33398ZM7.99968 13.334C6.94484 13.334 5.9137 13.0212 5.03664 12.4352C4.15957 11.8491 3.47599 11.0162 3.07232 10.0416C2.66865 9.06709 2.56304 7.99474 2.76882 6.96017C2.97461 5.9256 3.48256 4.9753 4.22844 4.22941C4.97432 3.48354 5.92463 2.97558 6.9592 2.7698C7.99376 2.56401 9.06612 2.66963 10.0407 3.07329C11.0152 3.47696 11.8481 4.16055 12.4342 5.03761C13.0202 5.91467 13.333 6.94582 13.333 8.00065C13.333 9.41514 12.7711 10.7717 11.7709 11.7719C10.7707 12.7721 9.41417 13.334 7.99968 13.334ZM7.99968 4.66732C7.64839 4.66709 7.30323 4.7594 6.99895 4.93495C6.69467 5.11049 6.44199 5.36309 6.26634 5.66732C6.21811 5.7432 6.18572 5.82805 6.17113 5.91677C6.15653 6.00549 6.16004 6.09624 6.18143 6.18358C6.20282 6.27091 6.24166 6.35301 6.2956 6.42494C6.34954 6.49687 6.41748 6.55715 6.49533 6.60215C6.57317 6.64714 6.65931 6.67593 6.74857 6.68677C6.83782 6.69761 6.92835 6.69029 7.0147 6.66524C7.10105 6.64018 7.18145 6.59792 7.25104 6.541C7.32064 6.48407 7.378 6.41365 7.41968 6.33398C7.47841 6.23225 7.56299 6.14784 7.66484 6.0893C7.76669 6.03077 7.8822 6.00019 7.99968 6.00065C8.17649 6.00065 8.34606 6.07089 8.47108 6.19591C8.59611 6.32094 8.66634 6.49051 8.66634 6.66732C8.66634 6.84413 8.59611 7.0137 8.47108 7.13872C8.34606 7.26375 8.17649 7.33398 7.99968 7.33398C7.82287 7.33398 7.6533 7.40422 7.52827 7.52925C7.40325 7.65427 7.33301 7.82384 7.33301 8.00065V8.66732C7.33301 8.84413 7.40325 9.0137 7.52827 9.13872C7.6533 9.26375 7.82287 9.33398 7.99968 9.33398C8.17649 9.33398 8.34606 9.26375 8.47108 9.13872C8.59611 9.0137 8.66634 8.84413 8.66634 8.66732V8.54732C9.10726 8.38733 9.47792 8.07747 9.71353 7.6719C9.94913 7.26632 10.0347 6.79085 9.95528 6.32858C9.87585 5.86631 9.63648 5.44666 9.27901 5.14299C8.92154 4.83933 8.46871 4.67096 7.99968 4.66732Z" fill="white"/>
</svg>
