<svg width="24" height="24" viewBox="0 0 24 24" fill="none" xmlns="http://www.w3.org/2000/svg">
<path d="M18.6665 3.66675H5.33317C4.414 3.66675 3.6665 4.41425 3.6665 5.33341V15.3334C3.6665 16.2526 4.414 17.0001 5.33317 17.0001H7.83317V20.1392L13.064 17.0001H18.6665C19.5857 17.0001 20.3332 16.2526 20.3332 15.3334V5.33341C20.3332 4.41425 19.5857 3.66675 18.6665 3.66675Z" fill="#EB554C"/>
<path d="M9.9165 8.64054V9.05721H11.4165V8.64054C11.4165 8.33411 11.6724 8.07284 11.9998 8.07284C12.3273 8.07284 12.5832 8.33411 12.5832 8.64054C12.5832 8.74451 12.5643 8.77292 12.5467 8.79666C12.5082 8.84855 12.4368 8.91038 12.2546 9.04835L12.2496 9.05213C12.1246 9.14678 11.9625 9.26964 11.8053 9.42401C11.2792 9.94148 11.2464 10.4753 11.2498 10.6158V11.6822H12.7498V10.6383C12.7572 10.6173 12.783 10.5587 12.8611 10.482C12.9453 10.3991 13.0437 10.324 13.1642 10.2326L13.179 10.2214C13.3476 10.0937 13.5769 9.92006 13.7572 9.6761C13.9534 9.41046 14.0832 9.07597 14.0832 8.64054C14.0832 7.49962 13.1427 6.58325 11.9998 6.58325C10.8569 6.58325 9.9165 7.49962 9.9165 8.64054Z" fill="white"/>
<path d="M12.7498 13.9062V12.4166H11.2498V13.9062H12.7498Z" fill="white"/>
</svg>
