<svg width="24" height="24" viewBox="0 0 24 24" fill="none" xmlns="http://www.w3.org/2000/svg">
<path d="M15.3333 7V7.66667H16H20C20.7348 7.66667 21.3333 8.26519 21.3333 9V21C21.3333 21.0884 21.2982 21.1732 21.2357 21.2357C21.1732 21.2982 21.0884 21.3333 21 21.3333H3C2.91159 21.3333 2.82681 21.2982 2.7643 21.2357C2.70179 21.1732 2.66667 21.0884 2.66667 21V11C2.66667 10.2652 3.26519 9.66667 4 9.66667H8H8.66667V9V4C8.66667 3.26519 9.26519 2.66667 10 2.66667H14C14.7348 2.66667 15.3333 3.26519 15.3333 4V7ZM4 10.3333H3.33333V11V20V20.6667H4H8H8.66667V20V11V10.3333H8H4ZM10 3.33333H9.33333V4V10V20V20.6667H10H14H14.6667V20V4V3.33333H14H10ZM20 20.6667H20.6667V20V9V8.33333H20H16H15.3333V9V20V20.6667H16H20Z" fill="#303E67" stroke="#3B56A4" stroke-width="1.33333"/>
</svg>
