<svg width="24" height="24" viewBox="0 0 24 24" fill="none" xmlns="http://www.w3.org/2000/svg">
<path d="M21.7143 6.09524L24 6.09524L20.9524 9.14286L17.9048 6.09524L20.1905 6.09524C20.1905 4.88282 19.7088 3.72006 18.8515 2.86275C17.9942 2.00544 16.8315 1.52381 15.619 1.52381L14.8571 1.58476L14.8571 0.0457138L15.619 -3.66343e-07C17.2356 -2.95681e-07 18.786 0.642175 19.929 1.78525C21.0721 2.92833 21.7143 4.47868 21.7143 6.09524Z" fill="#3B56A4"/>
<path fill-rule="evenodd" clip-rule="evenodd" d="M2.88199 2.9011C2.42401 2.9011 1.78882 3.4002 1.78882 4.3663V20.7766C1.78882 21.7427 2.42401 22.2418 2.88199 22.2418H10.8323C11.2903 22.2418 11.9255 21.7427 11.9255 20.7766V4.3663C11.9255 3.4002 11.2903 2.9011 10.8323 2.9011H2.88199ZM0 4.3663C0 2.74293 1.14455 1.14286 2.88199 1.14286H10.8323C12.5697 1.14286 13.7143 2.74293 13.7143 4.3663V20.7766C13.7143 22.3999 12.5697 24 10.8323 24H2.88199C1.14455 24 0 22.3999 0 20.7766V4.3663Z" fill="#3B56A4"/>
<path d="M6.85714 19.4286V19.44M5.71429 4.57143H8H5.71429Z" stroke="#3B56A4" stroke-width="1.5" stroke-linecap="round" stroke-linejoin="round"/>
<path fill-rule="evenodd" clip-rule="evenodd" d="M12.8596 24L20.9377 24C22.4799 24 24 22.9508 24 21.3582V14.0704C24 12.4777 22.4799 11.4286 20.9377 11.4286H14.8571V13.0683L20.9377 13.0683C21.8555 13.0683 22.3297 13.6506 22.3297 14.0704V21.3582C22.3297 21.778 21.8555 22.3602 20.9377 22.3602H14.8248C14.6553 23.2921 13.8401 23.9988 12.8596 24Z" fill="#3B56A4"/>
</svg>
