<svg width="16" height="16" viewBox="0 0 16 16" fill="none" xmlns="http://www.w3.org/2000/svg">
<path d="M6.66732 12C7.85064 11.9997 8.99985 11.6036 9.93198 10.8746L12.3913 13.334C12.6516 13.5943 13.0737 13.5943 13.334 13.334C13.5943 13.0737 13.5943 12.6516 13.334 12.3913L10.8747 9.93198C11.604 8.99976 12.0004 7.85027 12.0007 6.66665C12.0007 3.72598 9.60798 1.33331 6.66732 1.33331C3.72665 1.33331 1.33398 3.72598 1.33398 6.66665C1.33398 9.60731 3.72665 12 6.66732 12ZM6.66732 2.66665C8.87332 2.66665 10.6673 4.46065 10.6673 6.66665C10.6673 8.87265 8.87332 10.6666 6.66732 10.6666C4.46132 10.6666 2.66732 8.87265 2.66732 6.66665C2.66732 4.46065 4.46132 2.66665 6.66732 2.66665Z" fill="#303E67"/>
</svg>
