<svg width="24" height="24" viewBox="0 0 24 24" fill="none" xmlns="http://www.w3.org/2000/svg">
<path d="M10 12C10 10.9 10.9 9.99999 12 9.99999C13.1 9.99999 14 10.9 14 12C14 13.1 13.1 14 12 14C10.9 14 10 13.1 10 12ZM7.8 17.7L6.3 16.3L7.8 14.8C7.3 14 7 13 7 12C7 11 7.3 9.99999 7.8 9.29999L6.3 7.79999L7.8 6.29999L9.2 7.79999C10 7.29999 11 6.99999 12 6.99999C13 6.99999 14 7.29999 14.8 7.79999L16.3 6.29999L17.7 7.69999L16.2 9.19999C16.7 9.99999 17 11 17 12C17 13 16.7 14 16.2 14.8L17.7 16.3L16.3 17.7L14.8 16.2C14 16.7 13 17 12 17C11 17 10 16.7 9.3 16.2L7.8 17.7ZM12 8.99999C10.3 8.99999 9 10.3 9 12C9 13.7 10.3 15 12 15C13.7 15 15 13.7 15 12C15 10.3 13.7 8.99999 12 8.99999ZM20 1.99999C21.1 1.99999 22 2.89999 22 3.99999V20C22 21.1 21.1 22 20 22H19V23H15V22H9V23H5V22H4C2.9 22 2 21.1 2 20V3.99999C2 2.89999 2.9 1.99999 4 1.99999H20ZM20 20V3.99999H4V20H20Z" fill="#3B56A4"/>
</svg>
