<svg width="24" height="24" viewBox="0 0 24 24" fill="none" xmlns="http://www.w3.org/2000/svg">
<g clip-path="url(#clip0_4687_133919)">
<path d="M21.8088 11.5868L2.39266 3.95808C2.03904 3.83284 1.70383 4.18278 1.84013 4.53272L3.43144 10.257C3.52721 10.5959 3.82189 10.839 4.17184 10.8648L17.6022 11.8594C17.6906 11.8667 17.8821 11.9036 17.8821 11.992C17.8821 12.0878 17.698 12.1246 17.6096 12.132L4.34128 12.9203C3.97292 12.9424 3.65982 13.2039 3.57878 13.5649L2.13481 19.7901C2.02062 20.1401 2.35951 20.4716 2.70208 20.3427L21.8162 12.4119C22.203 12.2683 22.1956 11.7231 21.8088 11.5868Z" fill="#3B56A4"/>
</g>
<defs>
<clipPath id="clip0_4687_133919">
<rect width="24" height="24" fill="white"/>
</clipPath>
</defs>
</svg>
