<svg width="24" height="24" viewBox="0 0 24 24" fill="none" xmlns="http://www.w3.org/2000/svg">
<path d="M21.707 11.293L13.707 3.29297C13.5671 3.15316 13.389 3.05795 13.195 3.01939C13.0011 2.98082 12.8 3.00062 12.6173 3.07629C12.4346 3.15196 12.2785 3.2801 12.1686 3.44451C12.0587 3.60892 12 3.80222 12 3.99997V7.54497C9.26829 7.79776 6.72923 9.06083 4.87969 11.087C3.03015 13.1132 2.00327 15.7566 2 18.5V20C2.00016 20.2075 2.06491 20.4099 2.18527 20.5791C2.30564 20.7482 2.47565 20.8756 2.67173 20.9438C2.8678 21.0119 3.08022 21.0174 3.27953 20.9593C3.47883 20.9013 3.65514 20.7827 3.784 20.62C4.7637 19.4549 5.96576 18.4968 7.31994 17.8016C8.67413 17.1064 10.1533 16.688 11.671 16.571C11.721 16.565 11.846 16.555 12 16.545V20C12 20.1977 12.0587 20.391 12.1686 20.5554C12.2785 20.7198 12.4346 20.848 12.6173 20.9236C12.8 20.9993 13.0011 21.0191 13.195 20.9806C13.389 20.942 13.5671 20.8468 13.707 20.707L21.707 12.707C21.8945 12.5194 21.9998 12.2651 21.9998 12C21.9998 11.7348 21.8945 11.4805 21.707 11.293V11.293ZM14 17.586V15.5C14 15.2348 13.8946 14.9804 13.7071 14.7929C13.5196 14.6053 13.2652 14.5 13 14.5C12.745 14.5 11.704 14.55 11.438 14.585C8.74286 14.8333 6.17742 15.8573 4.052 17.533C4.29324 15.3274 5.33954 13.2883 6.99055 11.8061C8.64157 10.3239 10.7813 9.50282 13 9.49997C13.2652 9.49997 13.5196 9.39461 13.7071 9.20708C13.8946 9.01954 14 8.76519 14 8.49997V6.41397L19.586 12L14 17.586Z" fill="#3B56A4"/>
</svg>
