<svg width="375" height="250" viewBox="0 0 375 250" fill="none" xmlns="http://www.w3.org/2000/svg">
<rect width="375" height="250" fill="white"/>
<path d="M253 17H245L253 25V17Z" fill="#303E67"/>
<path d="M253 233L253 225L245 233L253 233Z" fill="#303E67"/>
<path d="M18.665 37.5972H21.746V39.0012H16.832V29.8232H18.665V37.5972Z" fill="#303E67"/>
<path d="M24.6309 31.2012L24.3189 30.4342L26.0349 29.4722L27.7379 30.4342L27.4259 31.2012L26.0349 30.4862L24.6309 31.2012ZM29.6099 35.1272C29.6099 35.2486 29.6012 35.3569 29.5839 35.4522C29.5752 35.5476 29.5622 35.6472 29.5449 35.7512H24.2669C24.2842 36.0979 24.3406 36.3926 24.4359 36.6352C24.5312 36.8692 24.6569 37.0599 24.8129 37.2072C24.9689 37.3546 25.1466 37.4629 25.3459 37.5322C25.5539 37.5929 25.7662 37.6232 25.9829 37.6232C26.4162 37.6232 26.7716 37.5192 27.0489 37.3112C27.3262 37.0946 27.5039 36.8129 27.5819 36.4662H29.5189C29.4496 36.8389 29.3152 37.1856 29.1159 37.5062C28.9252 37.8269 28.6782 38.1042 28.3749 38.3382C28.0802 38.5722 27.7379 38.7586 27.3479 38.8972C26.9579 39.0272 26.5332 39.0922 26.0739 39.0922C25.5452 39.0922 25.0599 39.0099 24.6179 38.8452C24.1846 38.6719 23.8076 38.4292 23.4869 38.1172C23.1662 37.7966 22.9149 37.4066 22.7329 36.9472C22.5596 36.4879 22.4729 35.9722 22.4729 35.4002C22.4729 34.8196 22.5596 34.3039 22.7329 33.8532C22.9149 33.3939 23.1662 33.0082 23.4869 32.6962C23.8076 32.3756 24.1846 32.1329 24.6179 31.9682C25.0599 31.7949 25.5452 31.7082 26.0739 31.7082C26.6199 31.7082 27.1096 31.7949 27.5429 31.9682C27.9762 32.1329 28.3446 32.3712 28.6479 32.6832C28.9599 32.9866 29.1982 33.3462 29.3629 33.7622C29.5276 34.1782 29.6099 34.6332 29.6099 35.1272ZM27.7639 34.9452C27.7812 34.6332 27.7422 34.3646 27.6469 34.1392C27.5516 33.9052 27.4259 33.7189 27.2699 33.5802C27.1139 33.4329 26.9319 33.3246 26.7239 33.2552C26.5159 33.1859 26.2992 33.1512 26.0739 33.1512C25.6059 33.1512 25.1986 33.2986 24.8519 33.5932C24.5052 33.8792 24.3102 34.3299 24.2669 34.9452H27.7639ZM26.0349 39.8332C26.2689 39.8332 26.4639 39.9112 26.6199 40.0672C26.7846 40.2319 26.8669 40.4312 26.8669 40.6652C26.8669 40.8906 26.7846 41.0812 26.6199 41.2372C26.4639 41.4019 26.2689 41.4842 26.0349 41.4842C25.8096 41.4842 25.6146 41.4019 25.4499 41.2372C25.2939 41.0812 25.2159 40.8906 25.2159 40.6652C25.2159 40.4312 25.2939 40.2319 25.4499 40.0672C25.6146 39.9112 25.8096 39.8332 26.0349 39.8332Z" fill="#303E67"/>
<path d="M35.2011 31.6952C35.6085 31.6952 35.9768 31.7646 36.3061 31.9032C36.6441 32.0332 36.9345 32.2326 37.1771 32.5012C37.4198 32.7612 37.6061 33.0862 37.7361 33.4762C37.8661 33.8662 37.9311 34.3126 37.9311 34.8152V39.0012H36.1111V35.0232C36.1111 34.4339 35.9595 33.9876 35.6561 33.6842C35.3615 33.3722 34.9628 33.2162 34.4601 33.2162C33.9488 33.2162 33.5328 33.3809 33.2121 33.7102C32.9001 34.0396 32.7441 34.5292 32.7441 35.1792V39.0012H30.9111V31.7992H32.7441V33.2422C32.9435 32.7482 33.2598 32.3669 33.6931 32.0982C34.1265 31.8296 34.6291 31.6952 35.2011 31.6952Z" fill="#303E67"/>
<path d="M43.8339 31.6952C44.2413 31.6952 44.6096 31.7646 44.9389 31.9032C45.2769 32.0332 45.5673 32.2326 45.8099 32.5012C46.0526 32.7612 46.2389 33.0862 46.3689 33.4762C46.4989 33.8662 46.5639 34.3126 46.5639 34.8152V39.0012H44.7439V35.0232C44.7439 34.4339 44.5923 33.9876 44.2889 33.6842C43.9943 33.3722 43.5956 33.2162 43.0929 33.2162C42.5816 33.2162 42.1656 33.3809 41.8449 33.7102C41.5329 34.0396 41.3769 34.5292 41.3769 35.1792V39.0012H39.5439V29.3812H41.3769V33.2422C41.5763 32.7482 41.8926 32.3669 42.3259 32.0982C42.7593 31.8296 43.2619 31.6952 43.8339 31.6952Z" fill="#303E67"/>
<path d="M53.8288 31.7082C54.4528 31.7082 54.9771 31.8556 55.4018 32.1502C55.8265 32.4449 56.1298 32.8262 56.3118 33.2942V29.3812H58.1318V39.0012H56.3118V37.4932C56.1298 37.9699 55.8265 38.3556 55.4018 38.6502C54.9771 38.9449 54.4528 39.0922 53.8288 39.0922C53.3781 39.0922 52.9578 39.0099 52.5678 38.8452C52.1778 38.6719 51.8398 38.4292 51.5538 38.1172C51.2678 37.7966 51.0425 37.4109 50.8778 36.9602C50.7218 36.5009 50.6438 35.9809 50.6438 35.4002C50.6438 34.8196 50.7218 34.3039 50.8778 33.8532C51.0425 33.3939 51.2678 33.0082 51.5538 32.6962C51.8398 32.3756 52.1778 32.1329 52.5678 31.9682C52.9578 31.7949 53.3781 31.7082 53.8288 31.7082ZM54.4008 33.3072C53.8375 33.3072 53.3781 33.4892 53.0228 33.8532C52.6761 34.2172 52.5028 34.7329 52.5028 35.4002C52.5028 36.0589 52.6761 36.5702 53.0228 36.9342C53.3781 37.2982 53.8375 37.4802 54.4008 37.4802C54.6781 37.4802 54.9295 37.4326 55.1548 37.3372C55.3888 37.2419 55.5925 37.1032 55.7658 36.9212C55.9391 36.7392 56.0735 36.5226 56.1688 36.2712C56.2641 36.0112 56.3118 35.7209 56.3118 35.4002C56.3118 35.0709 56.2641 34.7806 56.1688 34.5292C56.0735 34.2692 55.9391 34.0482 55.7658 33.8662C55.5925 33.6842 55.3888 33.5456 55.1548 33.4502C54.9295 33.3549 54.6781 33.3072 54.4008 33.3072Z" fill="#303E67"/>
<path d="M64.265 31.2532L62.029 30.1612L62.497 29.1992L64.603 30.5252L64.265 31.2532ZM68.49 30.3692C68.49 30.7506 68.4423 31.0929 68.347 31.3962C68.2516 31.6909 68.1216 31.9466 67.957 32.1632C67.7923 32.3712 67.5973 32.5489 67.372 32.6962C67.1553 32.8349 66.9256 32.9389 66.683 33.0082V39.0012H64.85V37.5452C64.6506 38.0392 64.3343 38.4206 63.901 38.6892C63.4676 38.9579 62.965 39.0922 62.393 39.0922C61.9856 39.0922 61.613 39.0272 61.275 38.8972C60.9456 38.7586 60.6596 38.5592 60.417 38.2992C60.1743 38.0306 59.988 37.7056 59.858 37.3242C59.728 36.9342 59.663 36.4879 59.663 35.9852V31.7992H61.483V35.7772C61.483 36.3666 61.6303 36.8172 61.925 37.1292C62.2283 37.4326 62.627 37.5842 63.121 37.5842C63.641 37.5842 64.057 37.4196 64.369 37.0902C64.6896 36.7609 64.85 36.2712 64.85 35.6212V31.7992H65.838C66.254 31.7992 66.5876 31.6996 66.839 31.5002C67.0903 31.2922 67.216 30.9152 67.216 30.3692H68.49Z" fill="#303E67"/>
<path d="M72.6396 31.6952C73.0469 31.6952 73.4153 31.7646 73.7446 31.9032C74.0826 32.0332 74.3729 32.2326 74.6156 32.5012C74.8583 32.7612 75.0446 33.0862 75.1746 33.4762C75.3046 33.8662 75.3696 34.3126 75.3696 34.8152V39.0012H73.5496V35.0232C73.5496 34.4339 73.3979 33.9876 73.0946 33.6842C72.7999 33.3722 72.4013 33.2162 71.8986 33.2162C71.3873 33.2162 70.9713 33.3809 70.6506 33.7102C70.3386 34.0396 70.1826 34.5292 70.1826 35.1792V39.0012H68.3496V31.7992H70.1826V33.2422C70.3819 32.7482 70.6983 32.3669 71.1316 32.0982C71.5649 31.8296 72.0676 31.6952 72.6396 31.6952Z" fill="#303E67"/>
<path d="M79.8034 31.7082C80.4274 31.7082 80.9518 31.8556 81.3764 32.1502C81.8098 32.4449 82.1131 32.8262 82.2864 33.2942V31.7992H84.1064V39.0272C84.1064 39.5212 84.0328 39.9806 83.8854 40.4052C83.7381 40.8386 83.5171 41.2112 83.2224 41.5232C82.9364 41.8352 82.5724 42.0822 82.1304 42.2642C81.6971 42.4462 81.1944 42.5372 80.6224 42.5372C79.5564 42.5372 78.7071 42.2816 78.0744 41.7702C77.4504 41.2676 77.0691 40.6046 76.9304 39.7812H78.7374C78.8328 40.1366 79.0278 40.4182 79.3224 40.6262C79.6171 40.8342 80.0071 40.9382 80.4924 40.9382C80.7438 40.9382 80.9778 40.8992 81.1944 40.8212C81.4111 40.7519 81.6018 40.6392 81.7664 40.4832C81.9311 40.3272 82.0568 40.1279 82.1434 39.8852C82.2388 39.6512 82.2864 39.3652 82.2864 39.0272V37.4932C82.1131 37.9699 81.8098 38.3556 81.3764 38.6502C80.9518 38.9449 80.4274 39.0922 79.8034 39.0922C79.3528 39.0922 78.9324 39.0099 78.5424 38.8452C78.1524 38.6719 77.8144 38.4292 77.5284 38.1172C77.2424 37.7966 77.0171 37.4109 76.8524 36.9602C76.6964 36.5009 76.6184 35.9809 76.6184 35.4002C76.6184 34.8196 76.6964 34.3039 76.8524 33.8532C77.0171 33.3939 77.2424 33.0082 77.5284 32.6962C77.8144 32.3756 78.1524 32.1329 78.5424 31.9682C78.9324 31.7949 79.3528 31.7082 79.8034 31.7082ZM80.3754 33.3072C79.8121 33.3072 79.3528 33.4892 78.9974 33.8532C78.6508 34.2172 78.4774 34.7329 78.4774 35.4002C78.4774 36.0589 78.6508 36.5702 78.9974 36.9342C79.3528 37.2982 79.8121 37.4802 80.3754 37.4802C80.6528 37.4802 80.9041 37.4326 81.1294 37.3372C81.3634 37.2419 81.5671 37.1032 81.7404 36.9212C81.9137 36.7392 82.0481 36.5226 82.1434 36.2712C82.2388 36.0112 82.2864 35.7209 82.2864 35.4002C82.2864 35.0709 82.2388 34.7806 82.1434 34.5292C82.0481 34.2692 81.9137 34.0482 81.7404 33.8662C81.5671 33.6842 81.3634 33.5456 81.1294 33.4502C80.9041 33.3549 80.6528 33.3072 80.3754 33.3072Z" fill="#303E67"/>
<path d="M97.7636 31.6952C98.6303 31.6952 99.3193 31.9639 99.8306 32.5012C100.342 33.0299 100.598 33.8012 100.598 34.8152V39.0012H98.7776V35.0232C98.7776 34.4512 98.6346 34.0222 98.3486 33.7362C98.0626 33.4416 97.677 33.2942 97.1916 33.2942C96.6976 33.2942 96.2946 33.4502 95.9826 33.7622C95.6706 34.0742 95.5146 34.5466 95.5146 35.1792V39.0012H93.6946V35.0232C93.6946 34.4512 93.5516 34.0222 93.2656 33.7362C92.9796 33.4416 92.594 33.2942 92.1086 33.2942C91.6146 33.2942 91.2116 33.4502 90.8996 33.7622C90.5876 34.0742 90.4316 34.5466 90.4316 35.1792V39.0012H88.5986V31.7992H90.4316V33.1642C90.6223 32.6962 90.9213 32.3366 91.3286 32.0852C91.7446 31.8252 92.2256 31.6952 92.7716 31.6952C93.3436 31.6952 93.8463 31.8339 94.2796 32.1112C94.713 32.3799 95.038 32.7786 95.2546 33.3072C95.48 32.8132 95.8136 32.4232 96.2556 32.1372C96.6976 31.8426 97.2003 31.6952 97.7636 31.6952Z" fill="#303E67"/>
<path d="M109.098 31.7992V39.0012H107.265V37.5452C107.066 38.0392 106.749 38.4206 106.316 38.6892C105.883 38.9579 105.38 39.0922 104.808 39.0922C104.401 39.0922 104.028 39.0272 103.69 38.8972C103.361 38.7586 103.075 38.5592 102.832 38.2992C102.589 38.0306 102.403 37.7056 102.273 37.3242C102.143 36.9342 102.078 36.4879 102.078 35.9852V31.7992H103.898V35.7772C103.898 36.3666 104.045 36.8172 104.34 37.1292C104.643 37.4326 105.042 37.5842 105.536 37.5842C106.056 37.5842 106.472 37.4196 106.784 37.0902C107.105 36.7609 107.265 36.2712 107.265 35.6212V31.7992H109.098Z" fill="#303E67"/>
<path d="M113.586 31.7082C114.21 31.7082 114.734 31.8556 115.159 32.1502C115.592 32.4449 115.895 32.8262 116.069 33.2942V31.7992H117.889V39.0012H116.069V37.4932C115.895 37.9699 115.592 38.3556 115.159 38.6502C114.734 38.9449 114.21 39.0922 113.586 39.0922C113.135 39.0922 112.715 39.0099 112.325 38.8452C111.935 38.6719 111.597 38.4292 111.311 38.1172C111.025 37.7966 110.799 37.4109 110.635 36.9602C110.479 36.5009 110.401 35.9809 110.401 35.4002C110.401 34.8196 110.479 34.3039 110.635 33.8532C110.799 33.3939 111.025 33.0082 111.311 32.6962C111.597 32.3756 111.935 32.1329 112.325 31.9682C112.715 31.7949 113.135 31.7082 113.586 31.7082ZM114.158 33.3072C113.594 33.3072 113.135 33.4892 112.78 33.8532C112.433 34.2172 112.26 34.7329 112.26 35.4002C112.26 36.0589 112.433 36.5702 112.78 36.9342C113.135 37.2982 113.594 37.4802 114.158 37.4802C114.435 37.4802 114.686 37.4326 114.912 37.3372C115.146 37.2419 115.349 37.1032 115.523 36.9212C115.696 36.7392 115.83 36.5226 115.926 36.2712C116.021 36.0112 116.069 35.7209 116.069 35.4002C116.069 35.0709 116.021 34.7806 115.926 34.5292C115.83 34.2692 115.696 34.0482 115.523 33.8662C115.349 33.6842 115.146 33.5456 114.912 33.4502C114.686 33.3549 114.435 33.3072 114.158 33.3072Z" fill="#303E67"/>
<path d="M260.28 30.5266C260.984 30.5266 261.608 30.6266 262.152 30.8266C262.704 31.0266 263.168 31.3146 263.544 31.6906C263.928 32.0586 264.22 32.5026 264.42 33.0226C264.62 33.5346 264.72 34.1106 264.72 34.7506C264.72 35.3826 264.62 35.9586 264.42 36.4786C264.22 36.9986 263.928 37.4466 263.544 37.8226C263.168 38.1906 262.704 38.4786 262.152 38.6866C261.608 38.8946 260.984 38.9986 260.28 38.9986H257.268V35.4226H256.356V34.0666H257.268V30.5266H260.28ZM260.136 37.4866C261.056 37.4866 261.764 37.2506 262.26 36.7786C262.756 36.2986 263.004 35.6226 263.004 34.7506C263.004 33.8786 262.756 33.2026 262.26 32.7226C261.764 32.2426 261.056 32.0026 260.136 32.0026H258.96V34.0666H261.012V35.4226H258.96V37.4866H260.136Z" fill="#303E67"/>
<path d="M269.282 31.7266C268.762 31.7266 268.35 31.5746 268.046 31.2706C267.75 30.9586 267.602 30.5386 267.602 30.0106V29.8906H268.31C268.31 30.1466 268.386 30.3466 268.538 30.4906C268.69 30.6266 268.938 30.6946 269.282 30.6946C269.626 30.6946 269.874 30.6266 270.026 30.4906C270.178 30.3466 270.254 30.1466 270.254 29.8906H270.962V30.0106C270.962 30.5386 270.81 30.9586 270.506 31.2706C270.21 31.5746 269.802 31.7266 269.282 31.7266ZM268.598 32.2666C269.174 32.2666 269.658 32.4026 270.05 32.6746C270.45 32.9466 270.73 33.2986 270.89 33.7306V32.3506H272.57V38.9986H270.89V37.6066C270.73 38.0466 270.45 38.4026 270.05 38.6746C269.658 38.9466 269.174 39.0826 268.598 39.0826C268.182 39.0826 267.794 39.0066 267.434 38.8546C267.074 38.6946 266.762 38.4706 266.498 38.1826C266.234 37.8866 266.026 37.5306 265.874 37.1146C265.73 36.6906 265.658 36.2106 265.658 35.6746C265.658 35.1386 265.73 34.6626 265.874 34.2466C266.026 33.8226 266.234 33.4666 266.498 33.1786C266.762 32.8826 267.074 32.6586 267.434 32.5066C267.794 32.3466 268.182 32.2666 268.598 32.2666ZM269.126 33.7426C268.606 33.7426 268.182 33.9106 267.854 34.2466C267.534 34.5826 267.374 35.0586 267.374 35.6746C267.374 36.2826 267.534 36.7546 267.854 37.0906C268.182 37.4266 268.606 37.5946 269.126 37.5946C269.382 37.5946 269.614 37.5506 269.822 37.4626C270.038 37.3746 270.226 37.2466 270.386 37.0786C270.546 36.9106 270.67 36.7106 270.758 36.4786C270.846 36.2386 270.89 35.9706 270.89 35.6746C270.89 35.3706 270.846 35.1026 270.758 34.8706C270.67 34.6306 270.546 34.4266 270.386 34.2586C270.226 34.0906 270.038 33.9626 269.822 33.8746C269.614 33.7866 269.382 33.7426 269.126 33.7426ZM268.526 40.5346C268.526 40.3186 268.598 40.1346 268.742 39.9826C268.894 39.8386 269.074 39.7666 269.282 39.7666C269.498 39.7666 269.678 39.8386 269.822 39.9826C269.974 40.1346 270.05 40.3186 270.05 40.5346C270.05 40.7426 269.974 40.9186 269.822 41.0626C269.678 41.2146 269.498 41.2906 269.282 41.2906C269.074 41.2906 268.894 41.2146 268.742 41.0626C268.598 40.9186 268.526 40.7426 268.526 40.5346Z" fill="#303E67"/>
<path d="M277.656 37.5466V38.9986H276.768C276.424 38.9986 276.108 38.9586 275.82 38.8786C275.54 38.7986 275.296 38.6706 275.088 38.4946C274.888 38.3106 274.732 38.0706 274.62 37.7746C274.516 37.4706 274.464 37.0986 274.464 36.6586V33.7786H273.54V32.3506H274.464V30.7066H276.156V32.3506H277.644V33.7786H276.156V36.6826C276.156 37.0106 276.22 37.2386 276.348 37.3666C276.476 37.4866 276.692 37.5466 276.996 37.5466H277.656Z" fill="#303E67"/>
<path d="M283.179 30.1186V38.9986H281.487V30.1186H283.179Z" fill="#303E67"/>
<path d="M286.365 31.7986L286.077 31.0906L287.661 30.2026L289.233 31.0906L288.945 31.7986L287.661 31.1386L286.365 31.7986ZM290.961 35.4226C290.961 35.5346 290.953 35.6346 290.937 35.7226C290.929 35.8106 290.917 35.9026 290.901 35.9986H286.029C286.045 36.3186 286.097 36.5906 286.185 36.8146C286.273 37.0306 286.389 37.2066 286.533 37.3426C286.677 37.4786 286.841 37.5786 287.025 37.6426C287.217 37.6986 287.413 37.7266 287.613 37.7266C288.013 37.7266 288.341 37.6306 288.597 37.4386C288.853 37.2386 289.017 36.9786 289.089 36.6586H290.877C290.813 37.0026 290.689 37.3226 290.505 37.6186C290.329 37.9146 290.101 38.1706 289.821 38.3866C289.549 38.6026 289.233 38.7746 288.873 38.9026C288.513 39.0226 288.121 39.0826 287.697 39.0826C287.209 39.0826 286.761 39.0066 286.353 38.8546C285.953 38.6946 285.605 38.4706 285.309 38.1826C285.013 37.8866 284.781 37.5266 284.613 37.1026C284.453 36.6786 284.373 36.2026 284.373 35.6746C284.373 35.1386 284.453 34.6626 284.613 34.2466C284.781 33.8226 285.013 33.4666 285.309 33.1786C285.605 32.8826 285.953 32.6586 286.353 32.5066C286.761 32.3466 287.209 32.2666 287.697 32.2666C288.201 32.2666 288.653 32.3466 289.053 32.5066C289.453 32.6586 289.793 32.8786 290.073 33.1666C290.361 33.4466 290.581 33.7786 290.733 34.1626C290.885 34.5466 290.961 34.9666 290.961 35.4226ZM289.257 35.2546C289.273 34.9666 289.237 34.7186 289.149 34.5106C289.061 34.2946 288.945 34.1226 288.801 33.9946C288.657 33.8586 288.489 33.7586 288.297 33.6946C288.105 33.6306 287.905 33.5986 287.697 33.5986C287.265 33.5986 286.889 33.7346 286.569 34.0066C286.249 34.2706 286.069 34.6866 286.029 35.2546H289.257ZM287.661 39.7666C287.877 39.7666 288.057 39.8386 288.201 39.9826C288.353 40.1346 288.429 40.3186 288.429 40.5346C288.429 40.7426 288.353 40.9186 288.201 41.0626C288.057 41.2146 287.877 41.2906 287.661 41.2906C287.453 41.2906 287.273 41.2146 287.121 41.0626C286.977 40.9186 286.905 40.7426 286.905 40.5346C286.905 40.3186 286.977 40.1346 287.121 39.9826C287.273 39.8386 287.453 39.7666 287.661 39.7666Z" fill="#303E67"/>
<path d="M296.122 32.2546C296.498 32.2546 296.838 32.3186 297.142 32.4466C297.454 32.5666 297.722 32.7506 297.946 32.9986C298.17 33.2386 298.342 33.5386 298.462 33.8986C298.582 34.2586 298.642 34.6706 298.642 35.1346V38.9986H296.962V35.3266C296.962 34.7826 296.822 34.3706 296.542 34.0906C296.27 33.8026 295.902 33.6586 295.438 33.6586C294.966 33.6586 294.582 33.8106 294.286 34.1146C293.998 34.4186 293.854 34.8706 293.854 35.4706V38.9986H292.162V32.3506H293.854V33.6826C294.038 33.2266 294.33 32.8746 294.73 32.6266C295.13 32.3786 295.594 32.2546 296.122 32.2546Z" fill="#303E67"/>
<path d="M304.091 32.2546C304.467 32.2546 304.807 32.3186 305.111 32.4466C305.423 32.5666 305.691 32.7506 305.915 32.9986C306.139 33.2386 306.311 33.5386 306.431 33.8986C306.551 34.2586 306.611 34.6706 306.611 35.1346V38.9986H304.931V35.3266C304.931 34.7826 304.791 34.3706 304.511 34.0906C304.239 33.8026 303.871 33.6586 303.407 33.6586C302.935 33.6586 302.551 33.8106 302.255 34.1146C301.967 34.4186 301.823 34.8706 301.823 35.4706V38.9986H300.131V30.1186H301.823V33.6826C302.007 33.2266 302.299 32.8746 302.699 32.6266C303.099 32.3786 303.563 32.2546 304.091 32.2546Z" fill="#303E67"/>
<path d="M319.173 32.2546C319.973 32.2546 320.609 32.5026 321.081 32.9986C321.553 33.4866 321.789 34.1986 321.789 35.1346V38.9986H320.109V35.3266C320.109 34.7986 319.977 34.4026 319.713 34.1386C319.449 33.8666 319.093 33.7306 318.645 33.7306C318.189 33.7306 317.817 33.8746 317.529 34.1626C317.241 34.4506 317.097 34.8866 317.097 35.4706V38.9986H315.417V35.3266C315.417 34.7986 315.285 34.4026 315.021 34.1386C314.757 33.8666 314.401 33.7306 313.953 33.7306C313.497 33.7306 313.125 33.8746 312.837 34.1626C312.549 34.4506 312.405 34.8866 312.405 35.4706V38.9986H310.713V32.3506H312.405V33.6106C312.581 33.1786 312.857 32.8466 313.233 32.6146C313.617 32.3746 314.061 32.2546 314.565 32.2546C315.093 32.2546 315.557 32.3826 315.957 32.6386C316.357 32.8866 316.657 33.2546 316.857 33.7426C317.065 33.2866 317.373 32.9266 317.781 32.6626C318.189 32.3906 318.653 32.2546 319.173 32.2546Z" fill="#303E67"/>
<path d="M329.636 32.3506V38.9986H327.944V37.6546C327.76 38.1106 327.468 38.4626 327.068 38.7106C326.668 38.9586 326.204 39.0826 325.676 39.0826C325.3 39.0826 324.956 39.0226 324.644 38.9026C324.34 38.7746 324.076 38.5906 323.852 38.3506C323.628 38.1026 323.456 37.8026 323.336 37.4506C323.216 37.0906 323.156 36.6786 323.156 36.2146V32.3506H324.836V36.0226C324.836 36.5666 324.972 36.9826 325.244 37.2706C325.524 37.5506 325.892 37.6906 326.348 37.6906C326.828 37.6906 327.212 37.5386 327.5 37.2346C327.796 36.9306 327.944 36.4786 327.944 35.8786V32.3506H329.636Z" fill="#303E67"/>
<path d="M333.778 32.2666C334.354 32.2666 334.838 32.4026 335.23 32.6746C335.63 32.9466 335.91 33.2986 336.07 33.7306V32.3506H337.75V38.9986H336.07V37.6066C335.91 38.0466 335.63 38.4026 335.23 38.6746C334.838 38.9466 334.354 39.0826 333.778 39.0826C333.362 39.0826 332.974 39.0066 332.614 38.8546C332.254 38.6946 331.942 38.4706 331.678 38.1826C331.414 37.8866 331.206 37.5306 331.054 37.1146C330.91 36.6906 330.838 36.2106 330.838 35.6746C330.838 35.1386 330.91 34.6626 331.054 34.2466C331.206 33.8226 331.414 33.4666 331.678 33.1786C331.942 32.8826 332.254 32.6586 332.614 32.5066C332.974 32.3466 333.362 32.2666 333.778 32.2666ZM334.306 33.7426C333.786 33.7426 333.362 33.9106 333.034 34.2466C332.714 34.5826 332.554 35.0586 332.554 35.6746C332.554 36.2826 332.714 36.7546 333.034 37.0906C333.362 37.4266 333.786 37.5946 334.306 37.5946C334.562 37.5946 334.794 37.5506 335.002 37.4626C335.218 37.3746 335.406 37.2466 335.566 37.0786C335.726 36.9106 335.85 36.7106 335.938 36.4786C336.026 36.2386 336.07 35.9706 336.07 35.6746C336.07 35.3706 336.026 35.1026 335.938 34.8706C335.85 34.6306 335.726 34.4266 335.566 34.2586C335.406 34.0906 335.218 33.9626 335.002 33.8746C334.794 33.7866 334.562 33.7426 334.306 33.7426Z" fill="#303E67"/>
<path d="M351.029 30.6226V38.9986H349.349V33.1546L347.201 38.9986H345.737L343.589 33.1786V38.9986H341.897V30.6226H343.949L346.493 36.9226L348.989 30.6226H351.029Z" fill="#303E67"/>
<path d="M354.253 35.8546V38.9986H352.561V30.5266H355.645C356.157 30.5266 356.601 30.5906 356.977 30.7186C357.361 30.8466 357.677 31.0306 357.925 31.2706C358.173 31.5026 358.357 31.7826 358.477 32.1106C358.605 32.4386 358.669 32.8026 358.669 33.2026C358.669 33.5946 358.605 33.9546 358.477 34.2826C358.349 34.6026 358.157 34.8826 357.901 35.1226C357.645 35.3546 357.329 35.5346 356.953 35.6626C356.577 35.7906 356.141 35.8546 355.645 35.8546H354.253ZM355.465 34.4986C356.017 34.4986 356.401 34.3826 356.617 34.1506C356.841 33.9106 356.953 33.5946 356.953 33.2026C356.953 32.7946 356.841 32.4746 356.617 32.2426C356.401 32.0106 356.017 31.8946 355.465 31.8946H354.253V34.4986H355.465Z" fill="#303E67"/>
<path d="M264.663 210.527C265.367 210.527 265.991 210.627 266.535 210.827C267.087 211.027 267.551 211.315 267.927 211.691C268.311 212.059 268.603 212.503 268.803 213.023C269.003 213.535 269.103 214.111 269.103 214.751C269.103 215.383 269.003 215.959 268.803 216.479C268.603 216.999 268.311 217.447 267.927 217.823C267.551 218.191 267.087 218.479 266.535 218.687C265.991 218.895 265.367 218.999 264.663 218.999H261.651V215.423H260.739V214.067H261.651V210.527H264.663ZM264.519 217.487C265.439 217.487 266.147 217.251 266.643 216.779C267.139 216.299 267.387 215.623 267.387 214.751C267.387 213.879 267.139 213.203 266.643 212.723C266.147 212.243 265.439 212.003 264.519 212.003H263.343V214.067H265.395V215.423H263.343V217.487H264.519Z" fill="#303E67"/>
<path d="M273.665 211.727C273.145 211.727 272.733 211.575 272.429 211.271C272.133 210.959 271.985 210.539 271.985 210.011V209.891H272.693C272.693 210.147 272.769 210.347 272.921 210.491C273.073 210.627 273.321 210.695 273.665 210.695C274.009 210.695 274.257 210.627 274.409 210.491C274.561 210.347 274.637 210.147 274.637 209.891H275.345V210.011C275.345 210.539 275.193 210.959 274.889 211.271C274.593 211.575 274.185 211.727 273.665 211.727ZM272.981 212.267C273.557 212.267 274.041 212.403 274.433 212.675C274.833 212.947 275.113 213.299 275.273 213.731V212.351H276.953V218.999H275.273V217.607C275.113 218.047 274.833 218.403 274.433 218.675C274.041 218.947 273.557 219.083 272.981 219.083C272.565 219.083 272.177 219.007 271.817 218.855C271.457 218.695 271.145 218.471 270.881 218.183C270.617 217.887 270.409 217.531 270.257 217.115C270.113 216.691 270.041 216.211 270.041 215.675C270.041 215.139 270.113 214.663 270.257 214.247C270.409 213.823 270.617 213.467 270.881 213.179C271.145 212.883 271.457 212.659 271.817 212.507C272.177 212.347 272.565 212.267 272.981 212.267ZM273.509 213.743C272.989 213.743 272.565 213.911 272.237 214.247C271.917 214.583 271.757 215.059 271.757 215.675C271.757 216.283 271.917 216.755 272.237 217.091C272.565 217.427 272.989 217.595 273.509 217.595C273.765 217.595 273.997 217.551 274.205 217.463C274.421 217.375 274.609 217.247 274.769 217.079C274.929 216.911 275.053 216.711 275.141 216.479C275.229 216.239 275.273 215.971 275.273 215.675C275.273 215.371 275.229 215.103 275.141 214.871C275.053 214.631 274.929 214.427 274.769 214.259C274.609 214.091 274.421 213.963 274.205 213.875C273.997 213.787 273.765 213.743 273.509 213.743ZM272.909 220.535C272.909 220.319 272.981 220.135 273.125 219.983C273.277 219.839 273.457 219.767 273.665 219.767C273.881 219.767 274.061 219.839 274.205 219.983C274.357 220.135 274.433 220.319 274.433 220.535C274.433 220.743 274.357 220.919 274.205 221.063C274.061 221.215 273.881 221.291 273.665 221.291C273.457 221.291 273.277 221.215 273.125 221.063C272.981 220.919 272.909 220.743 272.909 220.535Z" fill="#303E67"/>
<path d="M282.039 217.547V218.999H281.151C280.807 218.999 280.491 218.959 280.203 218.879C279.923 218.799 279.679 218.671 279.471 218.495C279.271 218.311 279.115 218.071 279.003 217.775C278.899 217.471 278.847 217.099 278.847 216.659V213.779H277.923V212.351H278.847V210.707H280.539V212.351H282.027V213.779H280.539V216.683C280.539 217.011 280.603 217.239 280.731 217.367C280.859 217.487 281.075 217.547 281.379 217.547H282.039Z" fill="#303E67"/>
<path d="M287.561 210.119V218.999H285.869V210.119H287.561Z" fill="#303E67"/>
<path d="M290.748 211.799L290.46 211.091L292.044 210.203L293.616 211.091L293.328 211.799L292.044 211.139L290.748 211.799ZM295.344 215.423C295.344 215.535 295.336 215.635 295.32 215.723C295.312 215.811 295.3 215.903 295.284 215.999H290.412C290.428 216.319 290.48 216.591 290.568 216.815C290.656 217.031 290.772 217.207 290.916 217.343C291.06 217.479 291.224 217.579 291.408 217.643C291.6 217.699 291.796 217.727 291.996 217.727C292.396 217.727 292.724 217.631 292.98 217.439C293.236 217.239 293.4 216.979 293.472 216.659H295.26C295.196 217.003 295.072 217.323 294.888 217.619C294.712 217.915 294.484 218.171 294.204 218.387C293.932 218.603 293.616 218.775 293.256 218.903C292.896 219.023 292.504 219.083 292.08 219.083C291.592 219.083 291.144 219.007 290.736 218.855C290.336 218.695 289.988 218.471 289.692 218.183C289.396 217.887 289.164 217.527 288.996 217.103C288.836 216.679 288.756 216.203 288.756 215.675C288.756 215.139 288.836 214.663 288.996 214.247C289.164 213.823 289.396 213.467 289.692 213.179C289.988 212.883 290.336 212.659 290.736 212.507C291.144 212.347 291.592 212.267 292.08 212.267C292.584 212.267 293.036 212.347 293.436 212.507C293.836 212.659 294.176 212.879 294.456 213.167C294.744 213.447 294.964 213.779 295.116 214.163C295.268 214.547 295.344 214.967 295.344 215.423ZM293.64 215.255C293.656 214.967 293.62 214.719 293.532 214.511C293.444 214.295 293.328 214.123 293.184 213.995C293.04 213.859 292.872 213.759 292.68 213.695C292.488 213.631 292.288 213.599 292.08 213.599C291.648 213.599 291.272 213.735 290.952 214.007C290.632 214.271 290.452 214.687 290.412 215.255H293.64ZM292.044 219.767C292.26 219.767 292.44 219.839 292.584 219.983C292.736 220.135 292.812 220.319 292.812 220.535C292.812 220.743 292.736 220.919 292.584 221.063C292.44 221.215 292.26 221.291 292.044 221.291C291.836 221.291 291.656 221.215 291.504 221.063C291.36 220.919 291.288 220.743 291.288 220.535C291.288 220.319 291.36 220.135 291.504 219.983C291.656 219.839 291.836 219.767 292.044 219.767Z" fill="#303E67"/>
<path d="M300.505 212.255C300.881 212.255 301.221 212.319 301.525 212.447C301.837 212.567 302.105 212.751 302.329 212.999C302.553 213.239 302.725 213.539 302.845 213.899C302.965 214.259 303.025 214.671 303.025 215.135V218.999H301.345V215.327C301.345 214.783 301.205 214.371 300.925 214.091C300.653 213.803 300.285 213.659 299.821 213.659C299.349 213.659 298.965 213.811 298.669 214.115C298.381 214.419 298.237 214.871 298.237 215.471V218.999H296.545V212.351H298.237V213.683C298.421 213.227 298.713 212.875 299.113 212.627C299.513 212.379 299.977 212.255 300.505 212.255Z" fill="#303E67"/>
<path d="M308.474 212.255C308.85 212.255 309.19 212.319 309.494 212.447C309.806 212.567 310.074 212.751 310.298 212.999C310.522 213.239 310.694 213.539 310.814 213.899C310.934 214.259 310.994 214.671 310.994 215.135V218.999H309.314V215.327C309.314 214.783 309.174 214.371 308.894 214.091C308.622 213.803 308.254 213.659 307.79 213.659C307.318 213.659 306.934 213.811 306.638 214.115C306.35 214.419 306.206 214.871 306.206 215.471V218.999H304.514V210.119H306.206V213.683C306.39 213.227 306.682 212.875 307.082 212.627C307.482 212.379 307.946 212.255 308.474 212.255Z" fill="#303E67"/>
<path d="M319.068 212.267C319.492 212.267 319.88 212.347 320.232 212.507C320.592 212.659 320.904 212.883 321.168 213.179C321.432 213.467 321.636 213.823 321.78 214.247C321.932 214.663 322.008 215.139 322.008 215.675C322.008 216.211 321.932 216.691 321.78 217.115C321.636 217.531 321.432 217.887 321.168 218.183C320.904 218.471 320.592 218.695 320.232 218.855C319.88 219.007 319.492 219.083 319.068 219.083C318.492 219.083 318.008 218.947 317.616 218.675C317.224 218.403 316.948 218.047 316.788 217.607V218.999H315.096V210.119H316.788V213.731C316.948 213.299 317.224 212.947 317.616 212.675C318.008 212.403 318.492 212.267 319.068 212.267ZM318.54 213.743C318.292 213.743 318.06 213.787 317.844 213.875C317.628 213.963 317.44 214.091 317.28 214.259C317.12 214.427 316.996 214.631 316.908 214.871C316.82 215.103 316.776 215.371 316.776 215.675C316.776 215.971 316.82 216.239 316.908 216.479C316.996 216.711 317.12 216.911 317.28 217.079C317.44 217.247 317.628 217.375 317.844 217.463C318.06 217.551 318.292 217.595 318.54 217.595C319.068 217.595 319.492 217.427 319.812 217.091C320.132 216.755 320.292 216.283 320.292 215.675C320.292 215.059 320.132 214.583 319.812 214.247C319.492 213.911 319.068 213.743 318.54 213.743Z" fill="#303E67"/>
<path d="M327.837 210.815L325.641 211.751L325.353 211.139L327.489 209.963L327.837 210.815ZM325.809 212.267C326.385 212.267 326.869 212.403 327.261 212.675C327.661 212.947 327.941 213.299 328.101 213.731V212.351H329.781V218.999H328.101V217.607C327.941 218.047 327.661 218.403 327.261 218.675C326.869 218.947 326.385 219.083 325.809 219.083C325.393 219.083 325.005 219.007 324.645 218.855C324.285 218.695 323.973 218.471 323.709 218.183C323.445 217.887 323.237 217.531 323.085 217.115C322.941 216.691 322.869 216.211 322.869 215.675C322.869 215.139 322.941 214.663 323.085 214.247C323.237 213.823 323.445 213.467 323.709 213.179C323.973 212.883 324.285 212.659 324.645 212.507C325.005 212.347 325.393 212.267 325.809 212.267ZM326.337 213.743C325.817 213.743 325.393 213.911 325.065 214.247C324.745 214.583 324.585 215.059 324.585 215.675C324.585 216.283 324.745 216.755 325.065 217.091C325.393 217.427 325.817 217.595 326.337 217.595C326.593 217.595 326.825 217.551 327.033 217.463C327.249 217.375 327.437 217.247 327.597 217.079C327.757 216.911 327.881 216.711 327.969 216.479C328.057 216.239 328.101 215.971 328.101 215.675C328.101 215.371 328.057 215.103 327.969 214.871C327.881 214.631 327.757 214.427 327.597 214.259C327.437 214.091 327.249 213.963 327.033 213.875C326.825 213.787 326.593 213.743 326.337 213.743Z" fill="#303E67"/>
<path d="M335.275 212.255C335.651 212.255 335.991 212.319 336.295 212.447C336.607 212.567 336.875 212.751 337.099 212.999C337.323 213.239 337.495 213.539 337.615 213.899C337.735 214.259 337.795 214.671 337.795 215.135V218.999H336.115V215.327C336.115 214.783 335.975 214.371 335.695 214.091C335.423 213.803 335.055 213.659 334.591 213.659C334.119 213.659 333.735 213.811 333.439 214.115C333.151 214.419 333.007 214.871 333.007 215.471V218.999H331.315V212.351H333.007V213.683C333.191 213.227 333.483 212.875 333.883 212.627C334.283 212.379 334.747 212.255 335.275 212.255Z" fill="#303E67"/>
<path d="M351.029 210.623V218.999H349.349V213.155L347.201 218.999H345.737L343.589 213.179V218.999H341.897V210.623H343.949L346.493 216.923L348.989 210.623H351.029Z" fill="#303E67"/>
<path d="M354.253 215.855V218.999H352.561V210.527H355.645C356.157 210.527 356.601 210.591 356.977 210.719C357.361 210.847 357.677 211.031 357.925 211.271C358.173 211.503 358.357 211.783 358.477 212.111C358.605 212.439 358.669 212.803 358.669 213.203C358.669 213.595 358.605 213.955 358.477 214.283C358.349 214.603 358.157 214.883 357.901 215.123C357.645 215.355 357.329 215.535 356.953 215.663C356.577 215.791 356.141 215.855 355.645 215.855H354.253ZM355.465 214.499C356.017 214.499 356.401 214.383 356.617 214.151C356.841 213.911 356.953 213.595 356.953 213.203C356.953 212.795 356.841 212.475 356.617 212.243C356.401 212.011 356.017 211.895 355.465 211.895H354.253V214.499H355.465Z" fill="#303E67"/>
<path d="M18.665 217.597H21.746V219.001H16.832V209.823H18.665V217.597Z" fill="#303E67"/>
<path d="M24.6309 211.201L24.3189 210.434L26.0349 209.472L27.7379 210.434L27.4259 211.201L26.0349 210.486L24.6309 211.201ZM29.6099 215.127C29.6099 215.249 29.6012 215.357 29.5839 215.452C29.5752 215.548 29.5622 215.647 29.5449 215.751H24.2669C24.2842 216.098 24.3406 216.393 24.4359 216.635C24.5312 216.869 24.6569 217.06 24.8129 217.207C24.9689 217.355 25.1466 217.463 25.3459 217.532C25.5539 217.593 25.7662 217.623 25.9829 217.623C26.4162 217.623 26.7716 217.519 27.0489 217.311C27.3262 217.095 27.5039 216.813 27.5819 216.466H29.5189C29.4496 216.839 29.3152 217.186 29.1159 217.506C28.9252 217.827 28.6782 218.104 28.3749 218.338C28.0802 218.572 27.7379 218.759 27.3479 218.897C26.9579 219.027 26.5332 219.092 26.0739 219.092C25.5452 219.092 25.0599 219.01 24.6179 218.845C24.1846 218.672 23.8076 218.429 23.4869 218.117C23.1662 217.797 22.9149 217.407 22.7329 216.947C22.5596 216.488 22.4729 215.972 22.4729 215.4C22.4729 214.82 22.5596 214.304 22.7329 213.853C22.9149 213.394 23.1662 213.008 23.4869 212.696C23.8076 212.376 24.1846 212.133 24.6179 211.968C25.0599 211.795 25.5452 211.708 26.0739 211.708C26.6199 211.708 27.1096 211.795 27.5429 211.968C27.9762 212.133 28.3446 212.371 28.6479 212.683C28.9599 212.987 29.1982 213.346 29.3629 213.762C29.5276 214.178 29.6099 214.633 29.6099 215.127ZM27.7639 214.945C27.7812 214.633 27.7422 214.365 27.6469 214.139C27.5516 213.905 27.4259 213.719 27.2699 213.58C27.1139 213.433 26.9319 213.325 26.7239 213.255C26.5159 213.186 26.2992 213.151 26.0739 213.151C25.6059 213.151 25.1986 213.299 24.8519 213.593C24.5052 213.879 24.3102 214.33 24.2669 214.945H27.7639ZM26.0349 219.833C26.2689 219.833 26.4639 219.911 26.6199 220.067C26.7846 220.232 26.8669 220.431 26.8669 220.665C26.8669 220.891 26.7846 221.081 26.6199 221.237C26.4639 221.402 26.2689 221.484 26.0349 221.484C25.8096 221.484 25.6146 221.402 25.4499 221.237C25.2939 221.081 25.2159 220.891 25.2159 220.665C25.2159 220.431 25.2939 220.232 25.4499 220.067C25.6146 219.911 25.8096 219.833 26.0349 219.833Z" fill="#303E67"/>
<path d="M35.2011 211.695C35.6085 211.695 35.9768 211.765 36.3061 211.903C36.6441 212.033 36.9345 212.233 37.1771 212.501C37.4198 212.761 37.6061 213.086 37.7361 213.476C37.8661 213.866 37.9311 214.313 37.9311 214.815V219.001H36.1111V215.023C36.1111 214.434 35.9595 213.988 35.6561 213.684C35.3615 213.372 34.9628 213.216 34.4601 213.216C33.9488 213.216 33.5328 213.381 33.2121 213.71C32.9001 214.04 32.7441 214.529 32.7441 215.179V219.001H30.9111V211.799H32.7441V213.242C32.9435 212.748 33.2598 212.367 33.6931 212.098C34.1265 211.83 34.6291 211.695 35.2011 211.695Z" fill="#303E67"/>
<path d="M43.8339 211.695C44.2413 211.695 44.6096 211.765 44.9389 211.903C45.2769 212.033 45.5673 212.233 45.8099 212.501C46.0526 212.761 46.2389 213.086 46.3689 213.476C46.4989 213.866 46.5639 214.313 46.5639 214.815V219.001H44.7439V215.023C44.7439 214.434 44.5923 213.988 44.2889 213.684C43.9943 213.372 43.5956 213.216 43.0929 213.216C42.5816 213.216 42.1656 213.381 41.8449 213.71C41.5329 214.04 41.3769 214.529 41.3769 215.179V219.001H39.5439V209.381H41.3769V213.242C41.5763 212.748 41.8926 212.367 42.3259 212.098C42.7593 211.83 43.2619 211.695 43.8339 211.695Z" fill="#303E67"/>
<path d="M53.8288 211.708C54.4528 211.708 54.9771 211.856 55.4018 212.15C55.8265 212.445 56.1298 212.826 56.3118 213.294V209.381H58.1318V219.001H56.3118V217.493C56.1298 217.97 55.8265 218.356 55.4018 218.65C54.9771 218.945 54.4528 219.092 53.8288 219.092C53.3781 219.092 52.9578 219.01 52.5678 218.845C52.1778 218.672 51.8398 218.429 51.5538 218.117C51.2678 217.797 51.0425 217.411 50.8778 216.96C50.7218 216.501 50.6438 215.981 50.6438 215.4C50.6438 214.82 50.7218 214.304 50.8778 213.853C51.0425 213.394 51.2678 213.008 51.5538 212.696C51.8398 212.376 52.1778 212.133 52.5678 211.968C52.9578 211.795 53.3781 211.708 53.8288 211.708ZM54.4008 213.307C53.8375 213.307 53.3781 213.489 53.0228 213.853C52.6761 214.217 52.5028 214.733 52.5028 215.4C52.5028 216.059 52.6761 216.57 53.0228 216.934C53.3781 217.298 53.8375 217.48 54.4008 217.48C54.6781 217.48 54.9295 217.433 55.1548 217.337C55.3888 217.242 55.5925 217.103 55.7658 216.921C55.9391 216.739 56.0735 216.523 56.1688 216.271C56.2641 216.011 56.3118 215.721 56.3118 215.4C56.3118 215.071 56.2641 214.781 56.1688 214.529C56.0735 214.269 55.9391 214.048 55.7658 213.866C55.5925 213.684 55.3888 213.546 55.1548 213.45C54.9295 213.355 54.6781 213.307 54.4008 213.307Z" fill="#303E67"/>
<path d="M64.265 211.253L62.029 210.161L62.497 209.199L64.603 210.525L64.265 211.253ZM68.49 210.369C68.49 210.751 68.4423 211.093 68.347 211.396C68.2516 211.691 68.1216 211.947 67.957 212.163C67.7923 212.371 67.5973 212.549 67.372 212.696C67.1553 212.835 66.9256 212.939 66.683 213.008V219.001H64.85V217.545C64.6506 218.039 64.3343 218.421 63.901 218.689C63.4676 218.958 62.965 219.092 62.393 219.092C61.9856 219.092 61.613 219.027 61.275 218.897C60.9456 218.759 60.6596 218.559 60.417 218.299C60.1743 218.031 59.988 217.706 59.858 217.324C59.728 216.934 59.663 216.488 59.663 215.985V211.799H61.483V215.777C61.483 216.367 61.6303 216.817 61.925 217.129C62.2283 217.433 62.627 217.584 63.121 217.584C63.641 217.584 64.057 217.42 64.369 217.09C64.6896 216.761 64.85 216.271 64.85 215.621V211.799H65.838C66.254 211.799 66.5876 211.7 66.839 211.5C67.0903 211.292 67.216 210.915 67.216 210.369H68.49Z" fill="#303E67"/>
<path d="M72.6396 211.695C73.0469 211.695 73.4153 211.765 73.7446 211.903C74.0826 212.033 74.3729 212.233 74.6156 212.501C74.8583 212.761 75.0446 213.086 75.1746 213.476C75.3046 213.866 75.3696 214.313 75.3696 214.815V219.001H73.5496V215.023C73.5496 214.434 73.3979 213.988 73.0946 213.684C72.7999 213.372 72.4013 213.216 71.8986 213.216C71.3873 213.216 70.9713 213.381 70.6506 213.71C70.3386 214.04 70.1826 214.529 70.1826 215.179V219.001H68.3496V211.799H70.1826V213.242C70.3819 212.748 70.6983 212.367 71.1316 212.098C71.5649 211.83 72.0676 211.695 72.6396 211.695Z" fill="#303E67"/>
<path d="M79.8034 211.708C80.4274 211.708 80.9518 211.856 81.3764 212.15C81.8098 212.445 82.1131 212.826 82.2864 213.294V211.799H84.1064V219.027C84.1064 219.521 84.0328 219.981 83.8854 220.405C83.7381 220.839 83.5171 221.211 83.2224 221.523C82.9364 221.835 82.5724 222.082 82.1304 222.264C81.6971 222.446 81.1944 222.537 80.6224 222.537C79.5564 222.537 78.7071 222.282 78.0744 221.77C77.4504 221.268 77.0691 220.605 76.9304 219.781H78.7374C78.8328 220.137 79.0278 220.418 79.3224 220.626C79.6171 220.834 80.0071 220.938 80.4924 220.938C80.7438 220.938 80.9778 220.899 81.1944 220.821C81.4111 220.752 81.6018 220.639 81.7664 220.483C81.9311 220.327 82.0568 220.128 82.1434 219.885C82.2388 219.651 82.2864 219.365 82.2864 219.027V217.493C82.1131 217.97 81.8098 218.356 81.3764 218.65C80.9518 218.945 80.4274 219.092 79.8034 219.092C79.3528 219.092 78.9324 219.01 78.5424 218.845C78.1524 218.672 77.8144 218.429 77.5284 218.117C77.2424 217.797 77.0171 217.411 76.8524 216.96C76.6964 216.501 76.6184 215.981 76.6184 215.4C76.6184 214.82 76.6964 214.304 76.8524 213.853C77.0171 213.394 77.2424 213.008 77.5284 212.696C77.8144 212.376 78.1524 212.133 78.5424 211.968C78.9324 211.795 79.3528 211.708 79.8034 211.708ZM80.3754 213.307C79.8121 213.307 79.3528 213.489 78.9974 213.853C78.6508 214.217 78.4774 214.733 78.4774 215.4C78.4774 216.059 78.6508 216.57 78.9974 216.934C79.3528 217.298 79.8121 217.48 80.3754 217.48C80.6528 217.48 80.9041 217.433 81.1294 217.337C81.3634 217.242 81.5671 217.103 81.7404 216.921C81.9137 216.739 82.0481 216.523 82.1434 216.271C82.2388 216.011 82.2864 215.721 82.2864 215.4C82.2864 215.071 82.2388 214.781 82.1434 214.529C82.0481 214.269 81.9137 214.048 81.7404 213.866C81.5671 213.684 81.3634 213.546 81.1294 213.45C80.9041 213.355 80.6528 213.307 80.3754 213.307Z" fill="#303E67"/>
<path d="M92.9016 211.708C93.361 211.708 93.7813 211.795 94.1626 211.968C94.5526 212.133 94.8906 212.376 95.1766 212.696C95.4626 213.008 95.6836 213.394 95.8396 213.853C96.0043 214.304 96.0866 214.82 96.0866 215.4C96.0866 215.981 96.0043 216.501 95.8396 216.96C95.6836 217.411 95.4626 217.797 95.1766 218.117C94.8906 218.429 94.5526 218.672 94.1626 218.845C93.7813 219.01 93.361 219.092 92.9016 219.092C92.2776 219.092 91.7533 218.945 91.3286 218.65C90.904 218.356 90.605 217.97 90.4316 217.493V219.001H88.5986V209.381H90.4316V213.294C90.605 212.826 90.904 212.445 91.3286 212.15C91.7533 211.856 92.2776 211.708 92.9016 211.708ZM92.3296 213.307C92.061 213.307 91.8096 213.355 91.5756 213.45C91.3416 213.546 91.138 213.684 90.9646 213.866C90.7913 214.048 90.657 214.269 90.5616 214.529C90.4663 214.781 90.4186 215.071 90.4186 215.4C90.4186 215.721 90.4663 216.011 90.5616 216.271C90.657 216.523 90.7913 216.739 90.9646 216.921C91.138 217.103 91.3416 217.242 91.5756 217.337C91.8096 217.433 92.061 217.48 92.3296 217.48C92.9016 217.48 93.361 217.298 93.7076 216.934C94.0543 216.57 94.2276 216.059 94.2276 215.4C94.2276 214.733 94.0543 214.217 93.7076 213.853C93.361 213.489 92.9016 213.307 92.3296 213.307Z" fill="#303E67"/>
<path d="M102.402 210.135L100.023 211.149L99.7108 210.486L102.025 209.212L102.402 210.135ZM100.205 211.708C100.829 211.708 101.353 211.856 101.778 212.15C102.211 212.445 102.514 212.826 102.688 213.294V211.799H104.508V219.001H102.688V217.493C102.514 217.97 102.211 218.356 101.778 218.65C101.353 218.945 100.829 219.092 100.205 219.092C99.7541 219.092 99.3338 219.01 98.9438 218.845C98.5538 218.672 98.2158 218.429 97.9298 218.117C97.6438 217.797 97.4185 217.411 97.2538 216.96C97.0978 216.501 97.0198 215.981 97.0198 215.4C97.0198 214.82 97.0978 214.304 97.2538 213.853C97.4185 213.394 97.6438 213.008 97.9298 212.696C98.2158 212.376 98.5538 212.133 98.9438 211.968C99.3338 211.795 99.7541 211.708 100.205 211.708ZM100.777 213.307C100.213 213.307 99.7541 213.489 99.3988 213.853C99.0521 214.217 98.8788 214.733 98.8788 215.4C98.8788 216.059 99.0521 216.57 99.3988 216.934C99.7541 217.298 100.213 217.48 100.777 217.48C101.054 217.48 101.305 217.433 101.531 217.337C101.765 217.242 101.968 217.103 102.142 216.921C102.315 216.739 102.449 216.523 102.545 216.271C102.64 216.011 102.688 215.721 102.688 215.4C102.688 215.071 102.64 214.781 102.545 214.529C102.449 214.269 102.315 214.048 102.142 213.866C101.968 213.684 101.765 213.546 101.531 213.45C101.305 213.355 101.054 213.307 100.777 213.307Z" fill="#303E67"/>
<path d="M110.459 211.695C110.866 211.695 111.235 211.765 111.564 211.903C111.902 212.033 112.192 212.233 112.435 212.501C112.678 212.761 112.864 213.086 112.994 213.476C113.124 213.866 113.189 214.313 113.189 214.815V219.001H111.369V215.023C111.369 214.434 111.217 213.988 110.914 213.684C110.619 213.372 110.221 213.216 109.718 213.216C109.207 213.216 108.791 213.381 108.47 213.71C108.158 214.04 108.002 214.529 108.002 215.179V219.001H106.169V211.799H108.002V213.242C108.201 212.748 108.518 212.367 108.951 212.098C109.384 211.83 109.887 211.695 110.459 211.695Z" fill="#303E67"/>
<path d="M46.0224 119.731C46.5944 119.731 47.1144 119.805 47.5824 119.952C48.0504 120.091 48.462 120.295 48.8174 120.563C49.1814 120.832 49.4804 121.157 49.7144 121.538C49.9484 121.911 50.1174 122.327 50.2214 122.786H48.2974C48.124 122.388 47.8424 122.063 47.4524 121.811C47.071 121.551 46.5987 121.421 46.0354 121.421C45.6367 121.421 45.2727 121.491 44.9434 121.629C44.614 121.768 44.328 121.967 44.0854 122.227C43.8514 122.487 43.6694 122.804 43.5394 123.176C43.4094 123.54 43.3444 123.952 43.3444 124.411C43.3444 125.391 43.6 126.145 44.1114 126.673C44.6314 127.202 45.3377 127.466 46.2304 127.466C46.8804 127.466 47.4394 127.276 47.9074 126.894C48.384 126.513 48.696 125.967 48.8434 125.256H45.7364V123.943H50.3774V125.711C50.282 126.153 50.1174 126.578 49.8834 126.985C49.6494 127.393 49.3504 127.752 48.9864 128.064C48.6224 128.368 48.1934 128.615 47.6994 128.805C47.2054 128.987 46.6507 129.078 46.0354 129.078C45.3507 129.078 44.7267 128.966 44.1634 128.74C43.6 128.506 43.119 128.186 42.7204 127.778C42.3304 127.362 42.027 126.868 41.8104 126.296C41.5937 125.724 41.4854 125.096 41.4854 124.411C41.4854 123.727 41.5937 123.098 41.8104 122.526C42.027 121.954 42.3304 121.46 42.7204 121.044C43.119 120.628 43.5957 120.308 44.1504 120.082C44.7137 119.848 45.3377 119.731 46.0224 119.731Z" fill="#303E67"/>
<path d="M51.5419 119.731C51.5419 119.445 51.6415 119.207 51.8409 119.016C52.0489 118.826 52.3262 118.73 52.6729 118.73C53.0195 118.73 53.2925 118.826 53.4919 119.016C53.6999 119.207 53.8039 119.445 53.8039 119.731C53.8039 120.017 53.6999 120.256 53.4919 120.446C53.2925 120.628 53.0195 120.719 52.6729 120.719C52.3262 120.719 52.0489 120.628 51.8409 120.446C51.6415 120.256 51.5419 120.017 51.5419 119.731ZM53.5829 121.798V129H51.7499V121.798H53.5829Z" fill="#303E67"/>
<path d="M60.2591 120.134L57.8801 121.148L57.5681 120.485L59.8821 119.211L60.2591 120.134ZM58.0621 121.707C58.6861 121.707 59.2104 121.855 59.6351 122.149C60.0684 122.444 60.3717 122.825 60.5451 123.293V121.798H62.3651V129H60.5451V127.492C60.3717 127.969 60.0684 128.355 59.6351 128.649C59.2104 128.944 58.6861 129.091 58.0621 129.091C57.6114 129.091 57.1911 129.009 56.8011 128.844C56.4111 128.671 56.0731 128.428 55.7871 128.116C55.5011 127.796 55.2757 127.41 55.1111 126.959C54.9551 126.5 54.8771 125.98 54.8771 125.399C54.8771 124.819 54.9551 124.303 55.1111 123.852C55.2757 123.393 55.5011 123.007 55.7871 122.695C56.0731 122.375 56.4111 122.132 56.8011 121.967C57.1911 121.794 57.6114 121.707 58.0621 121.707ZM58.6341 123.306C58.0707 123.306 57.6114 123.488 57.2561 123.852C56.9094 124.216 56.7361 124.732 56.7361 125.399C56.7361 126.058 56.9094 126.569 57.2561 126.933C57.6114 127.297 58.0707 127.479 58.6341 127.479C58.9114 127.479 59.1627 127.432 59.3881 127.336C59.6221 127.241 59.8257 127.102 59.9991 126.92C60.1724 126.738 60.3067 126.522 60.4021 126.27C60.4974 126.01 60.5451 125.72 60.5451 125.399C60.5451 125.07 60.4974 124.78 60.4021 124.528C60.3067 124.268 60.1724 124.047 59.9991 123.865C59.8257 123.683 59.6221 123.545 59.3881 123.449C59.1627 123.354 58.9114 123.306 58.6341 123.306Z" fill="#303E67"/>
<path d="M70.7053 127.427V129H69.7433C69.3706 129 69.0283 128.957 68.7163 128.87C68.413 128.784 68.1486 128.645 67.9233 128.454C67.7066 128.255 67.5376 127.995 67.4163 127.674C67.3036 127.345 67.2473 126.942 67.2473 126.465V123.345H66.2463V121.798H67.2473V120.017H69.0803V121.798H70.6923V123.345H69.0803V126.491C69.0803 126.847 69.1496 127.094 69.2883 127.232C69.427 127.362 69.661 127.427 69.9903 127.427H70.7053Z" fill="#303E67"/>
<path d="M76.3143 121.694C76.7216 121.694 77.0899 121.764 77.4193 121.902C77.7573 122.032 78.0476 122.232 78.2903 122.5C78.5329 122.76 78.7193 123.085 78.8493 123.475C78.9793 123.865 79.0443 124.312 79.0443 124.814V129H77.2243V125.022C77.2243 124.433 77.0726 123.987 76.7693 123.683C76.4746 123.371 76.0759 123.215 75.5733 123.215C75.0619 123.215 74.6459 123.38 74.3253 123.709C74.0133 124.039 73.8573 124.528 73.8573 125.178V129H72.0243V119.38H73.8573V123.241C74.0566 122.747 74.3729 122.366 74.8063 122.097C75.2396 121.829 75.7423 121.694 76.3143 121.694Z" fill="#303E67"/>
<path d="M80.4491 119.731C80.4491 119.445 80.5488 119.207 80.7481 119.016C80.9561 118.826 81.2334 118.73 81.5801 118.73C81.9268 118.73 82.1998 118.826 82.3991 119.016C82.6071 119.207 82.7111 119.445 82.7111 119.731C82.7111 120.017 82.6071 120.256 82.3991 120.446C82.1998 120.628 81.9268 120.719 81.5801 120.719C81.2334 120.719 80.9561 120.628 80.7481 120.446C80.5488 120.256 80.4491 120.017 80.4491 119.731ZM82.4901 121.798V129H80.6571V121.798H82.4901ZM80.7611 130.664C80.7611 130.43 80.8391 130.231 80.9951 130.066C81.1598 129.91 81.3548 129.832 81.5801 129.832C81.8141 129.832 82.0091 129.91 82.1651 130.066C82.3298 130.231 82.4121 130.43 82.4121 130.664C82.4121 130.89 82.3298 131.08 82.1651 131.236C82.0091 131.401 81.8141 131.483 81.5801 131.483C81.3548 131.483 81.1598 131.401 80.9951 131.236C80.8391 131.08 80.7611 130.89 80.7611 130.664Z" fill="#303E67"/>
<path d="M90.8274 127.427V129H89.8654C89.4927 129 89.1504 128.957 88.8384 128.87C88.535 128.784 88.2707 128.645 88.0454 128.454C87.8287 128.255 87.6597 127.995 87.5384 127.674C87.4257 127.345 87.3694 126.942 87.3694 126.465V123.345H86.3684V121.798H87.3694V120.017H89.2024V121.798H90.8144V123.345H89.2024V126.491C89.2024 126.847 89.2717 127.094 89.4104 127.232C89.549 127.362 89.783 127.427 90.1124 127.427H90.8274Z" fill="#303E67"/>
<path d="M93.9794 123.176C94.2393 122.734 94.586 122.379 95.0194 122.11C95.4614 121.833 95.964 121.694 96.5274 121.694V123.657H95.9944C95.7084 123.657 95.444 123.688 95.2014 123.748C94.9587 123.809 94.7463 123.913 94.5644 124.06C94.3824 124.199 94.2393 124.39 94.1353 124.632C94.0313 124.875 93.9794 125.174 93.9794 125.529V129H92.1464V121.798H93.9794V123.176Z" fill="#303E67"/>
<path d="M106.239 120.368C106.239 120.75 106.191 121.092 106.096 121.395C106.001 121.69 105.871 121.946 105.706 122.162C105.541 122.37 105.346 122.548 105.121 122.695C104.904 122.834 104.675 122.938 104.432 123.007V129H102.599V127.544C102.4 128.038 102.083 128.42 101.65 128.688C101.217 128.957 100.714 129.091 100.142 129.091C99.7345 129.091 99.3619 129.026 99.0239 128.896C98.6945 128.758 98.4085 128.558 98.1659 128.298C97.9232 128.03 97.7369 127.705 97.6069 127.323C97.4769 126.933 97.4119 126.487 97.4119 125.984V121.798H99.2319V125.776C99.2319 126.366 99.3792 126.816 99.6739 127.128C99.9772 127.432 100.376 127.583 100.87 127.583C101.39 127.583 101.806 127.419 102.118 127.089C102.439 126.76 102.599 126.27 102.599 125.62V121.798H103.587C104.003 121.798 104.337 121.699 104.588 121.499C104.839 121.291 104.965 120.914 104.965 120.368H106.239Z" fill="#303E67"/>
<path d="M110.453 121.252L108.217 120.16L108.686 119.198L110.792 120.524L110.453 121.252ZM111.962 122.591C112.326 122.912 112.607 123.311 112.807 123.787C113.015 124.255 113.118 124.793 113.118 125.399C113.118 125.971 113.023 126.487 112.833 126.946C112.651 127.406 112.395 127.796 112.066 128.116C111.736 128.428 111.346 128.671 110.896 128.844C110.445 129.009 109.955 129.091 109.427 129.091C108.898 129.091 108.408 129.009 107.958 128.844C107.507 128.671 107.117 128.428 106.788 128.116C106.458 127.796 106.198 127.406 106.007 126.946C105.826 126.487 105.735 125.971 105.735 125.399C105.735 124.819 105.826 124.303 106.007 123.852C106.198 123.393 106.458 123.007 106.788 122.695C107.117 122.375 107.507 122.132 107.958 121.967C108.408 121.794 108.898 121.707 109.427 121.707C109.756 121.707 110.059 121.738 110.337 121.798C110.744 121.79 111.064 121.681 111.299 121.473C111.541 121.265 111.663 120.897 111.663 120.368H112.937C112.937 120.906 112.846 121.356 112.664 121.72C112.482 122.084 112.248 122.375 111.962 122.591ZM109.427 127.505C109.661 127.505 109.886 127.466 110.103 127.388C110.328 127.302 110.523 127.172 110.688 126.998C110.861 126.825 110.999 126.608 111.104 126.348C111.207 126.08 111.26 125.763 111.26 125.399C111.26 125.035 111.207 124.723 111.104 124.463C110.999 124.195 110.861 123.974 110.688 123.8C110.523 123.627 110.328 123.501 110.103 123.423C109.886 123.337 109.661 123.293 109.427 123.293C109.193 123.293 108.963 123.337 108.738 123.423C108.521 123.501 108.326 123.627 108.153 123.8C107.988 123.974 107.854 124.195 107.75 124.463C107.646 124.723 107.594 125.035 107.594 125.399C107.594 125.763 107.646 126.08 107.75 126.348C107.854 126.608 107.988 126.825 108.153 126.998C108.326 127.172 108.521 127.302 108.738 127.388C108.963 127.466 109.193 127.505 109.427 127.505Z" fill="#303E67"/>
<path d="M118.704 121.694C119.111 121.694 119.48 121.764 119.809 121.902C120.147 122.032 120.437 122.232 120.68 122.5C120.923 122.76 121.109 123.085 121.239 123.475C121.369 123.865 121.434 124.312 121.434 124.814V129H119.614V125.022C119.614 124.433 119.462 123.987 119.159 123.683C118.864 123.371 118.466 123.215 117.963 123.215C117.452 123.215 117.036 123.38 116.715 123.709C116.403 124.039 116.247 124.528 116.247 125.178V129H114.414V121.798H116.247V123.241C116.446 122.747 116.763 122.366 117.196 122.097C117.629 121.829 118.132 121.694 118.704 121.694Z" fill="#303E67"/>
<path d="M125.868 121.707C126.492 121.707 127.016 121.855 127.441 122.149C127.874 122.444 128.177 122.825 128.351 123.293V121.798H130.171V129.026C130.171 129.52 130.097 129.98 129.95 130.404C129.802 130.838 129.581 131.21 129.287 131.522C129.001 131.834 128.637 132.081 128.195 132.263C127.761 132.445 127.259 132.536 126.687 132.536C125.621 132.536 124.771 132.281 124.139 131.769C123.515 131.267 123.133 130.604 122.995 129.78H124.802C124.897 130.136 125.092 130.417 125.387 130.625C125.681 130.833 126.071 130.937 126.557 130.937C126.808 130.937 127.042 130.898 127.259 130.82C127.475 130.751 127.666 130.638 127.831 130.482C127.995 130.326 128.121 130.127 128.208 129.884C128.303 129.65 128.351 129.364 128.351 129.026V127.492C128.177 127.969 127.874 128.355 127.441 128.649C127.016 128.944 126.492 129.091 125.868 129.091C125.417 129.091 124.997 129.009 124.607 128.844C124.217 128.671 123.879 128.428 123.593 128.116C123.307 127.796 123.081 127.41 122.917 126.959C122.761 126.5 122.683 125.98 122.683 125.399C122.683 124.819 122.761 124.303 122.917 123.852C123.081 123.393 123.307 123.007 123.593 122.695C123.879 122.375 124.217 122.132 124.607 121.967C124.997 121.794 125.417 121.707 125.868 121.707ZM126.44 123.306C125.876 123.306 125.417 123.488 125.062 123.852C124.715 124.216 124.542 124.732 124.542 125.399C124.542 126.058 124.715 126.569 125.062 126.933C125.417 127.297 125.876 127.479 126.44 127.479C126.717 127.479 126.968 127.432 127.194 127.336C127.428 127.241 127.631 127.102 127.805 126.92C127.978 126.738 128.112 126.522 128.208 126.27C128.303 126.01 128.351 125.72 128.351 125.399C128.351 125.07 128.303 124.78 128.208 124.528C128.112 124.268 127.978 124.047 127.805 123.865C127.631 123.683 127.428 123.545 127.194 123.449C126.968 123.354 126.717 123.306 126.44 123.306Z" fill="#303E67"/>
<path d="M128.083 64.7315C128.655 64.7315 129.175 64.8051 129.643 64.9525C130.111 65.0911 130.523 65.2948 130.878 65.5635C131.242 65.8321 131.541 66.1571 131.775 66.5385C132.009 66.9111 132.178 67.3271 132.282 67.7865H130.358C130.185 67.3878 129.903 67.0628 129.513 66.8115C129.132 66.5515 128.659 66.4215 128.096 66.4215C127.697 66.4215 127.333 66.4908 127.004 66.6295C126.675 66.7681 126.389 66.9675 126.146 67.2275C125.912 67.4875 125.73 67.8038 125.6 68.1765C125.47 68.5405 125.405 68.9521 125.405 69.4115C125.405 70.3908 125.661 71.1448 126.172 71.6735C126.692 72.2021 127.398 72.4665 128.291 72.4665C128.941 72.4665 129.5 72.2758 129.968 71.8945C130.445 71.5131 130.757 70.9671 130.904 70.2565H127.797V68.9435H132.438V70.7115C132.343 71.1535 132.178 71.5781 131.944 71.9855C131.71 72.3928 131.411 72.7525 131.047 73.0645C130.683 73.3678 130.254 73.6148 129.76 73.8055C129.266 73.9875 128.711 74.0785 128.096 74.0785C127.411 74.0785 126.787 73.9658 126.224 73.7405C125.661 73.5065 125.18 73.1858 124.781 72.7785C124.391 72.3625 124.088 71.8685 123.871 71.2965C123.654 70.7245 123.546 70.0961 123.546 69.4115C123.546 68.7268 123.654 68.0985 123.871 67.5265C124.088 66.9545 124.391 66.4605 124.781 66.0445C125.18 65.6285 125.656 65.3078 126.211 65.0825C126.774 64.8485 127.398 64.7315 128.083 64.7315Z" fill="#303E67"/>
<path d="M133.602 64.7315C133.602 64.4455 133.702 64.2071 133.901 64.0165C134.109 63.8258 134.387 63.7305 134.733 63.7305C135.08 63.7305 135.353 63.8258 135.552 64.0165C135.76 64.2071 135.864 64.4455 135.864 64.7315C135.864 65.0175 135.76 65.2558 135.552 65.4465C135.353 65.6285 135.08 65.7195 134.733 65.7195C134.387 65.7195 134.109 65.6285 133.901 65.4465C133.702 65.2558 133.602 65.0175 133.602 64.7315ZM135.643 66.7985V74.0005H133.81V66.7985H135.643Z" fill="#303E67"/>
<path d="M142.32 65.1345L139.941 66.1485L139.629 65.4855L141.943 64.2115L142.32 65.1345ZM140.123 66.7075C140.747 66.7075 141.271 66.8548 141.696 67.1495C142.129 67.4441 142.432 67.8255 142.606 68.2935V66.7985H144.426V74.0005H142.606V72.4925C142.432 72.9691 142.129 73.3548 141.696 73.6495C141.271 73.9441 140.747 74.0915 140.123 74.0915C139.672 74.0915 139.252 74.0091 138.862 73.8445C138.472 73.6711 138.134 73.4285 137.848 73.1165C137.562 72.7958 137.336 72.4101 137.172 71.9595C137.016 71.5001 136.938 70.9801 136.938 70.3995C136.938 69.8188 137.016 69.3031 137.172 68.8525C137.336 68.3931 137.562 68.0075 137.848 67.6955C138.134 67.3748 138.472 67.1321 138.862 66.9675C139.252 66.7941 139.672 66.7075 140.123 66.7075ZM140.695 68.3065C140.131 68.3065 139.672 68.4885 139.317 68.8525C138.97 69.2165 138.797 69.7321 138.797 70.3995C138.797 71.0581 138.97 71.5695 139.317 71.9335C139.672 72.2975 140.131 72.4795 140.695 72.4795C140.972 72.4795 141.223 72.4318 141.449 72.3365C141.683 72.2411 141.886 72.1025 142.06 71.9205C142.233 71.7385 142.367 71.5218 142.463 71.2705C142.558 71.0105 142.606 70.7201 142.606 70.3995C142.606 70.0701 142.558 69.7798 142.463 69.5285C142.367 69.2685 142.233 69.0475 142.06 68.8655C141.886 68.6835 141.683 68.5448 141.449 68.4495C141.223 68.3541 140.972 68.3065 140.695 68.3065Z" fill="#303E67"/>
<path d="M151.739 66.7075C152.363 66.7075 152.887 66.8548 153.312 67.1495C153.737 67.4441 154.04 67.8255 154.222 68.2935V64.3805H156.042V74.0005H154.222V72.4925C154.04 72.9691 153.737 73.3548 153.312 73.6495C152.887 73.9441 152.363 74.0915 151.739 74.0915C151.288 74.0915 150.868 74.0091 150.478 73.8445C150.088 73.6711 149.75 73.4285 149.464 73.1165C149.178 72.7958 148.953 72.4101 148.788 71.9595C148.632 71.5001 148.554 70.9801 148.554 70.3995C148.554 69.8188 148.632 69.3031 148.788 68.8525C148.953 68.3931 149.178 68.0075 149.464 67.6955C149.75 67.3748 150.088 67.1321 150.478 66.9675C150.868 66.7941 151.288 66.7075 151.739 66.7075ZM152.311 68.3065C151.748 68.3065 151.288 68.4885 150.933 68.8525C150.586 69.2165 150.413 69.7321 150.413 70.3995C150.413 71.0581 150.586 71.5695 150.933 71.9335C151.288 72.2975 151.748 72.4795 152.311 72.4795C152.588 72.4795 152.84 72.4318 153.065 72.3365C153.299 72.2411 153.503 72.1025 153.676 71.9205C153.849 71.7385 153.984 71.5218 154.079 71.2705C154.174 71.0105 154.222 70.7201 154.222 70.3995C154.222 70.0701 154.174 69.7798 154.079 69.5285C153.984 69.2685 153.849 69.0475 153.676 68.8655C153.503 68.6835 153.299 68.5448 153.065 68.4495C152.84 68.3541 152.588 68.3065 152.311 68.3065Z" fill="#303E67"/>
<path d="M162.175 66.2525L159.939 65.1605L160.407 64.1985L162.513 65.5245L162.175 66.2525ZM166.4 65.3685C166.4 65.7498 166.352 66.0921 166.257 66.3955C166.162 66.6901 166.032 66.9458 165.867 67.1625C165.702 67.3705 165.507 67.5481 165.282 67.6955C165.065 67.8341 164.836 67.9381 164.593 68.0075V74.0005H162.76V72.5445C162.561 73.0385 162.244 73.4198 161.811 73.6885C161.378 73.9571 160.875 74.0915 160.303 74.0915C159.896 74.0915 159.523 74.0265 159.185 73.8965C158.856 73.7578 158.57 73.5585 158.327 73.2985C158.084 73.0298 157.898 72.7048 157.768 72.3235C157.638 71.9335 157.573 71.4871 157.573 70.9845V66.7985H159.393V70.7765C159.393 71.3658 159.54 71.8165 159.835 72.1285C160.138 72.4318 160.537 72.5835 161.031 72.5835C161.551 72.5835 161.967 72.4188 162.279 72.0895C162.6 71.7601 162.76 71.2705 162.76 70.6205V66.7985H163.748C164.164 66.7985 164.498 66.6988 164.749 66.4995C165 66.2915 165.126 65.9145 165.126 65.3685H166.4Z" fill="#303E67"/>
<path d="M170.55 66.6945C170.957 66.6945 171.325 66.7638 171.655 66.9025C171.993 67.0325 172.283 67.2318 172.526 67.5005C172.768 67.7605 172.955 68.0855 173.085 68.4755C173.215 68.8655 173.28 69.3118 173.28 69.8145V74.0005H171.46V70.0225C171.46 69.4331 171.308 68.9868 171.005 68.6835C170.71 68.3715 170.311 68.2155 169.809 68.2155C169.297 68.2155 168.881 68.3801 168.561 68.7095C168.249 69.0388 168.093 69.5285 168.093 70.1785V74.0005H166.26V66.7985H168.093V68.2415C168.292 67.7475 168.608 67.3661 169.042 67.0975C169.475 66.8288 169.978 66.6945 170.55 66.6945Z" fill="#303E67"/>
<path d="M177.713 66.7075C178.337 66.7075 178.862 66.8548 179.286 67.1495C179.72 67.4441 180.023 67.8255 180.196 68.2935V66.7985H182.016V74.0265C182.016 74.5205 181.943 74.9798 181.795 75.4045C181.648 75.8378 181.427 76.2105 181.132 76.5225C180.846 76.8345 180.482 77.0815 180.04 77.2635C179.607 77.4455 179.104 77.5365 178.532 77.5365C177.466 77.5365 176.617 77.2808 175.984 76.7695C175.36 76.2668 174.979 75.6038 174.84 74.7805H176.647C176.743 75.1358 176.938 75.4175 177.232 75.6255C177.527 75.8335 177.917 75.9375 178.402 75.9375C178.654 75.9375 178.888 75.8985 179.104 75.8205C179.321 75.7511 179.512 75.6385 179.676 75.4825C179.841 75.3265 179.967 75.1271 180.053 74.8845C180.149 74.6505 180.196 74.3645 180.196 74.0265V72.4925C180.023 72.9691 179.72 73.3548 179.286 73.6495C178.862 73.9441 178.337 74.0915 177.713 74.0915C177.263 74.0915 176.842 74.0091 176.452 73.8445C176.062 73.6711 175.724 73.4285 175.438 73.1165C175.152 72.7958 174.927 72.4101 174.762 71.9595C174.606 71.5001 174.528 70.9801 174.528 70.3995C174.528 69.8188 174.606 69.3031 174.762 68.8525C174.927 68.3931 175.152 68.0075 175.438 67.6955C175.724 67.3748 176.062 67.1321 176.452 66.9675C176.842 66.7941 177.263 66.7075 177.713 66.7075ZM178.285 68.3065C177.722 68.3065 177.263 68.4885 176.907 68.8525C176.561 69.2165 176.387 69.7321 176.387 70.3995C176.387 71.0581 176.561 71.5695 176.907 71.9335C177.263 72.2975 177.722 72.4795 178.285 72.4795C178.563 72.4795 178.814 72.4318 179.039 72.3365C179.273 72.2411 179.477 72.1025 179.65 71.9205C179.824 71.7385 179.958 71.5218 180.053 71.2705C180.149 71.0105 180.196 70.7201 180.196 70.3995C180.196 70.0701 180.149 69.7798 180.053 69.5285C179.958 69.2685 179.824 69.0475 179.65 68.8655C179.477 68.6835 179.273 68.5448 179.039 68.4495C178.814 68.3541 178.563 68.3065 178.285 68.3065Z" fill="#303E67"/>
<path d="M128.083 174.731C128.655 174.731 129.175 174.805 129.643 174.952C130.111 175.091 130.523 175.295 130.878 175.563C131.242 175.832 131.541 176.157 131.775 176.538C132.009 176.911 132.178 177.327 132.282 177.786H130.358C130.185 177.388 129.903 177.063 129.513 176.811C129.132 176.551 128.659 176.421 128.096 176.421C127.697 176.421 127.333 176.491 127.004 176.629C126.675 176.768 126.389 176.967 126.146 177.227C125.912 177.487 125.73 177.804 125.6 178.176C125.47 178.54 125.405 178.952 125.405 179.411C125.405 180.391 125.661 181.145 126.172 181.673C126.692 182.202 127.398 182.466 128.291 182.466C128.941 182.466 129.5 182.276 129.968 181.894C130.445 181.513 130.757 180.967 130.904 180.256H127.797V178.943H132.438V180.711C132.343 181.153 132.178 181.578 131.944 181.985C131.71 182.393 131.411 182.752 131.047 183.064C130.683 183.368 130.254 183.615 129.76 183.805C129.266 183.987 128.711 184.078 128.096 184.078C127.411 184.078 126.787 183.966 126.224 183.74C125.661 183.506 125.18 183.186 124.781 182.778C124.391 182.362 124.088 181.868 123.871 181.296C123.654 180.724 123.546 180.096 123.546 179.411C123.546 178.727 123.654 178.098 123.871 177.526C124.088 176.954 124.391 176.46 124.781 176.044C125.18 175.628 125.656 175.308 126.211 175.082C126.774 174.848 127.398 174.731 128.083 174.731Z" fill="#303E67"/>
<path d="M133.602 174.731C133.602 174.445 133.702 174.207 133.901 174.016C134.109 173.826 134.387 173.73 134.733 173.73C135.08 173.73 135.353 173.826 135.552 174.016C135.76 174.207 135.864 174.445 135.864 174.731C135.864 175.017 135.76 175.256 135.552 175.446C135.353 175.628 135.08 175.719 134.733 175.719C134.387 175.719 134.109 175.628 133.901 175.446C133.702 175.256 133.602 175.017 133.602 174.731ZM135.643 176.798V184H133.81V176.798H135.643Z" fill="#303E67"/>
<path d="M142.32 175.134L139.941 176.148L139.629 175.485L141.943 174.211L142.32 175.134ZM140.123 176.707C140.747 176.707 141.271 176.855 141.696 177.149C142.129 177.444 142.432 177.825 142.606 178.293V176.798H144.426V184H142.606V182.492C142.432 182.969 142.129 183.355 141.696 183.649C141.271 183.944 140.747 184.091 140.123 184.091C139.672 184.091 139.252 184.009 138.862 183.844C138.472 183.671 138.134 183.428 137.848 183.116C137.562 182.796 137.336 182.41 137.172 181.959C137.016 181.5 136.938 180.98 136.938 180.399C136.938 179.819 137.016 179.303 137.172 178.852C137.336 178.393 137.562 178.007 137.848 177.695C138.134 177.375 138.472 177.132 138.862 176.967C139.252 176.794 139.672 176.707 140.123 176.707ZM140.695 178.306C140.131 178.306 139.672 178.488 139.317 178.852C138.97 179.216 138.797 179.732 138.797 180.399C138.797 181.058 138.97 181.569 139.317 181.933C139.672 182.297 140.131 182.479 140.695 182.479C140.972 182.479 141.223 182.432 141.449 182.336C141.683 182.241 141.886 182.102 142.06 181.92C142.233 181.738 142.367 181.522 142.463 181.27C142.558 181.01 142.606 180.72 142.606 180.399C142.606 180.07 142.558 179.78 142.463 179.528C142.367 179.268 142.233 179.047 142.06 178.865C141.886 178.683 141.683 178.545 141.449 178.449C141.223 178.354 140.972 178.306 140.695 178.306Z" fill="#303E67"/>
<path d="M151.739 176.707C152.363 176.707 152.887 176.855 153.312 177.149C153.737 177.444 154.04 177.825 154.222 178.293V174.38H156.042V184H154.222V182.492C154.04 182.969 153.737 183.355 153.312 183.649C152.887 183.944 152.363 184.091 151.739 184.091C151.288 184.091 150.868 184.009 150.478 183.844C150.088 183.671 149.75 183.428 149.464 183.116C149.178 182.796 148.953 182.41 148.788 181.959C148.632 181.5 148.554 180.98 148.554 180.399C148.554 179.819 148.632 179.303 148.788 178.852C148.953 178.393 149.178 178.007 149.464 177.695C149.75 177.375 150.088 177.132 150.478 176.967C150.868 176.794 151.288 176.707 151.739 176.707ZM152.311 178.306C151.748 178.306 151.288 178.488 150.933 178.852C150.586 179.216 150.413 179.732 150.413 180.399C150.413 181.058 150.586 181.569 150.933 181.933C151.288 182.297 151.748 182.479 152.311 182.479C152.588 182.479 152.84 182.432 153.065 182.336C153.299 182.241 153.503 182.102 153.676 181.92C153.849 181.738 153.984 181.522 154.079 181.27C154.174 181.01 154.222 180.72 154.222 180.399C154.222 180.07 154.174 179.78 154.079 179.528C153.984 179.268 153.849 179.047 153.676 178.865C153.503 178.683 153.299 178.545 153.065 178.449C152.84 178.354 152.588 178.306 152.311 178.306Z" fill="#303E67"/>
<path d="M162.175 176.252L159.939 175.16L160.407 174.198L162.513 175.524L162.175 176.252ZM166.4 175.368C166.4 175.75 166.352 176.092 166.257 176.395C166.162 176.69 166.032 176.946 165.867 177.162C165.702 177.37 165.507 177.548 165.282 177.695C165.065 177.834 164.836 177.938 164.593 178.007V184H162.76V182.544C162.561 183.038 162.244 183.42 161.811 183.688C161.378 183.957 160.875 184.091 160.303 184.091C159.896 184.091 159.523 184.026 159.185 183.896C158.856 183.758 158.57 183.558 158.327 183.298C158.084 183.03 157.898 182.705 157.768 182.323C157.638 181.933 157.573 181.487 157.573 180.984V176.798H159.393V180.776C159.393 181.366 159.54 181.816 159.835 182.128C160.138 182.432 160.537 182.583 161.031 182.583C161.551 182.583 161.967 182.419 162.279 182.089C162.6 181.76 162.76 181.27 162.76 180.62V176.798H163.748C164.164 176.798 164.498 176.699 164.749 176.499C165 176.291 165.126 175.914 165.126 175.368H166.4Z" fill="#303E67"/>
<path d="M170.55 176.694C170.957 176.694 171.325 176.764 171.655 176.902C171.993 177.032 172.283 177.232 172.526 177.5C172.768 177.76 172.955 178.085 173.085 178.475C173.215 178.865 173.28 179.312 173.28 179.814V184H171.46V180.022C171.46 179.433 171.308 178.987 171.005 178.683C170.71 178.371 170.311 178.215 169.809 178.215C169.297 178.215 168.881 178.38 168.561 178.709C168.249 179.039 168.093 179.528 168.093 180.178V184H166.26V176.798H168.093V178.241C168.292 177.747 168.608 177.366 169.042 177.097C169.475 176.829 169.978 176.694 170.55 176.694Z" fill="#303E67"/>
<path d="M177.713 176.707C178.337 176.707 178.862 176.855 179.286 177.149C179.72 177.444 180.023 177.825 180.196 178.293V176.798H182.016V184.026C182.016 184.52 181.943 184.98 181.795 185.404C181.648 185.838 181.427 186.21 181.132 186.522C180.846 186.834 180.482 187.081 180.04 187.263C179.607 187.445 179.104 187.536 178.532 187.536C177.466 187.536 176.617 187.281 175.984 186.769C175.36 186.267 174.979 185.604 174.84 184.78H176.647C176.743 185.136 176.938 185.417 177.232 185.625C177.527 185.833 177.917 185.937 178.402 185.937C178.654 185.937 178.888 185.898 179.104 185.82C179.321 185.751 179.512 185.638 179.676 185.482C179.841 185.326 179.967 185.127 180.053 184.884C180.149 184.65 180.196 184.364 180.196 184.026V182.492C180.023 182.969 179.72 183.355 179.286 183.649C178.862 183.944 178.337 184.091 177.713 184.091C177.263 184.091 176.842 184.009 176.452 183.844C176.062 183.671 175.724 183.428 175.438 183.116C175.152 182.796 174.927 182.41 174.762 181.959C174.606 181.5 174.528 180.98 174.528 180.399C174.528 179.819 174.606 179.303 174.762 178.852C174.927 178.393 175.152 178.007 175.438 177.695C175.724 177.375 176.062 177.132 176.452 176.967C176.842 176.794 177.263 176.707 177.713 176.707ZM178.285 178.306C177.722 178.306 177.263 178.488 176.907 178.852C176.561 179.216 176.387 179.732 176.387 180.399C176.387 181.058 176.561 181.569 176.907 181.933C177.263 182.297 177.722 182.479 178.285 182.479C178.563 182.479 178.814 182.432 179.039 182.336C179.273 182.241 179.477 182.102 179.65 181.92C179.824 181.738 179.958 181.522 180.053 181.27C180.149 181.01 180.196 180.72 180.196 180.399C180.196 180.07 180.149 179.78 180.053 179.528C179.958 179.268 179.824 179.047 179.65 178.865C179.477 178.683 179.273 178.545 179.039 178.449C178.814 178.354 178.563 178.306 178.285 178.306Z" fill="#303E67"/>
<rect x="16" y="50" width="343" height="5" fill="#32864E"/>
<path d="M145 125L217 53" stroke="#303E67" stroke-width="2"/>
<path d="M215.707 55.7071L217.124 54.2904L215.71 52.8762L214.293 54.2929L215.707 55.7071ZM219.957 51.4571L222.79 48.6238L221.376 47.2096L218.543 50.0429L219.957 51.4571ZM225.624 45.7904L228.457 42.9571L227.043 41.5429L224.21 44.3762L225.624 45.7904ZM231.29 40.1238L234.124 37.2904L232.71 35.8762L229.876 38.7096L231.29 40.1238ZM236.957 34.4571L239.79 31.6238L238.376 30.2096L235.543 33.0429L236.957 34.4571ZM242.624 28.7904L245.457 25.9571L244.043 24.5429L241.21 27.3762L242.624 28.7904ZM248.29 23.1238L249.707 21.7071L248.293 20.2929L246.876 21.7096L248.29 23.1238Z" fill="#303E67"/>
<path d="M214.293 195.707L215.71 197.124L217.124 195.71L215.707 194.293L214.293 195.707ZM218.543 199.957L221.376 202.79L222.79 201.376L219.957 198.543L218.543 199.957ZM224.21 205.624L227.043 208.457L228.457 207.043L225.624 204.21L224.21 205.624ZM229.876 211.29L232.71 214.124L234.124 212.71L231.29 209.876L229.876 211.29ZM235.543 216.957L238.376 219.79L239.79 218.376L236.957 215.543L235.543 216.957ZM241.21 222.624L244.043 225.457L245.457 224.043L242.624 221.21L241.21 222.624ZM246.876 228.29L248.293 229.707L249.707 228.293L248.29 226.876L246.876 228.29Z" fill="#303E67"/>
<path d="M145 125L217 197" stroke="black" stroke-width="2"/>
<rect x="16" y="195" width="343" height="5" fill="#E04036"/>
<circle cx="216.5" cy="52.5" r="8.5" fill="#32864E"/>
<circle cx="144.5" cy="125.5" r="8.5" fill="#8691B3"/>
<circle cx="216.5" cy="197.5" r="8.5" fill="#E04036"/>
</svg>
