<svg width="375" height="250" viewBox="0 0 375 250" fill="none" xmlns="http://www.w3.org/2000/svg">
<rect width="375" height="250" fill="white"/>
<path d="M253 17H245L253 25V17Z" fill="#303E67"/>
<path d="M253 233L253 225L245 233L253 233Z" fill="#303E67"/>
<path d="M21.954 34.2674C22.5174 34.3887 22.9637 34.6574 23.293 35.0734C23.6224 35.4807 23.787 35.9574 23.787 36.5034C23.787 37.2661 23.5357 37.8727 23.033 38.3234C22.5304 38.7741 21.7764 38.9994 20.771 38.9994H16.832V29.8214H20.693C21.6377 29.8214 22.3527 30.0251 22.838 30.4324C23.332 30.8397 23.579 31.4117 23.579 32.1484C23.579 32.7464 23.423 33.2231 23.111 33.5784C22.8077 33.9251 22.422 34.1547 21.954 34.2674ZM18.665 33.6694H20.316C20.784 33.6694 21.135 33.5697 21.369 33.3704C21.603 33.1624 21.72 32.8677 21.72 32.4864C21.72 32.1224 21.603 31.8321 21.369 31.6154C21.1437 31.3987 20.784 31.2904 20.29 31.2904H18.665V33.6694ZM20.407 37.5044C20.901 37.5044 21.2737 37.4004 21.525 37.1924C21.785 36.9757 21.915 36.6637 21.915 36.2564C21.915 35.8491 21.785 35.5371 21.525 35.3204C21.265 35.0951 20.888 34.9824 20.394 34.9824H18.665V37.5044H20.407Z" fill="#303E67"/>
<path d="M31.9613 31.7974V38.9994H30.1283V37.5434C29.929 38.0374 29.6126 38.4187 29.1793 38.6874C28.746 38.9561 28.2433 39.0904 27.6713 39.0904C27.264 39.0904 26.8913 39.0254 26.5533 38.8954C26.224 38.7567 25.938 38.5574 25.6953 38.2974C25.4526 38.0287 25.2663 37.7037 25.1363 37.3224C25.0063 36.9324 24.9413 36.4861 24.9413 35.9834V31.7974H26.7613V35.7754C26.7613 36.3647 26.9086 36.8154 27.2033 37.1274C27.5066 37.4307 27.9053 37.5824 28.3993 37.5824C28.9193 37.5824 29.3353 37.4177 29.6473 37.0884C29.968 36.7591 30.1283 36.2694 30.1283 35.6194V31.7974H31.9613Z" fill="#303E67"/>
<path d="M34.8629 31.7974L36.8259 36.6854L38.6459 31.7974H40.6609L36.2539 42.4314H34.2259L35.8509 38.7914L32.8219 31.7974H34.8629Z" fill="#303E67"/>
<path d="M50.6605 36.4904C50.6605 36.8284 50.5955 37.1534 50.4655 37.4654C50.3441 37.7774 50.1535 38.0547 49.8935 38.2974C49.6421 38.5401 49.3215 38.7351 48.9315 38.8824C48.5501 39.0211 48.1038 39.0904 47.5925 39.0904C47.1071 39.0904 46.6565 39.0297 46.2405 38.9084C45.8245 38.7784 45.4648 38.5964 45.1615 38.3624C44.8581 38.1197 44.6111 37.8294 44.4205 37.4914C44.2385 37.1534 44.1301 36.7721 44.0955 36.3474H46.0455C46.0888 36.7114 46.2318 37.0191 46.4745 37.2704C46.7258 37.5217 47.0725 37.6474 47.5145 37.6474C47.9045 37.6474 48.1991 37.5434 48.3985 37.3354C48.5978 37.1274 48.6975 36.8674 48.6975 36.5554C48.6975 36.2087 48.5805 35.9401 48.3465 35.7494C48.1211 35.5587 47.8351 35.3941 47.4885 35.2554C47.1505 35.1167 46.7821 34.9867 46.3835 34.8654C45.9848 34.7441 45.6121 34.5794 45.2655 34.3714C44.9275 34.1634 44.6415 33.8947 44.4075 33.5654C44.1821 33.2361 44.0695 32.7941 44.0695 32.2394C44.0695 31.8407 44.1431 31.4854 44.2905 31.1734C44.4465 30.8614 44.6588 30.5971 44.9275 30.3804C45.2048 30.1551 45.5341 29.9861 45.9155 29.8734C46.2968 29.7521 46.7171 29.6914 47.1765 29.6914C47.6705 29.6914 48.1125 29.7564 48.5025 29.8864C48.9011 30.0077 49.2391 30.1811 49.5165 30.4064C49.7938 30.6317 50.0148 30.9047 50.1795 31.2254C50.3441 31.5374 50.4438 31.8841 50.4785 32.2654H48.5025C48.4591 31.9621 48.3291 31.6977 48.1125 31.4724C47.8958 31.2471 47.5795 31.1344 47.1635 31.1344C46.8341 31.1344 46.5611 31.2211 46.3445 31.3944C46.1365 31.5677 46.0325 31.8277 46.0325 32.1744C46.0325 32.5037 46.1451 32.7637 46.3705 32.9544C46.6045 33.1364 46.8905 33.2967 47.2285 33.4354C47.5751 33.5654 47.9478 33.6954 48.3465 33.8254C48.7451 33.9467 49.1135 34.1114 49.4515 34.3194C49.7981 34.5274 50.0841 34.8004 50.3095 35.1384C50.5435 35.4764 50.6605 35.9271 50.6605 36.4904Z" fill="#303E67"/>
<path d="M55.8587 37.4264V38.9994H54.8967C54.5241 38.9994 54.1817 38.9561 53.8697 38.8694C53.5664 38.7827 53.3021 38.6441 53.0767 38.4534C52.8601 38.2541 52.6911 37.9941 52.5697 37.6734C52.4571 37.3441 52.4007 36.9411 52.4007 36.4644V33.3444H51.3997V31.7974H52.4007V30.0164H54.2337V31.7974H55.8457V33.3444H54.2337V36.4904C54.2337 36.8457 54.3031 37.0927 54.4417 37.2314C54.5804 37.3614 54.8144 37.4264 55.1437 37.4264H55.8587Z" fill="#303E67"/>
<path d="M60.5057 31.7064C61.0344 31.7064 61.5241 31.7931 61.9747 31.9664C62.4254 32.1311 62.8154 32.3737 63.1447 32.6944C63.4741 33.0064 63.7297 33.3921 63.9117 33.8514C64.1024 34.3021 64.1977 34.8177 64.1977 35.3984C64.1977 35.9704 64.1024 36.4861 63.9117 36.9454C63.7297 37.4047 63.4741 37.7947 63.1447 38.1154C62.8154 38.4274 62.4254 38.6701 61.9747 38.8434C61.5241 39.0081 61.0344 39.0904 60.5057 39.0904C59.9771 39.0904 59.4874 39.0081 59.0367 38.8434C58.5861 38.6701 58.1961 38.4274 57.8667 38.1154C57.5374 37.7947 57.2774 37.4047 57.0867 36.9454C56.9047 36.4861 56.8137 35.9704 56.8137 35.3984C56.8137 34.8177 56.9047 34.3021 57.0867 33.8514C57.2774 33.3921 57.5374 33.0064 57.8667 32.6944C58.1961 32.3737 58.5861 32.1311 59.0367 31.9664C59.4874 31.7931 59.9771 31.7064 60.5057 31.7064ZM60.5057 33.2924C60.2717 33.2924 60.0421 33.3357 59.8167 33.4224C59.6001 33.5004 59.4051 33.6261 59.2317 33.7994C59.0671 33.9727 58.9327 34.1937 58.8287 34.4624C58.7247 34.7224 58.6727 35.0344 58.6727 35.3984C58.6727 35.7624 58.7247 36.0787 58.8287 36.3474C58.9327 36.6074 59.0671 36.8241 59.2317 36.9974C59.4051 37.1707 59.6001 37.3007 59.8167 37.3874C60.0421 37.4654 60.2717 37.5044 60.5057 37.5044C60.7397 37.5044 60.9651 37.4654 61.1817 37.3874C61.4071 37.3007 61.6021 37.1707 61.7667 36.9974C61.9401 36.8241 62.0787 36.6074 62.1827 36.3474C62.2867 36.0787 62.3387 35.7624 62.3387 35.3984C62.3387 35.0344 62.2867 34.7224 62.1827 34.4624C62.0787 34.1937 61.9401 33.9727 61.7667 33.7994C61.6021 33.6261 61.4071 33.5004 61.1817 33.4224C60.9651 33.3357 60.7397 33.2924 60.5057 33.2924Z" fill="#303E67"/>
<path d="M69.7962 31.7064C70.2555 31.7064 70.6758 31.7931 71.0572 31.9664C71.4472 32.1311 71.7852 32.3737 72.0712 32.6944C72.3572 33.0064 72.5782 33.3921 72.7342 33.8514C72.8988 34.3021 72.9812 34.8177 72.9812 35.3984C72.9812 35.9791 72.8988 36.4991 72.7342 36.9584C72.5782 37.4091 72.3572 37.7947 72.0712 38.1154C71.7852 38.4274 71.4472 38.6701 71.0572 38.8434C70.6758 39.0081 70.2555 39.0904 69.7962 39.0904C69.1722 39.0904 68.6478 38.9431 68.2232 38.6484C67.7985 38.3537 67.4995 37.9681 67.3262 37.4914V42.4314H65.4932V31.7974H67.3262V33.2924C67.4995 32.8244 67.7985 32.4431 68.2232 32.1484C68.6478 31.8537 69.1722 31.7064 69.7962 31.7064ZM69.2242 33.3054C68.9555 33.3054 68.7042 33.3531 68.4702 33.4484C68.2362 33.5437 68.0325 33.6824 67.8592 33.8644C67.6858 34.0464 67.5515 34.2674 67.4562 34.5274C67.3608 34.7787 67.3132 35.0691 67.3132 35.3984C67.3132 35.7191 67.3608 36.0094 67.4562 36.2694C67.5515 36.5207 67.6858 36.7374 67.8592 36.9194C68.0325 37.1014 68.2362 37.2401 68.4702 37.3354C68.7042 37.4307 68.9555 37.4784 69.2242 37.4784C69.7962 37.4784 70.2555 37.2964 70.6022 36.9324C70.9488 36.5684 71.1222 36.0571 71.1222 35.3984C71.1222 34.7311 70.9488 34.2154 70.6022 33.8514C70.2555 33.4874 69.7962 33.3054 69.2242 33.3054Z" fill="#303E67"/>
<path d="M244.05 35.8571V39.0011H242.358V30.5291H245.442C245.954 30.5291 246.398 30.5931 246.774 30.7211C247.158 30.8491 247.474 31.0331 247.722 31.2731C247.97 31.5051 248.154 31.7851 248.274 32.1131C248.402 32.4411 248.466 32.8051 248.466 33.2051C248.466 33.5971 248.402 33.9571 248.274 34.2851C248.146 34.6051 247.954 34.8851 247.698 35.1251C247.442 35.3571 247.126 35.5371 246.75 35.6651C246.374 35.7931 245.938 35.8571 245.442 35.8571H244.05ZM245.262 34.5011C245.814 34.5011 246.198 34.3851 246.414 34.1531C246.638 33.9131 246.75 33.5971 246.75 33.2051C246.75 32.7971 246.638 32.4771 246.414 32.2451C246.198 32.0131 245.814 31.8971 245.262 31.8971H244.05V34.5011H245.262Z" fill="#303E67"/>
<path d="M251.257 30.1211V39.0011H249.565V30.1211H251.257Z" fill="#303E67"/>
<path d="M255.392 32.2691C255.968 32.2691 256.452 32.4051 256.844 32.6771C257.244 32.9491 257.524 33.3011 257.684 33.7331V32.3531H259.364V39.0011H257.684V37.6091C257.524 38.0491 257.244 38.4051 256.844 38.6771C256.452 38.9491 255.968 39.0851 255.392 39.0851C254.976 39.0851 254.588 39.0091 254.228 38.8571C253.868 38.6971 253.556 38.4731 253.292 38.1851C253.028 37.8891 252.82 37.5331 252.668 37.1171C252.524 36.6931 252.452 36.2131 252.452 35.6771C252.452 35.1411 252.524 34.6651 252.668 34.2491C252.82 33.8251 253.028 33.4691 253.292 33.1811C253.556 32.8851 253.868 32.6611 254.228 32.5091C254.588 32.3491 254.976 32.2691 255.392 32.2691ZM255.92 33.7451C255.4 33.7451 254.976 33.9131 254.648 34.2491C254.328 34.5851 254.168 35.0611 254.168 35.6771C254.168 36.2851 254.328 36.7571 254.648 37.0931C254.976 37.4291 255.4 37.5971 255.92 37.5971C256.176 37.5971 256.408 37.5531 256.616 37.4651C256.832 37.3771 257.02 37.2491 257.18 37.0811C257.34 36.9131 257.464 36.7131 257.552 36.4811C257.64 36.2411 257.684 35.9731 257.684 35.6771C257.684 35.3731 257.64 35.1051 257.552 34.8731C257.464 34.6331 257.34 34.4291 257.18 34.2611C257.02 34.0931 256.832 33.9651 256.616 33.8771C256.408 33.7891 256.176 33.7451 255.92 33.7451Z" fill="#303E67"/>
<path d="M263.885 32.2691C264.749 32.2691 265.465 32.5011 266.033 32.9651C266.601 33.4291 266.957 34.0611 267.101 34.8611H265.313C265.241 34.5011 265.077 34.2211 264.821 34.0211C264.565 33.8211 264.241 33.7211 263.849 33.7211C263.641 33.7211 263.441 33.7611 263.249 33.8411C263.057 33.9131 262.889 34.0291 262.745 34.1891C262.601 34.3491 262.485 34.5531 262.397 34.8011C262.317 35.0491 262.277 35.3411 262.277 35.6771C262.277 36.0131 262.317 36.3051 262.397 36.5531C262.485 36.7931 262.601 36.9971 262.745 37.1651C262.889 37.3251 263.057 37.4451 263.249 37.5251C263.441 37.5971 263.641 37.6331 263.849 37.6331C264.241 37.6331 264.565 37.5331 264.821 37.3331C265.077 37.1331 265.241 36.8531 265.313 36.4931H267.101C266.957 37.2931 266.601 37.9251 266.033 38.3891C265.465 38.8531 264.749 39.0851 263.885 39.0851C263.397 39.0851 262.949 39.0091 262.541 38.8571C262.141 38.6971 261.793 38.4731 261.497 38.1851C261.201 37.8891 260.969 37.5291 260.801 37.1051C260.641 36.6811 260.561 36.2051 260.561 35.6771C260.561 35.1411 260.641 34.6651 260.801 34.2491C260.969 33.8251 261.201 33.4691 261.497 33.1811C261.793 32.8851 262.141 32.6611 262.541 32.5091C262.949 32.3491 263.397 32.2691 263.885 32.2691Z" fill="#303E67"/>
<path d="M274.555 35.4251C274.555 35.5371 274.547 35.6371 274.531 35.7251C274.523 35.8131 274.511 35.9051 274.495 36.0011H269.623C269.639 36.3211 269.691 36.5931 269.779 36.8171C269.867 37.0331 269.983 37.2091 270.127 37.3451C270.271 37.4811 270.435 37.5811 270.619 37.6451C270.811 37.7011 271.007 37.7291 271.207 37.7291C271.607 37.7291 271.935 37.6331 272.191 37.4411C272.447 37.2411 272.611 36.9811 272.683 36.6611H274.471C274.407 37.0051 274.283 37.3251 274.099 37.6211C273.923 37.9171 273.695 38.1731 273.415 38.3891C273.143 38.6051 272.827 38.7771 272.467 38.9051C272.107 39.0251 271.715 39.0851 271.291 39.0851C270.803 39.0851 270.355 39.0091 269.947 38.8571C269.547 38.6971 269.199 38.4731 268.903 38.1851C268.607 37.8891 268.375 37.5291 268.207 37.1051C268.047 36.6811 267.967 36.2051 267.967 35.6771C267.967 35.1411 268.047 34.6651 268.207 34.2491C268.375 33.8251 268.607 33.4691 268.903 33.1811C269.199 32.8851 269.547 32.6611 269.947 32.5091C270.355 32.3491 270.803 32.2691 271.291 32.2691C271.795 32.2691 272.247 32.3491 272.647 32.5091C273.047 32.6611 273.387 32.8811 273.667 33.1691C273.955 33.4491 274.175 33.7811 274.327 34.1651C274.479 34.5491 274.555 34.9691 274.555 35.4251ZM272.851 35.2571C272.867 34.9691 272.831 34.7211 272.743 34.5131C272.655 34.2971 272.539 34.1251 272.395 33.9971C272.251 33.8611 272.083 33.7611 271.891 33.6971C271.699 33.6331 271.499 33.6011 271.291 33.6011C270.859 33.6011 270.483 33.7371 270.163 34.0091C269.843 34.2731 269.663 34.6891 269.623 35.2571H272.851Z" fill="#303E67"/>
<path d="M282.342 32.2691C282.766 32.2691 283.154 32.3491 283.506 32.5091C283.866 32.6611 284.178 32.8851 284.442 33.1811C284.706 33.4691 284.91 33.8251 285.054 34.2491C285.206 34.6651 285.282 35.1411 285.282 35.6771C285.282 36.2131 285.206 36.6931 285.054 37.1171C284.91 37.5331 284.706 37.8891 284.442 38.1851C284.178 38.4731 283.866 38.6971 283.506 38.8571C283.154 39.0091 282.766 39.0851 282.342 39.0851C281.766 39.0851 281.282 38.9491 280.89 38.6771C280.498 38.4051 280.222 38.0491 280.062 37.6091V39.0011H278.37V30.1211H280.062V33.7331C280.222 33.3011 280.498 32.9491 280.89 32.6771C281.282 32.4051 281.766 32.2691 282.342 32.2691ZM281.814 33.7451C281.566 33.7451 281.334 33.7891 281.118 33.8771C280.902 33.9651 280.714 34.0931 280.554 34.2611C280.394 34.4291 280.27 34.6331 280.182 34.8731C280.094 35.1051 280.05 35.3731 280.05 35.6771C280.05 35.9731 280.094 36.2411 280.182 36.4811C280.27 36.7131 280.394 36.9131 280.554 37.0811C280.714 37.2491 280.902 37.3771 281.118 37.4651C281.334 37.5531 281.566 37.5971 281.814 37.5971C282.342 37.5971 282.766 37.4291 283.086 37.0931C283.406 36.7571 283.566 36.2851 283.566 35.6771C283.566 35.0611 283.406 34.5851 283.086 34.2491C282.766 33.9131 282.342 33.7451 281.814 33.7451Z" fill="#303E67"/>
<path d="M292.839 32.3531V39.0011H291.147V37.6571C290.963 38.1131 290.671 38.4651 290.271 38.7131C289.871 38.9611 289.407 39.0851 288.879 39.0851C288.503 39.0851 288.159 39.0251 287.847 38.9051C287.543 38.7771 287.279 38.5931 287.055 38.3531C286.831 38.1051 286.659 37.8051 286.539 37.4531C286.419 37.0931 286.359 36.6811 286.359 36.2171V32.3531H288.039V36.0251C288.039 36.5691 288.175 36.9851 288.447 37.2731C288.727 37.5531 289.095 37.6931 289.551 37.6931C290.031 37.6931 290.415 37.5411 290.703 37.2371C290.999 36.9331 291.147 36.4811 291.147 35.8811V32.3531H292.839Z" fill="#303E67"/>
<path d="M295.517 32.3531L297.329 36.8651L299.009 32.3531H300.869L296.801 42.1691H294.929L296.429 38.8091L293.633 32.3531H295.517Z" fill="#303E67"/>
<path d="M313.412 30.6251V39.0011H311.732V33.1571L309.584 39.0011H308.12L305.972 33.1811V39.0011H304.28V30.6251H306.332L308.876 36.9251L311.372 30.6251H313.412Z" fill="#303E67"/>
<path d="M316.636 35.8571V39.0011H314.944V30.5291H318.028C318.54 30.5291 318.984 30.5931 319.36 30.7211C319.744 30.8491 320.06 31.0331 320.308 31.2731C320.556 31.5051 320.74 31.7851 320.86 32.1131C320.988 32.4411 321.052 32.8051 321.052 33.2051C321.052 33.5971 320.988 33.9571 320.86 34.2851C320.732 34.6051 320.54 34.8851 320.284 35.1251C320.028 35.3571 319.712 35.5371 319.336 35.6651C318.96 35.7931 318.524 35.8571 318.028 35.8571H316.636ZM317.848 34.5011C318.4 34.5011 318.784 34.3851 319 34.1531C319.224 33.9131 319.336 33.5971 319.336 33.2051C319.336 32.7971 319.224 32.4771 319 32.2451C318.784 32.0131 318.4 31.8971 317.848 31.8971H316.636V34.5011H317.848Z" fill="#303E67"/>
<path d="M328.736 30.4091C329.336 30.4091 329.892 30.5171 330.404 30.7331C330.924 30.9411 331.372 31.2371 331.748 31.6211C332.132 32.0051 332.432 32.4611 332.648 32.9891C332.864 33.5171 332.972 34.1011 332.972 34.7411C332.972 35.3811 332.864 35.9691 332.648 36.5051C332.432 37.0331 332.132 37.4891 331.748 37.8731C331.372 38.2571 330.924 38.5571 330.404 38.7731C329.892 38.9811 329.336 39.0851 328.736 39.0851C328.136 39.0851 327.576 38.9811 327.056 38.7731C326.544 38.5571 326.096 38.2571 325.712 37.8731C325.336 37.4891 325.04 37.0331 324.824 36.5051C324.608 35.9691 324.5 35.3811 324.5 34.7411C324.5 34.1011 324.608 33.5171 324.824 32.9891C325.04 32.4611 325.336 32.0051 325.712 31.6211C326.096 31.2371 326.544 30.9411 327.056 30.7331C327.576 30.5171 328.136 30.4091 328.736 30.4091ZM328.736 31.9691C328.368 31.9691 328.028 32.0331 327.716 32.1611C327.412 32.2891 327.148 32.4731 326.924 32.7131C326.7 32.9531 326.528 33.2451 326.408 33.5891C326.288 33.9331 326.228 34.3171 326.228 34.7411C326.228 35.1651 326.288 35.5491 326.408 35.8931C326.528 36.2371 326.7 36.5291 326.924 36.7691C327.148 37.0091 327.412 37.1931 327.716 37.3211C328.028 37.4491 328.368 37.5131 328.736 37.5131C329.112 37.5131 329.452 37.4491 329.756 37.3211C330.06 37.1931 330.324 37.0091 330.548 36.7691C330.772 36.5291 330.944 36.2371 331.064 35.8931C331.184 35.5491 331.244 35.1651 331.244 34.7411C331.244 34.3171 331.184 33.9331 331.064 33.5891C330.944 33.2451 330.772 32.9531 330.548 32.7131C330.324 32.4731 330.06 32.2891 329.756 32.1611C329.452 32.0331 329.112 31.9691 328.736 31.9691Z" fill="#303E67"/>
<path d="M335.937 33.6251C336.177 33.2171 336.497 32.8891 336.897 32.6411C337.305 32.3851 337.769 32.2571 338.289 32.2571V34.0691H337.797C337.533 34.0691 337.289 34.0971 337.065 34.1531C336.841 34.2091 336.645 34.3051 336.477 34.4411C336.309 34.5691 336.177 34.7451 336.081 34.9691C335.985 35.1931 335.937 35.4691 335.937 35.7971V39.0011H334.245V32.3531H335.937V33.6251Z" fill="#303E67"/>
<path d="M341.829 32.2691C342.405 32.2691 342.889 32.4051 343.281 32.6771C343.673 32.9491 343.953 33.3011 344.121 33.7331V30.1211H345.801V39.0011H344.121V37.6091C343.953 38.0491 343.673 38.4051 343.281 38.6771C342.889 38.9491 342.405 39.0851 341.829 39.0851C341.413 39.0851 341.025 39.0091 340.665 38.8571C340.305 38.6971 339.993 38.4731 339.729 38.1851C339.465 37.8891 339.257 37.5331 339.105 37.1171C338.961 36.6931 338.889 36.2131 338.889 35.6771C338.889 35.1411 338.961 34.6651 339.105 34.2491C339.257 33.8251 339.465 33.4691 339.729 33.1811C339.993 32.8851 340.305 32.6611 340.665 32.5091C341.025 32.3491 341.413 32.2691 341.829 32.2691ZM342.357 33.7451C341.837 33.7451 341.413 33.9131 341.085 34.2491C340.765 34.5851 340.605 35.0611 340.605 35.6771C340.605 36.2851 340.765 36.7571 341.085 37.0931C341.413 37.4291 341.837 37.5971 342.357 37.5971C342.613 37.5971 342.845 37.5531 343.053 37.4651C343.269 37.3771 343.457 37.2491 343.617 37.0811C343.777 36.9131 343.901 36.7131 343.989 36.4811C344.077 36.2411 344.121 35.9731 344.121 35.6771C344.121 35.3731 344.077 35.1051 343.989 34.8731C343.901 34.6331 343.777 34.4291 343.617 34.2611C343.457 34.0931 343.269 33.9651 343.053 33.8771C342.845 33.7891 342.613 33.7451 342.357 33.7451Z" fill="#303E67"/>
<path d="M353.586 35.4251C353.586 35.5371 353.578 35.6371 353.562 35.7251C353.554 35.8131 353.542 35.9051 353.526 36.0011H348.654C348.67 36.3211 348.722 36.5931 348.81 36.8171C348.898 37.0331 349.014 37.2091 349.158 37.3451C349.302 37.4811 349.466 37.5811 349.65 37.6451C349.842 37.7011 350.038 37.7291 350.238 37.7291C350.638 37.7291 350.966 37.6331 351.222 37.4411C351.478 37.2411 351.642 36.9811 351.714 36.6611H353.502C353.438 37.0051 353.314 37.3251 353.13 37.6211C352.954 37.9171 352.726 38.1731 352.446 38.3891C352.174 38.6051 351.858 38.7771 351.498 38.9051C351.138 39.0251 350.746 39.0851 350.322 39.0851C349.834 39.0851 349.386 39.0091 348.978 38.8571C348.578 38.6971 348.23 38.4731 347.934 38.1851C347.638 37.8891 347.406 37.5291 347.238 37.1051C347.078 36.6811 346.998 36.2051 346.998 35.6771C346.998 35.1411 347.078 34.6651 347.238 34.2491C347.406 33.8251 347.638 33.4691 347.934 33.1811C348.23 32.8851 348.578 32.6611 348.978 32.5091C349.386 32.3491 349.834 32.2691 350.322 32.2691C350.826 32.2691 351.278 32.3491 351.678 32.5091C352.078 32.6611 352.418 32.8811 352.698 33.1691C352.986 33.4491 353.206 33.7811 353.358 34.1651C353.51 34.5491 353.586 34.9691 353.586 35.4251ZM351.882 35.2571C351.898 34.9691 351.862 34.7211 351.774 34.5131C351.686 34.2971 351.57 34.1251 351.426 33.9971C351.282 33.8611 351.114 33.7611 350.922 33.6971C350.73 33.6331 350.53 33.6011 350.322 33.6011C349.89 33.6011 349.514 33.7371 349.194 34.0091C348.874 34.2731 348.694 34.6891 348.654 35.2571H351.882Z" fill="#303E67"/>
<path d="M356.48 33.6251C356.72 33.2171 357.04 32.8891 357.44 32.6411C357.848 32.3851 358.312 32.2571 358.832 32.2571V34.0691H358.34C358.076 34.0691 357.832 34.0971 357.608 34.1531C357.384 34.2091 357.188 34.3051 357.02 34.4411C356.852 34.5691 356.72 34.7451 356.624 34.9691C356.528 35.1931 356.48 35.4691 356.48 35.7971V39.0011H354.788V32.3531H356.48V33.6251Z" fill="#303E67"/>
<path d="M246.956 215.857V219.001H245.264V210.529H248.348C248.86 210.529 249.304 210.593 249.68 210.721C250.064 210.849 250.38 211.033 250.628 211.273C250.876 211.505 251.06 211.785 251.18 212.113C251.308 212.441 251.372 212.805 251.372 213.205C251.372 213.597 251.308 213.957 251.18 214.285C251.052 214.605 250.86 214.885 250.604 215.125C250.348 215.357 250.032 215.537 249.656 215.665C249.28 215.793 248.844 215.857 248.348 215.857H246.956ZM248.168 214.501C248.72 214.501 249.104 214.385 249.32 214.153C249.544 213.913 249.656 213.597 249.656 213.205C249.656 212.797 249.544 212.477 249.32 212.245C249.104 212.013 248.72 211.897 248.168 211.897H246.956V214.501H248.168Z" fill="#303E67"/>
<path d="M254.163 210.121V219.001H252.471V210.121H254.163Z" fill="#303E67"/>
<path d="M258.298 212.269C258.874 212.269 259.358 212.405 259.75 212.677C260.15 212.949 260.43 213.301 260.59 213.733V212.353H262.27V219.001H260.59V217.609C260.43 218.049 260.15 218.405 259.75 218.677C259.358 218.949 258.874 219.085 258.298 219.085C257.882 219.085 257.494 219.009 257.134 218.857C256.774 218.697 256.462 218.473 256.198 218.185C255.934 217.889 255.726 217.533 255.574 217.117C255.43 216.693 255.358 216.213 255.358 215.677C255.358 215.141 255.43 214.665 255.574 214.249C255.726 213.825 255.934 213.469 256.198 213.181C256.462 212.885 256.774 212.661 257.134 212.509C257.494 212.349 257.882 212.269 258.298 212.269ZM258.826 213.745C258.306 213.745 257.882 213.913 257.554 214.249C257.234 214.585 257.074 215.061 257.074 215.677C257.074 216.285 257.234 216.757 257.554 217.093C257.882 217.429 258.306 217.597 258.826 217.597C259.082 217.597 259.314 217.553 259.522 217.465C259.738 217.377 259.926 217.249 260.086 217.081C260.246 216.913 260.37 216.713 260.458 216.481C260.546 216.241 260.59 215.973 260.59 215.677C260.59 215.373 260.546 215.105 260.458 214.873C260.37 214.633 260.246 214.429 260.086 214.261C259.926 214.093 259.738 213.965 259.522 213.877C259.314 213.789 259.082 213.745 258.826 213.745Z" fill="#303E67"/>
<path d="M266.791 212.269C267.655 212.269 268.371 212.501 268.939 212.965C269.507 213.429 269.863 214.061 270.007 214.861H268.219C268.147 214.501 267.983 214.221 267.727 214.021C267.471 213.821 267.147 213.721 266.755 213.721C266.547 213.721 266.347 213.761 266.155 213.841C265.963 213.913 265.795 214.029 265.651 214.189C265.507 214.349 265.391 214.553 265.303 214.801C265.223 215.049 265.183 215.341 265.183 215.677C265.183 216.013 265.223 216.305 265.303 216.553C265.391 216.793 265.507 216.997 265.651 217.165C265.795 217.325 265.963 217.445 266.155 217.525C266.347 217.597 266.547 217.633 266.755 217.633C267.147 217.633 267.471 217.533 267.727 217.333C267.983 217.133 268.147 216.853 268.219 216.493H270.007C269.863 217.293 269.507 217.925 268.939 218.389C268.371 218.853 267.655 219.085 266.791 219.085C266.303 219.085 265.855 219.009 265.447 218.857C265.047 218.697 264.699 218.473 264.403 218.185C264.107 217.889 263.875 217.529 263.707 217.105C263.547 216.681 263.467 216.205 263.467 215.677C263.467 215.141 263.547 214.665 263.707 214.249C263.875 213.825 264.107 213.469 264.403 213.181C264.699 212.885 265.047 212.661 265.447 212.509C265.855 212.349 266.303 212.269 266.791 212.269Z" fill="#303E67"/>
<path d="M277.461 215.425C277.461 215.537 277.453 215.637 277.437 215.725C277.429 215.813 277.417 215.905 277.401 216.001H272.529C272.545 216.321 272.597 216.593 272.685 216.817C272.773 217.033 272.889 217.209 273.033 217.345C273.177 217.481 273.341 217.581 273.525 217.645C273.717 217.701 273.913 217.729 274.113 217.729C274.513 217.729 274.841 217.633 275.097 217.441C275.353 217.241 275.517 216.981 275.589 216.661H277.377C277.313 217.005 277.189 217.325 277.005 217.621C276.829 217.917 276.601 218.173 276.321 218.389C276.049 218.605 275.733 218.777 275.373 218.905C275.013 219.025 274.621 219.085 274.197 219.085C273.709 219.085 273.261 219.009 272.853 218.857C272.453 218.697 272.105 218.473 271.809 218.185C271.513 217.889 271.281 217.529 271.113 217.105C270.953 216.681 270.873 216.205 270.873 215.677C270.873 215.141 270.953 214.665 271.113 214.249C271.281 213.825 271.513 213.469 271.809 213.181C272.105 212.885 272.453 212.661 272.853 212.509C273.261 212.349 273.709 212.269 274.197 212.269C274.701 212.269 275.153 212.349 275.553 212.509C275.953 212.661 276.293 212.881 276.573 213.169C276.861 213.449 277.081 213.781 277.233 214.165C277.385 214.549 277.461 214.969 277.461 215.425ZM275.757 215.257C275.773 214.969 275.737 214.721 275.649 214.513C275.561 214.297 275.445 214.125 275.301 213.997C275.157 213.861 274.989 213.761 274.797 213.697C274.605 213.633 274.405 213.601 274.197 213.601C273.765 213.601 273.389 213.737 273.069 214.009C272.749 214.273 272.569 214.689 272.529 215.257H275.757Z" fill="#303E67"/>
<path d="M283.568 212.269C283.992 212.269 284.368 212.325 284.696 212.437C285.024 212.549 285.304 212.705 285.536 212.905C285.776 213.097 285.968 213.333 286.112 213.613C286.264 213.885 286.368 214.185 286.424 214.513H284.84C284.776 214.201 284.632 213.949 284.408 213.757C284.192 213.557 283.9 213.457 283.532 213.457C283.236 213.457 283.008 213.525 282.848 213.661C282.696 213.797 282.62 213.981 282.62 214.213C282.62 214.445 282.716 214.621 282.908 214.741C283.1 214.853 283.34 214.949 283.628 215.029C283.916 215.101 284.228 215.177 284.564 215.257C284.9 215.329 285.212 215.437 285.5 215.581C285.788 215.717 286.028 215.909 286.22 216.157C286.412 216.405 286.508 216.745 286.508 217.177C286.508 217.737 286.288 218.197 285.848 218.557C285.416 218.909 284.816 219.085 284.048 219.085C283.176 219.085 282.48 218.893 281.96 218.509C281.448 218.117 281.136 217.561 281.024 216.841H282.644C282.684 217.169 282.824 217.429 283.064 217.621C283.312 217.805 283.64 217.897 284.048 217.897C284.344 217.897 284.564 217.825 284.708 217.681C284.86 217.537 284.936 217.357 284.936 217.141C284.936 216.901 284.84 216.721 284.648 216.601C284.456 216.473 284.216 216.373 283.928 216.301C283.648 216.221 283.34 216.149 283.004 216.085C282.676 216.013 282.368 215.909 282.08 215.773C281.8 215.637 281.564 215.449 281.372 215.209C281.18 214.969 281.084 214.637 281.084 214.213C281.084 213.645 281.296 213.181 281.72 212.821C282.152 212.453 282.768 212.269 283.568 212.269Z" fill="#303E67"/>
<path d="M294.02 215.425C294.02 215.537 294.012 215.637 293.996 215.725C293.988 215.813 293.976 215.905 293.96 216.001H289.088C289.104 216.321 289.156 216.593 289.244 216.817C289.332 217.033 289.448 217.209 289.592 217.345C289.736 217.481 289.9 217.581 290.084 217.645C290.276 217.701 290.472 217.729 290.672 217.729C291.072 217.729 291.4 217.633 291.656 217.441C291.912 217.241 292.076 216.981 292.148 216.661H293.936C293.872 217.005 293.748 217.325 293.564 217.621C293.388 217.917 293.16 218.173 292.88 218.389C292.608 218.605 292.292 218.777 291.932 218.905C291.572 219.025 291.18 219.085 290.756 219.085C290.268 219.085 289.82 219.009 289.412 218.857C289.012 218.697 288.664 218.473 288.368 218.185C288.072 217.889 287.84 217.529 287.672 217.105C287.512 216.681 287.432 216.205 287.432 215.677C287.432 215.141 287.512 214.665 287.672 214.249C287.84 213.825 288.072 213.469 288.368 213.181C288.664 212.885 289.012 212.661 289.412 212.509C289.82 212.349 290.268 212.269 290.756 212.269C291.26 212.269 291.712 212.349 292.112 212.509C292.512 212.661 292.852 212.881 293.132 213.169C293.42 213.449 293.64 213.781 293.792 214.165C293.944 214.549 294.02 214.969 294.02 215.425ZM292.316 215.257C292.332 214.969 292.296 214.721 292.208 214.513C292.12 214.297 292.004 214.125 291.86 213.997C291.716 213.861 291.548 213.761 291.356 213.697C291.164 213.633 290.964 213.601 290.756 213.601C290.324 213.601 289.948 213.737 289.628 214.009C289.308 214.273 289.128 214.689 289.088 215.257H292.316Z" fill="#303E67"/>
<path d="M296.913 210.121V219.001H295.221V210.121H296.913Z" fill="#303E67"/>
<path d="M300.136 210.121V219.001H298.444V210.121H300.136Z" fill="#303E67"/>
<path d="M313.412 210.625V219.001H311.732V213.157L309.584 219.001H308.12L305.972 213.181V219.001H304.28V210.625H306.332L308.876 216.925L311.372 210.625H313.412Z" fill="#303E67"/>
<path d="M316.636 215.857V219.001H314.944V210.529H318.028C318.54 210.529 318.984 210.593 319.36 210.721C319.744 210.849 320.06 211.033 320.308 211.273C320.556 211.505 320.74 211.785 320.86 212.113C320.988 212.441 321.052 212.805 321.052 213.205C321.052 213.597 320.988 213.957 320.86 214.285C320.732 214.605 320.54 214.885 320.284 215.125C320.028 215.357 319.712 215.537 319.336 215.665C318.96 215.793 318.524 215.857 318.028 215.857H316.636ZM317.848 214.501C318.4 214.501 318.784 214.385 319 214.153C319.224 213.913 319.336 213.597 319.336 213.205C319.336 212.797 319.224 212.477 319 212.245C318.784 212.013 318.4 211.897 317.848 211.897H316.636V214.501H317.848Z" fill="#303E67"/>
<path d="M328.736 210.409C329.336 210.409 329.892 210.517 330.404 210.733C330.924 210.941 331.372 211.237 331.748 211.621C332.132 212.005 332.432 212.461 332.648 212.989C332.864 213.517 332.972 214.101 332.972 214.741C332.972 215.381 332.864 215.969 332.648 216.505C332.432 217.033 332.132 217.489 331.748 217.873C331.372 218.257 330.924 218.557 330.404 218.773C329.892 218.981 329.336 219.085 328.736 219.085C328.136 219.085 327.576 218.981 327.056 218.773C326.544 218.557 326.096 218.257 325.712 217.873C325.336 217.489 325.04 217.033 324.824 216.505C324.608 215.969 324.5 215.381 324.5 214.741C324.5 214.101 324.608 213.517 324.824 212.989C325.04 212.461 325.336 212.005 325.712 211.621C326.096 211.237 326.544 210.941 327.056 210.733C327.576 210.517 328.136 210.409 328.736 210.409ZM328.736 211.969C328.368 211.969 328.028 212.033 327.716 212.161C327.412 212.289 327.148 212.473 326.924 212.713C326.7 212.953 326.528 213.245 326.408 213.589C326.288 213.933 326.228 214.317 326.228 214.741C326.228 215.165 326.288 215.549 326.408 215.893C326.528 216.237 326.7 216.529 326.924 216.769C327.148 217.009 327.412 217.193 327.716 217.321C328.028 217.449 328.368 217.513 328.736 217.513C329.112 217.513 329.452 217.449 329.756 217.321C330.06 217.193 330.324 217.009 330.548 216.769C330.772 216.529 330.944 216.237 331.064 215.893C331.184 215.549 331.244 215.165 331.244 214.741C331.244 214.317 331.184 213.933 331.064 213.589C330.944 213.245 330.772 212.953 330.548 212.713C330.324 212.473 330.06 212.289 329.756 212.161C329.452 212.033 329.112 211.969 328.736 211.969Z" fill="#303E67"/>
<path d="M335.937 213.625C336.177 213.217 336.497 212.889 336.897 212.641C337.305 212.385 337.769 212.257 338.289 212.257V214.069H337.797C337.533 214.069 337.289 214.097 337.065 214.153C336.841 214.209 336.645 214.305 336.477 214.441C336.309 214.569 336.177 214.745 336.081 214.969C335.985 215.193 335.937 215.469 335.937 215.797V219.001H334.245V212.353H335.937V213.625Z" fill="#303E67"/>
<path d="M341.829 212.269C342.405 212.269 342.889 212.405 343.281 212.677C343.673 212.949 343.953 213.301 344.121 213.733V210.121H345.801V219.001H344.121V217.609C343.953 218.049 343.673 218.405 343.281 218.677C342.889 218.949 342.405 219.085 341.829 219.085C341.413 219.085 341.025 219.009 340.665 218.857C340.305 218.697 339.993 218.473 339.729 218.185C339.465 217.889 339.257 217.533 339.105 217.117C338.961 216.693 338.889 216.213 338.889 215.677C338.889 215.141 338.961 214.665 339.105 214.249C339.257 213.825 339.465 213.469 339.729 213.181C339.993 212.885 340.305 212.661 340.665 212.509C341.025 212.349 341.413 212.269 341.829 212.269ZM342.357 213.745C341.837 213.745 341.413 213.913 341.085 214.249C340.765 214.585 340.605 215.061 340.605 215.677C340.605 216.285 340.765 216.757 341.085 217.093C341.413 217.429 341.837 217.597 342.357 217.597C342.613 217.597 342.845 217.553 343.053 217.465C343.269 217.377 343.457 217.249 343.617 217.081C343.777 216.913 343.901 216.713 343.989 216.481C344.077 216.241 344.121 215.973 344.121 215.677C344.121 215.373 344.077 215.105 343.989 214.873C343.901 214.633 343.777 214.429 343.617 214.261C343.457 214.093 343.269 213.965 343.053 213.877C342.845 213.789 342.613 213.745 342.357 213.745Z" fill="#303E67"/>
<path d="M353.586 215.425C353.586 215.537 353.578 215.637 353.562 215.725C353.554 215.813 353.542 215.905 353.526 216.001H348.654C348.67 216.321 348.722 216.593 348.81 216.817C348.898 217.033 349.014 217.209 349.158 217.345C349.302 217.481 349.466 217.581 349.65 217.645C349.842 217.701 350.038 217.729 350.238 217.729C350.638 217.729 350.966 217.633 351.222 217.441C351.478 217.241 351.642 216.981 351.714 216.661H353.502C353.438 217.005 353.314 217.325 353.13 217.621C352.954 217.917 352.726 218.173 352.446 218.389C352.174 218.605 351.858 218.777 351.498 218.905C351.138 219.025 350.746 219.085 350.322 219.085C349.834 219.085 349.386 219.009 348.978 218.857C348.578 218.697 348.23 218.473 347.934 218.185C347.638 217.889 347.406 217.529 347.238 217.105C347.078 216.681 346.998 216.205 346.998 215.677C346.998 215.141 347.078 214.665 347.238 214.249C347.406 213.825 347.638 213.469 347.934 213.181C348.23 212.885 348.578 212.661 348.978 212.509C349.386 212.349 349.834 212.269 350.322 212.269C350.826 212.269 351.278 212.349 351.678 212.509C352.078 212.661 352.418 212.881 352.698 213.169C352.986 213.449 353.206 213.781 353.358 214.165C353.51 214.549 353.586 214.969 353.586 215.425ZM351.882 215.257C351.898 214.969 351.862 214.721 351.774 214.513C351.686 214.297 351.57 214.125 351.426 213.997C351.282 213.861 351.114 213.761 350.922 213.697C350.73 213.633 350.53 213.601 350.322 213.601C349.89 213.601 349.514 213.737 349.194 214.009C348.874 214.273 348.694 214.689 348.654 215.257H351.882Z" fill="#303E67"/>
<path d="M356.48 213.625C356.72 213.217 357.04 212.889 357.44 212.641C357.848 212.385 358.312 212.257 358.832 212.257V214.069H358.34C358.076 214.069 357.832 214.097 357.608 214.153C357.384 214.209 357.188 214.305 357.02 214.441C356.852 214.569 356.72 214.745 356.624 214.969C356.528 215.193 356.48 215.469 356.48 215.797V219.001H354.788V212.353H356.48V213.625Z" fill="#303E67"/>
<path d="M23.1369 216.49C23.1369 216.828 23.0719 217.153 22.9419 217.465C22.8206 217.777 22.6299 218.054 22.3699 218.297C22.1186 218.54 21.7979 218.735 21.4079 218.882C21.0266 219.021 20.5802 219.09 20.0689 219.09C19.5836 219.09 19.1329 219.029 18.7169 218.908C18.3009 218.778 17.9412 218.596 17.6379 218.362C17.3346 218.119 17.0876 217.829 16.8969 217.491C16.7149 217.153 16.6066 216.772 16.5719 216.347H18.5219C18.5652 216.711 18.7082 217.019 18.9509 217.27C19.2022 217.521 19.5489 217.647 19.9909 217.647C20.3809 217.647 20.6756 217.543 20.8749 217.335C21.0742 217.127 21.1739 216.867 21.1739 216.555C21.1739 216.208 21.0569 215.94 20.8229 215.749C20.5976 215.558 20.3116 215.394 19.9649 215.255C19.6269 215.116 19.2586 214.986 18.8599 214.865C18.4612 214.744 18.0886 214.579 17.7419 214.371C17.4039 214.163 17.1179 213.894 16.8839 213.565C16.6586 213.236 16.5459 212.794 16.5459 212.239C16.5459 211.84 16.6196 211.485 16.7669 211.173C16.9229 210.861 17.1352 210.597 17.4039 210.38C17.6812 210.155 18.0106 209.986 18.3919 209.873C18.7732 209.752 19.1936 209.691 19.6529 209.691C20.1469 209.691 20.5889 209.756 20.9789 209.886C21.3776 210.007 21.7156 210.181 21.9929 210.406C22.2702 210.631 22.4912 210.904 22.6559 211.225C22.8206 211.537 22.9202 211.884 22.9549 212.265H20.9789C20.9356 211.962 20.8056 211.697 20.5889 211.472C20.3722 211.247 20.0559 211.134 19.6399 211.134C19.3106 211.134 19.0376 211.221 18.8209 211.394C18.6129 211.567 18.5089 211.827 18.5089 212.174C18.5089 212.503 18.6216 212.763 18.8469 212.954C19.0809 213.136 19.3669 213.296 19.7049 213.435C20.0516 213.565 20.4242 213.695 20.8229 213.825C21.2216 213.946 21.5899 214.111 21.9279 214.319C22.2746 214.527 22.5606 214.8 22.7859 215.138C23.0199 215.476 23.1369 215.927 23.1369 216.49Z" fill="#303E67"/>
<path d="M31.2602 215.125C31.2602 215.246 31.2515 215.355 31.2342 215.45C31.2255 215.545 31.2125 215.645 31.1952 215.749H25.9172C25.9345 216.096 25.9908 216.39 26.0862 216.633C26.1815 216.867 26.3072 217.058 26.4632 217.205C26.6192 217.352 26.7968 217.461 26.9962 217.53C27.2042 217.591 27.4165 217.621 27.6332 217.621C28.0665 217.621 28.4218 217.517 28.6992 217.309C28.9765 217.092 29.1542 216.811 29.2322 216.464H31.1692C31.0998 216.837 30.9655 217.183 30.7662 217.504C30.5755 217.825 30.3285 218.102 30.0252 218.336C29.7305 218.57 29.3882 218.756 28.9982 218.895C28.6082 219.025 28.1835 219.09 27.7242 219.09C27.1955 219.09 26.7102 219.008 26.2682 218.843C25.8348 218.67 25.4578 218.427 25.1372 218.115C24.8165 217.794 24.5652 217.404 24.3832 216.945C24.2098 216.486 24.1232 215.97 24.1232 215.398C24.1232 214.817 24.2098 214.302 24.3832 213.851C24.5652 213.392 24.8165 213.006 25.1372 212.694C25.4578 212.373 25.8348 212.131 26.2682 211.966C26.7102 211.793 27.1955 211.706 27.7242 211.706C28.2702 211.706 28.7598 211.793 29.1932 211.966C29.6265 212.131 29.9948 212.369 30.2982 212.681C30.6102 212.984 30.8485 213.344 31.0132 213.76C31.1778 214.176 31.2602 214.631 31.2602 215.125ZM29.4142 214.943C29.4315 214.631 29.3925 214.362 29.2972 214.137C29.2018 213.903 29.0762 213.717 28.9202 213.578C28.7642 213.431 28.5822 213.322 28.3742 213.253C28.1662 213.184 27.9495 213.149 27.7242 213.149C27.2562 213.149 26.8488 213.296 26.5022 213.591C26.1555 213.877 25.9605 214.328 25.9172 214.943H29.4142Z" fill="#303E67"/>
<path d="M34.3944 209.379V218.999H32.5614V209.379H34.3944Z" fill="#303E67"/>
<path d="M37.8856 209.379V218.999H36.0526V209.379H37.8856Z" fill="#303E67"/>
<path d="M48.6799 216.49C48.6799 216.828 48.6149 217.153 48.4849 217.465C48.3635 217.777 48.1729 218.054 47.9129 218.297C47.6615 218.54 47.3409 218.735 46.9509 218.882C46.5695 219.021 46.1232 219.09 45.6119 219.09C45.1265 219.09 44.6759 219.029 44.2599 218.908C43.8439 218.778 43.4842 218.596 43.1809 218.362C42.8775 218.119 42.6305 217.829 42.4399 217.491C42.2579 217.153 42.1495 216.772 42.1149 216.347H44.0649C44.1082 216.711 44.2512 217.019 44.4939 217.27C44.7452 217.521 45.0919 217.647 45.5339 217.647C45.9239 217.647 46.2185 217.543 46.4179 217.335C46.6172 217.127 46.7169 216.867 46.7169 216.555C46.7169 216.208 46.5999 215.94 46.3659 215.749C46.1405 215.558 45.8545 215.394 45.5079 215.255C45.1699 215.116 44.8015 214.986 44.4029 214.865C44.0042 214.744 43.6315 214.579 43.2849 214.371C42.9469 214.163 42.6609 213.894 42.4269 213.565C42.2015 213.236 42.0889 212.794 42.0889 212.239C42.0889 211.84 42.1625 211.485 42.3099 211.173C42.4659 210.861 42.6782 210.597 42.9469 210.38C43.2242 210.155 43.5535 209.986 43.9349 209.873C44.3162 209.752 44.7365 209.691 45.1959 209.691C45.6899 209.691 46.1319 209.756 46.5219 209.886C46.9205 210.007 47.2585 210.181 47.5359 210.406C47.8132 210.631 48.0342 210.904 48.1989 211.225C48.3635 211.537 48.4632 211.884 48.4979 212.265H46.5219C46.4785 211.962 46.3485 211.697 46.1319 211.472C45.9152 211.247 45.5989 211.134 45.1829 211.134C44.8535 211.134 44.5805 211.221 44.3639 211.394C44.1559 211.567 44.0519 211.827 44.0519 212.174C44.0519 212.503 44.1645 212.763 44.3899 212.954C44.6239 213.136 44.9099 213.296 45.2479 213.435C45.5945 213.565 45.9672 213.695 46.3659 213.825C46.7645 213.946 47.1329 214.111 47.4709 214.319C47.8175 214.527 48.1035 214.8 48.3289 215.138C48.5629 215.476 48.6799 215.927 48.6799 216.49Z" fill="#303E67"/>
<path d="M53.8781 217.426V218.999H52.9161C52.5435 218.999 52.2011 218.956 51.8891 218.869C51.5858 218.782 51.3215 218.644 51.0961 218.453C50.8795 218.254 50.7105 217.994 50.5891 217.673C50.4765 217.344 50.4201 216.941 50.4201 216.464V213.344H49.4191V211.797H50.4201V210.016H52.2531V211.797H53.8651V213.344H52.2531V216.49C52.2531 216.845 52.3225 217.092 52.4611 217.231C52.5998 217.361 52.8338 217.426 53.1631 217.426H53.8781Z" fill="#303E67"/>
<path d="M58.5251 211.706C59.0538 211.706 59.5435 211.793 59.9941 211.966C60.4448 212.131 60.8348 212.373 61.1641 212.694C61.4935 213.006 61.7491 213.392 61.9311 213.851C62.1218 214.302 62.2171 214.817 62.2171 215.398C62.2171 215.97 62.1218 216.486 61.9311 216.945C61.7491 217.404 61.4935 217.794 61.1641 218.115C60.8348 218.427 60.4448 218.67 59.9941 218.843C59.5435 219.008 59.0538 219.09 58.5251 219.09C57.9965 219.09 57.5068 219.008 57.0561 218.843C56.6055 218.67 56.2155 218.427 55.8861 218.115C55.5568 217.794 55.2968 217.404 55.1061 216.945C54.9241 216.486 54.8331 215.97 54.8331 215.398C54.8331 214.817 54.9241 214.302 55.1061 213.851C55.2968 213.392 55.5568 213.006 55.8861 212.694C56.2155 212.373 56.6055 212.131 57.0561 211.966C57.5068 211.793 57.9965 211.706 58.5251 211.706ZM58.5251 213.292C58.2911 213.292 58.0615 213.335 57.8361 213.422C57.6195 213.5 57.4245 213.626 57.2511 213.799C57.0865 213.972 56.9521 214.193 56.8481 214.462C56.7441 214.722 56.6921 215.034 56.6921 215.398C56.6921 215.762 56.7441 216.078 56.8481 216.347C56.9521 216.607 57.0865 216.824 57.2511 216.997C57.4245 217.17 57.6195 217.3 57.8361 217.387C58.0615 217.465 58.2911 217.504 58.5251 217.504C58.7591 217.504 58.9845 217.465 59.2011 217.387C59.4265 217.3 59.6215 217.17 59.7861 216.997C59.9595 216.824 60.0981 216.607 60.2021 216.347C60.3061 216.078 60.3581 215.762 60.3581 215.398C60.3581 215.034 60.3061 214.722 60.2021 214.462C60.0981 214.193 59.9595 213.972 59.7861 213.799C59.6215 213.626 59.4265 213.5 59.2011 213.422C58.9845 213.335 58.7591 213.292 58.5251 213.292Z" fill="#303E67"/>
<path d="M67.8156 211.706C68.2749 211.706 68.6952 211.793 69.0766 211.966C69.4666 212.131 69.8046 212.373 70.0906 212.694C70.3766 213.006 70.5976 213.392 70.7536 213.851C70.9182 214.302 71.0006 214.817 71.0006 215.398C71.0006 215.979 70.9182 216.499 70.7536 216.958C70.5976 217.409 70.3766 217.794 70.0906 218.115C69.8046 218.427 69.4666 218.67 69.0766 218.843C68.6952 219.008 68.2749 219.09 67.8156 219.09C67.1916 219.09 66.6672 218.943 66.2426 218.648C65.8179 218.353 65.5189 217.968 65.3456 217.491V222.431H63.5126V211.797H65.3456V213.292C65.5189 212.824 65.8179 212.443 66.2426 212.148C66.6672 211.853 67.1916 211.706 67.8156 211.706ZM67.2436 213.305C66.9749 213.305 66.7236 213.353 66.4896 213.448C66.2556 213.543 66.0519 213.682 65.8786 213.864C65.7052 214.046 65.5709 214.267 65.4756 214.527C65.3802 214.778 65.3326 215.069 65.3326 215.398C65.3326 215.719 65.3802 216.009 65.4756 216.269C65.5709 216.52 65.7052 216.737 65.8786 216.919C66.0519 217.101 66.2556 217.24 66.4896 217.335C66.7236 217.43 66.9749 217.478 67.2436 217.478C67.8156 217.478 68.2749 217.296 68.6216 216.932C68.9682 216.568 69.1416 216.057 69.1416 215.398C69.1416 214.731 68.9682 214.215 68.6216 213.851C68.2749 213.487 67.8156 213.305 67.2436 213.305Z" fill="#303E67"/>
<path d="M59.7895 119.926V129H57.9695V122.669L55.6425 129H54.0565L51.7295 122.695V129H49.8965V119.926H52.1195L54.8755 126.751L57.5795 119.926H59.7895Z" fill="#303E67"/>
<path d="M64.2702 121.707C64.8942 121.707 65.4186 121.855 65.8432 122.149C66.2766 122.444 66.5799 122.825 66.7532 123.293V121.798H68.5732V129H66.7532V127.492C66.5799 127.969 66.2766 128.355 65.8432 128.649C65.4186 128.944 64.8942 129.091 64.2702 129.091C63.8196 129.091 63.3992 129.009 63.0092 128.844C62.6192 128.671 62.2812 128.428 61.9952 128.116C61.7092 127.796 61.4839 127.41 61.3192 126.959C61.1632 126.5 61.0852 125.98 61.0852 125.399C61.0852 124.819 61.1632 124.303 61.3192 123.852C61.4839 123.393 61.7092 123.007 61.9952 122.695C62.2812 122.375 62.6192 122.132 63.0092 121.967C63.3992 121.794 63.8196 121.707 64.2702 121.707ZM64.8422 123.306C64.2789 123.306 63.8196 123.488 63.4642 123.852C63.1176 124.216 62.9442 124.732 62.9442 125.399C62.9442 126.058 63.1176 126.569 63.4642 126.933C63.8196 127.297 64.2789 127.479 64.8422 127.479C65.1196 127.479 65.3709 127.432 65.5962 127.336C65.8302 127.241 66.0339 127.102 66.2072 126.92C66.3806 126.738 66.5149 126.522 66.6102 126.27C66.7056 126.01 66.7532 125.72 66.7532 125.399C66.7532 125.07 66.7056 124.78 66.6102 124.528C66.5149 124.268 66.3806 124.047 66.2072 123.865C66.0339 123.683 65.8302 123.545 65.5962 123.449C65.3709 123.354 65.1196 123.306 64.8422 123.306Z" fill="#303E67"/>
<path d="M72.0674 123.176C72.3274 122.734 72.674 122.379 73.1074 122.11C73.5494 121.833 74.052 121.694 74.6154 121.694V123.657H74.0824C73.7964 123.657 73.532 123.688 73.2894 123.748C73.0467 123.809 72.8344 123.913 72.6524 124.06C72.4704 124.199 72.3274 124.39 72.2234 124.632C72.1194 124.875 72.0674 125.174 72.0674 125.529V129H70.2344V121.798H72.0674V123.176Z" fill="#303E67"/>
<path d="M79.8419 129L77.4629 125.854V129H75.6299V119.38H77.4629V124.788L79.8289 121.798H81.9999L78.9709 125.386L82.0779 129H79.8419Z" fill="#303E67"/>
<path d="M89.7408 125.126C89.7408 125.248 89.7321 125.356 89.7148 125.451C89.7061 125.547 89.6931 125.646 89.6758 125.75H84.3978C84.4151 126.097 84.4714 126.392 84.5668 126.634C84.6621 126.868 84.7878 127.059 84.9438 127.206C85.0998 127.354 85.2774 127.462 85.4768 127.531C85.6848 127.592 85.8971 127.622 86.1138 127.622C86.5471 127.622 86.9024 127.518 87.1798 127.31C87.4571 127.094 87.6348 126.812 87.7128 126.465H89.6498C89.5804 126.838 89.4461 127.185 89.2468 127.505C89.0561 127.826 88.8091 128.103 88.5058 128.337C88.2111 128.571 87.8688 128.758 87.4788 128.896C87.0888 129.026 86.6641 129.091 86.2048 129.091C85.6761 129.091 85.1908 129.009 84.7488 128.844C84.3154 128.671 83.9384 128.428 83.6178 128.116C83.2971 127.796 83.0458 127.406 82.8638 126.946C82.6904 126.487 82.6038 125.971 82.6038 125.399C82.6038 124.819 82.6904 124.303 82.8638 123.852C83.0458 123.393 83.2971 123.007 83.6178 122.695C83.9384 122.375 84.3154 122.132 84.7488 121.967C85.1908 121.794 85.6761 121.707 86.2048 121.707C86.7508 121.707 87.2404 121.794 87.6738 121.967C88.1071 122.132 88.4754 122.37 88.7788 122.682C89.0908 122.986 89.3291 123.345 89.4938 123.761C89.6584 124.177 89.7408 124.632 89.7408 125.126ZM87.8948 124.944C87.9121 124.632 87.8731 124.364 87.7778 124.138C87.6824 123.904 87.5568 123.718 87.4008 123.579C87.2448 123.432 87.0628 123.324 86.8548 123.254C86.6468 123.185 86.4301 123.15 86.2048 123.15C85.7368 123.15 85.3294 123.298 84.9828 123.592C84.6361 123.878 84.4411 124.329 84.3978 124.944H87.8948Z" fill="#303E67"/>
<path d="M94.89 127.427V129H93.928C93.5553 129 93.213 128.957 92.901 128.87C92.5977 128.784 92.3333 128.645 92.108 128.454C91.8913 128.255 91.7223 127.995 91.601 127.674C91.4883 127.345 91.432 126.942 91.432 126.465V123.345H90.431V121.798H91.432V120.017H93.265V121.798H94.877V123.345H93.265V126.491C93.265 126.847 93.3343 127.094 93.473 127.232C93.6117 127.362 93.8457 127.427 94.175 127.427H94.89Z" fill="#303E67"/>
<path d="M100.873 125.594V129H99.04V119.822H102.381C102.936 119.822 103.417 119.892 103.824 120.03C104.24 120.169 104.582 120.368 104.851 120.628C105.12 120.88 105.319 121.183 105.449 121.538C105.588 121.894 105.657 122.288 105.657 122.721C105.657 123.146 105.588 123.536 105.449 123.891C105.31 124.238 105.102 124.541 104.825 124.801C104.548 125.053 104.205 125.248 103.798 125.386C103.391 125.525 102.918 125.594 102.381 125.594H100.873ZM102.186 124.125C102.784 124.125 103.2 124 103.434 123.748C103.677 123.488 103.798 123.146 103.798 122.721C103.798 122.279 103.677 121.933 103.434 121.681C103.2 121.43 102.784 121.304 102.186 121.304H100.873V124.125H102.186Z" fill="#303E67"/>
<path d="M108.681 123.176C108.941 122.734 109.287 122.379 109.721 122.11C110.163 121.833 110.665 121.694 111.229 121.694V123.657H110.696C110.41 123.657 110.145 123.688 109.903 123.748C109.66 123.809 109.448 123.913 109.266 124.06C109.084 124.199 108.941 124.39 108.837 124.632C108.733 124.875 108.681 125.174 108.681 125.529V129H106.848V121.798H108.681V123.176Z" fill="#303E67"/>
<path d="M112.035 119.731C112.035 119.445 112.135 119.207 112.334 119.016C112.542 118.826 112.819 118.73 113.166 118.73C113.513 118.73 113.786 118.826 113.985 119.016C114.193 119.207 114.297 119.445 114.297 119.731C114.297 120.017 114.193 120.256 113.985 120.446C113.786 120.628 113.513 120.719 113.166 120.719C112.819 120.719 112.542 120.628 112.334 120.446C112.135 120.256 112.035 120.017 112.035 119.731ZM114.076 121.798V129H112.243V121.798H114.076Z" fill="#303E67"/>
<path d="M118.971 121.707C119.907 121.707 120.683 121.959 121.298 122.461C121.914 122.964 122.299 123.649 122.455 124.515H120.518C120.44 124.125 120.263 123.822 119.985 123.605C119.708 123.389 119.357 123.28 118.932 123.28C118.707 123.28 118.49 123.324 118.282 123.41C118.074 123.488 117.892 123.614 117.736 123.787C117.58 123.961 117.455 124.182 117.359 124.45C117.273 124.719 117.229 125.035 117.229 125.399C117.229 125.763 117.273 126.08 117.359 126.348C117.455 126.608 117.58 126.829 117.736 127.011C117.892 127.185 118.074 127.315 118.282 127.401C118.49 127.479 118.707 127.518 118.932 127.518C119.357 127.518 119.708 127.41 119.985 127.193C120.263 126.977 120.44 126.673 120.518 126.283H122.455C122.299 127.15 121.914 127.835 121.298 128.337C120.683 128.84 119.907 129.091 118.971 129.091C118.443 129.091 117.957 129.009 117.515 128.844C117.082 128.671 116.705 128.428 116.384 128.116C116.064 127.796 115.812 127.406 115.63 126.946C115.457 126.487 115.37 125.971 115.37 125.399C115.37 124.819 115.457 124.303 115.63 123.852C115.812 123.393 116.064 123.007 116.384 122.695C116.705 122.375 117.082 122.132 117.515 121.967C117.957 121.794 118.443 121.707 118.971 121.707Z" fill="#303E67"/>
<path d="M130.531 125.126C130.531 125.248 130.522 125.356 130.505 125.451C130.496 125.547 130.483 125.646 130.466 125.75H125.188C125.205 126.097 125.261 126.392 125.357 126.634C125.452 126.868 125.578 127.059 125.734 127.206C125.89 127.354 126.067 127.462 126.267 127.531C126.475 127.592 126.687 127.622 126.904 127.622C127.337 127.622 127.692 127.518 127.97 127.31C128.247 127.094 128.425 126.812 128.503 126.465H130.44C130.37 126.838 130.236 127.185 130.037 127.505C129.846 127.826 129.599 128.103 129.296 128.337C129.001 128.571 128.659 128.758 128.269 128.896C127.879 129.026 127.454 129.091 126.995 129.091C126.466 129.091 125.981 129.009 125.539 128.844C125.105 128.671 124.728 128.428 124.408 128.116C124.087 127.796 123.836 127.406 123.654 126.946C123.48 126.487 123.394 125.971 123.394 125.399C123.394 124.819 123.48 124.303 123.654 123.852C123.836 123.393 124.087 123.007 124.408 122.695C124.728 122.375 125.105 122.132 125.539 121.967C125.981 121.794 126.466 121.707 126.995 121.707C127.541 121.707 128.03 121.794 128.464 121.967C128.897 122.132 129.265 122.37 129.569 122.682C129.881 122.986 130.119 123.345 130.284 123.761C130.448 124.177 130.531 124.632 130.531 125.126ZM128.685 124.944C128.702 124.632 128.663 124.364 128.568 124.138C128.472 123.904 128.347 123.718 128.191 123.579C128.035 123.432 127.853 123.324 127.645 123.254C127.437 123.185 127.22 123.15 126.995 123.15C126.527 123.15 126.119 123.298 125.773 123.592C125.426 123.878 125.231 124.329 125.188 124.944H128.685Z" fill="#303E67"/>
<path d="M130.137 71.4915C130.137 71.8295 130.072 72.1545 129.942 72.4665C129.821 72.7785 129.63 73.0558 129.37 73.2985C129.119 73.5411 128.798 73.7361 128.408 73.8835C128.027 74.0221 127.58 74.0915 127.069 74.0915C126.584 74.0915 126.133 74.0308 125.717 73.9095C125.301 73.7795 124.941 73.5975 124.638 73.3635C124.335 73.1208 124.088 72.8305 123.897 72.4925C123.715 72.1545 123.607 71.7731 123.572 71.3485H125.522C125.565 71.7125 125.708 72.0201 125.951 72.2715C126.202 72.5228 126.549 72.6485 126.991 72.6485C127.381 72.6485 127.676 72.5445 127.875 72.3365C128.074 72.1285 128.174 71.8685 128.174 71.5565C128.174 71.2098 128.057 70.9411 127.823 70.7505C127.598 70.5598 127.312 70.3951 126.965 70.2565C126.627 70.1178 126.259 69.9878 125.86 69.8665C125.461 69.7451 125.089 69.5805 124.742 69.3725C124.404 69.1645 124.118 68.8958 123.884 68.5665C123.659 68.2371 123.546 67.7951 123.546 67.2405C123.546 66.8418 123.62 66.4865 123.767 66.1745C123.923 65.8625 124.135 65.5981 124.404 65.3815C124.681 65.1561 125.011 64.9871 125.392 64.8745C125.773 64.7531 126.194 64.6925 126.653 64.6925C127.147 64.6925 127.589 64.7575 127.979 64.8875C128.378 65.0088 128.716 65.1821 128.993 65.4075C129.27 65.6328 129.491 65.9058 129.656 66.2265C129.821 66.5385 129.92 66.8851 129.955 67.2665H127.979C127.936 66.9631 127.806 66.6988 127.589 66.4735C127.372 66.2481 127.056 66.1355 126.64 66.1355C126.311 66.1355 126.038 66.2221 125.821 66.3955C125.613 66.5688 125.509 66.8288 125.509 67.1755C125.509 67.5048 125.622 67.7648 125.847 67.9555C126.081 68.1375 126.367 68.2978 126.705 68.4365C127.052 68.5665 127.424 68.6965 127.823 68.8265C128.222 68.9478 128.59 69.1125 128.928 69.3205C129.275 69.5285 129.561 69.8015 129.786 70.1395C130.02 70.4775 130.137 70.9281 130.137 71.4915Z" fill="#303E67"/>
<path d="M135.335 72.4275V74.0005H134.373C134.001 74.0005 133.658 73.9571 133.346 73.8705C133.043 73.7838 132.779 73.6451 132.553 73.4545C132.337 73.2551 132.168 72.9951 132.046 72.6745C131.934 72.3451 131.877 71.9421 131.877 71.4655V68.3455H130.876V66.7985H131.877V65.0175H133.71V66.7985H135.322V68.3455H133.71V71.4915C133.71 71.8468 133.78 72.0938 133.918 72.2325C134.057 72.3625 134.291 72.4275 134.62 72.4275H135.335Z" fill="#303E67"/>
<path d="M139.982 66.7075C140.511 66.7075 141 66.7941 141.451 66.9675C141.902 67.1321 142.292 67.3748 142.621 67.6955C142.95 68.0075 143.206 68.3931 143.388 68.8525C143.579 69.3031 143.674 69.8188 143.674 70.3995C143.674 70.9715 143.579 71.4871 143.388 71.9465C143.206 72.4058 142.95 72.7958 142.621 73.1165C142.292 73.4285 141.902 73.6711 141.451 73.8445C141 74.0091 140.511 74.0915 139.982 74.0915C139.453 74.0915 138.964 74.0091 138.513 73.8445C138.062 73.6711 137.672 73.4285 137.343 73.1165C137.014 72.7958 136.754 72.4058 136.563 71.9465C136.381 71.4871 136.29 70.9715 136.29 70.3995C136.29 69.8188 136.381 69.3031 136.563 68.8525C136.754 68.3931 137.014 68.0075 137.343 67.6955C137.672 67.3748 138.062 67.1321 138.513 66.9675C138.964 66.7941 139.453 66.7075 139.982 66.7075ZM139.982 68.2935C139.748 68.2935 139.518 68.3368 139.293 68.4235C139.076 68.5015 138.881 68.6271 138.708 68.8005C138.543 68.9738 138.409 69.1948 138.305 69.4635C138.201 69.7235 138.149 70.0355 138.149 70.3995C138.149 70.7635 138.201 71.0798 138.305 71.3485C138.409 71.6085 138.543 71.8251 138.708 71.9985C138.881 72.1718 139.076 72.3018 139.293 72.3885C139.518 72.4665 139.748 72.5055 139.982 72.5055C140.216 72.5055 140.441 72.4665 140.658 72.3885C140.883 72.3018 141.078 72.1718 141.243 71.9985C141.416 71.8251 141.555 71.6085 141.659 71.3485C141.763 71.0798 141.815 70.7635 141.815 70.3995C141.815 70.0355 141.763 69.7235 141.659 69.4635C141.555 69.1948 141.416 68.9738 141.243 68.8005C141.078 68.6271 140.883 68.5015 140.658 68.4235C140.441 68.3368 140.216 68.2935 139.982 68.2935Z" fill="#303E67"/>
<path d="M149.273 66.7075C149.732 66.7075 150.152 66.7941 150.534 66.9675C150.924 67.1321 151.262 67.3748 151.548 67.6955C151.834 68.0075 152.055 68.3931 152.211 68.8525C152.375 69.3031 152.458 69.8188 152.458 70.3995C152.458 70.9801 152.375 71.5001 152.211 71.9595C152.055 72.4101 151.834 72.7958 151.548 73.1165C151.262 73.4285 150.924 73.6711 150.534 73.8445C150.152 74.0091 149.732 74.0915 149.273 74.0915C148.649 74.0915 148.124 73.9441 147.7 73.6495C147.275 73.3548 146.976 72.9691 146.803 72.4925V77.4325H144.97V66.7985H146.803V68.2935C146.976 67.8255 147.275 67.4441 147.7 67.1495C148.124 66.8548 148.649 66.7075 149.273 66.7075ZM148.701 68.3065C148.432 68.3065 148.181 68.3541 147.947 68.4495C147.713 68.5448 147.509 68.6835 147.336 68.8655C147.162 69.0475 147.028 69.2685 146.933 69.5285C146.837 69.7798 146.79 70.0701 146.79 70.3995C146.79 70.7201 146.837 71.0105 146.933 71.2705C147.028 71.5218 147.162 71.7385 147.336 71.9205C147.509 72.1025 147.713 72.2411 147.947 72.3365C148.181 72.4318 148.432 72.4795 148.701 72.4795C149.273 72.4795 149.732 72.2975 150.079 71.9335C150.425 71.5695 150.599 71.0581 150.599 70.3995C150.599 69.7321 150.425 69.2165 150.079 68.8525C149.732 68.4885 149.273 68.3065 148.701 68.3065Z" fill="#303E67"/>
<path d="M158.419 70.5945V74.0005H156.586V64.8225H159.927C160.481 64.8225 160.962 64.8918 161.37 65.0305C161.786 65.1691 162.128 65.3685 162.397 65.6285C162.665 65.8798 162.865 66.1831 162.995 66.5385C163.133 66.8938 163.203 67.2881 163.203 67.7215C163.203 68.1461 163.133 68.5361 162.995 68.8915C162.856 69.2381 162.648 69.5415 162.371 69.8015C162.093 70.0528 161.751 70.2478 161.344 70.3865C160.936 70.5251 160.464 70.5945 159.927 70.5945H158.419ZM159.732 69.1255C160.33 69.1255 160.746 68.9998 160.98 68.7485C161.222 68.4885 161.344 68.1461 161.344 67.7215C161.344 67.2795 161.222 66.9328 160.98 66.6815C160.746 66.4301 160.33 66.3045 159.732 66.3045H158.419V69.1255H159.732Z" fill="#303E67"/>
<path d="M166.226 68.1765C166.486 67.7345 166.833 67.3791 167.266 67.1105C167.708 66.8331 168.211 66.6945 168.774 66.6945V68.6575H168.241C167.955 68.6575 167.691 68.6878 167.448 68.7485C167.206 68.8091 166.993 68.9131 166.811 69.0605C166.629 69.1991 166.486 69.3898 166.382 69.6325C166.278 69.8751 166.226 70.1741 166.226 70.5295V74.0005H164.393V66.7985H166.226V68.1765Z" fill="#303E67"/>
<path d="M169.581 64.7315C169.581 64.4455 169.681 64.2071 169.88 64.0165C170.088 63.8258 170.365 63.7305 170.712 63.7305C171.059 63.7305 171.332 63.8258 171.531 64.0165C171.739 64.2071 171.843 64.4455 171.843 64.7315C171.843 65.0175 171.739 65.2558 171.531 65.4465C171.332 65.6285 171.059 65.7195 170.712 65.7195C170.365 65.7195 170.088 65.6285 169.88 65.4465C169.681 65.2558 169.581 65.0175 169.581 64.7315ZM171.622 66.7985V74.0005H169.789V66.7985H171.622Z" fill="#303E67"/>
<path d="M176.517 66.7075C177.453 66.7075 178.229 66.9588 178.844 67.4615C179.459 67.9641 179.845 68.6488 180.001 69.5155H178.064C177.986 69.1255 177.808 68.8221 177.531 68.6055C177.254 68.3888 176.903 68.2805 176.478 68.2805C176.253 68.2805 176.036 68.3238 175.828 68.4105C175.62 68.4885 175.438 68.6141 175.282 68.7875C175.126 68.9608 175 69.1818 174.905 69.4505C174.818 69.7191 174.775 70.0355 174.775 70.3995C174.775 70.7635 174.818 71.0798 174.905 71.3485C175 71.6085 175.126 71.8295 175.282 72.0115C175.438 72.1848 175.62 72.3148 175.828 72.4015C176.036 72.4795 176.253 72.5185 176.478 72.5185C176.903 72.5185 177.254 72.4101 177.531 72.1935C177.808 71.9768 177.986 71.6735 178.064 71.2835H180.001C179.845 72.1501 179.459 72.8348 178.844 73.3375C178.229 73.8401 177.453 74.0915 176.517 74.0915C175.988 74.0915 175.503 74.0091 175.061 73.8445C174.628 73.6711 174.251 73.4285 173.93 73.1165C173.609 72.7958 173.358 72.4058 173.176 71.9465C173.003 71.4871 172.916 70.9715 172.916 70.3995C172.916 69.8188 173.003 69.3031 173.176 68.8525C173.358 68.3931 173.609 68.0075 173.93 67.6955C174.251 67.3748 174.628 67.1321 175.061 66.9675C175.503 66.7941 175.988 66.7075 176.517 66.7075Z" fill="#303E67"/>
<path d="M188.077 70.1265C188.077 70.2478 188.068 70.3561 188.051 70.4515C188.042 70.5468 188.029 70.6465 188.012 70.7505H182.734C182.751 71.0971 182.807 71.3918 182.903 71.6345C182.998 71.8685 183.124 72.0591 183.28 72.2065C183.436 72.3538 183.613 72.4621 183.813 72.5315C184.021 72.5921 184.233 72.6225 184.45 72.6225C184.883 72.6225 185.238 72.5185 185.516 72.3105C185.793 72.0938 185.971 71.8121 186.049 71.4655H187.986C187.916 71.8381 187.782 72.1848 187.583 72.5055C187.392 72.8261 187.145 73.1035 186.842 73.3375C186.547 73.5715 186.205 73.7578 185.815 73.8965C185.425 74.0265 185 74.0915 184.541 74.0915C184.012 74.0915 183.527 74.0091 183.085 73.8445C182.651 73.6711 182.274 73.4285 181.954 73.1165C181.633 72.7958 181.382 72.4058 181.2 71.9465C181.026 71.4871 180.94 70.9715 180.94 70.3995C180.94 69.8188 181.026 69.3031 181.2 68.8525C181.382 68.3931 181.633 68.0075 181.954 67.6955C182.274 67.3748 182.651 67.1321 183.085 66.9675C183.527 66.7941 184.012 66.7075 184.541 66.7075C185.087 66.7075 185.576 66.7941 186.01 66.9675C186.443 67.1321 186.811 67.3705 187.115 67.6825C187.427 67.9858 187.665 68.3455 187.83 68.7615C187.994 69.1775 188.077 69.6325 188.077 70.1265ZM186.231 69.9445C186.248 69.6325 186.209 69.3638 186.114 69.1385C186.018 68.9045 185.893 68.7181 185.737 68.5795C185.581 68.4321 185.399 68.3238 185.191 68.2545C184.983 68.1851 184.766 68.1505 184.541 68.1505C184.073 68.1505 183.665 68.2978 183.319 68.5925C182.972 68.8785 182.777 69.3291 182.734 69.9445H186.231Z" fill="#303E67"/>
<path d="M130.137 181.491C130.137 181.829 130.072 182.154 129.942 182.466C129.821 182.778 129.63 183.056 129.37 183.298C129.119 183.541 128.798 183.736 128.408 183.883C128.027 184.022 127.58 184.091 127.069 184.091C126.584 184.091 126.133 184.031 125.717 183.909C125.301 183.779 124.941 183.597 124.638 183.363C124.335 183.121 124.088 182.83 123.897 182.492C123.715 182.154 123.607 181.773 123.572 181.348H125.522C125.565 181.712 125.708 182.02 125.951 182.271C126.202 182.523 126.549 182.648 126.991 182.648C127.381 182.648 127.676 182.544 127.875 182.336C128.074 182.128 128.174 181.868 128.174 181.556C128.174 181.21 128.057 180.941 127.823 180.75C127.598 180.56 127.312 180.395 126.965 180.256C126.627 180.118 126.259 179.988 125.86 179.866C125.461 179.745 125.089 179.58 124.742 179.372C124.404 179.164 124.118 178.896 123.884 178.566C123.659 178.237 123.546 177.795 123.546 177.24C123.546 176.842 123.62 176.486 123.767 176.174C123.923 175.862 124.135 175.598 124.404 175.381C124.681 175.156 125.011 174.987 125.392 174.874C125.773 174.753 126.194 174.692 126.653 174.692C127.147 174.692 127.589 174.757 127.979 174.887C128.378 175.009 128.716 175.182 128.993 175.407C129.27 175.633 129.491 175.906 129.656 176.226C129.821 176.538 129.92 176.885 129.955 177.266H127.979C127.936 176.963 127.806 176.699 127.589 176.473C127.372 176.248 127.056 176.135 126.64 176.135C126.311 176.135 126.038 176.222 125.821 176.395C125.613 176.569 125.509 176.829 125.509 177.175C125.509 177.505 125.622 177.765 125.847 177.955C126.081 178.137 126.367 178.298 126.705 178.436C127.052 178.566 127.424 178.696 127.823 178.826C128.222 178.948 128.59 179.112 128.928 179.32C129.275 179.528 129.561 179.801 129.786 180.139C130.02 180.477 130.137 180.928 130.137 181.491Z" fill="#303E67"/>
<path d="M135.335 182.427V184H134.373C134.001 184 133.658 183.957 133.346 183.87C133.043 183.784 132.779 183.645 132.553 183.454C132.337 183.255 132.168 182.995 132.046 182.674C131.934 182.345 131.877 181.942 131.877 181.465V178.345H130.876V176.798H131.877V175.017H133.71V176.798H135.322V178.345H133.71V181.491C133.71 181.847 133.78 182.094 133.918 182.232C134.057 182.362 134.291 182.427 134.62 182.427H135.335Z" fill="#303E67"/>
<path d="M139.982 176.707C140.511 176.707 141 176.794 141.451 176.967C141.902 177.132 142.292 177.375 142.621 177.695C142.95 178.007 143.206 178.393 143.388 178.852C143.579 179.303 143.674 179.819 143.674 180.399C143.674 180.971 143.579 181.487 143.388 181.946C143.206 182.406 142.95 182.796 142.621 183.116C142.292 183.428 141.902 183.671 141.451 183.844C141 184.009 140.511 184.091 139.982 184.091C139.453 184.091 138.964 184.009 138.513 183.844C138.062 183.671 137.672 183.428 137.343 183.116C137.014 182.796 136.754 182.406 136.563 181.946C136.381 181.487 136.29 180.971 136.29 180.399C136.29 179.819 136.381 179.303 136.563 178.852C136.754 178.393 137.014 178.007 137.343 177.695C137.672 177.375 138.062 177.132 138.513 176.967C138.964 176.794 139.453 176.707 139.982 176.707ZM139.982 178.293C139.748 178.293 139.518 178.337 139.293 178.423C139.076 178.501 138.881 178.627 138.708 178.8C138.543 178.974 138.409 179.195 138.305 179.463C138.201 179.723 138.149 180.035 138.149 180.399C138.149 180.763 138.201 181.08 138.305 181.348C138.409 181.608 138.543 181.825 138.708 181.998C138.881 182.172 139.076 182.302 139.293 182.388C139.518 182.466 139.748 182.505 139.982 182.505C140.216 182.505 140.441 182.466 140.658 182.388C140.883 182.302 141.078 182.172 141.243 181.998C141.416 181.825 141.555 181.608 141.659 181.348C141.763 181.08 141.815 180.763 141.815 180.399C141.815 180.035 141.763 179.723 141.659 179.463C141.555 179.195 141.416 178.974 141.243 178.8C141.078 178.627 140.883 178.501 140.658 178.423C140.441 178.337 140.216 178.293 139.982 178.293Z" fill="#303E67"/>
<path d="M149.273 176.707C149.732 176.707 150.152 176.794 150.534 176.967C150.924 177.132 151.262 177.375 151.548 177.695C151.834 178.007 152.055 178.393 152.211 178.852C152.375 179.303 152.458 179.819 152.458 180.399C152.458 180.98 152.375 181.5 152.211 181.959C152.055 182.41 151.834 182.796 151.548 183.116C151.262 183.428 150.924 183.671 150.534 183.844C150.152 184.009 149.732 184.091 149.273 184.091C148.649 184.091 148.124 183.944 147.7 183.649C147.275 183.355 146.976 182.969 146.803 182.492V187.432H144.97V176.798H146.803V178.293C146.976 177.825 147.275 177.444 147.7 177.149C148.124 176.855 148.649 176.707 149.273 176.707ZM148.701 178.306C148.432 178.306 148.181 178.354 147.947 178.449C147.713 178.545 147.509 178.683 147.336 178.865C147.162 179.047 147.028 179.268 146.933 179.528C146.837 179.78 146.79 180.07 146.79 180.399C146.79 180.72 146.837 181.01 146.933 181.27C147.028 181.522 147.162 181.738 147.336 181.92C147.509 182.102 147.713 182.241 147.947 182.336C148.181 182.432 148.432 182.479 148.701 182.479C149.273 182.479 149.732 182.297 150.079 181.933C150.425 181.569 150.599 181.058 150.599 180.399C150.599 179.732 150.425 179.216 150.079 178.852C149.732 178.488 149.273 178.306 148.701 178.306Z" fill="#303E67"/>
<path d="M158.419 180.594V184H156.586V174.822H159.927C160.481 174.822 160.962 174.892 161.37 175.03C161.786 175.169 162.128 175.368 162.397 175.628C162.665 175.88 162.865 176.183 162.995 176.538C163.133 176.894 163.203 177.288 163.203 177.721C163.203 178.146 163.133 178.536 162.995 178.891C162.856 179.238 162.648 179.541 162.371 179.801C162.093 180.053 161.751 180.248 161.344 180.386C160.936 180.525 160.464 180.594 159.927 180.594H158.419ZM159.732 179.125C160.33 179.125 160.746 179 160.98 178.748C161.222 178.488 161.344 178.146 161.344 177.721C161.344 177.279 161.222 176.933 160.98 176.681C160.746 176.43 160.33 176.304 159.732 176.304H158.419V179.125H159.732Z" fill="#303E67"/>
<path d="M166.226 178.176C166.486 177.734 166.833 177.379 167.266 177.11C167.708 176.833 168.211 176.694 168.774 176.694V178.657H168.241C167.955 178.657 167.691 178.688 167.448 178.748C167.206 178.809 166.993 178.913 166.811 179.06C166.629 179.199 166.486 179.39 166.382 179.632C166.278 179.875 166.226 180.174 166.226 180.529V184H164.393V176.798H166.226V178.176Z" fill="#303E67"/>
<path d="M169.581 174.731C169.581 174.445 169.681 174.207 169.88 174.016C170.088 173.826 170.365 173.73 170.712 173.73C171.059 173.73 171.332 173.826 171.531 174.016C171.739 174.207 171.843 174.445 171.843 174.731C171.843 175.017 171.739 175.256 171.531 175.446C171.332 175.628 171.059 175.719 170.712 175.719C170.365 175.719 170.088 175.628 169.88 175.446C169.681 175.256 169.581 175.017 169.581 174.731ZM171.622 176.798V184H169.789V176.798H171.622Z" fill="#303E67"/>
<path d="M176.517 176.707C177.453 176.707 178.229 176.959 178.844 177.461C179.459 177.964 179.845 178.649 180.001 179.515H178.064C177.986 179.125 177.808 178.822 177.531 178.605C177.254 178.389 176.903 178.28 176.478 178.28C176.253 178.28 176.036 178.324 175.828 178.41C175.62 178.488 175.438 178.614 175.282 178.787C175.126 178.961 175 179.182 174.905 179.45C174.818 179.719 174.775 180.035 174.775 180.399C174.775 180.763 174.818 181.08 174.905 181.348C175 181.608 175.126 181.829 175.282 182.011C175.438 182.185 175.62 182.315 175.828 182.401C176.036 182.479 176.253 182.518 176.478 182.518C176.903 182.518 177.254 182.41 177.531 182.193C177.808 181.977 177.986 181.673 178.064 181.283H180.001C179.845 182.15 179.459 182.835 178.844 183.337C178.229 183.84 177.453 184.091 176.517 184.091C175.988 184.091 175.503 184.009 175.061 183.844C174.628 183.671 174.251 183.428 173.93 183.116C173.609 182.796 173.358 182.406 173.176 181.946C173.003 181.487 172.916 180.971 172.916 180.399C172.916 179.819 173.003 179.303 173.176 178.852C173.358 178.393 173.609 178.007 173.93 177.695C174.251 177.375 174.628 177.132 175.061 176.967C175.503 176.794 175.988 176.707 176.517 176.707Z" fill="#303E67"/>
<path d="M188.077 180.126C188.077 180.248 188.068 180.356 188.051 180.451C188.042 180.547 188.029 180.646 188.012 180.75H182.734C182.751 181.097 182.807 181.392 182.903 181.634C182.998 181.868 183.124 182.059 183.28 182.206C183.436 182.354 183.613 182.462 183.813 182.531C184.021 182.592 184.233 182.622 184.45 182.622C184.883 182.622 185.238 182.518 185.516 182.31C185.793 182.094 185.971 181.812 186.049 181.465H187.986C187.916 181.838 187.782 182.185 187.583 182.505C187.392 182.826 187.145 183.103 186.842 183.337C186.547 183.571 186.205 183.758 185.815 183.896C185.425 184.026 185 184.091 184.541 184.091C184.012 184.091 183.527 184.009 183.085 183.844C182.651 183.671 182.274 183.428 181.954 183.116C181.633 182.796 181.382 182.406 181.2 181.946C181.026 181.487 180.94 180.971 180.94 180.399C180.94 179.819 181.026 179.303 181.2 178.852C181.382 178.393 181.633 178.007 181.954 177.695C182.274 177.375 182.651 177.132 183.085 176.967C183.527 176.794 184.012 176.707 184.541 176.707C185.087 176.707 185.576 176.794 186.01 176.967C186.443 177.132 186.811 177.37 187.115 177.682C187.427 177.986 187.665 178.345 187.83 178.761C187.994 179.177 188.077 179.632 188.077 180.126ZM186.231 179.944C186.248 179.632 186.209 179.364 186.114 179.138C186.018 178.904 185.893 178.718 185.737 178.579C185.581 178.432 185.399 178.324 185.191 178.254C184.983 178.185 184.766 178.15 184.541 178.15C184.073 178.15 183.665 178.298 183.319 178.592C182.972 178.878 182.777 179.329 182.734 179.944H186.231Z" fill="#303E67"/>
<rect x="16" y="50" width="343" height="5" fill="#32864E"/>
<path d="M145 125L217 53" stroke="#303E67" stroke-width="2"/>
<path d="M215.707 55.7071L217.124 54.2904L215.71 52.8762L214.293 54.2929L215.707 55.7071ZM219.957 51.4571L222.79 48.6238L221.376 47.2096L218.543 50.0429L219.957 51.4571ZM225.624 45.7904L228.457 42.9571L227.043 41.5429L224.21 44.3762L225.624 45.7904ZM231.29 40.1238L234.124 37.2904L232.71 35.8762L229.876 38.7096L231.29 40.1238ZM236.957 34.4571L239.79 31.6238L238.376 30.2096L235.543 33.0429L236.957 34.4571ZM242.624 28.7904L245.457 25.9571L244.043 24.5429L241.21 27.3762L242.624 28.7904ZM248.29 23.1238L249.707 21.7071L248.293 20.2929L246.876 21.7096L248.29 23.1238Z" fill="#303E67"/>
<path d="M214.293 195.707L215.71 197.124L217.124 195.71L215.707 194.293L214.293 195.707ZM218.543 199.957L221.376 202.79L222.79 201.376L219.957 198.543L218.543 199.957ZM224.21 205.624L227.043 208.457L228.457 207.043L225.624 204.21L224.21 205.624ZM229.876 211.29L232.71 214.124L234.124 212.71L231.29 209.876L229.876 211.29ZM235.543 216.957L238.376 219.79L239.79 218.376L236.957 215.543L235.543 216.957ZM241.21 222.624L244.043 225.457L245.457 224.043L242.624 221.21L241.21 222.624ZM246.876 228.29L248.293 229.707L249.707 228.293L248.29 226.876L246.876 228.29Z" fill="#303E67"/>
<path d="M145 125L217 197" stroke="black" stroke-width="2"/>
<rect x="16" y="195" width="343" height="5" fill="#E04036"/>
<circle cx="216.5" cy="52.5" r="8.5" fill="#32864E"/>
<circle cx="144.5" cy="125.5" r="8.5" fill="#8691B3"/>
<circle cx="216.5" cy="197.5" r="8.5" fill="#E04036"/>
</svg>
