<svg width="24" height="24" viewBox="0 0 24 24" fill="none" xmlns="http://www.w3.org/2000/svg">
<path fill-rule="evenodd" clip-rule="evenodd" d="M17.1698 9.18369C17.5444 9.58951 17.5191 10.2222 17.1132 10.5968L11.8285 15.475C11.4454 15.8286 10.855 15.8286 10.4719 15.475L7.88715 13.0891C7.48133 12.7145 7.45602 12.0818 7.83062 11.676L8.16976 11.3086C8.54437 10.9028 9.17703 10.8775 9.58285 11.2521L11.1502 12.6989L15.4175 8.75976C15.8234 8.38516 16.456 8.41046 16.8306 8.81629L17.1698 9.18369Z" fill="#32864E"/>
<path d="M2.66667 12C2.66667 6.84819 6.84819 2.66667 12 2.66667C17.1518 2.66667 21.3333 6.84819 21.3333 12C21.3333 17.1518 17.1518 21.3333 12 21.3333C6.84819 21.3333 2.66667 17.1518 2.66667 12ZM3.33333 12C3.33333 16.7782 7.22181 20.6667 12 20.6667C16.7782 20.6667 20.6667 16.7782 20.6667 12C20.6667 7.22181 16.7782 3.33333 12 3.33333C7.22181 3.33333 3.33333 7.22181 3.33333 12Z" fill="#32864E" stroke="#32864E" stroke-width="1.33333"/>
</svg>
