<svg width="36" height="36" viewBox="0 0 36 36" fill="none" xmlns="http://www.w3.org/2000/svg">
<path d="M1.16338 13.7194C1.63718 13.9022 2.24168 13.6862 2.47041 13.0551C5.10081 5.58079 11.3909 1.86026 17.779 1.86026C20.6871 1.86026 22.9744 2.45821 24.9186 3.58765C25.4741 3.91984 26.095 3.91984 26.34 3.37173C26.6014 2.7904 26.3074 2.42499 25.8989 2.15924C23.4155 0.581333 20.8995 0 17.779 0C10.3943 0 3.69575 4.00289 0.689583 12.1415C0.379164 12.972 0.689583 13.5534 1.16338 13.7194ZM35.1461 19.7487C35.6689 19.7487 36.0447 19.3169 35.9957 18.7355C35.2605 11.9755 33.0712 7.70681 29.2972 4.35169C28.8234 3.91984 28.2516 4.05272 27.9738 4.38491C27.6634 4.73371 27.6307 5.28182 28.1209 5.73028C31.3394 8.78643 33.6757 12.7395 34.2312 18.7687C34.2966 19.3169 34.6233 19.7487 35.1461 19.7487ZM3.77744 28.4355C4.08786 28.8673 4.7087 28.9836 5.16616 28.585C6.34248 27.5718 6.93065 25.944 6.93065 24.2499C6.93065 21.9578 5.95037 20.7951 5.95037 17.9383C5.95037 11.4273 11.2765 6.01264 17.681 6.01264C25.4088 6.01264 30.3918 12.4405 30.4082 21.9245C30.4082 25.6285 29.8037 28.2528 29.1992 29.7642C28.9868 30.2791 29.1828 30.8272 29.6076 31.0598C30.0651 31.2591 30.7022 31.093 30.8983 30.5449C31.5355 28.7843 32.238 25.8942 32.238 21.9079C32.238 11.3277 26.5034 4.15238 17.681 4.15238C10.2636 4.15238 4.12053 10.4142 4.12053 17.9383C4.12053 20.6622 5.13348 22.5059 5.14982 24.2333C5.14982 25.3627 4.74137 26.4423 3.97349 27.1233C3.58138 27.4555 3.51603 28.0534 3.77744 28.4355ZM11.1295 22.5225C10.721 21.393 10.0512 19.9646 10.0512 18.0379C10.0512 13.6198 13.4331 10.1816 17.779 10.1816C19.4454 10.1816 19.9683 10.3643 21.4223 11.0785C21.9288 11.3111 22.3863 11.1616 22.566 10.7962C22.811 10.3311 22.6803 9.76639 22.1249 9.4342C21.0466 8.78643 19.3964 8.30475 17.779 8.30475C12.4202 8.30475 8.205 12.59 8.205 18.0379C8.205 20.1307 8.76049 21.8249 9.33231 23.2367C9.56104 23.7848 10.0512 24.0506 10.6393 23.8014C11.1295 23.6021 11.3092 23.0706 11.1295 22.5225ZM23.9874 13.3042C25.5721 15.6462 26.3564 18.885 26.3564 22.8048C26.3564 26.9904 25.2127 30.9435 23.4319 33.2024C23.1378 33.601 23.1051 34.1657 23.4646 34.5312C23.8567 34.8966 24.5265 34.88 24.8533 34.4315C26.8465 31.6909 28.1535 27.3392 28.1535 22.7384C28.1535 17.7057 27.0916 14.716 25.6048 12.3076C25.2617 11.7761 24.6899 11.61 24.2324 11.8592C23.7586 12.1249 23.6116 12.7395 23.9874 13.3042ZM11.0641 33.7173C13.7435 31.5248 15.2139 28.0368 15.1976 24.1668C15.1813 21.2436 14.152 19.4331 14.152 17.8386C14.152 15.7458 15.6061 14.3506 17.73 14.3506C20.9975 14.3506 22.0595 18.1376 22.1575 22.6221C22.3046 27.8043 20.4584 32.1892 18.0404 34.3485C17.6483 34.6806 17.5666 35.1955 17.828 35.6108C18.1384 36.0592 18.7756 36.1423 19.2004 35.7436C21.7491 33.3851 23.9057 28.2029 23.873 22.4893C23.8567 16.9085 22.3046 12.4903 17.73 12.4903C14.6911 12.4903 12.3548 14.5499 12.3548 17.6725C12.3548 19.5494 13.3351 21.8581 13.3514 24.1668C13.3678 27.4555 12.1588 30.412 9.92048 32.2557C9.47935 32.6211 9.414 33.1526 9.69174 33.5678C10.0348 34.0495 10.623 34.0993 11.0641 33.7173ZM1.88225 23.6187C2.35605 23.4692 2.58477 22.9709 2.45407 22.4062C2.04563 20.7287 1.80056 18.9514 1.88225 16.6261C1.89858 16.0116 1.57183 15.6794 1.08169 15.6462C0.444515 15.5963 0.10142 15.995 0.0524063 16.5098C-0.0946345 18.3867 0.0524063 20.629 0.689583 22.9377C0.852962 23.5024 1.37577 23.7848 1.88225 23.6187ZM19.3311 25.9274C19.7885 23.6852 19.6088 20.8117 18.8083 18.3203C18.5959 17.7057 18.1221 17.44 17.6156 17.6061C17.1418 17.7722 16.8477 18.2206 17.0274 18.802C17.779 21.2103 17.9097 23.5855 17.5339 25.6783C17.4359 26.1766 17.6319 26.6583 18.2038 26.7413C18.7266 26.841 19.2167 26.5254 19.3311 25.9274ZM7.63317 31.5248C8.84218 30.8937 10.4923 28.7344 10.9498 27.0237C11.0805 26.5586 10.8681 25.9939 10.3616 25.8278C9.90414 25.6617 9.414 25.944 9.23428 26.4755C8.79316 27.9372 8.02528 29.0334 6.81628 29.8639C6.22812 30.2791 6.14643 30.794 6.32615 31.176C6.5222 31.5913 7.04501 31.8238 7.63317 31.5248ZM14.8872 35.0461C16.1779 34.0993 17.779 31.9235 18.3998 29.7974C18.5142 29.432 18.4325 28.8175 17.9097 28.6348C17.3542 28.4355 16.8804 28.7178 16.7334 29.1497C15.9001 31.3754 14.8708 32.6875 13.7762 33.5512C13.3678 33.8834 13.2534 34.4315 13.5311 34.8633C13.7925 35.3284 14.4297 35.3949 14.8872 35.0461Z" fill="url(#paint0_linear_350_8387)"/>
<defs>
<linearGradient id="paint0_linear_350_8387" x1="0" y1="0" x2="36" y2="36" gradientUnits="userSpaceOnUse">
<stop stop-color="#3DDBDD"/>
<stop offset="1" stop-color="#1036D3"/>
</linearGradient>
</defs>
</svg>
