<svg width="91" height="36" viewBox="0 0 91 36" fill="none" xmlns="http://www.w3.org/2000/svg">
<rect x="0.5" width="89.75" height="36" rx="6" fill="#EDF1F7"/>
<g clip-path="url(#clip0_2596:15354)">
<g clip-path="url(#clip1_2596:15354)">
<path d="M20.6207 15.8785L21.3278 9.51457L14.9639 10.2217L17.0845 12.3423L7.8921 21.5347L9.30631 22.9489L18.4987 13.7565L20.6207 15.8785ZM27.6918 13.0501L18.4994 22.2425L16.3781 20.1212L15.671 26.4851L22.0349 25.778L19.9136 23.6567L29.106 14.4643L27.6918 13.0501Z" fill="#3B56A4"/>
</g>
</g>
<path d="M50.5898 14.8926H47.9766V22H46.2188V14.8926H43.6406V13.4688H50.5898V14.8926ZM54.6621 17.248C54.4316 17.2168 54.2285 17.2012 54.0527 17.2012C53.4121 17.2012 52.9922 17.418 52.793 17.8516V22H51.0996V15.6602H52.6992L52.7461 16.416C53.0859 15.834 53.5566 15.543 54.1582 15.543C54.3457 15.543 54.5215 15.5684 54.6855 15.6191L54.6621 17.248ZM58.9805 22C58.9023 21.8477 58.8457 21.6582 58.8105 21.4316C58.4004 21.8887 57.8672 22.1172 57.2109 22.1172C56.5898 22.1172 56.0742 21.9375 55.6641 21.5781C55.2578 21.2188 55.0547 20.7656 55.0547 20.2188C55.0547 19.5469 55.3027 19.0312 55.7988 18.6719C56.2988 18.3125 57.0195 18.1309 57.9609 18.127H58.7402V17.7637C58.7402 17.4707 58.6641 17.2363 58.5117 17.0605C58.3633 16.8848 58.127 16.7969 57.8027 16.7969C57.5176 16.7969 57.293 16.8652 57.1289 17.002C56.9688 17.1387 56.8887 17.3262 56.8887 17.5645H55.1953C55.1953 17.1973 55.3086 16.8574 55.5352 16.5449C55.7617 16.2324 56.082 15.9883 56.4961 15.8125C56.9102 15.6328 57.375 15.543 57.8906 15.543C58.6719 15.543 59.291 15.7402 59.748 16.1348C60.209 16.5254 60.4395 17.0762 60.4395 17.7871V20.5352C60.4434 21.1367 60.5273 21.5918 60.6914 21.9004V22H58.9805ZM57.5801 20.8223C57.8301 20.8223 58.0605 20.7676 58.2715 20.6582C58.4824 20.5449 58.6387 20.3945 58.7402 20.207V19.1172H58.1074C57.2598 19.1172 56.8086 19.4102 56.7539 19.9961L56.748 20.0957C56.748 20.3066 56.8223 20.4805 56.9707 20.6172C57.1191 20.7539 57.3223 20.8223 57.5801 20.8223ZM61.4766 18.7832C61.4766 17.7949 61.6973 17.0078 62.1387 16.4219C62.584 15.8359 63.1914 15.543 63.9609 15.543C64.5781 15.543 65.0879 15.7734 65.4902 16.2344V13H67.1895V22H65.6602L65.5781 21.3262C65.1562 21.8535 64.6133 22.1172 63.9492 22.1172C63.2031 22.1172 62.6035 21.8242 62.1504 21.2383C61.7012 20.6484 61.4766 19.8301 61.4766 18.7832ZM63.1699 18.9062C63.1699 19.5 63.2734 19.9551 63.4805 20.2715C63.6875 20.5879 63.9883 20.7461 64.3828 20.7461C64.9062 20.7461 65.2754 20.5254 65.4902 20.084V17.582C65.2793 17.1406 64.9141 16.9199 64.3945 16.9199C63.5781 16.9199 63.1699 17.582 63.1699 18.9062ZM71.4199 22.1172C70.4902 22.1172 69.7324 21.832 69.1465 21.2617C68.5645 20.6914 68.2734 19.9316 68.2734 18.9824V18.8184C68.2734 18.1816 68.3965 17.6133 68.6426 17.1133C68.8887 16.6094 69.2363 16.2227 69.6855 15.9531C70.1387 15.6797 70.6543 15.543 71.2324 15.543C72.0996 15.543 72.7812 15.8164 73.2773 16.3633C73.7773 16.9102 74.0273 17.6855 74.0273 18.6895V19.3809H69.9902C70.0449 19.7949 70.209 20.127 70.4824 20.377C70.7598 20.627 71.1094 20.752 71.5312 20.752C72.1836 20.752 72.6934 20.5156 73.0605 20.043L73.8926 20.9746C73.6387 21.334 73.2949 21.6152 72.8613 21.8184C72.4277 22.0176 71.9473 22.1172 71.4199 22.1172ZM71.2266 16.9141C70.8906 16.9141 70.6172 17.0273 70.4062 17.2539C70.1992 17.4805 70.0664 17.8047 70.0078 18.2266H72.3633V18.0918C72.3555 17.7168 72.2539 17.4277 72.0586 17.2246C71.8633 17.0176 71.5859 16.9141 71.2266 16.9141Z" fill="#3B56A4"/>
<defs>
<clipPath id="clip0_2596:15354">
<rect width="24" height="24" fill="white" transform="translate(6.5 6)"/>
</clipPath>
<clipPath id="clip1_2596:15354">
<rect width="24" height="24" fill="white" transform="translate(1.5293 18) rotate(-45)"/>
</clipPath>
</defs>
</svg>
