<svg width="24" height="24" viewBox="0 0 24 24" fill="none" xmlns="http://www.w3.org/2000/svg">
<path d="M5.00391 20C5.00391 21.103 5.90091 22 7.00391 22H17.0039C18.1069 22 19.0039 21.103 19.0039 20V8H20.0039C20.5562 8 21.0039 7.55228 21.0039 7C21.0039 6.44772 20.5562 6 20.0039 6H17.0039V4C17.0039 2.897 16.1069 2 15.0039 2H9.00391C7.90091 2 7.00391 2.897 7.00391 4V6H4.00391C3.45162 6 3.00391 6.44772 3.00391 7C3.00391 7.55228 3.45162 8 4.00391 8H5.00391V20ZM9.00391 4H15.0039V6H9.00391V4ZM8.00391 8H17.0039L17.0049 20H7.00391V8H8.00391Z" fill="white"/>
<path d="M9.00391 11C9.00391 10.4477 9.45162 10 10.0039 10C10.5562 10 11.0039 10.4477 11.0039 11V17C11.0039 17.5523 10.5562 18 10.0039 18C9.45162 18 9.00391 17.5523 9.00391 17V11ZM13.0039 11C13.0039 10.4477 13.4516 10 14.0039 10C14.5562 10 15.0039 10.4477 15.0039 11V17C15.0039 17.5523 14.5562 18 14.0039 18C13.4516 18 13.0039 17.5523 13.0039 17V11Z" fill="white"/>
</svg>
