<svg width="24" height="24" viewBox="0 0 24 24" fill="none" xmlns="http://www.w3.org/2000/svg">
<path d="M5.00293 20C5.00293 21.103 5.89993 22 7.00293 22H17.0029C18.1059 22 19.0029 21.103 19.0029 20V8H20.0029C20.5552 8 21.0029 7.55228 21.0029 7C21.0029 6.44772 20.5552 6 20.0029 6H17.0029V4C17.0029 2.897 16.1059 2 15.0029 2H9.00293C7.89993 2 7.00293 2.897 7.00293 4V6H4.00293C3.45064 6 3.00293 6.44772 3.00293 7C3.00293 7.55228 3.45064 8 4.00293 8H5.00293V20ZM9.00293 4H15.0029V6H9.00293V4ZM8.00293 8H17.0029L17.0039 20H7.00293V8H8.00293Z" fill="#303E67"/>
<path d="M9.00293 11C9.00293 10.4477 9.45064 10 10.0029 10C10.5552 10 11.0029 10.4477 11.0029 11V17C11.0029 17.5523 10.5552 18 10.0029 18C9.45064 18 9.00293 17.5523 9.00293 17V11ZM13.0029 11C13.0029 10.4477 13.4506 10 14.0029 10C14.5552 10 15.0029 10.4477 15.0029 11V17C15.0029 17.5523 14.5552 18 14.0029 18C13.4506 18 13.0029 17.5523 13.0029 17V11Z" fill="#506CE1"/>
</svg>
