<svg width="20" height="21" viewBox="0 0 20 21" fill="none" xmlns="http://www.w3.org/2000/svg">
<path d="M6 2H14V-1H6V2ZM18.5 6.5V14.5H21.5V6.5H18.5ZM14 19H6V22H14V19ZM1.5 14.5V6.5H-1.5V14.5H1.5ZM6 19C3.51472 19 1.5 16.9853 1.5 14.5H-1.5C-1.5 18.6421 1.85786 22 6 22V19ZM18.5 14.5C18.5 16.9853 16.4853 19 14 19V22C18.1421 22 21.5 18.6421 21.5 14.5H18.5ZM14 2C16.4853 2 18.5 4.01472 18.5 6.5H21.5C21.5 2.35786 18.1421 -1 14 -1V2ZM6 -1C1.85786 -1 -1.5 2.35786 -1.5 6.5H1.5C1.5 4.01472 3.51472 2 6 2V-1Z" fill="#8691B3"/>
</svg>
