<svg width="19" height="20" viewBox="0 0 19 20" fill="none" xmlns="http://www.w3.org/2000/svg">
<path d="M17.8719 11.178C18.2646 10.5849 18.4607 9.93199 18.4607 9.21888C18.4607 8.39349 18.1565 7.67659 17.5477 7.06703C16.9386 6.45811 16.2174 6.15371 15.3842 6.15371H13.2688C13.6533 5.36052 13.8459 4.59121 13.8459 3.84615C13.8459 2.90861 13.7053 2.16351 13.4251 1.61061C13.1446 1.05755 12.7359 0.651022 12.199 0.390487C11.662 0.130078 11.0572 0 10.3842 0C9.97535 0 9.61492 0.148222 9.30244 0.444791C8.95796 0.781269 8.70955 1.21406 8.55737 1.74292C8.40511 2.27161 8.28286 2.77849 8.1908 3.26328C8.09873 3.74802 7.95636 4.09056 7.76415 4.29085C7.37143 4.71552 6.94281 5.22847 6.47806 5.82935C5.6688 6.8789 5.11986 7.49995 4.83154 7.69233H1.53842C1.11375 7.69233 0.751128 7.84279 0.450643 8.14302C0.150284 8.44355 0 8.80612 0 9.23083V16.9228C0 17.3475 0.150116 17.71 0.450643 18.0105C0.751296 18.311 1.11375 18.4614 1.53842 18.4614H4.99963C5.17593 18.4614 5.7287 18.6216 6.65819 18.9422C7.6438 19.2868 8.51115 19.5491 9.26026 19.7294C10.0061 19.9094 10.7707 20.0002 11.5379 20H13.0883C14.218 20 15.1274 19.6773 15.8165 19.0322C16.5054 18.3871 16.8461 17.5078 16.8382 16.394C17.319 15.777 17.5593 15.0639 17.5593 14.2547C17.5593 14.0785 17.5475 13.9063 17.5233 13.7379C17.8277 13.2012 17.9802 12.6243 17.9802 12.0073C17.9801 11.7188 17.9441 11.4422 17.8719 11.178ZM2.8485 16.6946C2.69628 16.8468 2.51602 16.9231 2.30769 16.9231C2.09931 16.9231 1.91901 16.8468 1.76675 16.6946C1.61457 16.5425 1.53842 16.3622 1.53842 16.1537C1.53842 15.9454 1.6144 15.7652 1.76675 15.6129C1.91918 15.4606 2.09931 15.3845 2.30769 15.3845C2.51602 15.3845 2.69628 15.4606 2.8485 15.6129C3.00076 15.7651 3.07692 15.9454 3.07692 16.1537C3.07692 16.3622 3.00076 16.5425 2.8485 16.6946ZM16.6644 10.205C16.4921 10.5735 16.2777 10.7618 16.0213 10.7697C16.1415 10.906 16.2417 11.0965 16.3219 11.3406C16.4019 11.5851 16.4417 11.8073 16.4417 12.0078C16.4417 12.5604 16.2297 13.0372 15.805 13.4377C15.9494 13.694 16.0214 13.9706 16.0214 14.2669C16.0214 14.5634 15.9514 14.8579 15.8111 15.1503C15.671 15.4424 15.4806 15.6528 15.2403 15.781C15.2803 16.0213 15.3002 16.2457 15.3002 16.454C15.3002 17.792 14.5309 18.4611 12.9923 18.4611H11.5385C10.4886 18.4611 9.11865 18.1688 7.42784 17.5837C7.38772 17.5677 7.27171 17.5255 7.07928 17.4575C6.88686 17.3896 6.7447 17.3394 6.65251 17.3075C6.56032 17.2752 6.42022 17.2291 6.2318 17.1692C6.04341 17.1089 5.89136 17.0648 5.77509 17.0369C5.65899 17.009 5.52668 16.9829 5.37858 16.9588C5.2304 16.9348 5.10416 16.9228 5.00001 16.9228H4.61542V9.23113H5.00001C5.12819 9.23113 5.2704 9.19497 5.42666 9.12302C5.58288 9.05087 5.74322 8.94273 5.90744 8.79846C6.06527 8.66014 6.21956 8.51784 6.37017 8.37169C6.51443 8.23151 6.67465 8.05525 6.85099 7.843C7.02725 7.63058 7.16545 7.46038 7.26569 7.33216C7.39289 7.16867 7.51907 7.00439 7.64422 6.83933C7.7964 6.63908 7.88863 6.51885 7.92067 6.47873C8.36129 5.93396 8.66977 5.56941 8.84603 5.38502C9.17455 5.04059 9.4129 4.6019 9.56112 4.06905C9.70951 3.53611 9.83168 3.0333 9.92749 2.56065C10.0236 2.08794 10.176 1.7473 10.3846 1.53896C11.1536 1.53896 11.6665 1.72718 11.9229 2.10381C12.1791 2.48037 12.3074 3.06134 12.3074 3.84657C12.3074 4.31927 12.1149 4.96225 11.7302 5.77547C11.3457 6.58877 11.1536 7.2278 11.1536 7.6925H15.3841C15.7851 7.6925 16.1415 7.84666 16.4539 8.15531C16.7665 8.46375 16.923 8.82225 16.923 9.231C16.9228 9.51141 16.8367 9.83597 16.6644 10.205Z" fill="#BECAE5"/>
</svg>
