<svg width="7" height="10" viewBox="0 0 7 10" fill="none" xmlns="http://www.w3.org/2000/svg">
<path d="M1.19868 4.07646L2.8001 2.43302V9.28546C2.8001 9.47497 2.87377 9.65671 3.00492 9.79072C3.13606 9.92472 3.31394 10 3.4994 10C3.68487 10 3.86274 9.92472 3.99389 9.79072C4.12503 9.65671 4.19871 9.47497 4.19871 9.28546V2.43302L5.80013 4.07646C5.86514 4.14343 5.94248 4.19659 6.0277 4.23287C6.11292 4.26914 6.20432 4.28782 6.29664 4.28782C6.38895 4.28782 6.48036 4.26914 6.56557 4.23287C6.65079 4.19659 6.72814 4.14343 6.79314 4.07646C6.85869 4.01004 6.91072 3.93101 6.94622 3.84393C6.98172 3.75686 7 3.66347 7 3.56914C7 3.47481 6.98172 3.38142 6.94622 3.29434C6.91072 3.20727 6.85869 3.12824 6.79314 3.06181L3.99591 0.203654C3.92941 0.138601 3.85098 0.0876083 3.76514 0.0536002C3.59489 -0.0178667 3.40392 -0.0178667 3.23367 0.0536002C3.14783 0.0876083 3.0694 0.138601 3.00289 0.203654L0.205661 3.06181C0.140458 3.12844 0.088737 3.20753 0.0534497 3.29458C0.0181624 3.38162 6.8702e-10 3.47492 0 3.56914C-6.87019e-10 3.66336 0.0181624 3.75665 0.0534497 3.8437C0.088737 3.93075 0.140458 4.00984 0.205661 4.07646C0.270863 4.14308 0.34827 4.19593 0.433461 4.23199C0.518652 4.26804 0.60996 4.2866 0.70217 4.2866C0.79438 4.2866 0.885688 4.26804 0.970879 4.23199C1.05607 4.19593 1.13348 4.14308 1.19868 4.07646Z" fill="#32864E"/>
</svg>
