<svg width="64" height="64" viewBox="0 0 64 64" fill="none" xmlns="http://www.w3.org/2000/svg">
<rect x="12" y="4" width="40" height="48" rx="4" fill="#3B56A4"/>
<path d="M12 8C12 5.79086 13.7909 4 16 4V4V56V56C13.7909 56 12 54.2091 12 52V8Z" fill="#303E67"/>
<path d="M48 56C50.2091 56 52 54.2091 52 52V44C52 46.2091 50.2091 48 48 48H16C13.7909 48 12 49.7909 12 52V52C12 54.2091 13.7909 56 16 56H48Z" fill="#FDB614"/>
<path d="M22 59.7929V52H30V59.7929C30 60.2383 29.4614 60.4614 29.1464 60.1464L26 57L22.8536 60.1464C22.5386 60.4614 22 60.2383 22 59.7929Z" fill="#E04036"/>
<path d="M28.0247 18.0738H29.1088V21.6243C29.1088 22.0376 29.0218 22.3858 28.8477 22.6687C28.6761 22.9517 28.438 23.1645 28.1334 23.3072C27.8313 23.4499 27.4832 23.5213 27.0892 23.5213C26.6952 23.5213 26.3447 23.4499 26.0377 23.3072C25.7331 23.1645 25.4938 22.9517 25.3198 22.6687C25.1482 22.3858 25.0624 22.0376 25.0624 21.6243V18.0738H26.1501V21.6243C26.1501 21.8654 26.1876 22.0622 26.2625 22.2148C26.3374 22.3673 26.445 22.4793 26.5852 22.5506C26.7278 22.622 26.8958 22.6576 27.0892 22.6576C27.2874 22.6576 27.4554 22.622 27.5932 22.5506C27.7334 22.4793 27.8397 22.3673 27.9123 22.2148C27.9872 22.0622 28.0247 21.8654 28.0247 21.6243V18.0738Z" fill="white"/>
<path d="M32.7527 22.0413C32.7527 21.9453 32.7382 21.8592 32.7092 21.783C32.6826 21.7042 32.6319 21.6329 32.5569 21.5689C32.482 21.5025 32.3768 21.4373 32.2415 21.3733C32.1061 21.3093 31.9309 21.2429 31.7157 21.174C31.4764 21.0953 31.2492 21.0067 31.0341 20.9083C30.8214 20.8098 30.6328 20.6954 30.4685 20.565C30.3065 20.4322 30.1784 20.2784 30.0841 20.1037C29.9923 19.929 29.9463 19.726 29.9463 19.4947C29.9463 19.2708 29.9947 19.0678 30.0914 18.8858C30.1881 18.7012 30.3234 18.5438 30.4975 18.4134C30.6715 18.2805 30.877 18.1784 31.1139 18.107C31.3532 18.0357 31.6154 18 31.9007 18C32.2898 18 32.6294 18.0714 32.9195 18.2141C33.2096 18.3568 33.4344 18.5524 33.5939 18.8009C33.7559 19.0494 33.8368 19.3336 33.8368 19.6534H32.7563C32.7563 19.496 32.7237 19.3582 32.6584 19.2401C32.5956 19.1195 32.4989 19.0248 32.3684 18.9559C32.2403 18.887 32.0783 18.8525 31.8825 18.8525C31.694 18.8525 31.5369 18.8821 31.4112 18.9411C31.2855 18.9977 31.1912 19.0752 31.1284 19.1736C31.0655 19.2696 31.0341 19.3779 31.0341 19.4984C31.0341 19.5895 31.0558 19.6719 31.0993 19.7457C31.1453 19.8195 31.213 19.8884 31.3024 19.9524C31.3918 20.0163 31.5018 20.0766 31.6323 20.1332C31.7629 20.1898 31.9139 20.2452 32.0856 20.2993C32.3732 20.3879 32.6258 20.4875 32.8434 20.5982C33.0633 20.709 33.247 20.8332 33.3945 20.971C33.5419 21.1088 33.6531 21.265 33.7281 21.4397C33.803 21.6144 33.8405 21.8125 33.8405 22.0339C33.8405 22.2677 33.7957 22.4768 33.7063 22.6613C33.6169 22.8459 33.4876 23.0021 33.3183 23.1301C33.1491 23.258 32.9473 23.3552 32.7128 23.4216C32.4784 23.488 32.2161 23.5213 31.926 23.5213C31.665 23.5213 31.4075 23.4868 31.1537 23.4179C30.8999 23.3466 30.6691 23.2395 30.4612 23.0968C30.2557 22.9541 30.0914 22.7721 29.9681 22.5506C29.8448 22.3292 29.7832 22.0671 29.7832 21.7645H30.8745C30.8745 21.9318 30.8999 22.0733 30.9507 22.1889C31.0014 22.3046 31.0728 22.3981 31.1646 22.4694C31.2589 22.5408 31.3701 22.5924 31.4982 22.6244C31.6287 22.6564 31.7713 22.6724 31.926 22.6724C32.1146 22.6724 32.2693 22.6453 32.3901 22.5912C32.5134 22.5371 32.6041 22.462 32.6621 22.3661C32.7225 22.2701 32.7527 22.1619 32.7527 22.0413Z" fill="white"/>
<path d="M38.1226 22.5838V23.4475H35.3125V22.5838H38.1226ZM35.6679 18.0738V23.4475H34.5801V18.0738H35.6679ZM37.7563 20.2624V21.1039H35.3125V20.2624H37.7563ZM38.1189 18.0738V18.9411H35.3125V18.0738H38.1189Z" fill="white"/>
<path d="M38.7571 18.0738H40.7259C41.1296 18.0738 41.4764 18.1353 41.7665 18.2583C42.059 18.3814 42.2838 18.5634 42.4409 18.8046C42.598 19.0457 42.6766 19.3422 42.6766 19.694C42.6766 19.9819 42.6282 20.2292 42.5315 20.4359C42.4373 20.6401 42.3031 20.8111 42.1291 20.9489C41.9575 21.0842 41.7556 21.1924 41.5236 21.2736L41.1791 21.4582H39.4677L39.4605 20.5946H40.7331C40.9241 20.5946 41.0824 20.5601 41.2081 20.4912C41.3338 20.4223 41.4281 20.3264 41.4909 20.2033C41.5562 20.0803 41.5888 19.9376 41.5888 19.7752C41.5888 19.603 41.5574 19.4541 41.4946 19.3286C41.4317 19.2032 41.3362 19.1072 41.2081 19.0408C41.08 18.9743 40.9193 18.9411 40.7259 18.9411H39.8448V23.4475H38.7571V18.0738ZM41.7085 23.4475L40.5047 21.0522L41.6541 21.0448L42.8724 23.3958V23.4475H41.7085Z" fill="white"/>
<path d="M19.4967 27.5525H20.4177L21.7737 31.4979L23.1298 27.5525H24.0508L22.1436 32.9262H21.4039L19.4967 27.5525ZM19 27.5525H19.9173L20.0841 31.3982V32.9262H19V27.5525ZM23.6302 27.5525H24.5511V32.9262H23.4634V31.3982L23.6302 27.5525Z" fill="white"/>
<path d="M27.7165 28.4715L26.2806 32.9262H25.124L27.0856 27.5525H27.8216L27.7165 28.4715ZM28.9094 32.9262L27.4699 28.4715L27.3539 27.5525H28.0972L30.0696 32.9262H28.9094ZM28.8441 30.9258V31.7931H26.0558V30.9258H28.8441Z" fill="white"/>
<path d="M34.8557 27.5525V32.9262H33.7679L31.6468 29.3241V32.9262H30.5591V27.5525H31.6468L33.7716 31.1583V27.5525H34.8557Z" fill="white"/>
<path d="M38.7172 27.5525H39.8013V31.103C39.8013 31.5163 39.7143 31.8645 39.5402 32.1475C39.3686 32.4304 39.1305 32.6432 38.826 32.7859C38.5238 32.9286 38.1757 33 37.7817 33C37.3877 33 37.0372 32.9286 36.7302 32.7859C36.4257 32.6432 36.1864 32.4304 36.0123 32.1475C35.8407 31.8645 35.7549 31.5163 35.7549 31.103V27.5525H36.8426V31.103C36.8426 31.3441 36.8801 31.5409 36.955 31.6935C37.03 31.846 37.1375 31.958 37.2777 32.0294C37.4204 32.1007 37.5883 32.1364 37.7817 32.1364C37.9799 32.1364 38.1479 32.1007 38.2857 32.0294C38.4259 31.958 38.5323 31.846 38.6048 31.6935C38.6797 31.5409 38.7172 31.3441 38.7172 31.103V27.5525Z" fill="white"/>
<path d="M42.7636 28.4715L41.3278 32.9262H40.1711L42.1327 27.5525H42.8687L42.7636 28.4715ZM43.9565 32.9262L42.517 28.4715L42.401 27.5525H43.1443L45.1168 32.9262H43.9565ZM43.8912 30.9258V31.7931H41.103V30.9258H43.8912Z" fill="white"/>
<path d="M49 32.0626V32.9262H46.3423V32.0626H49ZM46.694 27.5525V32.9262H45.6062V27.5525H46.694Z" fill="white"/>
</svg>
