<svg width="16" height="16" viewBox="0 0 16 16" fill="none" xmlns="http://www.w3.org/2000/svg">
<path d="M5.33333 5.66667C5.33333 7.18667 6.48 8.33333 8 8.33333C9.52 8.33333 10.6667 7.18667 10.6667 5.66667C10.6667 4.14667 9.52 3 8 3C6.48 3 5.33333 4.14667 5.33333 5.66667ZM9.33333 5.66667C9.33333 6.452 8.78533 7 8 7C7.21467 7 6.66667 6.452 6.66667 5.66667C6.66667 4.88133 7.21467 4.33333 8 4.33333C8.78533 4.33333 9.33333 4.88133 9.33333 5.66667ZM5.33333 12.3333C5.33333 11.2307 6.23067 10.3333 7.33333 10.3333H8.66667C9.76933 10.3333 10.6667 11.2307 10.6667 12.3333V13H12V12.3333C12 10.4953 10.5047 9 8.66667 9H7.33333C5.49533 9 4 10.4953 4 12.3333V13H5.33333V12.3333Z" fill="#8691B3"/>
<path fill-rule="evenodd" clip-rule="evenodd" d="M8 14.6667C11.6819 14.6667 14.6667 11.6819 14.6667 8C14.6667 4.3181 11.6819 1.33333 8 1.33333C4.3181 1.33333 1.33333 4.3181 1.33333 8C1.33333 11.6819 4.3181 14.6667 8 14.6667ZM8 16C12.4183 16 16 12.4183 16 8C16 3.58172 12.4183 0 8 0C3.58172 0 0 3.58172 0 8C0 12.4183 3.58172 16 8 16Z" fill="#8691B3"/>
</svg>
