<svg width="24" height="24" viewBox="0 0 24 24" fill="none" xmlns="http://www.w3.org/2000/svg">
<path d="M9 19.6667H9.66667V19V15V14.3333H9H5H4.33333V15V19V19.6667H5H9ZM19 9.66667H19.6667V9V5V4.33333H19H15H14.3333V5V9V9.66667H15H19ZM17.3333 16V16.6667H18H20C20.0884 16.6667 20.1732 16.7018 20.2357 16.7643C20.2982 16.8268 20.3333 16.9116 20.3333 17C20.3333 17.0884 20.2982 17.1732 20.2357 17.2357C20.1732 17.2982 20.0884 17.3333 20 17.3333H18H17.3333V18V20C17.3333 20.0884 17.2982 20.1732 17.2357 20.2357C17.1732 20.2982 17.0884 20.3333 17 20.3333C16.9116 20.3333 16.8268 20.2982 16.7643 20.2357C16.7018 20.1732 16.6667 20.0884 16.6667 20V18V17.3333H16H14C13.9116 17.3333 13.8268 17.2982 13.7643 17.2357C13.7018 17.1732 13.6667 17.0884 13.6667 17C13.6667 16.9116 13.7018 16.8268 13.7643 16.7643C13.8268 16.7018 13.9116 16.6667 14 16.6667H16H16.6667V16V14C16.6667 13.9116 16.7018 13.8268 16.7643 13.7643C16.8268 13.7018 16.9116 13.6667 17 13.6667C17.0884 13.6667 17.1732 13.7018 17.2357 13.7643C17.2982 13.8268 17.3333 13.9116 17.3333 14V16ZM9 9.66667H9.66667V9V5V4.33333H9H5H4.33333V5V9V9.66667H5H9ZM4 13.6667H10C10.0884 13.6667 10.1732 13.7018 10.2357 13.7643C10.2982 13.8268 10.3333 13.9116 10.3333 14V20C10.3333 20.0884 10.2982 20.1732 10.2357 20.2357C10.1732 20.2982 10.0884 20.3333 10 20.3333H4C3.91159 20.3333 3.82681 20.2982 3.7643 20.2357C3.70179 20.1732 3.66667 20.0884 3.66667 20V14C3.66667 13.9116 3.70179 13.8268 3.7643 13.7643C3.82681 13.7018 3.91159 13.6667 4 13.6667ZM14 3.66667H20C20.0884 3.66667 20.1732 3.70179 20.2357 3.7643C20.2982 3.82681 20.3333 3.91159 20.3333 4V10C20.3333 10.0884 20.2982 10.1732 20.2357 10.2357C20.1732 10.2982 20.0884 10.3333 20 10.3333H14C13.9116 10.3333 13.8268 10.2982 13.7643 10.2357C13.7018 10.1732 13.6667 10.0884 13.6667 10V4C13.6667 3.91159 13.7018 3.82681 13.7643 3.7643C13.8268 3.70179 13.9116 3.66667 14 3.66667ZM4 3.66667H10C10.0884 3.66667 10.1732 3.70179 10.2357 3.7643C10.2982 3.82681 10.3333 3.91159 10.3333 4V10C10.3333 10.0884 10.2982 10.1732 10.2357 10.2357C10.1732 10.2982 10.0884 10.3333 10 10.3333H4C3.91159 10.3333 3.82681 10.2982 3.7643 10.2357C3.70179 10.1732 3.66667 10.0884 3.66667 10V4C3.66667 3.91159 3.70179 3.82681 3.7643 3.7643C3.82681 3.70179 3.91159 3.66667 4 3.66667Z" fill="#3B56A4" stroke="#3B56A4" stroke-width="1.33333"/>
</svg>
