<svg width="40" height="40" viewBox="0 0 40 40" fill="none" xmlns="http://www.w3.org/2000/svg">
<circle cx="20" cy="20" r="18" fill="url(#paint0_radial_24394_81531)"/>
<path d="M20.1249 26.0348C19.0061 26.0348 17.8968 25.8473 16.8436 25.4723C15.5468 25.0254 14.1374 25.716 13.6905 27.0098C13.4374 27.741 13.5405 28.5473 13.9686 29.191C15.3124 31.2535 17.4374 32.3785 20.1249 32.3785C22.8124 32.3785 24.9374 31.2535 26.2811 29.191C27.0405 28.0504 26.728 26.5098 25.5874 25.7504C24.9436 25.3223 24.1374 25.2191 23.4061 25.4723C22.353 25.8473 21.2436 26.0348 20.1249 26.0348Z" fill="#422B0D"/>
<path opacity="0.8" d="M10.6875 27.875C13.7078 27.875 16.1562 25.5665 16.1562 22.7187C16.1562 19.871 13.7078 17.5625 10.6875 17.5625C7.66719 17.5625 5.21875 19.871 5.21875 22.7187C5.21875 25.5665 7.66719 27.875 10.6875 27.875Z" fill="url(#paint1_radial_24394_81531)"/>
<path opacity="0.8" d="M29.5625 27.875C32.5828 27.875 35.0312 25.5665 35.0312 22.7187C35.0312 19.871 32.5828 17.5625 29.5625 17.5625C26.5422 17.5625 24.0938 19.871 24.0938 22.7187C24.0938 25.5665 26.5422 27.875 29.5625 27.875Z" fill="url(#paint2_radial_24394_81531)"/>
<path d="M33.6218 10.7383C31.0562 10.0164 29.1718 12.1133 29.1718 12.1133C29.1718 12.1133 28.953 9.73515 26.7593 8.98827C24.128 8.08515 21.3499 9.52265 21.1843 13.2508C20.9968 17.4976 26.6155 23.0726 26.6155 23.0726C26.6155 23.0726 33.5905 21.1976 35.8749 17.2226C37.7343 13.9883 35.5624 11.282 33.6218 10.7383Z" fill="#F44336"/>
<path d="M33.6215 10.7413C33.3059 10.6569 32.9809 10.6194 32.6559 10.6257C33.5746 11.2413 34.3027 12.1007 34.7559 13.1069C35.1965 14.1663 35.3121 15.535 34.4746 17.1694C32.659 20.7225 27.0684 22.9225 26.6621 23.0757C27.1715 22.9319 33.6902 21.0569 35.8871 17.235C37.734 13.9913 35.5621 11.285 33.6215 10.7413Z" fill="#C62828"/>
<path d="M29.1685 12.5C29.1497 12.175 29.0997 11.85 29.0247 11.5313C28.8435 10.6125 28.2747 9.81562 27.4622 9.34375C26.906 9.01875 26.2903 8.8125 25.6528 8.73438C25.6528 8.73438 26.5903 9.01875 27.2591 10.3156C27.5997 10.9969 27.8028 11.7406 27.8528 12.5C27.8497 12.7781 27.8997 13.05 27.9997 13.3094C28.1122 13.5687 28.3872 13.7219 28.6685 13.6781C29.0966 13.5687 29.1903 13.0344 29.1685 12.5Z" fill="#C62828"/>
<path d="M23.0934 11.0062C23.6778 10.2812 24.6372 9.59061 25.5559 10.2281C26.0434 10.5687 26.0497 11.5344 25.4528 11.9687C24.4466 12.7062 24.3997 13.1906 24.2872 13.5969C24.1497 14.0812 24.0622 14.6594 23.6216 14.9031C23.1809 15.1469 22.7934 14.9031 22.5622 14.2062C22.1684 13.1187 22.3684 11.9062 23.0934 11.0062Z" fill="#FF847A"/>
<path d="M12.7248 8.92559C10.1905 9.74747 9.78422 12.5381 9.78422 12.5381C9.78422 12.5381 8.28422 10.6631 6.03422 11.2693C3.34985 11.9756 1.83422 14.7131 3.74985 17.9037C5.9686 21.56 13.7311 23.0756 13.7311 23.0756C13.7311 23.0756 18.4967 17.6506 18.1967 13.0756C17.9498 9.35059 14.6405 8.30372 12.7248 8.92559Z" fill="#F44336"/>
<path d="M12.7248 8.92561C12.4154 9.02561 12.1186 9.16936 11.8467 9.35061C12.9529 9.35373 14.0342 9.66623 14.9717 10.2537C15.9279 10.8787 16.7811 11.9662 16.9936 13.7944C17.4529 17.76 14.0154 22.6881 13.7498 23.0475C14.0967 22.6475 18.4811 17.4725 18.1936 13.0725C17.9498 9.35061 14.6404 8.30373 12.7248 8.92561Z" fill="#C62828"/>
<path d="M10 12.864C9.80625 12.5984 9.5875 12.3546 9.34375 12.1359C8.6875 11.4671 7.77812 11.1109 6.84375 11.1609C6.20312 11.1984 5.575 11.364 5 11.6546C5 11.6546 5.9375 11.3703 7.2125 12.0828C7.87812 12.4671 8.45625 12.9828 8.91875 13.5953C9.06875 13.8296 9.2625 14.0296 9.49063 14.189C9.72813 14.3421 10.0406 14.314 10.25 14.1234C10.5281 13.7859 10.3125 13.2921 10 12.864Z" fill="#C62828"/>
<path d="M4.12494 14.996C4.13744 14.7335 4.18432 14.4741 4.26244 14.2241C4.39057 13.6991 4.76244 13.2648 5.25932 13.0554C5.73744 12.9054 6.39994 13.0116 6.65619 13.4898C6.88432 13.9148 6.71869 14.4273 6.59369 14.896C6.48119 15.4335 6.41869 15.9835 6.40619 16.5335C6.40932 16.9835 6.04994 17.3491 5.59994 17.3554C5.17494 17.3554 4.84369 16.9866 4.60619 16.6335C4.27494 16.1523 4.10619 15.5804 4.12494 14.996Z" fill="#FF847A"/>
<defs>
<radialGradient id="paint0_radial_24394_81531" cx="0" cy="0" r="1" gradientUnits="userSpaceOnUse" gradientTransform="translate(20 20) scale(17.6771 18.3412)">
<stop offset="0.5" stop-color="#FDE030"/>
<stop offset="0.92" stop-color="#F7C02B"/>
<stop offset="1" stop-color="#F4A223"/>
</radialGradient>
<radialGradient id="paint1_radial_24394_81531" cx="0" cy="0" r="1" gradientUnits="userSpaceOnUse" gradientTransform="translate(10.6875 20.347) scale(5.95996 5.3518)">
<stop stop-color="#ED7770"/>
<stop offset="0.9" stop-color="#ED7770" stop-opacity="0"/>
</radialGradient>
<radialGradient id="paint2_radial_24394_81531" cx="0" cy="0" r="1" gradientUnits="userSpaceOnUse" gradientTransform="translate(38.475 789.872) scale(6.08125)">
<stop stop-color="#ED7770"/>
<stop offset="0.9" stop-color="#ED7770" stop-opacity="0"/>
</radialGradient>
</defs>
</svg>
