<svg width="50" height="50" viewBox="0 0 50 50" fill="none" xmlns="http://www.w3.org/2000/svg">
<rect x="1.5" y="1.5" width="47" height="47" rx="23.5" fill="white"/>
<path d="M18.3333 19.1667C18.3333 22.9667 21.2 25.8333 25 25.8333C28.8 25.8333 31.6667 22.9667 31.6667 19.1667C31.6667 15.3667 28.8 12.5 25 12.5C21.2 12.5 18.3333 15.3667 18.3333 19.1667ZM28.3333 19.1667C28.3333 21.13 26.9633 22.5 25 22.5C23.0367 22.5 21.6667 21.13 21.6667 19.1667C21.6667 17.2033 23.0367 15.8333 25 15.8333C26.9633 15.8333 28.3333 17.2033 28.3333 19.1667ZM18.3333 35.8333C18.3333 33.0767 20.5767 30.8333 23.3333 30.8333H26.6667C29.4233 30.8333 31.6667 33.0767 31.6667 35.8333V37.5H35V35.8333C35 31.2383 31.2617 27.5 26.6667 27.5H23.3333C18.7383 27.5 15 31.2383 15 35.8333V37.5H18.3333V35.8333Z" fill="#3B56A4"/>
<path fill-rule="evenodd" clip-rule="evenodd" d="M25 41.6667C34.2047 41.6667 41.6667 34.2047 41.6667 25C41.6667 15.7953 34.2047 8.33333 25 8.33333C15.7953 8.33333 8.33333 15.7953 8.33333 25C8.33333 34.2047 15.7953 41.6667 25 41.6667ZM25 45C36.0457 45 45 36.0457 45 25C45 13.9543 36.0457 5 25 5C13.9543 5 5 13.9543 5 25C5 36.0457 13.9543 45 25 45Z" fill="white"/>
<rect x="1.5" y="1.5" width="47" height="47" rx="23.5" stroke="#3B56A4" stroke-width="3"/>
</svg>
