<svg width="24" height="24" viewBox="0 0 24 24" fill="none" xmlns="http://www.w3.org/2000/svg">
<path d="M20.0435 12.6594C19.8831 12.4769 19.7947 12.2423 19.7947 11.9994C19.7947 11.7565 19.8831 11.5219 20.0435 11.3394L21.3235 9.89941C21.4645 9.74208 21.5521 9.54411 21.5736 9.33391C21.5952 9.12372 21.5496 8.91209 21.4435 8.72941L19.4435 5.26941C19.3384 5.08693 19.1783 4.94228 18.9862 4.85609C18.7941 4.7699 18.5796 4.74657 18.3735 4.78941L16.4935 5.16941C16.2542 5.21884 16.0052 5.179 15.7933 5.05741C15.5815 4.93582 15.4214 4.74089 15.3435 4.50941L14.7335 2.67941C14.6664 2.48079 14.5386 2.30827 14.3681 2.18625C14.1976 2.06423 13.9931 1.99887 13.7835 1.99941H9.78345C9.56538 1.98802 9.34959 2.04833 9.16902 2.17112C8.98845 2.29391 8.85303 2.47243 8.78345 2.67941L8.22345 4.50941C8.14545 4.74089 7.98542 4.93582 7.77356 5.05741C7.5617 5.179 7.31267 5.21884 7.07345 5.16941L5.14345 4.78941C4.948 4.76179 4.74875 4.79263 4.5708 4.87805C4.39285 4.96346 4.24415 5.09964 4.14345 5.26941L2.14345 8.72941C2.03461 8.91006 1.98567 9.12049 2.00363 9.33063C2.02159 9.54077 2.10553 9.73985 2.24345 9.89941L3.51345 11.3394C3.67377 11.5219 3.76219 11.7565 3.76219 11.9994C3.76219 12.2423 3.67377 12.4769 3.51345 12.6594L2.24345 14.0994C2.10553 14.259 2.02159 14.458 2.00363 14.6682C1.98567 14.8783 2.03461 15.0888 2.14345 15.2694L4.14345 18.7294C4.24855 18.9119 4.40857 19.0565 4.6007 19.1427C4.79284 19.2289 5.00728 19.2523 5.21345 19.2094L7.09345 18.8294C7.33267 18.78 7.5817 18.8198 7.79356 18.9414C8.00542 19.063 8.16545 19.2579 8.24345 19.4894L8.85345 21.3194C8.92303 21.5264 9.05845 21.7049 9.23902 21.8277C9.41959 21.9505 9.63538 22.0108 9.85345 21.9994H13.8535C14.0631 22 14.2676 21.9346 14.4381 21.8126C14.6086 21.6905 14.7364 21.518 14.8035 21.3194L15.4135 19.4894C15.4915 19.2579 15.6515 19.063 15.8633 18.9414C16.0752 18.8198 16.3242 18.78 16.5635 18.8294L18.4435 19.2094C18.6496 19.2523 18.8641 19.2289 19.0562 19.1427C19.2483 19.0565 19.4084 18.9119 19.5135 18.7294L21.5135 15.2694C21.6196 15.0867 21.6652 14.8751 21.6436 14.6649C21.6221 14.4547 21.5345 14.2567 21.3935 14.0994L20.0435 12.6594ZM18.5535 13.9994L19.3535 14.8994L18.0735 17.1194L16.8935 16.8794C16.1732 16.7322 15.424 16.8545 14.788 17.2232C14.1521 17.5919 13.6736 18.1812 13.4435 18.8794L13.0635 19.9994H10.5035L10.1435 18.8594C9.91331 18.1613 9.43483 17.5719 8.79886 17.2032C8.16288 16.8345 7.41367 16.7122 6.69345 16.8594L5.51345 17.0994L4.21345 14.8894L5.01345 13.9894C5.50541 13.4394 5.77738 12.7273 5.77738 11.9894C5.77738 11.2515 5.50541 10.5394 5.01345 9.98941L4.21345 9.08941L5.49345 6.88941L6.67345 7.12941C7.39367 7.27663 8.14288 7.15429 8.77886 6.78561C9.41483 6.41692 9.89331 5.82757 10.1235 5.12941L10.5035 3.99941H13.0635L13.4435 5.13941C13.6736 5.83757 14.1521 6.42692 14.788 6.79561C15.424 7.16429 16.1732 7.28663 16.8935 7.13941L18.0735 6.89941L19.3535 9.11941L18.5535 10.0194C18.067 10.5682 17.7984 11.2761 17.7984 12.0094C17.7984 12.7427 18.067 13.4506 18.5535 13.9994Z" fill="white"/>
<path d="M11.6397 8C10.8485 8 10.0752 8.2346 9.41737 8.67412C8.75957 9.11365 8.24688 9.73836 7.94413 10.4693C7.64138 11.2002 7.56217 12.0044 7.71651 12.7804C7.87085 13.5563 8.25181 14.269 8.81122 14.8284C9.37063 15.3878 10.0834 15.7688 10.8593 15.9231C11.6352 16.0775 12.4395 15.9983 13.1704 15.6955C13.9013 15.3928 14.526 14.8801 14.9655 14.2223C15.4051 13.5645 15.6397 12.7911 15.6397 12C15.6397 10.9391 15.2182 9.92172 14.4681 9.17157C13.7179 8.42143 12.7005 8 11.6397 8ZM11.6397 14C11.2441 14 10.8574 13.8827 10.5285 13.6629C10.1996 13.4432 9.94327 13.1308 9.79189 12.7654C9.64052 12.3999 9.60091 11.9978 9.67808 11.6098C9.75525 11.2219 9.94573 10.8655 10.2254 10.5858C10.5051 10.3061 10.8615 10.1156 11.2495 10.0384C11.6374 9.96126 12.0396 10.0009 12.405 10.1522C12.7705 10.3036 13.0828 10.56 13.3026 10.8889C13.5224 11.2178 13.6397 11.6044 13.6397 12C13.6397 12.5304 13.4289 13.0391 13.0539 13.4142C12.6788 13.7893 12.1701 14 11.6397 14Z" fill="white"/>
</svg>
